<?xml version="1.0" encoding="utf-8" standalone="no"?>
<!DOCTYPE svg PUBLIC "-//W3C//DTD SVG 1.1//EN"
  "http://www.w3.org/Graphics/SVG/1.1/DTD/svg11.dtd">
<!-- Created with matplotlib (https://matplotlib.org/) -->
<svg height="288pt" version="1.1" viewBox="0 0 288 288" width="288pt" xmlns="http://www.w3.org/2000/svg" xmlns:xlink="http://www.w3.org/1999/xlink">
 <defs>
  <style type="text/css">
*{stroke-linecap:butt;stroke-linejoin:round;}
  </style>
 </defs>
 <g id="figure_1">
  <g id="patch_1">
   <path d="M 0 288 
L 288 288 
L 288 0 
L 0 0 
z
" style="fill:#ffffff;"/>
  </g>
  <g id="axes_1">
   <g id="patch_2">
    <path d="M 36 252 
L 259.2 252 
L 259.2 34.56 
L 36 34.56 
z
" style="fill:#ffffff;"/>
   </g>
   <g id="matplotlib.axis_1">
    <g id="xtick_1">
     <g id="line2d_1">
      <defs>
       <path d="M 0 0 
L 0 3.5 
" id="ma0a9a152ba" style="stroke:#000000;stroke-width:0.8;"/>
      </defs>
      <g>
       <use style="stroke:#000000;stroke-width:0.8;" x="46.145455" xlink:href="#ma0a9a152ba" y="252"/>
      </g>
     </g>
     <g id="text_1">
      <!-- 0 -->
      <defs>
       <path d="M 31.78125 66.40625 
Q 24.171875 66.40625 20.328125 58.90625 
Q 16.5 51.421875 16.5 36.375 
Q 16.5 21.390625 20.328125 13.890625 
Q 24.171875 6.390625 31.78125 6.390625 
Q 39.453125 6.390625 43.28125 13.890625 
Q 47.125 21.390625 47.125 36.375 
Q 47.125 51.421875 43.28125 58.90625 
Q 39.453125 66.40625 31.78125 66.40625 
z
M 31.78125 74.21875 
Q 44.046875 74.21875 50.515625 64.515625 
Q 56.984375 54.828125 56.984375 36.375 
Q 56.984375 17.96875 50.515625 8.265625 
Q 44.046875 -1.421875 31.78125 -1.421875 
Q 19.53125 -1.421875 13.0625 8.265625 
Q 6.59375 17.96875 6.59375 36.375 
Q 6.59375 54.828125 13.0625 64.515625 
Q 19.53125 74.21875 31.78125 74.21875 
z
" id="DejaVuSans-48"/>
      </defs>
      <g transform="translate(42.964205 266.598437)scale(0.1 -0.1)">
       <use xlink:href="#DejaVuSans-48"/>
      </g>
     </g>
    </g>
    <g id="xtick_2">
     <g id="line2d_2">
      <g>
       <use style="stroke:#000000;stroke-width:0.8;" x="107.539127" xlink:href="#ma0a9a152ba" y="252"/>
      </g>
     </g>
     <g id="text_2">
      <!-- 20 -->
      <defs>
       <path d="M 19.1875 8.296875 
L 53.609375 8.296875 
L 53.609375 0 
L 7.328125 0 
L 7.328125 8.296875 
Q 12.9375 14.109375 22.625 23.890625 
Q 32.328125 33.6875 34.8125 36.53125 
Q 39.546875 41.84375 41.421875 45.53125 
Q 43.3125 49.21875 43.3125 52.78125 
Q 43.3125 58.59375 39.234375 62.25 
Q 35.15625 65.921875 28.609375 65.921875 
Q 23.96875 65.921875 18.8125 64.3125 
Q 13.671875 62.703125 7.8125 59.421875 
L 7.8125 69.390625 
Q 13.765625 71.78125 18.9375 73 
Q 24.125 74.21875 28.421875 74.21875 
Q 39.75 74.21875 46.484375 68.546875 
Q 53.21875 62.890625 53.21875 53.421875 
Q 53.21875 48.921875 51.53125 44.890625 
Q 49.859375 40.875 45.40625 35.40625 
Q 44.1875 33.984375 37.640625 27.21875 
Q 31.109375 20.453125 19.1875 8.296875 
z
" id="DejaVuSans-50"/>
      </defs>
      <g transform="translate(101.176627 266.598437)scale(0.1 -0.1)">
       <use xlink:href="#DejaVuSans-50"/>
       <use x="63.623047" xlink:href="#DejaVuSans-48"/>
      </g>
     </g>
    </g>
    <g id="xtick_3">
     <g id="line2d_3">
      <g>
       <use style="stroke:#000000;stroke-width:0.8;" x="168.9328" xlink:href="#ma0a9a152ba" y="252"/>
      </g>
     </g>
     <g id="text_3">
      <!-- 40 -->
      <defs>
       <path d="M 37.796875 64.3125 
L 12.890625 25.390625 
L 37.796875 25.390625 
z
M 35.203125 72.90625 
L 47.609375 72.90625 
L 47.609375 25.390625 
L 58.015625 25.390625 
L 58.015625 17.1875 
L 47.609375 17.1875 
L 47.609375 0 
L 37.796875 0 
L 37.796875 17.1875 
L 4.890625 17.1875 
L 4.890625 26.703125 
z
" id="DejaVuSans-52"/>
      </defs>
      <g transform="translate(162.5703 266.598437)scale(0.1 -0.1)">
       <use xlink:href="#DejaVuSans-52"/>
       <use x="63.623047" xlink:href="#DejaVuSans-48"/>
      </g>
     </g>
    </g>
    <g id="xtick_4">
     <g id="line2d_4">
      <g>
       <use style="stroke:#000000;stroke-width:0.8;" x="230.326473" xlink:href="#ma0a9a152ba" y="252"/>
      </g>
     </g>
     <g id="text_4">
      <!-- 60 -->
      <defs>
       <path d="M 33.015625 40.375 
Q 26.375 40.375 22.484375 35.828125 
Q 18.609375 31.296875 18.609375 23.390625 
Q 18.609375 15.53125 22.484375 10.953125 
Q 26.375 6.390625 33.015625 6.390625 
Q 39.65625 6.390625 43.53125 10.953125 
Q 47.40625 15.53125 47.40625 23.390625 
Q 47.40625 31.296875 43.53125 35.828125 
Q 39.65625 40.375 33.015625 40.375 
z
M 52.59375 71.296875 
L 52.59375 62.3125 
Q 48.875 64.0625 45.09375 64.984375 
Q 41.3125 65.921875 37.59375 65.921875 
Q 27.828125 65.921875 22.671875 59.328125 
Q 17.53125 52.734375 16.796875 39.40625 
Q 19.671875 43.65625 24.015625 45.921875 
Q 28.375 48.1875 33.59375 48.1875 
Q 44.578125 48.1875 50.953125 41.515625 
Q 57.328125 34.859375 57.328125 23.390625 
Q 57.328125 12.15625 50.6875 5.359375 
Q 44.046875 -1.421875 33.015625 -1.421875 
Q 20.359375 -1.421875 13.671875 8.265625 
Q 6.984375 17.96875 6.984375 36.375 
Q 6.984375 53.65625 15.1875 63.9375 
Q 23.390625 74.21875 37.203125 74.21875 
Q 40.921875 74.21875 44.703125 73.484375 
Q 48.484375 72.75 52.59375 71.296875 
z
" id="DejaVuSans-54"/>
      </defs>
      <g transform="translate(223.963973 266.598437)scale(0.1 -0.1)">
       <use xlink:href="#DejaVuSans-54"/>
       <use x="63.623047" xlink:href="#DejaVuSans-48"/>
      </g>
     </g>
    </g>
    <g id="text_5">
     <!-- Inclination -->
     <defs>
      <path d="M 9.8125 72.90625 
L 19.671875 72.90625 
L 19.671875 0 
L 9.8125 0 
z
" id="DejaVuSans-73"/>
      <path d="M 54.890625 33.015625 
L 54.890625 0 
L 45.90625 0 
L 45.90625 32.71875 
Q 45.90625 40.484375 42.875 44.328125 
Q 39.84375 48.1875 33.796875 48.1875 
Q 26.515625 48.1875 22.3125 43.546875 
Q 18.109375 38.921875 18.109375 30.90625 
L 18.109375 0 
L 9.078125 0 
L 9.078125 54.6875 
L 18.109375 54.6875 
L 18.109375 46.1875 
Q 21.34375 51.125 25.703125 53.5625 
Q 30.078125 56 35.796875 56 
Q 45.21875 56 50.046875 50.171875 
Q 54.890625 44.34375 54.890625 33.015625 
z
" id="DejaVuSans-110"/>
      <path d="M 48.78125 52.59375 
L 48.78125 44.1875 
Q 44.96875 46.296875 41.140625 47.34375 
Q 37.3125 48.390625 33.40625 48.390625 
Q 24.65625 48.390625 19.8125 42.84375 
Q 14.984375 37.3125 14.984375 27.296875 
Q 14.984375 17.28125 19.8125 11.734375 
Q 24.65625 6.203125 33.40625 6.203125 
Q 37.3125 6.203125 41.140625 7.25 
Q 44.96875 8.296875 48.78125 10.40625 
L 48.78125 2.09375 
Q 45.015625 0.34375 40.984375 -0.53125 
Q 36.96875 -1.421875 32.421875 -1.421875 
Q 20.0625 -1.421875 12.78125 6.34375 
Q 5.515625 14.109375 5.515625 27.296875 
Q 5.515625 40.671875 12.859375 48.328125 
Q 20.21875 56 33.015625 56 
Q 37.15625 56 41.109375 55.140625 
Q 45.0625 54.296875 48.78125 52.59375 
z
" id="DejaVuSans-99"/>
      <path d="M 9.421875 75.984375 
L 18.40625 75.984375 
L 18.40625 0 
L 9.421875 0 
z
" id="DejaVuSans-108"/>
      <path d="M 9.421875 54.6875 
L 18.40625 54.6875 
L 18.40625 0 
L 9.421875 0 
z
M 9.421875 75.984375 
L 18.40625 75.984375 
L 18.40625 64.59375 
L 9.421875 64.59375 
z
" id="DejaVuSans-105"/>
      <path d="M 34.28125 27.484375 
Q 23.390625 27.484375 19.1875 25 
Q 14.984375 22.515625 14.984375 16.5 
Q 14.984375 11.71875 18.140625 8.90625 
Q 21.296875 6.109375 26.703125 6.109375 
Q 34.1875 6.109375 38.703125 11.40625 
Q 43.21875 16.703125 43.21875 25.484375 
L 43.21875 27.484375 
z
M 52.203125 31.203125 
L 52.203125 0 
L 43.21875 0 
L 43.21875 8.296875 
Q 40.140625 3.328125 35.546875 0.953125 
Q 30.953125 -1.421875 24.3125 -1.421875 
Q 15.921875 -1.421875 10.953125 3.296875 
Q 6 8.015625 6 15.921875 
Q 6 25.140625 12.171875 29.828125 
Q 18.359375 34.515625 30.609375 34.515625 
L 43.21875 34.515625 
L 43.21875 35.40625 
Q 43.21875 41.609375 39.140625 45 
Q 35.0625 48.390625 27.6875 48.390625 
Q 23 48.390625 18.546875 47.265625 
Q 14.109375 46.140625 10.015625 43.890625 
L 10.015625 52.203125 
Q 14.9375 54.109375 19.578125 55.046875 
Q 24.21875 56 28.609375 56 
Q 40.484375 56 46.34375 49.84375 
Q 52.203125 43.703125 52.203125 31.203125 
z
" id="DejaVuSans-97"/>
      <path d="M 18.3125 70.21875 
L 18.3125 54.6875 
L 36.8125 54.6875 
L 36.8125 47.703125 
L 18.3125 47.703125 
L 18.3125 18.015625 
Q 18.3125 11.328125 20.140625 9.421875 
Q 21.96875 7.515625 27.59375 7.515625 
L 36.8125 7.515625 
L 36.8125 0 
L 27.59375 0 
Q 17.1875 0 13.234375 3.875 
Q 9.28125 7.765625 9.28125 18.015625 
L 9.28125 47.703125 
L 2.6875 47.703125 
L 2.6875 54.6875 
L 9.28125 54.6875 
L 9.28125 70.21875 
z
" id="DejaVuSans-116"/>
      <path d="M 30.609375 48.390625 
Q 23.390625 48.390625 19.1875 42.75 
Q 14.984375 37.109375 14.984375 27.296875 
Q 14.984375 17.484375 19.15625 11.84375 
Q 23.34375 6.203125 30.609375 6.203125 
Q 37.796875 6.203125 41.984375 11.859375 
Q 46.1875 17.53125 46.1875 27.296875 
Q 46.1875 37.015625 41.984375 42.703125 
Q 37.796875 48.390625 30.609375 48.390625 
z
M 30.609375 56 
Q 42.328125 56 49.015625 48.375 
Q 55.71875 40.765625 55.71875 27.296875 
Q 55.71875 13.875 49.015625 6.21875 
Q 42.328125 -1.421875 30.609375 -1.421875 
Q 18.84375 -1.421875 12.171875 6.21875 
Q 5.515625 13.875 5.515625 27.296875 
Q 5.515625 40.765625 12.171875 48.375 
Q 18.84375 56 30.609375 56 
z
" id="DejaVuSans-111"/>
     </defs>
     <g transform="translate(121.61875 280.276563)scale(0.1 -0.1)">
      <use xlink:href="#DejaVuSans-73"/>
      <use x="29.492188" xlink:href="#DejaVuSans-110"/>
      <use x="92.871094" xlink:href="#DejaVuSans-99"/>
      <use x="147.851562" xlink:href="#DejaVuSans-108"/>
      <use x="175.634766" xlink:href="#DejaVuSans-105"/>
      <use x="203.417969" xlink:href="#DejaVuSans-110"/>
      <use x="266.796875" xlink:href="#DejaVuSans-97"/>
      <use x="328.076172" xlink:href="#DejaVuSans-116"/>
      <use x="367.285156" xlink:href="#DejaVuSans-105"/>
      <use x="395.068359" xlink:href="#DejaVuSans-111"/>
      <use x="456.25" xlink:href="#DejaVuSans-110"/>
     </g>
    </g>
   </g>
   <g id="matplotlib.axis_2">
    <g id="ytick_1">
     <g id="line2d_5">
      <defs>
       <path d="M 0 0 
L -3.5 0 
" id="mf6093fc863" style="stroke:#000000;stroke-width:0.8;"/>
      </defs>
      <g>
       <use style="stroke:#000000;stroke-width:0.8;" x="36" xlink:href="#mf6093fc863" y="242.116364"/>
      </g>
     </g>
     <g id="text_6">
      <!-- 0.0 -->
      <defs>
       <path d="M 10.6875 12.40625 
L 21 12.40625 
L 21 0 
L 10.6875 0 
z
" id="DejaVuSans-46"/>
      </defs>
      <g transform="translate(13.096875 245.915582)scale(0.1 -0.1)">
       <use xlink:href="#DejaVuSans-48"/>
       <use x="63.623047" xlink:href="#DejaVuSans-46"/>
       <use x="95.410156" xlink:href="#DejaVuSans-48"/>
      </g>
     </g>
    </g>
    <g id="ytick_2">
     <g id="line2d_6">
      <g>
       <use style="stroke:#000000;stroke-width:0.8;" x="36" xlink:href="#mf6093fc863" y="199.718683"/>
      </g>
     </g>
     <g id="text_7">
      <!-- 0.5 -->
      <defs>
       <path d="M 10.796875 72.90625 
L 49.515625 72.90625 
L 49.515625 64.59375 
L 19.828125 64.59375 
L 19.828125 46.734375 
Q 21.96875 47.46875 24.109375 47.828125 
Q 26.265625 48.1875 28.421875 48.1875 
Q 40.625 48.1875 47.75 41.5 
Q 54.890625 34.8125 54.890625 23.390625 
Q 54.890625 11.625 47.5625 5.09375 
Q 40.234375 -1.421875 26.90625 -1.421875 
Q 22.3125 -1.421875 17.546875 -0.640625 
Q 12.796875 0.140625 7.71875 1.703125 
L 7.71875 11.625 
Q 12.109375 9.234375 16.796875 8.0625 
Q 21.484375 6.890625 26.703125 6.890625 
Q 35.15625 6.890625 40.078125 11.328125 
Q 45.015625 15.765625 45.015625 23.390625 
Q 45.015625 31 40.078125 35.4375 
Q 35.15625 39.890625 26.703125 39.890625 
Q 22.75 39.890625 18.8125 39.015625 
Q 14.890625 38.140625 10.796875 36.28125 
z
" id="DejaVuSans-53"/>
      </defs>
      <g transform="translate(13.096875 203.517902)scale(0.1 -0.1)">
       <use xlink:href="#DejaVuSans-48"/>
       <use x="63.623047" xlink:href="#DejaVuSans-46"/>
       <use x="95.410156" xlink:href="#DejaVuSans-53"/>
      </g>
     </g>
    </g>
    <g id="ytick_3">
     <g id="line2d_7">
      <g>
       <use style="stroke:#000000;stroke-width:0.8;" x="36" xlink:href="#mf6093fc863" y="157.321003"/>
      </g>
     </g>
     <g id="text_8">
      <!-- 1.0 -->
      <defs>
       <path d="M 12.40625 8.296875 
L 28.515625 8.296875 
L 28.515625 63.921875 
L 10.984375 60.40625 
L 10.984375 69.390625 
L 28.421875 72.90625 
L 38.28125 72.90625 
L 38.28125 8.296875 
L 54.390625 8.296875 
L 54.390625 0 
L 12.40625 0 
z
" id="DejaVuSans-49"/>
      </defs>
      <g transform="translate(13.096875 161.120221)scale(0.1 -0.1)">
       <use xlink:href="#DejaVuSans-49"/>
       <use x="63.623047" xlink:href="#DejaVuSans-46"/>
       <use x="95.410156" xlink:href="#DejaVuSans-48"/>
      </g>
     </g>
    </g>
    <g id="ytick_4">
     <g id="line2d_8">
      <g>
       <use style="stroke:#000000;stroke-width:0.8;" x="36" xlink:href="#mf6093fc863" y="114.923322"/>
      </g>
     </g>
     <g id="text_9">
      <!-- 1.5 -->
      <g transform="translate(13.096875 118.722541)scale(0.1 -0.1)">
       <use xlink:href="#DejaVuSans-49"/>
       <use x="63.623047" xlink:href="#DejaVuSans-46"/>
       <use x="95.410156" xlink:href="#DejaVuSans-53"/>
      </g>
     </g>
    </g>
    <g id="ytick_5">
     <g id="line2d_9">
      <g>
       <use style="stroke:#000000;stroke-width:0.8;" x="36" xlink:href="#mf6093fc863" y="72.525642"/>
      </g>
     </g>
     <g id="text_10">
      <!-- 2.0 -->
      <g transform="translate(13.096875 76.324861)scale(0.1 -0.1)">
       <use xlink:href="#DejaVuSans-50"/>
       <use x="63.623047" xlink:href="#DejaVuSans-46"/>
       <use x="95.410156" xlink:href="#DejaVuSans-48"/>
      </g>
     </g>
    </g>
    <g id="text_11">
     <!-- Elongation -->
     <defs>
      <path d="M 9.8125 72.90625 
L 55.90625 72.90625 
L 55.90625 64.59375 
L 19.671875 64.59375 
L 19.671875 43.015625 
L 54.390625 43.015625 
L 54.390625 34.71875 
L 19.671875 34.71875 
L 19.671875 8.296875 
L 56.78125 8.296875 
L 56.78125 0 
L 9.8125 0 
z
" id="DejaVuSans-69"/>
      <path d="M 45.40625 27.984375 
Q 45.40625 37.75 41.375 43.109375 
Q 37.359375 48.484375 30.078125 48.484375 
Q 22.859375 48.484375 18.828125 43.109375 
Q 14.796875 37.75 14.796875 27.984375 
Q 14.796875 18.265625 18.828125 12.890625 
Q 22.859375 7.515625 30.078125 7.515625 
Q 37.359375 7.515625 41.375 12.890625 
Q 45.40625 18.265625 45.40625 27.984375 
z
M 54.390625 6.78125 
Q 54.390625 -7.171875 48.1875 -13.984375 
Q 42 -20.796875 29.203125 -20.796875 
Q 24.46875 -20.796875 20.265625 -20.09375 
Q 16.0625 -19.390625 12.109375 -17.921875 
L 12.109375 -9.1875 
Q 16.0625 -11.328125 19.921875 -12.34375 
Q 23.78125 -13.375 27.78125 -13.375 
Q 36.625 -13.375 41.015625 -8.765625 
Q 45.40625 -4.15625 45.40625 5.171875 
L 45.40625 9.625 
Q 42.625 4.78125 38.28125 2.390625 
Q 33.9375 0 27.875 0 
Q 17.828125 0 11.671875 7.65625 
Q 5.515625 15.328125 5.515625 27.984375 
Q 5.515625 40.671875 11.671875 48.328125 
Q 17.828125 56 27.875 56 
Q 33.9375 56 38.28125 53.609375 
Q 42.625 51.21875 45.40625 46.390625 
L 45.40625 54.6875 
L 54.390625 54.6875 
z
" id="DejaVuSans-103"/>
     </defs>
     <g transform="translate(7.017187 169.872187)rotate(-90)scale(0.1 -0.1)">
      <use xlink:href="#DejaVuSans-69"/>
      <use x="63.183594" xlink:href="#DejaVuSans-108"/>
      <use x="90.966797" xlink:href="#DejaVuSans-111"/>
      <use x="152.148438" xlink:href="#DejaVuSans-110"/>
      <use x="215.527344" xlink:href="#DejaVuSans-103"/>
      <use x="279.003906" xlink:href="#DejaVuSans-97"/>
      <use x="340.283203" xlink:href="#DejaVuSans-116"/>
      <use x="379.492188" xlink:href="#DejaVuSans-105"/>
      <use x="407.275391" xlink:href="#DejaVuSans-111"/>
      <use x="468.457031" xlink:href="#DejaVuSans-110"/>
     </g>
    </g>
   </g>
   <g id="line2d_10">
    <path clip-path="url(#p3389fc5a9d)" d="M 125.58686 44.443636 
L 126.287353 46.793475 
L 126.999619 49.123546 
L 127.723934 51.433357 
L 128.460585 53.722384 
L 129.209866 55.990074 
L 129.97208 58.235839 
L 130.747537 60.459055 
L 131.536559 62.659057 
L 132.339475 64.835138 
L 133.156626 66.986541 
L 133.98836 69.112462 
L 134.835039 71.212037 
L 135.697031 73.284346 
L 136.57472 75.328399 
L 137.468498 77.343136 
L 138.378769 79.327417 
L 139.30595 81.28002 
L 140.25047 83.199626 
L 141.21277 85.084817 
L 142.193304 86.934066 
L 143.192541 88.745723 
L 144.210962 90.518013 
L 145.249064 92.249018 
L 146.307357 93.93667 
L 147.386366 95.578742 
L 148.486632 97.17283 
L 149.608713 98.71635 
L 150.75318 100.206523 
L 151.920623 101.640369 
L 153.111647 103.0147 
L 154.326877 104.326115 
L 155.566953 105.570999 
L 156.832533 106.745533 
L 158.124294 107.845697 
L 159.442933 108.867294 
L 160.789162 109.80597 
L 162.163714 110.657256 
L 163.567343 111.416607 
L 165.000818 112.07946 
L 166.464932 112.641295 
L 167.960494 113.097709 
L 169.488334 113.444493 
L 171.0493 113.677705 
L 172.644262 113.793754 
L 174.274105 113.78946 
L 175.939735 113.66212 
L 177.642076 113.409542 
L 179.382068 113.030076 
L 181.160669 112.52261 
L 182.978852 111.886563 
L 184.837604 111.121842 
L 186.737928 110.228797 
L 188.680838 109.208164 
L 190.667356 108.060991 
L 192.698517 106.788571 
L 194.775358 105.392376 
L 196.898925 103.873988 
L 199.07026 102.23504 
L 199.07026 102.23504 
L 200.174168 101.370867 
L 201.29041 100.477164 
" style="fill:none;stroke:#ff0000;stroke-linecap:square;stroke-width:1.5;"/>
   </g>
   <g id="line2d_11">
    <path clip-path="url(#p3389fc5a9d)" d="M 128.288769 113.25157 
L 128.963491 113.88607 
L 129.648944 114.49847 
L 130.345367 115.08755 
L 131.053003 115.652032 
L 131.772104 116.190581 
L 132.502927 116.701803 
L 133.245737 117.184252 
L 134.000805 117.636429 
L 134.768411 118.056787 
L 135.548841 118.443738 
L 136.342389 118.795656 
L 137.149359 119.110886 
L 137.970061 119.38775 
L 138.804815 119.624559 
L 139.653948 119.819622 
L 140.517798 119.971256 
L 141.39671 120.077796 
L 142.291042 120.137612 
L 143.201158 120.149112 
L 144.127433 120.110761 
L 145.070255 120.021084 
L 146.030019 119.878683 
L 147.007133 119.682234 
L 148.002014 119.430502 
L 149.015094 119.12234 
L 150.046812 118.75669 
L 151.097622 118.332586 
L 152.167991 117.849144 
L 153.258396 117.305565 
L 154.369327 116.701122 
L 155.501288 116.035153 
L 156.654798 115.307052 
L 157.830385 114.516257 
L 159.028594 113.662235 
L 160.249984 112.744475 
L 161.495127 111.76247 
L 162.76461 110.71571 
L 164.059035 109.603662 
L 165.379017 108.425764 
L 166.725188 107.18141 
L 168.098194 105.869939 
L 169.498695 104.490624 
L 170.927368 103.042663 
L 172.384904 101.525165 
L 173.872009 99.937141 
L 175.389403 98.277495 
L 176.937823 96.545012 
L 178.518018 94.738346 
L 180.130752 92.856007 
L 181.776802 90.896352 
L 183.456959 88.857566 
L 183.456959 88.857566 
L 184.310079 87.807881 
" style="fill:none;stroke:#bfbf00;stroke-linecap:square;stroke-width:1.5;"/>
   </g>
   <g id="line2d_12">
    <path clip-path="url(#p3389fc5a9d)" d="M 121.797574 47.414135 
L 122.455584 50.65563 
L 123.124372 53.861174 
L 123.804184 57.030471 
L 124.495277 60.163187 
L 125.197913 63.258952 
L 125.912361 66.317351 
L 126.6389 69.33792 
L 127.377816 72.320139 
L 128.129403 75.26342 
L 128.893963 78.167104 
L 129.671809 81.030442 
L 130.463259 83.852587 
L 131.268646 86.632574 
L 132.088307 89.369304 
L 132.922593 92.061519 
L 133.771863 94.707776 
L 134.636488 97.306413 
L 135.51685 99.855514 
L 136.41334 102.352857 
L 137.326363 104.795861 
L 138.256336 107.181517 
L 139.203686 109.506311 
L 140.168856 111.766124 
L 141.152299 113.956118 
L 142.154483 116.070604 
L 143.175891 118.102889 
L 144.217016 120.045101 
L 145.278371 121.888001 
L 146.360481 123.620797 
L 147.463886 125.230975 
L 148.589144 126.704183 
L 149.736827 128.024232 
L 150.907525 129.173267 
L 152.101846 130.132202 
L 153.320412 130.881473 
L 154.563866 131.402121 
L 155.832868 131.67712 
L 157.128098 131.692756 
L 158.450252 131.439742 
L 159.800047 130.913815 
L 161.17822 130.115629 
L 162.585527 129.049995 
L 164.022745 127.724679 
L 165.490668 126.149058 
L 166.990115 124.332878 
L 168.521921 122.285269 
L 170.086945 120.014067 
L 171.686065 117.525398 
L 173.320178 114.823485 
L 174.990203 111.910587 
L 176.697078 108.787022 
L 178.44176 105.45124 
L 180.225225 101.899888 
L 182.048467 98.127889 
L 183.912497 94.128488 
L 185.818343 89.893279 
L 185.818343 89.893279 
L 186.787272 87.684171 
" style="fill:none;stroke:#bfbf00;stroke-linecap:square;stroke-width:1.5;"/>
   </g>
   <g id="line2d_13">
    <path clip-path="url(#p3389fc5a9d)" d="M 121.093703 63.290715 
L 121.737148 65.587422 
L 122.391222 67.867179 
L 123.056174 70.129606 
L 123.732261 72.37429 
L 124.419746 74.600793 
L 125.118901 76.808641 
L 125.830005 78.997325 
L 126.553347 81.166293 
L 127.289221 83.314949 
L 128.037935 85.442645 
L 128.7998 87.548677 
L 129.575142 89.632276 
L 130.364293 91.692602 
L 131.167597 93.728732 
L 131.985407 95.739653 
L 132.818088 97.724245 
L 133.666016 99.681273 
L 134.529576 101.609367 
L 135.409169 103.507003 
L 136.305204 105.372483 
L 137.218106 107.203913 
L 138.14831 108.999169 
L 139.096266 110.755871 
L 140.062438 112.471343 
L 141.047304 114.142573 
L 142.051356 115.76617 
L 143.075101 117.338312 
L 144.119063 118.854697 
L 145.183781 120.310484 
L 146.26981 121.700244 
L 147.377723 123.017911 
L 148.508111 124.256746 
L 149.66158 125.409323 
L 150.838758 126.467545 
L 152.040289 127.422702 
L 153.266839 128.265593 
L 154.519092 128.986711 
L 155.797753 129.576509 
L 157.103546 130.025731 
L 158.43722 130.325806 
L 159.799541 130.469246 
L 161.191301 130.450018 
L 162.613312 130.263836 
L 164.066409 129.908312 
L 165.551452 129.382952 
L 167.069321 128.689008 
L 168.620921 127.829193 
L 170.207181 126.807327 
L 171.829053 125.627952 
L 173.487513 124.29597 
L 175.18356 122.816324 
L 176.918217 121.193749 
L 178.692528 119.432589 
L 180.507563 117.536675 
L 182.36441 115.509252 
L 184.264181 113.352948 
L 186.208006 111.069769 
L 188.197035 108.661111 
L 190.232436 106.127785 
L 192.315393 103.470039 
L 194.447103 100.68759 
L 194.447103 100.68759 
L 195.531618 99.249374 
L 196.628776 97.779646 
" style="fill:none;stroke:#bfbf00;stroke-linecap:square;stroke-width:1.5;"/>
   </g>
   <g id="line2d_14">
    <path clip-path="url(#p3389fc5a9d)" d="M 46.145455 242.116364 
" style="fill:none;stroke:#bfbf00;stroke-linecap:square;stroke-width:1.5;"/>
   </g>
   <g id="line2d_15">
    <path clip-path="url(#p3389fc5a9d)" d="M 146.044141 60.849966 
L 147.121227 64.375108 
L 148.219316 67.860072 
L 149.338952 71.30502 
L 150.480692 74.710122 
L 151.64511 78.075549 
L 152.832795 81.401478 
L 154.044353 84.688091 
L 155.280407 87.935571 
L 156.541594 91.144106 
L 157.828572 94.313883 
L 159.142011 97.445092 
L 160.482604 100.53792 
L 161.851056 103.592547 
L 163.248093 106.609149 
L 164.674457 109.587887 
L 166.130908 112.528899 
L 167.618222 115.432297 
L 169.137193 118.298144 
L 170.688632 121.126441 
L 172.273366 123.917091 
L 173.892238 126.669858 
L 175.546106 129.384294 
L 177.235844 132.059626 
L 178.962337 134.694574 
L 180.726486 137.287031 
L 182.5292 139.833475 
L 184.371402 142.327852 
L 186.254021 144.759216 
L 188.177993 147.106355 
L 190.14426 149.32409 
L 192.153765 151.304637 
L 194.207453 152.771077 
L 196.306263 153.162931 
L 198.451132 152.187556 
L 200.642984 150.313616 
L 202.882731 147.974807 
L 205.171269 145.350195 
L 207.509468 142.504459 
L 209.898176 139.459236 
L 212.338203 136.218023 
L 214.830322 132.775251 
L 217.375261 129.119875 
L 219.973693 125.236863 
L 222.626231 121.107765 
L 222.626231 121.107765 
L 223.972962 118.944272 
L 225.333417 116.710845 
" style="fill:none;stroke:#bfbf00;stroke-linecap:square;stroke-width:1.5;"/>
   </g>
   <g id="line2d_16">
    <path clip-path="url(#p3389fc5a9d)" d="M 125.033207 45.805273 
L 125.697041 47.945775 
L 126.37151 50.068328 
L 127.056853 52.172524 
L 127.753316 54.257935 
L 128.461154 56.324107 
L 129.180626 58.370563 
L 129.912 60.396799 
L 130.655551 62.402281 
L 131.411563 64.386446 
L 132.180326 66.348695 
L 132.962141 68.288397 
L 133.757314 70.20488 
L 134.566163 72.097431 
L 135.389013 73.965294 
L 136.2262 75.807664 
L 137.078069 77.623685 
L 137.944973 79.412447 
L 138.827279 81.172979 
L 139.725361 82.904246 
L 140.639605 84.605147 
L 141.570411 86.274506 
L 142.518186 87.91107 
L 143.483352 89.513501 
L 144.466342 91.080373 
L 145.467601 92.610166 
L 146.487588 94.101261 
L 147.526775 95.551934 
L 148.585648 96.960351 
L 149.664706 98.324566 
L 150.764464 99.642515 
L 151.885449 100.912016 
L 153.028206 102.130765 
L 154.193293 103.296342 
L 155.381287 104.40621 
L 156.592779 105.457724 
L 157.828377 106.448135 
L 159.088705 107.374612 
L 160.374407 108.234251 
L 161.686141 109.024097 
L 163.024587 109.741176 
L 164.39044 110.382516 
L 165.784416 110.94519 
L 167.207247 111.426348 
L 168.659687 111.823257 
L 170.142506 112.133349 
L 171.656498 112.354253 
L 173.202471 112.483842 
L 174.781257 112.520264 
L 176.393706 112.461972 
L 178.040685 112.30775 
L 179.723086 112.056721 
L 181.441814 111.708358 
L 183.197797 111.262475 
L 184.991981 110.719217 
L 186.825328 110.079036 
L 188.698819 109.342666 
L 190.613452 108.511086 
L 192.570241 107.585484 
L 194.570214 106.567219 
L 196.614412 105.457776 
L 198.703891 104.258728 
L 200.839718 102.971691 
L 200.839718 102.971691 
L 201.925346 102.295685 
L 203.022966 101.598287 
" style="fill:none;stroke:#bfbf00;stroke-linecap:square;stroke-width:1.5;"/>
   </g>
   <g id="line2d_17">
    <path clip-path="url(#p3389fc5a9d)" d="M 46.145455 242.116364 
" style="fill:none;stroke:#bfbf00;stroke-linecap:square;stroke-width:1.5;"/>
   </g>
   <g id="line2d_18">
    <path clip-path="url(#p3389fc5a9d)" d="M 120.494779 72.770175 
L 121.136424 75.337263 
L 121.788569 77.873502 
L 122.451457 80.378351 
L 123.12534 82.851205 
L 123.810478 85.291386 
L 124.507137 87.698135 
L 125.215592 90.070599 
L 125.936125 92.407816 
L 126.669029 94.708701 
L 127.414602 96.972029 
L 128.173154 99.196406 
L 128.945003 101.380253 
L 129.730478 103.521769 
L 130.529916 105.618899 
L 131.343666 107.669296 
L 132.172086 109.670269 
L 133.015548 111.618732 
L 133.874433 113.511142 
L 134.749133 115.343427 
L 135.640055 117.110911 
L 136.547617 118.808224 
L 137.472249 120.429218 
L 138.414398 121.966874 
L 139.374521 123.413227 
L 140.353091 124.759304 
L 141.350597 125.995108 
L 142.367542 127.109657 
L 143.404445 128.09111 
L 144.46184 128.927017 
L 145.540281 129.604683 
L 146.640338 130.111673 
L 147.762597 130.436423 
L 148.907665 130.568879 
L 150.076166 130.501086 
L 151.268746 130.227625 
L 152.486069 129.745787 
L 153.72882 129.055489 
L 154.997705 128.15891 
L 156.293452 127.059954 
L 157.616812 125.763626 
L 158.968558 124.275413 
L 160.349486 122.600745 
L 161.760415 120.744564 
L 163.202191 118.711009 
L 164.675681 116.503215 
L 166.181779 114.123183 
L 167.721403 111.571726 
L 169.295498 108.848438 
L 170.905034 105.951696 
L 172.551006 102.878665 
L 174.234435 99.625301 
L 175.956367 96.18635 
L 177.717876 92.555329 
L 179.520057 88.7245 
L 179.520057 88.7245 
L 180.436749 86.731383 
L 181.364033 84.684814 
" style="fill:none;stroke:#bfbf00;stroke-linecap:square;stroke-width:1.5;"/>
   </g>
   <g id="line2d_19">
    <path clip-path="url(#p3389fc5a9d)" d="M 123.448867 111.174476 
L 124.096113 112.618047 
L 124.753881 114.049606 
L 125.422412 115.468422 
L 126.101957 116.873673 
L 126.792771 118.264439 
L 127.49512 119.639686 
L 128.209274 120.998242 
L 128.935513 122.338782 
L 129.674125 123.659799 
L 130.425405 124.959573 
L 131.18966 126.23614 
L 131.967202 127.487245 
L 132.758355 128.710295 
L 133.563452 129.902307 
L 134.382835 131.059838 
L 135.216857 132.178919 
L 136.065881 133.254973 
L 136.930283 134.28274 
L 137.810446 135.256196 
L 138.70677 136.168489 
L 139.619663 137.011907 
L 140.549545 137.777888 
L 141.496853 138.457111 
L 142.462033 139.039686 
L 143.445546 139.515474 
L 144.447867 139.874541 
L 145.469485 140.107724 
L 146.510906 140.207248 
L 147.572647 140.167292 
L 148.655244 139.984413 
L 149.759248 139.657702 
L 150.885228 139.188673 
L 152.033768 138.580894 
L 153.205469 137.839461 
L 154.400954 136.970412 
L 155.620859 135.980188 
L 156.865843 134.875184 
L 158.136582 133.661425 
L 159.433772 132.344356 
L 160.75813 130.928734 
L 162.110393 129.418582 
L 163.491317 127.817199 
L 164.901682 126.1272 
L 166.342288 124.350562 
L 167.813956 122.488689 
L 169.31753 120.542464 
L 170.853876 118.512311 
L 172.42388 116.39824 
L 174.028453 114.199894 
L 175.668526 111.916588 
L 177.345052 109.547341 
L 179.059008 107.090905 
L 180.811388 104.545792 
L 182.603209 101.910291 
L 184.435509 99.182487 
L 186.309342 96.360276 
L 188.225783 93.441377 
L 188.225783 93.441377 
L 189.200322 91.944911 
" style="fill:none;stroke:#bfbf00;stroke-linecap:square;stroke-width:1.5;"/>
   </g>
   <g id="line2d_20">
    <path clip-path="url(#p3389fc5a9d)" d="M 139.185226 54.364427 
L 140.145931 56.92936 
L 141.125048 59.464922 
L 142.123055 61.970188 
L 143.14044 64.444166 
L 144.177709 66.885796 
L 145.23538 69.29394 
L 146.313987 71.667375 
L 147.414079 74.004783 
L 148.536222 76.304744 
L 149.680995 78.565722 
L 150.848997 80.786054 
L 152.040841 82.963941 
L 153.257158 85.097427 
L 154.498595 87.184388 
L 155.765817 89.222516 
L 157.059508 91.209295 
L 158.380367 93.14199 
L 159.729112 95.017621 
L 161.106479 96.832945 
L 162.513222 98.584434 
L 163.950113 100.26826 
L 165.41794 101.880274 
L 166.91751 103.41599 
L 168.449648 104.870582 
L 170.015193 106.238877 
L 171.615004 107.515363 
L 173.249951 108.694211 
L 174.920923 109.769305 
L 176.628822 110.734294 
L 178.374562 111.582661 
L 180.15907 112.30781 
L 181.983283 112.90317 
L 183.848147 113.362315 
L 185.754614 113.679087 
L 187.703644 113.847726 
L 189.696199 113.862986 
L 191.733239 113.720227 
L 193.815726 113.41549 
L 195.944615 112.945514 
L 198.120852 112.307732 
L 200.345375 111.500206 
L 202.619103 110.521536 
L 204.942938 109.370727 
L 207.317759 108.047035 
L 207.317759 108.047035 
L 208.524556 107.320151 
L 209.744416 106.549792 
" style="fill:none;stroke:#bfbf00;stroke-linecap:square;stroke-width:1.5;"/>
   </g>
   <g id="line2d_21">
    <path clip-path="url(#p3389fc5a9d)" d="M 157.376837 69.993727 
L 158.662065 73.276255 
L 159.97329 76.502604 
L 161.311176 79.672141 
L 162.676405 82.784144 
L 164.069676 85.837794 
L 165.491704 88.832153 
L 166.94322 91.766151 
L 168.424976 94.638555 
L 169.937737 97.447951 
L 171.482287 100.192705 
L 173.059425 102.870927 
L 174.669968 105.480429 
L 176.314749 108.018662 
L 177.994615 110.48266 
L 179.710431 112.868957 
L 181.463073 115.173503 
L 183.253435 117.391554 
L 185.082419 119.517563 
L 186.950944 121.545043 
L 188.859935 123.466437 
L 190.810331 125.272989 
L 192.803075 126.954641 
L 194.839118 128.499986 
L 196.919416 129.896325 
L 199.044926 131.129887 
L 201.216606 132.186267 
L 203.435409 133.051143 
L 205.702286 133.711266 
L 208.018177 134.155654 
L 210.384009 134.376805 
L 212.800695 134.371684 
L 215.269127 134.142239 
L 217.790171 133.695291 
L 220.364663 133.041838 
L 222.993405 132.195955 
L 225.677154 131.173548 
L 228.416618 129.991193 
L 231.212448 128.665193 
L 234.065227 127.210895 
L 236.975459 125.642236 
L 236.975459 125.642236 
L 238.452253 124.818914 
" style="fill:none;stroke:#bfbf00;stroke-linecap:square;stroke-width:1.5;"/>
   </g>
   <g id="line2d_22">
    <path clip-path="url(#p3389fc5a9d)" d="M 124.472742 95.000155 
L 125.132441 96.773306 
L 125.802765 98.533468 
L 126.483954 100.280325 
L 127.176258 102.013531 
L 127.87993 103.732708 
L 128.595234 105.437441 
L 129.32244 107.127274 
L 130.061823 108.801699 
L 130.813671 110.460155 
L 131.578275 112.102016 
L 132.355938 113.726581 
L 133.146971 115.333063 
L 133.951691 116.920573 
L 134.770429 118.488107 
L 135.603521 120.034518 
L 136.451315 121.558498 
L 137.314169 123.058547 
L 138.19245 124.532934 
L 139.086538 125.979658 
L 139.996821 127.396393 
L 140.923701 128.780427 
L 141.86759 130.12859 
L 142.828912 131.437161 
L 143.808104 132.701775 
L 144.805614 133.917297 
L 145.821906 135.077708 
L 146.857454 136.175962 
L 147.912747 137.203881 
L 148.988289 138.152056 
L 150.084597 139.009849 
L 151.202202 139.76549 
L 152.341653 140.406375 
L 153.503512 140.919592 
L 154.688356 141.292694 
L 155.896781 141.514682 
L 157.129398 141.577039 
L 158.386833 141.474597 
L 159.669731 141.206017 
L 160.978754 140.77374 
L 162.314582 140.183431 
L 163.677912 139.443089 
L 165.069458 138.562054 
L 166.489954 137.550097 
L 167.940152 136.416724 
L 169.420821 135.170711 
L 170.93275 133.819851 
L 172.476746 132.370854 
L 174.053632 130.829357 
L 175.664252 129.199986 
L 177.309468 127.486459 
L 178.990156 125.691685 
L 180.707212 123.817865 
L 182.461547 121.866589 
L 184.254088 119.83891 
L 186.085778 117.735418 
L 187.957572 115.556288 
L 189.870438 113.301328 
L 191.825354 110.970011 
L 193.823311 108.561496 
L 195.865304 106.074644 
L 197.952334 103.508023 
L 200.085406 100.859901 
L 200.085406 100.859901 
L 201.169522 99.504651 
" style="fill:none;stroke:#bfbf00;stroke-linecap:square;stroke-width:1.5;"/>
   </g>
   <g id="line2d_23">
    <path clip-path="url(#p3389fc5a9d)" d="M 46.145455 242.116364 
" style="fill:none;stroke:#bfbf00;stroke-linecap:square;stroke-width:1.5;"/>
   </g>
   <g id="line2d_24">
    <path clip-path="url(#p3389fc5a9d)" d="M 119.663715 51.143978 
L 120.305514 53.451279 
L 120.957934 55.715999 
L 121.621226 57.937116 
L 122.295646 60.11353 
L 122.98146 62.244067 
L 123.678939 64.327467 
L 124.388365 66.362383 
L 125.110026 68.347373 
L 125.844222 70.280893 
L 126.591257 72.161296 
L 127.35145 73.986822 
L 128.125124 75.755595 
L 128.912617 77.465615 
L 129.714273 79.114757 
L 130.53045 80.700767 
L 131.361515 82.221256 
L 132.207847 83.6737 
L 133.069836 85.055443 
L 133.947886 86.363693 
L 134.84241 87.595531 
L 135.753839 88.747916 
L 136.682612 89.817692 
L 137.629185 90.801605 
L 138.594029 91.696312 
L 139.577626 92.498406 
L 140.580477 93.204435 
L 141.603096 93.810923 
L 142.646015 94.314404 
L 143.709781 94.711444 
L 144.794959 94.998671 
L 145.902131 95.172808 
L 147.031899 95.230695 
L 148.18488 95.169314 
L 149.361715 94.985812 
L 150.563059 94.677511 
L 151.789592 94.241923 
L 153.042013 93.676746 
L 154.32104 92.979861 
L 155.627415 92.149323 
L 156.961903 91.183339 
L 158.325288 90.080244 
L 159.71838 88.838474 
L 161.14201 87.456532 
L 162.597034 85.932954 
L 164.084331 84.266269 
L 165.604805 82.454968 
L 167.159383 80.497459 
L 168.749017 78.392041 
L 168.749017 78.392041 
L 169.557284 77.283294 
" style="fill:none;stroke:#bfbf00;stroke-linecap:square;stroke-width:1.5;"/>
   </g>
   <g id="line2d_25">
    <path clip-path="url(#p3389fc5a9d)" d="M 46.145455 242.116364 
" style="fill:none;stroke:#bfbf00;stroke-linecap:square;stroke-width:1.5;"/>
   </g>
   <g id="line2d_26">
    <path clip-path="url(#p3389fc5a9d)" d="M 119.61899 63.754984 
L 120.257632 66.091178 
L 120.906943 68.412833 
L 121.567174 70.719585 
L 122.238586 73.011046 
L 122.921446 75.286805 
L 123.616029 77.546419 
L 124.32262 79.789416 
L 125.04151 82.015287 
L 125.773 84.223483 
L 126.5174 86.413413 
L 127.27503 88.584433 
L 128.046219 90.735846 
L 128.831305 92.866888 
L 129.630638 94.976724 
L 130.444578 97.064435 
L 131.273496 99.129007 
L 132.117775 101.169318 
L 132.977808 103.184118 
L 133.854003 105.172014 
L 134.746778 107.131442 
L 135.656566 109.060644 
L 136.583811 110.957633 
L 137.528973 112.820156 
L 138.492525 114.645647 
L 139.474956 116.431179 
L 140.47677 118.173393 
L 141.498484 119.868438 
L 142.540636 121.511877 
L 143.603775 123.098602 
L 144.688473 124.622728 
L 145.795314 126.077484 
L 146.924904 127.455113 
L 148.077866 128.74677 
L 149.254843 129.942469 
L 150.456497 131.031072 
L 151.683511 132.000378 
L 152.936586 132.837345 
L 154.216447 133.528468 
L 155.523841 134.060344 
L 156.859533 134.420405 
L 158.224315 134.597732 
L 159.619 134.583851 
L 161.044424 134.373337 
L 162.501446 133.964107 
L 163.990951 133.357333 
L 165.513847 132.557004 
L 167.071064 131.569242 
L 168.663562 130.401524 
L 170.292319 129.061933 
L 171.958343 127.558549 
L 173.662662 125.898979 
L 175.406331 124.090072 
L 177.190427 122.13775 
L 179.016051 120.046948 
L 180.884325 117.821625 
L 182.796395 115.464815 
L 184.753425 112.978695 
L 186.7566 110.364672 
L 188.807123 107.623465 
L 190.906211 104.755181 
L 193.055098 101.759391 
L 195.255027 98.635191 
L 195.255027 98.635191 
L 196.374525 97.024538 
" style="fill:none;stroke:#bfbf00;stroke-linecap:square;stroke-width:1.5;"/>
   </g>
   <g id="line2d_27">
    <path clip-path="url(#p3389fc5a9d)" d="M 122.896999 98.420414 
L 123.527983 99.558396 
L 124.169352 100.691538 
L 124.821348 101.819532 
L 125.48422 102.942047 
L 126.158226 104.058723 
L 126.84363 105.169173 
L 127.540703 106.272976 
L 128.249726 107.369676 
L 128.970988 108.458781 
L 129.704785 109.539756 
L 130.451423 110.612024 
L 131.211218 111.674954 
L 131.984493 112.727866 
L 132.771584 113.77002 
L 133.572834 114.800609 
L 134.388599 115.818762 
L 135.219245 116.823525 
L 136.065148 117.813867 
L 136.926696 118.788662 
L 137.804291 119.746686 
L 138.698345 120.686609 
L 139.609284 121.606984 
L 140.537546 122.506241 
L 141.483584 123.382673 
L 142.447863 124.234433 
L 143.430866 125.05952 
L 144.433087 125.855779 
L 145.455039 126.620887 
L 146.497247 127.352358 
L 147.560256 128.047538 
L 148.644626 128.703614 
L 149.750934 129.317622 
L 150.879777 129.886463 
L 152.031769 130.406933 
L 153.207543 130.875751 
L 154.407751 131.289609 
L 155.633065 131.645216 
L 156.88418 131.939366 
L 158.161808 132.169 
L 159.466686 132.331278 
L 160.79957 132.42365 
L 162.16124 132.443918 
L 163.552499 132.390291 
L 164.974173 132.261433 
L 166.42711 132.05648 
L 167.912184 131.77505 
L 169.430293 131.417232 
L 170.982357 130.983553 
L 172.569323 130.474936 
L 174.192161 129.892648 
L 175.851867 129.238236 
L 177.549459 128.51347 
L 179.28598 127.720282 
L 181.062497 126.860712 
L 182.8801 125.936857 
L 184.7399 124.950835 
L 186.643029 123.904748 
L 188.590641 122.800653 
L 190.583905 121.640545 
L 192.62401 120.426338 
L 194.712159 119.159852 
L 196.849564 117.842801 
L 199.037449 116.476782 
L 201.277045 115.063262 
L 203.569583 113.603559 
L 205.916293 112.098827 
L 208.318398 110.550021 
L 210.777108 108.957864 
L 210.777108 108.957864 
L 212.028065 108.145679 
" style="fill:none;stroke:#bfbf00;stroke-linecap:square;stroke-width:1.5;"/>
   </g>
   <g id="line2d_28">
    <path clip-path="url(#p3389fc5a9d)" d="M 138.533049 54.988328 
L 139.472205 57.835407 
L 140.428989 60.659612 
L 141.403846 63.460245 
L 142.397232 66.236557 
L 143.409617 68.987741 
L 144.441487 71.712933 
L 145.493336 74.411196 
L 146.565678 77.081512 
L 147.659036 79.722773 
L 148.773952 82.333768 
L 149.910981 84.913163 
L 151.070691 87.459488 
L 152.253671 89.971114 
L 153.46052 92.446226 
L 154.691856 94.882792 
L 155.948313 97.278534 
L 157.230541 99.630877 
L 158.539206 101.936907 
L 159.874993 104.193308 
L 161.238601 106.396291 
L 162.630748 108.541521 
L 164.052167 110.624016 
L 165.50361 112.63804 
L 166.985844 114.576986 
L 168.499654 116.433241 
L 170.04584 118.198044 
L 171.625219 119.861353 
L 173.238624 121.411718 
L 174.886902 122.836202 
L 176.570914 124.120369 
L 178.291538 125.248385 
L 180.049662 126.203274 
L 181.846187 126.967365 
L 183.682024 127.52295 
L 185.558096 127.853106 
L 187.475332 127.942614 
L 189.434668 127.778806 
L 191.437047 127.352175 
L 193.483411 126.656618 
L 195.574708 125.68923 
L 197.711881 124.449708 
L 199.89587 122.939469 
L 202.127609 121.160666 
L 204.408023 119.115223 
L 206.738023 116.803977 
L 209.118506 114.225983 
L 211.550351 111.377945 
L 211.550351 111.377945 
L 212.785801 109.850871 
L 214.034411 108.253753 
" style="fill:none;stroke:#bfbf00;stroke-linecap:square;stroke-width:1.5;"/>
   </g>
   <g id="line2d_29">
    <path clip-path="url(#p3389fc5a9d)" d="M 46.145455 242.116364 
" style="fill:none;stroke:#bfbf00;stroke-linecap:square;stroke-width:1.5;"/>
   </g>
   <g id="line2d_30">
    <path clip-path="url(#p3389fc5a9d)" d="M 46.145455 242.116364 
" style="fill:none;stroke:#bfbf00;stroke-linecap:square;stroke-width:1.5;"/>
   </g>
   <g id="line2d_31">
    <path clip-path="url(#p3389fc5a9d)" d="M 129.089429 47.941704 
L 129.840194 50.302504 
L 130.603876 52.63774 
L 131.380786 54.946711 
L 132.171243 57.228671 
L 132.975577 59.482826 
L 133.794127 61.708327 
L 134.627242 63.904269 
L 135.47528 66.069681 
L 136.338611 68.203527 
L 137.217616 70.304696 
L 138.112687 72.371996 
L 139.024226 74.40415 
L 139.95265 76.399784 
L 140.898385 78.357425 
L 141.861872 80.275488 
L 142.843564 82.152269 
L 143.843927 83.985938 
L 144.863442 85.774524 
L 145.902602 87.515912 
L 146.961916 89.207828 
L 148.041908 90.847834 
L 149.143116 92.433314 
L 150.266095 93.961471 
L 151.411415 95.429315 
L 152.579661 96.833662 
L 153.771438 98.171131 
L 154.987366 99.438144 
L 156.228081 100.630928 
L 157.494238 101.745533 
L 158.786512 102.777837 
L 160.105592 103.723577 
L 161.452189 104.578373 
L 162.82703 105.337766 
L 164.230863 105.997263 
L 165.664454 106.552386 
L 167.128589 106.998726 
L 168.624071 107.332008 
L 170.151723 107.548147 
L 171.712389 107.643307 
L 173.30693 107.613956 
L 174.936226 107.456912 
L 176.601175 107.169372 
L 178.302694 106.748939 
L 180.041718 106.193621 
L 181.819196 105.501823 
L 183.636096 104.67232 
L 185.493402 103.704222 
L 187.392109 102.59692 
L 189.33323 101.350032 
L 191.317786 99.963341 
L 193.346811 98.436728 
L 193.346811 98.436728 
L 194.378325 97.620926 
L 195.421348 96.770112 
" style="fill:none;stroke:#bfbf00;stroke-linecap:square;stroke-width:1.5;"/>
   </g>
   <g id="line2d_32">
    <path clip-path="url(#p3389fc5a9d)" d="M 46.145455 242.116364 
" style="fill:none;stroke:#bfbf00;stroke-linecap:square;stroke-width:1.5;"/>
   </g>
   <g id="line2d_33">
    <path clip-path="url(#p3389fc5a9d)" d="M 132.72127 51.763437 
L 133.536572 54.892619 
L 134.366181 57.989208 
L 135.210447 61.053181 
L 136.069727 64.08451 
L 136.944392 67.083162 
L 137.834821 70.049102 
L 138.741405 72.982286 
L 139.664547 75.882665 
L 140.604662 78.750185 
L 141.562177 81.58478 
L 142.537531 84.386379 
L 143.531176 87.154897 
L 144.543578 89.890238 
L 145.575217 92.592293 
L 146.626585 95.260933 
L 147.698191 97.896012 
L 148.790558 100.497359 
L 149.904223 103.064775 
L 151.039739 105.59803 
L 152.197677 108.096849 
L 153.378622 110.560912 
L 154.583177 112.989833 
L 155.811961 115.383155 
L 157.065612 117.740324 
L 158.344785 120.060666 
L 159.650151 122.343354 
L 160.982404 124.587361 
L 162.342253 126.791401 
L 163.730426 128.95384 
L 165.147673 131.072575 
L 166.594761 133.14486 
L 168.072476 135.167051 
L 169.581624 137.134226 
L 171.123033 139.039609 
L 172.697546 140.873691 
L 174.30603 142.622853 
L 175.949366 144.267248 
L 177.628459 145.777622 
L 179.344228 147.110982 
L 181.097613 148.206257 
L 182.889569 148.984494 
L 184.721069 149.362967 
L 186.5931 149.287958 
L 188.506664 148.765304 
L 190.462775 147.855463 
L 192.462459 146.639293 
L 194.506752 145.189341 
L 196.596697 143.560015 
L 198.733342 141.789014 
L 200.917737 139.901741 
L 203.150932 137.915258 
L 205.433975 135.841114 
L 207.767905 133.687199 
L 210.153748 131.458946 
L 212.592518 129.160095 
L 215.085204 126.79318 
L 217.63277 124.359849 
L 220.236143 121.86105 
L 222.896213 119.29715 
L 222.896213 119.29715 
L 224.247773 117.990757 
L 225.613817 116.667988 
" style="fill:none;stroke:#bfbf00;stroke-linecap:square;stroke-width:1.5;"/>
   </g>
   <g id="line2d_34">
    <path clip-path="url(#p3389fc5a9d)" d="M 123.893055 53.494608 
L 124.553328 55.702513 
L 125.224308 57.893231 
L 125.906242 60.066336 
L 126.599381 62.221378 
L 127.303984 64.35788 
L 128.020317 66.475331 
L 128.748654 68.573188 
L 129.489278 70.650871 
L 130.242477 72.70776 
L 131.008551 74.743191 
L 131.787806 76.756452 
L 132.580559 78.746778 
L 133.387133 80.713347 
L 134.207865 82.655273 
L 135.043097 84.571601 
L 135.893185 86.461299 
L 136.758493 88.323253 
L 137.639396 90.156255 
L 138.536282 91.958995 
L 139.449549 93.730052 
L 140.379605 95.467884 
L 141.326873 97.170813 
L 142.291787 98.837014 
L 143.274794 100.464503 
L 144.276354 102.051118 
L 145.296943 103.59451 
L 146.337046 105.092122 
L 147.397167 106.541179 
L 148.477822 107.938671 
L 149.579545 109.281339 
L 150.702882 110.565669 
L 151.848398 111.78788 
L 153.016673 112.943925 
L 154.208303 114.029497 
L 155.423904 115.040042 
L 156.664106 115.970781 
L 157.92956 116.816752 
L 159.220933 117.572859 
L 160.538914 118.233934 
L 161.884206 118.794824 
L 163.257536 119.250477 
L 164.659649 119.596049 
L 166.091309 119.827008 
L 167.553301 119.939239 
L 169.04643 119.929138 
L 170.571523 119.79369 
L 172.129425 119.530523 
L 173.721003 119.137933 
L 175.347145 118.614878 
L 177.008759 117.960944 
L 178.706772 117.176284 
L 180.442132 116.261538 
L 182.215807 115.217738 
L 184.028784 114.046209 
L 185.882066 112.748466 
L 187.776678 111.326126 
L 189.713656 109.780819 
L 191.694056 108.114116 
L 193.718946 106.327469 
L 195.789407 104.422161 
L 197.906532 102.399269 
L 197.906532 102.399269 
L 198.982937 101.344003 
L 200.071421 100.259635 
" style="fill:none;stroke:#bfbf00;stroke-linecap:square;stroke-width:1.5;"/>
   </g>
   <g id="line2d_35">
    <path clip-path="url(#p3389fc5a9d)" d="M 128.523028 125.569508 
L 129.19658 126.555983 
L 129.880947 127.530932 
L 130.576371 128.49304 
L 131.283099 129.440817 
L 132.001386 130.372575 
L 132.731494 131.286399 
L 133.473691 132.180113 
L 134.228254 133.051251 
L 134.995465 133.897013 
L 135.775616 134.714226 
L 136.569005 135.499307 
L 137.375941 136.248222 
L 138.196738 136.956455 
L 139.03172 137.618988 
L 139.881222 138.230299 
L 140.745584 138.784396 
L 141.625159 139.274876 
L 142.520307 139.695051 
L 143.4314 140.038113 
L 144.358818 140.297363 
L 145.302954 140.466482 
L 146.26421 140.539822 
L 147.242997 140.512689 
L 148.239742 140.381565 
L 149.25488 140.144249 
L 150.288858 139.799883 
L 151.342136 139.348866 
L 152.415185 138.79267 
L 153.508491 138.133595 
L 154.622551 137.374498 
L 155.757874 136.518533 
L 156.914985 135.568921 
L 158.09442 134.528763 
L 159.296732 133.400909 
L 160.522485 132.187861 
L 161.772258 130.89172 
L 163.046645 129.51416 
L 164.346254 128.056419 
L 165.671709 126.519305 
L 167.023648 124.903215 
L 168.402722 123.208149 
L 169.809601 121.43373 
L 171.244966 119.579228 
L 172.709516 117.643571 
L 174.203963 115.625364 
L 175.729033 113.5229 
L 177.28547 111.334166 
L 178.874029 109.056854 
L 180.495478 106.688358 
L 182.150603 104.225776 
L 183.840198 101.665905 
L 185.565073 99.005232 
L 187.326046 96.239927 
L 189.123948 93.365822 
L 189.123948 93.365822 
L 190.037009 91.886572 
" style="fill:none;stroke:#bfbf00;stroke-linecap:square;stroke-width:1.5;"/>
   </g>
   <g id="line2d_36">
    <path clip-path="url(#p3389fc5a9d)" d="M 128.399592 46.22744 
L 129.17706 49.055107 
L 129.968325 51.83999 
L 130.773731 54.581292 
L 131.593631 57.278147 
L 132.428392 59.929611 
L 133.278389 62.534655 
L 134.144009 65.092158 
L 135.025652 67.600896 
L 135.92373 70.059534 
L 136.838668 72.466614 
L 137.770903 74.820543 
L 138.720887 77.119582 
L 139.689085 79.361832 
L 140.675977 81.545221 
L 141.682056 83.667486 
L 142.707835 85.726159 
L 143.753836 87.718556 
L 144.820604 89.641752 
L 145.908696 91.492578 
L 147.018689 93.267597 
L 148.151175 94.963101 
L 149.306767 96.575097 
L 150.486095 98.099311 
L 151.689808 99.531184 
L 152.918576 100.865886 
L 154.173087 102.098338 
L 155.45405 103.223237 
L 156.762197 104.235106 
L 158.098279 105.128343 
L 159.463069 105.897295 
L 160.857363 106.536336 
L 162.281977 107.039958 
L 163.737754 107.402866 
L 165.225555 107.620073 
L 166.746267 107.686996 
L 168.300798 107.599531 
L 169.890081 107.354114 
L 171.515071 106.947766 
L 173.176745 106.3781 
L 174.876104 105.643313 
L 176.61417 104.742139 
L 178.391986 103.673794 
L 180.210617 102.437896 
L 182.071148 101.034371 
L 183.974681 99.463362 
L 185.922337 97.725134 
L 187.915251 95.819982 
L 189.954576 93.748152 
L 189.954576 93.748152 
L 190.992005 92.649779 
" style="fill:none;stroke:#bfbf00;stroke-linecap:square;stroke-width:1.5;"/>
   </g>
   <g id="line2d_37">
    <path clip-path="url(#p3389fc5a9d)" d="M 142.591665 57.046347 
L 143.544085 58.494229 
L 144.513716 59.891041 
L 145.500972 61.23463 
L 146.506276 62.522744 
L 147.530066 63.753025 
L 148.572788 64.923006 
L 149.634903 66.030114 
L 150.716882 67.071667 
L 151.819209 68.044874 
L 152.942381 68.946838 
L 154.086906 69.774559 
L 155.253306 70.524932 
L 156.442118 71.194754 
L 157.65389 71.780731 
L 158.889184 72.279478 
L 160.148576 72.687529 
L 161.432655 73.001342 
L 162.742026 73.217305 
L 164.077306 73.331745 
L 164.077306 73.331745 
L 164.754859 73.34973 
" style="fill:none;stroke:#bfbf00;stroke-linecap:square;stroke-width:1.5;"/>
   </g>
   <g id="line2d_38">
    <path clip-path="url(#p3389fc5a9d)" d="M 129.686692 70.603141 
L 130.369133 71.00852 
L 131.062704 71.400607 
L 131.767655 71.778979 
L 132.484245 72.143195 
L 133.21274 72.492796 
L 133.953411 72.827304 
L 134.706538 73.146224 
L 135.472409 73.449039 
L 136.251317 73.735216 
L 137.043566 74.004197 
L 137.849467 74.255407 
L 138.669337 74.488247 
L 139.503506 74.702098 
L 140.352308 74.896317 
L 141.21609 75.070239 
L 142.095205 75.223175 
L 142.990018 75.354412 
L 143.900901 75.463213 
L 144.828238 75.548817 
L 145.772422 75.610437 
L 146.733855 75.647262 
L 147.712952 75.658452 
L 148.710137 75.643144 
L 149.725844 75.600448 
L 150.760521 75.529446 
L 151.814623 75.429194 
L 152.888621 75.29872 
L 153.982992 75.137028 
L 155.09823 74.943089 
L 156.234838 74.71585 
L 157.39333 74.45423 
L 158.574234 74.157118 
L 159.778088 73.823378 
L 161.005445 73.451844 
L 162.256866 73.04132 
L 162.256866 73.04132 
L 162.891781 72.821057 
L 163.532928 72.590585 
" style="fill:none;stroke:#bfbf00;stroke-linecap:square;stroke-width:1.5;"/>
   </g>
   <g id="line2d_39">
    <path clip-path="url(#p3389fc5a9d)" d="M 148.95603 63.01943 
L 150.11822 65.678617 
L 151.304374 68.303635 
L 152.51515 70.893496 
L 153.751227 73.447144 
L 155.013305 75.963445 
L 156.302105 78.441186 
L 157.61837 80.879058 
L 158.962868 83.275653 
L 160.336385 85.629445 
L 161.739735 87.938784 
L 163.173754 90.201877 
L 164.639302 92.416778 
L 166.137265 94.581361 
L 167.668553 96.693314 
L 169.234102 98.750107 
L 170.834875 100.748978 
L 172.471858 102.686908 
L 174.146066 104.560598 
L 175.858539 106.366447 
L 177.610342 108.100534 
L 179.402569 109.758594 
L 181.236336 111.336014 
L 183.112787 112.827826 
L 185.03309 114.228714 
L 186.998437 115.533044 
L 189.010042 116.7349 
L 191.069143 117.828161 
L 193.176998 118.80659 
L 195.334882 119.663965 
L 197.544092 120.394225 
L 199.805935 120.991651 
L 202.121736 121.451053 
L 204.492825 121.767959 
L 206.920544 121.938783 
L 209.406235 121.960962 
L 211.951241 121.833032 
L 214.556901 121.554641 
L 217.224545 121.126484 
L 219.955487 120.550165 
L 222.751021 119.827995 
L 225.612417 118.962729 
L 225.612417 118.962729 
L 227.0682 118.477342 
" style="fill:none;stroke:#bfbf00;stroke-linecap:square;stroke-width:1.5;"/>
   </g>
   <g id="line2d_40">
    <path clip-path="url(#p3389fc5a9d)" d="M 128.261907 90.989259 
L 128.937035 91.437558 
L 129.622826 91.852171 
L 130.319517 92.232015 
L 131.02735 92.575988 
L 131.746575 92.882974 
L 132.477449 93.151843 
L 133.220235 93.381457 
L 133.975205 93.570669 
L 134.742636 93.718328 
L 135.522814 93.823282 
L 136.316034 93.884379 
L 137.122598 93.900472 
L 137.942816 93.870419 
L 138.777008 93.79309 
L 139.625503 93.667366 
L 140.488636 93.492142 
L 141.366757 93.266329 
L 142.260221 92.988858 
L 143.169395 92.658677 
L 144.094657 92.274758 
L 145.036394 91.836092 
L 145.995006 91.341692 
L 146.970901 90.790592 
L 147.964502 90.181849 
L 148.976242 89.514538 
L 150.006567 88.787752 
L 151.055934 88.000602 
L 152.124816 87.152214 
L 153.213696 86.241726 
L 154.323072 85.268286 
L 155.453455 84.231049 
L 156.605372 83.129175 
L 157.779361 81.961825 
L 158.97598 80.72816 
L 160.195796 79.427336 
L 161.439397 78.058502 
L 162.707383 76.620799 
L 164.000372 75.113356 
L 164.000372 75.113356 
L 164.65644 74.333205 
L 165.318997 73.535286 
" style="fill:none;stroke:#bfbf00;stroke-linecap:square;stroke-width:1.5;"/>
   </g>
   <g id="line2d_41">
    <path clip-path="url(#p3389fc5a9d)" d="M 118.696367 67.957889 
L 119.323995 70.110859 
L 119.962092 72.250385 
L 120.610905 74.376144 
L 121.270692 76.487797 
L 121.941716 78.584976 
L 122.624247 80.66729 
L 123.318567 82.734314 
L 124.024963 84.785593 
L 124.743731 86.820634 
L 125.475178 88.838902 
L 126.219619 90.839818 
L 126.977378 92.822747 
L 127.748792 94.786998 
L 128.534205 96.731812 
L 129.333974 98.656355 
L 130.148465 100.559706 
L 130.978059 102.440847 
L 131.823144 104.298647 
L 132.684124 106.131848 
L 133.561416 107.939042 
L 134.455447 109.718653 
L 135.36666 111.468909 
L 136.295513 113.187809 
L 137.242476 114.873095 
L 138.208035 116.522204 
L 139.192692 118.132225 
L 140.196965 119.699845 
L 141.221389 121.221287 
L 142.266516 122.692247 
L 143.332914 124.107819 
L 144.421172 125.462421 
L 145.531896 126.749725 
L 146.665713 127.962592 
L 147.823268 129.09303 
L 149.005228 130.132183 
L 150.212281 131.070387 
L 151.445138 131.897287 
L 152.704531 132.602063 
L 153.991215 133.173769 
L 155.30597 133.601775 
L 156.6496 133.876301 
L 158.022933 133.988978 
L 159.426822 133.933355 
L 160.862149 133.705265 
L 162.32982 133.30299 
L 163.830767 132.72717 
L 165.365953 131.980515 
L 166.936365 131.06734 
L 168.54302 129.993045 
L 170.186964 128.763598 
L 171.869269 127.38508 
L 173.591038 125.863335 
L 175.353401 124.203711 
L 177.157516 122.410908 
L 179.004569 120.488885 
L 180.895775 118.440837 
L 182.832373 116.269199 
L 184.815628 113.975679 
L 186.846831 111.561298 
L 188.927294 109.026444 
L 191.058351 106.370911 
L 193.241355 103.59395 
L 195.477675 100.694301 
L 195.477675 100.694301 
L 196.61626 99.197944 
L 197.768694 97.670227 
" style="fill:none;stroke:#bfbf00;stroke-linecap:square;stroke-width:1.5;"/>
   </g>
   <g id="line2d_42">
    <path clip-path="url(#p3389fc5a9d)" d="M 126.722689 45.860229 
L 127.414872 48.083028 
L 128.118331 50.284799 
L 128.833323 52.464894 
L 129.560112 54.622621 
L 130.29897 56.757244 
L 131.050173 58.867981 
L 131.81401 60.953997 
L 132.590775 63.0144 
L 133.38077 65.048239 
L 134.184307 67.054498 
L 135.001706 69.032089 
L 135.833296 70.979847 
L 136.679415 72.896526 
L 137.540411 74.780787 
L 138.416643 76.631198 
L 139.308478 78.446219 
L 140.216294 80.2242 
L 141.140481 81.963366 
L 142.08144 83.661815 
L 143.03958 85.317504 
L 144.015327 86.928241 
L 145.009114 88.491676 
L 146.02139 90.00529 
L 147.052614 91.46639 
L 148.103259 92.872096 
L 149.173812 94.219338 
L 150.264772 95.504851 
L 151.376654 96.725169 
L 152.509985 97.876628 
L 153.665307 98.955368 
L 154.843178 99.957342 
L 156.044171 100.878324 
L 157.268873 101.713934 
L 158.517888 102.459654 
L 159.791836 103.110863 
L 161.091354 103.662865 
L 162.417092 104.110936 
L 163.769721 104.45036 
L 165.149927 104.676479 
L 166.558413 104.784735 
L 167.995898 104.770716 
L 169.463121 104.630192 
L 170.960836 104.359143 
L 172.489814 103.953783 
L 174.050846 103.410565 
L 175.644736 102.726175 
L 177.272307 101.897512 
L 178.934399 100.921656 
L 180.631867 99.795822 
L 182.36558 98.517299 
L 184.136426 97.083388 
L 185.945304 95.491327 
L 187.793126 93.738209 
L 187.793126 93.738209 
L 188.731931 92.800287 
L 189.68082 91.820904 
" style="fill:none;stroke:#bfbf00;stroke-linecap:square;stroke-width:1.5;"/>
   </g>
   <g id="line2d_43">
    <path clip-path="url(#p3389fc5a9d)" d="M 143.060235 57.217319 
L 195.103228 96.700342 
L 206.524475 104.936578 
L 216.47147 111.839461 
L 225.333417 117.73077 
L 233.733865 123.053769 
L 241.479778 127.707497 
L 246.43371 130.54348 
L 249.054545 131.996735 
L 249.054545 131.996735 
" style="fill:none;stroke:#008000;stroke-linecap:square;stroke-width:1.5;"/>
   </g>
   <g id="patch_3">
    <path d="M 36 252 
L 36 34.56 
" style="fill:none;stroke:#000000;stroke-linecap:square;stroke-linejoin:miter;stroke-width:0.8;"/>
   </g>
   <g id="patch_4">
    <path d="M 259.2 252 
L 259.2 34.56 
" style="fill:none;stroke:#000000;stroke-linecap:square;stroke-linejoin:miter;stroke-width:0.8;"/>
   </g>
   <g id="patch_5">
    <path d="M 36 252 
L 259.2 252 
" style="fill:none;stroke:#000000;stroke-linecap:square;stroke-linejoin:miter;stroke-width:0.8;"/>
   </g>
   <g id="patch_6">
    <path d="M 36 34.56 
L 259.2 34.56 
" style="fill:none;stroke:#000000;stroke-linecap:square;stroke-linejoin:miter;stroke-width:0.8;"/>
   </g>
   <g id="text_12">
    <!--  0.37 -->
    <defs>
     <path id="DejaVuSans-32"/>
     <path d="M 40.578125 39.3125 
Q 47.65625 37.796875 51.625 33 
Q 55.609375 28.21875 55.609375 21.1875 
Q 55.609375 10.40625 48.1875 4.484375 
Q 40.765625 -1.421875 27.09375 -1.421875 
Q 22.515625 -1.421875 17.65625 -0.515625 
Q 12.796875 0.390625 7.625 2.203125 
L 7.625 11.71875 
Q 11.71875 9.328125 16.59375 8.109375 
Q 21.484375 6.890625 26.8125 6.890625 
Q 36.078125 6.890625 40.9375 10.546875 
Q 45.796875 14.203125 45.796875 21.1875 
Q 45.796875 27.640625 41.28125 31.265625 
Q 36.765625 34.90625 28.71875 34.90625 
L 20.21875 34.90625 
L 20.21875 43.015625 
L 29.109375 43.015625 
Q 36.375 43.015625 40.234375 45.921875 
Q 44.09375 48.828125 44.09375 54.296875 
Q 44.09375 59.90625 40.109375 62.90625 
Q 36.140625 65.921875 28.71875 65.921875 
Q 24.65625 65.921875 20.015625 65.03125 
Q 15.375 64.15625 9.8125 62.3125 
L 9.8125 71.09375 
Q 15.4375 72.65625 20.34375 73.4375 
Q 25.25 74.21875 29.59375 74.21875 
Q 40.828125 74.21875 47.359375 69.109375 
Q 53.90625 64.015625 53.90625 55.328125 
Q 53.90625 49.265625 50.4375 45.09375 
Q 46.96875 40.921875 40.578125 39.3125 
z
" id="DejaVuSans-51"/>
     <path d="M 8.203125 72.90625 
L 55.078125 72.90625 
L 55.078125 68.703125 
L 28.609375 0 
L 18.3125 0 
L 43.21875 64.59375 
L 8.203125 64.59375 
z
" id="DejaVuSans-55"/>
    </defs>
    <g transform="translate(201.29041 100.477164)scale(0.1 -0.1)">
     <use xlink:href="#DejaVuSans-32"/>
     <use x="31.787109" xlink:href="#DejaVuSans-48"/>
     <use x="95.410156" xlink:href="#DejaVuSans-46"/>
     <use x="127.197266" xlink:href="#DejaVuSans-51"/>
     <use x="190.820312" xlink:href="#DejaVuSans-55"/>
    </g>
   </g>
   <g id="text_13">
    <!--  f=1 -->
    <defs>
     <path d="M 37.109375 75.984375 
L 37.109375 68.5 
L 28.515625 68.5 
Q 23.6875 68.5 21.796875 66.546875 
Q 19.921875 64.59375 19.921875 59.515625 
L 19.921875 54.6875 
L 34.71875 54.6875 
L 34.71875 47.703125 
L 19.921875 47.703125 
L 19.921875 0 
L 10.890625 0 
L 10.890625 47.703125 
L 2.296875 47.703125 
L 2.296875 54.6875 
L 10.890625 54.6875 
L 10.890625 58.5 
Q 10.890625 67.625 15.140625 71.796875 
Q 19.390625 75.984375 28.609375 75.984375 
z
" id="DejaVuSans-102"/>
     <path d="M 10.59375 45.40625 
L 73.1875 45.40625 
L 73.1875 37.203125 
L 10.59375 37.203125 
z
M 10.59375 25.484375 
L 73.1875 25.484375 
L 73.1875 17.1875 
L 10.59375 17.1875 
z
" id="DejaVuSans-61"/>
    </defs>
    <g transform="translate(119.447492 44.443636)scale(0.1 -0.1)">
     <use xlink:href="#DejaVuSans-32"/>
     <use x="31.787109" xlink:href="#DejaVuSans-102"/>
     <use x="66.992188" xlink:href="#DejaVuSans-61"/>
     <use x="150.78125" xlink:href="#DejaVuSans-49"/>
    </g>
   </g>
  </g>
 </g>
 <defs>
  <clipPath id="p3389fc5a9d">
   <rect height="217.44" width="223.2" x="36" y="34.56"/>
  </clipPath>
 </defs>
</svg>
