<?xml version="1.0" encoding="utf-8" standalone="no"?>
<!DOCTYPE svg PUBLIC "-//W3C//DTD SVG 1.1//EN"
  "http://www.w3.org/Graphics/SVG/1.1/DTD/svg11.dtd">
<!-- Created with matplotlib (https://matplotlib.org/) -->
<svg height="288pt" version="1.1" viewBox="0 0 288 288" width="288pt" xmlns="http://www.w3.org/2000/svg" xmlns:xlink="http://www.w3.org/1999/xlink">
 <defs>
  <style type="text/css">
*{stroke-linecap:butt;stroke-linejoin:round;}
  </style>
 </defs>
 <g id="figure_1">
  <g id="patch_1">
   <path d="M 0 288 
L 288 288 
L 288 0 
L 0 0 
z
" style="fill:#ffffff;"/>
  </g>
  <g id="axes_1">
   <g id="patch_2">
    <path d="M 36 252 
L 259.2 252 
L 259.2 34.56 
L 36 34.56 
z
" style="fill:#ffffff;"/>
   </g>
   <g id="matplotlib.axis_1">
    <g id="xtick_1">
     <g id="line2d_1">
      <defs>
       <path d="M 0 0 
L 0 3.5 
" id="mde2b7f3faf" style="stroke:#000000;stroke-width:0.8;"/>
      </defs>
      <g>
       <use style="stroke:#000000;stroke-width:0.8;" x="70.815866" xlink:href="#mde2b7f3faf" y="252"/>
      </g>
     </g>
     <g id="text_1">
      <!-- 30 -->
      <defs>
       <path d="M 40.578125 39.3125 
Q 47.65625 37.796875 51.625 33 
Q 55.609375 28.21875 55.609375 21.1875 
Q 55.609375 10.40625 48.1875 4.484375 
Q 40.765625 -1.421875 27.09375 -1.421875 
Q 22.515625 -1.421875 17.65625 -0.515625 
Q 12.796875 0.390625 7.625 2.203125 
L 7.625 11.71875 
Q 11.71875 9.328125 16.59375 8.109375 
Q 21.484375 6.890625 26.8125 6.890625 
Q 36.078125 6.890625 40.9375 10.546875 
Q 45.796875 14.203125 45.796875 21.1875 
Q 45.796875 27.640625 41.28125 31.265625 
Q 36.765625 34.90625 28.71875 34.90625 
L 20.21875 34.90625 
L 20.21875 43.015625 
L 29.109375 43.015625 
Q 36.375 43.015625 40.234375 45.921875 
Q 44.09375 48.828125 44.09375 54.296875 
Q 44.09375 59.90625 40.109375 62.90625 
Q 36.140625 65.921875 28.71875 65.921875 
Q 24.65625 65.921875 20.015625 65.03125 
Q 15.375 64.15625 9.8125 62.3125 
L 9.8125 71.09375 
Q 15.4375 72.65625 20.34375 73.4375 
Q 25.25 74.21875 29.59375 74.21875 
Q 40.828125 74.21875 47.359375 69.109375 
Q 53.90625 64.015625 53.90625 55.328125 
Q 53.90625 49.265625 50.4375 45.09375 
Q 46.96875 40.921875 40.578125 39.3125 
z
" id="DejaVuSans-51"/>
       <path d="M 31.78125 66.40625 
Q 24.171875 66.40625 20.328125 58.90625 
Q 16.5 51.421875 16.5 36.375 
Q 16.5 21.390625 20.328125 13.890625 
Q 24.171875 6.390625 31.78125 6.390625 
Q 39.453125 6.390625 43.28125 13.890625 
Q 47.125 21.390625 47.125 36.375 
Q 47.125 51.421875 43.28125 58.90625 
Q 39.453125 66.40625 31.78125 66.40625 
z
M 31.78125 74.21875 
Q 44.046875 74.21875 50.515625 64.515625 
Q 56.984375 54.828125 56.984375 36.375 
Q 56.984375 17.96875 50.515625 8.265625 
Q 44.046875 -1.421875 31.78125 -1.421875 
Q 19.53125 -1.421875 13.0625 8.265625 
Q 6.59375 17.96875 6.59375 36.375 
Q 6.59375 54.828125 13.0625 64.515625 
Q 19.53125 74.21875 31.78125 74.21875 
z
" id="DejaVuSans-48"/>
      </defs>
      <g transform="translate(64.453366 266.598437)scale(0.1 -0.1)">
       <use xlink:href="#DejaVuSans-51"/>
       <use x="63.623047" xlink:href="#DejaVuSans-48"/>
      </g>
     </g>
    </g>
    <g id="xtick_2">
     <g id="line2d_2">
      <g>
       <use style="stroke:#000000;stroke-width:0.8;" x="120.188124" xlink:href="#mde2b7f3faf" y="252"/>
      </g>
     </g>
     <g id="text_2">
      <!-- 40 -->
      <defs>
       <path d="M 37.796875 64.3125 
L 12.890625 25.390625 
L 37.796875 25.390625 
z
M 35.203125 72.90625 
L 47.609375 72.90625 
L 47.609375 25.390625 
L 58.015625 25.390625 
L 58.015625 17.1875 
L 47.609375 17.1875 
L 47.609375 0 
L 37.796875 0 
L 37.796875 17.1875 
L 4.890625 17.1875 
L 4.890625 26.703125 
z
" id="DejaVuSans-52"/>
      </defs>
      <g transform="translate(113.825624 266.598437)scale(0.1 -0.1)">
       <use xlink:href="#DejaVuSans-52"/>
       <use x="63.623047" xlink:href="#DejaVuSans-48"/>
      </g>
     </g>
    </g>
    <g id="xtick_3">
     <g id="line2d_3">
      <g>
       <use style="stroke:#000000;stroke-width:0.8;" x="169.560381" xlink:href="#mde2b7f3faf" y="252"/>
      </g>
     </g>
     <g id="text_3">
      <!-- 50 -->
      <defs>
       <path d="M 10.796875 72.90625 
L 49.515625 72.90625 
L 49.515625 64.59375 
L 19.828125 64.59375 
L 19.828125 46.734375 
Q 21.96875 47.46875 24.109375 47.828125 
Q 26.265625 48.1875 28.421875 48.1875 
Q 40.625 48.1875 47.75 41.5 
Q 54.890625 34.8125 54.890625 23.390625 
Q 54.890625 11.625 47.5625 5.09375 
Q 40.234375 -1.421875 26.90625 -1.421875 
Q 22.3125 -1.421875 17.546875 -0.640625 
Q 12.796875 0.140625 7.71875 1.703125 
L 7.71875 11.625 
Q 12.109375 9.234375 16.796875 8.0625 
Q 21.484375 6.890625 26.703125 6.890625 
Q 35.15625 6.890625 40.078125 11.328125 
Q 45.015625 15.765625 45.015625 23.390625 
Q 45.015625 31 40.078125 35.4375 
Q 35.15625 39.890625 26.703125 39.890625 
Q 22.75 39.890625 18.8125 39.015625 
Q 14.890625 38.140625 10.796875 36.28125 
z
" id="DejaVuSans-53"/>
      </defs>
      <g transform="translate(163.197881 266.598437)scale(0.1 -0.1)">
       <use xlink:href="#DejaVuSans-53"/>
       <use x="63.623047" xlink:href="#DejaVuSans-48"/>
      </g>
     </g>
    </g>
    <g id="xtick_4">
     <g id="line2d_4">
      <g>
       <use style="stroke:#000000;stroke-width:0.8;" x="218.932639" xlink:href="#mde2b7f3faf" y="252"/>
      </g>
     </g>
     <g id="text_4">
      <!-- 60 -->
      <defs>
       <path d="M 33.015625 40.375 
Q 26.375 40.375 22.484375 35.828125 
Q 18.609375 31.296875 18.609375 23.390625 
Q 18.609375 15.53125 22.484375 10.953125 
Q 26.375 6.390625 33.015625 6.390625 
Q 39.65625 6.390625 43.53125 10.953125 
Q 47.40625 15.53125 47.40625 23.390625 
Q 47.40625 31.296875 43.53125 35.828125 
Q 39.65625 40.375 33.015625 40.375 
z
M 52.59375 71.296875 
L 52.59375 62.3125 
Q 48.875 64.0625 45.09375 64.984375 
Q 41.3125 65.921875 37.59375 65.921875 
Q 27.828125 65.921875 22.671875 59.328125 
Q 17.53125 52.734375 16.796875 39.40625 
Q 19.671875 43.65625 24.015625 45.921875 
Q 28.375 48.1875 33.59375 48.1875 
Q 44.578125 48.1875 50.953125 41.515625 
Q 57.328125 34.859375 57.328125 23.390625 
Q 57.328125 12.15625 50.6875 5.359375 
Q 44.046875 -1.421875 33.015625 -1.421875 
Q 20.359375 -1.421875 13.671875 8.265625 
Q 6.984375 17.96875 6.984375 36.375 
Q 6.984375 53.65625 15.1875 63.9375 
Q 23.390625 74.21875 37.203125 74.21875 
Q 40.921875 74.21875 44.703125 73.484375 
Q 48.484375 72.75 52.59375 71.296875 
z
" id="DejaVuSans-54"/>
      </defs>
      <g transform="translate(212.570139 266.598437)scale(0.1 -0.1)">
       <use xlink:href="#DejaVuSans-54"/>
       <use x="63.623047" xlink:href="#DejaVuSans-48"/>
      </g>
     </g>
    </g>
    <g id="text_5">
     <!-- Inclinations -->
     <defs>
      <path d="M 9.8125 72.90625 
L 19.671875 72.90625 
L 19.671875 0 
L 9.8125 0 
z
" id="DejaVuSans-73"/>
      <path d="M 54.890625 33.015625 
L 54.890625 0 
L 45.90625 0 
L 45.90625 32.71875 
Q 45.90625 40.484375 42.875 44.328125 
Q 39.84375 48.1875 33.796875 48.1875 
Q 26.515625 48.1875 22.3125 43.546875 
Q 18.109375 38.921875 18.109375 30.90625 
L 18.109375 0 
L 9.078125 0 
L 9.078125 54.6875 
L 18.109375 54.6875 
L 18.109375 46.1875 
Q 21.34375 51.125 25.703125 53.5625 
Q 30.078125 56 35.796875 56 
Q 45.21875 56 50.046875 50.171875 
Q 54.890625 44.34375 54.890625 33.015625 
z
" id="DejaVuSans-110"/>
      <path d="M 48.78125 52.59375 
L 48.78125 44.1875 
Q 44.96875 46.296875 41.140625 47.34375 
Q 37.3125 48.390625 33.40625 48.390625 
Q 24.65625 48.390625 19.8125 42.84375 
Q 14.984375 37.3125 14.984375 27.296875 
Q 14.984375 17.28125 19.8125 11.734375 
Q 24.65625 6.203125 33.40625 6.203125 
Q 37.3125 6.203125 41.140625 7.25 
Q 44.96875 8.296875 48.78125 10.40625 
L 48.78125 2.09375 
Q 45.015625 0.34375 40.984375 -0.53125 
Q 36.96875 -1.421875 32.421875 -1.421875 
Q 20.0625 -1.421875 12.78125 6.34375 
Q 5.515625 14.109375 5.515625 27.296875 
Q 5.515625 40.671875 12.859375 48.328125 
Q 20.21875 56 33.015625 56 
Q 37.15625 56 41.109375 55.140625 
Q 45.0625 54.296875 48.78125 52.59375 
z
" id="DejaVuSans-99"/>
      <path d="M 9.421875 75.984375 
L 18.40625 75.984375 
L 18.40625 0 
L 9.421875 0 
z
" id="DejaVuSans-108"/>
      <path d="M 9.421875 54.6875 
L 18.40625 54.6875 
L 18.40625 0 
L 9.421875 0 
z
M 9.421875 75.984375 
L 18.40625 75.984375 
L 18.40625 64.59375 
L 9.421875 64.59375 
z
" id="DejaVuSans-105"/>
      <path d="M 34.28125 27.484375 
Q 23.390625 27.484375 19.1875 25 
Q 14.984375 22.515625 14.984375 16.5 
Q 14.984375 11.71875 18.140625 8.90625 
Q 21.296875 6.109375 26.703125 6.109375 
Q 34.1875 6.109375 38.703125 11.40625 
Q 43.21875 16.703125 43.21875 25.484375 
L 43.21875 27.484375 
z
M 52.203125 31.203125 
L 52.203125 0 
L 43.21875 0 
L 43.21875 8.296875 
Q 40.140625 3.328125 35.546875 0.953125 
Q 30.953125 -1.421875 24.3125 -1.421875 
Q 15.921875 -1.421875 10.953125 3.296875 
Q 6 8.015625 6 15.921875 
Q 6 25.140625 12.171875 29.828125 
Q 18.359375 34.515625 30.609375 34.515625 
L 43.21875 34.515625 
L 43.21875 35.40625 
Q 43.21875 41.609375 39.140625 45 
Q 35.0625 48.390625 27.6875 48.390625 
Q 23 48.390625 18.546875 47.265625 
Q 14.109375 46.140625 10.015625 43.890625 
L 10.015625 52.203125 
Q 14.9375 54.109375 19.578125 55.046875 
Q 24.21875 56 28.609375 56 
Q 40.484375 56 46.34375 49.84375 
Q 52.203125 43.703125 52.203125 31.203125 
z
" id="DejaVuSans-97"/>
      <path d="M 18.3125 70.21875 
L 18.3125 54.6875 
L 36.8125 54.6875 
L 36.8125 47.703125 
L 18.3125 47.703125 
L 18.3125 18.015625 
Q 18.3125 11.328125 20.140625 9.421875 
Q 21.96875 7.515625 27.59375 7.515625 
L 36.8125 7.515625 
L 36.8125 0 
L 27.59375 0 
Q 17.1875 0 13.234375 3.875 
Q 9.28125 7.765625 9.28125 18.015625 
L 9.28125 47.703125 
L 2.6875 47.703125 
L 2.6875 54.6875 
L 9.28125 54.6875 
L 9.28125 70.21875 
z
" id="DejaVuSans-116"/>
      <path d="M 30.609375 48.390625 
Q 23.390625 48.390625 19.1875 42.75 
Q 14.984375 37.109375 14.984375 27.296875 
Q 14.984375 17.484375 19.15625 11.84375 
Q 23.34375 6.203125 30.609375 6.203125 
Q 37.796875 6.203125 41.984375 11.859375 
Q 46.1875 17.53125 46.1875 27.296875 
Q 46.1875 37.015625 41.984375 42.703125 
Q 37.796875 48.390625 30.609375 48.390625 
z
M 30.609375 56 
Q 42.328125 56 49.015625 48.375 
Q 55.71875 40.765625 55.71875 27.296875 
Q 55.71875 13.875 49.015625 6.21875 
Q 42.328125 -1.421875 30.609375 -1.421875 
Q 18.84375 -1.421875 12.171875 6.21875 
Q 5.515625 13.875 5.515625 27.296875 
Q 5.515625 40.765625 12.171875 48.375 
Q 18.84375 56 30.609375 56 
z
" id="DejaVuSans-111"/>
      <path d="M 44.28125 53.078125 
L 44.28125 44.578125 
Q 40.484375 46.53125 36.375 47.5 
Q 32.28125 48.484375 27.875 48.484375 
Q 21.1875 48.484375 17.84375 46.4375 
Q 14.5 44.390625 14.5 40.28125 
Q 14.5 37.15625 16.890625 35.375 
Q 19.28125 33.59375 26.515625 31.984375 
L 29.59375 31.296875 
Q 39.15625 29.25 43.1875 25.515625 
Q 47.21875 21.78125 47.21875 15.09375 
Q 47.21875 7.46875 41.1875 3.015625 
Q 35.15625 -1.421875 24.609375 -1.421875 
Q 20.21875 -1.421875 15.453125 -0.5625 
Q 10.6875 0.296875 5.421875 2 
L 5.421875 11.28125 
Q 10.40625 8.6875 15.234375 7.390625 
Q 20.0625 6.109375 24.8125 6.109375 
Q 31.15625 6.109375 34.5625 8.28125 
Q 37.984375 10.453125 37.984375 14.40625 
Q 37.984375 18.0625 35.515625 20.015625 
Q 33.0625 21.96875 24.703125 23.78125 
L 21.578125 24.515625 
Q 13.234375 26.265625 9.515625 29.90625 
Q 5.8125 33.546875 5.8125 39.890625 
Q 5.8125 47.609375 11.28125 51.796875 
Q 16.75 56 26.8125 56 
Q 31.78125 56 36.171875 55.265625 
Q 40.578125 54.546875 44.28125 53.078125 
z
" id="DejaVuSans-115"/>
     </defs>
     <g transform="translate(119.014062 280.276563)scale(0.1 -0.1)">
      <use xlink:href="#DejaVuSans-73"/>
      <use x="29.492188" xlink:href="#DejaVuSans-110"/>
      <use x="92.871094" xlink:href="#DejaVuSans-99"/>
      <use x="147.851562" xlink:href="#DejaVuSans-108"/>
      <use x="175.634766" xlink:href="#DejaVuSans-105"/>
      <use x="203.417969" xlink:href="#DejaVuSans-110"/>
      <use x="266.796875" xlink:href="#DejaVuSans-97"/>
      <use x="328.076172" xlink:href="#DejaVuSans-116"/>
      <use x="367.285156" xlink:href="#DejaVuSans-105"/>
      <use x="395.068359" xlink:href="#DejaVuSans-111"/>
      <use x="456.25" xlink:href="#DejaVuSans-110"/>
      <use x="519.628906" xlink:href="#DejaVuSans-115"/>
     </g>
    </g>
   </g>
   <g id="matplotlib.axis_2">
    <g id="ytick_1">
     <g id="line2d_5">
      <defs>
       <path d="M 0 0 
L -3.5 0 
" id="m614857900a" style="stroke:#000000;stroke-width:0.8;"/>
      </defs>
      <g>
       <use style="stroke:#000000;stroke-width:0.8;" x="36" xlink:href="#m614857900a" y="242.116364"/>
      </g>
     </g>
     <g id="text_6">
      <!-- 0.0 -->
      <defs>
       <path d="M 10.6875 12.40625 
L 21 12.40625 
L 21 0 
L 10.6875 0 
z
" id="DejaVuSans-46"/>
      </defs>
      <g transform="translate(13.096875 245.915582)scale(0.1 -0.1)">
       <use xlink:href="#DejaVuSans-48"/>
       <use x="63.623047" xlink:href="#DejaVuSans-46"/>
       <use x="95.410156" xlink:href="#DejaVuSans-48"/>
      </g>
     </g>
    </g>
    <g id="ytick_2">
     <g id="line2d_6">
      <g>
       <use style="stroke:#000000;stroke-width:0.8;" x="36" xlink:href="#m614857900a" y="202.542244"/>
      </g>
     </g>
     <g id="text_7">
      <!-- 0.2 -->
      <defs>
       <path d="M 19.1875 8.296875 
L 53.609375 8.296875 
L 53.609375 0 
L 7.328125 0 
L 7.328125 8.296875 
Q 12.9375 14.109375 22.625 23.890625 
Q 32.328125 33.6875 34.8125 36.53125 
Q 39.546875 41.84375 41.421875 45.53125 
Q 43.3125 49.21875 43.3125 52.78125 
Q 43.3125 58.59375 39.234375 62.25 
Q 35.15625 65.921875 28.609375 65.921875 
Q 23.96875 65.921875 18.8125 64.3125 
Q 13.671875 62.703125 7.8125 59.421875 
L 7.8125 69.390625 
Q 13.765625 71.78125 18.9375 73 
Q 24.125 74.21875 28.421875 74.21875 
Q 39.75 74.21875 46.484375 68.546875 
Q 53.21875 62.890625 53.21875 53.421875 
Q 53.21875 48.921875 51.53125 44.890625 
Q 49.859375 40.875 45.40625 35.40625 
Q 44.1875 33.984375 37.640625 27.21875 
Q 31.109375 20.453125 19.1875 8.296875 
z
" id="DejaVuSans-50"/>
      </defs>
      <g transform="translate(13.096875 206.341463)scale(0.1 -0.1)">
       <use xlink:href="#DejaVuSans-48"/>
       <use x="63.623047" xlink:href="#DejaVuSans-46"/>
       <use x="95.410156" xlink:href="#DejaVuSans-50"/>
      </g>
     </g>
    </g>
    <g id="ytick_3">
     <g id="line2d_7">
      <g>
       <use style="stroke:#000000;stroke-width:0.8;" x="36" xlink:href="#m614857900a" y="162.968124"/>
      </g>
     </g>
     <g id="text_8">
      <!-- 0.4 -->
      <g transform="translate(13.096875 166.767343)scale(0.1 -0.1)">
       <use xlink:href="#DejaVuSans-48"/>
       <use x="63.623047" xlink:href="#DejaVuSans-46"/>
       <use x="95.410156" xlink:href="#DejaVuSans-52"/>
      </g>
     </g>
    </g>
    <g id="ytick_4">
     <g id="line2d_8">
      <g>
       <use style="stroke:#000000;stroke-width:0.8;" x="36" xlink:href="#m614857900a" y="123.394005"/>
      </g>
     </g>
     <g id="text_9">
      <!-- 0.6 -->
      <g transform="translate(13.096875 127.193224)scale(0.1 -0.1)">
       <use xlink:href="#DejaVuSans-48"/>
       <use x="63.623047" xlink:href="#DejaVuSans-46"/>
       <use x="95.410156" xlink:href="#DejaVuSans-54"/>
      </g>
     </g>
    </g>
    <g id="ytick_5">
     <g id="line2d_9">
      <g>
       <use style="stroke:#000000;stroke-width:0.8;" x="36" xlink:href="#m614857900a" y="83.819885"/>
      </g>
     </g>
     <g id="text_10">
      <!-- 0.8 -->
      <defs>
       <path d="M 31.78125 34.625 
Q 24.75 34.625 20.71875 30.859375 
Q 16.703125 27.09375 16.703125 20.515625 
Q 16.703125 13.921875 20.71875 10.15625 
Q 24.75 6.390625 31.78125 6.390625 
Q 38.8125 6.390625 42.859375 10.171875 
Q 46.921875 13.96875 46.921875 20.515625 
Q 46.921875 27.09375 42.890625 30.859375 
Q 38.875 34.625 31.78125 34.625 
z
M 21.921875 38.8125 
Q 15.578125 40.375 12.03125 44.71875 
Q 8.5 49.078125 8.5 55.328125 
Q 8.5 64.0625 14.71875 69.140625 
Q 20.953125 74.21875 31.78125 74.21875 
Q 42.671875 74.21875 48.875 69.140625 
Q 55.078125 64.0625 55.078125 55.328125 
Q 55.078125 49.078125 51.53125 44.71875 
Q 48 40.375 41.703125 38.8125 
Q 48.828125 37.15625 52.796875 32.3125 
Q 56.78125 27.484375 56.78125 20.515625 
Q 56.78125 9.90625 50.3125 4.234375 
Q 43.84375 -1.421875 31.78125 -1.421875 
Q 19.734375 -1.421875 13.25 4.234375 
Q 6.78125 9.90625 6.78125 20.515625 
Q 6.78125 27.484375 10.78125 32.3125 
Q 14.796875 37.15625 21.921875 38.8125 
z
M 18.3125 54.390625 
Q 18.3125 48.734375 21.84375 45.5625 
Q 25.390625 42.390625 31.78125 42.390625 
Q 38.140625 42.390625 41.71875 45.5625 
Q 45.3125 48.734375 45.3125 54.390625 
Q 45.3125 60.0625 41.71875 63.234375 
Q 38.140625 66.40625 31.78125 66.40625 
Q 25.390625 66.40625 21.84375 63.234375 
Q 18.3125 60.0625 18.3125 54.390625 
z
" id="DejaVuSans-56"/>
      </defs>
      <g transform="translate(13.096875 87.619104)scale(0.1 -0.1)">
       <use xlink:href="#DejaVuSans-48"/>
       <use x="63.623047" xlink:href="#DejaVuSans-46"/>
       <use x="95.410156" xlink:href="#DejaVuSans-56"/>
      </g>
     </g>
    </g>
    <g id="ytick_6">
     <g id="line2d_10">
      <g>
       <use style="stroke:#000000;stroke-width:0.8;" x="36" xlink:href="#m614857900a" y="44.245766"/>
      </g>
     </g>
     <g id="text_11">
      <!-- 1.0 -->
      <defs>
       <path d="M 12.40625 8.296875 
L 28.515625 8.296875 
L 28.515625 63.921875 
L 10.984375 60.40625 
L 10.984375 69.390625 
L 28.421875 72.90625 
L 38.28125 72.90625 
L 38.28125 8.296875 
L 54.390625 8.296875 
L 54.390625 0 
L 12.40625 0 
z
" id="DejaVuSans-49"/>
      </defs>
      <g transform="translate(13.096875 48.044985)scale(0.1 -0.1)">
       <use xlink:href="#DejaVuSans-49"/>
       <use x="63.623047" xlink:href="#DejaVuSans-46"/>
       <use x="95.410156" xlink:href="#DejaVuSans-48"/>
      </g>
     </g>
    </g>
    <g id="text_12">
     <!-- Cumulative Distribution -->
     <defs>
      <path d="M 64.40625 67.28125 
L 64.40625 56.890625 
Q 59.421875 61.53125 53.78125 63.8125 
Q 48.140625 66.109375 41.796875 66.109375 
Q 29.296875 66.109375 22.65625 58.46875 
Q 16.015625 50.828125 16.015625 36.375 
Q 16.015625 21.96875 22.65625 14.328125 
Q 29.296875 6.6875 41.796875 6.6875 
Q 48.140625 6.6875 53.78125 8.984375 
Q 59.421875 11.28125 64.40625 15.921875 
L 64.40625 5.609375 
Q 59.234375 2.09375 53.4375 0.328125 
Q 47.65625 -1.421875 41.21875 -1.421875 
Q 24.65625 -1.421875 15.125 8.703125 
Q 5.609375 18.84375 5.609375 36.375 
Q 5.609375 53.953125 15.125 64.078125 
Q 24.65625 74.21875 41.21875 74.21875 
Q 47.75 74.21875 53.53125 72.484375 
Q 59.328125 70.75 64.40625 67.28125 
z
" id="DejaVuSans-67"/>
      <path d="M 8.5 21.578125 
L 8.5 54.6875 
L 17.484375 54.6875 
L 17.484375 21.921875 
Q 17.484375 14.15625 20.5 10.265625 
Q 23.53125 6.390625 29.59375 6.390625 
Q 36.859375 6.390625 41.078125 11.03125 
Q 45.3125 15.671875 45.3125 23.6875 
L 45.3125 54.6875 
L 54.296875 54.6875 
L 54.296875 0 
L 45.3125 0 
L 45.3125 8.40625 
Q 42.046875 3.421875 37.71875 1 
Q 33.40625 -1.421875 27.6875 -1.421875 
Q 18.265625 -1.421875 13.375 4.4375 
Q 8.5 10.296875 8.5 21.578125 
z
M 31.109375 56 
z
" id="DejaVuSans-117"/>
      <path d="M 52 44.1875 
Q 55.375 50.25 60.0625 53.125 
Q 64.75 56 71.09375 56 
Q 79.640625 56 84.28125 50.015625 
Q 88.921875 44.046875 88.921875 33.015625 
L 88.921875 0 
L 79.890625 0 
L 79.890625 32.71875 
Q 79.890625 40.578125 77.09375 44.375 
Q 74.3125 48.1875 68.609375 48.1875 
Q 61.625 48.1875 57.5625 43.546875 
Q 53.515625 38.921875 53.515625 30.90625 
L 53.515625 0 
L 44.484375 0 
L 44.484375 32.71875 
Q 44.484375 40.625 41.703125 44.40625 
Q 38.921875 48.1875 33.109375 48.1875 
Q 26.21875 48.1875 22.15625 43.53125 
Q 18.109375 38.875 18.109375 30.90625 
L 18.109375 0 
L 9.078125 0 
L 9.078125 54.6875 
L 18.109375 54.6875 
L 18.109375 46.1875 
Q 21.1875 51.21875 25.484375 53.609375 
Q 29.78125 56 35.6875 56 
Q 41.65625 56 45.828125 52.96875 
Q 50 49.953125 52 44.1875 
z
" id="DejaVuSans-109"/>
      <path d="M 2.984375 54.6875 
L 12.5 54.6875 
L 29.59375 8.796875 
L 46.6875 54.6875 
L 56.203125 54.6875 
L 35.6875 0 
L 23.484375 0 
z
" id="DejaVuSans-118"/>
      <path d="M 56.203125 29.59375 
L 56.203125 25.203125 
L 14.890625 25.203125 
Q 15.484375 15.921875 20.484375 11.0625 
Q 25.484375 6.203125 34.421875 6.203125 
Q 39.59375 6.203125 44.453125 7.46875 
Q 49.3125 8.734375 54.109375 11.28125 
L 54.109375 2.78125 
Q 49.265625 0.734375 44.1875 -0.34375 
Q 39.109375 -1.421875 33.890625 -1.421875 
Q 20.796875 -1.421875 13.15625 6.1875 
Q 5.515625 13.8125 5.515625 26.8125 
Q 5.515625 40.234375 12.765625 48.109375 
Q 20.015625 56 32.328125 56 
Q 43.359375 56 49.78125 48.890625 
Q 56.203125 41.796875 56.203125 29.59375 
z
M 47.21875 32.234375 
Q 47.125 39.59375 43.09375 43.984375 
Q 39.0625 48.390625 32.421875 48.390625 
Q 24.90625 48.390625 20.390625 44.140625 
Q 15.875 39.890625 15.1875 32.171875 
z
" id="DejaVuSans-101"/>
      <path id="DejaVuSans-32"/>
      <path d="M 19.671875 64.796875 
L 19.671875 8.109375 
L 31.59375 8.109375 
Q 46.6875 8.109375 53.6875 14.9375 
Q 60.6875 21.78125 60.6875 36.53125 
Q 60.6875 51.171875 53.6875 57.984375 
Q 46.6875 64.796875 31.59375 64.796875 
z
M 9.8125 72.90625 
L 30.078125 72.90625 
Q 51.265625 72.90625 61.171875 64.09375 
Q 71.09375 55.28125 71.09375 36.53125 
Q 71.09375 17.671875 61.125 8.828125 
Q 51.171875 0 30.078125 0 
L 9.8125 0 
z
" id="DejaVuSans-68"/>
      <path d="M 41.109375 46.296875 
Q 39.59375 47.171875 37.8125 47.578125 
Q 36.03125 48 33.890625 48 
Q 26.265625 48 22.1875 43.046875 
Q 18.109375 38.09375 18.109375 28.8125 
L 18.109375 0 
L 9.078125 0 
L 9.078125 54.6875 
L 18.109375 54.6875 
L 18.109375 46.1875 
Q 20.953125 51.171875 25.484375 53.578125 
Q 30.03125 56 36.53125 56 
Q 37.453125 56 38.578125 55.875 
Q 39.703125 55.765625 41.0625 55.515625 
z
" id="DejaVuSans-114"/>
      <path d="M 48.6875 27.296875 
Q 48.6875 37.203125 44.609375 42.84375 
Q 40.53125 48.484375 33.40625 48.484375 
Q 26.265625 48.484375 22.1875 42.84375 
Q 18.109375 37.203125 18.109375 27.296875 
Q 18.109375 17.390625 22.1875 11.75 
Q 26.265625 6.109375 33.40625 6.109375 
Q 40.53125 6.109375 44.609375 11.75 
Q 48.6875 17.390625 48.6875 27.296875 
z
M 18.109375 46.390625 
Q 20.953125 51.265625 25.265625 53.625 
Q 29.59375 56 35.59375 56 
Q 45.5625 56 51.78125 48.09375 
Q 58.015625 40.1875 58.015625 27.296875 
Q 58.015625 14.40625 51.78125 6.484375 
Q 45.5625 -1.421875 35.59375 -1.421875 
Q 29.59375 -1.421875 25.265625 0.953125 
Q 20.953125 3.328125 18.109375 8.203125 
L 18.109375 0 
L 9.078125 0 
L 9.078125 75.984375 
L 18.109375 75.984375 
z
" id="DejaVuSans-98"/>
     </defs>
     <g transform="translate(7.017187 202.575312)rotate(-90)scale(0.1 -0.1)">
      <use xlink:href="#DejaVuSans-67"/>
      <use x="69.824219" xlink:href="#DejaVuSans-117"/>
      <use x="133.203125" xlink:href="#DejaVuSans-109"/>
      <use x="230.615234" xlink:href="#DejaVuSans-117"/>
      <use x="293.994141" xlink:href="#DejaVuSans-108"/>
      <use x="321.777344" xlink:href="#DejaVuSans-97"/>
      <use x="383.056641" xlink:href="#DejaVuSans-116"/>
      <use x="422.265625" xlink:href="#DejaVuSans-105"/>
      <use x="450.048828" xlink:href="#DejaVuSans-118"/>
      <use x="509.228516" xlink:href="#DejaVuSans-101"/>
      <use x="570.751953" xlink:href="#DejaVuSans-32"/>
      <use x="602.539062" xlink:href="#DejaVuSans-68"/>
      <use x="679.541016" xlink:href="#DejaVuSans-105"/>
      <use x="707.324219" xlink:href="#DejaVuSans-115"/>
      <use x="759.423828" xlink:href="#DejaVuSans-116"/>
      <use x="798.632812" xlink:href="#DejaVuSans-114"/>
      <use x="839.746094" xlink:href="#DejaVuSans-105"/>
      <use x="867.529297" xlink:href="#DejaVuSans-98"/>
      <use x="931.005859" xlink:href="#DejaVuSans-117"/>
      <use x="994.384766" xlink:href="#DejaVuSans-116"/>
      <use x="1033.59375" xlink:href="#DejaVuSans-105"/>
      <use x="1061.376953" xlink:href="#DejaVuSans-111"/>
      <use x="1122.558594" xlink:href="#DejaVuSans-110"/>
     </g>
    </g>
   </g>
   <g id="line2d_11">
    <path clip-path="url(#pcf3336bb94)" d="M 78.575141 242.116364 
L 87.624704 241.918493 
L 87.980015 241.720622 
L 92.733154 241.324881 
L 93.919671 240.92914 
L 94.388931 240.731269 
L 95.590296 240.533399 
L 95.856876 240.335528 
L 96.658756 240.137658 
L 97.053079 239.544046 
L 100.19665 238.158952 
L 100.337754 237.76321 
L 102.863768 237.367469 
L 103.955022 236.971728 
L 104.018625 236.773857 
L 104.263903 236.575987 
L 104.315224 236.180246 
L 105.124243 235.586634 
L 106.875438 235.388763 
L 107.498752 235.190893 
L 107.65553 234.993022 
L 108.431975 234.795152 
L 108.970851 234.20154 
L 109.647592 234.003669 
L 109.66424 233.805799 
L 110.134078 233.607928 
L 110.253541 233.410057 
L 110.607924 233.212187 
L 110.724555 233.014316 
L 111.029718 232.816446 
L 111.142453 232.420704 
L 111.162943 232.222834 
L 111.487359 232.024963 
L 111.503063 231.827093 
L 111.709595 231.431351 
L 112.46189 231.233481 
L 112.582073 230.83774 
L 113.299551 230.244128 
L 113.438926 229.848387 
L 113.562898 229.452645 
L 114.122569 229.254775 
L 114.154837 229.056904 
L 114.551389 228.661163 
L 114.632445 228.463292 
L 115.981957 227.869681 
L 116.35743 227.078198 
L 117.168541 226.682457 
L 117.695912 226.286716 
L 117.85405 226.088845 
L 118.20368 225.890975 
L 119.025901 225.693104 
L 119.2744 225.495233 
L 119.27996 225.099492 
L 120.393873 224.703751 
L 120.477728 224.30801 
L 120.785802 223.912269 
L 121.498742 223.120786 
L 122.02379 222.922916 
L 122.087219 222.725045 
L 122.489998 222.527174 
L 122.524518 222.329304 
L 122.805517 221.933563 
L 122.929407 221.537821 
L 123.008735 221.14208 
L 123.47578 220.94421 
L 123.528809 220.350598 
L 123.769576 219.954857 
L 123.900835 219.559115 
L 123.917745 219.361245 
L 124.454377 219.163374 
L 124.488532 218.965504 
L 124.72253 218.767633 
L 124.860848 218.371892 
L 125.033939 217.58041 
L 125.520721 217.184668 
L 125.689277 216.788927 
L 126.334935 215.997445 
L 126.555677 215.601704 
L 126.667316 215.403833 
L 127.202429 215.008092 
L 127.293761 214.41448 
L 127.434575 214.018739 
L 128.282591 212.831515 
L 128.374187 212.633645 
L 128.807152 212.435774 
L 128.863156 211.842162 
L 129.552363 211.644292 
L 129.661139 211.24855 
L 130.895246 210.654939 
L 131.064734 210.061327 
L 131.192043 209.665586 
L 131.560521 209.071974 
L 131.787475 208.874103 
L 131.797074 208.676233 
L 132.134176 208.280491 
L 132.162261 208.082621 
L 132.311856 207.88475 
L 132.323447 207.489009 
L 132.52839 207.093268 
L 132.629549 206.103915 
L 132.686071 205.906044 
L 133.270597 205.510303 
L 133.643524 204.916691 
L 134.13519 203.531597 
L 134.420507 202.937985 
L 134.4622 202.740115 
L 134.693649 202.542244 
L 134.815783 201.750762 
L 135.025331 201.552891 
L 135.155526 200.563538 
L 135.224452 200.365667 
L 135.470964 199.969926 
L 135.55444 199.574185 
L 135.932514 199.376314 
L 135.935991 199.178444 
L 137.152856 197.397609 
L 137.722156 197.199738 
L 137.858844 196.606126 
L 138.027806 196.210385 
L 138.221932 195.418903 
L 138.574529 195.023161 
L 138.795467 194.42955 
L 138.922212 193.835938 
L 139.559397 192.055102 
L 139.979912 191.857232 
L 140.182302 191.065749 
L 140.395904 190.867879 
L 140.454669 190.274267 
L 140.815334 190.076396 
L 140.888256 189.680655 
L 141.509357 188.493432 
L 141.644668 187.89982 
L 141.714079 187.504079 
L 141.874143 187.108337 
L 142.113423 186.514726 
L 142.501134 185.921114 
L 142.770259 185.525373 
L 143.8898 182.359443 
L 144.085032 181.963702 
L 144.15222 181.567961 
L 144.31711 181.172219 
L 144.326749 180.974349 
L 145.226713 180.182867 
L 145.582188 178.995643 
L 145.667033 178.599902 
L 145.856442 178.204161 
L 145.923115 178.00629 
L 146.658316 177.808419 
L 146.722706 177.610549 
L 147.180258 177.214808 
L 147.566416 177.016937 
L 147.590175 176.819066 
L 148.225076 176.225455 
L 148.574236 174.84036 
L 148.890455 174.64249 
L 148.904946 174.444619 
L 149.167558 174.048878 
L 149.626692 173.257396 
L 150.230794 173.059525 
L 150.240245 172.861654 
L 150.472755 172.465913 
L 150.583405 171.872301 
L 150.990392 170.289337 
L 151.384939 169.893595 
L 151.97615 168.706372 
L 152.120351 167.914889 
L 152.256576 167.321278 
L 152.620847 166.727666 
L 152.786053 166.134054 
L 152.995641 165.936183 
L 153.14382 165.144701 
L 153.543965 164.74896 
L 153.558878 164.551089 
L 153.806749 164.353219 
L 153.919055 163.957477 
L 154.085327 163.759607 
L 154.131767 163.165995 
L 154.397892 162.968124 
L 154.399067 162.770254 
L 155.089637 161.780901 
L 155.370102 160.791548 
L 155.605548 160.000066 
L 155.735353 159.010713 
L 156.346711 158.812842 
L 156.721281 158.21923 
L 156.838095 157.427748 
L 156.988214 157.032007 
L 157.103105 156.240524 
L 157.323199 155.844783 
L 157.509771 155.449042 
L 157.679757 155.053301 
L 157.867501 154.459689 
L 158.27067 153.866077 
L 158.29312 153.470336 
L 158.969848 152.876724 
L 159.082407 152.678853 
L 159.349262 152.480983 
L 159.35702 152.283112 
L 159.650258 152.085242 
L 159.756995 151.6895 
L 159.928676 151.293759 
L 160.256561 150.502277 
L 160.271421 150.304406 
L 160.551033 150.106536 
L 160.612988 149.908665 
L 160.84414 149.710794 
L 161.031252 149.117183 
L 161.151706 148.721441 
L 161.299676 148.12783 
L 161.625916 146.940606 
L 161.675731 146.346994 
L 162.280185 144.9619 
L 162.607979 144.764029 
L 162.791844 143.774676 
L 163.156872 142.983194 
L 163.407897 142.785324 
L 163.627616 142.389582 
L 164.155499 142.191712 
L 164.324916 141.795971 
L 165.007418 141.400229 
L 165.161714 141.004488 
L 165.196318 140.806618 
L 165.362471 140.608747 
L 165.442386 140.015135 
L 165.755526 139.223653 
L 165.775944 138.827912 
L 166.053147 138.43217 
L 166.567275 136.651335 
L 166.690299 136.453464 
L 167.385479 136.255594 
L 167.751381 135.464111 
L 168.059659 134.8705 
L 168.191163 134.276888 
L 168.191409 134.079017 
L 168.486362 133.881147 
L 168.628563 133.287535 
L 169.149655 132.298182 
L 169.808832 131.902441 
L 169.883822 131.506699 
L 170.288557 130.517346 
L 170.654277 130.319476 
L 170.739479 129.923735 
L 170.998274 129.725864 
L 171.017435 129.527993 
L 171.315724 128.934382 
L 171.508389 128.142899 
L 171.698642 127.945029 
L 171.741795 127.549287 
L 171.873454 127.153546 
L 172.061957 126.559934 
L 172.294008 125.768452 
L 172.765478 125.372711 
L 172.948304 124.581229 
L 173.064568 123.987617 
L 173.185411 123.591876 
L 173.630828 122.404652 
L 174.177073 122.008911 
L 174.476861 121.61317 
L 174.603261 121.217428 
L 174.919741 120.623817 
L 175.134754 120.228075 
L 175.390385 120.030205 
L 176.374753 117.062146 
L 177.185566 116.468534 
L 177.456103 116.072793 
L 177.557961 115.677052 
L 177.670767 115.08344 
L 178.393543 114.885569 
L 178.454757 114.489828 
L 179.259117 113.104734 
L 179.465157 112.708993 
L 179.608972 111.71964 
L 179.859497 111.521769 
L 179.926597 111.126028 
L 180.556114 110.334545 
L 180.64992 109.938804 
L 180.698075 109.740934 
L 181.012737 109.543063 
L 181.065578 109.345192 
L 181.330385 108.949451 
L 182.179895 106.970745 
L 182.205201 106.772875 
L 182.409531 106.377133 
L 182.614384 105.585651 
L 182.751764 105.18991 
L 183.030979 104.794169 
L 183.379457 104.002686 
L 183.529466 103.606945 
L 183.832732 103.211204 
L 183.833979 103.013333 
L 184.731006 101.82611 
L 185.337981 101.430369 
L 185.402145 101.034627 
L 185.828817 100.638886 
L 185.968369 100.441016 
L 186.248051 100.243145 
L 186.25457 100.045274 
L 186.510089 99.649533 
L 186.518589 99.451663 
L 186.697751 99.055921 
L 186.796952 98.66018 
L 186.988483 98.264439 
L 186.996759 98.066568 
L 187.152886 97.868698 
L 187.495518 97.670827 
L 187.603451 97.275086 
L 187.939158 96.879345 
L 188.170829 96.087862 
L 188.390164 95.692121 
L 188.445645 95.29638 
L 188.923741 94.307027 
L 189.056654 93.713415 
L 189.281615 93.317674 
L 190.089259 91.141097 
L 190.507498 90.943227 
L 190.51025 90.745356 
L 190.788113 90.547486 
L 190.790668 90.349615 
L 191.083356 89.756003 
L 191.088592 89.558133 
L 191.285869 89.162391 
L 191.669505 88.173038 
L 191.816547 87.975168 
L 191.825133 87.777297 
L 192.072072 87.579427 
L 192.260608 86.787944 
L 192.72877 86.392203 
L 193.438946 86.194333 
L 193.494306 85.600721 
L 194.211551 85.40285 
L 194.263683 85.20498 
L 194.627474 84.809238 
L 194.645241 84.611368 
L 195.108791 84.215627 
L 195.301879 83.819885 
L 195.611756 83.424144 
L 195.859165 83.028403 
L 196.048542 82.830532 
L 196.054124 82.632662 
L 196.416947 82.434791 
L 196.876283 81.247568 
L 197.224042 80.851826 
L 197.463778 79.862473 
L 197.615763 79.268862 
L 197.991804 78.87312 
L 198.181085 78.279509 
L 198.77165 77.685897 
L 199.328513 76.300803 
L 199.57033 75.905061 
L 199.799771 75.50932 
L 200.267169 74.915708 
L 200.318579 74.717838 
L 200.606668 74.519967 
L 200.831727 74.124226 
L 201.080927 73.728485 
L 201.773801 73.530614 
L 201.959703 73.134873 
L 203.034203 72.739132 
L 203.436622 72.343391 
L 203.581598 71.749779 
L 203.811617 71.156167 
L 203.828155 70.958296 
L 204.203048 70.760426 
L 204.360063 70.364685 
L 204.821678 69.968943 
L 205.189915 68.78172 
L 205.196138 68.583849 
L 206.579391 68.385979 
L 207.275822 67.594496 
L 207.817406 67.396626 
L 208.650312 66.605143 
L 209.004319 66.407273 
L 210.18444 66.209402 
L 210.585652 66.011532 
L 210.901894 65.61579 
L 211.290416 65.41792 
L 211.352885 65.220049 
L 211.952136 64.824308 
L 212.175303 64.230696 
L 212.784789 63.637084 
L 212.811095 63.439214 
L 213.044751 63.241343 
L 213.511869 63.043473 
L 213.751969 62.647731 
L 213.774348 62.449861 
L 214.54896 62.25199 
L 214.604921 62.05412 
L 216.278464 60.866896 
L 216.473384 60.669025 
L 216.517495 60.273284 
L 217.838118 60.075414 
L 218.378513 59.877543 
L 218.954125 58.294578 
L 219.624119 58.096708 
L 220.281718 57.107355 
L 220.366453 56.513743 
L 220.998697 56.118002 
L 221.331307 55.52439 
L 221.34156 55.326519 
L 221.705439 55.128649 
L 221.827873 54.930778 
L 222.892488 54.732907 
L 223.20769 54.535037 
L 224.41303 54.337166 
L 225.076817 53.743554 
L 225.157142 53.545684 
L 225.380223 53.347813 
L 227.709044 52.754201 
L 227.798623 52.35846 
L 230.030425 51.171237 
L 230.040156 50.973366 
L 230.467234 50.775495 
L 230.553455 50.577625 
L 231.917803 50.181884 
L 232.140543 49.192531 
L 232.392767 48.99466 
L 233.000818 48.79679 
L 233.794039 48.203178 
L 236.545419 47.807437 
L 236.632697 47.213825 
L 237.234713 46.818084 
L 240.016326 46.422342 
L 242.276821 45.432989 
L 242.802852 45.037248 
L 244.650952 44.839378 
L 244.83924 44.641507 
L 249.054545 44.443636 
L 249.054545 44.443636 
" style="fill:none;stroke:#ff0000;stroke-linecap:square;"/>
   </g>
   <g id="line2d_12">
    <path clip-path="url(#pcf3336bb94)" d="M 103.528913 262.861128 
L 103.528913 23.916312 
" style="fill:none;stroke:#0000ff;stroke-dasharray:3.7,1.6;stroke-dashoffset:0;"/>
   </g>
   <g id="line2d_13">
    <path clip-path="url(#pcf3336bb94)" d="M 232.140543 262.861128 
L 232.140543 23.916312 
" style="fill:none;stroke:#0000ff;stroke-dasharray:3.7,1.6;stroke-dashoffset:0;"/>
   </g>
   <g id="line2d_14">
    <path clip-path="url(#pcf3336bb94)" d="M 172.231541 262.861128 
L 172.231541 23.916312 
" style="fill:none;stroke:#008000;stroke-linecap:square;"/>
   </g>
   <g id="line2d_15">
    <path clip-path="url(#pcf3336bb94)" d="M 46.145455 262.861128 
L 46.145455 23.916312 
" style="fill:none;stroke:#000000;stroke-linecap:square;"/>
   </g>
   <g id="patch_3">
    <path d="M 36 252 
L 36 34.56 
" style="fill:none;stroke:#000000;stroke-linecap:square;stroke-linejoin:miter;stroke-width:0.8;"/>
   </g>
   <g id="patch_4">
    <path d="M 259.2 252 
L 259.2 34.56 
" style="fill:none;stroke:#000000;stroke-linecap:square;stroke-linejoin:miter;stroke-width:0.8;"/>
   </g>
   <g id="patch_5">
    <path d="M 36 252 
L 259.2 252 
" style="fill:none;stroke:#000000;stroke-linecap:square;stroke-linejoin:miter;stroke-width:0.8;"/>
   </g>
   <g id="patch_6">
    <path d="M 36 34.56 
L 259.2 34.56 
" style="fill:none;stroke:#000000;stroke-linecap:square;stroke-linejoin:miter;stroke-width:0.8;"/>
   </g>
   <g id="text_13">
    <!--    50.5 [   36.6,    62.7] -->
    <defs>
     <path d="M 8.59375 75.984375 
L 29.296875 75.984375 
L 29.296875 69 
L 17.578125 69 
L 17.578125 -6.203125 
L 29.296875 -6.203125 
L 29.296875 -13.1875 
L 8.59375 -13.1875 
z
" id="DejaVuSans-91"/>
     <path d="M 11.71875 12.40625 
L 22.015625 12.40625 
L 22.015625 4 
L 14.015625 -11.625 
L 7.71875 -11.625 
L 11.71875 4 
z
" id="DejaVuSans-44"/>
     <path d="M 8.203125 72.90625 
L 55.078125 72.90625 
L 55.078125 68.703125 
L 28.609375 0 
L 18.3125 0 
L 43.21875 64.59375 
L 8.203125 64.59375 
z
" id="DejaVuSans-55"/>
     <path d="M 30.421875 75.984375 
L 30.421875 -13.1875 
L 9.71875 -13.1875 
L 9.71875 -6.203125 
L 21.390625 -6.203125 
L 21.390625 69 
L 9.71875 69 
L 9.71875 75.984375 
z
" id="DejaVuSans-93"/>
    </defs>
    <g transform="translate(79.9575 28.56)scale(0.12 -0.12)">
     <use xlink:href="#DejaVuSans-32"/>
     <use x="31.787109" xlink:href="#DejaVuSans-32"/>
     <use x="63.574219" xlink:href="#DejaVuSans-32"/>
     <use x="95.361328" xlink:href="#DejaVuSans-53"/>
     <use x="158.984375" xlink:href="#DejaVuSans-48"/>
     <use x="222.607422" xlink:href="#DejaVuSans-46"/>
     <use x="254.394531" xlink:href="#DejaVuSans-53"/>
     <use x="318.017578" xlink:href="#DejaVuSans-32"/>
     <use x="349.804688" xlink:href="#DejaVuSans-91"/>
     <use x="388.818359" xlink:href="#DejaVuSans-32"/>
     <use x="420.605469" xlink:href="#DejaVuSans-32"/>
     <use x="452.392578" xlink:href="#DejaVuSans-32"/>
     <use x="484.179688" xlink:href="#DejaVuSans-51"/>
     <use x="547.802734" xlink:href="#DejaVuSans-54"/>
     <use x="611.425781" xlink:href="#DejaVuSans-46"/>
     <use x="643.212891" xlink:href="#DejaVuSans-54"/>
     <use x="706.835938" xlink:href="#DejaVuSans-44"/>
     <use x="738.623047" xlink:href="#DejaVuSans-32"/>
     <use x="770.410156" xlink:href="#DejaVuSans-32"/>
     <use x="802.197266" xlink:href="#DejaVuSans-32"/>
     <use x="833.984375" xlink:href="#DejaVuSans-32"/>
     <use x="865.771484" xlink:href="#DejaVuSans-54"/>
     <use x="929.394531" xlink:href="#DejaVuSans-50"/>
     <use x="993.017578" xlink:href="#DejaVuSans-46"/>
     <use x="1024.804688" xlink:href="#DejaVuSans-55"/>
     <use x="1088.427734" xlink:href="#DejaVuSans-93"/>
    </g>
   </g>
  </g>
 </g>
 <defs>
  <clipPath id="pcf3336bb94">
   <rect height="217.44" width="223.2" x="36" y="34.56"/>
  </clipPath>
 </defs>
</svg>
