<?xml version="1.0" encoding="utf-8" standalone="no"?>
<!DOCTYPE svg PUBLIC "-//W3C//DTD SVG 1.1//EN"
  "http://www.w3.org/Graphics/SVG/1.1/DTD/svg11.dtd">
<!-- Created with matplotlib (https://matplotlib.org/) -->
<svg height="288pt" version="1.1" viewBox="0 0 288 288" width="288pt" xmlns="http://www.w3.org/2000/svg" xmlns:xlink="http://www.w3.org/1999/xlink">
 <metadata>
  <rdf:RDF xmlns:cc="http://creativecommons.org/ns#" xmlns:dc="http://purl.org/dc/elements/1.1/" xmlns:rdf="http://www.w3.org/1999/02/22-rdf-syntax-ns#">
   <cc:Work>
    <dc:type rdf:resource="http://purl.org/dc/dcmitype/StillImage"/>
    <dc:date>2021-02-02T17:47:29.893114</dc:date>
    <dc:format>image/svg+xml</dc:format>
    <dc:creator>
     <cc:Agent>
      <dc:title>Matplotlib v3.3.2, https://matplotlib.org/</dc:title>
     </cc:Agent>
    </dc:creator>
   </cc:Work>
  </rdf:RDF>
 </metadata>
 <defs>
  <style type="text/css">*{stroke-linecap:butt;stroke-linejoin:round;}</style>
 </defs>
 <g id="figure_1">
  <g id="patch_1">
   <path d="M 0 288 
L 288 288 
L 288 0 
L 0 0 
z
" style="fill:none;"/>
  </g>
  <g id="axes_1">
   <g id="PathCollection_1">
    <defs>
     <path d="M 0 2.236068 
C 0.593012 2.236068 1.161816 2.000462 1.581139 1.581139 
C 2.000462 1.161816 2.236068 0.593012 2.236068 -0 
C 2.236068 -0.593012 2.000462 -1.161816 1.581139 -1.581139 
C 1.161816 -2.000462 0.593012 -2.236068 0 -2.236068 
C -0.593012 -2.236068 -1.161816 -2.000462 -1.581139 -1.581139 
C -2.000462 -1.161816 -2.236068 -0.593012 -2.236068 0 
C -2.236068 0.593012 -2.000462 1.161816 -1.581139 1.581139 
C -1.161816 2.000462 -0.593012 2.236068 0 2.236068 
z
" id="C0_0_c4651f4f31"/>
    </defs>
    <g clip-path="url(#p98dcaceabc)">
     <use style="stroke:#000000;" x="71.543748" xlink:href="#C0_0_c4651f4f31" y="126.738486"/>
    </g>
    <g clip-path="url(#p98dcaceabc)">
     <use style="stroke:#000000;" x="86.984722" xlink:href="#C0_0_c4651f4f31" y="128.616097"/>
    </g>
    <g clip-path="url(#p98dcaceabc)">
     <use style="stroke:#000000;" x="80.642719" xlink:href="#C0_0_c4651f4f31" y="144.22116"/>
    </g>
    <g clip-path="url(#p98dcaceabc)">
     <use style="stroke:#000000;" x="68.68694" xlink:href="#C0_0_c4651f4f31" y="151.782848"/>
    </g>
    <g clip-path="url(#p98dcaceabc)">
     <use style="stroke:#000000;" x="50.141445" xlink:href="#C0_0_c4651f4f31" y="127.450204"/>
    </g>
    <g clip-path="url(#p98dcaceabc)">
     <use style="stroke:#000000;" x="97.736694" xlink:href="#C0_0_c4651f4f31" y="115.4272"/>
    </g>
    <g clip-path="url(#p98dcaceabc)">
     <use style="stroke:#000000;" x="83.207747" xlink:href="#C0_0_c4651f4f31" y="125.065322"/>
    </g>
    <g clip-path="url(#p98dcaceabc)">
     <use style="stroke:#000000;" x="84.732448" xlink:href="#C0_0_c4651f4f31" y="121.604658"/>
    </g>
    <g clip-path="url(#p98dcaceabc)">
     <use style="stroke:#000000;" x="102.016504" xlink:href="#C0_0_c4651f4f31" y="120.053036"/>
    </g>
    <g clip-path="url(#p98dcaceabc)">
     <use style="stroke:#000000;" x="89.806116" xlink:href="#C0_0_c4651f4f31" y="111.179017"/>
    </g>
    <g clip-path="url(#p98dcaceabc)">
     <use style="stroke:#000000;" x="79.274669" xlink:href="#C0_0_c4651f4f31" y="79.50021"/>
    </g>
    <g clip-path="url(#p98dcaceabc)">
     <use style="stroke:#000000;" x="92.949512" xlink:href="#C0_0_c4651f4f31" y="111.976089"/>
    </g>
    <g clip-path="url(#p98dcaceabc)">
     <use style="stroke:#000000;" x="92.877446" xlink:href="#C0_0_c4651f4f31" y="125.896554"/>
    </g>
    <g clip-path="url(#p98dcaceabc)">
     <use style="stroke:#000000;" x="91.11044" xlink:href="#C0_0_c4651f4f31" y="132.661461"/>
    </g>
    <g clip-path="url(#p98dcaceabc)">
     <use style="stroke:#000000;" x="69.23994" xlink:href="#C0_0_c4651f4f31" y="115.451909"/>
    </g>
    <g clip-path="url(#p98dcaceabc)">
     <use style="stroke:#000000;" x="74.063048" xlink:href="#C0_0_c4651f4f31" y="124.604767"/>
    </g>
    <g clip-path="url(#p98dcaceabc)">
     <use style="stroke:#000000;" x="105.103671" xlink:href="#C0_0_c4651f4f31" y="116.663202"/>
    </g>
    <g clip-path="url(#p98dcaceabc)">
     <use style="stroke:#000000;" x="90.186492" xlink:href="#C0_0_c4651f4f31" y="123.558166"/>
    </g>
    <g clip-path="url(#p98dcaceabc)">
     <use style="stroke:#000000;" x="80.905394" xlink:href="#C0_0_c4651f4f31" y="124.950615"/>
    </g>
    <g clip-path="url(#p98dcaceabc)">
     <use style="stroke:#000000;" x="29.55086" xlink:href="#C0_0_c4651f4f31" y="151.601703"/>
    </g>
    <g clip-path="url(#p98dcaceabc)">
     <use style="stroke:#000000;" x="96.137454" xlink:href="#C0_0_c4651f4f31" y="137.273358"/>
    </g>
    <g clip-path="url(#p98dcaceabc)">
     <use style="stroke:#000000;" x="85.552422" xlink:href="#C0_0_c4651f4f31" y="139.707878"/>
    </g>
    <g clip-path="url(#p98dcaceabc)">
     <use style="stroke:#000000;" x="51.832932" xlink:href="#C0_0_c4651f4f31" y="133.661807"/>
    </g>
    <g clip-path="url(#p98dcaceabc)">
     <use style="stroke:#000000;" x="68.811122" xlink:href="#C0_0_c4651f4f31" y="96.651037"/>
    </g>
    <g clip-path="url(#p98dcaceabc)">
     <use style="stroke:#000000;" x="76.404408" xlink:href="#C0_0_c4651f4f31" y="118.052483"/>
    </g>
    <g clip-path="url(#p98dcaceabc)">
     <use style="stroke:#000000;" x="72.931754" xlink:href="#C0_0_c4651f4f31" y="125.488109"/>
    </g>
    <g clip-path="url(#p98dcaceabc)">
     <use style="stroke:#000000;" x="61.021232" xlink:href="#C0_0_c4651f4f31" y="120.049409"/>
    </g>
    <g clip-path="url(#p98dcaceabc)">
     <use style="stroke:#000000;" x="65.75596" xlink:href="#C0_0_c4651f4f31" y="117.515854"/>
    </g>
    <g clip-path="url(#p98dcaceabc)">
     <use style="stroke:#000000;" x="63.543704" xlink:href="#C0_0_c4651f4f31" y="139.642643"/>
    </g>
    <g clip-path="url(#p98dcaceabc)">
     <use style="stroke:#000000;" x="75.459626" xlink:href="#C0_0_c4651f4f31" y="126.656619"/>
    </g>
    <g clip-path="url(#p98dcaceabc)">
     <use style="stroke:#000000;" x="63.48674" xlink:href="#C0_0_c4651f4f31" y="117.216803"/>
    </g>
    <g clip-path="url(#p98dcaceabc)">
     <use style="stroke:#000000;" x="37.155461" xlink:href="#C0_0_c4651f4f31" y="119.921543"/>
    </g>
    <g clip-path="url(#p98dcaceabc)">
     <use style="stroke:#000000;" x="59.538532" xlink:href="#C0_0_c4651f4f31" y="121.841949"/>
    </g>
    <g clip-path="url(#p98dcaceabc)">
     <use style="stroke:#000000;" x="64.618645" xlink:href="#C0_0_c4651f4f31" y="120.486171"/>
    </g>
    <g clip-path="url(#p98dcaceabc)">
     <use style="stroke:#000000;" x="45.273446" xlink:href="#C0_0_c4651f4f31" y="120.480017"/>
    </g>
    <g clip-path="url(#p98dcaceabc)">
     <use style="stroke:#000000;" x="56.815901" xlink:href="#C0_0_c4651f4f31" y="106.992545"/>
    </g>
    <g clip-path="url(#p98dcaceabc)">
     <use style="stroke:#000000;" x="59.190677" xlink:href="#C0_0_c4651f4f31" y="146.66524"/>
    </g>
    <g clip-path="url(#p98dcaceabc)">
     <use style="stroke:#000000;" x="52.997724" xlink:href="#C0_0_c4651f4f31" y="102.335905"/>
    </g>
    <g clip-path="url(#p98dcaceabc)">
     <use style="stroke:#000000;" x="62.651083" xlink:href="#C0_0_c4651f4f31" y="94.344409"/>
    </g>
    <g clip-path="url(#p98dcaceabc)">
     <use style="stroke:#000000;" x="87.09351" xlink:href="#C0_0_c4651f4f31" y="128.218434"/>
    </g>
    <g clip-path="url(#p98dcaceabc)">
     <use style="stroke:#000000;" x="81.963511" xlink:href="#C0_0_c4651f4f31" y="101.52273"/>
    </g>
    <g clip-path="url(#p98dcaceabc)">
     <use style="stroke:#000000;" x="59.35248" xlink:href="#C0_0_c4651f4f31" y="155.444794"/>
    </g>
    <g clip-path="url(#p98dcaceabc)">
     <use style="stroke:#000000;" x="66.397308" xlink:href="#C0_0_c4651f4f31" y="179.693251"/>
    </g>
    <g clip-path="url(#p98dcaceabc)">
     <use style="stroke:#000000;" x="39.185858" xlink:href="#C0_0_c4651f4f31" y="166.087804"/>
    </g>
    <g clip-path="url(#p98dcaceabc)">
     <use style="stroke:#000000;" x="61.132541" xlink:href="#C0_0_c4651f4f31" y="118.348236"/>
    </g>
    <g clip-path="url(#p98dcaceabc)">
     <use style="stroke:#000000;" x="89.986905" xlink:href="#C0_0_c4651f4f31" y="109.986139"/>
    </g>
    <g clip-path="url(#p98dcaceabc)">
     <use style="stroke:#000000;" x="85.21861" xlink:href="#C0_0_c4651f4f31" y="127.033624"/>
    </g>
    <g clip-path="url(#p98dcaceabc)">
     <use style="stroke:#000000;" x="103.627775" xlink:href="#C0_0_c4651f4f31" y="119.645917"/>
    </g>
    <g clip-path="url(#p98dcaceabc)">
     <use style="stroke:#000000;" x="103.179745" xlink:href="#C0_0_c4651f4f31" y="156.948948"/>
    </g>
    <g clip-path="url(#p98dcaceabc)">
     <use style="stroke:#000000;" x="89.99604" xlink:href="#C0_0_c4651f4f31" y="134.671896"/>
    </g>
    <g clip-path="url(#p98dcaceabc)">
     <use style="stroke:#000000;" x="80.272495" xlink:href="#C0_0_c4651f4f31" y="126.566127"/>
    </g>
    <g clip-path="url(#p98dcaceabc)">
     <use style="stroke:#000000;" x="92.659686" xlink:href="#C0_0_c4651f4f31" y="119.291576"/>
    </g>
    <g clip-path="url(#p98dcaceabc)">
     <use style="stroke:#000000;" x="82.278707" xlink:href="#C0_0_c4651f4f31" y="125.951431"/>
    </g>
    <g clip-path="url(#p98dcaceabc)">
     <use style="stroke:#000000;" x="105.463798" xlink:href="#C0_0_c4651f4f31" y="125.037838"/>
    </g>
    <g clip-path="url(#p98dcaceabc)">
     <use style="stroke:#000000;" x="86.025961" xlink:href="#C0_0_c4651f4f31" y="146.024498"/>
    </g>
    <g clip-path="url(#p98dcaceabc)">
     <use style="stroke:#000000;" x="77.244873" xlink:href="#C0_0_c4651f4f31" y="119.703121"/>
    </g>
    <g clip-path="url(#p98dcaceabc)">
     <use style="stroke:#000000;" x="74.723421" xlink:href="#C0_0_c4651f4f31" y="135.002543"/>
    </g>
    <g clip-path="url(#p98dcaceabc)">
     <use style="stroke:#000000;" x="82.286994" xlink:href="#C0_0_c4651f4f31" y="127.694721"/>
    </g>
    <g clip-path="url(#p98dcaceabc)">
     <use style="stroke:#000000;" x="79.363347" xlink:href="#C0_0_c4651f4f31" y="133.87817"/>
    </g>
    <g clip-path="url(#p98dcaceabc)">
     <use style="stroke:#000000;" x="81.493692" xlink:href="#C0_0_c4651f4f31" y="134.65837"/>
    </g>
    <g clip-path="url(#p98dcaceabc)">
     <use style="stroke:#000000;" x="87.230453" xlink:href="#C0_0_c4651f4f31" y="122.887595"/>
    </g>
    <g clip-path="url(#p98dcaceabc)">
     <use style="stroke:#000000;" x="62.883612" xlink:href="#C0_0_c4651f4f31" y="129.404858"/>
    </g>
    <g clip-path="url(#p98dcaceabc)">
     <use style="stroke:#000000;" x="69.089535" xlink:href="#C0_0_c4651f4f31" y="122.802475"/>
    </g>
    <g clip-path="url(#p98dcaceabc)">
     <use style="stroke:#000000;" x="46.485548" xlink:href="#C0_0_c4651f4f31" y="154.59346"/>
    </g>
    <g clip-path="url(#p98dcaceabc)">
     <use style="stroke:#000000;" x="87.208659" xlink:href="#C0_0_c4651f4f31" y="118.476959"/>
    </g>
    <g clip-path="url(#p98dcaceabc)">
     <use style="stroke:#000000;" x="85.718119" xlink:href="#C0_0_c4651f4f31" y="122.093281"/>
    </g>
    <g clip-path="url(#p98dcaceabc)">
     <use style="stroke:#000000;" x="95.165385" xlink:href="#C0_0_c4651f4f31" y="121.744784"/>
    </g>
    <g clip-path="url(#p98dcaceabc)">
     <use style="stroke:#000000;" x="82.3573" xlink:href="#C0_0_c4651f4f31" y="133.241627"/>
    </g>
    <g clip-path="url(#p98dcaceabc)">
     <use style="stroke:#000000;" x="94.068951" xlink:href="#C0_0_c4651f4f31" y="131.643315"/>
    </g>
    <g clip-path="url(#p98dcaceabc)">
     <use style="stroke:#000000;" x="106.660329" xlink:href="#C0_0_c4651f4f31" y="127.996197"/>
    </g>
    <g clip-path="url(#p98dcaceabc)">
     <use style="stroke:#000000;" x="88.423527" xlink:href="#C0_0_c4651f4f31" y="125.404372"/>
    </g>
    <g clip-path="url(#p98dcaceabc)">
     <use style="stroke:#000000;" x="69.497923" xlink:href="#C0_0_c4651f4f31" y="136.95748"/>
    </g>
    <g clip-path="url(#p98dcaceabc)">
     <use style="stroke:#000000;" x="77.459928" xlink:href="#C0_0_c4651f4f31" y="115.892373"/>
    </g>
    <g clip-path="url(#p98dcaceabc)">
     <use style="stroke:#000000;" x="87.629623" xlink:href="#C0_0_c4651f4f31" y="125.901452"/>
    </g>
    <g clip-path="url(#p98dcaceabc)">
     <use style="stroke:#000000;" x="96.30042" xlink:href="#C0_0_c4651f4f31" y="140.831797"/>
    </g>
    <g clip-path="url(#p98dcaceabc)">
     <use style="stroke:#000000;" x="69.166059" xlink:href="#C0_0_c4651f4f31" y="113.155675"/>
    </g>
    <g clip-path="url(#p98dcaceabc)">
     <use style="stroke:#000000;" x="86.442404" xlink:href="#C0_0_c4651f4f31" y="124.18133"/>
    </g>
    <g clip-path="url(#p98dcaceabc)">
     <use style="stroke:#000000;" x="82.43391" xlink:href="#C0_0_c4651f4f31" y="132.811545"/>
    </g>
    <g clip-path="url(#p98dcaceabc)">
     <use style="stroke:#000000;" x="64.64231" xlink:href="#C0_0_c4651f4f31" y="117.908519"/>
    </g>
    <g clip-path="url(#p98dcaceabc)">
     <use style="stroke:#000000;" x="89.639712" xlink:href="#C0_0_c4651f4f31" y="114.607502"/>
    </g>
    <g clip-path="url(#p98dcaceabc)">
     <use style="stroke:#000000;" x="80.49931" xlink:href="#C0_0_c4651f4f31" y="130.386632"/>
    </g>
   </g>
   <g id="line2d_1">
    <path clip-path="url(#p98dcaceabc)" d="M 144 20.41659 
L 148.312999 20.491874 
L 152.620743 20.717633 
L 156.917984 21.093593 
L 161.199486 21.619295 
L 165.460034 22.2941 
L 169.694436 23.117184 
L 173.897533 24.087545 
L 178.064204 25.204002 
L 182.189374 26.465192 
L 186.268016 27.869581 
L 190.29516 29.415457 
L 194.265901 31.100937 
L 198.175401 32.923967 
L 202.018897 34.882326 
L 205.791705 36.973627 
L 209.48923 39.195324 
L 213.106966 41.54471 
L 216.640506 44.018921 
L 220.085545 46.614944 
L 223.437885 49.329615 
L 226.693442 52.159628 
L 229.84825 55.101534 
L 232.898466 58.15175 
L 235.840372 61.306558 
L 238.670385 64.562115 
L 241.385056 67.914455 
L 243.981079 71.359494 
L 246.45529 74.893034 
L 248.804676 78.51077 
L 251.026373 82.208295 
L 253.117674 85.981103 
L 255.076033 89.824599 
L 256.899063 93.734099 
L 258.584543 97.70484 
L 260.130419 101.731984 
L 261.534808 105.810626 
L 262.795998 109.935796 
L 263.912455 114.102467 
L 264.882816 118.305564 
L 265.7059 122.539966 
L 266.380705 126.800514 
L 266.906407 131.082016 
L 267.282367 135.379257 
L 267.508126 139.687001 
L 267.58341 144 
L 267.508126 148.312999 
L 267.282367 152.620743 
L 266.906407 156.917984 
L 266.380705 161.199486 
L 265.7059 165.460034 
L 264.882816 169.694436 
L 263.912455 173.897533 
L 262.795998 178.064204 
L 261.534808 182.189374 
L 260.130419 186.268016 
L 258.584543 190.29516 
L 256.899063 194.265901 
L 255.076033 198.175401 
L 253.117674 202.018897 
L 251.026373 205.791705 
L 248.804676 209.48923 
L 246.45529 213.106966 
L 243.981079 216.640506 
L 241.385056 220.085545 
L 238.670385 223.437885 
L 235.840372 226.693442 
L 232.898466 229.84825 
L 229.84825 232.898466 
L 226.693442 235.840372 
L 223.437885 238.670385 
L 220.085545 241.385056 
L 216.640506 243.981079 
L 213.106966 246.45529 
L 209.48923 248.804676 
L 205.791705 251.026373 
L 202.018897 253.117674 
L 198.175401 255.076033 
L 194.265901 256.899063 
L 190.29516 258.584543 
L 186.268016 260.130419 
L 182.189374 261.534808 
L 178.064204 262.795998 
L 173.897533 263.912455 
L 169.694436 264.882816 
L 165.460034 265.7059 
L 161.199486 266.380705 
L 156.917984 266.906407 
L 152.620743 267.282367 
L 148.312999 267.508126 
L 144 267.58341 
L 139.687001 267.508126 
L 135.379257 267.282367 
L 131.082016 266.906407 
L 126.800514 266.380705 
L 122.539966 265.7059 
L 118.305564 264.882816 
L 114.102467 263.912455 
L 109.935796 262.795998 
L 105.810626 261.534808 
L 101.731984 260.130419 
L 97.70484 258.584543 
L 93.734099 256.899063 
L 89.824599 255.076033 
L 85.981103 253.117674 
L 82.208295 251.026373 
L 78.51077 248.804676 
L 74.893034 246.45529 
L 71.359494 243.981079 
L 67.914455 241.385056 
L 64.562115 238.670385 
L 61.306558 235.840372 
L 58.15175 232.898466 
L 55.101534 229.84825 
L 52.159628 226.693442 
L 49.329615 223.437885 
L 46.614944 220.085545 
L 44.018921 216.640506 
L 41.54471 213.106966 
L 39.195324 209.48923 
L 36.973627 205.791705 
L 34.882326 202.018897 
L 32.923967 198.175401 
L 31.100937 194.265901 
L 29.415457 190.29516 
L 27.869581 186.268016 
L 26.465192 182.189374 
L 25.204002 178.064204 
L 24.087545 173.897533 
L 23.117184 169.694436 
L 22.2941 165.460034 
L 21.619295 161.199486 
L 21.093593 156.917984 
L 20.717633 152.620743 
L 20.491874 148.312999 
L 20.41659 144 
L 20.491874 139.687001 
L 20.717633 135.379257 
L 21.093593 131.082016 
L 21.619295 126.800514 
L 22.2941 122.539966 
L 23.117184 118.305564 
L 24.087545 114.102467 
L 25.204002 109.935796 
L 26.465192 105.810626 
L 27.869581 101.731984 
L 29.415457 97.70484 
L 31.100937 93.734099 
L 32.923967 89.824599 
L 34.882326 85.981103 
L 36.973627 82.208295 
L 39.195324 78.51077 
L 41.54471 74.893034 
L 44.018921 71.359494 
L 46.614944 67.914455 
L 49.329615 64.562115 
L 52.159628 61.306558 
L 55.101534 58.15175 
L 58.15175 55.101534 
L 61.306558 52.159628 
L 64.562115 49.329615 
L 67.914455 46.614944 
L 71.359494 44.018921 
L 74.893034 41.54471 
L 78.51077 39.195324 
L 82.208295 36.973627 
L 85.981103 34.882326 
L 89.824599 32.923967 
L 93.734099 31.100937 
L 97.70484 29.415457 
L 101.731984 27.869581 
L 105.810626 26.465192 
L 109.935796 25.204002 
L 114.102467 24.087545 
L 118.305564 23.117184 
L 122.539966 22.2941 
L 126.800514 21.619295 
L 131.082016 21.093593 
L 135.379257 20.717633 
L 139.687001 20.491874 
L 144 20.41659 
L 144 20.41659 
" style="fill:none;stroke:#000000;stroke-linecap:square;stroke-width:1.5;"/>
   </g>
   <g id="line2d_2">
    <defs>
     <path d="M -3 0 
L 3 0 
M 0 3 
L 0 -3 
" id="mb270cc4591" style="stroke:#000000;"/>
    </defs>
    <g clip-path="url(#p98dcaceabc)">
     <use style="stroke:#000000;" x="144" xlink:href="#mb270cc4591" y="31.657866"/>
     <use style="stroke:#000000;" x="144" xlink:href="#mb270cc4591" y="43.754134"/>
     <use style="stroke:#000000;" x="144" xlink:href="#mb270cc4591" y="56.613333"/>
     <use style="stroke:#000000;" x="144" xlink:href="#mb270cc4591" y="70.137597"/>
     <use style="stroke:#000000;" x="144" xlink:href="#mb270cc4591" y="84.223999"/>
     <use style="stroke:#000000;" x="144" xlink:href="#mb270cc4591" y="98.765332"/>
     <use style="stroke:#000000;" x="144" xlink:href="#mb270cc4591" y="113.650929"/>
     <use style="stroke:#000000;" x="144" xlink:href="#mb270cc4591" y="128.7675"/>
     <use style="stroke:#000000;" x="144" xlink:href="#mb270cc4591" y="144"/>
    </g>
   </g>
   <g id="line2d_3">
    <g clip-path="url(#p98dcaceabc)">
     <use style="stroke:#000000;" x="256.342134" xlink:href="#mb270cc4591" y="144"/>
     <use style="stroke:#000000;" x="244.245866" xlink:href="#mb270cc4591" y="144"/>
     <use style="stroke:#000000;" x="231.386667" xlink:href="#mb270cc4591" y="144"/>
     <use style="stroke:#000000;" x="217.862403" xlink:href="#mb270cc4591" y="144"/>
     <use style="stroke:#000000;" x="203.776001" xlink:href="#mb270cc4591" y="144"/>
     <use style="stroke:#000000;" x="189.234668" xlink:href="#mb270cc4591" y="144"/>
     <use style="stroke:#000000;" x="174.349071" xlink:href="#mb270cc4591" y="144"/>
     <use style="stroke:#000000;" x="159.2325" xlink:href="#mb270cc4591" y="144"/>
    </g>
   </g>
   <g id="line2d_4">
    <g clip-path="url(#p98dcaceabc)">
     <use style="stroke:#000000;" x="144" xlink:href="#mb270cc4591" y="256.342134"/>
     <use style="stroke:#000000;" x="144" xlink:href="#mb270cc4591" y="244.245866"/>
     <use style="stroke:#000000;" x="144" xlink:href="#mb270cc4591" y="231.386667"/>
     <use style="stroke:#000000;" x="144" xlink:href="#mb270cc4591" y="217.862403"/>
     <use style="stroke:#000000;" x="144" xlink:href="#mb270cc4591" y="203.776001"/>
     <use style="stroke:#000000;" x="144" xlink:href="#mb270cc4591" y="189.234668"/>
     <use style="stroke:#000000;" x="144" xlink:href="#mb270cc4591" y="174.349071"/>
     <use style="stroke:#000000;" x="144" xlink:href="#mb270cc4591" y="159.2325"/>
    </g>
   </g>
   <g id="line2d_5">
    <g clip-path="url(#p98dcaceabc)">
     <use style="stroke:#000000;" x="31.657866" xlink:href="#mb270cc4591" y="144"/>
     <use style="stroke:#000000;" x="43.754134" xlink:href="#mb270cc4591" y="144"/>
     <use style="stroke:#000000;" x="56.613333" xlink:href="#mb270cc4591" y="144"/>
     <use style="stroke:#000000;" x="70.137597" xlink:href="#mb270cc4591" y="144"/>
     <use style="stroke:#000000;" x="84.223999" xlink:href="#mb270cc4591" y="144"/>
     <use style="stroke:#000000;" x="98.765332" xlink:href="#mb270cc4591" y="144"/>
     <use style="stroke:#000000;" x="113.650929" xlink:href="#mb270cc4591" y="144"/>
     <use style="stroke:#000000;" x="128.7675" xlink:href="#mb270cc4591" y="144"/>
    </g>
   </g>
   <g id="line2d_6">
    <path clip-path="url(#p98dcaceabc)" d="M 144 20.41659 
L 144 21.499751 
L 144 22.59224 
L 144 23.693975 
" style="fill:none;stroke:#000000;stroke-linecap:square;stroke-width:1.5;"/>
   </g>
   <g id="line2d_7">
    <path clip-path="url(#p98dcaceabc)" d="M 165.460034 22.2941 
L 165.271945 23.360805 
L 165.082236 24.436697 
L 164.890922 25.521694 
" style="fill:none;stroke:#000000;stroke-linecap:square;stroke-width:1.5;"/>
   </g>
   <g id="line2d_8">
    <path clip-path="url(#p98dcaceabc)" d="M 186.268016 27.869581 
L 185.897553 28.88742 
L 185.523899 29.914024 
L 185.147084 30.949316 
" style="fill:none;stroke:#000000;stroke-linecap:square;stroke-width:1.5;"/>
   </g>
   <g id="line2d_9">
    <path clip-path="url(#p98dcaceabc)" d="M 205.791705 36.973627 
L 205.250125 37.911672 
L 204.70388 38.857796 
L 204.153012 39.811926 
" style="fill:none;stroke:#000000;stroke-linecap:square;stroke-width:1.5;"/>
   </g>
   <g id="line2d_10">
    <path clip-path="url(#p98dcaceabc)" d="M 223.437885 49.329615 
L 222.741643 50.159365 
L 222.039404 50.99626 
L 221.331222 51.840238 
" style="fill:none;stroke:#000000;stroke-linecap:square;stroke-width:1.5;"/>
   </g>
   <g id="line2d_11">
    <path clip-path="url(#p98dcaceabc)" d="M 238.670385 64.562115 
L 237.840635 65.258357 
L 237.00374 65.960596 
L 236.159762 66.668778 
" style="fill:none;stroke:#000000;stroke-linecap:square;stroke-width:1.5;"/>
   </g>
   <g id="line2d_12">
    <path clip-path="url(#p98dcaceabc)" d="M 251.026373 82.208295 
L 250.088328 82.749875 
L 249.142204 83.29612 
L 248.188074 83.846988 
" style="fill:none;stroke:#000000;stroke-linecap:square;stroke-width:1.5;"/>
   </g>
   <g id="line2d_13">
    <path clip-path="url(#p98dcaceabc)" d="M 260.130419 101.731984 
L 259.11258 102.102447 
L 258.085976 102.476101 
L 257.050684 102.852916 
" style="fill:none;stroke:#000000;stroke-linecap:square;stroke-width:1.5;"/>
   </g>
   <g id="line2d_14">
    <path clip-path="url(#p98dcaceabc)" d="M 265.7059 122.539966 
L 264.639195 122.728055 
L 263.563303 122.917764 
L 262.478306 123.109078 
" style="fill:none;stroke:#000000;stroke-linecap:square;stroke-width:1.5;"/>
   </g>
   <g id="line2d_15">
    <path clip-path="url(#p98dcaceabc)" d="M 267.58341 144 
L 266.500249 144 
L 265.40776 144 
L 264.306025 144 
" style="fill:none;stroke:#000000;stroke-linecap:square;stroke-width:1.5;"/>
   </g>
   <g id="line2d_16">
    <path clip-path="url(#p98dcaceabc)" d="M 265.7059 165.460034 
L 264.639195 165.271945 
L 263.563303 165.082236 
L 262.478306 164.890922 
" style="fill:none;stroke:#000000;stroke-linecap:square;stroke-width:1.5;"/>
   </g>
   <g id="line2d_17">
    <path clip-path="url(#p98dcaceabc)" d="M 260.130419 186.268016 
L 259.11258 185.897553 
L 258.085976 185.523899 
L 257.050684 185.147084 
" style="fill:none;stroke:#000000;stroke-linecap:square;stroke-width:1.5;"/>
   </g>
   <g id="line2d_18">
    <path clip-path="url(#p98dcaceabc)" d="M 251.026373 205.791705 
L 250.088328 205.250125 
L 249.142204 204.70388 
L 248.188074 204.153012 
" style="fill:none;stroke:#000000;stroke-linecap:square;stroke-width:1.5;"/>
   </g>
   <g id="line2d_19">
    <path clip-path="url(#p98dcaceabc)" d="M 238.670385 223.437885 
L 237.840635 222.741643 
L 237.00374 222.039404 
L 236.159762 221.331222 
" style="fill:none;stroke:#000000;stroke-linecap:square;stroke-width:1.5;"/>
   </g>
   <g id="line2d_20">
    <path clip-path="url(#p98dcaceabc)" d="M 223.437885 238.670385 
L 222.741643 237.840635 
L 222.039404 237.00374 
L 221.331222 236.159762 
" style="fill:none;stroke:#000000;stroke-linecap:square;stroke-width:1.5;"/>
   </g>
   <g id="line2d_21">
    <path clip-path="url(#p98dcaceabc)" d="M 205.791705 251.026373 
L 205.250125 250.088328 
L 204.70388 249.142204 
L 204.153012 248.188074 
" style="fill:none;stroke:#000000;stroke-linecap:square;stroke-width:1.5;"/>
   </g>
   <g id="line2d_22">
    <path clip-path="url(#p98dcaceabc)" d="M 186.268016 260.130419 
L 185.897553 259.11258 
L 185.523899 258.085976 
L 185.147084 257.050684 
" style="fill:none;stroke:#000000;stroke-linecap:square;stroke-width:1.5;"/>
   </g>
   <g id="line2d_23">
    <path clip-path="url(#p98dcaceabc)" d="M 165.460034 265.7059 
L 165.271945 264.639195 
L 165.082236 263.563303 
L 164.890922 262.478306 
" style="fill:none;stroke:#000000;stroke-linecap:square;stroke-width:1.5;"/>
   </g>
   <g id="line2d_24">
    <path clip-path="url(#p98dcaceabc)" d="M 144 267.58341 
L 144 266.500249 
L 144 265.40776 
L 144 264.306025 
" style="fill:none;stroke:#000000;stroke-linecap:square;stroke-width:1.5;"/>
   </g>
   <g id="line2d_25">
    <path clip-path="url(#p98dcaceabc)" d="M 122.539966 265.7059 
L 122.728055 264.639195 
L 122.917764 263.563303 
L 123.109078 262.478306 
" style="fill:none;stroke:#000000;stroke-linecap:square;stroke-width:1.5;"/>
   </g>
   <g id="line2d_26">
    <path clip-path="url(#p98dcaceabc)" d="M 101.731984 260.130419 
L 102.102447 259.11258 
L 102.476101 258.085976 
L 102.852916 257.050684 
" style="fill:none;stroke:#000000;stroke-linecap:square;stroke-width:1.5;"/>
   </g>
   <g id="line2d_27">
    <path clip-path="url(#p98dcaceabc)" d="M 82.208295 251.026373 
L 82.749875 250.088328 
L 83.29612 249.142204 
L 83.846988 248.188074 
" style="fill:none;stroke:#000000;stroke-linecap:square;stroke-width:1.5;"/>
   </g>
   <g id="line2d_28">
    <path clip-path="url(#p98dcaceabc)" d="M 64.562115 238.670385 
L 65.258357 237.840635 
L 65.960596 237.00374 
L 66.668778 236.159762 
" style="fill:none;stroke:#000000;stroke-linecap:square;stroke-width:1.5;"/>
   </g>
   <g id="line2d_29">
    <path clip-path="url(#p98dcaceabc)" d="M 49.329615 223.437885 
L 50.159365 222.741643 
L 50.99626 222.039404 
L 51.840238 221.331222 
" style="fill:none;stroke:#000000;stroke-linecap:square;stroke-width:1.5;"/>
   </g>
   <g id="line2d_30">
    <path clip-path="url(#p98dcaceabc)" d="M 36.973627 205.791705 
L 37.911672 205.250125 
L 38.857796 204.70388 
L 39.811926 204.153012 
" style="fill:none;stroke:#000000;stroke-linecap:square;stroke-width:1.5;"/>
   </g>
   <g id="line2d_31">
    <path clip-path="url(#p98dcaceabc)" d="M 27.869581 186.268016 
L 28.88742 185.897553 
L 29.914024 185.523899 
L 30.949316 185.147084 
" style="fill:none;stroke:#000000;stroke-linecap:square;stroke-width:1.5;"/>
   </g>
   <g id="line2d_32">
    <path clip-path="url(#p98dcaceabc)" d="M 22.2941 165.460034 
L 23.360805 165.271945 
L 24.436697 165.082236 
L 25.521694 164.890922 
" style="fill:none;stroke:#000000;stroke-linecap:square;stroke-width:1.5;"/>
   </g>
   <g id="line2d_33">
    <path clip-path="url(#p98dcaceabc)" d="M 20.41659 144 
L 21.499751 144 
L 22.59224 144 
L 23.693975 144 
" style="fill:none;stroke:#000000;stroke-linecap:square;stroke-width:1.5;"/>
   </g>
   <g id="line2d_34">
    <path clip-path="url(#p98dcaceabc)" d="M 22.2941 122.539966 
L 23.360805 122.728055 
L 24.436697 122.917764 
L 25.521694 123.109078 
" style="fill:none;stroke:#000000;stroke-linecap:square;stroke-width:1.5;"/>
   </g>
   <g id="line2d_35">
    <path clip-path="url(#p98dcaceabc)" d="M 27.869581 101.731984 
L 28.88742 102.102447 
L 29.914024 102.476101 
L 30.949316 102.852916 
" style="fill:none;stroke:#000000;stroke-linecap:square;stroke-width:1.5;"/>
   </g>
   <g id="line2d_36">
    <path clip-path="url(#p98dcaceabc)" d="M 36.973627 82.208295 
L 37.911672 82.749875 
L 38.857796 83.29612 
L 39.811926 83.846988 
" style="fill:none;stroke:#000000;stroke-linecap:square;stroke-width:1.5;"/>
   </g>
   <g id="line2d_37">
    <path clip-path="url(#p98dcaceabc)" d="M 49.329615 64.562115 
L 50.159365 65.258357 
L 50.99626 65.960596 
L 51.840238 66.668778 
" style="fill:none;stroke:#000000;stroke-linecap:square;stroke-width:1.5;"/>
   </g>
   <g id="line2d_38">
    <path clip-path="url(#p98dcaceabc)" d="M 64.562115 49.329615 
L 65.258357 50.159365 
L 65.960596 50.99626 
L 66.668778 51.840238 
" style="fill:none;stroke:#000000;stroke-linecap:square;stroke-width:1.5;"/>
   </g>
   <g id="line2d_39">
    <path clip-path="url(#p98dcaceabc)" d="M 82.208295 36.973627 
L 82.749875 37.911672 
L 83.29612 38.857796 
L 83.846988 39.811926 
" style="fill:none;stroke:#000000;stroke-linecap:square;stroke-width:1.5;"/>
   </g>
   <g id="line2d_40">
    <path clip-path="url(#p98dcaceabc)" d="M 101.731984 27.869581 
L 102.102447 28.88742 
L 102.476101 29.914024 
L 102.852916 30.949316 
" style="fill:none;stroke:#000000;stroke-linecap:square;stroke-width:1.5;"/>
   </g>
   <g id="line2d_41">
    <path clip-path="url(#p98dcaceabc)" d="M 122.539966 22.2941 
L 122.728055 23.360805 
L 122.917764 24.436697 
L 123.109078 25.521694 
" style="fill:none;stroke:#000000;stroke-linecap:square;stroke-width:1.5;"/>
   </g>
   <g id="text_1">
    <!-- Corrected for flattening -->
    <g transform="translate(73.605 4.8)scale(0.12 -0.12)">
     <defs>
      <path d="M 64.40625 67.28125 
L 64.40625 56.890625 
Q 59.421875 61.53125 53.78125 63.8125 
Q 48.140625 66.109375 41.796875 66.109375 
Q 29.296875 66.109375 22.65625 58.46875 
Q 16.015625 50.828125 16.015625 36.375 
Q 16.015625 21.96875 22.65625 14.328125 
Q 29.296875 6.6875 41.796875 6.6875 
Q 48.140625 6.6875 53.78125 8.984375 
Q 59.421875 11.28125 64.40625 15.921875 
L 64.40625 5.609375 
Q 59.234375 2.09375 53.4375 0.328125 
Q 47.65625 -1.421875 41.21875 -1.421875 
Q 24.65625 -1.421875 15.125 8.703125 
Q 5.609375 18.84375 5.609375 36.375 
Q 5.609375 53.953125 15.125 64.078125 
Q 24.65625 74.21875 41.21875 74.21875 
Q 47.75 74.21875 53.53125 72.484375 
Q 59.328125 70.75 64.40625 67.28125 
z
" id="DejaVuSans-67"/>
      <path d="M 30.609375 48.390625 
Q 23.390625 48.390625 19.1875 42.75 
Q 14.984375 37.109375 14.984375 27.296875 
Q 14.984375 17.484375 19.15625 11.84375 
Q 23.34375 6.203125 30.609375 6.203125 
Q 37.796875 6.203125 41.984375 11.859375 
Q 46.1875 17.53125 46.1875 27.296875 
Q 46.1875 37.015625 41.984375 42.703125 
Q 37.796875 48.390625 30.609375 48.390625 
z
M 30.609375 56 
Q 42.328125 56 49.015625 48.375 
Q 55.71875 40.765625 55.71875 27.296875 
Q 55.71875 13.875 49.015625 6.21875 
Q 42.328125 -1.421875 30.609375 -1.421875 
Q 18.84375 -1.421875 12.171875 6.21875 
Q 5.515625 13.875 5.515625 27.296875 
Q 5.515625 40.765625 12.171875 48.375 
Q 18.84375 56 30.609375 56 
z
" id="DejaVuSans-111"/>
      <path d="M 41.109375 46.296875 
Q 39.59375 47.171875 37.8125 47.578125 
Q 36.03125 48 33.890625 48 
Q 26.265625 48 22.1875 43.046875 
Q 18.109375 38.09375 18.109375 28.8125 
L 18.109375 0 
L 9.078125 0 
L 9.078125 54.6875 
L 18.109375 54.6875 
L 18.109375 46.1875 
Q 20.953125 51.171875 25.484375 53.578125 
Q 30.03125 56 36.53125 56 
Q 37.453125 56 38.578125 55.875 
Q 39.703125 55.765625 41.0625 55.515625 
z
" id="DejaVuSans-114"/>
      <path d="M 56.203125 29.59375 
L 56.203125 25.203125 
L 14.890625 25.203125 
Q 15.484375 15.921875 20.484375 11.0625 
Q 25.484375 6.203125 34.421875 6.203125 
Q 39.59375 6.203125 44.453125 7.46875 
Q 49.3125 8.734375 54.109375 11.28125 
L 54.109375 2.78125 
Q 49.265625 0.734375 44.1875 -0.34375 
Q 39.109375 -1.421875 33.890625 -1.421875 
Q 20.796875 -1.421875 13.15625 6.1875 
Q 5.515625 13.8125 5.515625 26.8125 
Q 5.515625 40.234375 12.765625 48.109375 
Q 20.015625 56 32.328125 56 
Q 43.359375 56 49.78125 48.890625 
Q 56.203125 41.796875 56.203125 29.59375 
z
M 47.21875 32.234375 
Q 47.125 39.59375 43.09375 43.984375 
Q 39.0625 48.390625 32.421875 48.390625 
Q 24.90625 48.390625 20.390625 44.140625 
Q 15.875 39.890625 15.1875 32.171875 
z
" id="DejaVuSans-101"/>
      <path d="M 48.78125 52.59375 
L 48.78125 44.1875 
Q 44.96875 46.296875 41.140625 47.34375 
Q 37.3125 48.390625 33.40625 48.390625 
Q 24.65625 48.390625 19.8125 42.84375 
Q 14.984375 37.3125 14.984375 27.296875 
Q 14.984375 17.28125 19.8125 11.734375 
Q 24.65625 6.203125 33.40625 6.203125 
Q 37.3125 6.203125 41.140625 7.25 
Q 44.96875 8.296875 48.78125 10.40625 
L 48.78125 2.09375 
Q 45.015625 0.34375 40.984375 -0.53125 
Q 36.96875 -1.421875 32.421875 -1.421875 
Q 20.0625 -1.421875 12.78125 6.34375 
Q 5.515625 14.109375 5.515625 27.296875 
Q 5.515625 40.671875 12.859375 48.328125 
Q 20.21875 56 33.015625 56 
Q 37.15625 56 41.109375 55.140625 
Q 45.0625 54.296875 48.78125 52.59375 
z
" id="DejaVuSans-99"/>
      <path d="M 18.3125 70.21875 
L 18.3125 54.6875 
L 36.8125 54.6875 
L 36.8125 47.703125 
L 18.3125 47.703125 
L 18.3125 18.015625 
Q 18.3125 11.328125 20.140625 9.421875 
Q 21.96875 7.515625 27.59375 7.515625 
L 36.8125 7.515625 
L 36.8125 0 
L 27.59375 0 
Q 17.1875 0 13.234375 3.875 
Q 9.28125 7.765625 9.28125 18.015625 
L 9.28125 47.703125 
L 2.6875 47.703125 
L 2.6875 54.6875 
L 9.28125 54.6875 
L 9.28125 70.21875 
z
" id="DejaVuSans-116"/>
      <path d="M 45.40625 46.390625 
L 45.40625 75.984375 
L 54.390625 75.984375 
L 54.390625 0 
L 45.40625 0 
L 45.40625 8.203125 
Q 42.578125 3.328125 38.25 0.953125 
Q 33.9375 -1.421875 27.875 -1.421875 
Q 17.96875 -1.421875 11.734375 6.484375 
Q 5.515625 14.40625 5.515625 27.296875 
Q 5.515625 40.1875 11.734375 48.09375 
Q 17.96875 56 27.875 56 
Q 33.9375 56 38.25 53.625 
Q 42.578125 51.265625 45.40625 46.390625 
z
M 14.796875 27.296875 
Q 14.796875 17.390625 18.875 11.75 
Q 22.953125 6.109375 30.078125 6.109375 
Q 37.203125 6.109375 41.296875 11.75 
Q 45.40625 17.390625 45.40625 27.296875 
Q 45.40625 37.203125 41.296875 42.84375 
Q 37.203125 48.484375 30.078125 48.484375 
Q 22.953125 48.484375 18.875 42.84375 
Q 14.796875 37.203125 14.796875 27.296875 
z
" id="DejaVuSans-100"/>
      <path id="DejaVuSans-32"/>
      <path d="M 37.109375 75.984375 
L 37.109375 68.5 
L 28.515625 68.5 
Q 23.6875 68.5 21.796875 66.546875 
Q 19.921875 64.59375 19.921875 59.515625 
L 19.921875 54.6875 
L 34.71875 54.6875 
L 34.71875 47.703125 
L 19.921875 47.703125 
L 19.921875 0 
L 10.890625 0 
L 10.890625 47.703125 
L 2.296875 47.703125 
L 2.296875 54.6875 
L 10.890625 54.6875 
L 10.890625 58.5 
Q 10.890625 67.625 15.140625 71.796875 
Q 19.390625 75.984375 28.609375 75.984375 
z
" id="DejaVuSans-102"/>
      <path d="M 9.421875 75.984375 
L 18.40625 75.984375 
L 18.40625 0 
L 9.421875 0 
z
" id="DejaVuSans-108"/>
      <path d="M 34.28125 27.484375 
Q 23.390625 27.484375 19.1875 25 
Q 14.984375 22.515625 14.984375 16.5 
Q 14.984375 11.71875 18.140625 8.90625 
Q 21.296875 6.109375 26.703125 6.109375 
Q 34.1875 6.109375 38.703125 11.40625 
Q 43.21875 16.703125 43.21875 25.484375 
L 43.21875 27.484375 
z
M 52.203125 31.203125 
L 52.203125 0 
L 43.21875 0 
L 43.21875 8.296875 
Q 40.140625 3.328125 35.546875 0.953125 
Q 30.953125 -1.421875 24.3125 -1.421875 
Q 15.921875 -1.421875 10.953125 3.296875 
Q 6 8.015625 6 15.921875 
Q 6 25.140625 12.171875 29.828125 
Q 18.359375 34.515625 30.609375 34.515625 
L 43.21875 34.515625 
L 43.21875 35.40625 
Q 43.21875 41.609375 39.140625 45 
Q 35.0625 48.390625 27.6875 48.390625 
Q 23 48.390625 18.546875 47.265625 
Q 14.109375 46.140625 10.015625 43.890625 
L 10.015625 52.203125 
Q 14.9375 54.109375 19.578125 55.046875 
Q 24.21875 56 28.609375 56 
Q 40.484375 56 46.34375 49.84375 
Q 52.203125 43.703125 52.203125 31.203125 
z
" id="DejaVuSans-97"/>
      <path d="M 54.890625 33.015625 
L 54.890625 0 
L 45.90625 0 
L 45.90625 32.71875 
Q 45.90625 40.484375 42.875 44.328125 
Q 39.84375 48.1875 33.796875 48.1875 
Q 26.515625 48.1875 22.3125 43.546875 
Q 18.109375 38.921875 18.109375 30.90625 
L 18.109375 0 
L 9.078125 0 
L 9.078125 54.6875 
L 18.109375 54.6875 
L 18.109375 46.1875 
Q 21.34375 51.125 25.703125 53.5625 
Q 30.078125 56 35.796875 56 
Q 45.21875 56 50.046875 50.171875 
Q 54.890625 44.34375 54.890625 33.015625 
z
" id="DejaVuSans-110"/>
      <path d="M 9.421875 54.6875 
L 18.40625 54.6875 
L 18.40625 0 
L 9.421875 0 
z
M 9.421875 75.984375 
L 18.40625 75.984375 
L 18.40625 64.59375 
L 9.421875 64.59375 
z
" id="DejaVuSans-105"/>
      <path d="M 45.40625 27.984375 
Q 45.40625 37.75 41.375 43.109375 
Q 37.359375 48.484375 30.078125 48.484375 
Q 22.859375 48.484375 18.828125 43.109375 
Q 14.796875 37.75 14.796875 27.984375 
Q 14.796875 18.265625 18.828125 12.890625 
Q 22.859375 7.515625 30.078125 7.515625 
Q 37.359375 7.515625 41.375 12.890625 
Q 45.40625 18.265625 45.40625 27.984375 
z
M 54.390625 6.78125 
Q 54.390625 -7.171875 48.1875 -13.984375 
Q 42 -20.796875 29.203125 -20.796875 
Q 24.46875 -20.796875 20.265625 -20.09375 
Q 16.0625 -19.390625 12.109375 -17.921875 
L 12.109375 -9.1875 
Q 16.0625 -11.328125 19.921875 -12.34375 
Q 23.78125 -13.375 27.78125 -13.375 
Q 36.625 -13.375 41.015625 -8.765625 
Q 45.40625 -4.15625 45.40625 5.171875 
L 45.40625 9.625 
Q 42.625 4.78125 38.28125 2.390625 
Q 33.9375 0 27.875 0 
Q 17.828125 0 11.671875 7.65625 
Q 5.515625 15.328125 5.515625 27.984375 
Q 5.515625 40.671875 11.671875 48.328125 
Q 17.828125 56 27.875 56 
Q 33.9375 56 38.28125 53.609375 
Q 42.625 51.21875 45.40625 46.390625 
L 45.40625 54.6875 
L 54.390625 54.6875 
z
" id="DejaVuSans-103"/>
     </defs>
     <use xlink:href="#DejaVuSans-67"/>
     <use x="69.824219" xlink:href="#DejaVuSans-111"/>
     <use x="131.005859" xlink:href="#DejaVuSans-114"/>
     <use x="170.369141" xlink:href="#DejaVuSans-114"/>
     <use x="209.232422" xlink:href="#DejaVuSans-101"/>
     <use x="270.755859" xlink:href="#DejaVuSans-99"/>
     <use x="325.736328" xlink:href="#DejaVuSans-116"/>
     <use x="364.945312" xlink:href="#DejaVuSans-101"/>
     <use x="426.46875" xlink:href="#DejaVuSans-100"/>
     <use x="489.945312" xlink:href="#DejaVuSans-32"/>
     <use x="521.732422" xlink:href="#DejaVuSans-102"/>
     <use x="556.9375" xlink:href="#DejaVuSans-111"/>
     <use x="618.119141" xlink:href="#DejaVuSans-114"/>
     <use x="659.232422" xlink:href="#DejaVuSans-32"/>
     <use x="691.019531" xlink:href="#DejaVuSans-102"/>
     <use x="726.224609" xlink:href="#DejaVuSans-108"/>
     <use x="754.007812" xlink:href="#DejaVuSans-97"/>
     <use x="815.287109" xlink:href="#DejaVuSans-116"/>
     <use x="854.496094" xlink:href="#DejaVuSans-116"/>
     <use x="893.705078" xlink:href="#DejaVuSans-101"/>
     <use x="955.228516" xlink:href="#DejaVuSans-110"/>
     <use x="1018.607422" xlink:href="#DejaVuSans-105"/>
     <use x="1046.390625" xlink:href="#DejaVuSans-110"/>
     <use x="1109.769531" xlink:href="#DejaVuSans-103"/>
    </g>
   </g>
  </g>
 </g>
 <defs>
  <clipPath id="p98dcaceabc">
   <rect height="266.4" width="266.4" x="10.8" y="10.8"/>
  </clipPath>
 </defs>
</svg>
