<?xml version="1.0" encoding="utf-8" standalone="no"?>
<!DOCTYPE svg PUBLIC "-//W3C//DTD SVG 1.1//EN"
  "http://www.w3.org/Graphics/SVG/1.1/DTD/svg11.dtd">
<!-- Created with matplotlib (https://matplotlib.org/) -->
<svg height="288pt" version="1.1" viewBox="0 0 288 288" width="288pt" xmlns="http://www.w3.org/2000/svg" xmlns:xlink="http://www.w3.org/1999/xlink">
 <defs>
  <style type="text/css">
*{stroke-linecap:butt;stroke-linejoin:round;}
  </style>
 </defs>
 <g id="figure_1">
  <g id="patch_1">
   <path d="M 0 288 
L 288 288 
L 288 0 
L 0 0 
z
" style="fill:#ffffff;"/>
  </g>
  <g id="axes_1">
   <g id="patch_2">
    <path d="M 36 252 
L 259.2 252 
L 259.2 34.56 
L 36 34.56 
z
" style="fill:#ffffff;"/>
   </g>
   <g id="matplotlib.axis_1">
    <g id="xtick_1">
     <g id="line2d_1">
      <defs>
       <path d="M 0 0 
L 0 3.5 
" id="mc11f1fe57c" style="stroke:#000000;stroke-width:0.8;"/>
      </defs>
      <g>
       <use style="stroke:#000000;stroke-width:0.8;" x="66.155344" xlink:href="#mc11f1fe57c" y="252"/>
      </g>
     </g>
     <g id="text_1">
      <!-- 25 -->
      <defs>
       <path d="M 19.1875 8.296875 
L 53.609375 8.296875 
L 53.609375 0 
L 7.328125 0 
L 7.328125 8.296875 
Q 12.9375 14.109375 22.625 23.890625 
Q 32.328125 33.6875 34.8125 36.53125 
Q 39.546875 41.84375 41.421875 45.53125 
Q 43.3125 49.21875 43.3125 52.78125 
Q 43.3125 58.59375 39.234375 62.25 
Q 35.15625 65.921875 28.609375 65.921875 
Q 23.96875 65.921875 18.8125 64.3125 
Q 13.671875 62.703125 7.8125 59.421875 
L 7.8125 69.390625 
Q 13.765625 71.78125 18.9375 73 
Q 24.125 74.21875 28.421875 74.21875 
Q 39.75 74.21875 46.484375 68.546875 
Q 53.21875 62.890625 53.21875 53.421875 
Q 53.21875 48.921875 51.53125 44.890625 
Q 49.859375 40.875 45.40625 35.40625 
Q 44.1875 33.984375 37.640625 27.21875 
Q 31.109375 20.453125 19.1875 8.296875 
z
" id="DejaVuSans-50"/>
       <path d="M 10.796875 72.90625 
L 49.515625 72.90625 
L 49.515625 64.59375 
L 19.828125 64.59375 
L 19.828125 46.734375 
Q 21.96875 47.46875 24.109375 47.828125 
Q 26.265625 48.1875 28.421875 48.1875 
Q 40.625 48.1875 47.75 41.5 
Q 54.890625 34.8125 54.890625 23.390625 
Q 54.890625 11.625 47.5625 5.09375 
Q 40.234375 -1.421875 26.90625 -1.421875 
Q 22.3125 -1.421875 17.546875 -0.640625 
Q 12.796875 0.140625 7.71875 1.703125 
L 7.71875 11.625 
Q 12.109375 9.234375 16.796875 8.0625 
Q 21.484375 6.890625 26.703125 6.890625 
Q 35.15625 6.890625 40.078125 11.328125 
Q 45.015625 15.765625 45.015625 23.390625 
Q 45.015625 31 40.078125 35.4375 
Q 35.15625 39.890625 26.703125 39.890625 
Q 22.75 39.890625 18.8125 39.015625 
Q 14.890625 38.140625 10.796875 36.28125 
z
" id="DejaVuSans-53"/>
      </defs>
      <g transform="translate(59.792844 266.598437)scale(0.1 -0.1)">
       <use xlink:href="#DejaVuSans-50"/>
       <use x="63.623047" xlink:href="#DejaVuSans-53"/>
      </g>
     </g>
    </g>
    <g id="xtick_2">
     <g id="line2d_2">
      <g>
       <use style="stroke:#000000;stroke-width:0.8;" x="112.689512" xlink:href="#mc11f1fe57c" y="252"/>
      </g>
     </g>
     <g id="text_2">
      <!-- 30 -->
      <defs>
       <path d="M 40.578125 39.3125 
Q 47.65625 37.796875 51.625 33 
Q 55.609375 28.21875 55.609375 21.1875 
Q 55.609375 10.40625 48.1875 4.484375 
Q 40.765625 -1.421875 27.09375 -1.421875 
Q 22.515625 -1.421875 17.65625 -0.515625 
Q 12.796875 0.390625 7.625 2.203125 
L 7.625 11.71875 
Q 11.71875 9.328125 16.59375 8.109375 
Q 21.484375 6.890625 26.8125 6.890625 
Q 36.078125 6.890625 40.9375 10.546875 
Q 45.796875 14.203125 45.796875 21.1875 
Q 45.796875 27.640625 41.28125 31.265625 
Q 36.765625 34.90625 28.71875 34.90625 
L 20.21875 34.90625 
L 20.21875 43.015625 
L 29.109375 43.015625 
Q 36.375 43.015625 40.234375 45.921875 
Q 44.09375 48.828125 44.09375 54.296875 
Q 44.09375 59.90625 40.109375 62.90625 
Q 36.140625 65.921875 28.71875 65.921875 
Q 24.65625 65.921875 20.015625 65.03125 
Q 15.375 64.15625 9.8125 62.3125 
L 9.8125 71.09375 
Q 15.4375 72.65625 20.34375 73.4375 
Q 25.25 74.21875 29.59375 74.21875 
Q 40.828125 74.21875 47.359375 69.109375 
Q 53.90625 64.015625 53.90625 55.328125 
Q 53.90625 49.265625 50.4375 45.09375 
Q 46.96875 40.921875 40.578125 39.3125 
z
" id="DejaVuSans-51"/>
       <path d="M 31.78125 66.40625 
Q 24.171875 66.40625 20.328125 58.90625 
Q 16.5 51.421875 16.5 36.375 
Q 16.5 21.390625 20.328125 13.890625 
Q 24.171875 6.390625 31.78125 6.390625 
Q 39.453125 6.390625 43.28125 13.890625 
Q 47.125 21.390625 47.125 36.375 
Q 47.125 51.421875 43.28125 58.90625 
Q 39.453125 66.40625 31.78125 66.40625 
z
M 31.78125 74.21875 
Q 44.046875 74.21875 50.515625 64.515625 
Q 56.984375 54.828125 56.984375 36.375 
Q 56.984375 17.96875 50.515625 8.265625 
Q 44.046875 -1.421875 31.78125 -1.421875 
Q 19.53125 -1.421875 13.0625 8.265625 
Q 6.59375 17.96875 6.59375 36.375 
Q 6.59375 54.828125 13.0625 64.515625 
Q 19.53125 74.21875 31.78125 74.21875 
z
" id="DejaVuSans-48"/>
      </defs>
      <g transform="translate(106.327012 266.598437)scale(0.1 -0.1)">
       <use xlink:href="#DejaVuSans-51"/>
       <use x="63.623047" xlink:href="#DejaVuSans-48"/>
      </g>
     </g>
    </g>
    <g id="xtick_3">
     <g id="line2d_3">
      <g>
       <use style="stroke:#000000;stroke-width:0.8;" x="159.22368" xlink:href="#mc11f1fe57c" y="252"/>
      </g>
     </g>
     <g id="text_3">
      <!-- 35 -->
      <g transform="translate(152.86118 266.598437)scale(0.1 -0.1)">
       <use xlink:href="#DejaVuSans-51"/>
       <use x="63.623047" xlink:href="#DejaVuSans-53"/>
      </g>
     </g>
    </g>
    <g id="xtick_4">
     <g id="line2d_4">
      <g>
       <use style="stroke:#000000;stroke-width:0.8;" x="205.757849" xlink:href="#mc11f1fe57c" y="252"/>
      </g>
     </g>
     <g id="text_4">
      <!-- 40 -->
      <defs>
       <path d="M 37.796875 64.3125 
L 12.890625 25.390625 
L 37.796875 25.390625 
z
M 35.203125 72.90625 
L 47.609375 72.90625 
L 47.609375 25.390625 
L 58.015625 25.390625 
L 58.015625 17.1875 
L 47.609375 17.1875 
L 47.609375 0 
L 37.796875 0 
L 37.796875 17.1875 
L 4.890625 17.1875 
L 4.890625 26.703125 
z
" id="DejaVuSans-52"/>
      </defs>
      <g transform="translate(199.395349 266.598437)scale(0.1 -0.1)">
       <use xlink:href="#DejaVuSans-52"/>
       <use x="63.623047" xlink:href="#DejaVuSans-48"/>
      </g>
     </g>
    </g>
    <g id="xtick_5">
     <g id="line2d_5">
      <g>
       <use style="stroke:#000000;stroke-width:0.8;" x="252.292017" xlink:href="#mc11f1fe57c" y="252"/>
      </g>
     </g>
     <g id="text_5">
      <!-- 45 -->
      <g transform="translate(245.929517 266.598437)scale(0.1 -0.1)">
       <use xlink:href="#DejaVuSans-52"/>
       <use x="63.623047" xlink:href="#DejaVuSans-53"/>
      </g>
     </g>
    </g>
    <g id="text_6">
     <!-- Inclination -->
     <defs>
      <path d="M 9.8125 72.90625 
L 19.671875 72.90625 
L 19.671875 0 
L 9.8125 0 
z
" id="DejaVuSans-73"/>
      <path d="M 54.890625 33.015625 
L 54.890625 0 
L 45.90625 0 
L 45.90625 32.71875 
Q 45.90625 40.484375 42.875 44.328125 
Q 39.84375 48.1875 33.796875 48.1875 
Q 26.515625 48.1875 22.3125 43.546875 
Q 18.109375 38.921875 18.109375 30.90625 
L 18.109375 0 
L 9.078125 0 
L 9.078125 54.6875 
L 18.109375 54.6875 
L 18.109375 46.1875 
Q 21.34375 51.125 25.703125 53.5625 
Q 30.078125 56 35.796875 56 
Q 45.21875 56 50.046875 50.171875 
Q 54.890625 44.34375 54.890625 33.015625 
z
" id="DejaVuSans-110"/>
      <path d="M 48.78125 52.59375 
L 48.78125 44.1875 
Q 44.96875 46.296875 41.140625 47.34375 
Q 37.3125 48.390625 33.40625 48.390625 
Q 24.65625 48.390625 19.8125 42.84375 
Q 14.984375 37.3125 14.984375 27.296875 
Q 14.984375 17.28125 19.8125 11.734375 
Q 24.65625 6.203125 33.40625 6.203125 
Q 37.3125 6.203125 41.140625 7.25 
Q 44.96875 8.296875 48.78125 10.40625 
L 48.78125 2.09375 
Q 45.015625 0.34375 40.984375 -0.53125 
Q 36.96875 -1.421875 32.421875 -1.421875 
Q 20.0625 -1.421875 12.78125 6.34375 
Q 5.515625 14.109375 5.515625 27.296875 
Q 5.515625 40.671875 12.859375 48.328125 
Q 20.21875 56 33.015625 56 
Q 37.15625 56 41.109375 55.140625 
Q 45.0625 54.296875 48.78125 52.59375 
z
" id="DejaVuSans-99"/>
      <path d="M 9.421875 75.984375 
L 18.40625 75.984375 
L 18.40625 0 
L 9.421875 0 
z
" id="DejaVuSans-108"/>
      <path d="M 9.421875 54.6875 
L 18.40625 54.6875 
L 18.40625 0 
L 9.421875 0 
z
M 9.421875 75.984375 
L 18.40625 75.984375 
L 18.40625 64.59375 
L 9.421875 64.59375 
z
" id="DejaVuSans-105"/>
      <path d="M 34.28125 27.484375 
Q 23.390625 27.484375 19.1875 25 
Q 14.984375 22.515625 14.984375 16.5 
Q 14.984375 11.71875 18.140625 8.90625 
Q 21.296875 6.109375 26.703125 6.109375 
Q 34.1875 6.109375 38.703125 11.40625 
Q 43.21875 16.703125 43.21875 25.484375 
L 43.21875 27.484375 
z
M 52.203125 31.203125 
L 52.203125 0 
L 43.21875 0 
L 43.21875 8.296875 
Q 40.140625 3.328125 35.546875 0.953125 
Q 30.953125 -1.421875 24.3125 -1.421875 
Q 15.921875 -1.421875 10.953125 3.296875 
Q 6 8.015625 6 15.921875 
Q 6 25.140625 12.171875 29.828125 
Q 18.359375 34.515625 30.609375 34.515625 
L 43.21875 34.515625 
L 43.21875 35.40625 
Q 43.21875 41.609375 39.140625 45 
Q 35.0625 48.390625 27.6875 48.390625 
Q 23 48.390625 18.546875 47.265625 
Q 14.109375 46.140625 10.015625 43.890625 
L 10.015625 52.203125 
Q 14.9375 54.109375 19.578125 55.046875 
Q 24.21875 56 28.609375 56 
Q 40.484375 56 46.34375 49.84375 
Q 52.203125 43.703125 52.203125 31.203125 
z
" id="DejaVuSans-97"/>
      <path d="M 18.3125 70.21875 
L 18.3125 54.6875 
L 36.8125 54.6875 
L 36.8125 47.703125 
L 18.3125 47.703125 
L 18.3125 18.015625 
Q 18.3125 11.328125 20.140625 9.421875 
Q 21.96875 7.515625 27.59375 7.515625 
L 36.8125 7.515625 
L 36.8125 0 
L 27.59375 0 
Q 17.1875 0 13.234375 3.875 
Q 9.28125 7.765625 9.28125 18.015625 
L 9.28125 47.703125 
L 2.6875 47.703125 
L 2.6875 54.6875 
L 9.28125 54.6875 
L 9.28125 70.21875 
z
" id="DejaVuSans-116"/>
      <path d="M 30.609375 48.390625 
Q 23.390625 48.390625 19.1875 42.75 
Q 14.984375 37.109375 14.984375 27.296875 
Q 14.984375 17.484375 19.15625 11.84375 
Q 23.34375 6.203125 30.609375 6.203125 
Q 37.796875 6.203125 41.984375 11.859375 
Q 46.1875 17.53125 46.1875 27.296875 
Q 46.1875 37.015625 41.984375 42.703125 
Q 37.796875 48.390625 30.609375 48.390625 
z
M 30.609375 56 
Q 42.328125 56 49.015625 48.375 
Q 55.71875 40.765625 55.71875 27.296875 
Q 55.71875 13.875 49.015625 6.21875 
Q 42.328125 -1.421875 30.609375 -1.421875 
Q 18.84375 -1.421875 12.171875 6.21875 
Q 5.515625 13.875 5.515625 27.296875 
Q 5.515625 40.765625 12.171875 48.375 
Q 18.84375 56 30.609375 56 
z
" id="DejaVuSans-111"/>
     </defs>
     <g transform="translate(121.61875 280.276563)scale(0.1 -0.1)">
      <use xlink:href="#DejaVuSans-73"/>
      <use x="29.492188" xlink:href="#DejaVuSans-110"/>
      <use x="92.871094" xlink:href="#DejaVuSans-99"/>
      <use x="147.851562" xlink:href="#DejaVuSans-108"/>
      <use x="175.634766" xlink:href="#DejaVuSans-105"/>
      <use x="203.417969" xlink:href="#DejaVuSans-110"/>
      <use x="266.796875" xlink:href="#DejaVuSans-97"/>
      <use x="328.076172" xlink:href="#DejaVuSans-116"/>
      <use x="367.285156" xlink:href="#DejaVuSans-105"/>
      <use x="395.068359" xlink:href="#DejaVuSans-111"/>
      <use x="456.25" xlink:href="#DejaVuSans-110"/>
     </g>
    </g>
   </g>
   <g id="matplotlib.axis_2">
    <g id="ytick_1">
     <g id="line2d_6">
      <defs>
       <path d="M 0 0 
L -3.5 0 
" id="ma4835c5c27" style="stroke:#000000;stroke-width:0.8;"/>
      </defs>
      <g>
       <use style="stroke:#000000;stroke-width:0.8;" x="36" xlink:href="#ma4835c5c27" y="246.891354"/>
      </g>
     </g>
     <g id="text_7">
      <!-- 1.2 -->
      <defs>
       <path d="M 12.40625 8.296875 
L 28.515625 8.296875 
L 28.515625 63.921875 
L 10.984375 60.40625 
L 10.984375 69.390625 
L 28.421875 72.90625 
L 38.28125 72.90625 
L 38.28125 8.296875 
L 54.390625 8.296875 
L 54.390625 0 
L 12.40625 0 
z
" id="DejaVuSans-49"/>
       <path d="M 10.6875 12.40625 
L 21 12.40625 
L 21 0 
L 10.6875 0 
z
" id="DejaVuSans-46"/>
      </defs>
      <g transform="translate(13.096875 250.690573)scale(0.1 -0.1)">
       <use xlink:href="#DejaVuSans-49"/>
       <use x="63.623047" xlink:href="#DejaVuSans-46"/>
       <use x="95.410156" xlink:href="#DejaVuSans-50"/>
      </g>
     </g>
    </g>
    <g id="ytick_2">
     <g id="line2d_7">
      <g>
       <use style="stroke:#000000;stroke-width:0.8;" x="36" xlink:href="#ma4835c5c27" y="212.471241"/>
      </g>
     </g>
     <g id="text_8">
      <!-- 1.4 -->
      <g transform="translate(13.096875 216.27046)scale(0.1 -0.1)">
       <use xlink:href="#DejaVuSans-49"/>
       <use x="63.623047" xlink:href="#DejaVuSans-46"/>
       <use x="95.410156" xlink:href="#DejaVuSans-52"/>
      </g>
     </g>
    </g>
    <g id="ytick_3">
     <g id="line2d_8">
      <g>
       <use style="stroke:#000000;stroke-width:0.8;" x="36" xlink:href="#ma4835c5c27" y="178.051128"/>
      </g>
     </g>
     <g id="text_9">
      <!-- 1.6 -->
      <defs>
       <path d="M 33.015625 40.375 
Q 26.375 40.375 22.484375 35.828125 
Q 18.609375 31.296875 18.609375 23.390625 
Q 18.609375 15.53125 22.484375 10.953125 
Q 26.375 6.390625 33.015625 6.390625 
Q 39.65625 6.390625 43.53125 10.953125 
Q 47.40625 15.53125 47.40625 23.390625 
Q 47.40625 31.296875 43.53125 35.828125 
Q 39.65625 40.375 33.015625 40.375 
z
M 52.59375 71.296875 
L 52.59375 62.3125 
Q 48.875 64.0625 45.09375 64.984375 
Q 41.3125 65.921875 37.59375 65.921875 
Q 27.828125 65.921875 22.671875 59.328125 
Q 17.53125 52.734375 16.796875 39.40625 
Q 19.671875 43.65625 24.015625 45.921875 
Q 28.375 48.1875 33.59375 48.1875 
Q 44.578125 48.1875 50.953125 41.515625 
Q 57.328125 34.859375 57.328125 23.390625 
Q 57.328125 12.15625 50.6875 5.359375 
Q 44.046875 -1.421875 33.015625 -1.421875 
Q 20.359375 -1.421875 13.671875 8.265625 
Q 6.984375 17.96875 6.984375 36.375 
Q 6.984375 53.65625 15.1875 63.9375 
Q 23.390625 74.21875 37.203125 74.21875 
Q 40.921875 74.21875 44.703125 73.484375 
Q 48.484375 72.75 52.59375 71.296875 
z
" id="DejaVuSans-54"/>
      </defs>
      <g transform="translate(13.096875 181.850347)scale(0.1 -0.1)">
       <use xlink:href="#DejaVuSans-49"/>
       <use x="63.623047" xlink:href="#DejaVuSans-46"/>
       <use x="95.410156" xlink:href="#DejaVuSans-54"/>
      </g>
     </g>
    </g>
    <g id="ytick_4">
     <g id="line2d_9">
      <g>
       <use style="stroke:#000000;stroke-width:0.8;" x="36" xlink:href="#ma4835c5c27" y="143.631015"/>
      </g>
     </g>
     <g id="text_10">
      <!-- 1.8 -->
      <defs>
       <path d="M 31.78125 34.625 
Q 24.75 34.625 20.71875 30.859375 
Q 16.703125 27.09375 16.703125 20.515625 
Q 16.703125 13.921875 20.71875 10.15625 
Q 24.75 6.390625 31.78125 6.390625 
Q 38.8125 6.390625 42.859375 10.171875 
Q 46.921875 13.96875 46.921875 20.515625 
Q 46.921875 27.09375 42.890625 30.859375 
Q 38.875 34.625 31.78125 34.625 
z
M 21.921875 38.8125 
Q 15.578125 40.375 12.03125 44.71875 
Q 8.5 49.078125 8.5 55.328125 
Q 8.5 64.0625 14.71875 69.140625 
Q 20.953125 74.21875 31.78125 74.21875 
Q 42.671875 74.21875 48.875 69.140625 
Q 55.078125 64.0625 55.078125 55.328125 
Q 55.078125 49.078125 51.53125 44.71875 
Q 48 40.375 41.703125 38.8125 
Q 48.828125 37.15625 52.796875 32.3125 
Q 56.78125 27.484375 56.78125 20.515625 
Q 56.78125 9.90625 50.3125 4.234375 
Q 43.84375 -1.421875 31.78125 -1.421875 
Q 19.734375 -1.421875 13.25 4.234375 
Q 6.78125 9.90625 6.78125 20.515625 
Q 6.78125 27.484375 10.78125 32.3125 
Q 14.796875 37.15625 21.921875 38.8125 
z
M 18.3125 54.390625 
Q 18.3125 48.734375 21.84375 45.5625 
Q 25.390625 42.390625 31.78125 42.390625 
Q 38.140625 42.390625 41.71875 45.5625 
Q 45.3125 48.734375 45.3125 54.390625 
Q 45.3125 60.0625 41.71875 63.234375 
Q 38.140625 66.40625 31.78125 66.40625 
Q 25.390625 66.40625 21.84375 63.234375 
Q 18.3125 60.0625 18.3125 54.390625 
z
" id="DejaVuSans-56"/>
      </defs>
      <g transform="translate(13.096875 147.430234)scale(0.1 -0.1)">
       <use xlink:href="#DejaVuSans-49"/>
       <use x="63.623047" xlink:href="#DejaVuSans-46"/>
       <use x="95.410156" xlink:href="#DejaVuSans-56"/>
      </g>
     </g>
    </g>
    <g id="ytick_5">
     <g id="line2d_10">
      <g>
       <use style="stroke:#000000;stroke-width:0.8;" x="36" xlink:href="#ma4835c5c27" y="109.210902"/>
      </g>
     </g>
     <g id="text_11">
      <!-- 2.0 -->
      <g transform="translate(13.096875 113.010121)scale(0.1 -0.1)">
       <use xlink:href="#DejaVuSans-50"/>
       <use x="63.623047" xlink:href="#DejaVuSans-46"/>
       <use x="95.410156" xlink:href="#DejaVuSans-48"/>
      </g>
     </g>
    </g>
    <g id="ytick_6">
     <g id="line2d_11">
      <g>
       <use style="stroke:#000000;stroke-width:0.8;" x="36" xlink:href="#ma4835c5c27" y="74.790789"/>
      </g>
     </g>
     <g id="text_12">
      <!-- 2.2 -->
      <g transform="translate(13.096875 78.590008)scale(0.1 -0.1)">
       <use xlink:href="#DejaVuSans-50"/>
       <use x="63.623047" xlink:href="#DejaVuSans-46"/>
       <use x="95.410156" xlink:href="#DejaVuSans-50"/>
      </g>
     </g>
    </g>
    <g id="ytick_7">
     <g id="line2d_12">
      <g>
       <use style="stroke:#000000;stroke-width:0.8;" x="36" xlink:href="#ma4835c5c27" y="40.370676"/>
      </g>
     </g>
     <g id="text_13">
      <!-- 2.4 -->
      <g transform="translate(13.096875 44.169895)scale(0.1 -0.1)">
       <use xlink:href="#DejaVuSans-50"/>
       <use x="63.623047" xlink:href="#DejaVuSans-46"/>
       <use x="95.410156" xlink:href="#DejaVuSans-52"/>
      </g>
     </g>
    </g>
    <g id="text_14">
     <!-- Elongation -->
     <defs>
      <path d="M 9.8125 72.90625 
L 55.90625 72.90625 
L 55.90625 64.59375 
L 19.671875 64.59375 
L 19.671875 43.015625 
L 54.390625 43.015625 
L 54.390625 34.71875 
L 19.671875 34.71875 
L 19.671875 8.296875 
L 56.78125 8.296875 
L 56.78125 0 
L 9.8125 0 
z
" id="DejaVuSans-69"/>
      <path d="M 45.40625 27.984375 
Q 45.40625 37.75 41.375 43.109375 
Q 37.359375 48.484375 30.078125 48.484375 
Q 22.859375 48.484375 18.828125 43.109375 
Q 14.796875 37.75 14.796875 27.984375 
Q 14.796875 18.265625 18.828125 12.890625 
Q 22.859375 7.515625 30.078125 7.515625 
Q 37.359375 7.515625 41.375 12.890625 
Q 45.40625 18.265625 45.40625 27.984375 
z
M 54.390625 6.78125 
Q 54.390625 -7.171875 48.1875 -13.984375 
Q 42 -20.796875 29.203125 -20.796875 
Q 24.46875 -20.796875 20.265625 -20.09375 
Q 16.0625 -19.390625 12.109375 -17.921875 
L 12.109375 -9.1875 
Q 16.0625 -11.328125 19.921875 -12.34375 
Q 23.78125 -13.375 27.78125 -13.375 
Q 36.625 -13.375 41.015625 -8.765625 
Q 45.40625 -4.15625 45.40625 5.171875 
L 45.40625 9.625 
Q 42.625 4.78125 38.28125 2.390625 
Q 33.9375 0 27.875 0 
Q 17.828125 0 11.671875 7.65625 
Q 5.515625 15.328125 5.515625 27.984375 
Q 5.515625 40.671875 11.671875 48.328125 
Q 17.828125 56 27.875 56 
Q 33.9375 56 38.28125 53.609375 
Q 42.625 51.21875 45.40625 46.390625 
L 45.40625 54.6875 
L 54.390625 54.6875 
z
" id="DejaVuSans-103"/>
     </defs>
     <g transform="translate(7.017187 169.872187)rotate(-90)scale(0.1 -0.1)">
      <use xlink:href="#DejaVuSans-69"/>
      <use x="63.183594" xlink:href="#DejaVuSans-108"/>
      <use x="90.966797" xlink:href="#DejaVuSans-111"/>
      <use x="152.148438" xlink:href="#DejaVuSans-110"/>
      <use x="215.527344" xlink:href="#DejaVuSans-103"/>
      <use x="279.003906" xlink:href="#DejaVuSans-97"/>
      <use x="340.283203" xlink:href="#DejaVuSans-116"/>
      <use x="379.492188" xlink:href="#DejaVuSans-105"/>
      <use x="407.275391" xlink:href="#DejaVuSans-111"/>
      <use x="468.457031" xlink:href="#DejaVuSans-110"/>
     </g>
    </g>
   </g>
   <g id="line2d_13">
    <path clip-path="url(#p1d1ab11a5c)" d="M 60.043502 200.659453 
L 61.96499 200.588426 
L 63.917321 200.356174 
L 65.901198 199.960182 
L 67.917345 199.398382 
L 69.966509 198.669145 
L 72.049454 197.771276 
L 74.16697 196.703985 
L 76.319868 195.466854 
L 78.508984 194.059786 
L 80.735177 192.482963 
L 82.999333 190.736784 
L 85.302361 188.821808 
L 87.645202 186.7387 
L 90.028819 184.488173 
L 92.454209 182.070936 
L 94.922395 179.487647 
L 97.434433 176.738869 
L 99.991409 173.825033 
L 102.594444 170.746407 
L 105.24469 167.503063 
L 107.943336 164.094864 
L 110.691606 160.521436 
L 113.490761 156.782162 
L 116.342102 152.876163 
L 119.246968 148.802297 
L 122.206739 144.559148 
L 125.222838 140.145025 
L 128.296729 135.557957 
L 131.429925 130.795694 
L 134.62398 125.855703 
L 137.8805 120.735172 
L 141.201137 115.431007 
L 144.587593 109.939834 
L 148.041625 104.258001 
L 151.565039 98.381576 
L 151.565039 98.381576 
L 153.353345 95.369088 
L 155.159699 92.306352 
" style="fill:none;stroke:#ff0000;stroke-linecap:square;stroke-width:1.5;"/>
   </g>
   <g id="line2d_14">
    <path clip-path="url(#p1d1ab11a5c)" d="M 55.320544 179.456678 
L 57.217255 181.09064 
L 59.144591 182.580431 
L 61.103257 183.919856 
L 63.093975 185.102669 
L 65.117487 186.122629 
L 67.174559 186.973567 
L 69.265978 187.649458 
L 71.392555 188.144488 
L 73.555124 188.453128 
L 75.754543 188.570203 
L 77.991697 188.490944 
L 80.267497 188.211043 
L 82.582881 187.726685 
L 84.938813 187.034569 
L 87.336291 186.131905 
L 89.776338 185.016406 
L 92.260011 183.686252 
L 94.788399 182.140045 
L 97.362622 180.376752 
L 99.983837 178.395634 
L 102.653236 176.196176 
L 105.372046 173.77801 
L 108.141533 171.140832 
L 110.963002 168.284337 
L 113.837799 165.20814 
L 116.767311 161.911713 
L 119.752968 158.39433 
L 122.796245 154.655008 
L 125.898664 150.692468 
L 129.061792 146.505091 
L 132.287247 142.090888 
L 135.576697 137.447469 
L 138.931862 132.572025 
L 142.354515 127.461301 
L 145.846485 122.111586 
L 149.409659 116.518697 
L 153.04598 110.677965 
L 156.757455 104.584228 
L 160.54615 98.23182 
L 160.54615 98.23182 
L 162.470118 94.956703 
" style="fill:none;stroke:#bfbf00;stroke-linecap:square;stroke-width:1.5;"/>
   </g>
   <g id="line2d_15">
    <path clip-path="url(#p1d1ab11a5c)" d="M 60.92307 116.547868 
L 62.870524 116.577755 
L 64.849412 116.478927 
L 66.860449 116.248677 
L 68.904368 115.88431 
L 70.981926 115.383143 
L 73.0939 114.742506 
L 75.241088 113.959741 
L 77.424311 113.032205 
L 79.644416 111.957267 
L 81.902272 110.732302 
L 84.198772 109.354692 
L 86.534838 107.821815 
L 88.911415 106.131044 
L 91.329478 104.279738 
L 93.79003 102.265233 
L 96.294101 100.08483 
L 98.842754 97.735793 
L 101.437081 95.21533 
L 104.078206 92.520585 
L 106.767288 89.648626 
L 109.505518 86.596432 
L 112.294122 83.36088 
L 115.134363 79.938732 
L 118.027541 76.326623 
L 118.027541 76.326623 
L 119.494397 74.448243 
L 120.974993 72.521045 
" style="fill:none;stroke:#bfbf00;stroke-linecap:square;stroke-width:1.5;"/>
   </g>
   <g id="line2d_16">
    <path clip-path="url(#p1d1ab11a5c)" d="M 65.222566 142.799654 
L 67.173277 142.083785 
L 69.154992 141.240677 
L 71.16841 140.268731 
L 73.214252 139.166413 
L 75.293258 137.932249 
L 77.406187 136.564818 
L 79.553825 135.062751 
L 81.736975 133.424721 
L 83.956466 131.649433 
L 86.213152 129.735619 
L 88.507909 127.68203 
L 90.84164 125.487424 
L 93.215275 123.150555 
L 95.62977 120.670168 
L 98.08611 118.044989 
L 100.585309 115.27371 
L 103.12841 112.354989 
L 105.716488 109.287433 
L 108.35065 106.069595 
L 111.032035 102.699964 
L 113.761817 99.176959 
L 116.541204 95.498922 
L 119.371442 91.664113 
L 122.253812 87.670705 
L 125.189635 83.516777 
L 128.180271 79.200314 
L 128.180271 79.200314 
L 129.69658 76.980476 
" style="fill:none;stroke:#bfbf00;stroke-linecap:square;stroke-width:1.5;"/>
   </g>
   <g id="line2d_17">
    <path clip-path="url(#p1d1ab11a5c)" d="M 54.948997 228.45947 
L 56.855677 229.76444 
L 58.793326 230.865001 
L 60.762656 231.747873 
L 62.7644 232.400614 
L 64.799311 232.812149 
L 66.868165 232.973275 
L 68.971759 232.877098 
L 71.110916 232.519321 
L 73.286481 231.898356 
L 75.499323 231.015244 
L 77.750339 229.873383 
L 80.040452 228.478134 
L 82.370611 226.836327 
L 84.741795 224.955763 
L 87.155011 222.844731 
L 89.611298 220.511592 
L 92.111724 217.964445 
L 94.657392 215.210876 
L 97.249436 212.257786 
L 99.889025 209.111284 
L 102.577365 205.77664 
L 105.315697 202.258266 
L 108.1053 198.559736 
L 110.947495 194.68382 
L 113.843639 190.632525 
L 116.795134 186.407149 
L 119.803424 182.008329 
L 122.869998 177.436096 
L 125.99639 172.689919 
L 129.184181 167.768752 
L 132.435002 162.671076 
L 135.750533 157.394933 
L 139.132505 151.937964 
L 142.582704 146.297436 
L 146.10297 140.470274 
L 149.695197 134.453081 
L 153.36134 128.242164 
L 157.10341 121.833554 
L 160.923482 115.223029 
L 164.823691 108.406127 
L 168.806236 101.378171 
L 168.806236 101.378171 
L 170.82909 97.78353 
" style="fill:none;stroke:#bfbf00;stroke-linecap:square;stroke-width:1.5;"/>
   </g>
   <g id="line2d_18">
    <path clip-path="url(#p1d1ab11a5c)" d="M 57.947087 162.815838 
L 59.839102 161.925626 
L 61.761475 160.90766 
L 63.714903 159.760699 
L 65.700106 158.483579 
L 67.717823 157.075212 
L 69.768815 155.534569 
L 71.853866 153.860667 
L 73.973783 152.052563 
L 76.129397 150.109337 
L 78.321564 148.030077 
L 80.551166 145.813866 
L 82.81911 143.459772 
L 85.126333 140.966829 
L 87.473799 138.334029 
L 89.8625 135.560303 
L 92.293461 132.644516 
L 94.767737 129.585451 
L 97.286417 126.381799 
L 99.850621 123.03215 
L 102.461506 119.534984 
L 105.120265 115.888659 
L 107.828126 112.091408 
L 110.586358 108.141327 
L 113.396268 104.036373 
L 116.259206 99.774355 
L 119.176562 95.352928 
L 122.149772 90.769592 
L 125.180316 86.021682 
L 128.269721 81.10637 
L 128.269721 81.10637 
L 129.836988 78.585009 
" style="fill:none;stroke:#bfbf00;stroke-linecap:square;stroke-width:1.5;"/>
   </g>
   <g id="line2d_19">
    <path clip-path="url(#p1d1ab11a5c)" d="M 64.998922 241.83572 
L 66.944664 242.083922 
L 68.921455 242.116364 
L 70.930001 241.928907 
L 72.97103 241.519993 
L 75.045289 240.890627 
L 77.153545 240.044163 
L 79.29659 238.985946 
L 81.475238 237.722848 
L 83.690326 236.262781 
L 85.942716 234.614214 
L 88.233293 232.785769 
L 90.562972 230.785875 
L 92.93269 228.622529 
L 95.343416 226.303118 
L 97.796144 223.834325 
L 100.2919 221.222074 
L 102.831738 218.471529 
L 105.416746 215.587109 
L 108.048042 212.572524 
L 110.726779 209.430825 
L 113.454142 206.164453 
L 116.231354 202.77529 
L 119.059672 199.264715 
L 121.940394 195.633644 
L 124.874854 191.882581 
L 127.864425 188.011655 
L 130.910525 184.020654 
L 134.01461 179.909063 
L 137.178183 175.676087 
L 140.402788 171.320681 
L 143.690019 166.841573 
L 147.041514 162.237279 
L 150.458962 157.506131 
L 153.944098 152.646286 
L 157.498713 147.655747 
L 161.124646 142.532376 
L 164.823793 137.273908 
L 168.598101 131.877965 
L 172.449575 126.342071 
L 176.380279 120.663663 
L 180.392333 114.840109 
L 184.487916 108.86872 
L 184.487916 108.86872 
L 186.567729 105.826735 
" style="fill:none;stroke:#bfbf00;stroke-linecap:square;stroke-width:1.5;"/>
   </g>
   <g id="line2d_20">
    <path clip-path="url(#p1d1ab11a5c)" d="M 50.230112 153.992588 
L 52.069951 152.021589 
L 53.939585 149.907922 
L 55.839708 147.650495 
L 57.771038 145.248186 
L 59.734312 142.699827 
L 61.73029 140.004186 
L 63.759754 137.159951 
L 65.823513 134.165716 
L 67.922397 131.019965 
L 70.057264 127.721058 
L 72.228996 124.267217 
L 74.438504 120.656513 
L 76.686728 116.886855 
L 78.974636 112.955973 
L 81.303227 108.861413 
L 83.673531 104.60052 
L 86.086612 100.170432 
L 88.543565 95.568063 
L 91.045522 90.790098 
L 93.593652 85.832978 
L 96.189159 80.69289 
L 98.833288 75.365758 
L 101.527324 69.847227 
L 101.527324 69.847227 
L 102.893469 67.014747 
L 104.272591 64.132654 
" style="fill:none;stroke:#bfbf00;stroke-linecap:square;stroke-width:1.5;"/>
   </g>
   <g id="line2d_21">
    <path clip-path="url(#p1d1ab11a5c)" d="M 65.470328 88.851872 
L 67.426462 88.543273 
L 69.413769 88.113453 
L 71.432952 87.560174 
L 73.484735 86.881192 
L 75.569861 86.074257 
L 77.689095 85.137111 
L 79.843223 84.067488 
L 82.033054 82.863111 
L 84.259419 81.521692 
L 86.523175 80.040926 
L 88.825201 78.418493 
L 91.166403 76.652048 
L 93.547713 74.739221 
L 95.970089 72.677611 
L 98.434519 70.464782 
L 100.942016 68.098256 
L 100.942016 68.098256 
L 102.212241 66.85657 
L 103.493627 65.575508 
" style="fill:none;stroke:#bfbf00;stroke-linecap:square;stroke-width:1.5;"/>
   </g>
   <g id="line2d_22">
    <path clip-path="url(#p1d1ab11a5c)" d="M 61.827192 230.208532 
L 63.757386 230.176924 
L 65.718524 229.95098 
L 67.711311 229.52862 
L 69.736477 228.909134 
L 71.79477 228.093117 
L 73.886961 227.08234 
L 76.013842 225.879574 
L 78.176229 224.488386 
L 80.374963 222.912915 
L 82.610908 221.15766 
L 84.884954 219.227276 
L 87.198017 217.126409 
L 89.551043 214.859541 
L 91.945001 212.430885 
L 94.380894 209.844294 
L 96.859753 207.103205 
L 99.382638 204.210599 
L 101.950645 201.16898 
L 104.564901 197.98037 
L 107.226566 194.64631 
L 109.936837 191.167868 
L 112.696946 187.545654 
L 115.508165 183.779838 
L 118.371801 179.870161 
L 121.289204 175.815961 
L 124.261763 171.616181 
L 127.290911 167.269393 
L 130.378124 162.773802 
L 133.524924 158.127266 
L 136.732876 153.327304 
L 140.003597 148.3711 
L 143.338751 143.255517 
L 146.740051 137.977096 
L 150.209264 132.532058 
L 153.74821 126.916311 
L 157.358761 121.125445 
L 161.042848 115.154728 
L 164.802458 108.999108 
L 168.639636 102.653204 
L 168.639636 102.653204 
L 170.587968 99.407122 
" style="fill:none;stroke:#bfbf00;stroke-linecap:square;stroke-width:1.5;"/>
   </g>
   <g id="line2d_23">
    <path clip-path="url(#p1d1ab11a5c)" d="M 68.70748 164.983192 
L 70.698 166.848068 
L 72.720124 168.593646 
L 74.774556 170.21518 
L 76.862022 171.707814 
L 78.983265 173.066599 
L 81.139049 174.286532 
L 83.330161 175.362589 
L 85.557409 176.289761 
L 87.821622 177.0631 
L 90.123654 177.677758 
L 92.464382 178.129038 
L 94.844708 178.412427 
L 97.265561 178.523648 
L 99.727892 178.458688 
L 102.232683 178.213834 
L 104.780942 177.785694 
L 107.373706 177.171212 
L 110.012041 176.367676 
L 112.697043 175.372712 
L 115.42984 174.184272 
L 118.211591 172.800613 
L 121.043489 171.220266 
L 123.926761 169.442002 
L 126.862668 167.464786 
L 129.852507 165.287738 
L 132.897611 162.91008 
L 135.999352 160.331093 
L 139.159141 157.550068 
L 142.378427 154.566264 
L 145.658701 151.37886 
L 149.001496 147.986925 
L 152.408386 144.389374 
L 155.88099 140.584946 
L 159.420972 136.57217 
L 163.03004 132.349347 
L 166.709951 127.914532 
L 170.462506 123.265513 
L 174.289559 118.399806 
L 178.19301 113.314642 
L 182.174809 108.006962 
L 182.174809 108.006962 
L 184.195712 105.268644 
" style="fill:none;stroke:#bfbf00;stroke-linecap:square;stroke-width:1.5;"/>
   </g>
   <g id="line2d_24">
    <path clip-path="url(#p1d1ab11a5c)" d="M 46.145455 228.946601 
L 47.966162 229.853628 
L 49.816682 230.586741 
L 51.697718 231.137543 
L 53.609994 231.498492 
L 55.554255 231.663165 
L 57.53127 231.626487 
L 59.541832 231.384891 
L 61.586756 230.936406 
L 63.666885 230.280649 
L 65.783084 229.418738 
L 67.936249 228.353122 
L 70.127302 227.08736 
L 72.357194 225.625862 
L 74.626906 223.97363 
L 76.937451 222.136001 
L 79.289872 220.118417 
L 81.685247 217.926242 
L 84.124689 215.564599 
L 86.609344 213.038256 
L 89.1404 210.351549 
L 91.719077 207.508322 
L 94.346641 204.511903 
L 97.024394 201.365095 
L 99.753685 198.070174 
L 102.535905 194.628907 
L 105.37249 191.04257 
L 108.264925 187.31197 
L 111.214745 183.437472 
L 114.223533 179.419023 
L 117.292927 175.256179 
L 120.424619 170.948127 
L 123.620356 166.493709 
L 126.881947 161.891442 
L 130.211257 157.13954 
L 133.610216 152.235928 
L 137.080817 147.178261 
L 140.625122 141.963941 
L 144.24526 136.590124 
L 147.94343 131.053738 
L 151.721907 125.351497 
L 155.58304 119.479905 
L 159.529255 113.435275 
L 163.56306 107.213733 
L 167.687044 100.811234 
L 167.687044 100.811234 
L 169.783686 97.540817 
" style="fill:none;stroke:#bfbf00;stroke-linecap:square;stroke-width:1.5;"/>
   </g>
   <g id="line2d_25">
    <path clip-path="url(#p1d1ab11a5c)" d="M 58.504023 128.570726 
L 60.422086 127.735404 
L 62.371019 126.743728 
L 64.351527 125.593011 
L 66.364335 124.2806 
L 68.410189 122.803874 
L 70.489855 121.160232 
L 72.604123 119.347084 
L 74.753805 117.361837 
L 76.939737 115.201888 
L 79.162779 112.864603 
L 81.423815 110.347306 
L 83.723759 107.647262 
L 86.063547 104.761659 
L 88.444146 101.687592 
L 90.86655 98.422044 
L 93.331784 94.961866 
L 95.840903 91.303764 
L 98.394992 87.444276 
L 100.995171 83.379755 
L 103.642592 79.106351 
L 106.338443 74.61999 
L 109.083945 69.916361 
L 109.083945 69.916361 
L 110.475708 67.481654 
" style="fill:none;stroke:#bfbf00;stroke-linecap:square;stroke-width:1.5;"/>
   </g>
   <g id="line2d_26">
    <path clip-path="url(#p1d1ab11a5c)" d="M 48.495017 183.380173 
L 50.357194 186.587968 
L 52.249926 189.699087 
L 54.173927 192.707828 
L 56.129933 195.607887 
L 58.118697 198.392304 
L 60.141001 201.053425 
L 62.197644 203.582863 
L 64.289453 205.971482 
L 66.417278 208.209396 
L 68.581996 210.285996 
L 70.784509 212.190023 
L 73.025748 213.909672 
L 75.306671 215.432766 
L 77.628267 216.74697 
L 79.991553 217.840077 
L 82.39758 218.700331 
L 84.847431 219.316787 
L 87.342222 219.679679 
L 89.883103 219.780752 
L 92.471264 219.613549 
L 95.107927 219.173591 
L 97.794356 218.458454 
L 100.531855 217.467718 
L 103.321768 216.202806 
L 106.165482 214.666727 
L 109.06443 212.863754 
L 112.020087 210.79908 
L 115.03398 208.478466 
L 118.10768 205.90792 
L 121.242812 203.093418 
L 124.441052 200.040675 
L 127.704129 196.754964 
L 131.033829 193.240995 
L 134.431995 189.502827 
L 137.900528 185.543819 
L 141.441392 181.366607 
L 145.056612 176.97311 
L 148.74828 172.36454 
L 152.518553 167.54143 
L 156.369657 162.503665 
L 160.303889 157.25052 
L 164.323619 151.780697 
L 168.431291 146.092361 
L 172.629427 140.183181 
L 176.920624 134.050364 
L 181.307564 127.690692 
L 185.793007 121.100558 
L 190.379801 114.275996 
L 190.379801 114.275996 
L 192.712116 110.774476 
" style="fill:none;stroke:#bfbf00;stroke-linecap:square;stroke-width:1.5;"/>
   </g>
   <g id="line2d_27">
    <path clip-path="url(#p1d1ab11a5c)" d="M 57.575252 120.529764 
L 59.473174 118.914863 
L 61.401671 117.169206 
L 63.361448 115.29115 
L 65.353228 113.279038 
L 67.377755 111.131196 
L 69.435797 108.845923 
L 71.528143 106.421483 
L 73.655603 103.856097 
L 75.819015 101.147935 
L 78.019239 98.295107 
L 80.257163 95.295656 
L 82.533698 92.147546 
L 84.849785 88.848656 
L 87.206393 85.396772 
L 89.604519 81.789577 
L 92.045192 78.024643 
L 94.529471 74.099425 
L 97.058446 70.011251 
L 99.633244 65.757313 
L 99.633244 65.757313 
L 100.938187 63.567267 
" style="fill:none;stroke:#bfbf00;stroke-linecap:square;stroke-width:1.5;"/>
   </g>
   <g id="line2d_28">
    <path clip-path="url(#p1d1ab11a5c)" d="M 58.26594 236.3577 
L 60.17914 237.862449 
L 62.123122 239.154163 
L 64.098591 240.214252 
L 66.106268 241.024784 
L 68.146901 241.569477 
L 70.221253 241.834734 
L 72.330113 241.810584 
L 74.474292 241.49136 
L 76.654626 240.875964 
L 78.871972 239.967686 
L 81.127216 238.773611 
L 83.421267 237.30374 
L 85.755064 235.569997 
L 88.129571 233.585261 
L 90.545783 231.362546 
L 93.004723 228.914363 
L 95.507445 226.25228 
L 98.055036 223.386661 
L 100.648614 220.326537 
L 103.289331 217.079575 
L 105.978375 213.652121 
L 108.716969 210.049272 
L 111.506372 206.274977 
L 114.347884 202.332137 
L 117.242843 198.222709 
L 120.192626 193.9478 
L 123.198656 189.507758 
L 126.262395 184.902246 
L 129.385352 180.130313 
L 132.569082 175.190451 
L 135.815185 170.080646 
L 139.125313 164.798426 
L 142.501166 159.34089 
L 145.944496 153.704749 
L 149.457107 147.886347 
L 153.040858 141.881688 
L 156.697664 135.686454 
L 160.429498 129.296025 
L 164.238389 122.705495 
L 168.126429 115.909685 
L 172.09577 108.903159 
L 172.09577 108.903159 
L 174.111618 105.319111 
L 176.148627 101.680235 
" style="fill:none;stroke:#bfbf00;stroke-linecap:square;stroke-width:1.5;"/>
   </g>
   <g id="line2d_29">
    <path clip-path="url(#p1d1ab11a5c)" d="M 62.377163 224.959454 
L 64.323925 225.648322 
L 66.301904 226.132993 
L 68.311808 226.40579 
L 70.354366 226.460321 
L 72.430326 226.29168 
L 74.540459 225.896584 
L 76.685557 225.273415 
L 78.866435 224.422171 
L 81.083933 223.344334 
L 83.338913 222.042665 
L 85.632262 220.52095 
L 87.964894 218.783735 
L 90.337749 216.836042 
L 92.751794 214.683125 
L 95.208027 212.33024 
L 97.70747 209.782463 
L 100.251181 207.044541 
L 102.840245 204.120788 
L 105.47578 201.015009 
L 108.158937 197.730452 
L 110.890903 194.269786 
L 113.672897 190.635093 
L 116.506176 186.827872 
L 119.392034 182.849058 
L 122.331804 178.699037 
L 125.326857 174.377669 
L 128.378606 169.884317 
L 131.488504 165.217866 
L 134.658049 160.376747 
L 137.888783 155.358962 
L 141.182292 150.162103 
L 144.54021 144.78337 
L 147.964218 139.219589 
L 151.456047 133.467227 
L 155.017477 127.522403 
L 158.650341 121.380907 
L 162.356523 115.0382 
L 166.137962 108.489434 
L 169.996652 101.729454 
L 169.996652 101.729454 
L 171.955605 98.268566 
" style="fill:none;stroke:#bfbf00;stroke-linecap:square;stroke-width:1.5;"/>
   </g>
   <g id="line2d_30">
    <path clip-path="url(#p1d1ab11a5c)" d="M 62.36683 198.569713 
L 64.308809 197.440836 
L 66.282098 196.136768 
L 68.287414 194.657165 
L 70.325499 193.001937 
L 72.397114 191.171196 
L 74.503042 189.165186 
L 76.644088 186.984223 
L 78.821083 184.628634 
L 81.034881 182.098697 
L 83.286359 179.394592 
L 85.576423 176.516351 
L 87.906003 173.463816 
L 90.27606 170.236604 
L 92.68758 166.834073 
L 95.14158 163.255298 
L 97.639106 159.499044 
L 100.181238 155.56375 
L 102.769086 151.447512 
L 105.403793 147.148068 
L 108.086538 142.662785 
L 110.818534 137.988647 
L 113.601033 133.122247 
L 116.435321 128.059773 
L 119.322725 122.797001 
L 122.264612 117.329279 
L 125.262391 111.651521 
L 128.31751 105.758188 
L 131.431465 99.64328 
L 134.605795 93.300315 
L 137.842084 86.722314 
L 137.842084 86.722314 
L 139.483972 83.342853 
" style="fill:none;stroke:#bfbf00;stroke-linecap:square;stroke-width:1.5;"/>
   </g>
   <g id="line2d_31">
    <path clip-path="url(#p1d1ab11a5c)" d="M 49.018064 151.952237 
L 50.878788 152.943178 
L 52.770004 153.795245 
L 54.692426 154.504591 
L 56.646787 155.067424 
L 58.633844 155.480026 
L 60.654375 155.738779 
L 62.709182 155.840176 
L 64.799092 155.780849 
L 66.924954 155.557581 
L 69.087645 155.167314 
L 71.288069 154.607167 
L 73.527157 153.874434 
L 75.805868 152.96659 
L 78.125192 151.881282 
L 80.486148 150.616328 
L 82.889789 149.169703 
L 85.337197 147.539522 
L 87.829492 145.724025 
L 90.367828 143.721553 
L 92.953393 141.530528 
L 95.587415 139.149426 
L 98.271161 136.576753 
L 101.005938 133.811016 
L 103.793093 130.850702 
L 106.634019 127.694251 
L 109.530151 124.340028 
L 112.482972 120.786306 
L 115.494011 117.031244 
L 118.564849 113.072861 
L 121.697116 108.90903 
L 124.892494 104.537449 
L 128.152722 99.95564 
L 131.479593 95.160928 
L 134.874959 90.150436 
L 138.340732 84.921074 
L 138.340732 84.921074 
L 140.100635 82.223293 
" style="fill:none;stroke:#bfbf00;stroke-linecap:square;stroke-width:1.5;"/>
   </g>
   <g id="line2d_32">
    <path clip-path="url(#p1d1ab11a5c)" d="M 60.246899 190.300867 
L 62.177008 188.105735 
L 64.138243 185.776144 
L 66.131318 183.312784 
L 68.156969 180.716239 
L 70.215952 177.986957 
L 72.309045 175.125236 
L 74.43705 172.131211 
L 76.600791 169.004841 
L 78.801117 165.745899 
L 81.038902 162.353968 
L 83.315045 158.828434 
L 85.630472 155.16848 
L 87.986138 151.373091 
L 90.383025 147.441044 
L 92.822144 143.370911 
L 95.304538 139.161061 
L 97.831281 134.809654 
L 100.403477 130.314645 
L 103.022267 125.673785 
L 105.688825 120.884617 
L 108.40436 115.944481 
L 111.170118 110.850508 
L 113.987383 105.599627 
L 116.85748 100.188557 
L 119.781772 94.613812 
L 122.761665 88.871697 
L 125.798606 82.958307 
L 125.798606 82.958307 
L 127.338934 79.936107 
L 128.894088 76.86953 
" style="fill:none;stroke:#bfbf00;stroke-linecap:square;stroke-width:1.5;"/>
   </g>
   <g id="line2d_33">
    <path clip-path="url(#p1d1ab11a5c)" d="M 61.942647 122.985016 
L 63.884249 124.183253 
L 65.856948 125.263804 
L 67.861449 126.223623 
L 69.898475 127.059652 
L 71.968771 127.768824 
L 74.073101 128.348079 
L 76.212253 128.794373 
L 78.387037 129.104686 
L 80.598284 129.276033 
L 82.846852 129.305473 
L 85.133622 129.190118 
L 87.459501 128.927139 
L 89.825421 128.513772 
L 92.232344 127.947322 
L 94.681257 127.22517 
L 97.173177 126.344769 
L 99.709151 125.303647 
L 102.290256 124.099404 
L 104.917602 122.729706 
L 107.59233 121.192283 
L 110.315615 119.484921 
L 113.088669 117.60545 
L 115.912735 115.551738 
L 118.789097 113.321676 
L 121.719075 110.913169 
L 124.704029 108.324125 
L 127.745356 105.552437 
L 130.844499 102.595973 
L 134.00294 99.452561 
L 137.222205 96.11998 
L 140.503865 92.595943 
L 143.849539 88.878086 
L 143.849539 88.878086 
L 145.546898 86.945714 
" style="fill:none;stroke:#bfbf00;stroke-linecap:square;stroke-width:1.5;"/>
   </g>
   <g id="line2d_34">
    <path clip-path="url(#p1d1ab11a5c)" d="M 54.696948 199.868334 
L 56.570661 200.904913 
L 58.474563 201.804879 
L 60.409349 202.563158 
L 62.375737 203.174854 
L 64.374463 203.635315 
L 66.406288 203.940201 
L 68.471993 204.085551 
L 70.572383 204.067833 
L 72.708287 203.883993 
L 74.880559 203.531486 
L 77.090079 203.008296 
L 79.337751 202.312934 
L 81.624511 201.444425 
L 83.951318 200.402278 
L 86.319165 199.186445 
L 88.729073 197.797266 
L 91.182095 196.235407 
L 93.679316 194.501797 
L 96.221855 192.597559 
L 98.810865 190.523945 
L 101.447536 188.28227 
L 104.133094 185.873856 
L 106.868804 183.299978 
L 109.655971 180.56182 
L 112.49594 177.660434 
L 115.390099 174.596709 
L 118.339879 171.371344 
L 121.346756 167.984831 
L 124.412255 164.437437 
L 127.537946 160.729197 
L 130.725449 156.859909 
L 133.976439 152.829127 
L 137.292638 148.636169 
L 140.675828 144.280111 
L 144.127843 139.759801 
L 147.650576 135.073859 
L 151.245982 130.220687 
L 154.916074 125.19848 
L 158.662928 120.005235 
L 162.488688 114.63876 
L 166.395562 109.096688 
L 170.385825 103.376493 
L 170.385825 103.376493 
L 172.412958 100.448767 
" style="fill:none;stroke:#bfbf00;stroke-linecap:square;stroke-width:1.5;"/>
   </g>
   <g id="line2d_35">
    <path clip-path="url(#p1d1ab11a5c)" d="M 70.693643 210.256859 
L 72.681913 206.399577 
L 74.701553 202.434952 
L 76.753265 198.361183 
L 78.837767 194.176181 
L 80.955796 189.877599 
L 83.108114 185.462843 
L 85.2955 180.929091 
L 87.518757 176.273299 
L 89.77871 171.492208 
L 92.076207 166.582348 
L 94.412121 161.540041 
L 96.787349 156.3614 
L 99.202812 151.042329 
L 101.65946 145.578519 
L 104.158269 139.965444 
L 106.700242 134.198359 
L 109.286412 128.272289 
L 111.91784 122.182027 
L 114.595619 115.922125 
L 117.320872 109.486882 
L 120.094756 102.87034 
L 122.91846 96.066269 
L 125.793207 89.068161 
L 128.720256 81.869213 
L 128.720256 81.869213 
L 130.203797 78.192215 
" style="fill:none;stroke:#bfbf00;stroke-linecap:square;stroke-width:1.5;"/>
   </g>
   <g id="line2d_36">
    <path clip-path="url(#p1d1ab11a5c)" d="M 66.141154 201.013538 
L 68.100486 201.491601 
L 70.090964 201.822504 
L 72.113287 202.002552 
L 74.168177 202.028421 
L 76.256374 201.897191 
L 78.37864 201.606384 
L 80.535758 201.15398 
L 82.728534 200.538423 
L 84.957794 199.758617 
L 87.224392 198.813903 
L 89.529204 197.704032 
L 91.873132 196.429126 
L 94.257102 194.989628 
L 96.682069 193.386248 
L 99.149015 191.619914 
L 101.658951 189.691712 
L 104.212916 187.602831 
L 106.811979 185.354515 
L 109.457244 182.948014 
L 112.149842 180.384542 
L 114.890941 177.665244 
L 117.68174 174.791159 
L 120.523477 171.763202 
L 123.417424 168.582141 
L 126.364889 165.248583 
L 129.36722 161.762962 
L 132.425806 158.125537 
L 135.542073 154.336389 
L 138.717491 150.395417 
L 141.953573 146.302347 
L 145.251876 142.056735 
L 148.614001 137.657975 
L 152.041596 133.105311 
L 155.536357 128.397845 
L 159.100028 123.53455 
L 162.734403 118.514287 
L 166.441329 113.335819 
L 170.222701 107.997826 
L 174.080471 102.498927 
L 174.080471 102.498927 
L 176.038629 99.688694 
" style="fill:none;stroke:#bfbf00;stroke-linecap:square;stroke-width:1.5;"/>
   </g>
   <g id="line2d_37">
    <path clip-path="url(#p1d1ab11a5c)" d="M 67.018371 107.967006 
L 68.962857 105.312768 
L 70.937898 102.522801 
L 72.944176 99.595374 
L 74.982391 96.528686 
L 77.053267 93.320856 
L 79.157544 89.969919 
L 81.295985 86.473815 
L 83.469376 82.830385 
L 85.678522 79.037359 
L 87.924255 75.092356 
L 90.207429 70.99287 
L 92.528922 66.736266 
L 94.88964 62.319774 
L 94.88964 62.319774 
L 96.084997 60.050665 
" style="fill:none;stroke:#bfbf00;stroke-linecap:square;stroke-width:1.5;"/>
   </g>
   <g id="line2d_38">
    <path clip-path="url(#p1d1ab11a5c)" d="M 49.539473 228.694186 
L 51.387902 229.768804 
L 53.266471 230.663683 
L 55.175885 231.368919 
L 57.116873 231.875385 
L 59.090181 232.175069 
L 61.096583 232.261384 
L 63.136872 232.129415 
L 65.211867 231.776081 
L 67.322413 231.200189 
L 69.469378 230.40237 
L 71.65366 229.384915 
L 73.876182 228.151523 
L 76.137898 226.707 
L 78.439789 225.056936 
L 80.782871 223.207388 
L 83.168187 221.164597 
L 85.596817 218.934739 
L 88.069874 216.523736 
L 90.588505 213.937106 
L 93.153895 211.179862 
L 95.767267 208.256448 
L 98.429884 205.170705 
L 101.143049 201.925863 
L 103.908107 198.524541 
L 106.726446 194.968771 
L 109.599502 191.260021 
L 112.528755 187.399223 
L 115.515734 183.386807 
L 118.56202 179.222732 
L 121.669244 174.906513 
L 124.83909 170.437255 
L 128.073301 165.813675 
L 131.373672 161.034131 
L 134.742063 156.09664 
L 138.18039 150.998904 
L 141.690635 145.738322 
L 145.274844 140.312011 
L 148.935131 134.71682 
L 152.673679 128.949343 
L 156.492742 123.005933 
L 160.394647 116.882713 
L 164.381797 110.575591 
L 168.456672 104.080264 
L 168.456672 104.080264 
L 170.527803 100.760626 
L 172.621832 97.392236 
" style="fill:none;stroke:#bfbf00;stroke-linecap:square;stroke-width:1.5;"/>
   </g>
   <g id="line2d_39">
    <path clip-path="url(#p1d1ab11a5c)" d="M 59.615275 44.443636 
L 83.072804 55.931398 
L 110.334735 69.548642 
L 142.842543 86.051397 
L 204.867117 117.857096 
L 237.967343 134.730625 
L 249.054545 140.331896 
L 249.054545 140.331896 
" style="fill:none;stroke:#008000;stroke-linecap:square;stroke-width:1.5;"/>
   </g>
   <g id="patch_3">
    <path d="M 36 252 
L 36 34.56 
" style="fill:none;stroke:#000000;stroke-linecap:square;stroke-linejoin:miter;stroke-width:0.8;"/>
   </g>
   <g id="patch_4">
    <path d="M 259.2 252 
L 259.2 34.56 
" style="fill:none;stroke:#000000;stroke-linecap:square;stroke-linejoin:miter;stroke-width:0.8;"/>
   </g>
   <g id="patch_5">
    <path d="M 36 252 
L 259.2 252 
" style="fill:none;stroke:#000000;stroke-linecap:square;stroke-linejoin:miter;stroke-width:0.8;"/>
   </g>
   <g id="patch_6">
    <path d="M 36 34.56 
L 259.2 34.56 
" style="fill:none;stroke:#000000;stroke-linecap:square;stroke-linejoin:miter;stroke-width:0.8;"/>
   </g>
   <g id="text_15">
    <!--  0.64 -->
    <defs>
     <path id="DejaVuSans-32"/>
    </defs>
    <g transform="translate(155.159699 92.306352)scale(0.1 -0.1)">
     <use xlink:href="#DejaVuSans-32"/>
     <use x="31.787109" xlink:href="#DejaVuSans-48"/>
     <use x="95.410156" xlink:href="#DejaVuSans-46"/>
     <use x="127.197266" xlink:href="#DejaVuSans-54"/>
     <use x="190.820312" xlink:href="#DejaVuSans-52"/>
    </g>
   </g>
   <g id="text_16">
    <!--  f=1 -->
    <defs>
     <path d="M 37.109375 75.984375 
L 37.109375 68.5 
L 28.515625 68.5 
Q 23.6875 68.5 21.796875 66.546875 
Q 19.921875 64.59375 19.921875 59.515625 
L 19.921875 54.6875 
L 34.71875 54.6875 
L 34.71875 47.703125 
L 19.921875 47.703125 
L 19.921875 0 
L 10.890625 0 
L 10.890625 47.703125 
L 2.296875 47.703125 
L 2.296875 54.6875 
L 10.890625 54.6875 
L 10.890625 58.5 
Q 10.890625 67.625 15.140625 71.796875 
Q 19.390625 75.984375 28.609375 75.984375 
z
" id="DejaVuSans-102"/>
     <path d="M 10.59375 45.40625 
L 73.1875 45.40625 
L 73.1875 37.203125 
L 10.59375 37.203125 
z
M 10.59375 25.484375 
L 73.1875 25.484375 
L 73.1875 17.1875 
L 10.59375 17.1875 
z
" id="DejaVuSans-61"/>
    </defs>
    <g transform="translate(41.429835 200.659453)scale(0.1 -0.1)">
     <use xlink:href="#DejaVuSans-32"/>
     <use x="31.787109" xlink:href="#DejaVuSans-102"/>
     <use x="66.992188" xlink:href="#DejaVuSans-61"/>
     <use x="150.78125" xlink:href="#DejaVuSans-49"/>
    </g>
   </g>
  </g>
 </g>
 <defs>
  <clipPath id="p1d1ab11a5c">
   <rect height="217.44" width="223.2" x="36" y="34.56"/>
  </clipPath>
 </defs>
</svg>
