<?xml version="1.0" encoding="utf-8" standalone="no"?>
<!DOCTYPE svg PUBLIC "-//W3C//DTD SVG 1.1//EN"
  "http://www.w3.org/Graphics/SVG/1.1/DTD/svg11.dtd">
<!-- Created with matplotlib (https://matplotlib.org/) -->
<svg height="288pt" version="1.1" viewBox="0 0 288 288" width="288pt" xmlns="http://www.w3.org/2000/svg" xmlns:xlink="http://www.w3.org/1999/xlink">
 <defs>
  <style type="text/css">
*{stroke-linecap:butt;stroke-linejoin:round;}
  </style>
 </defs>
 <g id="figure_1">
  <g id="patch_1">
   <path d="M 0 288 
L 288 288 
L 288 0 
L 0 0 
z
" style="fill:#ffffff;"/>
  </g>
  <g id="axes_1">
   <g id="patch_2">
    <path d="M 36 252 
L 259.2 252 
L 259.2 34.56 
L 36 34.56 
z
" style="fill:#ffffff;"/>
   </g>
   <g id="matplotlib.axis_1">
    <g id="xtick_1">
     <g id="line2d_1">
      <defs>
       <path d="M 0 0 
L 0 3.5 
" id="m84efa82356" style="stroke:#000000;stroke-width:0.8;"/>
      </defs>
      <g>
       <use style="stroke:#000000;stroke-width:0.8;" x="88.720559" xlink:href="#m84efa82356" y="252"/>
      </g>
     </g>
     <g id="text_1">
      <!-- 30 -->
      <defs>
       <path d="M 40.578125 39.3125 
Q 47.65625 37.796875 51.625 33 
Q 55.609375 28.21875 55.609375 21.1875 
Q 55.609375 10.40625 48.1875 4.484375 
Q 40.765625 -1.421875 27.09375 -1.421875 
Q 22.515625 -1.421875 17.65625 -0.515625 
Q 12.796875 0.390625 7.625 2.203125 
L 7.625 11.71875 
Q 11.71875 9.328125 16.59375 8.109375 
Q 21.484375 6.890625 26.8125 6.890625 
Q 36.078125 6.890625 40.9375 10.546875 
Q 45.796875 14.203125 45.796875 21.1875 
Q 45.796875 27.640625 41.28125 31.265625 
Q 36.765625 34.90625 28.71875 34.90625 
L 20.21875 34.90625 
L 20.21875 43.015625 
L 29.109375 43.015625 
Q 36.375 43.015625 40.234375 45.921875 
Q 44.09375 48.828125 44.09375 54.296875 
Q 44.09375 59.90625 40.109375 62.90625 
Q 36.140625 65.921875 28.71875 65.921875 
Q 24.65625 65.921875 20.015625 65.03125 
Q 15.375 64.15625 9.8125 62.3125 
L 9.8125 71.09375 
Q 15.4375 72.65625 20.34375 73.4375 
Q 25.25 74.21875 29.59375 74.21875 
Q 40.828125 74.21875 47.359375 69.109375 
Q 53.90625 64.015625 53.90625 55.328125 
Q 53.90625 49.265625 50.4375 45.09375 
Q 46.96875 40.921875 40.578125 39.3125 
z
" id="DejaVuSans-51"/>
       <path d="M 31.78125 66.40625 
Q 24.171875 66.40625 20.328125 58.90625 
Q 16.5 51.421875 16.5 36.375 
Q 16.5 21.390625 20.328125 13.890625 
Q 24.171875 6.390625 31.78125 6.390625 
Q 39.453125 6.390625 43.28125 13.890625 
Q 47.125 21.390625 47.125 36.375 
Q 47.125 51.421875 43.28125 58.90625 
Q 39.453125 66.40625 31.78125 66.40625 
z
M 31.78125 74.21875 
Q 44.046875 74.21875 50.515625 64.515625 
Q 56.984375 54.828125 56.984375 36.375 
Q 56.984375 17.96875 50.515625 8.265625 
Q 44.046875 -1.421875 31.78125 -1.421875 
Q 19.53125 -1.421875 13.0625 8.265625 
Q 6.59375 17.96875 6.59375 36.375 
Q 6.59375 54.828125 13.0625 64.515625 
Q 19.53125 74.21875 31.78125 74.21875 
z
" id="DejaVuSans-48"/>
      </defs>
      <g transform="translate(82.358059 266.598437)scale(0.1 -0.1)">
       <use xlink:href="#DejaVuSans-51"/>
       <use x="63.623047" xlink:href="#DejaVuSans-48"/>
      </g>
     </g>
    </g>
    <g id="xtick_2">
     <g id="line2d_2">
      <g>
       <use style="stroke:#000000;stroke-width:0.8;" x="151.435462" xlink:href="#m84efa82356" y="252"/>
      </g>
     </g>
     <g id="text_2">
      <!-- 35 -->
      <defs>
       <path d="M 10.796875 72.90625 
L 49.515625 72.90625 
L 49.515625 64.59375 
L 19.828125 64.59375 
L 19.828125 46.734375 
Q 21.96875 47.46875 24.109375 47.828125 
Q 26.265625 48.1875 28.421875 48.1875 
Q 40.625 48.1875 47.75 41.5 
Q 54.890625 34.8125 54.890625 23.390625 
Q 54.890625 11.625 47.5625 5.09375 
Q 40.234375 -1.421875 26.90625 -1.421875 
Q 22.3125 -1.421875 17.546875 -0.640625 
Q 12.796875 0.140625 7.71875 1.703125 
L 7.71875 11.625 
Q 12.109375 9.234375 16.796875 8.0625 
Q 21.484375 6.890625 26.703125 6.890625 
Q 35.15625 6.890625 40.078125 11.328125 
Q 45.015625 15.765625 45.015625 23.390625 
Q 45.015625 31 40.078125 35.4375 
Q 35.15625 39.890625 26.703125 39.890625 
Q 22.75 39.890625 18.8125 39.015625 
Q 14.890625 38.140625 10.796875 36.28125 
z
" id="DejaVuSans-53"/>
      </defs>
      <g transform="translate(145.072962 266.598437)scale(0.1 -0.1)">
       <use xlink:href="#DejaVuSans-51"/>
       <use x="63.623047" xlink:href="#DejaVuSans-53"/>
      </g>
     </g>
    </g>
    <g id="xtick_3">
     <g id="line2d_3">
      <g>
       <use style="stroke:#000000;stroke-width:0.8;" x="214.150364" xlink:href="#m84efa82356" y="252"/>
      </g>
     </g>
     <g id="text_3">
      <!-- 40 -->
      <defs>
       <path d="M 37.796875 64.3125 
L 12.890625 25.390625 
L 37.796875 25.390625 
z
M 35.203125 72.90625 
L 47.609375 72.90625 
L 47.609375 25.390625 
L 58.015625 25.390625 
L 58.015625 17.1875 
L 47.609375 17.1875 
L 47.609375 0 
L 37.796875 0 
L 37.796875 17.1875 
L 4.890625 17.1875 
L 4.890625 26.703125 
z
" id="DejaVuSans-52"/>
      </defs>
      <g transform="translate(207.787864 266.598437)scale(0.1 -0.1)">
       <use xlink:href="#DejaVuSans-52"/>
       <use x="63.623047" xlink:href="#DejaVuSans-48"/>
      </g>
     </g>
    </g>
    <g id="text_4">
     <!-- Inclination -->
     <defs>
      <path d="M 9.8125 72.90625 
L 19.671875 72.90625 
L 19.671875 0 
L 9.8125 0 
z
" id="DejaVuSans-73"/>
      <path d="M 54.890625 33.015625 
L 54.890625 0 
L 45.90625 0 
L 45.90625 32.71875 
Q 45.90625 40.484375 42.875 44.328125 
Q 39.84375 48.1875 33.796875 48.1875 
Q 26.515625 48.1875 22.3125 43.546875 
Q 18.109375 38.921875 18.109375 30.90625 
L 18.109375 0 
L 9.078125 0 
L 9.078125 54.6875 
L 18.109375 54.6875 
L 18.109375 46.1875 
Q 21.34375 51.125 25.703125 53.5625 
Q 30.078125 56 35.796875 56 
Q 45.21875 56 50.046875 50.171875 
Q 54.890625 44.34375 54.890625 33.015625 
z
" id="DejaVuSans-110"/>
      <path d="M 48.78125 52.59375 
L 48.78125 44.1875 
Q 44.96875 46.296875 41.140625 47.34375 
Q 37.3125 48.390625 33.40625 48.390625 
Q 24.65625 48.390625 19.8125 42.84375 
Q 14.984375 37.3125 14.984375 27.296875 
Q 14.984375 17.28125 19.8125 11.734375 
Q 24.65625 6.203125 33.40625 6.203125 
Q 37.3125 6.203125 41.140625 7.25 
Q 44.96875 8.296875 48.78125 10.40625 
L 48.78125 2.09375 
Q 45.015625 0.34375 40.984375 -0.53125 
Q 36.96875 -1.421875 32.421875 -1.421875 
Q 20.0625 -1.421875 12.78125 6.34375 
Q 5.515625 14.109375 5.515625 27.296875 
Q 5.515625 40.671875 12.859375 48.328125 
Q 20.21875 56 33.015625 56 
Q 37.15625 56 41.109375 55.140625 
Q 45.0625 54.296875 48.78125 52.59375 
z
" id="DejaVuSans-99"/>
      <path d="M 9.421875 75.984375 
L 18.40625 75.984375 
L 18.40625 0 
L 9.421875 0 
z
" id="DejaVuSans-108"/>
      <path d="M 9.421875 54.6875 
L 18.40625 54.6875 
L 18.40625 0 
L 9.421875 0 
z
M 9.421875 75.984375 
L 18.40625 75.984375 
L 18.40625 64.59375 
L 9.421875 64.59375 
z
" id="DejaVuSans-105"/>
      <path d="M 34.28125 27.484375 
Q 23.390625 27.484375 19.1875 25 
Q 14.984375 22.515625 14.984375 16.5 
Q 14.984375 11.71875 18.140625 8.90625 
Q 21.296875 6.109375 26.703125 6.109375 
Q 34.1875 6.109375 38.703125 11.40625 
Q 43.21875 16.703125 43.21875 25.484375 
L 43.21875 27.484375 
z
M 52.203125 31.203125 
L 52.203125 0 
L 43.21875 0 
L 43.21875 8.296875 
Q 40.140625 3.328125 35.546875 0.953125 
Q 30.953125 -1.421875 24.3125 -1.421875 
Q 15.921875 -1.421875 10.953125 3.296875 
Q 6 8.015625 6 15.921875 
Q 6 25.140625 12.171875 29.828125 
Q 18.359375 34.515625 30.609375 34.515625 
L 43.21875 34.515625 
L 43.21875 35.40625 
Q 43.21875 41.609375 39.140625 45 
Q 35.0625 48.390625 27.6875 48.390625 
Q 23 48.390625 18.546875 47.265625 
Q 14.109375 46.140625 10.015625 43.890625 
L 10.015625 52.203125 
Q 14.9375 54.109375 19.578125 55.046875 
Q 24.21875 56 28.609375 56 
Q 40.484375 56 46.34375 49.84375 
Q 52.203125 43.703125 52.203125 31.203125 
z
" id="DejaVuSans-97"/>
      <path d="M 18.3125 70.21875 
L 18.3125 54.6875 
L 36.8125 54.6875 
L 36.8125 47.703125 
L 18.3125 47.703125 
L 18.3125 18.015625 
Q 18.3125 11.328125 20.140625 9.421875 
Q 21.96875 7.515625 27.59375 7.515625 
L 36.8125 7.515625 
L 36.8125 0 
L 27.59375 0 
Q 17.1875 0 13.234375 3.875 
Q 9.28125 7.765625 9.28125 18.015625 
L 9.28125 47.703125 
L 2.6875 47.703125 
L 2.6875 54.6875 
L 9.28125 54.6875 
L 9.28125 70.21875 
z
" id="DejaVuSans-116"/>
      <path d="M 30.609375 48.390625 
Q 23.390625 48.390625 19.1875 42.75 
Q 14.984375 37.109375 14.984375 27.296875 
Q 14.984375 17.484375 19.15625 11.84375 
Q 23.34375 6.203125 30.609375 6.203125 
Q 37.796875 6.203125 41.984375 11.859375 
Q 46.1875 17.53125 46.1875 27.296875 
Q 46.1875 37.015625 41.984375 42.703125 
Q 37.796875 48.390625 30.609375 48.390625 
z
M 30.609375 56 
Q 42.328125 56 49.015625 48.375 
Q 55.71875 40.765625 55.71875 27.296875 
Q 55.71875 13.875 49.015625 6.21875 
Q 42.328125 -1.421875 30.609375 -1.421875 
Q 18.84375 -1.421875 12.171875 6.21875 
Q 5.515625 13.875 5.515625 27.296875 
Q 5.515625 40.765625 12.171875 48.375 
Q 18.84375 56 30.609375 56 
z
" id="DejaVuSans-111"/>
     </defs>
     <g transform="translate(121.61875 280.276563)scale(0.1 -0.1)">
      <use xlink:href="#DejaVuSans-73"/>
      <use x="29.492188" xlink:href="#DejaVuSans-110"/>
      <use x="92.871094" xlink:href="#DejaVuSans-99"/>
      <use x="147.851562" xlink:href="#DejaVuSans-108"/>
      <use x="175.634766" xlink:href="#DejaVuSans-105"/>
      <use x="203.417969" xlink:href="#DejaVuSans-110"/>
      <use x="266.796875" xlink:href="#DejaVuSans-97"/>
      <use x="328.076172" xlink:href="#DejaVuSans-116"/>
      <use x="367.285156" xlink:href="#DejaVuSans-105"/>
      <use x="395.068359" xlink:href="#DejaVuSans-111"/>
      <use x="456.25" xlink:href="#DejaVuSans-110"/>
     </g>
    </g>
   </g>
   <g id="matplotlib.axis_2">
    <g id="ytick_1">
     <g id="line2d_4">
      <defs>
       <path d="M 0 0 
L -3.5 0 
" id="mc448014be2" style="stroke:#000000;stroke-width:0.8;"/>
      </defs>
      <g>
       <use style="stroke:#000000;stroke-width:0.8;" x="36" xlink:href="#mc448014be2" y="250.909733"/>
      </g>
     </g>
     <g id="text_5">
      <!-- 1.0 -->
      <defs>
       <path d="M 12.40625 8.296875 
L 28.515625 8.296875 
L 28.515625 63.921875 
L 10.984375 60.40625 
L 10.984375 69.390625 
L 28.421875 72.90625 
L 38.28125 72.90625 
L 38.28125 8.296875 
L 54.390625 8.296875 
L 54.390625 0 
L 12.40625 0 
z
" id="DejaVuSans-49"/>
       <path d="M 10.6875 12.40625 
L 21 12.40625 
L 21 0 
L 10.6875 0 
z
" id="DejaVuSans-46"/>
      </defs>
      <g transform="translate(13.096875 254.708952)scale(0.1 -0.1)">
       <use xlink:href="#DejaVuSans-49"/>
       <use x="63.623047" xlink:href="#DejaVuSans-46"/>
       <use x="95.410156" xlink:href="#DejaVuSans-48"/>
      </g>
     </g>
    </g>
    <g id="ytick_2">
     <g id="line2d_5">
      <g>
       <use style="stroke:#000000;stroke-width:0.8;" x="36" xlink:href="#mc448014be2" y="219.514075"/>
      </g>
     </g>
     <g id="text_6">
      <!-- 1.2 -->
      <defs>
       <path d="M 19.1875 8.296875 
L 53.609375 8.296875 
L 53.609375 0 
L 7.328125 0 
L 7.328125 8.296875 
Q 12.9375 14.109375 22.625 23.890625 
Q 32.328125 33.6875 34.8125 36.53125 
Q 39.546875 41.84375 41.421875 45.53125 
Q 43.3125 49.21875 43.3125 52.78125 
Q 43.3125 58.59375 39.234375 62.25 
Q 35.15625 65.921875 28.609375 65.921875 
Q 23.96875 65.921875 18.8125 64.3125 
Q 13.671875 62.703125 7.8125 59.421875 
L 7.8125 69.390625 
Q 13.765625 71.78125 18.9375 73 
Q 24.125 74.21875 28.421875 74.21875 
Q 39.75 74.21875 46.484375 68.546875 
Q 53.21875 62.890625 53.21875 53.421875 
Q 53.21875 48.921875 51.53125 44.890625 
Q 49.859375 40.875 45.40625 35.40625 
Q 44.1875 33.984375 37.640625 27.21875 
Q 31.109375 20.453125 19.1875 8.296875 
z
" id="DejaVuSans-50"/>
      </defs>
      <g transform="translate(13.096875 223.313293)scale(0.1 -0.1)">
       <use xlink:href="#DejaVuSans-49"/>
       <use x="63.623047" xlink:href="#DejaVuSans-46"/>
       <use x="95.410156" xlink:href="#DejaVuSans-50"/>
      </g>
     </g>
    </g>
    <g id="ytick_3">
     <g id="line2d_6">
      <g>
       <use style="stroke:#000000;stroke-width:0.8;" x="36" xlink:href="#mc448014be2" y="188.118417"/>
      </g>
     </g>
     <g id="text_7">
      <!-- 1.4 -->
      <g transform="translate(13.096875 191.917635)scale(0.1 -0.1)">
       <use xlink:href="#DejaVuSans-49"/>
       <use x="63.623047" xlink:href="#DejaVuSans-46"/>
       <use x="95.410156" xlink:href="#DejaVuSans-52"/>
      </g>
     </g>
    </g>
    <g id="ytick_4">
     <g id="line2d_7">
      <g>
       <use style="stroke:#000000;stroke-width:0.8;" x="36" xlink:href="#mc448014be2" y="156.722758"/>
      </g>
     </g>
     <g id="text_8">
      <!-- 1.6 -->
      <defs>
       <path d="M 33.015625 40.375 
Q 26.375 40.375 22.484375 35.828125 
Q 18.609375 31.296875 18.609375 23.390625 
Q 18.609375 15.53125 22.484375 10.953125 
Q 26.375 6.390625 33.015625 6.390625 
Q 39.65625 6.390625 43.53125 10.953125 
Q 47.40625 15.53125 47.40625 23.390625 
Q 47.40625 31.296875 43.53125 35.828125 
Q 39.65625 40.375 33.015625 40.375 
z
M 52.59375 71.296875 
L 52.59375 62.3125 
Q 48.875 64.0625 45.09375 64.984375 
Q 41.3125 65.921875 37.59375 65.921875 
Q 27.828125 65.921875 22.671875 59.328125 
Q 17.53125 52.734375 16.796875 39.40625 
Q 19.671875 43.65625 24.015625 45.921875 
Q 28.375 48.1875 33.59375 48.1875 
Q 44.578125 48.1875 50.953125 41.515625 
Q 57.328125 34.859375 57.328125 23.390625 
Q 57.328125 12.15625 50.6875 5.359375 
Q 44.046875 -1.421875 33.015625 -1.421875 
Q 20.359375 -1.421875 13.671875 8.265625 
Q 6.984375 17.96875 6.984375 36.375 
Q 6.984375 53.65625 15.1875 63.9375 
Q 23.390625 74.21875 37.203125 74.21875 
Q 40.921875 74.21875 44.703125 73.484375 
Q 48.484375 72.75 52.59375 71.296875 
z
" id="DejaVuSans-54"/>
      </defs>
      <g transform="translate(13.096875 160.521977)scale(0.1 -0.1)">
       <use xlink:href="#DejaVuSans-49"/>
       <use x="63.623047" xlink:href="#DejaVuSans-46"/>
       <use x="95.410156" xlink:href="#DejaVuSans-54"/>
      </g>
     </g>
    </g>
    <g id="ytick_5">
     <g id="line2d_8">
      <g>
       <use style="stroke:#000000;stroke-width:0.8;" x="36" xlink:href="#mc448014be2" y="125.3271"/>
      </g>
     </g>
     <g id="text_9">
      <!-- 1.8 -->
      <defs>
       <path d="M 31.78125 34.625 
Q 24.75 34.625 20.71875 30.859375 
Q 16.703125 27.09375 16.703125 20.515625 
Q 16.703125 13.921875 20.71875 10.15625 
Q 24.75 6.390625 31.78125 6.390625 
Q 38.8125 6.390625 42.859375 10.171875 
Q 46.921875 13.96875 46.921875 20.515625 
Q 46.921875 27.09375 42.890625 30.859375 
Q 38.875 34.625 31.78125 34.625 
z
M 21.921875 38.8125 
Q 15.578125 40.375 12.03125 44.71875 
Q 8.5 49.078125 8.5 55.328125 
Q 8.5 64.0625 14.71875 69.140625 
Q 20.953125 74.21875 31.78125 74.21875 
Q 42.671875 74.21875 48.875 69.140625 
Q 55.078125 64.0625 55.078125 55.328125 
Q 55.078125 49.078125 51.53125 44.71875 
Q 48 40.375 41.703125 38.8125 
Q 48.828125 37.15625 52.796875 32.3125 
Q 56.78125 27.484375 56.78125 20.515625 
Q 56.78125 9.90625 50.3125 4.234375 
Q 43.84375 -1.421875 31.78125 -1.421875 
Q 19.734375 -1.421875 13.25 4.234375 
Q 6.78125 9.90625 6.78125 20.515625 
Q 6.78125 27.484375 10.78125 32.3125 
Q 14.796875 37.15625 21.921875 38.8125 
z
M 18.3125 54.390625 
Q 18.3125 48.734375 21.84375 45.5625 
Q 25.390625 42.390625 31.78125 42.390625 
Q 38.140625 42.390625 41.71875 45.5625 
Q 45.3125 48.734375 45.3125 54.390625 
Q 45.3125 60.0625 41.71875 63.234375 
Q 38.140625 66.40625 31.78125 66.40625 
Q 25.390625 66.40625 21.84375 63.234375 
Q 18.3125 60.0625 18.3125 54.390625 
z
" id="DejaVuSans-56"/>
      </defs>
      <g transform="translate(13.096875 129.126319)scale(0.1 -0.1)">
       <use xlink:href="#DejaVuSans-49"/>
       <use x="63.623047" xlink:href="#DejaVuSans-46"/>
       <use x="95.410156" xlink:href="#DejaVuSans-56"/>
      </g>
     </g>
    </g>
    <g id="ytick_6">
     <g id="line2d_9">
      <g>
       <use style="stroke:#000000;stroke-width:0.8;" x="36" xlink:href="#mc448014be2" y="93.931442"/>
      </g>
     </g>
     <g id="text_10">
      <!-- 2.0 -->
      <g transform="translate(13.096875 97.730661)scale(0.1 -0.1)">
       <use xlink:href="#DejaVuSans-50"/>
       <use x="63.623047" xlink:href="#DejaVuSans-46"/>
       <use x="95.410156" xlink:href="#DejaVuSans-48"/>
      </g>
     </g>
    </g>
    <g id="ytick_7">
     <g id="line2d_10">
      <g>
       <use style="stroke:#000000;stroke-width:0.8;" x="36" xlink:href="#mc448014be2" y="62.535784"/>
      </g>
     </g>
     <g id="text_11">
      <!-- 2.2 -->
      <g transform="translate(13.096875 66.335003)scale(0.1 -0.1)">
       <use xlink:href="#DejaVuSans-50"/>
       <use x="63.623047" xlink:href="#DejaVuSans-46"/>
       <use x="95.410156" xlink:href="#DejaVuSans-50"/>
      </g>
     </g>
    </g>
    <g id="text_12">
     <!-- Elongation -->
     <defs>
      <path d="M 9.8125 72.90625 
L 55.90625 72.90625 
L 55.90625 64.59375 
L 19.671875 64.59375 
L 19.671875 43.015625 
L 54.390625 43.015625 
L 54.390625 34.71875 
L 19.671875 34.71875 
L 19.671875 8.296875 
L 56.78125 8.296875 
L 56.78125 0 
L 9.8125 0 
z
" id="DejaVuSans-69"/>
      <path d="M 45.40625 27.984375 
Q 45.40625 37.75 41.375 43.109375 
Q 37.359375 48.484375 30.078125 48.484375 
Q 22.859375 48.484375 18.828125 43.109375 
Q 14.796875 37.75 14.796875 27.984375 
Q 14.796875 18.265625 18.828125 12.890625 
Q 22.859375 7.515625 30.078125 7.515625 
Q 37.359375 7.515625 41.375 12.890625 
Q 45.40625 18.265625 45.40625 27.984375 
z
M 54.390625 6.78125 
Q 54.390625 -7.171875 48.1875 -13.984375 
Q 42 -20.796875 29.203125 -20.796875 
Q 24.46875 -20.796875 20.265625 -20.09375 
Q 16.0625 -19.390625 12.109375 -17.921875 
L 12.109375 -9.1875 
Q 16.0625 -11.328125 19.921875 -12.34375 
Q 23.78125 -13.375 27.78125 -13.375 
Q 36.625 -13.375 41.015625 -8.765625 
Q 45.40625 -4.15625 45.40625 5.171875 
L 45.40625 9.625 
Q 42.625 4.78125 38.28125 2.390625 
Q 33.9375 0 27.875 0 
Q 17.828125 0 11.671875 7.65625 
Q 5.515625 15.328125 5.515625 27.984375 
Q 5.515625 40.671875 11.671875 48.328125 
Q 17.828125 56 27.875 56 
Q 33.9375 56 38.28125 53.609375 
Q 42.625 51.21875 45.40625 46.390625 
L 45.40625 54.6875 
L 54.390625 54.6875 
z
" id="DejaVuSans-103"/>
     </defs>
     <g transform="translate(7.017187 169.872187)rotate(-90)scale(0.1 -0.1)">
      <use xlink:href="#DejaVuSans-69"/>
      <use x="63.183594" xlink:href="#DejaVuSans-108"/>
      <use x="90.966797" xlink:href="#DejaVuSans-111"/>
      <use x="152.148438" xlink:href="#DejaVuSans-110"/>
      <use x="215.527344" xlink:href="#DejaVuSans-103"/>
      <use x="279.003906" xlink:href="#DejaVuSans-97"/>
      <use x="340.283203" xlink:href="#DejaVuSans-116"/>
      <use x="379.492188" xlink:href="#DejaVuSans-105"/>
      <use x="407.275391" xlink:href="#DejaVuSans-111"/>
      <use x="468.457031" xlink:href="#DejaVuSans-110"/>
     </g>
    </g>
   </g>
   <g id="line2d_11">
    <path clip-path="url(#pd0aedab5e2)" d="M 65.038158 171.956066 
L 67.927985 168.23877 
L 70.861637 164.437895 
L 73.840034 160.55105 
L 76.864119 156.575764 
L 79.934859 152.50948 
L 83.053248 148.349551 
L 86.2203 144.093238 
L 89.437062 139.737707 
L 92.704601 135.280023 
L 96.024016 130.717147 
L 99.396432 126.045933 
L 102.823005 121.263122 
L 106.304918 116.365337 
L 109.843386 111.34908 
L 113.439656 106.210728 
L 117.095005 100.946521 
L 120.810745 95.552565 
L 124.588221 90.024821 
L 128.428812 84.3591 
L 132.333934 78.551058 
L 132.333934 78.551058 
L 134.311145 75.592265 
L 136.305037 72.596187 
" style="fill:none;stroke:#ff0000;stroke-linecap:square;stroke-width:1.5;"/>
   </g>
   <g id="line2d_12">
    <path clip-path="url(#pd0aedab5e2)" d="M 50.362934 180.21491 
L 53.179563 176.87356 
L 56.039828 173.426293 
L 58.944668 169.872507 
L 61.895051 166.211275 
L 64.891968 162.441371 
L 67.936437 158.561291 
L 71.029503 154.569274 
L 74.17224 150.463315 
L 77.36575 146.241177 
L 80.611163 141.900401 
L 83.909643 137.438313 
L 87.262381 132.852028 
L 90.670605 128.138456 
L 94.135572 123.294299 
L 97.658575 118.316056 
L 101.240942 113.200021 
L 104.884038 107.942277 
L 108.589263 102.538699 
L 112.358057 96.984945 
L 116.191899 91.276451 
L 120.092308 85.408428 
L 124.060844 79.375851 
L 128.099111 73.173452 
L 128.099111 73.173452 
L 130.144906 70.006854 
" style="fill:none;stroke:#bfbf00;stroke-linecap:square;stroke-width:1.5;"/>
   </g>
   <g id="line2d_13">
    <path clip-path="url(#pd0aedab5e2)" d="M 59.668246 139.068988 
L 62.515864 135.6989 
L 65.406769 132.227158 
L 68.341877 128.652723 
L 71.322124 124.97442 
L 74.348475 121.190945 
L 77.421915 117.300866 
L 80.543459 113.30262 
L 83.714146 109.194523 
L 86.935043 104.974768 
L 90.207243 100.641426 
L 93.531871 96.192447 
L 96.910079 91.625666 
L 100.343051 86.938798 
L 103.832001 82.129443 
L 107.378176 77.195086 
L 110.982854 72.133096 
L 110.982854 72.133096 
L 112.807542 69.553386 
L 114.647351 66.940731 
" style="fill:none;stroke:#bfbf00;stroke-linecap:square;stroke-width:1.5;"/>
   </g>
   <g id="line2d_14">
    <path clip-path="url(#pd0aedab5e2)" d="M 77.824258 138.379752 
L 80.769481 134.2654 
L 83.758431 130.057449 
L 86.792004 125.753551 
L 89.871119 121.351259 
L 92.996718 116.848027 
L 96.169766 112.24121 
L 99.391253 107.528062 
L 102.662192 102.705729 
L 105.983622 97.771252 
L 109.35661 92.721559 
L 112.782247 87.553465 
L 116.261654 82.263666 
L 119.795977 76.848737 
L 123.386394 71.305125 
L 123.386394 71.305125 
L 125.203014 68.483916 
" style="fill:none;stroke:#bfbf00;stroke-linecap:square;stroke-width:1.5;"/>
   </g>
   <g id="line2d_15">
    <path clip-path="url(#pd0aedab5e2)" d="M 47.353314 159.279148 
L 50.128528 156.020747 
L 52.94669 152.672256 
L 55.808733 149.232886 
L 58.715615 145.701698 
L 61.668318 142.077607 
L 64.667851 138.359396 
L 67.715251 134.545714 
L 70.811582 130.635087 
L 73.957939 126.625917 
L 77.155444 122.516489 
L 80.405252 118.30497 
L 83.708547 113.989417 
L 87.06655 109.567775 
L 90.48051 105.037879 
L 93.951716 100.397456 
L 97.481487 95.644125 
L 101.071183 90.775399 
L 104.722201 85.788683 
L 108.435973 80.681277 
L 112.213976 75.450373 
L 116.057724 70.093056 
L 116.057724 70.093056 
L 118.004738 67.366053 
" style="fill:none;stroke:#bfbf00;stroke-linecap:square;stroke-width:1.5;"/>
   </g>
   <g id="line2d_16">
    <path clip-path="url(#pd0aedab5e2)" d="M 67.887387 78.407027 
L 70.790337 73.244543 
L 73.737233 67.964933 
L 76.728999 62.564797 
L 79.766583 57.040612 
L 79.766583 57.040612 
L 81.302858 54.230863 
" style="fill:none;stroke:#bfbf00;stroke-linecap:square;stroke-width:1.5;"/>
   </g>
   <g id="line2d_17">
    <path clip-path="url(#pd0aedab5e2)" d="M 62.949762 143.447143 
L 65.855315 139.835756 
L 68.805478 136.102301 
L 71.801195 132.244961 
L 74.843438 128.261691 
L 77.933199 124.150216 
L 81.071499 119.908033 
L 84.259383 115.532409 
L 87.497924 111.020379 
L 90.788221 106.368743 
L 94.131404 101.574064 
L 97.528628 96.632661 
L 100.981081 91.540608 
L 104.489979 86.293725 
L 108.056571 80.88757 
L 111.682138 75.317435 
L 115.367992 69.578335 
L 115.367992 69.578335 
L 117.233947 66.643786 
" style="fill:none;stroke:#bfbf00;stroke-linecap:square;stroke-width:1.5;"/>
   </g>
   <g id="line2d_18">
    <path clip-path="url(#pd0aedab5e2)" d="M 75.352681 160.370239 
L 78.289107 156.460192 
L 81.269199 152.461323 
L 84.293851 148.371172 
L 87.363974 144.187188 
L 90.480503 139.90673 
L 93.644398 135.527063 
L 96.856638 131.045353 
L 100.118231 126.458667 
L 103.430206 121.76397 
L 106.793618 116.958119 
L 110.209549 112.037861 
L 113.679107 106.999827 
L 117.203426 101.840534 
L 120.783668 96.556374 
L 124.421027 91.143613 
L 128.11672 85.598387 
L 131.872 79.916695 
L 131.872 79.916695 
L 133.772383 77.023387 
L 135.688146 74.094398 
" style="fill:none;stroke:#bfbf00;stroke-linecap:square;stroke-width:1.5;"/>
   </g>
   <g id="line2d_19">
    <path clip-path="url(#pd0aedab5e2)" d="M 71.599863 195.437771 
L 74.513892 192.271147 
L 77.471561 189.029609 
L 80.473774 185.711949 
L 83.521457 182.316796 
L 86.615561 178.84264 
L 89.757059 175.287837 
L 92.94695 171.650622 
L 96.186258 167.929117 
L 99.476032 164.121334 
L 102.817349 160.225179 
L 106.211313 156.238454 
L 109.659055 152.158861 
L 113.161737 147.983998 
L 116.720548 143.711365 
L 120.336709 139.338357 
L 124.011471 134.862268 
L 127.746119 130.280285 
L 131.541969 125.589489 
L 135.400371 120.786852 
L 139.322709 115.869234 
L 143.310403 110.83338 
L 147.36491 105.675916 
L 151.487721 100.393345 
L 155.680368 94.982044 
L 159.944421 89.438261 
L 159.944421 89.438261 
L 162.103725 86.615479 
L 164.281488 83.758107 
" style="fill:none;stroke:#bfbf00;stroke-linecap:square;stroke-width:1.5;"/>
   </g>
   <g id="line2d_20">
    <path clip-path="url(#pd0aedab5e2)" d="M 73.427954 175.665339 
L 76.36517 172.17815 
L 79.346408 168.596192 
L 82.372573 164.918035 
L 85.444597 161.142043 
L 88.563431 157.266378 
L 91.730052 153.289021 
L 94.945459 149.207772 
L 98.21068 145.020261 
L 101.526763 140.723949 
L 104.894786 136.316134 
L 108.315852 131.793948 
L 111.791091 127.154361 
L 115.321663 122.394181 
L 118.908754 117.510049 
L 122.553582 112.498438 
L 126.257394 107.35565 
L 130.021468 102.077814 
L 133.847112 96.660875 
L 137.735668 91.100598 
L 141.688512 85.392551 
L 145.70705 79.532109 
L 145.70705 79.532109 
L 147.741405 76.543237 
" style="fill:none;stroke:#bfbf00;stroke-linecap:square;stroke-width:1.5;"/>
   </g>
   <g id="line2d_21">
    <path clip-path="url(#pd0aedab5e2)" d="M 75.554101 135.912567 
L 78.505153 131.551502 
L 81.500422 127.085011 
L 84.540822 122.510091 
L 87.627289 117.823607 
L 90.760783 113.022292 
L 93.942286 108.10274 
L 97.172808 103.061403 
L 100.453381 97.894586 
L 103.785064 92.598439 
L 107.168943 87.168954 
L 110.60613 81.601957 
L 114.097767 75.893102 
L 117.645022 70.037862 
L 117.645022 70.037862 
L 119.43988 67.053882 
" style="fill:none;stroke:#bfbf00;stroke-linecap:square;stroke-width:1.5;"/>
   </g>
   <g id="line2d_22">
    <path clip-path="url(#pd0aedab5e2)" d="M 76.267942 178.647672 
L 79.225202 175.402072 
L 82.226763 172.077367 
L 85.273538 168.672482 
L 88.366461 165.186197 
L 91.50649 161.617156 
L 94.694606 157.963879 
L 97.931814 154.224767 
L 101.219144 150.398109 
L 104.557651 146.482084 
L 107.948415 142.474768 
L 111.392546 138.374138 
L 114.891178 134.178068 
L 118.445474 129.884337 
L 122.056625 125.490627 
L 125.725852 120.994526 
L 129.454406 116.393524 
L 133.243567 111.68502 
L 137.094649 106.866316 
L 141.008995 101.934619 
L 144.987983 96.887042 
L 149.033023 91.7206 
L 153.145559 86.432214 
L 153.145559 86.432214 
L 155.227598 83.741302 
L 157.327069 81.018706 
" style="fill:none;stroke:#bfbf00;stroke-linecap:square;stroke-width:1.5;"/>
   </g>
   <g id="line2d_23">
    <path clip-path="url(#pd0aedab5e2)" d="M 65.012765 92.163539 
L 67.897551 87.025731 
L 70.826032 81.765654 
L 73.799125 76.379599 
L 76.81777 70.863714 
L 79.88293 65.213996 
L 82.995592 59.426288 
L 82.995592 59.426288 
L 84.570052 56.479345 
" style="fill:none;stroke:#bfbf00;stroke-linecap:square;stroke-width:1.5;"/>
   </g>
   <g id="line2d_24">
    <path clip-path="url(#pd0aedab5e2)" d="M 63.173887 121.337568 
L 66.054196 116.976192 
L 68.978325 112.521049 
L 71.947198 107.969616 
L 74.961763 103.319289 
L 78.02299 98.56738 
L 81.131876 93.711117 
L 84.289444 88.747639 
L 87.496742 83.673994 
L 90.754845 78.487135 
L 94.064857 73.183917 
L 97.427908 67.761094 
L 97.427908 67.761094 
L 99.129685 65.003787 
L 100.84516 62.215314 
" style="fill:none;stroke:#bfbf00;stroke-linecap:square;stroke-width:1.5;"/>
   </g>
   <g id="line2d_25">
    <path clip-path="url(#pd0aedab5e2)" d="M 63.416267 157.9055 
L 66.306016 154.056135 
L 69.23989 150.116065 
L 72.218824 146.083021 
L 75.243779 141.954622 
L 78.315737 137.728372 
L 81.435709 133.401661 
L 84.604729 128.971765 
L 87.82386 124.43584 
L 91.094192 119.790923 
L 94.416843 115.033928 
L 97.79296 110.161641 
L 101.223721 105.170721 
L 104.710334 100.057689 
L 108.254039 94.818928 
L 111.856108 89.450678 
L 115.517846 83.949028 
L 119.240593 78.309913 
L 123.025724 72.529106 
L 123.025724 72.529106 
L 124.942122 69.584201 
" style="fill:none;stroke:#bfbf00;stroke-linecap:square;stroke-width:1.5;"/>
   </g>
   <g id="line2d_26">
    <path clip-path="url(#pd0aedab5e2)" d="M 60.558477 227.220179 
L 63.440421 224.935573 
L 66.366546 222.492025 
L 69.337788 219.907275 
L 72.355109 217.19428 
L 75.419496 214.362382 
L 78.531959 211.418201 
L 81.693538 208.366308 
L 84.905296 205.209708 
L 88.168327 201.950205 
L 91.483751 198.588654 
L 94.852718 195.125163 
L 98.276408 191.559231 
L 101.756032 187.88985 
L 105.292833 184.115592 
L 108.888085 180.23466 
L 112.543097 176.244935 
L 116.259211 172.144009 
L 120.037805 167.929208 
L 123.880293 163.59761 
L 127.788126 159.146057 
L 131.762792 154.571162 
L 135.805818 149.869315 
L 139.918773 145.036685 
L 144.103264 140.069218 
L 148.360941 134.962635 
L 152.693498 129.712427 
L 157.102672 124.313851 
L 161.590243 118.761917 
L 166.15804 113.051388 
L 170.807937 107.176757 
L 175.541855 101.132248 
L 180.361766 94.911791 
L 180.361766 94.911791 
L 182.804598 91.733602 
L 185.269691 88.509012 
" style="fill:none;stroke:#bfbf00;stroke-linecap:square;stroke-width:1.5;"/>
   </g>
   <g id="line2d_27">
    <path clip-path="url(#pd0aedab5e2)" d="M 59.70967 209.554269 
L 62.589462 206.270393 
L 65.513446 202.906493 
L 68.48256 199.460308 
L 71.497766 195.929449 
L 74.560047 192.3114 
L 77.670415 188.603523 
L 80.829906 184.803059 
L 84.039584 180.907124 
L 87.30054 176.91271 
L 90.613891 172.816678 
L 93.980786 168.615759 
L 97.402402 164.306544 
L 100.879946 159.885482 
L 104.414658 155.348874 
L 108.007809 150.692866 
L 111.660702 145.91344 
L 115.374675 141.00641 
L 119.1511 135.967413 
L 122.991384 130.791899 
L 126.896972 125.475122 
L 130.869343 120.012132 
L 134.910018 114.397764 
L 139.020553 108.626625 
L 143.202547 102.693084 
L 147.457637 96.591258 
L 151.787504 90.315 
L 156.19387 83.857882 
L 156.19387 83.857882 
L 158.42629 80.559411 
" style="fill:none;stroke:#bfbf00;stroke-linecap:square;stroke-width:1.5;"/>
   </g>
   <g id="line2d_28">
    <path clip-path="url(#pd0aedab5e2)" d="M 66.078845 78.82407 
L 68.992231 74.564127 
L 71.949984 70.160801 
L 74.953037 65.610897 
L 78.002346 60.911026 
L 78.002346 60.911026 
L 79.544651 58.503738 
L 81.098889 56.057595 
" style="fill:none;stroke:#bfbf00;stroke-linecap:square;stroke-width:1.5;"/>
   </g>
   <g id="line2d_29">
    <path clip-path="url(#pd0aedab5e2)" d="M 55.245755 136.961991 
L 58.087697 134.798916 
L 60.973488 132.507195 
L 63.90407 130.085975 
L 66.880412 127.534331 
L 69.903506 124.85125 
L 72.974371 122.035622 
L 76.094054 119.086222 
L 79.263629 116.001701 
L 82.484199 112.780577 
L 85.756895 109.42122 
L 89.082879 105.921846 
L 92.463345 102.280507 
L 95.899518 98.49508 
L 99.392654 94.563264 
L 102.944046 90.482565 
L 106.55502 86.250293 
L 110.226937 81.863551 
L 113.961196 77.319229 
L 117.759233 72.613995 
L 117.759233 72.613995 
L 119.682627 70.199932 
L 121.622521 67.744285 
" style="fill:none;stroke:#bfbf00;stroke-linecap:square;stroke-width:1.5;"/>
   </g>
   <g id="line2d_30">
    <path clip-path="url(#pd0aedab5e2)" d="M 68.624689 219.638496 
L 71.526629 217.353978 
L 74.472263 214.953595 
L 77.462499 212.445121 
L 80.498267 209.834531 
L 83.580522 207.126339 
L 86.710242 204.323879 
L 89.888431 201.429526 
L 93.116116 198.444872 
L 96.39435 195.370864 
L 99.724215 192.207914 
L 103.106817 188.955984 
L 106.543291 185.614656 
L 110.034802 182.183179 
L 113.582543 178.660519 
L 117.187736 175.045387 
L 120.851635 171.336263 
L 124.575525 167.531423 
L 128.360723 163.628949 
L 132.20858 159.626745 
L 136.12048 155.522545 
L 140.097841 151.313918 
L 144.142115 146.998278 
L 148.254794 142.572882 
L 152.437402 138.034837 
L 156.691504 133.381096 
L 161.018702 128.608462 
L 165.420635 123.713583 
L 169.898984 118.692954 
L 174.455471 113.542911 
L 179.091857 108.259631 
L 183.809946 102.839126 
L 188.611584 97.277238 
L 188.611584 97.277238 
L 191.044322 94.44193 
L 193.498659 91.569638 
" style="fill:none;stroke:#bfbf00;stroke-linecap:square;stroke-width:1.5;"/>
   </g>
   <g id="line2d_31">
    <path clip-path="url(#pd0aedab5e2)" d="M 63.952655 242.116364 
L 66.867998 239.623248 
L 69.827961 236.978224 
L 72.833483 234.219108 
L 75.885529 231.362924 
L 78.985086 228.417692 
L 82.133168 225.387062 
L 85.330812 222.272352 
L 88.579084 219.073527 
L 91.879076 215.789705 
L 95.231908 212.419441 
L 98.638728 208.960885 
L 102.100715 205.411878 
L 105.619077 201.770012 
L 109.195053 198.032667 
L 112.829913 194.197034 
L 116.52496 190.260125 
L 120.281531 186.218786 
L 124.100996 182.069698 
L 127.984761 177.809379 
L 131.934267 173.434178 
L 135.950992 168.940278 
L 140.036452 164.323688 
L 144.1922 159.580235 
L 148.419831 154.705561 
L 152.720977 149.695115 
L 157.097313 144.544138 
L 161.550557 139.247662 
L 166.082466 133.800493 
L 170.694846 128.1972 
L 175.389542 122.432106 
L 180.168449 116.499268 
L 185.033505 110.392469 
L 189.986698 104.105193 
L 195.030062 97.630614 
L 195.030062 97.630614 
L 197.586206 94.320863 
" style="fill:none;stroke:#bfbf00;stroke-linecap:square;stroke-width:1.5;"/>
   </g>
   <g id="line2d_32">
    <path clip-path="url(#pd0aedab5e2)" d="M 64.698306 156.60494 
L 67.586374 154.059959 
L 70.518202 151.395196 
L 73.494707 148.610726 
L 76.516826 145.706471 
L 79.585522 142.682195 
L 82.701781 139.537497 
L 85.866616 136.271807 
L 89.081063 132.884387 
L 92.346185 129.374324 
L 95.663074 125.740534 
L 99.032848 121.981762 
L 102.456654 118.096576 
L 105.935667 114.083378 
L 109.471094 109.940392 
L 113.064171 105.665678 
L 116.716167 101.257121 
L 120.428382 96.712441 
L 124.20215 92.029188 
L 128.038839 87.204744 
L 131.939851 82.236326 
L 135.906623 77.120981 
L 135.906623 77.120981 
L 137.915129 74.507244 
" style="fill:none;stroke:#bfbf00;stroke-linecap:square;stroke-width:1.5;"/>
   </g>
   <g id="line2d_33">
    <path clip-path="url(#pd0aedab5e2)" d="M 54.775204 195.089633 
L 57.619591 191.889837 
L 60.507979 188.601457 
L 63.441318 185.223653 
L 66.420581 181.755284 
L 69.446768 178.194941 
L 72.520904 174.540979 
L 75.644042 170.791533 
L 78.817265 166.944534 
L 82.041681 162.997725 
L 85.31843 158.948663 
L 88.648682 154.79473 
L 92.03364 150.533137 
L 95.474536 146.160922 
L 98.972637 141.674952 
L 102.529244 137.071925 
L 106.145693 132.348363 
L 109.823357 127.500611 
L 113.563643 122.524833 
L 117.367999 117.417008 
L 121.237911 112.172917 
L 125.174905 106.788146 
L 129.180548 101.258069 
L 133.256449 95.577844 
L 137.404261 89.7424 
L 141.62568 83.746431 
L 141.62568 83.746431 
L 143.764536 80.686523 
L 145.922451 77.584378 
" style="fill:none;stroke:#bfbf00;stroke-linecap:square;stroke-width:1.5;"/>
   </g>
   <g id="line2d_34">
    <path clip-path="url(#pd0aedab5e2)" d="M 54.537135 111.98618 
L 57.352732 107.385647 
L 60.211571 102.682056 
L 63.114582 97.872525 
L 66.062722 92.954073 
L 69.056973 87.923612 
L 72.098343 82.777949 
L 75.187867 77.513775 
L 78.326607 72.127667 
L 81.515656 66.616079 
L 84.756134 60.975339 
L 84.756134 60.975339 
L 86.396018 58.105355 
L 88.049193 55.201646 
" style="fill:none;stroke:#bfbf00;stroke-linecap:square;stroke-width:1.5;"/>
   </g>
   <g id="line2d_35">
    <path clip-path="url(#pd0aedab5e2)" d="M 56.516129 200.909433 
L 59.364979 197.758791 
L 62.257746 194.523153 
L 65.195377 191.201615 
L 68.178839 187.792963 
L 71.20913 184.295716 
L 74.287269 180.708155 
L 77.414306 177.028348 
L 80.591316 173.254162 
L 83.819406 169.383281 
L 87.09971 165.413209 
L 90.433393 161.341281 
L 93.821652 157.164661 
L 97.265713 152.880348 
L 100.76684 148.485173 
L 104.326327 143.975797 
L 107.945505 139.348711 
L 111.625739 134.600229 
L 115.368432 129.726483 
L 119.175026 124.723418 
L 123.046999 119.586787 
L 126.985872 114.312138 
L 130.993205 108.894808 
L 135.0706 103.329914 
L 139.219703 97.612341 
L 143.442204 91.73673 
L 147.739838 85.697464 
L 147.739838 85.697464 
L 149.917385 82.614633 
L 152.114386 79.488657 
" style="fill:none;stroke:#bfbf00;stroke-linecap:square;stroke-width:1.5;"/>
   </g>
   <g id="line2d_36">
    <path clip-path="url(#pd0aedab5e2)" d="M 78.918172 207.239989 
L 81.904862 205.90713 
L 84.93617 204.40499 
L 88.013003 202.739868 
L 91.136291 200.918018 
L 94.306984 198.945455 
L 97.526057 196.827808 
L 100.794505 194.57023 
L 104.113351 192.177331 
L 107.483639 189.653156 
L 110.906439 187.001177 
L 114.382847 184.224307 
L 117.913984 181.324919 
L 121.500997 178.304875 
L 125.145063 175.165562 
L 128.847383 171.907916 
L 132.609189 168.532463 
L 136.43174 165.039342 
L 140.316327 161.428339 
L 144.264267 157.698907 
L 148.276912 153.850193 
L 152.355642 149.881056 
L 156.501869 145.790088 
L 160.717039 141.575624 
L 165.002628 137.23576 
L 169.360149 132.768366 
L 173.791145 128.171088 
L 178.297194 123.441365 
L 182.87991 118.57643 
L 187.540942 113.573318 
L 192.281972 108.428867 
L 197.10472 103.139728 
L 197.10472 103.139728 
L 199.547285 100.439801 
L 202.010941 97.702359 
" style="fill:none;stroke:#bfbf00;stroke-linecap:square;stroke-width:1.5;"/>
   </g>
   <g id="line2d_37">
    <path clip-path="url(#pd0aedab5e2)" d="M 46.145455 44.443636 
L 86.362936 58.032529 
L 131.155004 73.428161 
L 249.054545 114.288552 
L 249.054545 114.288552 
" style="fill:none;stroke:#008000;stroke-linecap:square;stroke-width:1.5;"/>
   </g>
   <g id="patch_3">
    <path d="M 36 252 
L 36 34.56 
" style="fill:none;stroke:#000000;stroke-linecap:square;stroke-linejoin:miter;stroke-width:0.8;"/>
   </g>
   <g id="patch_4">
    <path d="M 259.2 252 
L 259.2 34.56 
" style="fill:none;stroke:#000000;stroke-linecap:square;stroke-linejoin:miter;stroke-width:0.8;"/>
   </g>
   <g id="patch_5">
    <path d="M 36 252 
L 259.2 252 
" style="fill:none;stroke:#000000;stroke-linecap:square;stroke-linejoin:miter;stroke-width:0.8;"/>
   </g>
   <g id="patch_6">
    <path d="M 36 34.56 
L 259.2 34.56 
" style="fill:none;stroke:#000000;stroke-linecap:square;stroke-linejoin:miter;stroke-width:0.8;"/>
   </g>
   <g id="text_13">
    <!--  0.79 -->
    <defs>
     <path id="DejaVuSans-32"/>
     <path d="M 8.203125 72.90625 
L 55.078125 72.90625 
L 55.078125 68.703125 
L 28.609375 0 
L 18.3125 0 
L 43.21875 64.59375 
L 8.203125 64.59375 
z
" id="DejaVuSans-55"/>
     <path d="M 10.984375 1.515625 
L 10.984375 10.5 
Q 14.703125 8.734375 18.5 7.8125 
Q 22.3125 6.890625 25.984375 6.890625 
Q 35.75 6.890625 40.890625 13.453125 
Q 46.046875 20.015625 46.78125 33.40625 
Q 43.953125 29.203125 39.59375 26.953125 
Q 35.25 24.703125 29.984375 24.703125 
Q 19.046875 24.703125 12.671875 31.3125 
Q 6.296875 37.9375 6.296875 49.421875 
Q 6.296875 60.640625 12.9375 67.421875 
Q 19.578125 74.21875 30.609375 74.21875 
Q 43.265625 74.21875 49.921875 64.515625 
Q 56.59375 54.828125 56.59375 36.375 
Q 56.59375 19.140625 48.40625 8.859375 
Q 40.234375 -1.421875 26.421875 -1.421875 
Q 22.703125 -1.421875 18.890625 -0.6875 
Q 15.09375 0.046875 10.984375 1.515625 
z
M 30.609375 32.421875 
Q 37.25 32.421875 41.125 36.953125 
Q 45.015625 41.5 45.015625 49.421875 
Q 45.015625 57.28125 41.125 61.84375 
Q 37.25 66.40625 30.609375 66.40625 
Q 23.96875 66.40625 20.09375 61.84375 
Q 16.21875 57.28125 16.21875 49.421875 
Q 16.21875 41.5 20.09375 36.953125 
Q 23.96875 32.421875 30.609375 32.421875 
z
" id="DejaVuSans-57"/>
    </defs>
    <g transform="translate(136.305037 72.596187)scale(0.1 -0.1)">
     <use xlink:href="#DejaVuSans-32"/>
     <use x="31.787109" xlink:href="#DejaVuSans-48"/>
     <use x="95.410156" xlink:href="#DejaVuSans-46"/>
     <use x="127.197266" xlink:href="#DejaVuSans-55"/>
     <use x="190.820312" xlink:href="#DejaVuSans-57"/>
    </g>
   </g>
   <g id="text_14">
    <!--  f=1 -->
    <defs>
     <path d="M 37.109375 75.984375 
L 37.109375 68.5 
L 28.515625 68.5 
Q 23.6875 68.5 21.796875 66.546875 
Q 19.921875 64.59375 19.921875 59.515625 
L 19.921875 54.6875 
L 34.71875 54.6875 
L 34.71875 47.703125 
L 19.921875 47.703125 
L 19.921875 0 
L 10.890625 0 
L 10.890625 47.703125 
L 2.296875 47.703125 
L 2.296875 54.6875 
L 10.890625 54.6875 
L 10.890625 58.5 
Q 10.890625 67.625 15.140625 71.796875 
Q 19.390625 75.984375 28.609375 75.984375 
z
" id="DejaVuSans-102"/>
     <path d="M 10.59375 45.40625 
L 73.1875 45.40625 
L 73.1875 37.203125 
L 10.59375 37.203125 
z
M 10.59375 25.484375 
L 73.1875 25.484375 
L 73.1875 17.1875 
L 10.59375 17.1875 
z
" id="DejaVuSans-61"/>
    </defs>
    <g transform="translate(39.952197 171.956066)scale(0.1 -0.1)">
     <use xlink:href="#DejaVuSans-32"/>
     <use x="31.787109" xlink:href="#DejaVuSans-102"/>
     <use x="66.992188" xlink:href="#DejaVuSans-61"/>
     <use x="150.78125" xlink:href="#DejaVuSans-49"/>
    </g>
   </g>
  </g>
 </g>
 <defs>
  <clipPath id="pd0aedab5e2">
   <rect height="217.44" width="223.2" x="36" y="34.56"/>
  </clipPath>
 </defs>
</svg>
