<?xml version="1.0" encoding="utf-8" standalone="no"?>
<!DOCTYPE svg PUBLIC "-//W3C//DTD SVG 1.1//EN"
  "http://www.w3.org/Graphics/SVG/1.1/DTD/svg11.dtd">
<!-- Created with matplotlib (https://matplotlib.org/) -->
<svg height="288pt" version="1.1" viewBox="0 0 288 288" width="288pt" xmlns="http://www.w3.org/2000/svg" xmlns:xlink="http://www.w3.org/1999/xlink">
 <defs>
  <style type="text/css">
*{stroke-linecap:butt;stroke-linejoin:round;}
  </style>
 </defs>
 <g id="figure_1">
  <g id="patch_1">
   <path d="M 0 288 
L 288 288 
L 288 0 
L 0 0 
z
" style="fill:#ffffff;"/>
  </g>
  <g id="axes_1">
   <g id="patch_2">
    <path d="M 36 252 
L 259.2 252 
L 259.2 34.56 
L 36 34.56 
z
" style="fill:#ffffff;"/>
   </g>
   <g id="matplotlib.axis_1">
    <g id="xtick_1">
     <g id="line2d_1">
      <defs>
       <path d="M 0 0 
L 0 3.5 
" id="mdfc9521b3f" style="stroke:#000000;stroke-width:0.8;"/>
      </defs>
      <g>
       <use style="stroke:#000000;stroke-width:0.8;" x="61.343018" xlink:href="#mdfc9521b3f" y="252"/>
      </g>
     </g>
     <g id="text_1">
      <!-- 30 -->
      <defs>
       <path d="M 40.578125 39.3125 
Q 47.65625 37.796875 51.625 33 
Q 55.609375 28.21875 55.609375 21.1875 
Q 55.609375 10.40625 48.1875 4.484375 
Q 40.765625 -1.421875 27.09375 -1.421875 
Q 22.515625 -1.421875 17.65625 -0.515625 
Q 12.796875 0.390625 7.625 2.203125 
L 7.625 11.71875 
Q 11.71875 9.328125 16.59375 8.109375 
Q 21.484375 6.890625 26.8125 6.890625 
Q 36.078125 6.890625 40.9375 10.546875 
Q 45.796875 14.203125 45.796875 21.1875 
Q 45.796875 27.640625 41.28125 31.265625 
Q 36.765625 34.90625 28.71875 34.90625 
L 20.21875 34.90625 
L 20.21875 43.015625 
L 29.109375 43.015625 
Q 36.375 43.015625 40.234375 45.921875 
Q 44.09375 48.828125 44.09375 54.296875 
Q 44.09375 59.90625 40.109375 62.90625 
Q 36.140625 65.921875 28.71875 65.921875 
Q 24.65625 65.921875 20.015625 65.03125 
Q 15.375 64.15625 9.8125 62.3125 
L 9.8125 71.09375 
Q 15.4375 72.65625 20.34375 73.4375 
Q 25.25 74.21875 29.59375 74.21875 
Q 40.828125 74.21875 47.359375 69.109375 
Q 53.90625 64.015625 53.90625 55.328125 
Q 53.90625 49.265625 50.4375 45.09375 
Q 46.96875 40.921875 40.578125 39.3125 
z
" id="DejaVuSans-51"/>
       <path d="M 31.78125 66.40625 
Q 24.171875 66.40625 20.328125 58.90625 
Q 16.5 51.421875 16.5 36.375 
Q 16.5 21.390625 20.328125 13.890625 
Q 24.171875 6.390625 31.78125 6.390625 
Q 39.453125 6.390625 43.28125 13.890625 
Q 47.125 21.390625 47.125 36.375 
Q 47.125 51.421875 43.28125 58.90625 
Q 39.453125 66.40625 31.78125 66.40625 
z
M 31.78125 74.21875 
Q 44.046875 74.21875 50.515625 64.515625 
Q 56.984375 54.828125 56.984375 36.375 
Q 56.984375 17.96875 50.515625 8.265625 
Q 44.046875 -1.421875 31.78125 -1.421875 
Q 19.53125 -1.421875 13.0625 8.265625 
Q 6.59375 17.96875 6.59375 36.375 
Q 6.59375 54.828125 13.0625 64.515625 
Q 19.53125 74.21875 31.78125 74.21875 
z
" id="DejaVuSans-48"/>
      </defs>
      <g transform="translate(54.980518 266.598437)scale(0.1 -0.1)">
       <use xlink:href="#DejaVuSans-51"/>
       <use x="63.623047" xlink:href="#DejaVuSans-48"/>
      </g>
     </g>
    </g>
    <g id="xtick_2">
     <g id="line2d_2">
      <g>
       <use style="stroke:#000000;stroke-width:0.8;" x="116.269152" xlink:href="#mdfc9521b3f" y="252"/>
      </g>
     </g>
     <g id="text_2">
      <!-- 35 -->
      <defs>
       <path d="M 10.796875 72.90625 
L 49.515625 72.90625 
L 49.515625 64.59375 
L 19.828125 64.59375 
L 19.828125 46.734375 
Q 21.96875 47.46875 24.109375 47.828125 
Q 26.265625 48.1875 28.421875 48.1875 
Q 40.625 48.1875 47.75 41.5 
Q 54.890625 34.8125 54.890625 23.390625 
Q 54.890625 11.625 47.5625 5.09375 
Q 40.234375 -1.421875 26.90625 -1.421875 
Q 22.3125 -1.421875 17.546875 -0.640625 
Q 12.796875 0.140625 7.71875 1.703125 
L 7.71875 11.625 
Q 12.109375 9.234375 16.796875 8.0625 
Q 21.484375 6.890625 26.703125 6.890625 
Q 35.15625 6.890625 40.078125 11.328125 
Q 45.015625 15.765625 45.015625 23.390625 
Q 45.015625 31 40.078125 35.4375 
Q 35.15625 39.890625 26.703125 39.890625 
Q 22.75 39.890625 18.8125 39.015625 
Q 14.890625 38.140625 10.796875 36.28125 
z
" id="DejaVuSans-53"/>
      </defs>
      <g transform="translate(109.906652 266.598437)scale(0.1 -0.1)">
       <use xlink:href="#DejaVuSans-51"/>
       <use x="63.623047" xlink:href="#DejaVuSans-53"/>
      </g>
     </g>
    </g>
    <g id="xtick_3">
     <g id="line2d_3">
      <g>
       <use style="stroke:#000000;stroke-width:0.8;" x="171.195286" xlink:href="#mdfc9521b3f" y="252"/>
      </g>
     </g>
     <g id="text_3">
      <!-- 40 -->
      <defs>
       <path d="M 37.796875 64.3125 
L 12.890625 25.390625 
L 37.796875 25.390625 
z
M 35.203125 72.90625 
L 47.609375 72.90625 
L 47.609375 25.390625 
L 58.015625 25.390625 
L 58.015625 17.1875 
L 47.609375 17.1875 
L 47.609375 0 
L 37.796875 0 
L 37.796875 17.1875 
L 4.890625 17.1875 
L 4.890625 26.703125 
z
" id="DejaVuSans-52"/>
      </defs>
      <g transform="translate(164.832786 266.598437)scale(0.1 -0.1)">
       <use xlink:href="#DejaVuSans-52"/>
       <use x="63.623047" xlink:href="#DejaVuSans-48"/>
      </g>
     </g>
    </g>
    <g id="xtick_4">
     <g id="line2d_4">
      <g>
       <use style="stroke:#000000;stroke-width:0.8;" x="226.12142" xlink:href="#mdfc9521b3f" y="252"/>
      </g>
     </g>
     <g id="text_4">
      <!-- 45 -->
      <g transform="translate(219.75892 266.598437)scale(0.1 -0.1)">
       <use xlink:href="#DejaVuSans-52"/>
       <use x="63.623047" xlink:href="#DejaVuSans-53"/>
      </g>
     </g>
    </g>
    <g id="text_5">
     <!-- Inclination -->
     <defs>
      <path d="M 9.8125 72.90625 
L 19.671875 72.90625 
L 19.671875 0 
L 9.8125 0 
z
" id="DejaVuSans-73"/>
      <path d="M 54.890625 33.015625 
L 54.890625 0 
L 45.90625 0 
L 45.90625 32.71875 
Q 45.90625 40.484375 42.875 44.328125 
Q 39.84375 48.1875 33.796875 48.1875 
Q 26.515625 48.1875 22.3125 43.546875 
Q 18.109375 38.921875 18.109375 30.90625 
L 18.109375 0 
L 9.078125 0 
L 9.078125 54.6875 
L 18.109375 54.6875 
L 18.109375 46.1875 
Q 21.34375 51.125 25.703125 53.5625 
Q 30.078125 56 35.796875 56 
Q 45.21875 56 50.046875 50.171875 
Q 54.890625 44.34375 54.890625 33.015625 
z
" id="DejaVuSans-110"/>
      <path d="M 48.78125 52.59375 
L 48.78125 44.1875 
Q 44.96875 46.296875 41.140625 47.34375 
Q 37.3125 48.390625 33.40625 48.390625 
Q 24.65625 48.390625 19.8125 42.84375 
Q 14.984375 37.3125 14.984375 27.296875 
Q 14.984375 17.28125 19.8125 11.734375 
Q 24.65625 6.203125 33.40625 6.203125 
Q 37.3125 6.203125 41.140625 7.25 
Q 44.96875 8.296875 48.78125 10.40625 
L 48.78125 2.09375 
Q 45.015625 0.34375 40.984375 -0.53125 
Q 36.96875 -1.421875 32.421875 -1.421875 
Q 20.0625 -1.421875 12.78125 6.34375 
Q 5.515625 14.109375 5.515625 27.296875 
Q 5.515625 40.671875 12.859375 48.328125 
Q 20.21875 56 33.015625 56 
Q 37.15625 56 41.109375 55.140625 
Q 45.0625 54.296875 48.78125 52.59375 
z
" id="DejaVuSans-99"/>
      <path d="M 9.421875 75.984375 
L 18.40625 75.984375 
L 18.40625 0 
L 9.421875 0 
z
" id="DejaVuSans-108"/>
      <path d="M 9.421875 54.6875 
L 18.40625 54.6875 
L 18.40625 0 
L 9.421875 0 
z
M 9.421875 75.984375 
L 18.40625 75.984375 
L 18.40625 64.59375 
L 9.421875 64.59375 
z
" id="DejaVuSans-105"/>
      <path d="M 34.28125 27.484375 
Q 23.390625 27.484375 19.1875 25 
Q 14.984375 22.515625 14.984375 16.5 
Q 14.984375 11.71875 18.140625 8.90625 
Q 21.296875 6.109375 26.703125 6.109375 
Q 34.1875 6.109375 38.703125 11.40625 
Q 43.21875 16.703125 43.21875 25.484375 
L 43.21875 27.484375 
z
M 52.203125 31.203125 
L 52.203125 0 
L 43.21875 0 
L 43.21875 8.296875 
Q 40.140625 3.328125 35.546875 0.953125 
Q 30.953125 -1.421875 24.3125 -1.421875 
Q 15.921875 -1.421875 10.953125 3.296875 
Q 6 8.015625 6 15.921875 
Q 6 25.140625 12.171875 29.828125 
Q 18.359375 34.515625 30.609375 34.515625 
L 43.21875 34.515625 
L 43.21875 35.40625 
Q 43.21875 41.609375 39.140625 45 
Q 35.0625 48.390625 27.6875 48.390625 
Q 23 48.390625 18.546875 47.265625 
Q 14.109375 46.140625 10.015625 43.890625 
L 10.015625 52.203125 
Q 14.9375 54.109375 19.578125 55.046875 
Q 24.21875 56 28.609375 56 
Q 40.484375 56 46.34375 49.84375 
Q 52.203125 43.703125 52.203125 31.203125 
z
" id="DejaVuSans-97"/>
      <path d="M 18.3125 70.21875 
L 18.3125 54.6875 
L 36.8125 54.6875 
L 36.8125 47.703125 
L 18.3125 47.703125 
L 18.3125 18.015625 
Q 18.3125 11.328125 20.140625 9.421875 
Q 21.96875 7.515625 27.59375 7.515625 
L 36.8125 7.515625 
L 36.8125 0 
L 27.59375 0 
Q 17.1875 0 13.234375 3.875 
Q 9.28125 7.765625 9.28125 18.015625 
L 9.28125 47.703125 
L 2.6875 47.703125 
L 2.6875 54.6875 
L 9.28125 54.6875 
L 9.28125 70.21875 
z
" id="DejaVuSans-116"/>
      <path d="M 30.609375 48.390625 
Q 23.390625 48.390625 19.1875 42.75 
Q 14.984375 37.109375 14.984375 27.296875 
Q 14.984375 17.484375 19.15625 11.84375 
Q 23.34375 6.203125 30.609375 6.203125 
Q 37.796875 6.203125 41.984375 11.859375 
Q 46.1875 17.53125 46.1875 27.296875 
Q 46.1875 37.015625 41.984375 42.703125 
Q 37.796875 48.390625 30.609375 48.390625 
z
M 30.609375 56 
Q 42.328125 56 49.015625 48.375 
Q 55.71875 40.765625 55.71875 27.296875 
Q 55.71875 13.875 49.015625 6.21875 
Q 42.328125 -1.421875 30.609375 -1.421875 
Q 18.84375 -1.421875 12.171875 6.21875 
Q 5.515625 13.875 5.515625 27.296875 
Q 5.515625 40.765625 12.171875 48.375 
Q 18.84375 56 30.609375 56 
z
" id="DejaVuSans-111"/>
     </defs>
     <g transform="translate(121.61875 280.276563)scale(0.1 -0.1)">
      <use xlink:href="#DejaVuSans-73"/>
      <use x="29.492188" xlink:href="#DejaVuSans-110"/>
      <use x="92.871094" xlink:href="#DejaVuSans-99"/>
      <use x="147.851562" xlink:href="#DejaVuSans-108"/>
      <use x="175.634766" xlink:href="#DejaVuSans-105"/>
      <use x="203.417969" xlink:href="#DejaVuSans-110"/>
      <use x="266.796875" xlink:href="#DejaVuSans-97"/>
      <use x="328.076172" xlink:href="#DejaVuSans-116"/>
      <use x="367.285156" xlink:href="#DejaVuSans-105"/>
      <use x="395.068359" xlink:href="#DejaVuSans-111"/>
      <use x="456.25" xlink:href="#DejaVuSans-110"/>
     </g>
    </g>
   </g>
   <g id="matplotlib.axis_2">
    <g id="ytick_1">
     <g id="line2d_5">
      <defs>
       <path d="M 0 0 
L -3.5 0 
" id="ma059e10082" style="stroke:#000000;stroke-width:0.8;"/>
      </defs>
      <g>
       <use style="stroke:#000000;stroke-width:0.8;" x="36" xlink:href="#ma059e10082" y="220.058409"/>
      </g>
     </g>
     <g id="text_6">
      <!-- 1.2 -->
      <defs>
       <path d="M 12.40625 8.296875 
L 28.515625 8.296875 
L 28.515625 63.921875 
L 10.984375 60.40625 
L 10.984375 69.390625 
L 28.421875 72.90625 
L 38.28125 72.90625 
L 38.28125 8.296875 
L 54.390625 8.296875 
L 54.390625 0 
L 12.40625 0 
z
" id="DejaVuSans-49"/>
       <path d="M 10.6875 12.40625 
L 21 12.40625 
L 21 0 
L 10.6875 0 
z
" id="DejaVuSans-46"/>
       <path d="M 19.1875 8.296875 
L 53.609375 8.296875 
L 53.609375 0 
L 7.328125 0 
L 7.328125 8.296875 
Q 12.9375 14.109375 22.625 23.890625 
Q 32.328125 33.6875 34.8125 36.53125 
Q 39.546875 41.84375 41.421875 45.53125 
Q 43.3125 49.21875 43.3125 52.78125 
Q 43.3125 58.59375 39.234375 62.25 
Q 35.15625 65.921875 28.609375 65.921875 
Q 23.96875 65.921875 18.8125 64.3125 
Q 13.671875 62.703125 7.8125 59.421875 
L 7.8125 69.390625 
Q 13.765625 71.78125 18.9375 73 
Q 24.125 74.21875 28.421875 74.21875 
Q 39.75 74.21875 46.484375 68.546875 
Q 53.21875 62.890625 53.21875 53.421875 
Q 53.21875 48.921875 51.53125 44.890625 
Q 49.859375 40.875 45.40625 35.40625 
Q 44.1875 33.984375 37.640625 27.21875 
Q 31.109375 20.453125 19.1875 8.296875 
z
" id="DejaVuSans-50"/>
      </defs>
      <g transform="translate(13.096875 223.857627)scale(0.1 -0.1)">
       <use xlink:href="#DejaVuSans-49"/>
       <use x="63.623047" xlink:href="#DejaVuSans-46"/>
       <use x="95.410156" xlink:href="#DejaVuSans-50"/>
      </g>
     </g>
    </g>
    <g id="ytick_2">
     <g id="line2d_6">
      <g>
       <use style="stroke:#000000;stroke-width:0.8;" x="36" xlink:href="#ma059e10082" y="186.746305"/>
      </g>
     </g>
     <g id="text_7">
      <!-- 1.4 -->
      <g transform="translate(13.096875 190.545524)scale(0.1 -0.1)">
       <use xlink:href="#DejaVuSans-49"/>
       <use x="63.623047" xlink:href="#DejaVuSans-46"/>
       <use x="95.410156" xlink:href="#DejaVuSans-52"/>
      </g>
     </g>
    </g>
    <g id="ytick_3">
     <g id="line2d_7">
      <g>
       <use style="stroke:#000000;stroke-width:0.8;" x="36" xlink:href="#ma059e10082" y="153.434202"/>
      </g>
     </g>
     <g id="text_8">
      <!-- 1.6 -->
      <defs>
       <path d="M 33.015625 40.375 
Q 26.375 40.375 22.484375 35.828125 
Q 18.609375 31.296875 18.609375 23.390625 
Q 18.609375 15.53125 22.484375 10.953125 
Q 26.375 6.390625 33.015625 6.390625 
Q 39.65625 6.390625 43.53125 10.953125 
Q 47.40625 15.53125 47.40625 23.390625 
Q 47.40625 31.296875 43.53125 35.828125 
Q 39.65625 40.375 33.015625 40.375 
z
M 52.59375 71.296875 
L 52.59375 62.3125 
Q 48.875 64.0625 45.09375 64.984375 
Q 41.3125 65.921875 37.59375 65.921875 
Q 27.828125 65.921875 22.671875 59.328125 
Q 17.53125 52.734375 16.796875 39.40625 
Q 19.671875 43.65625 24.015625 45.921875 
Q 28.375 48.1875 33.59375 48.1875 
Q 44.578125 48.1875 50.953125 41.515625 
Q 57.328125 34.859375 57.328125 23.390625 
Q 57.328125 12.15625 50.6875 5.359375 
Q 44.046875 -1.421875 33.015625 -1.421875 
Q 20.359375 -1.421875 13.671875 8.265625 
Q 6.984375 17.96875 6.984375 36.375 
Q 6.984375 53.65625 15.1875 63.9375 
Q 23.390625 74.21875 37.203125 74.21875 
Q 40.921875 74.21875 44.703125 73.484375 
Q 48.484375 72.75 52.59375 71.296875 
z
" id="DejaVuSans-54"/>
      </defs>
      <g transform="translate(13.096875 157.233421)scale(0.1 -0.1)">
       <use xlink:href="#DejaVuSans-49"/>
       <use x="63.623047" xlink:href="#DejaVuSans-46"/>
       <use x="95.410156" xlink:href="#DejaVuSans-54"/>
      </g>
     </g>
    </g>
    <g id="ytick_4">
     <g id="line2d_8">
      <g>
       <use style="stroke:#000000;stroke-width:0.8;" x="36" xlink:href="#ma059e10082" y="120.122098"/>
      </g>
     </g>
     <g id="text_9">
      <!-- 1.8 -->
      <defs>
       <path d="M 31.78125 34.625 
Q 24.75 34.625 20.71875 30.859375 
Q 16.703125 27.09375 16.703125 20.515625 
Q 16.703125 13.921875 20.71875 10.15625 
Q 24.75 6.390625 31.78125 6.390625 
Q 38.8125 6.390625 42.859375 10.171875 
Q 46.921875 13.96875 46.921875 20.515625 
Q 46.921875 27.09375 42.890625 30.859375 
Q 38.875 34.625 31.78125 34.625 
z
M 21.921875 38.8125 
Q 15.578125 40.375 12.03125 44.71875 
Q 8.5 49.078125 8.5 55.328125 
Q 8.5 64.0625 14.71875 69.140625 
Q 20.953125 74.21875 31.78125 74.21875 
Q 42.671875 74.21875 48.875 69.140625 
Q 55.078125 64.0625 55.078125 55.328125 
Q 55.078125 49.078125 51.53125 44.71875 
Q 48 40.375 41.703125 38.8125 
Q 48.828125 37.15625 52.796875 32.3125 
Q 56.78125 27.484375 56.78125 20.515625 
Q 56.78125 9.90625 50.3125 4.234375 
Q 43.84375 -1.421875 31.78125 -1.421875 
Q 19.734375 -1.421875 13.25 4.234375 
Q 6.78125 9.90625 6.78125 20.515625 
Q 6.78125 27.484375 10.78125 32.3125 
Q 14.796875 37.15625 21.921875 38.8125 
z
M 18.3125 54.390625 
Q 18.3125 48.734375 21.84375 45.5625 
Q 25.390625 42.390625 31.78125 42.390625 
Q 38.140625 42.390625 41.71875 45.5625 
Q 45.3125 48.734375 45.3125 54.390625 
Q 45.3125 60.0625 41.71875 63.234375 
Q 38.140625 66.40625 31.78125 66.40625 
Q 25.390625 66.40625 21.84375 63.234375 
Q 18.3125 60.0625 18.3125 54.390625 
z
" id="DejaVuSans-56"/>
      </defs>
      <g transform="translate(13.096875 123.921317)scale(0.1 -0.1)">
       <use xlink:href="#DejaVuSans-49"/>
       <use x="63.623047" xlink:href="#DejaVuSans-46"/>
       <use x="95.410156" xlink:href="#DejaVuSans-56"/>
      </g>
     </g>
    </g>
    <g id="ytick_5">
     <g id="line2d_9">
      <g>
       <use style="stroke:#000000;stroke-width:0.8;" x="36" xlink:href="#ma059e10082" y="86.809995"/>
      </g>
     </g>
     <g id="text_10">
      <!-- 2.0 -->
      <g transform="translate(13.096875 90.609214)scale(0.1 -0.1)">
       <use xlink:href="#DejaVuSans-50"/>
       <use x="63.623047" xlink:href="#DejaVuSans-46"/>
       <use x="95.410156" xlink:href="#DejaVuSans-48"/>
      </g>
     </g>
    </g>
    <g id="ytick_6">
     <g id="line2d_10">
      <g>
       <use style="stroke:#000000;stroke-width:0.8;" x="36" xlink:href="#ma059e10082" y="53.497892"/>
      </g>
     </g>
     <g id="text_11">
      <!-- 2.2 -->
      <g transform="translate(13.096875 57.29711)scale(0.1 -0.1)">
       <use xlink:href="#DejaVuSans-50"/>
       <use x="63.623047" xlink:href="#DejaVuSans-46"/>
       <use x="95.410156" xlink:href="#DejaVuSans-50"/>
      </g>
     </g>
    </g>
    <g id="text_12">
     <!-- Elongation -->
     <defs>
      <path d="M 9.8125 72.90625 
L 55.90625 72.90625 
L 55.90625 64.59375 
L 19.671875 64.59375 
L 19.671875 43.015625 
L 54.390625 43.015625 
L 54.390625 34.71875 
L 19.671875 34.71875 
L 19.671875 8.296875 
L 56.78125 8.296875 
L 56.78125 0 
L 9.8125 0 
z
" id="DejaVuSans-69"/>
      <path d="M 45.40625 27.984375 
Q 45.40625 37.75 41.375 43.109375 
Q 37.359375 48.484375 30.078125 48.484375 
Q 22.859375 48.484375 18.828125 43.109375 
Q 14.796875 37.75 14.796875 27.984375 
Q 14.796875 18.265625 18.828125 12.890625 
Q 22.859375 7.515625 30.078125 7.515625 
Q 37.359375 7.515625 41.375 12.890625 
Q 45.40625 18.265625 45.40625 27.984375 
z
M 54.390625 6.78125 
Q 54.390625 -7.171875 48.1875 -13.984375 
Q 42 -20.796875 29.203125 -20.796875 
Q 24.46875 -20.796875 20.265625 -20.09375 
Q 16.0625 -19.390625 12.109375 -17.921875 
L 12.109375 -9.1875 
Q 16.0625 -11.328125 19.921875 -12.34375 
Q 23.78125 -13.375 27.78125 -13.375 
Q 36.625 -13.375 41.015625 -8.765625 
Q 45.40625 -4.15625 45.40625 5.171875 
L 45.40625 9.625 
Q 42.625 4.78125 38.28125 2.390625 
Q 33.9375 0 27.875 0 
Q 17.828125 0 11.671875 7.65625 
Q 5.515625 15.328125 5.515625 27.984375 
Q 5.515625 40.671875 11.671875 48.328125 
Q 17.828125 56 27.875 56 
Q 33.9375 56 38.28125 53.609375 
Q 42.625 51.21875 45.40625 46.390625 
L 45.40625 54.6875 
L 54.390625 54.6875 
z
" id="DejaVuSans-103"/>
     </defs>
     <g transform="translate(7.017187 169.872187)rotate(-90)scale(0.1 -0.1)">
      <use xlink:href="#DejaVuSans-69"/>
      <use x="63.183594" xlink:href="#DejaVuSans-108"/>
      <use x="90.966797" xlink:href="#DejaVuSans-111"/>
      <use x="152.148438" xlink:href="#DejaVuSans-110"/>
      <use x="215.527344" xlink:href="#DejaVuSans-103"/>
      <use x="279.003906" xlink:href="#DejaVuSans-97"/>
      <use x="340.283203" xlink:href="#DejaVuSans-116"/>
      <use x="379.492188" xlink:href="#DejaVuSans-105"/>
      <use x="407.275391" xlink:href="#DejaVuSans-111"/>
      <use x="468.457031" xlink:href="#DejaVuSans-110"/>
     </g>
    </g>
   </g>
   <g id="line2d_11">
    <path clip-path="url(#pf548dd32eb)" d="M 58.161466 192.603353 
L 60.769241 189.714971 
L 63.415335 186.73451 
L 66.10052 183.662742 
L 68.825585 180.500074 
L 71.59134 177.246591 
L 74.398611 173.902089 
L 77.248248 170.466103 
L 80.141119 166.937934 
L 83.078111 163.316663 
L 86.060135 159.601178 
L 89.088122 155.79018 
L 92.163027 151.8822 
L 95.285825 147.875606 
L 98.457517 143.768615 
L 101.679126 139.559296 
L 104.9517 135.24558 
L 108.27631 130.825259 
L 111.654056 126.295994 
L 115.086059 121.655315 
L 118.57347 116.900623 
L 122.117465 112.029193 
L 125.719248 107.038174 
L 129.380052 101.924587 
L 133.101135 96.685327 
L 136.883786 91.31716 
L 140.729324 85.816727 
L 140.729324 85.816727 
L 142.676096 83.015825 
" style="fill:none;stroke:#ff0000;stroke-linecap:square;stroke-width:1.5;"/>
   </g>
   <g id="line2d_12">
    <path clip-path="url(#pf548dd32eb)" d="M 47.638411 193.409739 
L 50.205912 190.441191 
L 52.812009 187.382548 
L 55.457504 184.234214 
L 58.143214 180.996245 
L 60.869979 177.668392 
L 63.638658 174.250129 
L 66.450133 170.740686 
L 69.305306 167.13907 
L 72.205103 163.444084 
L 75.150471 159.654341 
L 78.142383 155.768283 
L 81.181834 151.784186 
L 84.269845 147.700171 
L 87.407462 143.514213 
L 90.595755 139.224143 
L 93.835824 134.827655 
L 97.128792 130.322312 
L 100.475813 125.705544 
L 103.878068 120.97465 
L 107.336766 116.126806 
L 110.853148 111.159058 
L 114.428482 106.068326 
L 118.064069 100.851404 
L 121.761241 95.504959 
L 125.521362 90.025532 
L 129.345828 84.409533 
L 129.345828 84.409533 
L 131.282635 81.549163 
L 133.236068 78.653245 
" style="fill:none;stroke:#bfbf00;stroke-linecap:square;stroke-width:1.5;"/>
   </g>
   <g id="line2d_13">
    <path clip-path="url(#pf548dd32eb)" d="M 54.679409 194.511693 
L 57.271867 191.431168 
L 59.902554 188.254583 
L 62.572242 184.982634 
L 65.281724 181.6156 
L 68.031812 178.153396 
L 70.823336 174.595618 
L 73.657149 170.941578 
L 76.534121 167.190335 
L 79.455147 163.34072 
L 82.421141 159.391351 
L 85.433039 155.34066 
L 88.491802 151.186896 
L 91.598413 146.928143 
L 94.753878 142.562328 
L 97.959228 138.087224 
L 101.21552 133.500463 
L 104.523835 128.799533 
L 107.885281 123.981787 
L 111.300991 119.044444 
L 114.772128 113.984588 
L 118.299882 108.799172 
L 121.885468 103.485018 
L 125.530135 98.038817 
L 129.235158 92.457125 
L 133.001844 86.736368 
L 133.001844 86.736368 
L 134.908726 83.822686 
L 136.831529 80.872836 
" style="fill:none;stroke:#bfbf00;stroke-linecap:square;stroke-width:1.5;"/>
   </g>
   <g id="line2d_14">
    <path clip-path="url(#pf548dd32eb)" d="M 47.980751 211.751865 
L 50.532156 210.101924 
L 53.121781 208.325038 
L 55.75042 206.427319 
L 58.418887 204.414328 
L 61.128014 202.291043 
L 63.878657 200.061854 
L 66.67169 197.730577 
L 69.508011 195.300489 
L 72.388542 192.774355 
L 75.314225 190.154471 
L 78.286028 187.442705 
L 81.304942 184.640533 
L 84.371984 181.749076 
L 87.488196 178.769132 
L 90.654647 175.701207 
L 93.872432 172.545545 
L 97.142675 169.302146 
L 100.466526 165.970793 
L 103.845166 162.551068 
L 107.279805 159.042368 
L 110.771682 155.443921 
L 114.322069 151.754795 
L 117.932268 147.973914 
L 121.603615 144.100061 
L 125.337477 140.13189 
L 129.135257 136.067932 
L 132.99839 131.906599 
L 136.928348 127.646189 
L 140.926638 123.284892 
L 144.994803 118.82079 
L 149.134424 114.251861 
L 153.347119 109.575982 
L 157.634544 104.790927 
L 161.998394 99.894369 
L 166.440403 94.883882 
L 166.440403 94.883882 
L 168.69127 92.335129 
" style="fill:none;stroke:#bfbf00;stroke-linecap:square;stroke-width:1.5;"/>
   </g>
   <g id="line2d_15">
    <path clip-path="url(#pf548dd32eb)" d="M 68.099353 150.662498 
L 70.737065 147.409502 
L 73.412693 144.070235 
L 76.12698 140.643904 
L 78.880688 137.129593 
L 81.674594 133.526272 
L 84.509495 129.832796 
L 87.386205 126.047913 
L 90.305559 122.170263 
L 93.268408 118.198379 
L 96.275626 114.130697 
L 99.328104 109.965546 
L 102.426755 105.70116 
L 105.572513 101.33567 
L 108.766332 96.867112 
L 112.009191 92.293423 
L 115.302086 87.612442 
L 118.646041 82.82191 
L 122.0421 77.919469 
L 122.0421 77.919469 
L 123.760001 75.425519 
" style="fill:none;stroke:#bfbf00;stroke-linecap:square;stroke-width:1.5;"/>
   </g>
   <g id="line2d_16">
    <path clip-path="url(#pf548dd32eb)" d="M 61.904437 242.116364 
L 64.537964 239.704135 
L 67.210042 237.195507 
L 69.921445 234.606371 
L 72.672961 231.944908 
L 75.465402 229.215399 
L 78.299595 226.419998 
L 81.176388 223.559612 
L 84.096649 220.634371 
L 87.061267 217.643899 
L 90.071152 214.587469 
L 93.127235 211.464104 
L 96.230469 208.272635 
L 99.381829 205.011746 
L 102.582316 201.679997 
L 105.83295 198.275845 
L 109.134777 194.797658 
L 112.488869 191.24372 
L 115.896321 187.612243 
L 119.358254 183.901366 
L 122.875814 180.109162 
L 126.450175 176.233636 
L 130.082538 172.272734 
L 133.774128 168.224334 
L 137.526203 164.086257 
L 141.340046 159.85626 
L 145.216969 155.53204 
L 149.158313 151.111231 
L 153.165449 146.591408 
L 157.23978 141.970085 
L 161.382734 137.244716 
L 165.595776 132.412693 
L 169.880396 127.471349 
L 174.238118 122.417957 
L 178.670498 117.249731 
L 183.179122 111.963827 
L 187.765608 106.55734 
L 187.765608 106.55734 
L 190.088563 103.807956 
L 192.431605 101.027313 
" style="fill:none;stroke:#bfbf00;stroke-linecap:square;stroke-width:1.5;"/>
   </g>
   <g id="line2d_17">
    <path clip-path="url(#pf548dd32eb)" d="M 74.732234 152.431314 
L 77.404489 149.634266 
L 80.114991 146.76097 
L 82.864485 143.811148 
L 85.653737 140.784432 
L 88.483529 137.680365 
L 91.35466 134.498407 
L 94.267949 131.237931 
L 97.224234 127.898234 
L 100.224369 124.478532 
L 103.26923 120.977969 
L 106.359713 117.395614 
L 109.496734 113.730465 
L 112.681228 109.981452 
L 115.914152 106.147439 
L 119.196487 102.227225 
L 122.529232 98.219544 
L 125.913411 94.123072 
L 129.35007 89.936422 
L 132.840278 85.658152 
L 136.385128 81.286762 
L 136.385128 81.286762 
L 138.178391 79.065664 
" style="fill:none;stroke:#bfbf00;stroke-linecap:square;stroke-width:1.5;"/>
   </g>
   <g id="line2d_18">
    <path clip-path="url(#pf548dd32eb)" d="M 57.088128 174.218199 
L 59.695558 170.849009 
L 62.341343 167.392116 
L 65.026257 163.846806 
L 67.751091 160.212184 
L 70.516658 156.487192 
L 73.323786 152.670621 
L 76.173327 148.761119 
L 79.066152 144.757204 
L 82.003152 140.657268 
L 84.98524 136.459586 
L 88.013352 132.16232 
L 91.088446 127.763524 
L 94.211503 123.26115 
L 97.383528 118.653048 
L 100.605549 113.936971 
L 103.878619 109.110576 
L 107.203819 104.171429 
L 110.582251 99.117004 
L 114.015047 93.944687 
L 117.503366 88.651774 
L 121.048392 83.235477 
L 124.65134 77.692922 
L 124.65134 77.692922 
L 126.474921 74.873378 
" style="fill:none;stroke:#bfbf00;stroke-linecap:square;stroke-width:1.5;"/>
   </g>
   <g id="line2d_19">
    <path clip-path="url(#pf548dd32eb)" d="M 52.863521 157.05752 
L 55.429092 153.478851 
L 58.032538 149.800163 
L 60.674633 146.020136 
L 63.356169 142.137272 
L 66.077958 138.149899 
L 68.840831 134.056178 
L 71.64564 129.854106 
L 74.493258 125.541519 
L 77.384581 121.116098 
L 80.320525 116.575366 
L 83.302029 111.916691 
L 86.330057 107.137287 
L 89.405595 102.234212 
L 92.529655 97.204369 
L 95.703272 92.044502 
L 98.927507 86.751196 
L 102.20345 81.320874 
L 105.532215 75.749794 
L 108.914944 70.034045 
L 108.914944 70.034045 
L 110.626909 67.12065 
" style="fill:none;stroke:#bfbf00;stroke-linecap:square;stroke-width:1.5;"/>
   </g>
   <g id="line2d_20">
    <path clip-path="url(#pf548dd32eb)" d="M 53.795092 150.575658 
L 56.395106 147.197131 
L 59.033773 143.713265 
L 61.711882 140.123067 
L 64.430236 136.425366 
L 67.189661 132.618815 
L 69.991002 128.701897 
L 72.835122 124.672923 
L 75.722908 120.53004 
L 78.655267 116.271228 
L 81.633126 111.894307 
L 84.657437 107.396931 
L 87.729174 102.776593 
L 90.849332 98.030623 
L 94.018933 93.156189 
L 97.239021 88.150291 
L 100.510665 83.009767 
L 103.834961 77.731281 
L 107.213028 72.31133 
L 107.213028 72.31133 
L 108.922584 69.547163 
L 110.646015 66.746235 
" style="fill:none;stroke:#bfbf00;stroke-linecap:square;stroke-width:1.5;"/>
   </g>
   <g id="line2d_21">
    <path clip-path="url(#pf548dd32eb)" d="M 52.176902 189.474563 
L 54.738059 186.262907 
L 57.337149 182.978079 
L 59.97495 179.618906 
L 62.652258 176.184082 
L 65.369888 172.672183 
L 68.128677 169.081668 
L 70.929482 165.410896 
L 73.773182 161.658122 
L 76.660675 157.821507 
L 79.592884 153.899121 
L 82.570753 149.888939 
L 85.595252 145.788851 
L 88.667373 141.596658 
L 91.788132 137.310074 
L 94.958571 132.926725 
L 98.179759 128.444152 
L 101.45279 123.859806 
L 104.778785 119.171053 
L 108.158894 114.375168 
L 111.594293 109.469337 
L 115.086189 104.450657 
L 118.635818 99.316133 
L 122.244446 94.062676 
L 125.913369 88.687107 
L 129.643917 83.18615 
L 129.643917 83.18615 
L 131.532724 80.387601 
L 133.437449 77.556433 
" style="fill:none;stroke:#bfbf00;stroke-linecap:square;stroke-width:1.5;"/>
   </g>
   <g id="line2d_22">
    <path clip-path="url(#pf548dd32eb)" d="M 53.996215 148.801565 
L 56.562524 145.629147 
L 59.166584 142.359274 
L 61.809162 138.991246 
L 64.491044 135.524212 
L 67.213037 131.957178 
L 69.975963 128.289009 
L 72.780669 124.51843 
L 75.62802 120.64403 
L 78.518904 116.664262 
L 81.454229 112.577443 
L 84.434926 108.381759 
L 87.461949 104.075261 
L 90.536276 99.655871 
L 93.658907 95.121374 
L 96.83087 90.469426 
L 100.053214 85.697549 
L 103.327017 80.803127 
L 106.653381 75.783411 
L 110.033437 70.635515 
L 110.033437 70.635515 
L 111.74396 68.012557 
" style="fill:none;stroke:#bfbf00;stroke-linecap:square;stroke-width:1.5;"/>
   </g>
   <g id="line2d_23">
    <path clip-path="url(#pf548dd32eb)" d="M 61.2519 160.687963 
L 63.875395 159.117469 
L 66.537463 157.446381 
L 69.238883 155.674876 
L 71.980451 153.80312 
L 74.76298 151.831255 
L 77.587306 149.759389 
L 80.454282 147.587582 
L 83.364781 145.315842 
L 86.3197 142.944108 
L 89.319952 140.472252 
L 92.366477 137.900065 
L 95.460233 135.227252 
L 98.602203 132.453432 
L 101.793391 129.578128 
L 105.034828 126.600765 
L 108.327565 123.520668 
L 111.67268 120.337057 
L 115.071275 117.049047 
L 118.524479 113.655644 
L 122.033444 110.155744 
L 125.599352 106.548129 
L 129.223409 102.831472 
L 132.90685 99.004325 
L 136.650937 95.065127 
L 140.456961 91.012196 
L 144.326239 86.843731 
L 144.326239 86.843731 
L 146.285019 84.715577 
" style="fill:none;stroke:#bfbf00;stroke-linecap:square;stroke-width:1.5;"/>
   </g>
   <g id="line2d_24">
    <path clip-path="url(#pf548dd32eb)" d="M 63.207006 174.286673 
L 65.860863 173.924303 
L 68.553456 173.408473 
L 71.285552 172.737833 
L 74.057933 171.911421 
L 76.871401 170.928642 
L 79.726773 169.789241 
L 82.624889 168.493264 
L 85.566606 167.041015 
L 88.552801 165.433009 
L 91.58437 163.669927 
L 94.66223 161.752563 
L 97.787322 159.68178 
L 100.960603 157.458462 
L 104.183056 155.083477 
L 107.455685 152.557639 
L 110.779515 149.881675 
L 114.155597 147.056195 
L 117.585004 144.081675 
L 121.068832 140.958432 
L 124.608203 137.686613 
L 128.204263 134.26618 
L 131.858185 130.696907 
L 135.571164 126.978368 
L 139.344424 123.109939 
L 143.179215 119.090795 
L 147.076812 114.91991 
L 151.038521 110.596061 
L 155.065671 106.117827 
L 159.159621 101.483597 
L 163.321758 96.691571 
L 163.321758 96.691571 
L 165.428838 94.235773 
L 167.553498 91.739769 
" style="fill:none;stroke:#bfbf00;stroke-linecap:square;stroke-width:1.5;"/>
   </g>
   <g id="line2d_25">
    <path clip-path="url(#pf548dd32eb)" d="M 57.026422 137.768326 
L 59.600825 135.053863 
L 62.213063 132.246172 
L 64.863909 129.344858 
L 67.554156 126.349434 
L 70.284615 123.259324 
L 73.056118 120.073861 
L 75.869519 116.792287 
L 78.72569 113.413751 
L 81.625529 109.93731 
L 84.569951 106.361928 
L 87.559899 102.686476 
L 90.596336 98.909732 
L 93.680249 95.030381 
L 96.812653 91.047018 
L 99.994583 86.958141 
L 103.227104 82.762157 
L 106.511306 78.457382 
L 109.848305 74.042037 
L 109.848305 74.042037 
L 111.53696 71.79232 
L 113.239245 69.514251 
" style="fill:none;stroke:#bfbf00;stroke-linecap:square;stroke-width:1.5;"/>
   </g>
   <g id="line2d_26">
    <path clip-path="url(#pf548dd32eb)" d="M 71.72522 201.365796 
L 74.408198 199.756366 
L 77.129648 197.994675 
L 79.890315 196.085711 
L 82.69096 194.034264 
L 85.532362 191.844836 
L 88.415316 189.521569 
L 91.340636 187.068208 
L 94.309154 184.488074 
L 97.321719 181.784057 
L 100.379201 178.958621 
L 103.482487 176.013812 
L 106.632487 172.951279 
L 109.830128 169.77229 
L 113.076358 166.477753 
L 116.372146 163.068243 
L 119.718484 159.544017 
L 123.116383 155.905037 
L 126.566878 152.150992 
L 130.071023 148.281309 
L 133.629899 144.295176 
L 137.244607 140.191554 
L 140.916272 135.969189 
L 144.646042 131.626624 
L 148.435092 127.162212 
L 152.284618 122.574122 
L 156.195841 117.860348 
L 160.170008 113.018716 
L 164.208391 108.046891 
L 168.312286 102.94238 
L 172.483015 97.702538 
L 172.483015 97.702538 
L 174.593863 95.031 
" style="fill:none;stroke:#bfbf00;stroke-linecap:square;stroke-width:1.5;"/>
   </g>
   <g id="line2d_27">
    <path clip-path="url(#pf548dd32eb)" d="M 62.965483 138.79231 
L 65.580538 136.076814 
L 68.233581 133.255998 
L 70.925366 130.329241 
L 73.656668 127.295808 
L 76.428278 124.154848 
L 79.241004 120.905389 
L 82.095677 117.546335 
L 84.993143 114.076465 
L 87.934272 110.494429 
L 90.919952 106.798742 
L 93.951091 102.987789 
L 97.02862 99.059817 
L 100.153491 95.012932 
L 103.326678 90.845101 
L 106.549177 86.554145 
L 109.822008 82.13774 
L 113.146214 77.593409 
L 116.522862 72.918525 
L 116.522862 72.918525 
L 118.231192 70.531261 
" style="fill:none;stroke:#bfbf00;stroke-linecap:square;stroke-width:1.5;"/>
   </g>
   <g id="line2d_28">
    <path clip-path="url(#pf548dd32eb)" d="M 56.431895 221.372079 
L 59.021642 218.792875 
L 61.649411 216.109102 
L 64.31597 213.326842 
L 67.022107 210.450511 
L 69.768629 207.483241 
L 72.556364 204.427159 
L 75.386156 201.283603 
L 78.258873 198.053278 
L 81.175405 194.736381 
L 84.13666 191.332689 
L 87.143571 187.841631 
L 90.197093 184.262343 
L 93.298204 180.593709 
L 96.447906 176.834393 
L 99.647226 172.982866 
L 102.897216 169.037427 
L 106.198952 164.996213 
L 109.553538 160.857218 
L 112.962105 156.6183 
L 116.425809 152.277186 
L 119.945836 147.831483 
L 123.523401 143.278679 
L 127.159746 138.616146 
L 130.856145 133.841144 
L 134.6139 128.950824 
L 138.434347 123.942227 
L 142.318851 118.812285 
L 146.26881 113.557824 
L 150.285654 108.175559 
L 154.370849 102.662102 
L 158.52589 97.013952 
L 158.52589 97.013952 
L 160.630081 94.138245 
L 162.752311 91.227503 
" style="fill:none;stroke:#bfbf00;stroke-linecap:square;stroke-width:1.5;"/>
   </g>
   <g id="line2d_29">
    <path clip-path="url(#pf548dd32eb)" d="M 60.870001 219.839206 
L 63.501793 216.920852 
L 66.172086 213.924966 
L 68.881645 210.85234 
L 71.631257 207.703145 
L 74.421725 204.477084 
L 77.253871 201.173494 
L 80.128536 197.791424 
L 83.046583 194.329686 
L 86.008891 190.786894 
L 89.016364 187.161494 
L 92.069924 183.451781 
L 95.170516 179.655921 
L 98.319107 175.771955 
L 101.516686 171.797814 
L 104.764264 167.731321 
L 108.062878 163.570198 
L 111.413587 159.312067 
L 114.817475 154.954455 
L 118.27565 150.494794 
L 121.789247 145.930423 
L 125.359424 141.258585 
L 128.98737 136.476432 
L 132.674295 131.58102 
L 136.421441 126.569312 
L 140.230074 121.438175 
L 144.10149 116.18438 
L 148.037013 110.804601 
L 152.037996 105.295415 
L 156.105821 99.653297 
L 160.241899 93.874625 
L 160.241899 93.874625 
L 162.335982 90.93292 
" style="fill:none;stroke:#bfbf00;stroke-linecap:square;stroke-width:1.5;"/>
   </g>
   <g id="line2d_30">
    <path clip-path="url(#pf548dd32eb)" d="M 58.162394 191.151104 
L 60.767742 187.846807 
L 63.411339 184.453822 
L 66.093954 180.971395 
L 68.816376 177.398513 
L 71.579409 173.733924 
L 74.383881 169.976167 
L 77.230637 166.123588 
L 80.120543 162.174355 
L 83.054484 158.126467 
L 86.033369 153.977768 
L 89.058127 149.72595 
L 92.129708 145.368559 
L 95.249087 140.903 
L 98.417261 136.326538 
L 101.635249 131.636299 
L 104.904097 126.829276 
L 108.224875 121.90232 
L 111.598675 116.852148 
L 115.02662 111.675337 
L 118.509854 106.368321 
L 122.049552 100.927396 
L 125.646913 95.348709 
L 129.303166 89.628259 
L 133.019566 83.761897 
L 133.019566 83.761897 
L 134.900722 80.772659 
L 136.797399 77.745316 
" style="fill:none;stroke:#bfbf00;stroke-linecap:square;stroke-width:1.5;"/>
   </g>
   <g id="line2d_31">
    <path clip-path="url(#pf548dd32eb)" d="M 60.923246 208.024412 
L 63.542865 205.115081 
L 66.20088 202.137352 
L 68.89806 199.090618 
L 71.635195 195.974043 
L 74.41309 192.786594 
L 77.232574 189.527069 
L 80.09449 186.194112 
L 82.999706 182.786235 
L 85.949106 179.301821 
L 88.943597 175.739137 
L 91.984109 172.096339 
L 95.071589 168.371472 
L 98.207012 164.56248 
L 101.39137 160.667199 
L 104.625684 156.683366 
L 107.910992 152.60861 
L 111.248363 148.440458 
L 114.638885 144.17633 
L 118.083674 139.813537 
L 121.583871 135.349279 
L 125.140643 130.780642 
L 128.755181 126.104593 
L 132.428707 121.31798 
L 136.162466 116.417522 
L 139.957734 111.399808 
L 143.815814 106.261291 
L 147.738035 100.998285 
L 151.725757 95.606954 
L 155.78037 90.083309 
L 155.78037 90.083309 
L 157.833201 87.270579 
" style="fill:none;stroke:#bfbf00;stroke-linecap:square;stroke-width:1.5;"/>
   </g>
   <g id="line2d_32">
    <path clip-path="url(#pf548dd32eb)" d="M 57.713206 160.383519 
L 60.299959 156.523671 
L 62.924696 152.574055 
L 65.588186 148.532365 
L 68.291216 144.396185 
L 71.034594 140.162989 
L 73.819145 135.830136 
L 76.645717 131.39487 
L 79.515177 126.85432 
L 82.428411 122.205496 
L 85.386331 117.445286 
L 88.389866 112.570453 
L 91.439972 107.577632 
L 94.537626 102.463327 
L 97.683829 97.223905 
L 100.879605 91.855593 
L 104.126004 86.354473 
L 107.424101 80.716478 
L 110.774998 74.937385 
L 110.774998 74.937385 
L 112.470598 71.993563 
L 114.179822 69.012811 
" style="fill:none;stroke:#bfbf00;stroke-linecap:square;stroke-width:1.5;"/>
   </g>
   <g id="line2d_33">
    <path clip-path="url(#pf548dd32eb)" d="M 46.145455 201.301791 
L 48.706054 198.010084 
L 51.305214 194.646107 
L 53.943738 191.208155 
L 56.622447 187.69443 
L 59.342182 184.103043 
L 62.103807 180.43202 
L 64.908206 176.679304 
L 67.756286 172.842754 
L 70.648976 168.920148 
L 73.587229 164.90918 
L 76.572022 160.807459 
L 79.604355 156.612512 
L 82.685255 152.321776 
L 85.815772 147.932602 
L 88.996986 143.44225 
L 92.230001 138.847886 
L 95.51595 134.146583 
L 98.855993 129.335313 
L 102.251319 124.410951 
L 105.703148 119.370265 
L 109.212729 114.20992 
L 112.781342 108.926468 
L 116.410297 103.516351 
L 120.100939 97.975894 
L 123.854643 92.301302 
L 127.672819 86.488658 
L 131.556909 80.533916 
L 131.556909 80.533916 
L 133.524133 77.501959 
" style="fill:none;stroke:#bfbf00;stroke-linecap:square;stroke-width:1.5;"/>
   </g>
   <g id="line2d_34">
    <path clip-path="url(#pf548dd32eb)" d="M 75.91712 143.209021 
L 78.60534 139.735061 
L 81.3319 136.18884 
L 84.097542 132.569146 
L 86.903021 128.874702 
L 89.749112 125.104164 
L 92.636606 121.256126 
L 95.566311 117.329118 
L 98.539053 113.321607 
L 101.555676 109.232001 
L 104.617045 105.058644 
L 107.72404 100.799819 
L 110.877563 96.453749 
L 114.078535 92.018594 
L 117.327898 87.492454 
L 120.626612 82.873367 
L 123.975659 78.15931 
L 123.975659 78.15931 
L 125.669371 75.766019 
" style="fill:none;stroke:#bfbf00;stroke-linecap:square;stroke-width:1.5;"/>
   </g>
   <g id="line2d_35">
    <path clip-path="url(#pf548dd32eb)" d="M 46.842073 187.194824 
L 49.396372 183.901224 
L 51.988806 180.505857 
L 54.620159 177.008693 
L 57.291233 173.40934 
L 60.002849 169.707087 
L 62.755849 165.900937 
L 65.551096 161.989628 
L 68.389473 157.971661 
L 71.271887 153.845312 
L 74.199266 149.608652 
L 77.172561 145.259555 
L 80.192746 140.795712 
L 83.26082 136.214635 
L 86.377806 131.513662 
L 89.544753 126.689969 
L 92.762736 121.740562 
L 96.032854 116.662292 
L 99.356237 111.451844 
L 102.73404 106.105749 
L 106.167448 100.620375 
L 109.657673 94.991932 
L 113.205958 89.216469 
L 116.813577 83.289869 
L 120.481834 77.207855 
L 120.481834 77.207855 
L 122.339117 74.107185 
" style="fill:none;stroke:#bfbf00;stroke-linecap:square;stroke-width:1.5;"/>
   </g>
   <g id="line2d_36">
    <path clip-path="url(#pf548dd32eb)" d="M 60.350974 130.03987 
L 62.956697 127.527986 
L 65.600404 124.909665 
L 68.282859 122.184514 
L 71.004842 119.352068 
L 73.767151 116.41179 
L 76.570607 113.363065 
L 79.416045 110.205194 
L 82.304326 106.937394 
L 85.236328 103.558795 
L 88.212951 100.068436 
L 91.235117 96.465265 
L 94.303771 92.748136 
L 97.41988 88.915808 
L 100.584434 84.966946 
L 103.798447 80.900117 
L 107.062959 76.713793 
L 110.379033 72.406347 
L 110.379033 72.406347 
L 112.056746 70.206669 
" style="fill:none;stroke:#bfbf00;stroke-linecap:square;stroke-width:1.5;"/>
   </g>
   <g id="line2d_37">
    <path clip-path="url(#pf548dd32eb)" d="M 48.904179 44.443636 
L 88.987459 61.071436 
L 145.158683 84.66853 
L 206.694392 110.461346 
L 227.242003 118.967871 
L 249.054545 127.901858 
L 249.054545 127.901858 
" style="fill:none;stroke:#008000;stroke-linecap:square;stroke-width:1.5;"/>
   </g>
   <g id="patch_3">
    <path d="M 36 252 
L 36 34.56 
" style="fill:none;stroke:#000000;stroke-linecap:square;stroke-linejoin:miter;stroke-width:0.8;"/>
   </g>
   <g id="patch_4">
    <path d="M 259.2 252 
L 259.2 34.56 
" style="fill:none;stroke:#000000;stroke-linecap:square;stroke-linejoin:miter;stroke-width:0.8;"/>
   </g>
   <g id="patch_5">
    <path d="M 36 252 
L 259.2 252 
" style="fill:none;stroke:#000000;stroke-linecap:square;stroke-linejoin:miter;stroke-width:0.8;"/>
   </g>
   <g id="patch_6">
    <path d="M 36 34.56 
L 259.2 34.56 
" style="fill:none;stroke:#000000;stroke-linecap:square;stroke-linejoin:miter;stroke-width:0.8;"/>
   </g>
   <g id="text_13">
    <!--  0.73 -->
    <defs>
     <path id="DejaVuSans-32"/>
     <path d="M 8.203125 72.90625 
L 55.078125 72.90625 
L 55.078125 68.703125 
L 28.609375 0 
L 18.3125 0 
L 43.21875 64.59375 
L 8.203125 64.59375 
z
" id="DejaVuSans-55"/>
    </defs>
    <g transform="translate(142.676096 83.015825)scale(0.1 -0.1)">
     <use xlink:href="#DejaVuSans-32"/>
     <use x="31.787109" xlink:href="#DejaVuSans-48"/>
     <use x="95.410156" xlink:href="#DejaVuSans-46"/>
     <use x="127.197266" xlink:href="#DejaVuSans-55"/>
     <use x="190.820312" xlink:href="#DejaVuSans-51"/>
    </g>
   </g>
   <g id="text_14">
    <!--  f=1 -->
    <defs>
     <path d="M 37.109375 75.984375 
L 37.109375 68.5 
L 28.515625 68.5 
Q 23.6875 68.5 21.796875 66.546875 
Q 19.921875 64.59375 19.921875 59.515625 
L 19.921875 54.6875 
L 34.71875 54.6875 
L 34.71875 47.703125 
L 19.921875 47.703125 
L 19.921875 0 
L 10.890625 0 
L 10.890625 47.703125 
L 2.296875 47.703125 
L 2.296875 54.6875 
L 10.890625 54.6875 
L 10.890625 58.5 
Q 10.890625 67.625 15.140625 71.796875 
Q 19.390625 75.984375 28.609375 75.984375 
z
" id="DejaVuSans-102"/>
     <path d="M 10.59375 45.40625 
L 73.1875 45.40625 
L 73.1875 37.203125 
L 10.59375 37.203125 
z
M 10.59375 25.484375 
L 73.1875 25.484375 
L 73.1875 17.1875 
L 10.59375 17.1875 
z
" id="DejaVuSans-61"/>
    </defs>
    <g transform="translate(36.191013 192.603353)scale(0.1 -0.1)">
     <use xlink:href="#DejaVuSans-32"/>
     <use x="31.787109" xlink:href="#DejaVuSans-102"/>
     <use x="66.992188" xlink:href="#DejaVuSans-61"/>
     <use x="150.78125" xlink:href="#DejaVuSans-49"/>
    </g>
   </g>
  </g>
 </g>
 <defs>
  <clipPath id="pf548dd32eb">
   <rect height="217.44" width="223.2" x="36" y="34.56"/>
  </clipPath>
 </defs>
</svg>
