<?xml version="1.0" encoding="utf-8" standalone="no"?>
<!DOCTYPE svg PUBLIC "-//W3C//DTD SVG 1.1//EN"
  "http://www.w3.org/Graphics/SVG/1.1/DTD/svg11.dtd">
<!-- Created with matplotlib (https://matplotlib.org/) -->
<svg height="288pt" version="1.1" viewBox="0 0 288 288" width="288pt" xmlns="http://www.w3.org/2000/svg" xmlns:xlink="http://www.w3.org/1999/xlink">
 <defs>
  <style type="text/css">
*{stroke-linecap:butt;stroke-linejoin:round;}
  </style>
 </defs>
 <g id="figure_1">
  <g id="patch_1">
   <path d="M 0 288 
L 288 288 
L 288 0 
L 0 0 
z
" style="fill:#ffffff;"/>
  </g>
  <g id="axes_1">
   <g id="patch_2">
    <path d="M 36 252 
L 259.2 252 
L 259.2 34.56 
L 36 34.56 
z
" style="fill:#ffffff;"/>
   </g>
   <g id="matplotlib.axis_1">
    <g id="xtick_1">
     <g id="line2d_1">
      <defs>
       <path d="M 0 0 
L 0 3.5 
" id="m77ba7560bf" style="stroke:#000000;stroke-width:0.8;"/>
      </defs>
      <g>
       <use style="stroke:#000000;stroke-width:0.8;" x="67.742211" xlink:href="#m77ba7560bf" y="252"/>
      </g>
     </g>
     <g id="text_1">
      <!-- 30 -->
      <defs>
       <path d="M 40.578125 39.3125 
Q 47.65625 37.796875 51.625 33 
Q 55.609375 28.21875 55.609375 21.1875 
Q 55.609375 10.40625 48.1875 4.484375 
Q 40.765625 -1.421875 27.09375 -1.421875 
Q 22.515625 -1.421875 17.65625 -0.515625 
Q 12.796875 0.390625 7.625 2.203125 
L 7.625 11.71875 
Q 11.71875 9.328125 16.59375 8.109375 
Q 21.484375 6.890625 26.8125 6.890625 
Q 36.078125 6.890625 40.9375 10.546875 
Q 45.796875 14.203125 45.796875 21.1875 
Q 45.796875 27.640625 41.28125 31.265625 
Q 36.765625 34.90625 28.71875 34.90625 
L 20.21875 34.90625 
L 20.21875 43.015625 
L 29.109375 43.015625 
Q 36.375 43.015625 40.234375 45.921875 
Q 44.09375 48.828125 44.09375 54.296875 
Q 44.09375 59.90625 40.109375 62.90625 
Q 36.140625 65.921875 28.71875 65.921875 
Q 24.65625 65.921875 20.015625 65.03125 
Q 15.375 64.15625 9.8125 62.3125 
L 9.8125 71.09375 
Q 15.4375 72.65625 20.34375 73.4375 
Q 25.25 74.21875 29.59375 74.21875 
Q 40.828125 74.21875 47.359375 69.109375 
Q 53.90625 64.015625 53.90625 55.328125 
Q 53.90625 49.265625 50.4375 45.09375 
Q 46.96875 40.921875 40.578125 39.3125 
z
" id="DejaVuSans-51"/>
       <path d="M 31.78125 66.40625 
Q 24.171875 66.40625 20.328125 58.90625 
Q 16.5 51.421875 16.5 36.375 
Q 16.5 21.390625 20.328125 13.890625 
Q 24.171875 6.390625 31.78125 6.390625 
Q 39.453125 6.390625 43.28125 13.890625 
Q 47.125 21.390625 47.125 36.375 
Q 47.125 51.421875 43.28125 58.90625 
Q 39.453125 66.40625 31.78125 66.40625 
z
M 31.78125 74.21875 
Q 44.046875 74.21875 50.515625 64.515625 
Q 56.984375 54.828125 56.984375 36.375 
Q 56.984375 17.96875 50.515625 8.265625 
Q 44.046875 -1.421875 31.78125 -1.421875 
Q 19.53125 -1.421875 13.0625 8.265625 
Q 6.59375 17.96875 6.59375 36.375 
Q 6.59375 54.828125 13.0625 64.515625 
Q 19.53125 74.21875 31.78125 74.21875 
z
" id="DejaVuSans-48"/>
      </defs>
      <g transform="translate(61.379711 266.598437)scale(0.1 -0.1)">
       <use xlink:href="#DejaVuSans-51"/>
       <use x="63.623047" xlink:href="#DejaVuSans-48"/>
      </g>
     </g>
    </g>
    <g id="xtick_2">
     <g id="line2d_2">
      <g>
       <use style="stroke:#000000;stroke-width:0.8;" x="108.835006" xlink:href="#m77ba7560bf" y="252"/>
      </g>
     </g>
     <g id="text_2">
      <!-- 35 -->
      <defs>
       <path d="M 10.796875 72.90625 
L 49.515625 72.90625 
L 49.515625 64.59375 
L 19.828125 64.59375 
L 19.828125 46.734375 
Q 21.96875 47.46875 24.109375 47.828125 
Q 26.265625 48.1875 28.421875 48.1875 
Q 40.625 48.1875 47.75 41.5 
Q 54.890625 34.8125 54.890625 23.390625 
Q 54.890625 11.625 47.5625 5.09375 
Q 40.234375 -1.421875 26.90625 -1.421875 
Q 22.3125 -1.421875 17.546875 -0.640625 
Q 12.796875 0.140625 7.71875 1.703125 
L 7.71875 11.625 
Q 12.109375 9.234375 16.796875 8.0625 
Q 21.484375 6.890625 26.703125 6.890625 
Q 35.15625 6.890625 40.078125 11.328125 
Q 45.015625 15.765625 45.015625 23.390625 
Q 45.015625 31 40.078125 35.4375 
Q 35.15625 39.890625 26.703125 39.890625 
Q 22.75 39.890625 18.8125 39.015625 
Q 14.890625 38.140625 10.796875 36.28125 
z
" id="DejaVuSans-53"/>
      </defs>
      <g transform="translate(102.472506 266.598437)scale(0.1 -0.1)">
       <use xlink:href="#DejaVuSans-51"/>
       <use x="63.623047" xlink:href="#DejaVuSans-53"/>
      </g>
     </g>
    </g>
    <g id="xtick_3">
     <g id="line2d_3">
      <g>
       <use style="stroke:#000000;stroke-width:0.8;" x="149.927801" xlink:href="#m77ba7560bf" y="252"/>
      </g>
     </g>
     <g id="text_3">
      <!-- 40 -->
      <defs>
       <path d="M 37.796875 64.3125 
L 12.890625 25.390625 
L 37.796875 25.390625 
z
M 35.203125 72.90625 
L 47.609375 72.90625 
L 47.609375 25.390625 
L 58.015625 25.390625 
L 58.015625 17.1875 
L 47.609375 17.1875 
L 47.609375 0 
L 37.796875 0 
L 37.796875 17.1875 
L 4.890625 17.1875 
L 4.890625 26.703125 
z
" id="DejaVuSans-52"/>
      </defs>
      <g transform="translate(143.565301 266.598437)scale(0.1 -0.1)">
       <use xlink:href="#DejaVuSans-52"/>
       <use x="63.623047" xlink:href="#DejaVuSans-48"/>
      </g>
     </g>
    </g>
    <g id="xtick_4">
     <g id="line2d_4">
      <g>
       <use style="stroke:#000000;stroke-width:0.8;" x="191.020596" xlink:href="#m77ba7560bf" y="252"/>
      </g>
     </g>
     <g id="text_4">
      <!-- 45 -->
      <g transform="translate(184.658096 266.598437)scale(0.1 -0.1)">
       <use xlink:href="#DejaVuSans-52"/>
       <use x="63.623047" xlink:href="#DejaVuSans-53"/>
      </g>
     </g>
    </g>
    <g id="xtick_5">
     <g id="line2d_5">
      <g>
       <use style="stroke:#000000;stroke-width:0.8;" x="232.113391" xlink:href="#m77ba7560bf" y="252"/>
      </g>
     </g>
     <g id="text_5">
      <!-- 50 -->
      <g transform="translate(225.750891 266.598437)scale(0.1 -0.1)">
       <use xlink:href="#DejaVuSans-53"/>
       <use x="63.623047" xlink:href="#DejaVuSans-48"/>
      </g>
     </g>
    </g>
    <g id="text_6">
     <!-- Inclination -->
     <defs>
      <path d="M 9.8125 72.90625 
L 19.671875 72.90625 
L 19.671875 0 
L 9.8125 0 
z
" id="DejaVuSans-73"/>
      <path d="M 54.890625 33.015625 
L 54.890625 0 
L 45.90625 0 
L 45.90625 32.71875 
Q 45.90625 40.484375 42.875 44.328125 
Q 39.84375 48.1875 33.796875 48.1875 
Q 26.515625 48.1875 22.3125 43.546875 
Q 18.109375 38.921875 18.109375 30.90625 
L 18.109375 0 
L 9.078125 0 
L 9.078125 54.6875 
L 18.109375 54.6875 
L 18.109375 46.1875 
Q 21.34375 51.125 25.703125 53.5625 
Q 30.078125 56 35.796875 56 
Q 45.21875 56 50.046875 50.171875 
Q 54.890625 44.34375 54.890625 33.015625 
z
" id="DejaVuSans-110"/>
      <path d="M 48.78125 52.59375 
L 48.78125 44.1875 
Q 44.96875 46.296875 41.140625 47.34375 
Q 37.3125 48.390625 33.40625 48.390625 
Q 24.65625 48.390625 19.8125 42.84375 
Q 14.984375 37.3125 14.984375 27.296875 
Q 14.984375 17.28125 19.8125 11.734375 
Q 24.65625 6.203125 33.40625 6.203125 
Q 37.3125 6.203125 41.140625 7.25 
Q 44.96875 8.296875 48.78125 10.40625 
L 48.78125 2.09375 
Q 45.015625 0.34375 40.984375 -0.53125 
Q 36.96875 -1.421875 32.421875 -1.421875 
Q 20.0625 -1.421875 12.78125 6.34375 
Q 5.515625 14.109375 5.515625 27.296875 
Q 5.515625 40.671875 12.859375 48.328125 
Q 20.21875 56 33.015625 56 
Q 37.15625 56 41.109375 55.140625 
Q 45.0625 54.296875 48.78125 52.59375 
z
" id="DejaVuSans-99"/>
      <path d="M 9.421875 75.984375 
L 18.40625 75.984375 
L 18.40625 0 
L 9.421875 0 
z
" id="DejaVuSans-108"/>
      <path d="M 9.421875 54.6875 
L 18.40625 54.6875 
L 18.40625 0 
L 9.421875 0 
z
M 9.421875 75.984375 
L 18.40625 75.984375 
L 18.40625 64.59375 
L 9.421875 64.59375 
z
" id="DejaVuSans-105"/>
      <path d="M 34.28125 27.484375 
Q 23.390625 27.484375 19.1875 25 
Q 14.984375 22.515625 14.984375 16.5 
Q 14.984375 11.71875 18.140625 8.90625 
Q 21.296875 6.109375 26.703125 6.109375 
Q 34.1875 6.109375 38.703125 11.40625 
Q 43.21875 16.703125 43.21875 25.484375 
L 43.21875 27.484375 
z
M 52.203125 31.203125 
L 52.203125 0 
L 43.21875 0 
L 43.21875 8.296875 
Q 40.140625 3.328125 35.546875 0.953125 
Q 30.953125 -1.421875 24.3125 -1.421875 
Q 15.921875 -1.421875 10.953125 3.296875 
Q 6 8.015625 6 15.921875 
Q 6 25.140625 12.171875 29.828125 
Q 18.359375 34.515625 30.609375 34.515625 
L 43.21875 34.515625 
L 43.21875 35.40625 
Q 43.21875 41.609375 39.140625 45 
Q 35.0625 48.390625 27.6875 48.390625 
Q 23 48.390625 18.546875 47.265625 
Q 14.109375 46.140625 10.015625 43.890625 
L 10.015625 52.203125 
Q 14.9375 54.109375 19.578125 55.046875 
Q 24.21875 56 28.609375 56 
Q 40.484375 56 46.34375 49.84375 
Q 52.203125 43.703125 52.203125 31.203125 
z
" id="DejaVuSans-97"/>
      <path d="M 18.3125 70.21875 
L 18.3125 54.6875 
L 36.8125 54.6875 
L 36.8125 47.703125 
L 18.3125 47.703125 
L 18.3125 18.015625 
Q 18.3125 11.328125 20.140625 9.421875 
Q 21.96875 7.515625 27.59375 7.515625 
L 36.8125 7.515625 
L 36.8125 0 
L 27.59375 0 
Q 17.1875 0 13.234375 3.875 
Q 9.28125 7.765625 9.28125 18.015625 
L 9.28125 47.703125 
L 2.6875 47.703125 
L 2.6875 54.6875 
L 9.28125 54.6875 
L 9.28125 70.21875 
z
" id="DejaVuSans-116"/>
      <path d="M 30.609375 48.390625 
Q 23.390625 48.390625 19.1875 42.75 
Q 14.984375 37.109375 14.984375 27.296875 
Q 14.984375 17.484375 19.15625 11.84375 
Q 23.34375 6.203125 30.609375 6.203125 
Q 37.796875 6.203125 41.984375 11.859375 
Q 46.1875 17.53125 46.1875 27.296875 
Q 46.1875 37.015625 41.984375 42.703125 
Q 37.796875 48.390625 30.609375 48.390625 
z
M 30.609375 56 
Q 42.328125 56 49.015625 48.375 
Q 55.71875 40.765625 55.71875 27.296875 
Q 55.71875 13.875 49.015625 6.21875 
Q 42.328125 -1.421875 30.609375 -1.421875 
Q 18.84375 -1.421875 12.171875 6.21875 
Q 5.515625 13.875 5.515625 27.296875 
Q 5.515625 40.765625 12.171875 48.375 
Q 18.84375 56 30.609375 56 
z
" id="DejaVuSans-111"/>
     </defs>
     <g transform="translate(121.61875 280.276563)scale(0.1 -0.1)">
      <use xlink:href="#DejaVuSans-73"/>
      <use x="29.492188" xlink:href="#DejaVuSans-110"/>
      <use x="92.871094" xlink:href="#DejaVuSans-99"/>
      <use x="147.851562" xlink:href="#DejaVuSans-108"/>
      <use x="175.634766" xlink:href="#DejaVuSans-105"/>
      <use x="203.417969" xlink:href="#DejaVuSans-110"/>
      <use x="266.796875" xlink:href="#DejaVuSans-97"/>
      <use x="328.076172" xlink:href="#DejaVuSans-116"/>
      <use x="367.285156" xlink:href="#DejaVuSans-105"/>
      <use x="395.068359" xlink:href="#DejaVuSans-111"/>
      <use x="456.25" xlink:href="#DejaVuSans-110"/>
     </g>
    </g>
   </g>
   <g id="matplotlib.axis_2">
    <g id="ytick_1">
     <g id="line2d_6">
      <defs>
       <path d="M 0 0 
L -3.5 0 
" id="me594e21491" style="stroke:#000000;stroke-width:0.8;"/>
      </defs>
      <g>
       <use style="stroke:#000000;stroke-width:0.8;" x="36" xlink:href="#me594e21491" y="245.564228"/>
      </g>
     </g>
     <g id="text_7">
      <!-- 1.0 -->
      <defs>
       <path d="M 12.40625 8.296875 
L 28.515625 8.296875 
L 28.515625 63.921875 
L 10.984375 60.40625 
L 10.984375 69.390625 
L 28.421875 72.90625 
L 38.28125 72.90625 
L 38.28125 8.296875 
L 54.390625 8.296875 
L 54.390625 0 
L 12.40625 0 
z
" id="DejaVuSans-49"/>
       <path d="M 10.6875 12.40625 
L 21 12.40625 
L 21 0 
L 10.6875 0 
z
" id="DejaVuSans-46"/>
      </defs>
      <g transform="translate(13.096875 249.363446)scale(0.1 -0.1)">
       <use xlink:href="#DejaVuSans-49"/>
       <use x="63.623047" xlink:href="#DejaVuSans-46"/>
       <use x="95.410156" xlink:href="#DejaVuSans-48"/>
      </g>
     </g>
    </g>
    <g id="ytick_2">
     <g id="line2d_7">
      <g>
       <use style="stroke:#000000;stroke-width:0.8;" x="36" xlink:href="#me594e21491" y="212.800721"/>
      </g>
     </g>
     <g id="text_8">
      <!-- 1.2 -->
      <defs>
       <path d="M 19.1875 8.296875 
L 53.609375 8.296875 
L 53.609375 0 
L 7.328125 0 
L 7.328125 8.296875 
Q 12.9375 14.109375 22.625 23.890625 
Q 32.328125 33.6875 34.8125 36.53125 
Q 39.546875 41.84375 41.421875 45.53125 
Q 43.3125 49.21875 43.3125 52.78125 
Q 43.3125 58.59375 39.234375 62.25 
Q 35.15625 65.921875 28.609375 65.921875 
Q 23.96875 65.921875 18.8125 64.3125 
Q 13.671875 62.703125 7.8125 59.421875 
L 7.8125 69.390625 
Q 13.765625 71.78125 18.9375 73 
Q 24.125 74.21875 28.421875 74.21875 
Q 39.75 74.21875 46.484375 68.546875 
Q 53.21875 62.890625 53.21875 53.421875 
Q 53.21875 48.921875 51.53125 44.890625 
Q 49.859375 40.875 45.40625 35.40625 
Q 44.1875 33.984375 37.640625 27.21875 
Q 31.109375 20.453125 19.1875 8.296875 
z
" id="DejaVuSans-50"/>
      </defs>
      <g transform="translate(13.096875 216.59994)scale(0.1 -0.1)">
       <use xlink:href="#DejaVuSans-49"/>
       <use x="63.623047" xlink:href="#DejaVuSans-46"/>
       <use x="95.410156" xlink:href="#DejaVuSans-50"/>
      </g>
     </g>
    </g>
    <g id="ytick_3">
     <g id="line2d_8">
      <g>
       <use style="stroke:#000000;stroke-width:0.8;" x="36" xlink:href="#me594e21491" y="180.037214"/>
      </g>
     </g>
     <g id="text_9">
      <!-- 1.4 -->
      <g transform="translate(13.096875 183.836433)scale(0.1 -0.1)">
       <use xlink:href="#DejaVuSans-49"/>
       <use x="63.623047" xlink:href="#DejaVuSans-46"/>
       <use x="95.410156" xlink:href="#DejaVuSans-52"/>
      </g>
     </g>
    </g>
    <g id="ytick_4">
     <g id="line2d_9">
      <g>
       <use style="stroke:#000000;stroke-width:0.8;" x="36" xlink:href="#me594e21491" y="147.273707"/>
      </g>
     </g>
     <g id="text_10">
      <!-- 1.6 -->
      <defs>
       <path d="M 33.015625 40.375 
Q 26.375 40.375 22.484375 35.828125 
Q 18.609375 31.296875 18.609375 23.390625 
Q 18.609375 15.53125 22.484375 10.953125 
Q 26.375 6.390625 33.015625 6.390625 
Q 39.65625 6.390625 43.53125 10.953125 
Q 47.40625 15.53125 47.40625 23.390625 
Q 47.40625 31.296875 43.53125 35.828125 
Q 39.65625 40.375 33.015625 40.375 
z
M 52.59375 71.296875 
L 52.59375 62.3125 
Q 48.875 64.0625 45.09375 64.984375 
Q 41.3125 65.921875 37.59375 65.921875 
Q 27.828125 65.921875 22.671875 59.328125 
Q 17.53125 52.734375 16.796875 39.40625 
Q 19.671875 43.65625 24.015625 45.921875 
Q 28.375 48.1875 33.59375 48.1875 
Q 44.578125 48.1875 50.953125 41.515625 
Q 57.328125 34.859375 57.328125 23.390625 
Q 57.328125 12.15625 50.6875 5.359375 
Q 44.046875 -1.421875 33.015625 -1.421875 
Q 20.359375 -1.421875 13.671875 8.265625 
Q 6.984375 17.96875 6.984375 36.375 
Q 6.984375 53.65625 15.1875 63.9375 
Q 23.390625 74.21875 37.203125 74.21875 
Q 40.921875 74.21875 44.703125 73.484375 
Q 48.484375 72.75 52.59375 71.296875 
z
" id="DejaVuSans-54"/>
      </defs>
      <g transform="translate(13.096875 151.072926)scale(0.1 -0.1)">
       <use xlink:href="#DejaVuSans-49"/>
       <use x="63.623047" xlink:href="#DejaVuSans-46"/>
       <use x="95.410156" xlink:href="#DejaVuSans-54"/>
      </g>
     </g>
    </g>
    <g id="ytick_5">
     <g id="line2d_10">
      <g>
       <use style="stroke:#000000;stroke-width:0.8;" x="36" xlink:href="#me594e21491" y="114.5102"/>
      </g>
     </g>
     <g id="text_11">
      <!-- 1.8 -->
      <defs>
       <path d="M 31.78125 34.625 
Q 24.75 34.625 20.71875 30.859375 
Q 16.703125 27.09375 16.703125 20.515625 
Q 16.703125 13.921875 20.71875 10.15625 
Q 24.75 6.390625 31.78125 6.390625 
Q 38.8125 6.390625 42.859375 10.171875 
Q 46.921875 13.96875 46.921875 20.515625 
Q 46.921875 27.09375 42.890625 30.859375 
Q 38.875 34.625 31.78125 34.625 
z
M 21.921875 38.8125 
Q 15.578125 40.375 12.03125 44.71875 
Q 8.5 49.078125 8.5 55.328125 
Q 8.5 64.0625 14.71875 69.140625 
Q 20.953125 74.21875 31.78125 74.21875 
Q 42.671875 74.21875 48.875 69.140625 
Q 55.078125 64.0625 55.078125 55.328125 
Q 55.078125 49.078125 51.53125 44.71875 
Q 48 40.375 41.703125 38.8125 
Q 48.828125 37.15625 52.796875 32.3125 
Q 56.78125 27.484375 56.78125 20.515625 
Q 56.78125 9.90625 50.3125 4.234375 
Q 43.84375 -1.421875 31.78125 -1.421875 
Q 19.734375 -1.421875 13.25 4.234375 
Q 6.78125 9.90625 6.78125 20.515625 
Q 6.78125 27.484375 10.78125 32.3125 
Q 14.796875 37.15625 21.921875 38.8125 
z
M 18.3125 54.390625 
Q 18.3125 48.734375 21.84375 45.5625 
Q 25.390625 42.390625 31.78125 42.390625 
Q 38.140625 42.390625 41.71875 45.5625 
Q 45.3125 48.734375 45.3125 54.390625 
Q 45.3125 60.0625 41.71875 63.234375 
Q 38.140625 66.40625 31.78125 66.40625 
Q 25.390625 66.40625 21.84375 63.234375 
Q 18.3125 60.0625 18.3125 54.390625 
z
" id="DejaVuSans-56"/>
      </defs>
      <g transform="translate(13.096875 118.309419)scale(0.1 -0.1)">
       <use xlink:href="#DejaVuSans-49"/>
       <use x="63.623047" xlink:href="#DejaVuSans-46"/>
       <use x="95.410156" xlink:href="#DejaVuSans-56"/>
      </g>
     </g>
    </g>
    <g id="ytick_6">
     <g id="line2d_11">
      <g>
       <use style="stroke:#000000;stroke-width:0.8;" x="36" xlink:href="#me594e21491" y="81.746694"/>
      </g>
     </g>
     <g id="text_12">
      <!-- 2.0 -->
      <g transform="translate(13.096875 85.545912)scale(0.1 -0.1)">
       <use xlink:href="#DejaVuSans-50"/>
       <use x="63.623047" xlink:href="#DejaVuSans-46"/>
       <use x="95.410156" xlink:href="#DejaVuSans-48"/>
      </g>
     </g>
    </g>
    <g id="ytick_7">
     <g id="line2d_12">
      <g>
       <use style="stroke:#000000;stroke-width:0.8;" x="36" xlink:href="#me594e21491" y="48.983187"/>
      </g>
     </g>
     <g id="text_13">
      <!-- 2.2 -->
      <g transform="translate(13.096875 52.782406)scale(0.1 -0.1)">
       <use xlink:href="#DejaVuSans-50"/>
       <use x="63.623047" xlink:href="#DejaVuSans-46"/>
       <use x="95.410156" xlink:href="#DejaVuSans-50"/>
      </g>
     </g>
    </g>
    <g id="text_14">
     <!-- Elongation -->
     <defs>
      <path d="M 9.8125 72.90625 
L 55.90625 72.90625 
L 55.90625 64.59375 
L 19.671875 64.59375 
L 19.671875 43.015625 
L 54.390625 43.015625 
L 54.390625 34.71875 
L 19.671875 34.71875 
L 19.671875 8.296875 
L 56.78125 8.296875 
L 56.78125 0 
L 9.8125 0 
z
" id="DejaVuSans-69"/>
      <path d="M 45.40625 27.984375 
Q 45.40625 37.75 41.375 43.109375 
Q 37.359375 48.484375 30.078125 48.484375 
Q 22.859375 48.484375 18.828125 43.109375 
Q 14.796875 37.75 14.796875 27.984375 
Q 14.796875 18.265625 18.828125 12.890625 
Q 22.859375 7.515625 30.078125 7.515625 
Q 37.359375 7.515625 41.375 12.890625 
Q 45.40625 18.265625 45.40625 27.984375 
z
M 54.390625 6.78125 
Q 54.390625 -7.171875 48.1875 -13.984375 
Q 42 -20.796875 29.203125 -20.796875 
Q 24.46875 -20.796875 20.265625 -20.09375 
Q 16.0625 -19.390625 12.109375 -17.921875 
L 12.109375 -9.1875 
Q 16.0625 -11.328125 19.921875 -12.34375 
Q 23.78125 -13.375 27.78125 -13.375 
Q 36.625 -13.375 41.015625 -8.765625 
Q 45.40625 -4.15625 45.40625 5.171875 
L 45.40625 9.625 
Q 42.625 4.78125 38.28125 2.390625 
Q 33.9375 0 27.875 0 
Q 17.828125 0 11.671875 7.65625 
Q 5.515625 15.328125 5.515625 27.984375 
Q 5.515625 40.671875 11.671875 48.328125 
Q 17.828125 56 27.875 56 
Q 33.9375 56 38.28125 53.609375 
Q 42.625 51.21875 45.40625 46.390625 
L 45.40625 54.6875 
L 54.390625 54.6875 
z
" id="DejaVuSans-103"/>
     </defs>
     <g transform="translate(7.017187 169.872187)rotate(-90)scale(0.1 -0.1)">
      <use xlink:href="#DejaVuSans-69"/>
      <use x="63.183594" xlink:href="#DejaVuSans-108"/>
      <use x="90.966797" xlink:href="#DejaVuSans-111"/>
      <use x="152.148438" xlink:href="#DejaVuSans-110"/>
      <use x="215.527344" xlink:href="#DejaVuSans-103"/>
      <use x="279.003906" xlink:href="#DejaVuSans-97"/>
      <use x="340.283203" xlink:href="#DejaVuSans-116"/>
      <use x="379.492188" xlink:href="#DejaVuSans-105"/>
      <use x="407.275391" xlink:href="#DejaVuSans-111"/>
      <use x="468.457031" xlink:href="#DejaVuSans-110"/>
     </g>
    </g>
   </g>
   <g id="line2d_13">
    <path clip-path="url(#pfe9c6a7ef6)" d="M 59.815448 211.273737 
L 61.744461 208.642414 
L 63.702222 205.913857 
L 65.689322 203.092316 
L 67.706363 200.180795 
L 69.753965 197.181323 
L 71.832763 194.095155 
L 73.943405 190.922925 
L 76.086559 187.664761 
L 78.262906 184.320377 
L 80.473145 180.889134 
L 82.717993 177.370099 
L 84.998184 173.76208 
L 87.314469 170.06366 
L 89.66762 166.273219 
L 92.058425 162.388953 
L 94.487695 158.408889 
L 96.956257 154.330897 
L 99.46496 150.152694 
L 102.014676 145.871854 
L 104.606294 141.485809 
L 107.240728 136.991855 
L 109.918913 132.387149 
L 112.641807 127.668714 
L 115.410389 122.833434 
L 118.225665 117.878055 
L 121.088663 112.799184 
L 124.000436 107.593281 
L 126.96206 102.256661 
L 129.97464 96.785486 
L 133.039303 91.175763 
L 136.157204 85.423334 
L 136.157204 85.423334 
L 137.736487 82.49226 
" style="fill:none;stroke:#ff0000;stroke-linecap:square;stroke-width:1.5;"/>
   </g>
   <g id="line2d_14">
    <path clip-path="url(#pfe9c6a7ef6)" d="M 53.075411 188.786402 
L 54.977505 187.622932 
L 56.908445 186.296046 
L 58.868835 184.808787 
L 60.859294 183.164456 
L 62.880459 181.366486 
L 64.93298 179.418331 
L 67.017527 177.323365 
L 69.134782 175.084809 
L 71.28545 172.705666 
L 73.470251 170.188676 
L 75.689923 167.536282 
L 77.945224 164.750615 
L 80.236931 161.833474 
L 82.565841 158.786332 
L 84.932771 155.610331 
L 87.338559 152.306293 
L 89.784064 148.874728 
L 92.270169 145.315844 
L 94.797776 141.629559 
L 97.367814 137.815518 
L 99.981231 133.873099 
L 102.639004 129.801431 
L 105.342131 125.599403 
L 108.091636 121.265677 
L 110.888571 116.798696 
L 113.734011 112.196696 
L 116.62906 107.457715 
L 119.574849 102.5796 
L 122.572537 97.560014 
L 125.623312 92.396447 
L 128.728389 87.086218 
L 131.889016 81.626483 
L 131.889016 81.626483 
L 133.490557 78.839619 
" style="fill:none;stroke:#bfbf00;stroke-linecap:square;stroke-width:1.5;"/>
   </g>
   <g id="line2d_15">
    <path clip-path="url(#pfe9c6a7ef6)" d="M 54.971239 214.193196 
L 56.861966 211.738366 
L 58.781152 209.187678 
L 60.729398 206.546453 
L 62.707316 203.818568 
L 64.715537 201.006776 
L 66.754706 198.112944 
L 68.825487 195.138237 
L 70.92856 192.083253 
L 73.064622 188.948127 
L 75.234389 185.732614 
L 77.438597 182.436144 
L 79.677998 179.057874 
L 81.953366 175.59672 
L 84.265495 172.051389 
L 86.615199 168.420395 
L 89.003315 164.70208 
L 91.4307 160.894626 
L 93.898235 156.996059 
L 96.406823 153.004262 
L 98.957391 148.916977 
L 101.55089 144.731805 
L 104.188298 140.44621 
L 106.870615 136.05752 
L 109.598871 131.56292 
L 112.374119 126.959456 
L 115.197442 122.244027 
L 118.06995 117.413381 
L 120.992782 112.464111 
L 123.967107 107.392648 
L 126.994123 102.195252 
L 130.075058 96.868005 
L 133.211173 91.406802 
L 136.403759 85.807336 
L 136.403759 85.807336 
L 138.021642 82.954352 
" style="fill:none;stroke:#bfbf00;stroke-linecap:square;stroke-width:1.5;"/>
   </g>
   <g id="line2d_16">
    <path clip-path="url(#pfe9c6a7ef6)" d="M 48.875664 236.227207 
L 50.75176 234.780576 
L 52.656597 232.918606 
L 54.590787 230.768561 
L 56.554958 228.410866 
L 58.549753 225.894002 
L 60.575832 223.247156 
L 62.633875 220.488117 
L 64.724577 217.627821 
L 66.84865 214.672968 
L 69.006827 211.627545 
L 71.19986 208.493741 
L 73.428519 205.272509 
L 75.693595 201.963922 
L 77.995901 198.567411 
L 80.336268 195.081912 
L 82.715552 191.505973 
L 85.13463 187.837826 
L 87.594402 184.075437 
L 90.095792 180.216536 
L 92.639746 176.258646 
L 95.227238 172.199097 
L 97.859265 168.035037 
L 100.53685 163.763438 
L 103.261044 159.3811 
L 106.032923 154.884653 
L 108.853592 150.270553 
L 111.724185 145.535083 
L 114.645863 140.674348 
L 117.619818 135.684266 
L 120.64727 130.560568 
L 123.729473 125.298782 
L 126.867709 119.894234 
L 130.063294 114.342031 
L 133.317574 108.637051 
L 136.631931 102.773934 
L 140.007775 96.747067 
L 143.446555 90.550567 
L 143.446555 90.550567 
L 145.190007 87.386791 
" style="fill:none;stroke:#bfbf00;stroke-linecap:square;stroke-width:1.5;"/>
   </g>
   <g id="line2d_17">
    <path clip-path="url(#pfe9c6a7ef6)" d="M 60.595178 179.09927 
L 62.51379 176.225654 
L 64.460877 173.267395 
L 66.437024 170.224867 
L 68.442834 167.098191 
L 70.478921 163.887252 
L 72.545918 160.591723 
L 74.644471 157.211086 
L 76.775243 153.744645 
L 78.938915 150.19154 
L 81.136184 146.55076 
L 83.367763 142.821151 
L 85.634385 139.001428 
L 87.936801 135.090178 
L 90.275779 131.085868 
L 92.65211 126.98685 
L 95.0666 122.791367 
L 97.520079 118.497551 
L 100.013396 114.103433 
L 102.547421 109.606939 
L 105.123047 105.005893 
L 107.741186 100.298023 
L 110.402778 95.480953 
L 113.10878 90.552212 
L 115.860176 85.509228 
L 118.657975 80.34933 
L 121.503207 75.069747 
L 121.503207 75.069747 
L 122.94394 72.38418 
" style="fill:none;stroke:#bfbf00;stroke-linecap:square;stroke-width:1.5;"/>
   </g>
   <g id="line2d_18">
    <path clip-path="url(#pfe9c6a7ef6)" d="M 75.253784 227.799245 
L 77.254696 225.140336 
L 79.284304 222.421147 
L 81.343166 219.641612 
L 83.431851 216.801128 
L 85.550942 213.89876 
L 87.701036 210.93334 
L 89.882741 207.903537 
L 92.096681 204.807889 
L 94.343493 201.644826 
L 96.623827 198.412685 
L 98.938351 195.109721 
L 101.287745 191.734106 
L 103.672704 188.283938 
L 106.09394 184.75724 
L 108.55218 181.151962 
L 111.048166 177.465977 
L 113.582659 173.697085 
L 116.156433 169.843008 
L 118.770282 165.90139 
L 121.425015 161.869793 
L 124.121459 157.745697 
L 126.860459 153.526497 
L 129.642878 149.209499 
L 132.469595 144.791918 
L 135.34151 140.270872 
L 138.259539 135.643385 
L 141.22462 130.906378 
L 144.237706 126.056663 
L 147.299771 121.090948 
L 150.411808 116.005824 
L 153.574829 110.797763 
L 156.789865 105.463115 
L 160.057968 99.998101 
L 160.057968 99.998101 
L 161.712252 97.21549 
L 163.380205 94.398809 
" style="fill:none;stroke:#bfbf00;stroke-linecap:square;stroke-width:1.5;"/>
   </g>
   <g id="line2d_19">
    <path clip-path="url(#pfe9c6a7ef6)" d="M 58.274765 235.715692 
L 60.197801 235.029636 
L 62.149647 233.803822 
L 64.130898 232.162046 
L 66.142163 230.212448 
L 68.184067 228.032976 
L 70.257251 225.675512 
L 72.362372 223.17371 
L 74.500101 220.549342 
L 76.671129 217.816551 
L 78.876162 214.984538 
L 81.115925 212.05924 
L 83.39116 209.044379 
L 85.702626 205.942145 
L 88.051106 202.753627 
L 90.437396 199.479112 
L 92.862317 196.118282 
L 95.326708 192.670347 
L 97.831429 189.134142 
L 100.377362 185.508197 
L 102.965409 181.790783 
L 105.596496 177.979945 
L 108.271573 174.073532 
L 110.991609 170.069209 
L 113.757601 165.964474 
L 116.570568 161.756665 
L 119.431555 157.442966 
L 122.34163 153.02041 
L 125.301889 148.485879 
L 128.313453 143.836107 
L 131.377469 139.067675 
L 134.495113 134.177011 
L 137.667586 129.160383 
L 140.896119 124.013897 
L 144.181968 118.733493 
L 147.526422 113.314932 
L 150.930794 107.753794 
L 154.39643 102.04547 
L 157.924704 96.185146 
L 157.924704 96.185146 
L 159.712767 93.196423 
" style="fill:none;stroke:#bfbf00;stroke-linecap:square;stroke-width:1.5;"/>
   </g>
   <g id="line2d_20">
    <path clip-path="url(#pfe9c6a7ef6)" d="M 54.037202 206.774532 
L 55.920875 203.881368 
L 57.832908 200.925968 
L 59.773896 197.907167 
L 61.744451 194.823665 
L 63.745201 191.674048 
L 65.776788 188.456798 
L 67.839873 185.170304 
L 69.935132 181.812865 
L 72.06326 178.382696 
L 74.224969 174.877929 
L 76.42099 171.296611 
L 78.652074 167.636712 
L 80.91899 163.896115 
L 83.222527 160.072621 
L 85.563495 156.163944 
L 87.942725 152.167713 
L 90.36107 148.081462 
L 92.819405 143.902635 
L 95.318627 139.628577 
L 97.859658 135.256535 
L 100.443442 130.78365 
L 103.070949 126.206954 
L 105.743173 121.523365 
L 108.461134 116.729685 
L 111.225878 111.82259 
L 114.038478 106.798626 
L 116.900035 101.654204 
L 119.811678 96.385592 
L 122.774562 90.988909 
L 125.789876 85.460113 
L 128.858833 79.794998 
L 128.858833 79.794998 
L 130.413816 76.909959 
" style="fill:none;stroke:#bfbf00;stroke-linecap:square;stroke-width:1.5;"/>
   </g>
   <g id="line2d_21">
    <path clip-path="url(#pfe9c6a7ef6)" d="M 57.9759 204.504905 
L 59.891451 202.673419 
L 61.835702 200.705884 
L 63.809247 198.609191 
L 65.812696 196.389442 
L 67.846674 194.051948 
L 69.911821 191.601254 
L 72.008796 189.041187 
L 74.13827 186.37491 
L 76.300933 183.604976 
L 78.497494 180.733387 
L 80.728677 177.76165 
L 82.995226 174.690822 
L 85.297903 171.521559 
L 87.637489 168.254154 
L 90.014785 164.888568 
L 92.430612 161.424468 
L 94.885812 157.861246 
L 97.381248 154.198045 
L 99.917804 150.433776 
L 102.496386 146.567135 
L 105.117924 142.596618 
L 107.78337 138.520527 
L 110.4937 134.336985 
L 113.249914 130.04394 
L 116.053037 125.63917 
L 118.904119 121.12029 
L 121.804235 116.484754 
L 124.754488 111.729855 
L 127.756006 106.852728 
L 130.809944 101.850349 
L 133.917486 96.719532 
L 137.079844 91.456931 
L 140.298257 86.059035 
L 140.298257 86.059035 
L 141.92888 83.308207 
" style="fill:none;stroke:#bfbf00;stroke-linecap:square;stroke-width:1.5;"/>
   </g>
   <g id="line2d_22">
    <path clip-path="url(#pfe9c6a7ef6)" d="M 55.136489 150.896464 
L 57.042345 147.028776 
L 58.976797 143.063331 
L 60.940435 138.998277 
L 62.933864 134.83162 
L 64.957703 130.561221 
L 67.012588 126.184808 
L 69.09917 121.699973 
L 71.218115 117.10418 
L 73.370108 112.394763 
L 75.55585 107.568927 
L 77.776058 102.623751 
L 80.031469 97.556186 
L 82.322837 92.363055 
L 84.650937 87.041054 
L 87.016562 81.586749 
L 89.420522 75.996574 
L 91.863653 70.266833 
L 94.346808 64.393697 
L 94.346808 64.393697 
L 95.603666 61.402121 
L 96.870861 58.373198 
" style="fill:none;stroke:#bfbf00;stroke-linecap:square;stroke-width:1.5;"/>
   </g>
   <g id="line2d_23">
    <path clip-path="url(#pfe9c6a7ef6)" d="M 57.602791 208.09528 
L 59.541807 209.059566 
L 61.51013 209.802908 
L 63.508367 210.310512 
L 65.53714 210.56997 
L 67.597087 210.572137 
L 69.688862 210.311768 
L 71.813134 209.787794 
L 73.970589 209.003177 
L 76.161931 207.964385 
L 78.387879 206.680591 
L 80.649172 205.162768 
L 82.946566 203.422797 
L 85.280836 201.472703 
L 87.652776 199.324067 
L 90.063199 196.98762 
L 92.512939 194.472996 
L 95.002849 191.788611 
L 97.533803 188.941639 
L 100.106698 185.938044 
L 102.722451 182.782647 
L 105.382 179.479216 
L 108.086309 176.030559 
L 110.836361 172.438614 
L 113.633166 168.704535 
L 116.477756 164.828766 
L 119.371186 160.811114 
L 122.314539 156.650803 
L 125.30892 152.346524 
L 128.35546 147.896473 
L 131.455316 143.298392 
L 134.609671 138.549586 
L 137.819735 133.646951 
L 141.086742 128.586985 
L 144.411956 123.3658 
L 147.796664 117.979127 
L 151.242183 112.422321 
L 154.749857 106.690354 
L 158.321055 100.777814 
L 158.321055 100.777814 
L 160.13091 97.752031 
L 161.957173 94.678895 
" style="fill:none;stroke:#bfbf00;stroke-linecap:square;stroke-width:1.5;"/>
   </g>
   <g id="line2d_24">
    <path clip-path="url(#pfe9c6a7ef6)" d="M 57.650532 204.353779 
L 59.563365 202.464128 
L 61.504777 200.430757 
L 63.475358 198.261171 
L 65.475711 195.961991 
L 67.506455 193.538955 
L 69.568224 190.99695 
L 71.661669 188.340068 
L 73.787455 185.571668 
L 75.946264 182.694442 
L 78.138797 179.710482 
L 80.36577 176.62134 
L 82.627918 173.428082 
L 84.925995 170.131343 
L 87.260771 166.731364 
L 89.633039 163.228036 
L 92.043608 159.620932 
L 94.49331 155.90933 
L 96.982995 152.092247 
L 99.513537 148.168451 
L 102.085829 144.13648 
L 104.700787 139.994661 
L 107.359349 135.741115 
L 110.062477 131.373772 
L 112.811155 126.890376 
L 115.606393 122.288491 
L 118.449223 117.565509 
L 121.340703 112.718648 
L 124.281916 107.744958 
L 127.273972 102.641321 
L 130.318004 97.404451 
L 133.415176 92.030892 
L 136.566675 86.517019 
L 136.566675 86.517019 
L 138.163177 83.706285 
" style="fill:none;stroke:#bfbf00;stroke-linecap:square;stroke-width:1.5;"/>
   </g>
   <g id="line2d_25">
    <path clip-path="url(#pfe9c6a7ef6)" d="M 56.090659 207.50628 
L 57.984639 204.90319 
L 59.906894 202.205238 
L 61.858008 199.41608 
L 63.838582 196.538391 
L 65.849233 193.574047 
L 67.890593 190.524279 
L 69.963309 187.389784 
L 72.068044 184.170816 
L 74.205482 180.867258 
L 76.376319 177.47868 
L 78.581272 174.004378 
L 80.821076 170.443417 
L 83.096484 166.794652 
L 85.408269 163.056757 
L 87.757224 159.228236 
L 90.144161 155.307445 
L 92.569915 151.292599 
L 95.035339 147.18178 
L 97.541313 142.972951 
L 100.088734 138.663955 
L 102.678527 134.252523 
L 105.311637 129.736276 
L 107.989034 125.112732 
L 110.711716 120.379303 
L 113.480701 115.533301 
L 116.297037 110.571935 
L 119.161798 105.492318 
L 122.076083 100.29146 
L 125.041022 94.966276 
L 128.057771 89.513581 
L 131.127515 83.930095 
L 131.127515 83.930095 
L 132.68264 81.088252 
L 134.251471 78.212437 
" style="fill:none;stroke:#bfbf00;stroke-linecap:square;stroke-width:1.5;"/>
   </g>
   <g id="line2d_26">
    <path clip-path="url(#pfe9c6a7ef6)" d="M 68.468986 231.238608 
L 70.446269 229.73464 
L 72.452426 227.974818 
L 74.488031 226.010517 
L 76.553668 223.879995 
L 78.649935 221.610848 
L 80.777447 219.22273 
L 82.936829 216.729596 
L 85.128724 214.141356 
L 87.353786 211.465045 
L 89.612689 208.705636 
L 91.906118 205.866606 
L 94.234776 202.95033 
L 96.599382 199.95836 
L 99.000671 196.891625 
L 101.439396 193.750574 
L 103.916324 190.535282 
L 106.432243 187.245527 
L 108.987957 183.880851 
L 111.584289 180.440603 
L 114.22208 176.923974 
L 116.902189 173.330025 
L 119.625495 169.657708 
L 122.392898 165.905883 
L 125.205313 162.073333 
L 128.063681 158.158774 
L 130.968959 154.160868 
L 133.922126 150.078229 
L 136.924182 145.909433 
L 139.976149 141.653025 
L 143.079067 137.30752 
L 146.234002 132.87142 
L 149.442038 128.343208 
L 152.704284 123.721364 
L 156.021868 119.004361 
L 159.395943 114.190681 
L 162.827681 109.278814 
L 166.318279 104.267263 
L 166.318279 104.267263 
L 168.08603 101.723646 
L 169.868955 99.154557 
" style="fill:none;stroke:#bfbf00;stroke-linecap:square;stroke-width:1.5;"/>
   </g>
   <g id="line2d_27">
    <path clip-path="url(#pfe9c6a7ef6)" d="M 51.314327 165.325179 
L 53.192821 161.601739 
L 55.099761 157.795343 
L 57.035748 153.903867 
L 59.001396 149.925098 
L 60.997333 145.856738 
L 63.024207 141.696399 
L 65.08268 137.441603 
L 67.173432 133.089781 
L 69.29716 128.638271 
L 71.454581 124.084315 
L 73.646429 119.425057 
L 75.873457 114.657542 
L 78.136438 109.77871 
L 80.436165 104.785394 
L 82.773452 99.674318 
L 85.149134 94.442094 
L 87.564068 89.085216 
L 90.019134 83.600055 
L 92.515233 77.982859 
L 95.053292 72.229749 
L 97.634261 66.336708 
L 97.634261 66.336708 
L 98.941141 63.336422 
L 100.259115 60.299584 
" style="fill:none;stroke:#bfbf00;stroke-linecap:square;stroke-width:1.5;"/>
   </g>
   <g id="line2d_28">
    <path clip-path="url(#pfe9c6a7ef6)" d="M 47.609341 210.135271 
L 49.464934 207.135751 
L 51.348784 204.066632 
L 53.26149 200.926933 
L 55.203669 197.71544 
L 57.175953 194.430752 
L 59.178991 191.071308 
L 61.213447 187.635414 
L 63.280006 184.121249 
L 65.379368 180.526886 
L 67.512254 176.850289 
L 69.679402 173.089323 
L 71.88157 169.241755 
L 74.119537 165.305255 
L 76.394104 161.277398 
L 78.70609 157.15566 
L 81.056338 152.937421 
L 83.445713 148.619962 
L 85.875105 144.200459 
L 88.345424 139.675987 
L 90.857608 135.043511 
L 93.412619 130.299886 
L 96.011444 125.441853 
L 98.655098 120.466032 
L 101.34462 115.368922 
L 104.081082 110.146894 
L 106.865579 104.796186 
L 109.69924 99.312896 
L 112.583221 93.692979 
L 115.518711 87.932242 
L 118.506927 82.026332 
L 121.549121 75.970734 
L 121.549121 75.970734 
L 123.090861 72.885343 
" style="fill:none;stroke:#bfbf00;stroke-linecap:square;stroke-width:1.5;"/>
   </g>
   <g id="line2d_29">
    <path clip-path="url(#pfe9c6a7ef6)" d="M 56.797648 219.104249 
L 58.724658 217.204153 
L 60.68079 215.12203 
L 62.666652 212.876704 
L 64.682864 210.483505 
L 66.730064 207.954664 
L 68.808904 205.299785 
L 70.920055 202.526296 
L 73.064203 199.639836 
L 75.24205 196.644588 
L 77.454317 193.543551 
L 79.701744 190.338749 
L 81.985088 187.031403 
L 84.305126 183.622069 
L 86.662653 180.110739 
L 89.058485 176.496929 
L 91.493459 172.77974 
L 93.968431 168.957914 
L 96.484281 165.029867 
L 99.041909 160.99373 
L 101.642237 156.847363 
L 104.286211 152.58838 
L 106.9748 148.214161 
L 109.708996 143.72186 
L 112.489818 139.108412 
L 115.318307 134.37054 
L 118.19553 129.50475 
L 121.122581 124.507338 
L 124.100578 119.37438 
L 127.130669 114.101733 
L 130.214026 108.685023 
L 133.35185 103.119646 
L 136.54537 97.40075 
L 139.795843 91.523228 
L 139.795843 91.523228 
L 141.442838 88.523314 
L 143.104556 85.481706 
" style="fill:none;stroke:#bfbf00;stroke-linecap:square;stroke-width:1.5;"/>
   </g>
   <g id="line2d_30">
    <path clip-path="url(#pfe9c6a7ef6)" d="M 59.19762 79.524734 
L 61.104127 76.682439 
L 63.038868 73.741266 
L 65.002422 70.700276 
L 66.995384 67.558481 
L 69.018362 64.314845 
L 71.071981 60.968281 
L 73.156878 57.517652 
L 75.273711 53.961765 
L 75.273711 53.961765 
L 76.344312 52.143962 
L 77.423151 50.299374 
" style="fill:none;stroke:#bfbf00;stroke-linecap:square;stroke-width:1.5;"/>
   </g>
   <g id="line2d_31">
    <path clip-path="url(#pfe9c6a7ef6)" d="M 59.161944 123.789261 
L 61.074789 119.915895 
L 63.016157 115.93985 
L 64.986639 111.8592 
L 66.986842 107.671875 
L 69.017387 103.375661 
L 71.078911 98.9682 
L 73.172069 94.446986 
L 75.297531 89.809367 
L 77.455983 85.052539 
L 79.648131 80.173547 
L 81.874697 75.169276 
L 84.136421 70.036453 
L 86.434064 64.771638 
L 88.768404 59.371222 
L 88.768404 59.371222 
L 89.949585 56.618988 
" style="fill:none;stroke:#bfbf00;stroke-linecap:square;stroke-width:1.5;"/>
   </g>
   <g id="line2d_32">
    <path clip-path="url(#pfe9c6a7ef6)" d="M 64.588908 194.975463 
L 66.546723 191.931043 
L 68.533456 188.820574 
L 70.549691 185.643092 
L 72.596026 182.397505 
L 74.673074 179.082615 
L 76.781462 175.697124 
L 78.921832 172.239648 
L 81.094843 168.708722 
L 83.301167 165.102807 
L 85.541494 161.420295 
L 87.816531 157.659513 
L 90.127001 153.818723 
L 92.473643 149.896128 
L 94.857216 145.889873 
L 97.278496 141.798045 
L 99.738278 137.618676 
L 102.237374 133.349744 
L 104.776618 128.989174 
L 107.356861 124.534838 
L 109.978976 119.984559 
L 112.643856 115.336109 
L 115.352415 110.587212 
L 118.105587 105.735545 
L 120.904329 100.77874 
L 123.749619 95.714385 
L 126.642459 90.540026 
L 129.583871 85.253171 
L 129.583871 85.253171 
L 131.073119 82.566768 
L 132.574904 79.85129 
" style="fill:none;stroke:#bfbf00;stroke-linecap:square;stroke-width:1.5;"/>
   </g>
   <g id="line2d_33">
    <path clip-path="url(#pfe9c6a7ef6)" d="M 63.068872 193.934193 
L 65.025513 192.412289 
L 67.01114 190.731159 
L 69.026338 188.895673 
L 71.071706 186.910595 
L 73.147856 184.780463 
L 75.255415 182.509506 
L 77.395027 180.101577 
L 79.567348 177.560119 
L 81.773053 174.888145 
L 84.012829 172.088227 
L 86.287383 169.162508 
L 88.597437 166.112706 
L 90.94373 162.940138 
L 93.32702 159.645732 
L 95.74808 156.230054 
L 98.207704 152.693324 
L 100.706703 149.03544 
L 103.245908 145.255994 
L 105.826168 141.354294 
L 108.448355 137.329375 
L 111.113356 133.180022 
L 113.822084 128.904776 
L 116.575469 124.501949 
L 119.374464 119.969638 
L 122.220043 115.305727 
L 125.113203 110.507902 
L 128.054962 105.573654 
L 131.046362 100.500288 
L 134.088468 95.284924 
L 137.182366 89.924506 
L 137.182366 89.924506 
L 138.749084 87.188898 
L 140.329169 84.415801 
" style="fill:none;stroke:#bfbf00;stroke-linecap:square;stroke-width:1.5;"/>
   </g>
   <g id="line2d_34">
    <path clip-path="url(#pfe9c6a7ef6)" d="M 52.096237 152.198063 
L 53.990683 152.126478 
L 55.914019 151.928481 
L 57.866857 151.602113 
L 59.849824 151.145607 
L 61.863567 150.557387 
L 63.908746 149.836067 
L 65.98604 148.980445 
L 68.096145 147.989492 
L 70.239775 146.862342 
L 72.417662 145.598268 
L 74.630559 144.196671 
L 76.879237 142.657052 
L 79.164487 140.978991 
L 81.487121 139.162125 
L 83.847973 137.206119 
L 86.247899 135.110647 
L 88.687775 132.875363 
L 91.168501 130.499883 
L 93.691003 127.983757 
L 96.256226 125.326454 
L 98.865145 122.527341 
L 101.518757 119.58566 
L 104.218086 116.500521 
L 106.964181 113.270876 
L 109.75812 109.895512 
L 112.601007 106.373034 
L 115.493977 102.701853 
L 118.43819 98.880176 
L 121.434839 94.905988 
L 124.485144 90.777047 
L 127.590359 86.49087 
L 130.751765 82.044716 
L 130.751765 82.044716 
L 132.35395 79.760721 
" style="fill:none;stroke:#bfbf00;stroke-linecap:square;stroke-width:1.5;"/>
   </g>
   <g id="line2d_35">
    <path clip-path="url(#pfe9c6a7ef6)" d="M 60.77947 206.923493 
L 62.721366 205.331307 
L 64.692113 203.549454 
L 66.692296 201.588524 
L 68.722515 199.458418 
L 70.783382 197.168119 
L 72.875526 194.725582 
L 74.999589 192.137696 
L 77.156232 189.410311 
L 79.346127 186.548283 
L 81.569965 183.555552 
L 83.828454 180.435221 
L 86.122317 177.189632 
L 88.452296 173.820445 
L 90.819149 170.328703 
L 93.223655 166.7149 
L 95.666608 162.979028 
L 98.148823 159.120629 
L 100.671134 155.138831 
L 103.234394 151.032384 
L 105.839478 146.799687 
L 108.487277 142.438811 
L 111.178709 137.947516 
L 113.914709 133.323268 
L 116.696234 128.563248 
L 119.524265 123.664359 
L 122.399803 118.623234 
L 125.323875 113.436234 
L 128.297527 108.099452 
L 131.321831 102.608709 
L 134.397883 96.959548 
L 137.526802 91.14723 
L 137.526802 91.14723 
L 139.111443 88.178326 
L 140.709732 85.166723 
" style="fill:none;stroke:#bfbf00;stroke-linecap:square;stroke-width:1.5;"/>
   </g>
   <g id="line2d_36">
    <path clip-path="url(#pfe9c6a7ef6)" d="M 54.592155 218.425916 
L 56.476535 215.632559 
L 58.389206 212.780329 
L 60.330762 209.867731 
L 62.30181 206.893197 
L 64.302972 203.855087 
L 66.334889 200.751699 
L 68.398216 197.581264 
L 70.493625 194.341946 
L 72.621806 191.031845 
L 74.783467 187.64899 
L 76.979334 184.191342 
L 79.210151 180.65679 
L 81.476683 177.043147 
L 83.779714 173.348151 
L 86.120047 169.569456 
L 88.498508 165.704638 
L 90.915943 161.751182 
L 93.373221 157.706486 
L 95.871233 153.567854 
L 98.410892 149.332491 
L 100.993138 144.997504 
L 103.618931 140.559892 
L 106.289259 136.016543 
L 109.005135 131.364231 
L 111.767596 126.599612 
L 114.577708 121.719214 
L 117.436564 116.719436 
L 120.345283 111.596538 
L 123.305015 106.346639 
L 126.316936 100.965707 
L 129.382256 95.449554 
L 132.50221 89.793826 
L 135.678068 83.993999 
L 135.678068 83.993999 
L 137.287366 81.038585 
" style="fill:none;stroke:#bfbf00;stroke-linecap:square;stroke-width:1.5;"/>
   </g>
   <g id="line2d_37">
    <path clip-path="url(#pfe9c6a7ef6)" d="M 58.583484 208.147726 
L 60.513085 211.074944 
L 62.471588 213.973356 
L 64.459588 216.842398 
L 66.477696 219.681261 
L 68.526535 222.488746 
L 70.606748 225.263012 
L 72.71899 228.001097 
L 74.863933 230.697936 
L 77.042267 233.344174 
L 79.254698 235.920609 
L 81.501949 238.381716 
L 83.784763 240.596346 
L 86.103899 242.116364 
L 88.460135 241.959575 
L 90.85427 240.2457 
L 93.287122 237.912914 
L 95.759527 235.331286 
L 98.272344 232.609454 
L 100.826452 229.785355 
L 103.422753 226.87446 
L 106.062169 223.883585 
L 108.745646 220.815672 
L 111.47415 217.671714 
L 114.248675 214.451632 
L 117.070236 211.154706 
L 119.939872 207.779805 
L 122.858647 204.325517 
L 125.827651 200.790231 
L 128.848 197.172182 
L 131.920834 193.469479 
L 135.04732 189.680133 
L 138.228654 185.802062 
L 141.466056 181.833109 
L 144.760775 177.771044 
L 148.114088 173.613569 
L 151.527298 169.358328 
L 155.001739 165.002904 
L 158.538771 160.544827 
L 162.139784 155.981572 
L 165.806195 151.31057 
L 169.539452 146.529201 
L 173.341029 141.634805 
L 177.21243 136.624684 
L 181.155186 131.496102 
L 185.170858 126.246294 
L 189.261031 120.872469 
L 193.427321 115.371815 
L 193.427321 115.371815 
L 195.539522 112.573044 
" style="fill:none;stroke:#bfbf00;stroke-linecap:square;stroke-width:1.5;"/>
   </g>
   <g id="line2d_38">
    <path clip-path="url(#pfe9c6a7ef6)" d="M 46.145455 150.210889 
L 48.000132 147.890226 
L 49.883393 145.450904 
L 51.795857 142.893098 
L 53.738157 140.216857 
L 55.710948 137.422095 
L 57.714898 134.508585 
L 59.750696 131.475944 
L 61.819048 128.323635 
L 63.92068 125.050952 
L 66.056337 121.657025 
L 68.226786 118.14081 
L 70.432812 114.501088 
L 72.675225 110.73646 
L 74.954855 106.845348 
L 77.272554 102.825989 
L 79.6292 98.676435 
L 82.025693 94.394546 
L 84.46296 89.977992 
L 86.941951 85.424246 
L 89.463644 80.73058 
L 92.029043 75.894063 
L 94.639182 70.911554 
L 97.29512 65.779697 
L 97.29512 65.779697 
L 98.640604 63.156653 
L 99.997949 60.494913 
" style="fill:none;stroke:#bfbf00;stroke-linecap:square;stroke-width:1.5;"/>
   </g>
   <g id="line2d_39">
    <path clip-path="url(#pfe9c6a7ef6)" d="M 66.491738 44.443636 
L 98.919648 62.208914 
L 195.875253 115.547467 
L 219.738356 128.314515 
L 222.927253 129.999841 
L 249.054545 143.58565 
L 249.054545 143.58565 
" style="fill:none;stroke:#008000;stroke-linecap:square;stroke-width:1.5;"/>
   </g>
   <g id="patch_3">
    <path d="M 36 252 
L 36 34.56 
" style="fill:none;stroke:#000000;stroke-linecap:square;stroke-linejoin:miter;stroke-width:0.8;"/>
   </g>
   <g id="patch_4">
    <path d="M 259.2 252 
L 259.2 34.56 
" style="fill:none;stroke:#000000;stroke-linecap:square;stroke-linejoin:miter;stroke-width:0.8;"/>
   </g>
   <g id="patch_5">
    <path d="M 36 252 
L 259.2 252 
" style="fill:none;stroke:#000000;stroke-linecap:square;stroke-linejoin:miter;stroke-width:0.8;"/>
   </g>
   <g id="patch_6">
    <path d="M 36 34.56 
L 259.2 34.56 
" style="fill:none;stroke:#000000;stroke-linecap:square;stroke-linejoin:miter;stroke-width:0.8;"/>
   </g>
   <g id="text_15">
    <!--  0.68 -->
    <defs>
     <path id="DejaVuSans-32"/>
    </defs>
    <g transform="translate(137.736487 82.49226)scale(0.1 -0.1)">
     <use xlink:href="#DejaVuSans-32"/>
     <use x="31.787109" xlink:href="#DejaVuSans-48"/>
     <use x="95.410156" xlink:href="#DejaVuSans-46"/>
     <use x="127.197266" xlink:href="#DejaVuSans-54"/>
     <use x="190.820312" xlink:href="#DejaVuSans-56"/>
    </g>
   </g>
   <g id="text_16">
    <!--  f=1 -->
    <defs>
     <path d="M 37.109375 75.984375 
L 37.109375 68.5 
L 28.515625 68.5 
Q 23.6875 68.5 21.796875 66.546875 
Q 19.921875 64.59375 19.921875 59.515625 
L 19.921875 54.6875 
L 34.71875 54.6875 
L 34.71875 47.703125 
L 19.921875 47.703125 
L 19.921875 0 
L 10.890625 0 
L 10.890625 47.703125 
L 2.296875 47.703125 
L 2.296875 54.6875 
L 10.890625 54.6875 
L 10.890625 58.5 
Q 10.890625 67.625 15.140625 71.796875 
Q 19.390625 75.984375 28.609375 75.984375 
z
" id="DejaVuSans-102"/>
     <path d="M 10.59375 45.40625 
L 73.1875 45.40625 
L 73.1875 37.203125 
L 10.59375 37.203125 
z
M 10.59375 25.484375 
L 73.1875 25.484375 
L 73.1875 17.1875 
L 10.59375 17.1875 
z
" id="DejaVuSans-61"/>
    </defs>
    <g transform="translate(43.378329 211.273737)scale(0.1 -0.1)">
     <use xlink:href="#DejaVuSans-32"/>
     <use x="31.787109" xlink:href="#DejaVuSans-102"/>
     <use x="66.992188" xlink:href="#DejaVuSans-61"/>
     <use x="150.78125" xlink:href="#DejaVuSans-49"/>
    </g>
   </g>
  </g>
 </g>
 <defs>
  <clipPath id="pfe9c6a7ef6">
   <rect height="217.44" width="223.2" x="36" y="34.56"/>
  </clipPath>
 </defs>
</svg>
