<?xml version="1.0" encoding="utf-8" standalone="no"?>
<!DOCTYPE svg PUBLIC "-//W3C//DTD SVG 1.1//EN"
  "http://www.w3.org/Graphics/SVG/1.1/DTD/svg11.dtd">
<!-- Created with matplotlib (https://matplotlib.org/) -->
<svg height="288pt" version="1.1" viewBox="0 0 288 288" width="288pt" xmlns="http://www.w3.org/2000/svg" xmlns:xlink="http://www.w3.org/1999/xlink">
 <defs>
  <style type="text/css">
*{stroke-linecap:butt;stroke-linejoin:round;}
  </style>
 </defs>
 <g id="figure_1">
  <g id="patch_1">
   <path d="M 0 288 
L 288 288 
L 288 0 
L 0 0 
z
" style="fill:#ffffff;"/>
  </g>
  <g id="axes_1">
   <g id="patch_2">
    <path d="M 36 252 
L 259.2 252 
L 259.2 34.56 
L 36 34.56 
z
" style="fill:#ffffff;"/>
   </g>
   <g id="matplotlib.axis_1">
    <g id="xtick_1">
     <g id="line2d_1">
      <defs>
       <path d="M 0 0 
L 0 3.5 
" id="m6133efb16f" style="stroke:#000000;stroke-width:0.8;"/>
      </defs>
      <g>
       <use style="stroke:#000000;stroke-width:0.8;" x="46.145455" xlink:href="#m6133efb16f" y="252"/>
      </g>
     </g>
     <g id="text_1">
      <!-- 0 -->
      <defs>
       <path d="M 31.78125 66.40625 
Q 24.171875 66.40625 20.328125 58.90625 
Q 16.5 51.421875 16.5 36.375 
Q 16.5 21.390625 20.328125 13.890625 
Q 24.171875 6.390625 31.78125 6.390625 
Q 39.453125 6.390625 43.28125 13.890625 
Q 47.125 21.390625 47.125 36.375 
Q 47.125 51.421875 43.28125 58.90625 
Q 39.453125 66.40625 31.78125 66.40625 
z
M 31.78125 74.21875 
Q 44.046875 74.21875 50.515625 64.515625 
Q 56.984375 54.828125 56.984375 36.375 
Q 56.984375 17.96875 50.515625 8.265625 
Q 44.046875 -1.421875 31.78125 -1.421875 
Q 19.53125 -1.421875 13.0625 8.265625 
Q 6.59375 17.96875 6.59375 36.375 
Q 6.59375 54.828125 13.0625 64.515625 
Q 19.53125 74.21875 31.78125 74.21875 
z
" id="DejaVuSans-48"/>
      </defs>
      <g transform="translate(42.964205 266.598437)scale(0.1 -0.1)">
       <use xlink:href="#DejaVuSans-48"/>
      </g>
     </g>
    </g>
    <g id="xtick_2">
     <g id="line2d_2">
      <g>
       <use style="stroke:#000000;stroke-width:0.8;" x="92.21252" xlink:href="#m6133efb16f" y="252"/>
      </g>
     </g>
     <g id="text_2">
      <!-- 10 -->
      <defs>
       <path d="M 12.40625 8.296875 
L 28.515625 8.296875 
L 28.515625 63.921875 
L 10.984375 60.40625 
L 10.984375 69.390625 
L 28.421875 72.90625 
L 38.28125 72.90625 
L 38.28125 8.296875 
L 54.390625 8.296875 
L 54.390625 0 
L 12.40625 0 
z
" id="DejaVuSans-49"/>
      </defs>
      <g transform="translate(85.85002 266.598437)scale(0.1 -0.1)">
       <use xlink:href="#DejaVuSans-49"/>
       <use x="63.623047" xlink:href="#DejaVuSans-48"/>
      </g>
     </g>
    </g>
    <g id="xtick_3">
     <g id="line2d_3">
      <g>
       <use style="stroke:#000000;stroke-width:0.8;" x="138.279586" xlink:href="#m6133efb16f" y="252"/>
      </g>
     </g>
     <g id="text_3">
      <!-- 20 -->
      <defs>
       <path d="M 19.1875 8.296875 
L 53.609375 8.296875 
L 53.609375 0 
L 7.328125 0 
L 7.328125 8.296875 
Q 12.9375 14.109375 22.625 23.890625 
Q 32.328125 33.6875 34.8125 36.53125 
Q 39.546875 41.84375 41.421875 45.53125 
Q 43.3125 49.21875 43.3125 52.78125 
Q 43.3125 58.59375 39.234375 62.25 
Q 35.15625 65.921875 28.609375 65.921875 
Q 23.96875 65.921875 18.8125 64.3125 
Q 13.671875 62.703125 7.8125 59.421875 
L 7.8125 69.390625 
Q 13.765625 71.78125 18.9375 73 
Q 24.125 74.21875 28.421875 74.21875 
Q 39.75 74.21875 46.484375 68.546875 
Q 53.21875 62.890625 53.21875 53.421875 
Q 53.21875 48.921875 51.53125 44.890625 
Q 49.859375 40.875 45.40625 35.40625 
Q 44.1875 33.984375 37.640625 27.21875 
Q 31.109375 20.453125 19.1875 8.296875 
z
" id="DejaVuSans-50"/>
      </defs>
      <g transform="translate(131.917086 266.598437)scale(0.1 -0.1)">
       <use xlink:href="#DejaVuSans-50"/>
       <use x="63.623047" xlink:href="#DejaVuSans-48"/>
      </g>
     </g>
    </g>
    <g id="xtick_4">
     <g id="line2d_4">
      <g>
       <use style="stroke:#000000;stroke-width:0.8;" x="184.346652" xlink:href="#m6133efb16f" y="252"/>
      </g>
     </g>
     <g id="text_4">
      <!-- 30 -->
      <defs>
       <path d="M 40.578125 39.3125 
Q 47.65625 37.796875 51.625 33 
Q 55.609375 28.21875 55.609375 21.1875 
Q 55.609375 10.40625 48.1875 4.484375 
Q 40.765625 -1.421875 27.09375 -1.421875 
Q 22.515625 -1.421875 17.65625 -0.515625 
Q 12.796875 0.390625 7.625 2.203125 
L 7.625 11.71875 
Q 11.71875 9.328125 16.59375 8.109375 
Q 21.484375 6.890625 26.8125 6.890625 
Q 36.078125 6.890625 40.9375 10.546875 
Q 45.796875 14.203125 45.796875 21.1875 
Q 45.796875 27.640625 41.28125 31.265625 
Q 36.765625 34.90625 28.71875 34.90625 
L 20.21875 34.90625 
L 20.21875 43.015625 
L 29.109375 43.015625 
Q 36.375 43.015625 40.234375 45.921875 
Q 44.09375 48.828125 44.09375 54.296875 
Q 44.09375 59.90625 40.109375 62.90625 
Q 36.140625 65.921875 28.71875 65.921875 
Q 24.65625 65.921875 20.015625 65.03125 
Q 15.375 64.15625 9.8125 62.3125 
L 9.8125 71.09375 
Q 15.4375 72.65625 20.34375 73.4375 
Q 25.25 74.21875 29.59375 74.21875 
Q 40.828125 74.21875 47.359375 69.109375 
Q 53.90625 64.015625 53.90625 55.328125 
Q 53.90625 49.265625 50.4375 45.09375 
Q 46.96875 40.921875 40.578125 39.3125 
z
" id="DejaVuSans-51"/>
      </defs>
      <g transform="translate(177.984152 266.598437)scale(0.1 -0.1)">
       <use xlink:href="#DejaVuSans-51"/>
       <use x="63.623047" xlink:href="#DejaVuSans-48"/>
      </g>
     </g>
    </g>
    <g id="xtick_5">
     <g id="line2d_5">
      <g>
       <use style="stroke:#000000;stroke-width:0.8;" x="230.413718" xlink:href="#m6133efb16f" y="252"/>
      </g>
     </g>
     <g id="text_5">
      <!-- 40 -->
      <defs>
       <path d="M 37.796875 64.3125 
L 12.890625 25.390625 
L 37.796875 25.390625 
z
M 35.203125 72.90625 
L 47.609375 72.90625 
L 47.609375 25.390625 
L 58.015625 25.390625 
L 58.015625 17.1875 
L 47.609375 17.1875 
L 47.609375 0 
L 37.796875 0 
L 37.796875 17.1875 
L 4.890625 17.1875 
L 4.890625 26.703125 
z
" id="DejaVuSans-52"/>
      </defs>
      <g transform="translate(224.051218 266.598437)scale(0.1 -0.1)">
       <use xlink:href="#DejaVuSans-52"/>
       <use x="63.623047" xlink:href="#DejaVuSans-48"/>
      </g>
     </g>
    </g>
    <g id="text_6">
     <!-- Inclination -->
     <defs>
      <path d="M 9.8125 72.90625 
L 19.671875 72.90625 
L 19.671875 0 
L 9.8125 0 
z
" id="DejaVuSans-73"/>
      <path d="M 54.890625 33.015625 
L 54.890625 0 
L 45.90625 0 
L 45.90625 32.71875 
Q 45.90625 40.484375 42.875 44.328125 
Q 39.84375 48.1875 33.796875 48.1875 
Q 26.515625 48.1875 22.3125 43.546875 
Q 18.109375 38.921875 18.109375 30.90625 
L 18.109375 0 
L 9.078125 0 
L 9.078125 54.6875 
L 18.109375 54.6875 
L 18.109375 46.1875 
Q 21.34375 51.125 25.703125 53.5625 
Q 30.078125 56 35.796875 56 
Q 45.21875 56 50.046875 50.171875 
Q 54.890625 44.34375 54.890625 33.015625 
z
" id="DejaVuSans-110"/>
      <path d="M 48.78125 52.59375 
L 48.78125 44.1875 
Q 44.96875 46.296875 41.140625 47.34375 
Q 37.3125 48.390625 33.40625 48.390625 
Q 24.65625 48.390625 19.8125 42.84375 
Q 14.984375 37.3125 14.984375 27.296875 
Q 14.984375 17.28125 19.8125 11.734375 
Q 24.65625 6.203125 33.40625 6.203125 
Q 37.3125 6.203125 41.140625 7.25 
Q 44.96875 8.296875 48.78125 10.40625 
L 48.78125 2.09375 
Q 45.015625 0.34375 40.984375 -0.53125 
Q 36.96875 -1.421875 32.421875 -1.421875 
Q 20.0625 -1.421875 12.78125 6.34375 
Q 5.515625 14.109375 5.515625 27.296875 
Q 5.515625 40.671875 12.859375 48.328125 
Q 20.21875 56 33.015625 56 
Q 37.15625 56 41.109375 55.140625 
Q 45.0625 54.296875 48.78125 52.59375 
z
" id="DejaVuSans-99"/>
      <path d="M 9.421875 75.984375 
L 18.40625 75.984375 
L 18.40625 0 
L 9.421875 0 
z
" id="DejaVuSans-108"/>
      <path d="M 9.421875 54.6875 
L 18.40625 54.6875 
L 18.40625 0 
L 9.421875 0 
z
M 9.421875 75.984375 
L 18.40625 75.984375 
L 18.40625 64.59375 
L 9.421875 64.59375 
z
" id="DejaVuSans-105"/>
      <path d="M 34.28125 27.484375 
Q 23.390625 27.484375 19.1875 25 
Q 14.984375 22.515625 14.984375 16.5 
Q 14.984375 11.71875 18.140625 8.90625 
Q 21.296875 6.109375 26.703125 6.109375 
Q 34.1875 6.109375 38.703125 11.40625 
Q 43.21875 16.703125 43.21875 25.484375 
L 43.21875 27.484375 
z
M 52.203125 31.203125 
L 52.203125 0 
L 43.21875 0 
L 43.21875 8.296875 
Q 40.140625 3.328125 35.546875 0.953125 
Q 30.953125 -1.421875 24.3125 -1.421875 
Q 15.921875 -1.421875 10.953125 3.296875 
Q 6 8.015625 6 15.921875 
Q 6 25.140625 12.171875 29.828125 
Q 18.359375 34.515625 30.609375 34.515625 
L 43.21875 34.515625 
L 43.21875 35.40625 
Q 43.21875 41.609375 39.140625 45 
Q 35.0625 48.390625 27.6875 48.390625 
Q 23 48.390625 18.546875 47.265625 
Q 14.109375 46.140625 10.015625 43.890625 
L 10.015625 52.203125 
Q 14.9375 54.109375 19.578125 55.046875 
Q 24.21875 56 28.609375 56 
Q 40.484375 56 46.34375 49.84375 
Q 52.203125 43.703125 52.203125 31.203125 
z
" id="DejaVuSans-97"/>
      <path d="M 18.3125 70.21875 
L 18.3125 54.6875 
L 36.8125 54.6875 
L 36.8125 47.703125 
L 18.3125 47.703125 
L 18.3125 18.015625 
Q 18.3125 11.328125 20.140625 9.421875 
Q 21.96875 7.515625 27.59375 7.515625 
L 36.8125 7.515625 
L 36.8125 0 
L 27.59375 0 
Q 17.1875 0 13.234375 3.875 
Q 9.28125 7.765625 9.28125 18.015625 
L 9.28125 47.703125 
L 2.6875 47.703125 
L 2.6875 54.6875 
L 9.28125 54.6875 
L 9.28125 70.21875 
z
" id="DejaVuSans-116"/>
      <path d="M 30.609375 48.390625 
Q 23.390625 48.390625 19.1875 42.75 
Q 14.984375 37.109375 14.984375 27.296875 
Q 14.984375 17.484375 19.15625 11.84375 
Q 23.34375 6.203125 30.609375 6.203125 
Q 37.796875 6.203125 41.984375 11.859375 
Q 46.1875 17.53125 46.1875 27.296875 
Q 46.1875 37.015625 41.984375 42.703125 
Q 37.796875 48.390625 30.609375 48.390625 
z
M 30.609375 56 
Q 42.328125 56 49.015625 48.375 
Q 55.71875 40.765625 55.71875 27.296875 
Q 55.71875 13.875 49.015625 6.21875 
Q 42.328125 -1.421875 30.609375 -1.421875 
Q 18.84375 -1.421875 12.171875 6.21875 
Q 5.515625 13.875 5.515625 27.296875 
Q 5.515625 40.765625 12.171875 48.375 
Q 18.84375 56 30.609375 56 
z
" id="DejaVuSans-111"/>
     </defs>
     <g transform="translate(121.61875 280.276563)scale(0.1 -0.1)">
      <use xlink:href="#DejaVuSans-73"/>
      <use x="29.492188" xlink:href="#DejaVuSans-110"/>
      <use x="92.871094" xlink:href="#DejaVuSans-99"/>
      <use x="147.851562" xlink:href="#DejaVuSans-108"/>
      <use x="175.634766" xlink:href="#DejaVuSans-105"/>
      <use x="203.417969" xlink:href="#DejaVuSans-110"/>
      <use x="266.796875" xlink:href="#DejaVuSans-97"/>
      <use x="328.076172" xlink:href="#DejaVuSans-116"/>
      <use x="367.285156" xlink:href="#DejaVuSans-105"/>
      <use x="395.068359" xlink:href="#DejaVuSans-111"/>
      <use x="456.25" xlink:href="#DejaVuSans-110"/>
     </g>
    </g>
   </g>
   <g id="matplotlib.axis_2">
    <g id="ytick_1">
     <g id="line2d_6">
      <defs>
       <path d="M 0 0 
L -3.5 0 
" id="m3463d4c71b" style="stroke:#000000;stroke-width:0.8;"/>
      </defs>
      <g>
       <use style="stroke:#000000;stroke-width:0.8;" x="36" xlink:href="#m3463d4c71b" y="242.116364"/>
      </g>
     </g>
     <g id="text_7">
      <!-- 0.0 -->
      <defs>
       <path d="M 10.6875 12.40625 
L 21 12.40625 
L 21 0 
L 10.6875 0 
z
" id="DejaVuSans-46"/>
      </defs>
      <g transform="translate(13.096875 245.915582)scale(0.1 -0.1)">
       <use xlink:href="#DejaVuSans-48"/>
       <use x="63.623047" xlink:href="#DejaVuSans-46"/>
       <use x="95.410156" xlink:href="#DejaVuSans-48"/>
      </g>
     </g>
    </g>
    <g id="ytick_2">
     <g id="line2d_7">
      <g>
       <use style="stroke:#000000;stroke-width:0.8;" x="36" xlink:href="#m3463d4c71b" y="199.341355"/>
      </g>
     </g>
     <g id="text_8">
      <!-- 0.5 -->
      <defs>
       <path d="M 10.796875 72.90625 
L 49.515625 72.90625 
L 49.515625 64.59375 
L 19.828125 64.59375 
L 19.828125 46.734375 
Q 21.96875 47.46875 24.109375 47.828125 
Q 26.265625 48.1875 28.421875 48.1875 
Q 40.625 48.1875 47.75 41.5 
Q 54.890625 34.8125 54.890625 23.390625 
Q 54.890625 11.625 47.5625 5.09375 
Q 40.234375 -1.421875 26.90625 -1.421875 
Q 22.3125 -1.421875 17.546875 -0.640625 
Q 12.796875 0.140625 7.71875 1.703125 
L 7.71875 11.625 
Q 12.109375 9.234375 16.796875 8.0625 
Q 21.484375 6.890625 26.703125 6.890625 
Q 35.15625 6.890625 40.078125 11.328125 
Q 45.015625 15.765625 45.015625 23.390625 
Q 45.015625 31 40.078125 35.4375 
Q 35.15625 39.890625 26.703125 39.890625 
Q 22.75 39.890625 18.8125 39.015625 
Q 14.890625 38.140625 10.796875 36.28125 
z
" id="DejaVuSans-53"/>
      </defs>
      <g transform="translate(13.096875 203.140574)scale(0.1 -0.1)">
       <use xlink:href="#DejaVuSans-48"/>
       <use x="63.623047" xlink:href="#DejaVuSans-46"/>
       <use x="95.410156" xlink:href="#DejaVuSans-53"/>
      </g>
     </g>
    </g>
    <g id="ytick_3">
     <g id="line2d_8">
      <g>
       <use style="stroke:#000000;stroke-width:0.8;" x="36" xlink:href="#m3463d4c71b" y="156.566347"/>
      </g>
     </g>
     <g id="text_9">
      <!-- 1.0 -->
      <g transform="translate(13.096875 160.365565)scale(0.1 -0.1)">
       <use xlink:href="#DejaVuSans-49"/>
       <use x="63.623047" xlink:href="#DejaVuSans-46"/>
       <use x="95.410156" xlink:href="#DejaVuSans-48"/>
      </g>
     </g>
    </g>
    <g id="ytick_4">
     <g id="line2d_9">
      <g>
       <use style="stroke:#000000;stroke-width:0.8;" x="36" xlink:href="#m3463d4c71b" y="113.791338"/>
      </g>
     </g>
     <g id="text_10">
      <!-- 1.5 -->
      <g transform="translate(13.096875 117.590557)scale(0.1 -0.1)">
       <use xlink:href="#DejaVuSans-49"/>
       <use x="63.623047" xlink:href="#DejaVuSans-46"/>
       <use x="95.410156" xlink:href="#DejaVuSans-53"/>
      </g>
     </g>
    </g>
    <g id="ytick_5">
     <g id="line2d_10">
      <g>
       <use style="stroke:#000000;stroke-width:0.8;" x="36" xlink:href="#m3463d4c71b" y="71.01633"/>
      </g>
     </g>
     <g id="text_11">
      <!-- 2.0 -->
      <g transform="translate(13.096875 74.815548)scale(0.1 -0.1)">
       <use xlink:href="#DejaVuSans-50"/>
       <use x="63.623047" xlink:href="#DejaVuSans-46"/>
       <use x="95.410156" xlink:href="#DejaVuSans-48"/>
      </g>
     </g>
    </g>
    <g id="text_12">
     <!-- Elongation -->
     <defs>
      <path d="M 9.8125 72.90625 
L 55.90625 72.90625 
L 55.90625 64.59375 
L 19.671875 64.59375 
L 19.671875 43.015625 
L 54.390625 43.015625 
L 54.390625 34.71875 
L 19.671875 34.71875 
L 19.671875 8.296875 
L 56.78125 8.296875 
L 56.78125 0 
L 9.8125 0 
z
" id="DejaVuSans-69"/>
      <path d="M 45.40625 27.984375 
Q 45.40625 37.75 41.375 43.109375 
Q 37.359375 48.484375 30.078125 48.484375 
Q 22.859375 48.484375 18.828125 43.109375 
Q 14.796875 37.75 14.796875 27.984375 
Q 14.796875 18.265625 18.828125 12.890625 
Q 22.859375 7.515625 30.078125 7.515625 
Q 37.359375 7.515625 41.375 12.890625 
Q 45.40625 18.265625 45.40625 27.984375 
z
M 54.390625 6.78125 
Q 54.390625 -7.171875 48.1875 -13.984375 
Q 42 -20.796875 29.203125 -20.796875 
Q 24.46875 -20.796875 20.265625 -20.09375 
Q 16.0625 -19.390625 12.109375 -17.921875 
L 12.109375 -9.1875 
Q 16.0625 -11.328125 19.921875 -12.34375 
Q 23.78125 -13.375 27.78125 -13.375 
Q 36.625 -13.375 41.015625 -8.765625 
Q 45.40625 -4.15625 45.40625 5.171875 
L 45.40625 9.625 
Q 42.625 4.78125 38.28125 2.390625 
Q 33.9375 0 27.875 0 
Q 17.828125 0 11.671875 7.65625 
Q 5.515625 15.328125 5.515625 27.984375 
Q 5.515625 40.671875 11.671875 48.328125 
Q 17.828125 56 27.875 56 
Q 33.9375 56 38.28125 53.609375 
Q 42.625 51.21875 45.40625 46.390625 
L 45.40625 54.6875 
L 54.390625 54.6875 
z
" id="DejaVuSans-103"/>
     </defs>
     <g transform="translate(7.017187 169.872187)rotate(-90)scale(0.1 -0.1)">
      <use xlink:href="#DejaVuSans-69"/>
      <use x="63.183594" xlink:href="#DejaVuSans-108"/>
      <use x="90.966797" xlink:href="#DejaVuSans-111"/>
      <use x="152.148438" xlink:href="#DejaVuSans-110"/>
      <use x="215.527344" xlink:href="#DejaVuSans-103"/>
      <use x="279.003906" xlink:href="#DejaVuSans-97"/>
      <use x="340.283203" xlink:href="#DejaVuSans-116"/>
      <use x="379.492188" xlink:href="#DejaVuSans-105"/>
      <use x="407.275391" xlink:href="#DejaVuSans-111"/>
      <use x="468.457031" xlink:href="#DejaVuSans-110"/>
     </g>
    </g>
   </g>
   <g id="line2d_11">
    <path clip-path="url(#pc3ab4be177)" d="M 175.648729 113.538183 
L 176.710087 111.512332 
L 177.78754 109.440931 
L 178.881427 107.322679 
L 179.992094 105.156228 
L 181.119896 102.940184 
L 182.265198 100.673107 
L 183.428373 98.353502 
L 184.609804 95.979825 
L 185.809886 93.550476 
L 187.029019 91.0638 
L 188.267619 88.518083 
L 189.526109 85.911546 
L 190.804924 83.242352 
L 192.10451 80.508593 
L 193.425325 77.708294 
L 194.767839 74.839407 
L 196.132533 71.899809 
L 197.5199 68.8873 
L 198.930448 65.799596 
L 200.364696 62.634329 
L 200.364696 62.634329 
L 201.090874 61.021846 
L 201.823178 59.389044 
" style="fill:none;stroke:#ff0000;stroke-linecap:square;stroke-width:1.5;"/>
   </g>
   <g id="line2d_12">
    <path clip-path="url(#pc3ab4be177)" d="M 178.34588 116.698363 
L 179.42903 114.642258 
L 180.528485 112.538027 
L 181.644581 110.384237 
L 182.777663 108.179407 
L 183.928083 105.921998 
L 185.096203 103.61042 
L 186.282392 101.24302 
L 187.48703 98.818088 
L 188.710507 96.333849 
L 189.953219 93.788462 
L 191.215575 91.180018 
L 192.497993 88.506535 
L 193.800902 85.765957 
L 195.12474 82.956148 
L 196.469958 80.07489 
L 197.837015 77.119881 
L 199.226385 74.088727 
L 200.63855 70.978942 
L 202.074006 67.787938 
L 203.533262 64.513028 
L 203.533262 64.513028 
L 204.271976 62.843237 
L 205.016836 61.151412 
" style="fill:none;stroke:#bfbf00;stroke-linecap:square;stroke-width:1.5;"/>
   </g>
   <g id="line2d_13">
    <path clip-path="url(#pc3ab4be177)" d="M 168.093828 120.662298 
L 169.112965 118.828974 
L 170.148012 116.946249 
L 171.199317 115.013454 
L 172.267237 113.029796 
L 173.35214 110.994368 
L 174.454402 108.906156 
L 175.574412 106.764047 
L 176.712567 104.566832 
L 177.869277 102.313214 
L 179.044961 100.001805 
L 180.240052 97.631133 
L 181.454993 95.19964 
L 182.69024 92.705683 
L 183.946263 90.147535 
L 185.223542 87.523382 
L 186.522574 84.831323 
L 187.843867 82.06937 
L 189.187946 79.235444 
L 190.555347 76.327372 
L 191.946624 73.342886 
L 193.362347 70.279622 
L 194.803099 67.135111 
L 196.269482 63.90678 
L 197.762114 60.591947 
L 197.762114 60.591947 
L 198.518472 58.901223 
" style="fill:none;stroke:#bfbf00;stroke-linecap:square;stroke-width:1.5;"/>
   </g>
   <g id="line2d_14">
    <path clip-path="url(#pc3ab4be177)" d="M 175.416978 127.736704 
L 176.479103 125.931109 
L 177.557369 124.07397 
L 178.652115 122.164673 
L 179.763689 120.20241 
L 180.892445 118.186209 
L 182.038751 116.114948 
L 183.202979 113.987366 
L 184.385514 111.802079 
L 185.586749 109.557581 
L 186.807089 107.252253 
L 188.046946 104.884361 
L 189.306746 102.452064 
L 190.586924 99.953409 
L 191.887925 97.386332 
L 193.210209 94.74866 
L 194.554245 92.038104 
L 195.920513 89.252258 
L 197.309507 86.388597 
L 198.721734 83.444471 
L 200.157713 80.417102 
L 201.617975 77.303575 
L 203.103067 74.100839 
L 204.613547 70.805694 
L 206.14999 67.414787 
L 207.712982 63.924608 
L 207.712982 63.924608 
L 208.504623 62.141147 
" style="fill:none;stroke:#bfbf00;stroke-linecap:square;stroke-width:1.5;"/>
   </g>
   <g id="line2d_15">
    <path clip-path="url(#pc3ab4be177)" d="M 181.264858 102.406659 
L 182.35446 100.22288 
L 183.460129 97.981563 
L 184.582187 95.681379 
L 185.720963 93.320906 
L 186.876795 90.898637 
L 188.050028 88.412971 
L 189.241017 85.862218 
L 190.450124 83.244601 
L 191.677719 80.558246 
L 192.924182 77.801189 
L 194.189901 74.971372 
L 195.475274 72.066638 
L 196.780707 69.084729 
L 198.106617 66.023287 
L 199.453431 62.879845 
L 199.453431 62.879845 
L 200.134812 61.276575 
L 200.821583 59.651831 
" style="fill:none;stroke:#bfbf00;stroke-linecap:square;stroke-width:1.5;"/>
   </g>
   <g id="line2d_16">
    <path clip-path="url(#pc3ab4be177)" d="M 175.7631 117.2741 
L 176.828683 115.290458 
L 177.910455 113.261288 
L 179.008754 111.185298 
L 180.123929 109.061149 
L 181.256337 106.887452 
L 182.406344 104.662763 
L 183.574324 102.385588 
L 184.760662 100.054376 
L 185.965754 97.667518 
L 187.190003 95.223349 
L 188.433824 92.720139 
L 189.697644 90.156097 
L 190.981898 87.529364 
L 192.287034 84.838015 
L 193.613511 82.08005 
L 194.9618 79.253399 
L 196.332383 76.355911 
L 197.725756 73.385356 
L 199.142427 70.339422 
L 200.582916 67.215707 
L 202.047757 64.01172 
L 202.047757 64.01172 
L 202.78948 62.378821 
L 203.537498 60.724876 
" style="fill:none;stroke:#bfbf00;stroke-linecap:square;stroke-width:1.5;"/>
   </g>
   <g id="line2d_17">
    <path clip-path="url(#pc3ab4be177)" d="M 177.342311 105.177284 
L 178.41065 103.077864 
L 179.495028 100.924136 
L 180.595778 98.71488 
L 181.71324 96.448785 
L 182.847763 94.124455 
L 183.999703 91.740407 
L 185.169428 89.295072 
L 186.357313 86.786792 
L 187.563742 84.213821 
L 188.789111 81.574324 
L 190.033823 78.866372 
L 191.298293 76.087944 
L 192.582947 73.236919 
L 193.88822 70.311077 
L 195.214559 67.308092 
L 196.562422 64.225531 
L 197.932278 61.060849 
L 197.932278 61.060849 
L 198.625603 59.446884 
L 199.324608 57.811381 
" style="fill:none;stroke:#bfbf00;stroke-linecap:square;stroke-width:1.5;"/>
   </g>
   <g id="line2d_18">
    <path clip-path="url(#pc3ab4be177)" d="M 168.953085 118.532989 
L 169.981863 116.480425 
L 171.026725 114.377907 
L 172.088023 112.223885 
L 173.166117 110.016746 
L 174.26138 107.754807 
L 175.37419 105.43632 
L 176.50494 103.059463 
L 177.654031 100.622338 
L 178.821876 98.12297 
L 180.008898 95.5593 
L 181.215533 92.929187 
L 182.442228 90.230396 
L 183.689443 87.460601 
L 184.95765 84.617374 
L 186.247334 81.698187 
L 187.558995 78.700401 
L 188.893144 75.621263 
L 190.250309 72.457899 
L 191.63103 69.207311 
L 193.035863 65.866366 
L 194.465382 62.43179 
L 195.920172 58.900164 
L 195.920172 58.900164 
L 196.657232 57.096845 
" style="fill:none;stroke:#bfbf00;stroke-linecap:square;stroke-width:1.5;"/>
   </g>
   <g id="line2d_19">
    <path clip-path="url(#pc3ab4be177)" d="M 172.907906 118.639754 
L 173.951732 117.046619 
L 175.011509 115.40154 
L 176.087575 113.704667 
L 177.180279 111.955999 
L 178.289977 110.155392 
L 179.417034 108.302573 
L 180.561827 106.397148 
L 181.72474 104.43861 
L 182.906168 102.426346 
L 184.106518 100.359643 
L 185.326206 98.237696 
L 186.565659 96.059607 
L 187.825316 93.824394 
L 189.105626 91.53099 
L 190.407052 89.178248 
L 191.730067 86.764941 
L 193.075159 84.289765 
L 194.442826 81.751339 
L 195.833582 79.148205 
L 197.247952 76.478831 
L 198.686477 73.741606 
L 200.149711 70.934846 
L 201.638222 68.056786 
L 203.152595 65.105585 
L 203.152595 65.105585 
L 203.919666 63.60196 
L 204.693428 62.079323 
" style="fill:none;stroke:#bfbf00;stroke-linecap:square;stroke-width:1.5;"/>
   </g>
   <g id="line2d_20">
    <path clip-path="url(#pc3ab4be177)" d="M 173.850025 124.631003 
L 174.904273 122.930416 
L 175.974634 121.184282 
L 177.061448 119.392374 
L 178.165064 117.554326 
L 179.285842 115.669648 
L 180.424148 113.737743 
L 181.580361 111.757915 
L 182.754867 109.72938 
L 183.948063 107.651274 
L 185.160357 105.522657 
L 186.392166 103.34252 
L 187.64392 101.109787 
L 188.916057 98.82332 
L 190.20903 96.481922 
L 191.523302 94.084335 
L 192.859347 91.629248 
L 194.217653 89.115292 
L 195.598722 86.541046 
L 197.003065 83.905035 
L 198.431209 81.205732 
L 199.883696 78.441557 
L 201.36108 75.61088 
L 202.863929 72.712019 
L 204.392828 69.743241 
L 205.948374 66.702765 
L 205.948374 66.702765 
L 206.736332 65.155068 
L 207.531183 63.588756 
" style="fill:none;stroke:#bfbf00;stroke-linecap:square;stroke-width:1.5;"/>
   </g>
   <g id="line2d_21">
    <path clip-path="url(#pc3ab4be177)" d="M 170.938534 96.613876 
L 171.970439 95.05107 
L 173.018272 93.428674 
L 174.082377 91.7463 
L 175.163108 90.003483 
L 176.260827 88.199687 
L 177.375908 86.334297 
L 178.508731 84.406621 
L 179.659691 82.415889 
L 180.829191 80.361252 
L 182.017644 78.241778 
L 183.225476 76.056458 
L 184.453123 73.804198 
L 185.701036 71.483823 
L 186.969674 69.094074 
L 188.25951 66.633608 
L 189.571033 64.100994 
L 190.90474 61.494717 
L 192.261145 58.813172 
L 192.261145 58.813172 
L 192.948023 57.443648 
L 193.640776 56.054665 
" style="fill:none;stroke:#bfbf00;stroke-linecap:square;stroke-width:1.5;"/>
   </g>
   <g id="line2d_22">
    <path clip-path="url(#pc3ab4be177)" d="M 172.776573 123.63563 
L 173.82327 122.193162 
L 174.886054 120.692413 
L 175.965268 119.134254 
L 177.061265 117.519325 
L 178.174408 115.848049 
L 179.305068 114.120654 
L 180.453626 112.337185 
L 181.620475 110.49752 
L 182.806015 108.601383 
L 184.010658 106.648352 
L 185.234828 104.637875 
L 186.478959 102.569271 
L 187.743497 100.441742 
L 189.028898 98.254379 
L 190.335632 96.006164 
L 191.664182 93.695978 
L 193.015042 91.322603 
L 194.38872 88.884723 
L 195.785736 86.38093 
L 197.206626 83.809722 
L 198.651938 81.169507 
L 200.122237 78.458601 
L 201.618099 75.675232 
L 203.140119 72.817534 
L 204.688906 69.883555 
L 206.265084 66.871249 
L 206.265084 66.871249 
L 207.063644 65.335058 
L 207.869294 63.778476 
" style="fill:none;stroke:#bfbf00;stroke-linecap:square;stroke-width:1.5;"/>
   </g>
   <g id="line2d_23">
    <path clip-path="url(#pc3ab4be177)" d="M 174.430797 134.972313 
L 175.484221 133.394494 
L 176.553705 131.783299 
L 177.63959 130.137983 
L 178.742225 128.457759 
L 179.861969 126.741799 
L 180.999189 124.989239 
L 182.154263 123.199179 
L 183.327576 121.370685 
L 184.519527 119.50279 
L 185.730522 117.594494 
L 186.96098 115.644761 
L 188.211329 113.652525 
L 189.482011 111.616684 
L 190.773476 109.536102 
L 192.086189 107.409611 
L 193.420625 105.236004 
L 194.777273 103.014042 
L 196.156635 100.742446 
L 197.559224 98.419902 
L 198.985568 96.045059 
L 200.43621 93.616526 
L 201.911706 91.132873 
L 203.412627 88.592632 
L 204.939557 85.994292 
L 206.493098 83.336303 
L 208.073868 80.617072 
L 209.682497 77.834964 
L 211.319636 74.988302 
L 212.985951 72.075364 
L 214.682124 69.094386 
L 214.682124 69.094386 
L 215.541626 67.577817 
" style="fill:none;stroke:#bfbf00;stroke-linecap:square;stroke-width:1.5;"/>
   </g>
   <g id="line2d_24">
    <path clip-path="url(#pc3ab4be177)" d="M 177.128236 91.043594 
L 178.196486 88.757181 
L 179.28088 86.412598 
L 180.381756 84.008419 
L 181.499462 81.543142 
L 182.634353 79.015184 
L 183.786794 76.422881 
L 184.957159 73.764486 
L 186.145833 71.038168 
L 187.353207 68.242009 
L 188.579687 65.374 
L 189.825686 62.432042 
L 191.091629 59.41394 
L 192.37795 56.317402 
L 192.37795 56.317402 
L 193.028892 54.738974 
" style="fill:none;stroke:#bfbf00;stroke-linecap:square;stroke-width:1.5;"/>
   </g>
   <g id="line2d_25">
    <path clip-path="url(#pc3ab4be177)" d="M 174.270726 103.816641 
L 175.327032 102.147621 
L 176.399472 100.41897 
L 177.488389 98.630364 
L 178.594132 96.781376 
L 179.71706 94.87148 
L 180.857541 92.900051 
L 182.015951 90.866365 
L 183.192678 88.769603 
L 184.388118 86.608849 
L 185.602679 84.383094 
L 186.836779 82.091237 
L 188.090844 79.732082 
L 189.365316 77.304342 
L 190.660644 74.80664 
L 191.97729 72.237506 
L 193.31573 69.595378 
L 194.676449 66.878602 
L 196.059946 64.085432 
L 197.466733 61.21403 
L 197.466733 61.21403 
L 198.179023 59.748391 
L 198.897334 58.262461 
" style="fill:none;stroke:#bfbf00;stroke-linecap:square;stroke-width:1.5;"/>
   </g>
   <g id="line2d_26">
    <path clip-path="url(#pc3ab4be177)" d="M 46.145455 242.116364 
" style="fill:none;stroke:#bfbf00;stroke-linecap:square;stroke-width:1.5;"/>
   </g>
   <g id="line2d_27">
    <path clip-path="url(#pc3ab4be177)" d="M 170.042277 86.192819 
L 171.066626 83.629996 
L 172.106748 81.004872 
L 173.162985 78.315604 
L 174.235684 75.560276 
L 175.325204 72.736899 
L 176.431914 69.843401 
L 177.556189 66.877632 
L 178.69842 63.837356 
L 179.859003 60.720248 
L 181.038349 57.523895 
L 182.236877 54.245787 
L 182.236877 54.245787 
L 182.843469 52.575263 
L 183.45502 50.883314 
" style="fill:none;stroke:#bfbf00;stroke-linecap:square;stroke-width:1.5;"/>
   </g>
   <g id="line2d_28">
    <path clip-path="url(#pc3ab4be177)" d="M 175.276985 64.190522 
L 176.33412 61.692778 
L 177.407267 59.135997 
L 178.496762 56.518898 
L 179.60295 53.840149 
L 180.726182 51.098366 
L 180.726182 51.098366 
L 181.294304 49.703391 
" style="fill:none;stroke:#bfbf00;stroke-linecap:square;stroke-width:1.5;"/>
   </g>
   <g id="line2d_29">
    <path clip-path="url(#pc3ab4be177)" d="M 166.915965 78.802766 
L 167.918475 76.28412 
L 168.936616 73.709869 
L 169.970734 71.078471 
L 171.021182 68.388329 
L 172.088326 65.637795 
L 173.17254 62.825161 
L 174.274209 59.948661 
L 175.393729 57.006465 
L 176.531507 53.996681 
L 177.687962 50.917349 
L 177.687962 50.917349 
L 178.273328 49.350971 
L 178.863525 47.766439 
" style="fill:none;stroke:#bfbf00;stroke-linecap:square;stroke-width:1.5;"/>
   </g>
   <g id="line2d_30">
    <path clip-path="url(#pc3ab4be177)" d="M 179.278807 118.173385 
L 180.362086 116.384515 
L 181.461599 114.546913 
L 182.577682 112.660079 
L 183.710677 110.723399 
L 184.860935 108.736149 
L 186.028818 106.697504 
L 187.214694 104.606544 
L 188.41894 102.462263 
L 189.641946 100.263566 
L 190.884108 98.00928 
L 192.145833 95.698151 
L 193.427539 93.328847 
L 194.729653 90.899962 
L 196.052613 88.410012 
L 197.396869 85.857439 
L 198.762881 83.24061 
L 200.151121 80.557815 
L 201.562073 77.807269 
L 202.996231 74.987107 
L 204.454103 72.095388 
L 205.93621 69.130088 
L 207.443085 66.089102 
L 207.443085 66.089102 
L 208.205981 64.539546 
L 208.975274 62.97024 
" style="fill:none;stroke:#bfbf00;stroke-linecap:square;stroke-width:1.5;"/>
   </g>
   <g id="line2d_31">
    <path clip-path="url(#pc3ab4be177)" d="M 182.815374 90.134583 
L 183.914086 87.836883 
L 185.028977 85.489641 
L 186.160374 83.091568 
L 187.308608 80.641329 
L 188.474021 78.137549 
L 189.656962 75.578809 
L 190.857787 72.963645 
L 192.076862 70.290546 
L 193.314561 67.557955 
L 194.571268 64.764264 
L 195.847374 61.907816 
L 197.143281 58.986904 
L 197.143281 58.986904 
L 197.798787 57.501726 
" style="fill:none;stroke:#bfbf00;stroke-linecap:square;stroke-width:1.5;"/>
   </g>
   <g id="line2d_32">
    <path clip-path="url(#pc3ab4be177)" d="M 177.184903 98.939323 
L 178.254011 96.842049 
L 179.339245 94.692836 
L 180.440942 92.490604 
L 181.559447 90.234203 
L 182.695112 87.922413 
L 183.848301 85.553948 
L 185.019384 83.127455 
L 186.208743 80.641509 
L 187.416769 78.09462 
L 188.643861 75.485227 
L 189.89043 72.811699 
L 191.156897 70.07233 
L 192.443695 67.265344 
L 193.751266 64.388889 
L 195.080063 61.441035 
L 196.430552 58.419773 
L 196.430552 58.419773 
L 197.114079 56.880964 
" style="fill:none;stroke:#bfbf00;stroke-linecap:square;stroke-width:1.5;"/>
   </g>
   <g id="line2d_33">
    <path clip-path="url(#pc3ab4be177)" d="M 175.408732 98.710031 
L 176.471554 96.478086 
L 177.550534 94.191853 
L 178.646011 91.849922 
L 179.758333 89.450814 
L 180.887858 86.992978 
L 182.03495 84.474792 
L 183.199985 81.894559 
L 184.383348 79.250505 
L 185.585432 76.54078 
L 186.806643 73.763453 
L 188.047396 70.91651 
L 189.308115 67.997852 
L 190.589237 65.005289 
L 191.891211 61.93654 
L 193.214494 58.789227 
L 193.214494 58.789227 
L 193.884273 57.18534 
L 194.559558 55.560874 
" style="fill:none;stroke:#bfbf00;stroke-linecap:square;stroke-width:1.5;"/>
   </g>
   <g id="line2d_34">
    <path clip-path="url(#pc3ab4be177)" d="M 176.775346 144.187683 
L 177.845485 142.60574 
L 178.931768 140.978108 
L 180.034529 139.30536 
L 181.154111 137.58747 
L 182.290864 135.824009 
L 183.445149 134.014263 
L 184.617333 132.157308 
L 185.807795 130.252052 
L 187.016921 128.29727 
L 188.245109 126.291614 
L 189.492765 124.233637 
L 190.760305 122.121791 
L 192.048156 119.954436 
L 193.356756 117.729843 
L 194.686554 115.446195 
L 196.038009 113.101586 
L 197.411591 110.694018 
L 198.807784 108.221404 
L 200.227081 105.68156 
L 201.669989 103.072208 
L 203.137028 100.390966 
L 204.628727 97.63535 
L 206.145633 94.802765 
L 207.688304 91.890505 
L 209.257309 88.895743 
L 210.853235 85.81553 
L 212.476681 82.646787 
L 214.12826 79.386297 
L 215.8086 76.030705 
L 217.518343 72.576502 
L 217.518343 72.576502 
L 218.384447 70.811283 
L 219.258149 69.020025 
" style="fill:none;stroke:#bfbf00;stroke-linecap:square;stroke-width:1.5;"/>
   </g>
   <g id="line2d_35">
    <path clip-path="url(#pc3ab4be177)" d="M 177.885191 134.986612 
L 178.957659 134.020592 
L 180.046202 132.971922 
L 181.15115 131.845039 
L 182.272843 130.643914 
L 183.41163 129.37203 
L 184.567866 128.032389 
L 185.741917 126.627536 
L 186.934158 125.159582 
L 188.144973 123.63025 
L 189.374755 122.040903 
L 190.623907 120.392584 
L 191.892843 118.68605 
L 193.181987 116.921797 
L 194.491772 115.100091 
L 195.822644 113.220991 
L 197.175059 111.284369 
L 198.549484 109.289926 
L 199.946398 107.237211 
L 201.366293 105.125629 
L 202.809672 102.954457 
L 204.277051 100.72285 
L 205.768958 98.429851 
L 207.285935 96.074395 
L 208.828536 93.655316 
L 210.39733 91.171353 
L 211.9929 88.621149 
L 213.615842 86.003259 
L 215.266767 83.316148 
L 216.946301 80.558197 
L 218.655084 77.7277 
L 220.393773 74.822866 
L 222.163039 71.841821 
L 222.163039 71.841821 
L 223.059352 70.322111 
" style="fill:none;stroke:#bfbf00;stroke-linecap:square;stroke-width:1.5;"/>
   </g>
   <g id="line2d_36">
    <path clip-path="url(#pc3ab4be177)" d="M 176.824569 131.099752 
L 177.899089 130.303699 
L 178.989928 129.422571 
L 180.097428 128.459314 
L 181.221937 127.416785 
L 182.363815 126.29769 
L 183.523428 125.104526 
L 184.701154 123.839557 
L 185.897379 122.504788 
L 187.112498 121.101963 
L 188.346917 119.632561 
L 189.601053 118.097808 
L 190.875331 116.498683 
L 192.170189 114.835932 
L 193.486075 113.110082 
L 194.823448 111.321453 
L 196.182779 109.470176 
L 197.564551 107.5562 
L 198.969258 105.57931 
L 200.397408 103.539131 
L 201.849521 101.435146 
L 203.326128 99.266698 
L 204.827777 97.033003 
L 206.355025 94.733153 
L 207.908446 92.366126 
L 209.488628 89.930787 
L 211.096171 87.425897 
L 212.731691 84.850114 
L 214.395819 82.201995 
L 216.089201 79.480003 
L 217.812498 76.682508 
L 219.566387 73.807787 
L 219.566387 73.807787 
L 220.455018 72.340904 
L 221.351559 70.854027 
" style="fill:none;stroke:#bfbf00;stroke-linecap:square;stroke-width:1.5;"/>
   </g>
   <g id="line2d_37">
    <path clip-path="url(#pc3ab4be177)" d="M 175.798066 120.194576 
L 176.864768 118.197539 
L 177.947655 116.153605 
L 179.047066 114.061377 
L 180.163347 111.919407 
L 181.296853 109.726195 
L 182.447947 107.480189 
L 183.617002 105.179779 
L 184.804401 102.823299 
L 186.010536 100.409023 
L 187.235808 97.93516 
L 188.480629 95.399857 
L 189.745422 92.801191 
L 191.030619 90.137171 
L 192.336665 87.405733 
L 193.664014 84.604734 
L 195.013134 81.731956 
L 196.384501 78.785097 
L 197.778607 75.76177 
L 199.195954 72.659501 
L 200.637058 69.475722 
L 202.102446 66.20777 
L 203.59266 62.852884 
L 203.59266 62.852884 
L 204.34725 61.141949 
" style="fill:none;stroke:#bfbf00;stroke-linecap:square;stroke-width:1.5;"/>
   </g>
   <g id="line2d_38">
    <path clip-path="url(#pc3ab4be177)" d="M 169.51015 44.443636 
L 188.672501 54.087069 
L 216.453779 68.348018 
L 249.054545 85.072703 
L 249.054545 85.072703 
" style="fill:none;stroke:#008000;stroke-linecap:square;stroke-width:1.5;"/>
   </g>
   <g id="patch_3">
    <path d="M 36 252 
L 36 34.56 
" style="fill:none;stroke:#000000;stroke-linecap:square;stroke-linejoin:miter;stroke-width:0.8;"/>
   </g>
   <g id="patch_4">
    <path d="M 259.2 252 
L 259.2 34.56 
" style="fill:none;stroke:#000000;stroke-linecap:square;stroke-linejoin:miter;stroke-width:0.8;"/>
   </g>
   <g id="patch_5">
    <path d="M 36 252 
L 259.2 252 
" style="fill:none;stroke:#000000;stroke-linecap:square;stroke-linejoin:miter;stroke-width:0.8;"/>
   </g>
   <g id="patch_6">
    <path d="M 36 34.56 
L 259.2 34.56 
" style="fill:none;stroke:#000000;stroke-linecap:square;stroke-linejoin:miter;stroke-width:0.8;"/>
   </g>
   <g id="text_13">
    <!--  0.79 -->
    <defs>
     <path id="DejaVuSans-32"/>
     <path d="M 8.203125 72.90625 
L 55.078125 72.90625 
L 55.078125 68.703125 
L 28.609375 0 
L 18.3125 0 
L 43.21875 64.59375 
L 8.203125 64.59375 
z
" id="DejaVuSans-55"/>
     <path d="M 10.984375 1.515625 
L 10.984375 10.5 
Q 14.703125 8.734375 18.5 7.8125 
Q 22.3125 6.890625 25.984375 6.890625 
Q 35.75 6.890625 40.890625 13.453125 
Q 46.046875 20.015625 46.78125 33.40625 
Q 43.953125 29.203125 39.59375 26.953125 
Q 35.25 24.703125 29.984375 24.703125 
Q 19.046875 24.703125 12.671875 31.3125 
Q 6.296875 37.9375 6.296875 49.421875 
Q 6.296875 60.640625 12.9375 67.421875 
Q 19.578125 74.21875 30.609375 74.21875 
Q 43.265625 74.21875 49.921875 64.515625 
Q 56.59375 54.828125 56.59375 36.375 
Q 56.59375 19.140625 48.40625 8.859375 
Q 40.234375 -1.421875 26.421875 -1.421875 
Q 22.703125 -1.421875 18.890625 -0.6875 
Q 15.09375 0.046875 10.984375 1.515625 
z
M 30.609375 32.421875 
Q 37.25 32.421875 41.125 36.953125 
Q 45.015625 41.5 45.015625 49.421875 
Q 45.015625 57.28125 41.125 61.84375 
Q 37.25 66.40625 30.609375 66.40625 
Q 23.96875 66.40625 20.09375 61.84375 
Q 16.21875 57.28125 16.21875 49.421875 
Q 16.21875 41.5 20.09375 36.953125 
Q 23.96875 32.421875 30.609375 32.421875 
z
" id="DejaVuSans-57"/>
    </defs>
    <g transform="translate(201.823178 59.389044)scale(0.1 -0.1)">
     <use xlink:href="#DejaVuSans-32"/>
     <use x="31.787109" xlink:href="#DejaVuSans-48"/>
     <use x="95.410156" xlink:href="#DejaVuSans-46"/>
     <use x="127.197266" xlink:href="#DejaVuSans-55"/>
     <use x="190.820312" xlink:href="#DejaVuSans-57"/>
    </g>
   </g>
   <g id="text_14">
    <!--  f=1 -->
    <defs>
     <path d="M 37.109375 75.984375 
L 37.109375 68.5 
L 28.515625 68.5 
Q 23.6875 68.5 21.796875 66.546875 
Q 19.921875 64.59375 19.921875 59.515625 
L 19.921875 54.6875 
L 34.71875 54.6875 
L 34.71875 47.703125 
L 19.921875 47.703125 
L 19.921875 0 
L 10.890625 0 
L 10.890625 47.703125 
L 2.296875 47.703125 
L 2.296875 54.6875 
L 10.890625 54.6875 
L 10.890625 58.5 
Q 10.890625 67.625 15.140625 71.796875 
Q 19.390625 75.984375 28.609375 75.984375 
z
" id="DejaVuSans-102"/>
     <path d="M 10.59375 45.40625 
L 73.1875 45.40625 
L 73.1875 37.203125 
L 10.59375 37.203125 
z
M 10.59375 25.484375 
L 73.1875 25.484375 
L 73.1875 17.1875 
L 10.59375 17.1875 
z
" id="DejaVuSans-61"/>
    </defs>
    <g transform="translate(166.435316 113.538183)scale(0.1 -0.1)">
     <use xlink:href="#DejaVuSans-32"/>
     <use x="31.787109" xlink:href="#DejaVuSans-102"/>
     <use x="66.992188" xlink:href="#DejaVuSans-61"/>
     <use x="150.78125" xlink:href="#DejaVuSans-49"/>
    </g>
   </g>
  </g>
 </g>
 <defs>
  <clipPath id="pc3ab4be177">
   <rect height="217.44" width="223.2" x="36" y="34.56"/>
  </clipPath>
 </defs>
</svg>
