<?xml version="1.0" encoding="utf-8" standalone="no"?>
<!DOCTYPE svg PUBLIC "-//W3C//DTD SVG 1.1//EN"
  "http://www.w3.org/Graphics/SVG/1.1/DTD/svg11.dtd">
<!-- Created with matplotlib (https://matplotlib.org/) -->
<svg height="288pt" version="1.1" viewBox="0 0 288 288" width="288pt" xmlns="http://www.w3.org/2000/svg" xmlns:xlink="http://www.w3.org/1999/xlink">
 <defs>
  <style type="text/css">
*{stroke-linecap:butt;stroke-linejoin:round;}
  </style>
 </defs>
 <g id="figure_1">
  <g id="patch_1">
   <path d="M 0 288 
L 288 288 
L 288 0 
L 0 0 
z
" style="fill:#ffffff;"/>
  </g>
  <g id="axes_1">
   <g id="patch_2">
    <path d="M 36 252 
L 259.2 252 
L 259.2 34.56 
L 36 34.56 
z
" style="fill:#ffffff;"/>
   </g>
   <g id="matplotlib.axis_1">
    <g id="xtick_1">
     <g id="line2d_1">
      <defs>
       <path d="M 0 0 
L 0 3.5 
" id="md73ad7cffa" style="stroke:#000000;stroke-width:0.8;"/>
      </defs>
      <g>
       <use style="stroke:#000000;stroke-width:0.8;" x="46.145455" xlink:href="#md73ad7cffa" y="252"/>
      </g>
     </g>
     <g id="text_1">
      <!-- 0 -->
      <defs>
       <path d="M 31.78125 66.40625 
Q 24.171875 66.40625 20.328125 58.90625 
Q 16.5 51.421875 16.5 36.375 
Q 16.5 21.390625 20.328125 13.890625 
Q 24.171875 6.390625 31.78125 6.390625 
Q 39.453125 6.390625 43.28125 13.890625 
Q 47.125 21.390625 47.125 36.375 
Q 47.125 51.421875 43.28125 58.90625 
Q 39.453125 66.40625 31.78125 66.40625 
z
M 31.78125 74.21875 
Q 44.046875 74.21875 50.515625 64.515625 
Q 56.984375 54.828125 56.984375 36.375 
Q 56.984375 17.96875 50.515625 8.265625 
Q 44.046875 -1.421875 31.78125 -1.421875 
Q 19.53125 -1.421875 13.0625 8.265625 
Q 6.59375 17.96875 6.59375 36.375 
Q 6.59375 54.828125 13.0625 64.515625 
Q 19.53125 74.21875 31.78125 74.21875 
z
" id="DejaVuSans-48"/>
      </defs>
      <g transform="translate(42.964205 266.598437)scale(0.1 -0.1)">
       <use xlink:href="#DejaVuSans-48"/>
      </g>
     </g>
    </g>
    <g id="xtick_2">
     <g id="line2d_2">
      <g>
       <use style="stroke:#000000;stroke-width:0.8;" x="93.007054" xlink:href="#md73ad7cffa" y="252"/>
      </g>
     </g>
     <g id="text_2">
      <!-- 10 -->
      <defs>
       <path d="M 12.40625 8.296875 
L 28.515625 8.296875 
L 28.515625 63.921875 
L 10.984375 60.40625 
L 10.984375 69.390625 
L 28.421875 72.90625 
L 38.28125 72.90625 
L 38.28125 8.296875 
L 54.390625 8.296875 
L 54.390625 0 
L 12.40625 0 
z
" id="DejaVuSans-49"/>
      </defs>
      <g transform="translate(86.644554 266.598437)scale(0.1 -0.1)">
       <use xlink:href="#DejaVuSans-49"/>
       <use x="63.623047" xlink:href="#DejaVuSans-48"/>
      </g>
     </g>
    </g>
    <g id="xtick_3">
     <g id="line2d_3">
      <g>
       <use style="stroke:#000000;stroke-width:0.8;" x="139.868653" xlink:href="#md73ad7cffa" y="252"/>
      </g>
     </g>
     <g id="text_3">
      <!-- 20 -->
      <defs>
       <path d="M 19.1875 8.296875 
L 53.609375 8.296875 
L 53.609375 0 
L 7.328125 0 
L 7.328125 8.296875 
Q 12.9375 14.109375 22.625 23.890625 
Q 32.328125 33.6875 34.8125 36.53125 
Q 39.546875 41.84375 41.421875 45.53125 
Q 43.3125 49.21875 43.3125 52.78125 
Q 43.3125 58.59375 39.234375 62.25 
Q 35.15625 65.921875 28.609375 65.921875 
Q 23.96875 65.921875 18.8125 64.3125 
Q 13.671875 62.703125 7.8125 59.421875 
L 7.8125 69.390625 
Q 13.765625 71.78125 18.9375 73 
Q 24.125 74.21875 28.421875 74.21875 
Q 39.75 74.21875 46.484375 68.546875 
Q 53.21875 62.890625 53.21875 53.421875 
Q 53.21875 48.921875 51.53125 44.890625 
Q 49.859375 40.875 45.40625 35.40625 
Q 44.1875 33.984375 37.640625 27.21875 
Q 31.109375 20.453125 19.1875 8.296875 
z
" id="DejaVuSans-50"/>
      </defs>
      <g transform="translate(133.506153 266.598437)scale(0.1 -0.1)">
       <use xlink:href="#DejaVuSans-50"/>
       <use x="63.623047" xlink:href="#DejaVuSans-48"/>
      </g>
     </g>
    </g>
    <g id="xtick_4">
     <g id="line2d_4">
      <g>
       <use style="stroke:#000000;stroke-width:0.8;" x="186.730252" xlink:href="#md73ad7cffa" y="252"/>
      </g>
     </g>
     <g id="text_4">
      <!-- 30 -->
      <defs>
       <path d="M 40.578125 39.3125 
Q 47.65625 37.796875 51.625 33 
Q 55.609375 28.21875 55.609375 21.1875 
Q 55.609375 10.40625 48.1875 4.484375 
Q 40.765625 -1.421875 27.09375 -1.421875 
Q 22.515625 -1.421875 17.65625 -0.515625 
Q 12.796875 0.390625 7.625 2.203125 
L 7.625 11.71875 
Q 11.71875 9.328125 16.59375 8.109375 
Q 21.484375 6.890625 26.8125 6.890625 
Q 36.078125 6.890625 40.9375 10.546875 
Q 45.796875 14.203125 45.796875 21.1875 
Q 45.796875 27.640625 41.28125 31.265625 
Q 36.765625 34.90625 28.71875 34.90625 
L 20.21875 34.90625 
L 20.21875 43.015625 
L 29.109375 43.015625 
Q 36.375 43.015625 40.234375 45.921875 
Q 44.09375 48.828125 44.09375 54.296875 
Q 44.09375 59.90625 40.109375 62.90625 
Q 36.140625 65.921875 28.71875 65.921875 
Q 24.65625 65.921875 20.015625 65.03125 
Q 15.375 64.15625 9.8125 62.3125 
L 9.8125 71.09375 
Q 15.4375 72.65625 20.34375 73.4375 
Q 25.25 74.21875 29.59375 74.21875 
Q 40.828125 74.21875 47.359375 69.109375 
Q 53.90625 64.015625 53.90625 55.328125 
Q 53.90625 49.265625 50.4375 45.09375 
Q 46.96875 40.921875 40.578125 39.3125 
z
" id="DejaVuSans-51"/>
      </defs>
      <g transform="translate(180.367752 266.598437)scale(0.1 -0.1)">
       <use xlink:href="#DejaVuSans-51"/>
       <use x="63.623047" xlink:href="#DejaVuSans-48"/>
      </g>
     </g>
    </g>
    <g id="xtick_5">
     <g id="line2d_5">
      <g>
       <use style="stroke:#000000;stroke-width:0.8;" x="233.591851" xlink:href="#md73ad7cffa" y="252"/>
      </g>
     </g>
     <g id="text_5">
      <!-- 40 -->
      <defs>
       <path d="M 37.796875 64.3125 
L 12.890625 25.390625 
L 37.796875 25.390625 
z
M 35.203125 72.90625 
L 47.609375 72.90625 
L 47.609375 25.390625 
L 58.015625 25.390625 
L 58.015625 17.1875 
L 47.609375 17.1875 
L 47.609375 0 
L 37.796875 0 
L 37.796875 17.1875 
L 4.890625 17.1875 
L 4.890625 26.703125 
z
" id="DejaVuSans-52"/>
      </defs>
      <g transform="translate(227.229351 266.598437)scale(0.1 -0.1)">
       <use xlink:href="#DejaVuSans-52"/>
       <use x="63.623047" xlink:href="#DejaVuSans-48"/>
      </g>
     </g>
    </g>
    <g id="text_6">
     <!-- Inclination -->
     <defs>
      <path d="M 9.8125 72.90625 
L 19.671875 72.90625 
L 19.671875 0 
L 9.8125 0 
z
" id="DejaVuSans-73"/>
      <path d="M 54.890625 33.015625 
L 54.890625 0 
L 45.90625 0 
L 45.90625 32.71875 
Q 45.90625 40.484375 42.875 44.328125 
Q 39.84375 48.1875 33.796875 48.1875 
Q 26.515625 48.1875 22.3125 43.546875 
Q 18.109375 38.921875 18.109375 30.90625 
L 18.109375 0 
L 9.078125 0 
L 9.078125 54.6875 
L 18.109375 54.6875 
L 18.109375 46.1875 
Q 21.34375 51.125 25.703125 53.5625 
Q 30.078125 56 35.796875 56 
Q 45.21875 56 50.046875 50.171875 
Q 54.890625 44.34375 54.890625 33.015625 
z
" id="DejaVuSans-110"/>
      <path d="M 48.78125 52.59375 
L 48.78125 44.1875 
Q 44.96875 46.296875 41.140625 47.34375 
Q 37.3125 48.390625 33.40625 48.390625 
Q 24.65625 48.390625 19.8125 42.84375 
Q 14.984375 37.3125 14.984375 27.296875 
Q 14.984375 17.28125 19.8125 11.734375 
Q 24.65625 6.203125 33.40625 6.203125 
Q 37.3125 6.203125 41.140625 7.25 
Q 44.96875 8.296875 48.78125 10.40625 
L 48.78125 2.09375 
Q 45.015625 0.34375 40.984375 -0.53125 
Q 36.96875 -1.421875 32.421875 -1.421875 
Q 20.0625 -1.421875 12.78125 6.34375 
Q 5.515625 14.109375 5.515625 27.296875 
Q 5.515625 40.671875 12.859375 48.328125 
Q 20.21875 56 33.015625 56 
Q 37.15625 56 41.109375 55.140625 
Q 45.0625 54.296875 48.78125 52.59375 
z
" id="DejaVuSans-99"/>
      <path d="M 9.421875 75.984375 
L 18.40625 75.984375 
L 18.40625 0 
L 9.421875 0 
z
" id="DejaVuSans-108"/>
      <path d="M 9.421875 54.6875 
L 18.40625 54.6875 
L 18.40625 0 
L 9.421875 0 
z
M 9.421875 75.984375 
L 18.40625 75.984375 
L 18.40625 64.59375 
L 9.421875 64.59375 
z
" id="DejaVuSans-105"/>
      <path d="M 34.28125 27.484375 
Q 23.390625 27.484375 19.1875 25 
Q 14.984375 22.515625 14.984375 16.5 
Q 14.984375 11.71875 18.140625 8.90625 
Q 21.296875 6.109375 26.703125 6.109375 
Q 34.1875 6.109375 38.703125 11.40625 
Q 43.21875 16.703125 43.21875 25.484375 
L 43.21875 27.484375 
z
M 52.203125 31.203125 
L 52.203125 0 
L 43.21875 0 
L 43.21875 8.296875 
Q 40.140625 3.328125 35.546875 0.953125 
Q 30.953125 -1.421875 24.3125 -1.421875 
Q 15.921875 -1.421875 10.953125 3.296875 
Q 6 8.015625 6 15.921875 
Q 6 25.140625 12.171875 29.828125 
Q 18.359375 34.515625 30.609375 34.515625 
L 43.21875 34.515625 
L 43.21875 35.40625 
Q 43.21875 41.609375 39.140625 45 
Q 35.0625 48.390625 27.6875 48.390625 
Q 23 48.390625 18.546875 47.265625 
Q 14.109375 46.140625 10.015625 43.890625 
L 10.015625 52.203125 
Q 14.9375 54.109375 19.578125 55.046875 
Q 24.21875 56 28.609375 56 
Q 40.484375 56 46.34375 49.84375 
Q 52.203125 43.703125 52.203125 31.203125 
z
" id="DejaVuSans-97"/>
      <path d="M 18.3125 70.21875 
L 18.3125 54.6875 
L 36.8125 54.6875 
L 36.8125 47.703125 
L 18.3125 47.703125 
L 18.3125 18.015625 
Q 18.3125 11.328125 20.140625 9.421875 
Q 21.96875 7.515625 27.59375 7.515625 
L 36.8125 7.515625 
L 36.8125 0 
L 27.59375 0 
Q 17.1875 0 13.234375 3.875 
Q 9.28125 7.765625 9.28125 18.015625 
L 9.28125 47.703125 
L 2.6875 47.703125 
L 2.6875 54.6875 
L 9.28125 54.6875 
L 9.28125 70.21875 
z
" id="DejaVuSans-116"/>
      <path d="M 30.609375 48.390625 
Q 23.390625 48.390625 19.1875 42.75 
Q 14.984375 37.109375 14.984375 27.296875 
Q 14.984375 17.484375 19.15625 11.84375 
Q 23.34375 6.203125 30.609375 6.203125 
Q 37.796875 6.203125 41.984375 11.859375 
Q 46.1875 17.53125 46.1875 27.296875 
Q 46.1875 37.015625 41.984375 42.703125 
Q 37.796875 48.390625 30.609375 48.390625 
z
M 30.609375 56 
Q 42.328125 56 49.015625 48.375 
Q 55.71875 40.765625 55.71875 27.296875 
Q 55.71875 13.875 49.015625 6.21875 
Q 42.328125 -1.421875 30.609375 -1.421875 
Q 18.84375 -1.421875 12.171875 6.21875 
Q 5.515625 13.875 5.515625 27.296875 
Q 5.515625 40.765625 12.171875 48.375 
Q 18.84375 56 30.609375 56 
z
" id="DejaVuSans-111"/>
     </defs>
     <g transform="translate(121.61875 280.276563)scale(0.1 -0.1)">
      <use xlink:href="#DejaVuSans-73"/>
      <use x="29.492188" xlink:href="#DejaVuSans-110"/>
      <use x="92.871094" xlink:href="#DejaVuSans-99"/>
      <use x="147.851562" xlink:href="#DejaVuSans-108"/>
      <use x="175.634766" xlink:href="#DejaVuSans-105"/>
      <use x="203.417969" xlink:href="#DejaVuSans-110"/>
      <use x="266.796875" xlink:href="#DejaVuSans-97"/>
      <use x="328.076172" xlink:href="#DejaVuSans-116"/>
      <use x="367.285156" xlink:href="#DejaVuSans-105"/>
      <use x="395.068359" xlink:href="#DejaVuSans-111"/>
      <use x="456.25" xlink:href="#DejaVuSans-110"/>
     </g>
    </g>
   </g>
   <g id="matplotlib.axis_2">
    <g id="ytick_1">
     <g id="line2d_6">
      <defs>
       <path d="M 0 0 
L -3.5 0 
" id="mfa0751daf9" style="stroke:#000000;stroke-width:0.8;"/>
      </defs>
      <g>
       <use style="stroke:#000000;stroke-width:0.8;" x="36" xlink:href="#mfa0751daf9" y="242.116364"/>
      </g>
     </g>
     <g id="text_7">
      <!-- 0.0 -->
      <defs>
       <path d="M 10.6875 12.40625 
L 21 12.40625 
L 21 0 
L 10.6875 0 
z
" id="DejaVuSans-46"/>
      </defs>
      <g transform="translate(13.096875 245.915582)scale(0.1 -0.1)">
       <use xlink:href="#DejaVuSans-48"/>
       <use x="63.623047" xlink:href="#DejaVuSans-46"/>
       <use x="95.410156" xlink:href="#DejaVuSans-48"/>
      </g>
     </g>
    </g>
    <g id="ytick_2">
     <g id="line2d_7">
      <g>
       <use style="stroke:#000000;stroke-width:0.8;" x="36" xlink:href="#mfa0751daf9" y="199.340633"/>
      </g>
     </g>
     <g id="text_8">
      <!-- 0.5 -->
      <defs>
       <path d="M 10.796875 72.90625 
L 49.515625 72.90625 
L 49.515625 64.59375 
L 19.828125 64.59375 
L 19.828125 46.734375 
Q 21.96875 47.46875 24.109375 47.828125 
Q 26.265625 48.1875 28.421875 48.1875 
Q 40.625 48.1875 47.75 41.5 
Q 54.890625 34.8125 54.890625 23.390625 
Q 54.890625 11.625 47.5625 5.09375 
Q 40.234375 -1.421875 26.90625 -1.421875 
Q 22.3125 -1.421875 17.546875 -0.640625 
Q 12.796875 0.140625 7.71875 1.703125 
L 7.71875 11.625 
Q 12.109375 9.234375 16.796875 8.0625 
Q 21.484375 6.890625 26.703125 6.890625 
Q 35.15625 6.890625 40.078125 11.328125 
Q 45.015625 15.765625 45.015625 23.390625 
Q 45.015625 31 40.078125 35.4375 
Q 35.15625 39.890625 26.703125 39.890625 
Q 22.75 39.890625 18.8125 39.015625 
Q 14.890625 38.140625 10.796875 36.28125 
z
" id="DejaVuSans-53"/>
      </defs>
      <g transform="translate(13.096875 203.139852)scale(0.1 -0.1)">
       <use xlink:href="#DejaVuSans-48"/>
       <use x="63.623047" xlink:href="#DejaVuSans-46"/>
       <use x="95.410156" xlink:href="#DejaVuSans-53"/>
      </g>
     </g>
    </g>
    <g id="ytick_3">
     <g id="line2d_8">
      <g>
       <use style="stroke:#000000;stroke-width:0.8;" x="36" xlink:href="#mfa0751daf9" y="156.564902"/>
      </g>
     </g>
     <g id="text_9">
      <!-- 1.0 -->
      <g transform="translate(13.096875 160.364121)scale(0.1 -0.1)">
       <use xlink:href="#DejaVuSans-49"/>
       <use x="63.623047" xlink:href="#DejaVuSans-46"/>
       <use x="95.410156" xlink:href="#DejaVuSans-48"/>
      </g>
     </g>
    </g>
    <g id="ytick_4">
     <g id="line2d_9">
      <g>
       <use style="stroke:#000000;stroke-width:0.8;" x="36" xlink:href="#mfa0751daf9" y="113.789171"/>
      </g>
     </g>
     <g id="text_10">
      <!-- 1.5 -->
      <g transform="translate(13.096875 117.58839)scale(0.1 -0.1)">
       <use xlink:href="#DejaVuSans-49"/>
       <use x="63.623047" xlink:href="#DejaVuSans-46"/>
       <use x="95.410156" xlink:href="#DejaVuSans-53"/>
      </g>
     </g>
    </g>
    <g id="ytick_5">
     <g id="line2d_10">
      <g>
       <use style="stroke:#000000;stroke-width:0.8;" x="36" xlink:href="#mfa0751daf9" y="71.01344"/>
      </g>
     </g>
     <g id="text_11">
      <!-- 2.0 -->
      <g transform="translate(13.096875 74.812659)scale(0.1 -0.1)">
       <use xlink:href="#DejaVuSans-50"/>
       <use x="63.623047" xlink:href="#DejaVuSans-46"/>
       <use x="95.410156" xlink:href="#DejaVuSans-48"/>
      </g>
     </g>
    </g>
    <g id="text_12">
     <!-- Elongation -->
     <defs>
      <path d="M 9.8125 72.90625 
L 55.90625 72.90625 
L 55.90625 64.59375 
L 19.671875 64.59375 
L 19.671875 43.015625 
L 54.390625 43.015625 
L 54.390625 34.71875 
L 19.671875 34.71875 
L 19.671875 8.296875 
L 56.78125 8.296875 
L 56.78125 0 
L 9.8125 0 
z
" id="DejaVuSans-69"/>
      <path d="M 45.40625 27.984375 
Q 45.40625 37.75 41.375 43.109375 
Q 37.359375 48.484375 30.078125 48.484375 
Q 22.859375 48.484375 18.828125 43.109375 
Q 14.796875 37.75 14.796875 27.984375 
Q 14.796875 18.265625 18.828125 12.890625 
Q 22.859375 7.515625 30.078125 7.515625 
Q 37.359375 7.515625 41.375 12.890625 
Q 45.40625 18.265625 45.40625 27.984375 
z
M 54.390625 6.78125 
Q 54.390625 -7.171875 48.1875 -13.984375 
Q 42 -20.796875 29.203125 -20.796875 
Q 24.46875 -20.796875 20.265625 -20.09375 
Q 16.0625 -19.390625 12.109375 -17.921875 
L 12.109375 -9.1875 
Q 16.0625 -11.328125 19.921875 -12.34375 
Q 23.78125 -13.375 27.78125 -13.375 
Q 36.625 -13.375 41.015625 -8.765625 
Q 45.40625 -4.15625 45.40625 5.171875 
L 45.40625 9.625 
Q 42.625 4.78125 38.28125 2.390625 
Q 33.9375 0 27.875 0 
Q 17.828125 0 11.671875 7.65625 
Q 5.515625 15.328125 5.515625 27.984375 
Q 5.515625 40.671875 11.671875 48.328125 
Q 17.828125 56 27.875 56 
Q 33.9375 56 38.28125 53.609375 
Q 42.625 51.21875 45.40625 46.390625 
L 45.40625 54.6875 
L 54.390625 54.6875 
z
" id="DejaVuSans-103"/>
     </defs>
     <g transform="translate(7.017187 169.872187)rotate(-90)scale(0.1 -0.1)">
      <use xlink:href="#DejaVuSans-69"/>
      <use x="63.183594" xlink:href="#DejaVuSans-108"/>
      <use x="90.966797" xlink:href="#DejaVuSans-111"/>
      <use x="152.148438" xlink:href="#DejaVuSans-110"/>
      <use x="215.527344" xlink:href="#DejaVuSans-103"/>
      <use x="279.003906" xlink:href="#DejaVuSans-97"/>
      <use x="340.283203" xlink:href="#DejaVuSans-116"/>
      <use x="379.492188" xlink:href="#DejaVuSans-105"/>
      <use x="407.275391" xlink:href="#DejaVuSans-111"/>
      <use x="468.457031" xlink:href="#DejaVuSans-110"/>
     </g>
    </g>
   </g>
   <g id="line2d_11">
    <path clip-path="url(#p90a1ccf2fa)" d="M 177.882313 113.536012 
L 178.961976 111.510126 
L 180.058013 109.43869 
L 181.170766 107.320402 
L 182.300589 105.153915 
L 183.447843 102.937834 
L 184.612898 100.670718 
L 185.796135 98.351074 
L 186.997943 95.977357 
L 188.218722 93.547967 
L 189.458883 91.061249 
L 190.718845 88.515489 
L 191.999041 85.908908 
L 193.299912 83.239669 
L 194.621912 80.505864 
L 195.965508 77.705517 
L 197.331176 74.836582 
L 198.719407 71.896934 
L 200.130703 68.884374 
L 201.565579 65.796618 
L 203.024564 62.631298 
L 203.024564 62.631298 
L 203.763267 61.018788 
L 204.508201 59.385958 
" style="fill:none;stroke:#ff0000;stroke-linecap:square;stroke-width:1.5;"/>
   </g>
   <g id="line2d_12">
    <path clip-path="url(#p90a1ccf2fa)" d="M 175.760553 96.171498 
L 176.8267 94.115835 
L 177.909151 92.009054 
L 179.008252 89.850214 
L 180.124359 87.63831 
L 181.257838 85.372275 
L 182.409064 83.050981 
L 183.578423 80.673238 
L 184.766309 78.237794 
L 185.973128 75.743339 
L 187.199296 73.1885 
L 188.44524 70.571844 
L 189.711399 67.891874 
L 190.998222 65.147035 
L 192.306173 62.335705 
L 193.635724 59.4562 
L 194.987363 56.506773 
L 194.987363 56.506773 
L 195.67162 55.005274 
" style="fill:none;stroke:#bfbf00;stroke-linecap:square;stroke-width:1.5;"/>
   </g>
   <g id="line2d_13">
    <path clip-path="url(#p90a1ccf2fa)" d="M 180.799414 91.823969 
L 181.896896 89.422964 
L 183.010897 86.965361 
L 184.141759 84.44951 
L 185.289837 81.873695 
L 186.455489 79.236131 
L 187.639088 76.534963 
L 188.841011 73.768259 
L 190.061649 70.934011 
L 191.301399 68.03013 
L 192.560671 65.054442 
L 193.839885 62.004685 
L 195.13947 58.878504 
L 195.13947 58.878504 
L 195.797038 57.285993 
L 196.459866 55.673449 
" style="fill:none;stroke:#bfbf00;stroke-linecap:square;stroke-width:1.5;"/>
   </g>
   <g id="line2d_14">
    <path clip-path="url(#p90a1ccf2fa)" d="M 173.733337 124.877713 
L 174.787013 123.248862 
L 175.856883 121.569337 
L 176.943295 119.839309 
L 178.046605 118.058741 
L 179.16718 116.227422 
L 180.305395 114.344977 
L 181.461636 112.410891 
L 182.6363 110.424517 
L 183.829794 108.385087 
L 185.042534 106.291725 
L 186.274951 104.14345 
L 187.527484 101.939182 
L 188.800587 99.677749 
L 190.094723 97.357888 
L 191.410369 94.97825 
L 192.748017 92.537398 
L 194.10817 90.033811 
L 195.491344 87.465885 
L 196.898071 84.831929 
L 198.328897 82.130171 
L 199.784382 79.35875 
L 201.265103 76.515719 
L 202.771651 73.599042 
L 204.304633 70.606594 
L 205.864675 67.536152 
L 207.452418 64.385402 
L 207.452418 64.385402 
L 208.256882 62.779161 
L 209.06852 61.151928 
" style="fill:none;stroke:#bfbf00;stroke-linecap:square;stroke-width:1.5;"/>
   </g>
   <g id="line2d_15">
    <path clip-path="url(#p90a1ccf2fa)" d="M 46.145455 242.116364 
" style="fill:none;stroke:#bfbf00;stroke-linecap:square;stroke-width:1.5;"/>
   </g>
   <g id="line2d_16">
    <path clip-path="url(#p90a1ccf2fa)" d="M 175.842476 112.221416 
L 176.912499 110.273854 
L 177.998881 108.280917 
L 179.101967 106.241644 
L 180.222114 104.155014 
L 181.359686 102.019947 
L 182.515057 99.835307 
L 183.688611 97.599902 
L 184.880743 95.312484 
L 186.091855 92.971749 
L 187.322363 90.576339 
L 188.572692 88.12484 
L 189.843279 85.615781 
L 191.134571 83.047633 
L 192.447028 80.418809 
L 193.781123 77.727665 
L 195.137338 74.972493 
L 196.51617 72.151525 
L 197.91813 69.262927 
L 199.343741 66.304801 
L 200.793539 63.275182 
L 202.268075 60.172033 
L 202.268075 60.172033 
L 203.014796 58.59223 
" style="fill:none;stroke:#bfbf00;stroke-linecap:square;stroke-width:1.5;"/>
   </g>
   <g id="line2d_17">
    <path clip-path="url(#p90a1ccf2fa)" d="M 175.784322 133.146868 
L 176.848194 131.686878 
L 177.928321 130.183516 
L 179.025052 128.637446 
L 180.138741 127.049053 
L 181.269753 125.4185 
L 182.418463 123.745758 
L 183.585256 122.030637 
L 184.770525 120.27281 
L 185.974677 118.471828 
L 187.198126 116.627139 
L 188.4413 114.738094 
L 189.704636 112.803961 
L 190.988584 110.823929 
L 192.293606 108.797116 
L 193.620175 106.72257 
L 194.968778 104.599277 
L 196.339915 102.426163 
L 197.734099 100.202091 
L 199.151855 97.925869 
L 200.593725 95.596249 
L 202.060263 93.211925 
L 203.55204 90.771537 
L 205.06964 88.273668 
L 206.613665 85.716848 
L 208.18473 83.099548 
L 209.783469 80.420183 
L 211.410531 77.677112 
L 213.066585 74.868632 
L 214.752313 71.992984 
L 216.468419 69.048344 
L 216.468419 69.048344 
L 217.338089 67.549566 
L 218.215625 66.032828 
" style="fill:none;stroke:#bfbf00;stroke-linecap:square;stroke-width:1.5;"/>
   </g>
   <g id="line2d_18">
    <path clip-path="url(#p90a1ccf2fa)" d="M 177.196482 132.711692 
L 178.271533 131.961664 
L 179.362893 131.123039 
L 180.470905 130.19926 
L 181.595918 129.193699 
L 182.738294 128.109569 
L 183.898401 126.949862 
L 185.076619 125.717298 
L 186.273335 124.414312 
L 187.488949 123.043034 
L 188.723868 121.605302 
L 189.978511 120.102661 
L 191.253309 118.536384 
L 192.548703 116.907483 
L 193.865145 115.216733 
L 195.203099 113.464681 
L 196.563041 111.651672 
L 197.94546 109.777858 
L 199.350857 107.843221 
L 200.779745 105.847577 
L 202.232653 103.790596 
L 203.71012 101.671811 
L 205.212702 99.490628 
L 206.740968 97.246331 
L 208.295502 94.938096 
L 209.876903 92.564994 
L 211.485783 90.125996 
L 213.122775 87.619983 
L 214.788522 85.045744 
L 216.483688 82.401985 
L 218.208952 79.687331 
L 219.965009 76.900329 
L 221.752572 74.039448 
L 223.572373 71.103089 
L 223.572373 71.103089 
L 224.494596 69.606085 
" style="fill:none;stroke:#bfbf00;stroke-linecap:square;stroke-width:1.5;"/>
   </g>
   <g id="line2d_19">
    <path clip-path="url(#p90a1ccf2fa)" d="M 172.980438 122.651136 
L 174.038101 120.684823 
L 175.112169 118.661796 
L 176.202998 116.581025 
L 177.31095 114.441317 
L 178.436401 112.241321 
L 179.579734 109.979544 
L 180.741343 107.654356 
L 181.921633 105.263996 
L 183.121019 102.806574 
L 184.339928 100.280072 
L 185.578799 97.682348 
L 186.838081 95.01113 
L 188.118238 92.264016 
L 189.419745 89.438472 
L 190.743088 86.531827 
L 192.08877 83.541268 
L 193.457306 80.463834 
L 194.849226 77.296413 
L 196.265071 74.035731 
L 197.705403 70.678348 
L 199.170794 67.220645 
L 200.661834 63.65882 
L 202.179129 59.988874 
L 202.179129 59.988874 
L 202.947817 58.112049 
" style="fill:none;stroke:#bfbf00;stroke-linecap:square;stroke-width:1.5;"/>
   </g>
   <g id="line2d_20">
    <path clip-path="url(#p90a1ccf2fa)" d="M 173.6188 128.135472 
L 174.679926 126.385805 
L 175.757494 124.598201 
L 176.851862 122.771625 
L 177.963392 120.905009 
L 179.092459 118.99725 
L 180.239448 117.047207 
L 181.404751 115.053706 
L 182.588775 113.015532 
L 183.791934 110.931429 
L 185.014656 108.800103 
L 186.257377 106.620213 
L 187.520549 104.390376 
L 188.804633 102.109163 
L 190.110104 99.775096 
L 191.437448 97.386647 
L 192.787167 94.942237 
L 194.159773 92.440233 
L 195.555796 89.878946 
L 196.975776 87.256631 
L 198.420271 84.571481 
L 199.889853 81.821626 
L 201.385108 79.005133 
L 202.906641 76.12 
L 204.45507 73.164155 
L 206.031032 70.135453 
L 207.635179 67.031672 
L 209.268184 63.850512 
L 209.268184 63.850512 
L 210.095722 62.230174 
" style="fill:none;stroke:#bfbf00;stroke-linecap:square;stroke-width:1.5;"/>
   </g>
   <g id="line2d_21">
    <path clip-path="url(#p90a1ccf2fa)" d="M 174.211967 128.997312 
L 175.275117 127.918477 
L 176.354675 126.762843 
L 177.450994 125.53307 
L 178.564434 124.231537 
L 179.695368 122.860333 
L 180.844177 121.421248 
L 182.01125 119.915786 
L 183.196991 118.345175 
L 184.40181 116.710381 
L 185.62613 115.012123 
L 186.870386 113.250894 
L 188.135024 111.426973 
L 189.420501 109.540441 
L 190.727286 107.591199 
L 192.055862 105.578976 
L 193.406725 103.503345 
L 194.780382 101.36373 
L 196.177355 99.15942 
L 197.598181 96.889571 
L 199.04341 94.553219 
L 200.513606 92.149282 
L 202.009349 89.676567 
L 203.531236 87.133775 
L 205.079876 84.519502 
L 206.655898 81.832245 
L 208.259945 79.070405 
L 209.892678 76.232285 
L 211.554775 73.316095 
L 213.246932 70.319954 
L 214.969863 67.241888 
L 214.969863 67.241888 
L 215.843097 65.671492 
" style="fill:none;stroke:#bfbf00;stroke-linecap:square;stroke-width:1.5;"/>
   </g>
   <g id="line2d_22">
    <path clip-path="url(#p90a1ccf2fa)" d="M 175.367513 93.345773 
L 176.429587 91.250588 
L 177.507916 89.097203 
L 178.602848 86.884526 
L 179.714741 84.611381 
L 180.84396 82.276504 
L 181.990883 79.878543 
L 183.155894 77.416061 
L 184.33939 74.887532 
L 185.541778 72.291342 
L 186.763475 69.625783 
L 188.004911 66.88906 
L 189.266525 64.079278 
L 190.54877 61.194451 
L 191.85211 58.232488 
L 193.177022 55.191199 
L 193.177022 55.191199 
L 193.847719 53.640094 
" style="fill:none;stroke:#bfbf00;stroke-linecap:square;stroke-width:1.5;"/>
   </g>
   <g id="line2d_23">
    <path clip-path="url(#p90a1ccf2fa)" d="M 182.169232 117.934772 
L 183.267193 116.000039 
L 184.381451 114.021192 
L 185.512338 111.997054 
L 186.660196 109.926395 
L 187.825374 107.807932 
L 189.008229 105.640332 
L 190.20913 103.422205 
L 191.428451 101.152109 
L 192.666578 98.828541 
L 193.923906 96.449945 
L 195.200839 94.014701 
L 196.497792 91.521127 
L 197.81519 88.967477 
L 199.153468 86.351938 
L 200.513073 83.672626 
L 201.894463 80.927586 
L 203.298105 78.114784 
L 204.724481 75.232109 
L 206.174083 72.277366 
L 207.647416 69.248275 
L 209.144998 66.142464 
L 209.144998 66.142464 
L 209.903047 64.560021 
L 210.667358 62.957465 
" style="fill:none;stroke:#bfbf00;stroke-linecap:square;stroke-width:1.5;"/>
   </g>
   <g id="line2d_24">
    <path clip-path="url(#p90a1ccf2fa)" d="M 176.84076 134.678137 
L 177.91328 133.077555 
L 179.002085 131.428286 
L 180.107517 129.730863 
L 181.229928 127.985472 
L 182.369679 126.192016 
L 183.527138 124.350169 
L 184.702685 122.459413 
L 185.896708 120.519071 
L 187.109607 118.528325 
L 188.341791 116.486232 
L 189.59368 114.391741 
L 190.865704 112.243699 
L 192.158305 110.040863 
L 193.471936 107.781899 
L 194.807064 105.465391 
L 196.164164 103.089844 
L 197.543728 100.653682 
L 198.946256 98.155256 
L 200.372266 95.592837 
L 201.822286 92.964623 
L 203.296859 90.268734 
L 204.796541 87.503216 
L 206.321905 84.666035 
L 207.873536 81.755082 
L 209.452036 78.768166 
L 211.058023 75.703018 
L 212.692129 72.557284 
L 214.355004 69.328531 
L 214.355004 69.328531 
L 215.197436 67.682237 
L 216.047313 66.014237 
" style="fill:none;stroke:#bfbf00;stroke-linecap:square;stroke-width:1.5;"/>
   </g>
   <g id="line2d_25">
    <path clip-path="url(#p90a1ccf2fa)" d="M 176.547941 108.883662 
L 177.620338 107.0885 
L 178.709128 105.239313 
L 179.814659 103.335616 
L 180.937289 101.376814 
L 182.077387 99.362204 
L 183.235327 97.290985 
L 184.411499 95.162253 
L 185.606297 92.975012 
L 186.82013 90.728173 
L 188.053415 88.420554 
L 189.306581 86.050884 
L 190.580069 83.617801 
L 191.87433 81.119854 
L 193.189829 78.555505 
L 194.52704 75.923122 
L 195.886452 73.220986 
L 197.268567 70.447283 
L 198.6739 67.600106 
L 200.102978 64.677453 
L 201.556345 61.677223 
L 201.556345 61.677223 
L 202.292309 60.147331 
L 203.034555 58.597212 
" style="fill:none;stroke:#bfbf00;stroke-linecap:square;stroke-width:1.5;"/>
   </g>
   <g id="line2d_26">
    <path clip-path="url(#p90a1ccf2fa)" d="M 176.963631 124.49283 
L 178.039036 122.653384 
L 179.130799 120.771738 
L 180.239266 118.846776 
L 181.364788 116.877327 
L 182.507728 114.86217 
L 183.668456 112.800032 
L 184.847354 110.689585 
L 186.044809 108.529451 
L 187.261224 106.318196 
L 188.497008 104.05433 
L 189.752581 101.736309 
L 191.028375 99.362526 
L 192.324833 96.931317 
L 193.642408 94.440955 
L 194.981567 91.889649 
L 196.342786 89.275539 
L 197.726555 86.596698 
L 199.133376 83.851127 
L 200.563764 81.036752 
L 202.018248 78.151422 
L 203.497369 75.192907 
L 205.001683 72.158893 
L 206.531759 69.046977 
L 208.08818 65.85467 
L 208.08818 65.85467 
L 208.876457 64.227567 
L 209.671546 62.579388 
" style="fill:none;stroke:#bfbf00;stroke-linecap:square;stroke-width:1.5;"/>
   </g>
   <g id="line2d_27">
    <path clip-path="url(#p90a1ccf2fa)" d="M 177.065083 118.247253 
L 178.141945 116.869376 
L 179.235164 115.423614 
L 180.345083 113.910785 
L 181.472053 112.331527 
L 182.616435 110.686303 
L 183.778598 108.975401 
L 184.95892 107.198939 
L 186.157791 105.356875 
L 187.375609 103.449008 
L 188.612781 101.474988 
L 189.869728 99.43432 
L 191.146878 97.32637 
L 192.444673 95.150369 
L 193.763565 92.90542 
L 195.104016 90.590501 
L 196.466503 88.204469 
L 197.851513 85.746061 
L 199.259546 83.213901 
L 200.691115 80.6065 
L 202.146747 77.922255 
L 203.62698 75.159454 
L 205.132369 72.316278 
L 206.66348 69.390798 
L 208.220897 66.380975 
L 208.220897 66.380975 
L 209.009655 64.843768 
L 209.805215 63.284663 
" style="fill:none;stroke:#bfbf00;stroke-linecap:square;stroke-width:1.5;"/>
   </g>
   <g id="line2d_28">
    <path clip-path="url(#p90a1ccf2fa)" d="M 172.870415 94.947414 
L 173.923964 92.668395 
L 174.993805 90.32737 
L 176.080287 87.922837 
L 177.18377 85.4532 
L 178.304625 82.916758 
L 179.44323 80.311715 
L 180.599974 77.63617 
L 181.775257 74.888117 
L 182.969489 72.065446 
L 184.183092 69.165938 
L 185.416496 66.187258 
L 186.670148 63.126959 
L 187.944501 59.98247 
L 189.240025 56.751098 
L 189.240025 56.751098 
L 189.895875 55.101953 
L 190.557199 53.430018 
" style="fill:none;stroke:#bfbf00;stroke-linecap:square;stroke-width:1.5;"/>
   </g>
   <g id="line2d_29">
    <path clip-path="url(#p90a1ccf2fa)" d="M 172.698461 96.01311 
L 173.753465 93.633236 
L 174.824847 91.197261 
L 175.912963 88.703497 
L 177.018177 86.150193 
L 178.140863 83.535531 
L 179.281406 80.857623 
L 180.440199 78.114508 
L 181.617649 75.30415 
L 182.814172 72.424433 
L 184.030195 69.473157 
L 185.266157 66.448036 
L 186.522509 63.346694 
L 187.799715 60.166658 
L 189.09825 56.905356 
L 189.09825 56.905356 
L 189.755669 55.243398 
L 190.418604 53.560112 
" style="fill:none;stroke:#bfbf00;stroke-linecap:square;stroke-width:1.5;"/>
   </g>
   <g id="line2d_30">
    <path clip-path="url(#p90a1ccf2fa)" d="M 179.175709 85.83105 
L 180.2528 83.50915 
L 181.346058 81.138859 
L 182.455821 78.718913 
L 183.582434 76.248014 
L 184.726252 73.724821 
L 185.887641 71.147954 
L 187.066973 68.515989 
L 188.264632 65.82746 
L 189.481011 63.080854 
L 190.716513 60.274611 
L 191.971551 57.407124 
L 191.971551 57.407124 
L 192.606529 55.949897 
L 193.24655 54.476734 
" style="fill:none;stroke:#bfbf00;stroke-linecap:square;stroke-width:1.5;"/>
   </g>
   <g id="line2d_31">
    <path clip-path="url(#p90a1ccf2fa)" d="M 184.005048 122.736838 
L 185.113699 121.182572 
L 186.23871 119.57745 
L 187.380413 117.921811 
L 188.539147 116.215812 
L 189.715258 114.459443 
L 190.909102 112.652545 
L 192.121042 110.794823 
L 193.351452 108.885857 
L 194.600712 106.925113 
L 195.869214 104.911952 
L 197.157358 102.845635 
L 198.465554 100.725332 
L 199.794221 98.550122 
L 201.14379 96.319006 
L 202.514702 94.0309 
L 203.907406 91.684647 
L 205.322365 89.279013 
L 206.760052 86.812692 
L 208.220951 84.284306 
L 209.705557 81.692407 
L 211.214378 79.035476 
L 212.747935 76.311928 
L 214.306758 73.520104 
L 215.891392 70.658279 
L 217.502395 67.724658 
L 217.502395 67.724658 
L 218.317962 66.230343 
" style="fill:none;stroke:#bfbf00;stroke-linecap:square;stroke-width:1.5;"/>
   </g>
   <g id="line2d_32">
    <path clip-path="url(#p90a1ccf2fa)" d="M 175.698999 111.100421 
L 176.771548 109.368181 
L 177.860596 107.580092 
L 178.966497 105.735838 
L 180.089612 103.834975 
L 181.230313 101.876938 
L 182.388982 99.861046 
L 183.56601 97.786505 
L 184.761799 95.652414 
L 185.97676 93.457768 
L 187.211318 91.201457 
L 188.465906 88.882272 
L 189.740971 86.498906 
L 191.036969 84.04995 
L 192.354372 81.533901 
L 193.693661 78.949153 
L 195.055331 76.294005 
L 196.43989 73.566653 
L 197.847862 70.765191 
L 199.27978 67.88761 
L 200.736195 64.931793 
L 202.217672 61.895517 
L 202.217672 61.895517 
L 202.967989 60.34648 
L 203.724791 58.776442 
" style="fill:none;stroke:#bfbf00;stroke-linecap:square;stroke-width:1.5;"/>
   </g>
   <g id="line2d_33">
    <path clip-path="url(#p90a1ccf2fa)" d="M 177.962159 91.288854 
L 179.038082 89.23199 
L 180.130306 87.120177 
L 181.239176 84.952484 
L 182.365044 82.727911 
L 183.508271 80.445389 
L 184.66923 78.103777 
L 185.8483 75.701869 
L 187.045873 73.238388 
L 188.262349 70.71199 
L 189.49814 68.121259 
L 190.753667 65.464712 
L 192.029364 62.740795 
L 193.325676 59.947881 
L 194.643058 57.084273 
L 194.643058 57.084273 
L 195.309796 55.625407 
" style="fill:none;stroke:#bfbf00;stroke-linecap:square;stroke-width:1.5;"/>
   </g>
   <g id="line2d_34">
    <path clip-path="url(#p90a1ccf2fa)" d="M 179.229575 103.43556 
L 180.316529 101.721362 
L 181.419833 99.946953 
L 182.539826 98.112012 
L 183.676854 96.216117 
L 184.831271 94.258743 
L 186.003443 92.239267 
L 187.193742 90.156972 
L 188.40255 88.011043 
L 189.630259 85.800573 
L 190.877271 83.524567 
L 192.143997 81.181935 
L 193.430859 78.771504 
L 194.73829 76.292009 
L 196.066733 73.742101 
L 197.416643 71.120345 
L 198.788484 68.42522 
L 200.182734 65.655121 
L 201.599884 62.808356 
L 201.599884 62.808356 
L 202.317201 61.355672 
L 203.040433 59.88315 
" style="fill:none;stroke:#bfbf00;stroke-linecap:square;stroke-width:1.5;"/>
   </g>
   <g id="line2d_35">
    <path clip-path="url(#p90a1ccf2fa)" d="M 180.715065 86.667279 
L 181.812273 84.525631 
L 182.92588 82.323386 
L 184.056222 80.059566 
L 185.20364 77.733117 
L 186.368487 75.342912 
L 187.551121 72.88775 
L 188.751912 70.366359 
L 189.971235 67.777393 
L 191.209479 65.119435 
L 192.467039 62.390996 
L 193.74432 59.590512 
L 195.041738 56.716348 
L 195.041738 56.716348 
L 195.698131 55.251105 
" style="fill:none;stroke:#bfbf00;stroke-linecap:square;stroke-width:1.5;"/>
   </g>
   <g id="line2d_36">
    <path clip-path="url(#p90a1ccf2fa)" d="M 177.911628 109.872414 
L 178.983138 108.02191 
L 180.070833 106.131778 
L 181.175053 104.201301 
L 182.29615 102.22972 
L 183.434481 100.216238 
L 184.590415 98.160019 
L 185.764329 96.060192 
L 186.956612 93.915847 
L 188.167661 91.726041 
L 189.397884 89.489797 
L 190.6477 87.2061 
L 191.917539 84.873906 
L 193.207841 82.492134 
L 194.519061 80.059669 
L 195.851661 77.575365 
L 197.20612 75.03804 
L 198.582927 72.446479 
L 199.982584 69.799436 
L 201.405607 67.095627 
L 202.852525 64.333738 
L 204.323881 61.512419 
L 204.323881 61.512419 
L 205.068898 60.079042 
" style="fill:none;stroke:#bfbf00;stroke-linecap:square;stroke-width:1.5;"/>
   </g>
   <g id="line2d_37">
    <path clip-path="url(#p90a1ccf2fa)" d="M 171.067516 113.449467 
L 172.100268 111.440139 
L 173.14901 109.38608 
L 174.21409 107.286026 
L 175.295866 105.138672 
L 176.394708 102.94267 
L 177.510992 100.696626 
L 178.645108 98.399099 
L 179.797455 96.048598 
L 180.968442 93.643582 
L 182.158493 91.18246 
L 183.36804 88.663582 
L 184.597529 86.085245 
L 185.847417 83.445687 
L 187.118175 80.743084 
L 188.410288 77.975549 
L 189.724252 75.141131 
L 191.06058 72.237812 
L 192.419797 69.263501 
L 193.802444 66.216036 
L 195.209079 63.093181 
L 196.640272 59.892619 
L 196.640272 59.892619 
L 197.365262 58.262452 
L 198.096613 56.611954 
" style="fill:none;stroke:#bfbf00;stroke-linecap:square;stroke-width:1.5;"/>
   </g>
   <g id="line2d_38">
    <path clip-path="url(#p90a1ccf2fa)" d="M 171.644697 44.443636 
L 192.152764 54.595381 
L 221.383002 69.354877 
L 249.054545 83.321412 
L 249.054545 83.321412 
" style="fill:none;stroke:#008000;stroke-linecap:square;stroke-width:1.5;"/>
   </g>
   <g id="patch_3">
    <path d="M 36 252 
L 36 34.56 
" style="fill:none;stroke:#000000;stroke-linecap:square;stroke-linejoin:miter;stroke-width:0.8;"/>
   </g>
   <g id="patch_4">
    <path d="M 259.2 252 
L 259.2 34.56 
" style="fill:none;stroke:#000000;stroke-linecap:square;stroke-linejoin:miter;stroke-width:0.8;"/>
   </g>
   <g id="patch_5">
    <path d="M 36 252 
L 259.2 252 
" style="fill:none;stroke:#000000;stroke-linecap:square;stroke-linejoin:miter;stroke-width:0.8;"/>
   </g>
   <g id="patch_6">
    <path d="M 36 34.56 
L 259.2 34.56 
" style="fill:none;stroke:#000000;stroke-linecap:square;stroke-linejoin:miter;stroke-width:0.8;"/>
   </g>
   <g id="text_13">
    <!--  0.79 -->
    <defs>
     <path id="DejaVuSans-32"/>
     <path d="M 8.203125 72.90625 
L 55.078125 72.90625 
L 55.078125 68.703125 
L 28.609375 0 
L 18.3125 0 
L 43.21875 64.59375 
L 8.203125 64.59375 
z
" id="DejaVuSans-55"/>
     <path d="M 10.984375 1.515625 
L 10.984375 10.5 
Q 14.703125 8.734375 18.5 7.8125 
Q 22.3125 6.890625 25.984375 6.890625 
Q 35.75 6.890625 40.890625 13.453125 
Q 46.046875 20.015625 46.78125 33.40625 
Q 43.953125 29.203125 39.59375 26.953125 
Q 35.25 24.703125 29.984375 24.703125 
Q 19.046875 24.703125 12.671875 31.3125 
Q 6.296875 37.9375 6.296875 49.421875 
Q 6.296875 60.640625 12.9375 67.421875 
Q 19.578125 74.21875 30.609375 74.21875 
Q 43.265625 74.21875 49.921875 64.515625 
Q 56.59375 54.828125 56.59375 36.375 
Q 56.59375 19.140625 48.40625 8.859375 
Q 40.234375 -1.421875 26.421875 -1.421875 
Q 22.703125 -1.421875 18.890625 -0.6875 
Q 15.09375 0.046875 10.984375 1.515625 
z
M 30.609375 32.421875 
Q 37.25 32.421875 41.125 36.953125 
Q 45.015625 41.5 45.015625 49.421875 
Q 45.015625 57.28125 41.125 61.84375 
Q 37.25 66.40625 30.609375 66.40625 
Q 23.96875 66.40625 20.09375 61.84375 
Q 16.21875 57.28125 16.21875 49.421875 
Q 16.21875 41.5 20.09375 36.953125 
Q 23.96875 32.421875 30.609375 32.421875 
z
" id="DejaVuSans-57"/>
    </defs>
    <g transform="translate(204.508201 59.385958)scale(0.1 -0.1)">
     <use xlink:href="#DejaVuSans-32"/>
     <use x="31.787109" xlink:href="#DejaVuSans-48"/>
     <use x="95.410156" xlink:href="#DejaVuSans-46"/>
     <use x="127.197266" xlink:href="#DejaVuSans-55"/>
     <use x="190.820312" xlink:href="#DejaVuSans-57"/>
    </g>
   </g>
   <g id="text_14">
    <!--  f=1 -->
    <defs>
     <path d="M 37.109375 75.984375 
L 37.109375 68.5 
L 28.515625 68.5 
Q 23.6875 68.5 21.796875 66.546875 
Q 19.921875 64.59375 19.921875 59.515625 
L 19.921875 54.6875 
L 34.71875 54.6875 
L 34.71875 47.703125 
L 19.921875 47.703125 
L 19.921875 0 
L 10.890625 0 
L 10.890625 47.703125 
L 2.296875 47.703125 
L 2.296875 54.6875 
L 10.890625 54.6875 
L 10.890625 58.5 
Q 10.890625 67.625 15.140625 71.796875 
Q 19.390625 75.984375 28.609375 75.984375 
z
" id="DejaVuSans-102"/>
     <path d="M 10.59375 45.40625 
L 73.1875 45.40625 
L 73.1875 37.203125 
L 10.59375 37.203125 
z
M 10.59375 25.484375 
L 73.1875 25.484375 
L 73.1875 17.1875 
L 10.59375 17.1875 
z
" id="DejaVuSans-61"/>
    </defs>
    <g transform="translate(168.509994 113.536012)scale(0.1 -0.1)">
     <use xlink:href="#DejaVuSans-32"/>
     <use x="31.787109" xlink:href="#DejaVuSans-102"/>
     <use x="66.992188" xlink:href="#DejaVuSans-61"/>
     <use x="150.78125" xlink:href="#DejaVuSans-49"/>
    </g>
   </g>
  </g>
 </g>
 <defs>
  <clipPath id="p90a1ccf2fa">
   <rect height="217.44" width="223.2" x="36" y="34.56"/>
  </clipPath>
 </defs>
</svg>
