<?xml version="1.0" encoding="utf-8" standalone="no"?>
<!DOCTYPE svg PUBLIC "-//W3C//DTD SVG 1.1//EN"
  "http://www.w3.org/Graphics/SVG/1.1/DTD/svg11.dtd">
<!-- Created with matplotlib (https://matplotlib.org/) -->
<svg height="288pt" version="1.1" viewBox="0 0 288 288" width="288pt" xmlns="http://www.w3.org/2000/svg" xmlns:xlink="http://www.w3.org/1999/xlink">
 <defs>
  <style type="text/css">
*{stroke-linecap:butt;stroke-linejoin:round;}
  </style>
 </defs>
 <g id="figure_1">
  <g id="patch_1">
   <path d="M 0 288 
L 288 288 
L 288 0 
L 0 0 
z
" style="fill:#ffffff;"/>
  </g>
  <g id="axes_1">
   <g id="patch_2">
    <path d="M 36 252 
L 259.2 252 
L 259.2 34.56 
L 36 34.56 
z
" style="fill:#ffffff;"/>
   </g>
   <g id="matplotlib.axis_1">
    <g id="xtick_1">
     <g id="line2d_1">
      <defs>
       <path d="M 0 0 
L 0 3.5 
" id="mf6d1daa94f" style="stroke:#000000;stroke-width:0.8;"/>
      </defs>
      <g>
       <use style="stroke:#000000;stroke-width:0.8;" x="84.356361" xlink:href="#mf6d1daa94f" y="252"/>
      </g>
     </g>
     <g id="text_1">
      <!-- 30 -->
      <defs>
       <path d="M 40.578125 39.3125 
Q 47.65625 37.796875 51.625 33 
Q 55.609375 28.21875 55.609375 21.1875 
Q 55.609375 10.40625 48.1875 4.484375 
Q 40.765625 -1.421875 27.09375 -1.421875 
Q 22.515625 -1.421875 17.65625 -0.515625 
Q 12.796875 0.390625 7.625 2.203125 
L 7.625 11.71875 
Q 11.71875 9.328125 16.59375 8.109375 
Q 21.484375 6.890625 26.8125 6.890625 
Q 36.078125 6.890625 40.9375 10.546875 
Q 45.796875 14.203125 45.796875 21.1875 
Q 45.796875 27.640625 41.28125 31.265625 
Q 36.765625 34.90625 28.71875 34.90625 
L 20.21875 34.90625 
L 20.21875 43.015625 
L 29.109375 43.015625 
Q 36.375 43.015625 40.234375 45.921875 
Q 44.09375 48.828125 44.09375 54.296875 
Q 44.09375 59.90625 40.109375 62.90625 
Q 36.140625 65.921875 28.71875 65.921875 
Q 24.65625 65.921875 20.015625 65.03125 
Q 15.375 64.15625 9.8125 62.3125 
L 9.8125 71.09375 
Q 15.4375 72.65625 20.34375 73.4375 
Q 25.25 74.21875 29.59375 74.21875 
Q 40.828125 74.21875 47.359375 69.109375 
Q 53.90625 64.015625 53.90625 55.328125 
Q 53.90625 49.265625 50.4375 45.09375 
Q 46.96875 40.921875 40.578125 39.3125 
z
" id="DejaVuSans-51"/>
       <path d="M 31.78125 66.40625 
Q 24.171875 66.40625 20.328125 58.90625 
Q 16.5 51.421875 16.5 36.375 
Q 16.5 21.390625 20.328125 13.890625 
Q 24.171875 6.390625 31.78125 6.390625 
Q 39.453125 6.390625 43.28125 13.890625 
Q 47.125 21.390625 47.125 36.375 
Q 47.125 51.421875 43.28125 58.90625 
Q 39.453125 66.40625 31.78125 66.40625 
z
M 31.78125 74.21875 
Q 44.046875 74.21875 50.515625 64.515625 
Q 56.984375 54.828125 56.984375 36.375 
Q 56.984375 17.96875 50.515625 8.265625 
Q 44.046875 -1.421875 31.78125 -1.421875 
Q 19.53125 -1.421875 13.0625 8.265625 
Q 6.59375 17.96875 6.59375 36.375 
Q 6.59375 54.828125 13.0625 64.515625 
Q 19.53125 74.21875 31.78125 74.21875 
z
" id="DejaVuSans-48"/>
      </defs>
      <g transform="translate(77.993861 266.598437)scale(0.1 -0.1)">
       <use xlink:href="#DejaVuSans-51"/>
       <use x="63.623047" xlink:href="#DejaVuSans-48"/>
      </g>
     </g>
    </g>
    <g id="xtick_2">
     <g id="line2d_2">
      <g>
       <use style="stroke:#000000;stroke-width:0.8;" x="139.747738" xlink:href="#mf6d1daa94f" y="252"/>
      </g>
     </g>
     <g id="text_2">
      <!-- 35 -->
      <defs>
       <path d="M 10.796875 72.90625 
L 49.515625 72.90625 
L 49.515625 64.59375 
L 19.828125 64.59375 
L 19.828125 46.734375 
Q 21.96875 47.46875 24.109375 47.828125 
Q 26.265625 48.1875 28.421875 48.1875 
Q 40.625 48.1875 47.75 41.5 
Q 54.890625 34.8125 54.890625 23.390625 
Q 54.890625 11.625 47.5625 5.09375 
Q 40.234375 -1.421875 26.90625 -1.421875 
Q 22.3125 -1.421875 17.546875 -0.640625 
Q 12.796875 0.140625 7.71875 1.703125 
L 7.71875 11.625 
Q 12.109375 9.234375 16.796875 8.0625 
Q 21.484375 6.890625 26.703125 6.890625 
Q 35.15625 6.890625 40.078125 11.328125 
Q 45.015625 15.765625 45.015625 23.390625 
Q 45.015625 31 40.078125 35.4375 
Q 35.15625 39.890625 26.703125 39.890625 
Q 22.75 39.890625 18.8125 39.015625 
Q 14.890625 38.140625 10.796875 36.28125 
z
" id="DejaVuSans-53"/>
      </defs>
      <g transform="translate(133.385238 266.598437)scale(0.1 -0.1)">
       <use xlink:href="#DejaVuSans-51"/>
       <use x="63.623047" xlink:href="#DejaVuSans-53"/>
      </g>
     </g>
    </g>
    <g id="xtick_3">
     <g id="line2d_3">
      <g>
       <use style="stroke:#000000;stroke-width:0.8;" x="195.139115" xlink:href="#mf6d1daa94f" y="252"/>
      </g>
     </g>
     <g id="text_3">
      <!-- 40 -->
      <defs>
       <path d="M 37.796875 64.3125 
L 12.890625 25.390625 
L 37.796875 25.390625 
z
M 35.203125 72.90625 
L 47.609375 72.90625 
L 47.609375 25.390625 
L 58.015625 25.390625 
L 58.015625 17.1875 
L 47.609375 17.1875 
L 47.609375 0 
L 37.796875 0 
L 37.796875 17.1875 
L 4.890625 17.1875 
L 4.890625 26.703125 
z
" id="DejaVuSans-52"/>
      </defs>
      <g transform="translate(188.776615 266.598437)scale(0.1 -0.1)">
       <use xlink:href="#DejaVuSans-52"/>
       <use x="63.623047" xlink:href="#DejaVuSans-48"/>
      </g>
     </g>
    </g>
    <g id="xtick_4">
     <g id="line2d_4">
      <g>
       <use style="stroke:#000000;stroke-width:0.8;" x="250.530492" xlink:href="#mf6d1daa94f" y="252"/>
      </g>
     </g>
     <g id="text_4">
      <!-- 45 -->
      <g transform="translate(244.167992 266.598437)scale(0.1 -0.1)">
       <use xlink:href="#DejaVuSans-52"/>
       <use x="63.623047" xlink:href="#DejaVuSans-53"/>
      </g>
     </g>
    </g>
    <g id="text_5">
     <!-- Inclination -->
     <defs>
      <path d="M 9.8125 72.90625 
L 19.671875 72.90625 
L 19.671875 0 
L 9.8125 0 
z
" id="DejaVuSans-73"/>
      <path d="M 54.890625 33.015625 
L 54.890625 0 
L 45.90625 0 
L 45.90625 32.71875 
Q 45.90625 40.484375 42.875 44.328125 
Q 39.84375 48.1875 33.796875 48.1875 
Q 26.515625 48.1875 22.3125 43.546875 
Q 18.109375 38.921875 18.109375 30.90625 
L 18.109375 0 
L 9.078125 0 
L 9.078125 54.6875 
L 18.109375 54.6875 
L 18.109375 46.1875 
Q 21.34375 51.125 25.703125 53.5625 
Q 30.078125 56 35.796875 56 
Q 45.21875 56 50.046875 50.171875 
Q 54.890625 44.34375 54.890625 33.015625 
z
" id="DejaVuSans-110"/>
      <path d="M 48.78125 52.59375 
L 48.78125 44.1875 
Q 44.96875 46.296875 41.140625 47.34375 
Q 37.3125 48.390625 33.40625 48.390625 
Q 24.65625 48.390625 19.8125 42.84375 
Q 14.984375 37.3125 14.984375 27.296875 
Q 14.984375 17.28125 19.8125 11.734375 
Q 24.65625 6.203125 33.40625 6.203125 
Q 37.3125 6.203125 41.140625 7.25 
Q 44.96875 8.296875 48.78125 10.40625 
L 48.78125 2.09375 
Q 45.015625 0.34375 40.984375 -0.53125 
Q 36.96875 -1.421875 32.421875 -1.421875 
Q 20.0625 -1.421875 12.78125 6.34375 
Q 5.515625 14.109375 5.515625 27.296875 
Q 5.515625 40.671875 12.859375 48.328125 
Q 20.21875 56 33.015625 56 
Q 37.15625 56 41.109375 55.140625 
Q 45.0625 54.296875 48.78125 52.59375 
z
" id="DejaVuSans-99"/>
      <path d="M 9.421875 75.984375 
L 18.40625 75.984375 
L 18.40625 0 
L 9.421875 0 
z
" id="DejaVuSans-108"/>
      <path d="M 9.421875 54.6875 
L 18.40625 54.6875 
L 18.40625 0 
L 9.421875 0 
z
M 9.421875 75.984375 
L 18.40625 75.984375 
L 18.40625 64.59375 
L 9.421875 64.59375 
z
" id="DejaVuSans-105"/>
      <path d="M 34.28125 27.484375 
Q 23.390625 27.484375 19.1875 25 
Q 14.984375 22.515625 14.984375 16.5 
Q 14.984375 11.71875 18.140625 8.90625 
Q 21.296875 6.109375 26.703125 6.109375 
Q 34.1875 6.109375 38.703125 11.40625 
Q 43.21875 16.703125 43.21875 25.484375 
L 43.21875 27.484375 
z
M 52.203125 31.203125 
L 52.203125 0 
L 43.21875 0 
L 43.21875 8.296875 
Q 40.140625 3.328125 35.546875 0.953125 
Q 30.953125 -1.421875 24.3125 -1.421875 
Q 15.921875 -1.421875 10.953125 3.296875 
Q 6 8.015625 6 15.921875 
Q 6 25.140625 12.171875 29.828125 
Q 18.359375 34.515625 30.609375 34.515625 
L 43.21875 34.515625 
L 43.21875 35.40625 
Q 43.21875 41.609375 39.140625 45 
Q 35.0625 48.390625 27.6875 48.390625 
Q 23 48.390625 18.546875 47.265625 
Q 14.109375 46.140625 10.015625 43.890625 
L 10.015625 52.203125 
Q 14.9375 54.109375 19.578125 55.046875 
Q 24.21875 56 28.609375 56 
Q 40.484375 56 46.34375 49.84375 
Q 52.203125 43.703125 52.203125 31.203125 
z
" id="DejaVuSans-97"/>
      <path d="M 18.3125 70.21875 
L 18.3125 54.6875 
L 36.8125 54.6875 
L 36.8125 47.703125 
L 18.3125 47.703125 
L 18.3125 18.015625 
Q 18.3125 11.328125 20.140625 9.421875 
Q 21.96875 7.515625 27.59375 7.515625 
L 36.8125 7.515625 
L 36.8125 0 
L 27.59375 0 
Q 17.1875 0 13.234375 3.875 
Q 9.28125 7.765625 9.28125 18.015625 
L 9.28125 47.703125 
L 2.6875 47.703125 
L 2.6875 54.6875 
L 9.28125 54.6875 
L 9.28125 70.21875 
z
" id="DejaVuSans-116"/>
      <path d="M 30.609375 48.390625 
Q 23.390625 48.390625 19.1875 42.75 
Q 14.984375 37.109375 14.984375 27.296875 
Q 14.984375 17.484375 19.15625 11.84375 
Q 23.34375 6.203125 30.609375 6.203125 
Q 37.796875 6.203125 41.984375 11.859375 
Q 46.1875 17.53125 46.1875 27.296875 
Q 46.1875 37.015625 41.984375 42.703125 
Q 37.796875 48.390625 30.609375 48.390625 
z
M 30.609375 56 
Q 42.328125 56 49.015625 48.375 
Q 55.71875 40.765625 55.71875 27.296875 
Q 55.71875 13.875 49.015625 6.21875 
Q 42.328125 -1.421875 30.609375 -1.421875 
Q 18.84375 -1.421875 12.171875 6.21875 
Q 5.515625 13.875 5.515625 27.296875 
Q 5.515625 40.765625 12.171875 48.375 
Q 18.84375 56 30.609375 56 
z
" id="DejaVuSans-111"/>
     </defs>
     <g transform="translate(121.61875 280.276563)scale(0.1 -0.1)">
      <use xlink:href="#DejaVuSans-73"/>
      <use x="29.492188" xlink:href="#DejaVuSans-110"/>
      <use x="92.871094" xlink:href="#DejaVuSans-99"/>
      <use x="147.851562" xlink:href="#DejaVuSans-108"/>
      <use x="175.634766" xlink:href="#DejaVuSans-105"/>
      <use x="203.417969" xlink:href="#DejaVuSans-110"/>
      <use x="266.796875" xlink:href="#DejaVuSans-97"/>
      <use x="328.076172" xlink:href="#DejaVuSans-116"/>
      <use x="367.285156" xlink:href="#DejaVuSans-105"/>
      <use x="395.068359" xlink:href="#DejaVuSans-111"/>
      <use x="456.25" xlink:href="#DejaVuSans-110"/>
     </g>
    </g>
   </g>
   <g id="matplotlib.axis_2">
    <g id="ytick_1">
     <g id="line2d_5">
      <defs>
       <path d="M 0 0 
L -3.5 0 
" id="m6d570ab96b" style="stroke:#000000;stroke-width:0.8;"/>
      </defs>
      <g>
       <use style="stroke:#000000;stroke-width:0.8;" x="36" xlink:href="#m6d570ab96b" y="236.81494"/>
      </g>
     </g>
     <g id="text_6">
      <!-- 1.2 -->
      <defs>
       <path d="M 12.40625 8.296875 
L 28.515625 8.296875 
L 28.515625 63.921875 
L 10.984375 60.40625 
L 10.984375 69.390625 
L 28.421875 72.90625 
L 38.28125 72.90625 
L 38.28125 8.296875 
L 54.390625 8.296875 
L 54.390625 0 
L 12.40625 0 
z
" id="DejaVuSans-49"/>
       <path d="M 10.6875 12.40625 
L 21 12.40625 
L 21 0 
L 10.6875 0 
z
" id="DejaVuSans-46"/>
       <path d="M 19.1875 8.296875 
L 53.609375 8.296875 
L 53.609375 0 
L 7.328125 0 
L 7.328125 8.296875 
Q 12.9375 14.109375 22.625 23.890625 
Q 32.328125 33.6875 34.8125 36.53125 
Q 39.546875 41.84375 41.421875 45.53125 
Q 43.3125 49.21875 43.3125 52.78125 
Q 43.3125 58.59375 39.234375 62.25 
Q 35.15625 65.921875 28.609375 65.921875 
Q 23.96875 65.921875 18.8125 64.3125 
Q 13.671875 62.703125 7.8125 59.421875 
L 7.8125 69.390625 
Q 13.765625 71.78125 18.9375 73 
Q 24.125 74.21875 28.421875 74.21875 
Q 39.75 74.21875 46.484375 68.546875 
Q 53.21875 62.890625 53.21875 53.421875 
Q 53.21875 48.921875 51.53125 44.890625 
Q 49.859375 40.875 45.40625 35.40625 
Q 44.1875 33.984375 37.640625 27.21875 
Q 31.109375 20.453125 19.1875 8.296875 
z
" id="DejaVuSans-50"/>
      </defs>
      <g transform="translate(13.096875 240.614158)scale(0.1 -0.1)">
       <use xlink:href="#DejaVuSans-49"/>
       <use x="63.623047" xlink:href="#DejaVuSans-46"/>
       <use x="95.410156" xlink:href="#DejaVuSans-50"/>
      </g>
     </g>
    </g>
    <g id="ytick_2">
     <g id="line2d_6">
      <g>
       <use style="stroke:#000000;stroke-width:0.8;" x="36" xlink:href="#m6d570ab96b" y="202.361928"/>
      </g>
     </g>
     <g id="text_7">
      <!-- 1.4 -->
      <g transform="translate(13.096875 206.161146)scale(0.1 -0.1)">
       <use xlink:href="#DejaVuSans-49"/>
       <use x="63.623047" xlink:href="#DejaVuSans-46"/>
       <use x="95.410156" xlink:href="#DejaVuSans-52"/>
      </g>
     </g>
    </g>
    <g id="ytick_3">
     <g id="line2d_7">
      <g>
       <use style="stroke:#000000;stroke-width:0.8;" x="36" xlink:href="#m6d570ab96b" y="167.908915"/>
      </g>
     </g>
     <g id="text_8">
      <!-- 1.6 -->
      <defs>
       <path d="M 33.015625 40.375 
Q 26.375 40.375 22.484375 35.828125 
Q 18.609375 31.296875 18.609375 23.390625 
Q 18.609375 15.53125 22.484375 10.953125 
Q 26.375 6.390625 33.015625 6.390625 
Q 39.65625 6.390625 43.53125 10.953125 
Q 47.40625 15.53125 47.40625 23.390625 
Q 47.40625 31.296875 43.53125 35.828125 
Q 39.65625 40.375 33.015625 40.375 
z
M 52.59375 71.296875 
L 52.59375 62.3125 
Q 48.875 64.0625 45.09375 64.984375 
Q 41.3125 65.921875 37.59375 65.921875 
Q 27.828125 65.921875 22.671875 59.328125 
Q 17.53125 52.734375 16.796875 39.40625 
Q 19.671875 43.65625 24.015625 45.921875 
Q 28.375 48.1875 33.59375 48.1875 
Q 44.578125 48.1875 50.953125 41.515625 
Q 57.328125 34.859375 57.328125 23.390625 
Q 57.328125 12.15625 50.6875 5.359375 
Q 44.046875 -1.421875 33.015625 -1.421875 
Q 20.359375 -1.421875 13.671875 8.265625 
Q 6.984375 17.96875 6.984375 36.375 
Q 6.984375 53.65625 15.1875 63.9375 
Q 23.390625 74.21875 37.203125 74.21875 
Q 40.921875 74.21875 44.703125 73.484375 
Q 48.484375 72.75 52.59375 71.296875 
z
" id="DejaVuSans-54"/>
      </defs>
      <g transform="translate(13.096875 171.708134)scale(0.1 -0.1)">
       <use xlink:href="#DejaVuSans-49"/>
       <use x="63.623047" xlink:href="#DejaVuSans-46"/>
       <use x="95.410156" xlink:href="#DejaVuSans-54"/>
      </g>
     </g>
    </g>
    <g id="ytick_4">
     <g id="line2d_8">
      <g>
       <use style="stroke:#000000;stroke-width:0.8;" x="36" xlink:href="#m6d570ab96b" y="133.455903"/>
      </g>
     </g>
     <g id="text_9">
      <!-- 1.8 -->
      <defs>
       <path d="M 31.78125 34.625 
Q 24.75 34.625 20.71875 30.859375 
Q 16.703125 27.09375 16.703125 20.515625 
Q 16.703125 13.921875 20.71875 10.15625 
Q 24.75 6.390625 31.78125 6.390625 
Q 38.8125 6.390625 42.859375 10.171875 
Q 46.921875 13.96875 46.921875 20.515625 
Q 46.921875 27.09375 42.890625 30.859375 
Q 38.875 34.625 31.78125 34.625 
z
M 21.921875 38.8125 
Q 15.578125 40.375 12.03125 44.71875 
Q 8.5 49.078125 8.5 55.328125 
Q 8.5 64.0625 14.71875 69.140625 
Q 20.953125 74.21875 31.78125 74.21875 
Q 42.671875 74.21875 48.875 69.140625 
Q 55.078125 64.0625 55.078125 55.328125 
Q 55.078125 49.078125 51.53125 44.71875 
Q 48 40.375 41.703125 38.8125 
Q 48.828125 37.15625 52.796875 32.3125 
Q 56.78125 27.484375 56.78125 20.515625 
Q 56.78125 9.90625 50.3125 4.234375 
Q 43.84375 -1.421875 31.78125 -1.421875 
Q 19.734375 -1.421875 13.25 4.234375 
Q 6.78125 9.90625 6.78125 20.515625 
Q 6.78125 27.484375 10.78125 32.3125 
Q 14.796875 37.15625 21.921875 38.8125 
z
M 18.3125 54.390625 
Q 18.3125 48.734375 21.84375 45.5625 
Q 25.390625 42.390625 31.78125 42.390625 
Q 38.140625 42.390625 41.71875 45.5625 
Q 45.3125 48.734375 45.3125 54.390625 
Q 45.3125 60.0625 41.71875 63.234375 
Q 38.140625 66.40625 31.78125 66.40625 
Q 25.390625 66.40625 21.84375 63.234375 
Q 18.3125 60.0625 18.3125 54.390625 
z
" id="DejaVuSans-56"/>
      </defs>
      <g transform="translate(13.096875 137.255122)scale(0.1 -0.1)">
       <use xlink:href="#DejaVuSans-49"/>
       <use x="63.623047" xlink:href="#DejaVuSans-46"/>
       <use x="95.410156" xlink:href="#DejaVuSans-56"/>
      </g>
     </g>
    </g>
    <g id="ytick_5">
     <g id="line2d_9">
      <g>
       <use style="stroke:#000000;stroke-width:0.8;" x="36" xlink:href="#m6d570ab96b" y="99.002891"/>
      </g>
     </g>
     <g id="text_10">
      <!-- 2.0 -->
      <g transform="translate(13.096875 102.80211)scale(0.1 -0.1)">
       <use xlink:href="#DejaVuSans-50"/>
       <use x="63.623047" xlink:href="#DejaVuSans-46"/>
       <use x="95.410156" xlink:href="#DejaVuSans-48"/>
      </g>
     </g>
    </g>
    <g id="ytick_6">
     <g id="line2d_10">
      <g>
       <use style="stroke:#000000;stroke-width:0.8;" x="36" xlink:href="#m6d570ab96b" y="64.549879"/>
      </g>
     </g>
     <g id="text_11">
      <!-- 2.2 -->
      <g transform="translate(13.096875 68.349098)scale(0.1 -0.1)">
       <use xlink:href="#DejaVuSans-50"/>
       <use x="63.623047" xlink:href="#DejaVuSans-46"/>
       <use x="95.410156" xlink:href="#DejaVuSans-50"/>
      </g>
     </g>
    </g>
    <g id="text_12">
     <!-- Elongation -->
     <defs>
      <path d="M 9.8125 72.90625 
L 55.90625 72.90625 
L 55.90625 64.59375 
L 19.671875 64.59375 
L 19.671875 43.015625 
L 54.390625 43.015625 
L 54.390625 34.71875 
L 19.671875 34.71875 
L 19.671875 8.296875 
L 56.78125 8.296875 
L 56.78125 0 
L 9.8125 0 
z
" id="DejaVuSans-69"/>
      <path d="M 45.40625 27.984375 
Q 45.40625 37.75 41.375 43.109375 
Q 37.359375 48.484375 30.078125 48.484375 
Q 22.859375 48.484375 18.828125 43.109375 
Q 14.796875 37.75 14.796875 27.984375 
Q 14.796875 18.265625 18.828125 12.890625 
Q 22.859375 7.515625 30.078125 7.515625 
Q 37.359375 7.515625 41.375 12.890625 
Q 45.40625 18.265625 45.40625 27.984375 
z
M 54.390625 6.78125 
Q 54.390625 -7.171875 48.1875 -13.984375 
Q 42 -20.796875 29.203125 -20.796875 
Q 24.46875 -20.796875 20.265625 -20.09375 
Q 16.0625 -19.390625 12.109375 -17.921875 
L 12.109375 -9.1875 
Q 16.0625 -11.328125 19.921875 -12.34375 
Q 23.78125 -13.375 27.78125 -13.375 
Q 36.625 -13.375 41.015625 -8.765625 
Q 45.40625 -4.15625 45.40625 5.171875 
L 45.40625 9.625 
Q 42.625 4.78125 38.28125 2.390625 
Q 33.9375 0 27.875 0 
Q 17.828125 0 11.671875 7.65625 
Q 5.515625 15.328125 5.515625 27.984375 
Q 5.515625 40.671875 11.671875 48.328125 
Q 17.828125 56 27.875 56 
Q 33.9375 56 38.28125 53.609375 
Q 42.625 51.21875 45.40625 46.390625 
L 45.40625 54.6875 
L 54.390625 54.6875 
z
" id="DejaVuSans-103"/>
     </defs>
     <g transform="translate(7.017187 169.872187)rotate(-90)scale(0.1 -0.1)">
      <use xlink:href="#DejaVuSans-69"/>
      <use x="63.183594" xlink:href="#DejaVuSans-108"/>
      <use x="90.966797" xlink:href="#DejaVuSans-111"/>
      <use x="152.148438" xlink:href="#DejaVuSans-110"/>
      <use x="215.527344" xlink:href="#DejaVuSans-103"/>
      <use x="279.003906" xlink:href="#DejaVuSans-97"/>
      <use x="340.283203" xlink:href="#DejaVuSans-116"/>
      <use x="379.492188" xlink:href="#DejaVuSans-105"/>
      <use x="407.275391" xlink:href="#DejaVuSans-111"/>
      <use x="468.457031" xlink:href="#DejaVuSans-110"/>
     </g>
    </g>
   </g>
   <g id="line2d_11">
    <path clip-path="url(#pb5b8ad8cc3)" d="M 63.43947 184.625664 
L 65.991837 180.546373 
L 68.582913 176.375363 
L 71.213507 172.110012 
L 73.884455 167.747607 
L 76.596611 163.285342 
L 79.350849 158.720313 
L 82.14807 154.049515 
L 84.989194 149.269836 
L 87.875167 144.378056 
L 90.806958 139.370841 
L 93.785561 134.244737 
L 96.811995 128.996169 
L 99.887308 123.621431 
L 103.012572 118.116684 
L 106.188888 112.477951 
L 109.417384 106.701108 
L 112.699219 100.781881 
L 116.035581 94.715838 
L 119.427687 88.498381 
L 122.876789 82.124744 
L 122.876789 82.124744 
L 124.623112 78.877819 
L 126.384167 75.589979 
" style="fill:none;stroke:#ff0000;stroke-linecap:square;stroke-width:1.5;"/>
   </g>
   <g id="line2d_12">
    <path clip-path="url(#pb5b8ad8cc3)" d="M 90.06135 172.035979 
L 92.745427 168.052244 
L 95.468369 163.978412 
L 98.23094 159.812411 
L 101.033921 155.552063 
L 103.87811 151.195082 
L 106.764326 146.739075 
L 109.693403 142.181543 
L 112.666197 137.519876 
L 115.683582 132.751359 
L 118.746454 127.873159 
L 121.855727 122.882334 
L 125.012336 117.775822 
L 128.21724 112.550441 
L 131.471415 107.202886 
L 134.775864 101.729727 
L 138.131608 96.127398 
L 141.539695 90.392201 
L 141.539695 90.392201 
L 143.2637 87.473583 
L 145.001192 84.520297 
" style="fill:none;stroke:#bfbf00;stroke-linecap:square;stroke-width:1.5;"/>
   </g>
   <g id="line2d_13">
    <path clip-path="url(#pb5b8ad8cc3)" d="M 76.191554 172.698654 
L 78.805255 168.930159 
L 81.457755 165.071952 
L 84.149845 161.122588 
L 86.882339 157.080503 
L 89.656066 152.944007 
L 92.471881 148.711302 
L 95.330655 144.380471 
L 98.233283 139.949491 
L 101.180682 135.41623 
L 104.173791 130.77845 
L 107.213572 126.033807 
L 110.30101 121.179849 
L 113.437116 116.21402 
L 116.622924 111.133659 
L 119.859496 105.935993 
L 123.147916 100.618146 
L 126.489299 95.177127 
L 129.884785 89.609836 
L 133.335541 83.913058 
L 133.335541 83.913058 
L 135.082018 81.015074 
" style="fill:none;stroke:#bfbf00;stroke-linecap:square;stroke-width:1.5;"/>
   </g>
   <g id="line2d_14">
    <path clip-path="url(#pb5b8ad8cc3)" d="M 46.425586 133.529657 
L 48.855987 129.069145 
L 51.323839 124.501448 
L 53.829956 119.824394 
L 56.37517 115.035702 
L 58.960339 110.132978 
L 61.586341 105.113719 
L 64.25408 99.975312 
L 66.964485 94.715033 
L 69.71851 89.330046 
L 72.517135 83.817405 
L 75.361367 78.17405 
L 78.252242 72.39681 
L 81.190824 66.482395 
L 84.178208 60.427402 
L 84.178208 60.427402 
L 85.690551 57.346092 
" style="fill:none;stroke:#bfbf00;stroke-linecap:square;stroke-width:1.5;"/>
   </g>
   <g id="line2d_15">
    <path clip-path="url(#pb5b8ad8cc3)" d="M 60.552618 155.52206 
L 63.080291 151.325672 
L 65.646419 147.022806 
L 68.251819 142.611228 
L 70.897326 138.088549 
L 73.583797 133.452231 
L 76.312114 128.699583 
L 79.083179 123.827762 
L 81.897918 118.833771 
L 84.757282 113.714457 
L 87.662248 108.46651 
L 90.613816 103.086457 
L 93.613014 97.57066 
L 96.660898 91.915312 
L 99.758551 86.116429 
L 102.907083 80.169849 
L 106.107636 74.071221 
L 106.107636 74.071221 
L 107.727785 70.963478 
L 109.361381 67.816003 
" style="fill:none;stroke:#bfbf00;stroke-linecap:square;stroke-width:1.5;"/>
   </g>
   <g id="line2d_16">
    <path clip-path="url(#pb5b8ad8cc3)" d="M 64.310277 160.173538 
L 66.867545 156.421694 
L 69.463595 152.567569 
L 72.099241 148.609911 
L 74.77532 144.547312 
L 77.492687 140.378219 
L 80.252223 136.100934 
L 83.054828 131.71362 
L 85.901426 127.2143 
L 88.792965 122.600863 
L 91.730419 117.871063 
L 94.714783 113.022522 
L 97.747082 108.052727 
L 100.828364 102.959035 
L 103.959706 97.738666 
L 107.142212 92.388711 
L 110.377014 86.906123 
L 113.665275 81.287718 
L 117.008187 75.530176 
L 117.008187 75.530176 
L 118.700517 72.598152 
" style="fill:none;stroke:#bfbf00;stroke-linecap:square;stroke-width:1.5;"/>
   </g>
   <g id="line2d_17">
    <path clip-path="url(#pb5b8ad8cc3)" d="M 68.244381 118.022593 
L 70.813576 112.875507 
L 73.421354 107.609597 
L 76.068516 102.2214 
L 78.755883 96.707324 
L 81.484296 91.063641 
L 84.25462 85.286485 
L 87.067738 79.371845 
L 89.924558 73.315559 
L 92.826008 67.113308 
L 92.826008 67.113308 
L 94.293767 63.95605 
" style="fill:none;stroke:#bfbf00;stroke-linecap:square;stroke-width:1.5;"/>
   </g>
   <g id="line2d_18">
    <path clip-path="url(#pb5b8ad8cc3)" d="M 75.283781 168.169879 
L 77.909181 164.116992 
L 80.573678 159.967559 
L 83.278065 155.719731 
L 86.023158 151.371541 
L 88.809788 146.920905 
L 91.638809 142.365629 
L 94.511095 137.703407 
L 97.42754 132.931826 
L 100.389061 128.048367 
L 103.396595 123.050407 
L 106.451104 117.935216 
L 109.553572 112.699963 
L 112.705006 107.341712 
L 115.906438 101.857423 
L 119.158924 96.243952 
L 122.463545 90.498052 
L 125.821411 84.616371 
L 125.821411 84.616371 
L 127.520663 81.623536 
L 129.233654 78.595452 
" style="fill:none;stroke:#bfbf00;stroke-linecap:square;stroke-width:1.5;"/>
   </g>
   <g id="line2d_19">
    <path clip-path="url(#pb5b8ad8cc3)" d="M 63.204931 230.933822 
L 65.777023 232.408598 
L 68.388363 233.663776 
L 71.039775 234.678268 
L 73.732103 235.431873 
L 76.466211 235.906615 
L 79.242985 236.088134 
L 82.063333 235.966882 
L 84.928188 235.538873 
L 87.838504 234.805799 
L 90.795259 233.774507 
L 93.799457 232.455957 
L 96.852125 230.863914 
L 99.954319 229.013625 
L 103.107117 226.920664 
L 106.311629 224.600047 
L 109.56899 222.065636 
L 112.880362 219.329794 
L 116.246939 216.403242 
L 119.669942 213.295039 
L 123.150624 210.012658 
L 126.690269 206.562104 
L 130.290192 202.94805 
L 133.95174 199.173981 
L 137.676293 195.242326 
L 141.465266 191.154581 
L 145.320106 186.911415 
L 149.242297 182.512769 
L 153.233356 177.957931 
L 157.294838 173.245607 
L 161.428335 168.373978 
L 165.635474 163.340748 
L 169.917922 158.14318 
L 174.277381 152.778135 
L 178.715596 147.242093 
L 183.234348 141.53118 
L 187.835458 135.641182 
L 192.520786 129.56756 
L 197.292233 123.305465 
L 202.151739 116.849742 
L 202.151739 116.849742 
L 204.615133 113.547578 
L 207.101287 110.19494 
" style="fill:none;stroke:#bfbf00;stroke-linecap:square;stroke-width:1.5;"/>
   </g>
   <g id="line2d_20">
    <path clip-path="url(#pb5b8ad8cc3)" d="M 66.798628 156.295132 
L 69.395556 151.517146 
L 72.031985 146.621389 
L 74.708741 141.604235 
L 77.426669 136.461905 
L 80.186635 131.19046 
L 82.989527 125.785794 
L 85.836256 120.243633 
L 88.727755 114.559517 
L 91.664981 108.728804 
L 94.648913 102.74665 
L 97.680556 96.60801 
L 100.760941 90.307621 
L 103.891123 83.839995 
L 107.072183 77.199407 
L 107.072183 77.199407 
L 108.682138 73.812395 
L 110.305232 70.379883 
" style="fill:none;stroke:#bfbf00;stroke-linecap:square;stroke-width:1.5;"/>
   </g>
   <g id="line2d_21">
    <path clip-path="url(#pb5b8ad8cc3)" d="M 54.29914 144.68639 
L 56.795418 140.467094 
L 59.330098 136.151702 
L 61.904007 131.738229 
L 64.51799 127.22459 
L 67.172918 122.608599 
L 69.869684 117.887974 
L 72.609203 113.060331 
L 75.392417 108.123189 
L 78.220291 103.073963 
L 81.093816 97.90997 
L 84.014012 92.62842 
L 86.981924 87.226421 
L 89.998624 81.700973 
L 93.065217 76.04897 
L 96.182833 70.267191 
L 96.182833 70.267191 
L 97.761138 67.3266 
L 99.352637 64.352307 
" style="fill:none;stroke:#bfbf00;stroke-linecap:square;stroke-width:1.5;"/>
   </g>
   <g id="line2d_22">
    <path clip-path="url(#pb5b8ad8cc3)" d="M 60.363162 182.664602 
L 62.891768 179.337888 
L 65.458941 175.90568 
L 68.065503 172.36752 
L 70.712296 168.722707 
L 73.400185 164.970308 
L 76.130056 161.109169 
L 78.90282 157.137919 
L 81.719411 153.054986 
L 84.580788 148.858592 
L 87.487936 144.546769 
L 90.441865 140.117352 
L 93.443611 135.567989 
L 96.494241 130.896137 
L 99.594845 126.099067 
L 102.746547 121.173857 
L 105.950499 116.117399 
L 109.207882 110.926386 
L 112.519912 105.597316 
L 115.887834 100.126486 
L 119.312928 94.509981 
L 122.796508 88.743677 
L 126.339923 82.823224 
L 126.339923 82.823224 
L 128.134499 79.803771 
L 129.944556 76.744044 
" style="fill:none;stroke:#bfbf00;stroke-linecap:square;stroke-width:1.5;"/>
   </g>
   <g id="line2d_23">
    <path clip-path="url(#pb5b8ad8cc3)" d="M 63.797245 212.92539 
L 66.352666 209.853789 
L 68.946814 206.671745 
L 71.580497 203.38074 
L 74.254546 199.981679 
L 76.969814 196.474962 
L 79.727174 192.860541 
L 82.52752 189.137968 
L 85.37177 185.306437 
L 88.260866 181.364817 
L 91.195773 177.311681 
L 94.17748 173.145326 
L 97.207001 168.863794 
L 100.285377 164.464886 
L 103.413674 159.946172 
L 106.592986 155.305002 
L 109.824435 150.538513 
L 113.10917 145.643629 
L 116.448371 140.617071 
L 119.843245 135.455352 
L 123.295032 130.154778 
L 126.805003 124.71145 
L 130.374459 119.121257 
L 134.004735 113.379877 
L 137.6972 107.482766 
L 141.453255 101.425158 
L 145.274337 95.202057 
L 149.161918 88.808228 
L 149.161918 88.808228 
L 151.131115 85.545587 
" style="fill:none;stroke:#bfbf00;stroke-linecap:square;stroke-width:1.5;"/>
   </g>
   <g id="line2d_24">
    <path clip-path="url(#pb5b8ad8cc3)" d="M 68.837066 141.137823 
L 71.430018 136.123486 
L 74.062033 130.988419 
L 76.73392 125.728852 
L 79.446506 120.340872 
L 82.200639 114.820412 
L 84.997189 109.16325 
L 87.837044 103.364994 
L 90.721119 97.421081 
L 93.650349 91.326764 
L 96.625692 85.077108 
L 99.648129 78.666977 
L 102.718668 72.091027 
L 102.718668 72.091027 
L 104.272298 68.73914 
" style="fill:none;stroke:#bfbf00;stroke-linecap:square;stroke-width:1.5;"/>
   </g>
   <g id="line2d_25">
    <path clip-path="url(#pb5b8ad8cc3)" d="M 51.046354 126.695057 
L 53.532527 121.611968 
L 56.057188 116.412358 
L 58.621166 111.092984 
L 61.225316 105.650492 
L 63.870514 100.081416 
L 66.557662 94.382172 
L 69.287681 88.549056 
L 72.061523 82.57824 
L 74.88016 76.465766 
L 77.744594 70.207545 
L 80.655852 63.799352 
L 80.655852 63.799352 
L 82.129368 60.537657 
L 83.614989 57.23682 
" style="fill:none;stroke:#bfbf00;stroke-linecap:square;stroke-width:1.5;"/>
   </g>
   <g id="line2d_26">
    <path clip-path="url(#pb5b8ad8cc3)" d="M 54.273728 153.799906 
L 56.786496 149.19813 
L 59.338143 144.490942 
L 61.929507 139.675299 
L 64.56145 134.748045 
L 67.234854 129.705915 
L 69.950625 124.54552 
L 72.709694 119.26335 
L 75.513016 113.855765 
L 78.361571 108.318993 
L 81.256366 102.64912 
L 84.198434 96.84209 
L 87.188838 90.893694 
L 90.228666 84.799567 
L 93.319038 78.555178 
L 96.461103 72.155825 
L 96.461103 72.155825 
L 98.051888 68.896519 
L 99.656041 65.596628 
" style="fill:none;stroke:#bfbf00;stroke-linecap:square;stroke-width:1.5;"/>
   </g>
   <g id="line2d_27">
    <path clip-path="url(#pb5b8ad8cc3)" d="M 56.924098 128.022194 
L 59.437687 123.322272 
L 61.989848 118.497307 
L 64.581408 113.544374 
L 67.213217 108.46037 
L 69.886149 103.242013 
L 72.601098 97.885841 
L 75.358985 92.388204 
L 78.160754 86.745262 
L 81.007376 80.952978 
L 83.899847 75.007113 
L 86.839189 68.903217 
L 86.839189 68.903217 
L 88.326764 65.790559 
L 89.826453 62.636625 
" style="fill:none;stroke:#bfbf00;stroke-linecap:square;stroke-width:1.5;"/>
   </g>
   <g id="line2d_28">
    <path clip-path="url(#pb5b8ad8cc3)" d="M 59.585099 153.753354 
L 62.108726 149.539349 
L 64.67087 145.236517 
L 67.272348 140.842771 
L 69.914002 136.35595 
L 72.596694 131.773823 
L 75.32131 127.094085 
L 78.088756 122.314362 
L 80.899964 117.432203 
L 83.755892 112.445084 
L 86.657519 107.350407 
L 89.605854 102.145496 
L 92.601929 96.827598 
L 95.646806 91.393882 
L 98.741573 85.841439 
L 101.887347 80.167279 
L 105.085277 74.368331 
L 105.085277 74.368331 
L 106.704167 71.421079 
L 108.336539 68.441442 
" style="fill:none;stroke:#bfbf00;stroke-linecap:square;stroke-width:1.5;"/>
   </g>
   <g id="line2d_29">
    <path clip-path="url(#pb5b8ad8cc3)" d="M 67.480642 154.842905 
L 70.058255 150.299937 
L 72.674791 145.643826 
L 75.331062 140.871465 
L 78.027899 135.97959 
L 80.766154 130.964771 
L 83.546701 125.823415 
L 86.370435 120.551756 
L 89.238274 115.145853 
L 92.151159 109.601583 
L 95.110056 103.914634 
L 98.115953 98.080498 
L 101.169864 92.094466 
L 104.272829 85.951616 
L 107.425913 79.646804 
L 110.630209 73.174655 
L 110.630209 73.174655 
L 112.25191 69.874085 
" style="fill:none;stroke:#bfbf00;stroke-linecap:square;stroke-width:1.5;"/>
   </g>
   <g id="line2d_30">
    <path clip-path="url(#pb5b8ad8cc3)" d="M 74.129373 242.116364 
L 76.766462 238.809285 
L 79.443059 235.412874 
L 82.15997 231.926595 
L 84.918018 228.349254 
L 87.718046 224.67918 
L 90.560916 220.914339 
L 93.447514 217.052404 
L 96.378743 213.090804 
L 99.355531 209.026749 
L 102.378826 204.857251 
L 105.449598 200.579135 
L 108.568843 196.189046 
L 111.737578 191.683452 
L 114.956845 187.05864 
L 118.227711 182.310721 
L 121.551267 177.435616 
L 124.928632 172.42906 
L 128.360949 167.286592 
L 131.849387 162.003542 
L 135.395146 156.575032 
L 138.999451 150.995959 
L 142.663554 145.260984 
L 146.388739 139.364525 
L 150.176317 133.30074 
L 154.02763 127.063514 
L 157.944049 120.646444 
L 161.926976 114.042823 
L 165.977844 107.245621 
L 170.098118 100.247466 
L 170.098118 100.247466 
L 172.184748 96.670629 
" style="fill:none;stroke:#bfbf00;stroke-linecap:square;stroke-width:1.5;"/>
   </g>
   <g id="line2d_31">
    <path clip-path="url(#pb5b8ad8cc3)" d="M 69.6036 179.577911 
L 72.190404 175.552351 
L 74.815952 171.413101 
L 77.481041 167.158283 
L 80.186487 162.785784 
L 82.933126 158.293262 
L 85.721815 153.678159 
L 88.553433 148.937704 
L 91.428878 144.068922 
L 94.349073 139.068633 
L 97.314964 133.933459 
L 100.327517 128.659817 
L 103.387725 123.243926 
L 106.496605 117.6818 
L 109.6552 111.969248 
L 112.864577 106.101869 
L 116.12583 100.075046 
L 119.440081 93.883945 
L 122.80848 87.523504 
L 126.232203 80.988428 
L 126.232203 80.988428 
L 127.965187 77.653683 
" style="fill:none;stroke:#bfbf00;stroke-linecap:square;stroke-width:1.5;"/>
   </g>
   <g id="line2d_32">
    <path clip-path="url(#pb5b8ad8cc3)" d="M 57.84573 123.59782 
L 60.358748 118.704739 
L 62.910195 113.705411 
L 65.500894 108.596958 
L 68.131689 103.376408 
L 70.803445 98.040687 
L 73.517051 92.586618 
L 76.273421 87.010918 
L 79.073489 81.310191 
L 81.918219 75.480925 
L 84.808598 69.519488 
L 87.74564 63.422123 
L 87.74564 63.422123 
L 89.231984 60.321257 
" style="fill:none;stroke:#bfbf00;stroke-linecap:square;stroke-width:1.5;"/>
   </g>
   <g id="line2d_33">
    <path clip-path="url(#pb5b8ad8cc3)" d="M 58.365973 209.779941 
L 60.911653 209.168307 
L 63.496441 208.355205 
L 66.121166 207.341131 
L 68.786677 206.127468 
L 71.493845 204.716342 
L 74.243563 203.110466 
L 77.036748 201.312974 
L 79.87434 199.327265 
L 82.757302 197.156853 
L 85.686622 194.805236 
L 88.663315 192.275781 
L 91.688421 189.571639 
L 94.763007 186.695671 
L 97.888166 183.650394 
L 101.065021 180.437948 
L 104.294724 177.060071 
L 107.578455 173.518086 
L 110.917426 169.812898 
L 114.312879 165.944996 
L 117.766087 161.914459 
L 121.278359 157.72097 
L 124.851034 153.363821 
L 128.485486 148.841932 
L 132.183125 144.153861 
L 135.945395 139.297819 
L 139.773779 134.27168 
L 143.669795 129.072994 
L 147.634999 123.699002 
L 151.670987 118.146638 
L 155.779394 112.412545 
L 159.961896 106.493082 
L 164.220208 100.384327 
L 164.220208 100.384327 
L 166.37834 97.257667 
L 168.556088 94.082092 
" style="fill:none;stroke:#bfbf00;stroke-linecap:square;stroke-width:1.5;"/>
   </g>
   <g id="line2d_34">
    <path clip-path="url(#pb5b8ad8cc3)" d="M 67.715197 110.409437 
L 70.274691 105.181219 
L 72.87261 99.83316 
L 75.509755 94.361727 
L 78.186945 88.763255 
L 80.905024 83.033942 
L 83.664855 77.169843 
L 86.467321 71.166861 
L 89.313332 65.020747 
L 89.313332 65.020747 
L 90.752956 61.892643 
" style="fill:none;stroke:#bfbf00;stroke-linecap:square;stroke-width:1.5;"/>
   </g>
   <g id="line2d_35">
    <path clip-path="url(#pb5b8ad8cc3)" d="M 64.643454 155.404713 
L 67.208539 150.76302 
L 69.812444 146.014615 
L 72.455979 141.156396 
L 75.139971 136.185156 
L 77.865272 131.097575 
L 80.632751 125.890216 
L 83.443303 120.559522 
L 86.297842 115.101811 
L 89.197307 109.51327 
L 92.142659 103.789949 
L 95.134887 97.927761 
L 98.174999 91.92247 
L 101.264034 85.769686 
L 104.403053 79.464865 
L 107.593147 73.003296 
L 107.593147 73.003296 
L 109.207695 69.712212 
" style="fill:none;stroke:#bfbf00;stroke-linecap:square;stroke-width:1.5;"/>
   </g>
   <g id="line2d_36">
    <path clip-path="url(#pb5b8ad8cc3)" d="M 73.533053 236.595536 
L 76.161106 236.063051 
L 78.828538 235.230067 
L 81.536153 234.104985 
L 84.284774 232.699882 
L 87.075243 231.029152 
L 89.908423 229.108212 
L 92.785198 226.952426 
L 95.706473 224.576325 
L 98.673173 221.99311 
L 101.686249 219.214386 
L 104.74667 216.250074 
L 107.855433 213.108437 
L 111.013555 209.796176 
L 114.22208 206.318558 
L 117.482075 202.679555 
L 120.794633 198.881984 
L 124.160874 194.927638 
L 127.581943 190.817393 
L 131.059012 186.551318 
L 134.593282 182.12875 
L 138.185981 177.548375 
L 141.838365 172.808281 
L 145.551721 167.90601 
L 149.327365 162.838595 
L 153.166641 157.602593 
L 157.070927 152.194107 
L 161.04163 146.608808 
L 165.08019 140.841941 
L 169.188077 134.888339 
L 173.366796 128.742423 
L 177.617883 122.398203 
L 181.942908 115.849276 
L 186.343474 109.088816 
L 186.343474 109.088816 
L 188.572596 105.627012 
L 190.821219 102.109569 
" style="fill:none;stroke:#bfbf00;stroke-linecap:square;stroke-width:1.5;"/>
   </g>
   <g id="line2d_37">
    <path clip-path="url(#pb5b8ad8cc3)" d="M 46.145455 44.443636 
L 77.638586 57.645724 
L 114.596359 73.395245 
L 172.849121 98.500892 
L 218.708638 118.237822 
L 249.054545 131.160231 
L 249.054545 131.160231 
" style="fill:none;stroke:#008000;stroke-linecap:square;stroke-width:1.5;"/>
   </g>
   <g id="patch_3">
    <path d="M 36 252 
L 36 34.56 
" style="fill:none;stroke:#000000;stroke-linecap:square;stroke-linejoin:miter;stroke-width:0.8;"/>
   </g>
   <g id="patch_4">
    <path d="M 259.2 252 
L 259.2 34.56 
" style="fill:none;stroke:#000000;stroke-linecap:square;stroke-linejoin:miter;stroke-width:0.8;"/>
   </g>
   <g id="patch_5">
    <path d="M 36 252 
L 259.2 252 
" style="fill:none;stroke:#000000;stroke-linecap:square;stroke-linejoin:miter;stroke-width:0.8;"/>
   </g>
   <g id="patch_6">
    <path d="M 36 34.56 
L 259.2 34.56 
" style="fill:none;stroke:#000000;stroke-linecap:square;stroke-linejoin:miter;stroke-width:0.8;"/>
   </g>
   <g id="text_13">
    <!--  0.79 -->
    <defs>
     <path id="DejaVuSans-32"/>
     <path d="M 8.203125 72.90625 
L 55.078125 72.90625 
L 55.078125 68.703125 
L 28.609375 0 
L 18.3125 0 
L 43.21875 64.59375 
L 8.203125 64.59375 
z
" id="DejaVuSans-55"/>
     <path d="M 10.984375 1.515625 
L 10.984375 10.5 
Q 14.703125 8.734375 18.5 7.8125 
Q 22.3125 6.890625 25.984375 6.890625 
Q 35.75 6.890625 40.890625 13.453125 
Q 46.046875 20.015625 46.78125 33.40625 
Q 43.953125 29.203125 39.59375 26.953125 
Q 35.25 24.703125 29.984375 24.703125 
Q 19.046875 24.703125 12.671875 31.3125 
Q 6.296875 37.9375 6.296875 49.421875 
Q 6.296875 60.640625 12.9375 67.421875 
Q 19.578125 74.21875 30.609375 74.21875 
Q 43.265625 74.21875 49.921875 64.515625 
Q 56.59375 54.828125 56.59375 36.375 
Q 56.59375 19.140625 48.40625 8.859375 
Q 40.234375 -1.421875 26.421875 -1.421875 
Q 22.703125 -1.421875 18.890625 -0.6875 
Q 15.09375 0.046875 10.984375 1.515625 
z
M 30.609375 32.421875 
Q 37.25 32.421875 41.125 36.953125 
Q 45.015625 41.5 45.015625 49.421875 
Q 45.015625 57.28125 41.125 61.84375 
Q 37.25 66.40625 30.609375 66.40625 
Q 23.96875 66.40625 20.09375 61.84375 
Q 16.21875 57.28125 16.21875 49.421875 
Q 16.21875 41.5 20.09375 36.953125 
Q 23.96875 32.421875 30.609375 32.421875 
z
" id="DejaVuSans-57"/>
    </defs>
    <g transform="translate(126.384167 75.589979)scale(0.1 -0.1)">
     <use xlink:href="#DejaVuSans-32"/>
     <use x="31.787109" xlink:href="#DejaVuSans-48"/>
     <use x="95.410156" xlink:href="#DejaVuSans-46"/>
     <use x="127.197266" xlink:href="#DejaVuSans-55"/>
     <use x="190.820312" xlink:href="#DejaVuSans-57"/>
    </g>
   </g>
   <g id="text_14">
    <!--  f=1 -->
    <defs>
     <path d="M 37.109375 75.984375 
L 37.109375 68.5 
L 28.515625 68.5 
Q 23.6875 68.5 21.796875 66.546875 
Q 19.921875 64.59375 19.921875 59.515625 
L 19.921875 54.6875 
L 34.71875 54.6875 
L 34.71875 47.703125 
L 19.921875 47.703125 
L 19.921875 0 
L 10.890625 0 
L 10.890625 47.703125 
L 2.296875 47.703125 
L 2.296875 54.6875 
L 10.890625 54.6875 
L 10.890625 58.5 
Q 10.890625 67.625 15.140625 71.796875 
Q 19.390625 75.984375 28.609375 75.984375 
z
" id="DejaVuSans-102"/>
     <path d="M 10.59375 45.40625 
L 73.1875 45.40625 
L 73.1875 37.203125 
L 10.59375 37.203125 
z
M 10.59375 25.484375 
L 73.1875 25.484375 
L 73.1875 17.1875 
L 10.59375 17.1875 
z
" id="DejaVuSans-61"/>
    </defs>
    <g transform="translate(41.282919 184.625664)scale(0.1 -0.1)">
     <use xlink:href="#DejaVuSans-32"/>
     <use x="31.787109" xlink:href="#DejaVuSans-102"/>
     <use x="66.992188" xlink:href="#DejaVuSans-61"/>
     <use x="150.78125" xlink:href="#DejaVuSans-49"/>
    </g>
   </g>
  </g>
 </g>
 <defs>
  <clipPath id="pb5b8ad8cc3">
   <rect height="217.44" width="223.2" x="36" y="34.56"/>
  </clipPath>
 </defs>
</svg>
