<?xml version="1.0" encoding="utf-8" standalone="no"?>
<!DOCTYPE svg PUBLIC "-//W3C//DTD SVG 1.1//EN"
  "http://www.w3.org/Graphics/SVG/1.1/DTD/svg11.dtd">
<!-- Created with matplotlib (https://matplotlib.org/) -->
<svg height="288pt" version="1.1" viewBox="0 0 288 288" width="288pt" xmlns="http://www.w3.org/2000/svg" xmlns:xlink="http://www.w3.org/1999/xlink">
 <defs>
  <style type="text/css">
*{stroke-linecap:butt;stroke-linejoin:round;}
  </style>
 </defs>
 <g id="figure_1">
  <g id="patch_1">
   <path d="M 0 288 
L 288 288 
L 288 0 
L 0 0 
z
" style="fill:#ffffff;"/>
  </g>
  <g id="axes_1">
   <g id="patch_2">
    <path d="M 36 252 
L 259.2 252 
L 259.2 34.56 
L 36 34.56 
z
" style="fill:#ffffff;"/>
   </g>
   <g id="matplotlib.axis_1">
    <g id="xtick_1">
     <g id="line2d_1">
      <defs>
       <path d="M 0 0 
L 0 3.5 
" id="mba4143dc8c" style="stroke:#000000;stroke-width:0.8;"/>
      </defs>
      <g>
       <use style="stroke:#000000;stroke-width:0.8;" x="70.850424" xlink:href="#mba4143dc8c" y="252"/>
      </g>
     </g>
     <g id="text_1">
      <!-- 30 -->
      <defs>
       <path d="M 40.578125 39.3125 
Q 47.65625 37.796875 51.625 33 
Q 55.609375 28.21875 55.609375 21.1875 
Q 55.609375 10.40625 48.1875 4.484375 
Q 40.765625 -1.421875 27.09375 -1.421875 
Q 22.515625 -1.421875 17.65625 -0.515625 
Q 12.796875 0.390625 7.625 2.203125 
L 7.625 11.71875 
Q 11.71875 9.328125 16.59375 8.109375 
Q 21.484375 6.890625 26.8125 6.890625 
Q 36.078125 6.890625 40.9375 10.546875 
Q 45.796875 14.203125 45.796875 21.1875 
Q 45.796875 27.640625 41.28125 31.265625 
Q 36.765625 34.90625 28.71875 34.90625 
L 20.21875 34.90625 
L 20.21875 43.015625 
L 29.109375 43.015625 
Q 36.375 43.015625 40.234375 45.921875 
Q 44.09375 48.828125 44.09375 54.296875 
Q 44.09375 59.90625 40.109375 62.90625 
Q 36.140625 65.921875 28.71875 65.921875 
Q 24.65625 65.921875 20.015625 65.03125 
Q 15.375 64.15625 9.8125 62.3125 
L 9.8125 71.09375 
Q 15.4375 72.65625 20.34375 73.4375 
Q 25.25 74.21875 29.59375 74.21875 
Q 40.828125 74.21875 47.359375 69.109375 
Q 53.90625 64.015625 53.90625 55.328125 
Q 53.90625 49.265625 50.4375 45.09375 
Q 46.96875 40.921875 40.578125 39.3125 
z
" id="DejaVuSans-51"/>
       <path d="M 31.78125 66.40625 
Q 24.171875 66.40625 20.328125 58.90625 
Q 16.5 51.421875 16.5 36.375 
Q 16.5 21.390625 20.328125 13.890625 
Q 24.171875 6.390625 31.78125 6.390625 
Q 39.453125 6.390625 43.28125 13.890625 
Q 47.125 21.390625 47.125 36.375 
Q 47.125 51.421875 43.28125 58.90625 
Q 39.453125 66.40625 31.78125 66.40625 
z
M 31.78125 74.21875 
Q 44.046875 74.21875 50.515625 64.515625 
Q 56.984375 54.828125 56.984375 36.375 
Q 56.984375 17.96875 50.515625 8.265625 
Q 44.046875 -1.421875 31.78125 -1.421875 
Q 19.53125 -1.421875 13.0625 8.265625 
Q 6.59375 17.96875 6.59375 36.375 
Q 6.59375 54.828125 13.0625 64.515625 
Q 19.53125 74.21875 31.78125 74.21875 
z
" id="DejaVuSans-48"/>
      </defs>
      <g transform="translate(64.487924 266.598437)scale(0.1 -0.1)">
       <use xlink:href="#DejaVuSans-51"/>
       <use x="63.623047" xlink:href="#DejaVuSans-48"/>
      </g>
     </g>
    </g>
    <g id="xtick_2">
     <g id="line2d_2">
      <g>
       <use style="stroke:#000000;stroke-width:0.8;" x="118.141657" xlink:href="#mba4143dc8c" y="252"/>
      </g>
     </g>
     <g id="text_2">
      <!-- 35 -->
      <defs>
       <path d="M 10.796875 72.90625 
L 49.515625 72.90625 
L 49.515625 64.59375 
L 19.828125 64.59375 
L 19.828125 46.734375 
Q 21.96875 47.46875 24.109375 47.828125 
Q 26.265625 48.1875 28.421875 48.1875 
Q 40.625 48.1875 47.75 41.5 
Q 54.890625 34.8125 54.890625 23.390625 
Q 54.890625 11.625 47.5625 5.09375 
Q 40.234375 -1.421875 26.90625 -1.421875 
Q 22.3125 -1.421875 17.546875 -0.640625 
Q 12.796875 0.140625 7.71875 1.703125 
L 7.71875 11.625 
Q 12.109375 9.234375 16.796875 8.0625 
Q 21.484375 6.890625 26.703125 6.890625 
Q 35.15625 6.890625 40.078125 11.328125 
Q 45.015625 15.765625 45.015625 23.390625 
Q 45.015625 31 40.078125 35.4375 
Q 35.15625 39.890625 26.703125 39.890625 
Q 22.75 39.890625 18.8125 39.015625 
Q 14.890625 38.140625 10.796875 36.28125 
z
" id="DejaVuSans-53"/>
      </defs>
      <g transform="translate(111.779157 266.598437)scale(0.1 -0.1)">
       <use xlink:href="#DejaVuSans-51"/>
       <use x="63.623047" xlink:href="#DejaVuSans-53"/>
      </g>
     </g>
    </g>
    <g id="xtick_3">
     <g id="line2d_3">
      <g>
       <use style="stroke:#000000;stroke-width:0.8;" x="165.432889" xlink:href="#mba4143dc8c" y="252"/>
      </g>
     </g>
     <g id="text_3">
      <!-- 40 -->
      <defs>
       <path d="M 37.796875 64.3125 
L 12.890625 25.390625 
L 37.796875 25.390625 
z
M 35.203125 72.90625 
L 47.609375 72.90625 
L 47.609375 25.390625 
L 58.015625 25.390625 
L 58.015625 17.1875 
L 47.609375 17.1875 
L 47.609375 0 
L 37.796875 0 
L 37.796875 17.1875 
L 4.890625 17.1875 
L 4.890625 26.703125 
z
" id="DejaVuSans-52"/>
      </defs>
      <g transform="translate(159.070389 266.598437)scale(0.1 -0.1)">
       <use xlink:href="#DejaVuSans-52"/>
       <use x="63.623047" xlink:href="#DejaVuSans-48"/>
      </g>
     </g>
    </g>
    <g id="xtick_4">
     <g id="line2d_4">
      <g>
       <use style="stroke:#000000;stroke-width:0.8;" x="212.724122" xlink:href="#mba4143dc8c" y="252"/>
      </g>
     </g>
     <g id="text_4">
      <!-- 45 -->
      <g transform="translate(206.361622 266.598437)scale(0.1 -0.1)">
       <use xlink:href="#DejaVuSans-52"/>
       <use x="63.623047" xlink:href="#DejaVuSans-53"/>
      </g>
     </g>
    </g>
    <g id="text_5">
     <!-- Inclination -->
     <defs>
      <path d="M 9.8125 72.90625 
L 19.671875 72.90625 
L 19.671875 0 
L 9.8125 0 
z
" id="DejaVuSans-73"/>
      <path d="M 54.890625 33.015625 
L 54.890625 0 
L 45.90625 0 
L 45.90625 32.71875 
Q 45.90625 40.484375 42.875 44.328125 
Q 39.84375 48.1875 33.796875 48.1875 
Q 26.515625 48.1875 22.3125 43.546875 
Q 18.109375 38.921875 18.109375 30.90625 
L 18.109375 0 
L 9.078125 0 
L 9.078125 54.6875 
L 18.109375 54.6875 
L 18.109375 46.1875 
Q 21.34375 51.125 25.703125 53.5625 
Q 30.078125 56 35.796875 56 
Q 45.21875 56 50.046875 50.171875 
Q 54.890625 44.34375 54.890625 33.015625 
z
" id="DejaVuSans-110"/>
      <path d="M 48.78125 52.59375 
L 48.78125 44.1875 
Q 44.96875 46.296875 41.140625 47.34375 
Q 37.3125 48.390625 33.40625 48.390625 
Q 24.65625 48.390625 19.8125 42.84375 
Q 14.984375 37.3125 14.984375 27.296875 
Q 14.984375 17.28125 19.8125 11.734375 
Q 24.65625 6.203125 33.40625 6.203125 
Q 37.3125 6.203125 41.140625 7.25 
Q 44.96875 8.296875 48.78125 10.40625 
L 48.78125 2.09375 
Q 45.015625 0.34375 40.984375 -0.53125 
Q 36.96875 -1.421875 32.421875 -1.421875 
Q 20.0625 -1.421875 12.78125 6.34375 
Q 5.515625 14.109375 5.515625 27.296875 
Q 5.515625 40.671875 12.859375 48.328125 
Q 20.21875 56 33.015625 56 
Q 37.15625 56 41.109375 55.140625 
Q 45.0625 54.296875 48.78125 52.59375 
z
" id="DejaVuSans-99"/>
      <path d="M 9.421875 75.984375 
L 18.40625 75.984375 
L 18.40625 0 
L 9.421875 0 
z
" id="DejaVuSans-108"/>
      <path d="M 9.421875 54.6875 
L 18.40625 54.6875 
L 18.40625 0 
L 9.421875 0 
z
M 9.421875 75.984375 
L 18.40625 75.984375 
L 18.40625 64.59375 
L 9.421875 64.59375 
z
" id="DejaVuSans-105"/>
      <path d="M 34.28125 27.484375 
Q 23.390625 27.484375 19.1875 25 
Q 14.984375 22.515625 14.984375 16.5 
Q 14.984375 11.71875 18.140625 8.90625 
Q 21.296875 6.109375 26.703125 6.109375 
Q 34.1875 6.109375 38.703125 11.40625 
Q 43.21875 16.703125 43.21875 25.484375 
L 43.21875 27.484375 
z
M 52.203125 31.203125 
L 52.203125 0 
L 43.21875 0 
L 43.21875 8.296875 
Q 40.140625 3.328125 35.546875 0.953125 
Q 30.953125 -1.421875 24.3125 -1.421875 
Q 15.921875 -1.421875 10.953125 3.296875 
Q 6 8.015625 6 15.921875 
Q 6 25.140625 12.171875 29.828125 
Q 18.359375 34.515625 30.609375 34.515625 
L 43.21875 34.515625 
L 43.21875 35.40625 
Q 43.21875 41.609375 39.140625 45 
Q 35.0625 48.390625 27.6875 48.390625 
Q 23 48.390625 18.546875 47.265625 
Q 14.109375 46.140625 10.015625 43.890625 
L 10.015625 52.203125 
Q 14.9375 54.109375 19.578125 55.046875 
Q 24.21875 56 28.609375 56 
Q 40.484375 56 46.34375 49.84375 
Q 52.203125 43.703125 52.203125 31.203125 
z
" id="DejaVuSans-97"/>
      <path d="M 18.3125 70.21875 
L 18.3125 54.6875 
L 36.8125 54.6875 
L 36.8125 47.703125 
L 18.3125 47.703125 
L 18.3125 18.015625 
Q 18.3125 11.328125 20.140625 9.421875 
Q 21.96875 7.515625 27.59375 7.515625 
L 36.8125 7.515625 
L 36.8125 0 
L 27.59375 0 
Q 17.1875 0 13.234375 3.875 
Q 9.28125 7.765625 9.28125 18.015625 
L 9.28125 47.703125 
L 2.6875 47.703125 
L 2.6875 54.6875 
L 9.28125 54.6875 
L 9.28125 70.21875 
z
" id="DejaVuSans-116"/>
      <path d="M 30.609375 48.390625 
Q 23.390625 48.390625 19.1875 42.75 
Q 14.984375 37.109375 14.984375 27.296875 
Q 14.984375 17.484375 19.15625 11.84375 
Q 23.34375 6.203125 30.609375 6.203125 
Q 37.796875 6.203125 41.984375 11.859375 
Q 46.1875 17.53125 46.1875 27.296875 
Q 46.1875 37.015625 41.984375 42.703125 
Q 37.796875 48.390625 30.609375 48.390625 
z
M 30.609375 56 
Q 42.328125 56 49.015625 48.375 
Q 55.71875 40.765625 55.71875 27.296875 
Q 55.71875 13.875 49.015625 6.21875 
Q 42.328125 -1.421875 30.609375 -1.421875 
Q 18.84375 -1.421875 12.171875 6.21875 
Q 5.515625 13.875 5.515625 27.296875 
Q 5.515625 40.765625 12.171875 48.375 
Q 18.84375 56 30.609375 56 
z
" id="DejaVuSans-111"/>
     </defs>
     <g transform="translate(121.61875 280.276563)scale(0.1 -0.1)">
      <use xlink:href="#DejaVuSans-73"/>
      <use x="29.492188" xlink:href="#DejaVuSans-110"/>
      <use x="92.871094" xlink:href="#DejaVuSans-99"/>
      <use x="147.851562" xlink:href="#DejaVuSans-108"/>
      <use x="175.634766" xlink:href="#DejaVuSans-105"/>
      <use x="203.417969" xlink:href="#DejaVuSans-110"/>
      <use x="266.796875" xlink:href="#DejaVuSans-97"/>
      <use x="328.076172" xlink:href="#DejaVuSans-116"/>
      <use x="367.285156" xlink:href="#DejaVuSans-105"/>
      <use x="395.068359" xlink:href="#DejaVuSans-111"/>
      <use x="456.25" xlink:href="#DejaVuSans-110"/>
     </g>
    </g>
   </g>
   <g id="matplotlib.axis_2">
    <g id="ytick_1">
     <g id="line2d_5">
      <defs>
       <path d="M 0 0 
L -3.5 0 
" id="mad41f83f65" style="stroke:#000000;stroke-width:0.8;"/>
      </defs>
      <g>
       <use style="stroke:#000000;stroke-width:0.8;" x="36" xlink:href="#mad41f83f65" y="221.754872"/>
      </g>
     </g>
     <g id="text_6">
      <!-- 1.2 -->
      <defs>
       <path d="M 12.40625 8.296875 
L 28.515625 8.296875 
L 28.515625 63.921875 
L 10.984375 60.40625 
L 10.984375 69.390625 
L 28.421875 72.90625 
L 38.28125 72.90625 
L 38.28125 8.296875 
L 54.390625 8.296875 
L 54.390625 0 
L 12.40625 0 
z
" id="DejaVuSans-49"/>
       <path d="M 10.6875 12.40625 
L 21 12.40625 
L 21 0 
L 10.6875 0 
z
" id="DejaVuSans-46"/>
       <path d="M 19.1875 8.296875 
L 53.609375 8.296875 
L 53.609375 0 
L 7.328125 0 
L 7.328125 8.296875 
Q 12.9375 14.109375 22.625 23.890625 
Q 32.328125 33.6875 34.8125 36.53125 
Q 39.546875 41.84375 41.421875 45.53125 
Q 43.3125 49.21875 43.3125 52.78125 
Q 43.3125 58.59375 39.234375 62.25 
Q 35.15625 65.921875 28.609375 65.921875 
Q 23.96875 65.921875 18.8125 64.3125 
Q 13.671875 62.703125 7.8125 59.421875 
L 7.8125 69.390625 
Q 13.765625 71.78125 18.9375 73 
Q 24.125 74.21875 28.421875 74.21875 
Q 39.75 74.21875 46.484375 68.546875 
Q 53.21875 62.890625 53.21875 53.421875 
Q 53.21875 48.921875 51.53125 44.890625 
Q 49.859375 40.875 45.40625 35.40625 
Q 44.1875 33.984375 37.640625 27.21875 
Q 31.109375 20.453125 19.1875 8.296875 
z
" id="DejaVuSans-50"/>
      </defs>
      <g transform="translate(13.096875 225.554091)scale(0.1 -0.1)">
       <use xlink:href="#DejaVuSans-49"/>
       <use x="63.623047" xlink:href="#DejaVuSans-46"/>
       <use x="95.410156" xlink:href="#DejaVuSans-50"/>
      </g>
     </g>
    </g>
    <g id="ytick_2">
     <g id="line2d_6">
      <g>
       <use style="stroke:#000000;stroke-width:0.8;" x="36" xlink:href="#mad41f83f65" y="187.678716"/>
      </g>
     </g>
     <g id="text_7">
      <!-- 1.4 -->
      <g transform="translate(13.096875 191.477934)scale(0.1 -0.1)">
       <use xlink:href="#DejaVuSans-49"/>
       <use x="63.623047" xlink:href="#DejaVuSans-46"/>
       <use x="95.410156" xlink:href="#DejaVuSans-52"/>
      </g>
     </g>
    </g>
    <g id="ytick_3">
     <g id="line2d_7">
      <g>
       <use style="stroke:#000000;stroke-width:0.8;" x="36" xlink:href="#mad41f83f65" y="153.602559"/>
      </g>
     </g>
     <g id="text_8">
      <!-- 1.6 -->
      <defs>
       <path d="M 33.015625 40.375 
Q 26.375 40.375 22.484375 35.828125 
Q 18.609375 31.296875 18.609375 23.390625 
Q 18.609375 15.53125 22.484375 10.953125 
Q 26.375 6.390625 33.015625 6.390625 
Q 39.65625 6.390625 43.53125 10.953125 
Q 47.40625 15.53125 47.40625 23.390625 
Q 47.40625 31.296875 43.53125 35.828125 
Q 39.65625 40.375 33.015625 40.375 
z
M 52.59375 71.296875 
L 52.59375 62.3125 
Q 48.875 64.0625 45.09375 64.984375 
Q 41.3125 65.921875 37.59375 65.921875 
Q 27.828125 65.921875 22.671875 59.328125 
Q 17.53125 52.734375 16.796875 39.40625 
Q 19.671875 43.65625 24.015625 45.921875 
Q 28.375 48.1875 33.59375 48.1875 
Q 44.578125 48.1875 50.953125 41.515625 
Q 57.328125 34.859375 57.328125 23.390625 
Q 57.328125 12.15625 50.6875 5.359375 
Q 44.046875 -1.421875 33.015625 -1.421875 
Q 20.359375 -1.421875 13.671875 8.265625 
Q 6.984375 17.96875 6.984375 36.375 
Q 6.984375 53.65625 15.1875 63.9375 
Q 23.390625 74.21875 37.203125 74.21875 
Q 40.921875 74.21875 44.703125 73.484375 
Q 48.484375 72.75 52.59375 71.296875 
z
" id="DejaVuSans-54"/>
      </defs>
      <g transform="translate(13.096875 157.401777)scale(0.1 -0.1)">
       <use xlink:href="#DejaVuSans-49"/>
       <use x="63.623047" xlink:href="#DejaVuSans-46"/>
       <use x="95.410156" xlink:href="#DejaVuSans-54"/>
      </g>
     </g>
    </g>
    <g id="ytick_4">
     <g id="line2d_8">
      <g>
       <use style="stroke:#000000;stroke-width:0.8;" x="36" xlink:href="#mad41f83f65" y="119.526402"/>
      </g>
     </g>
     <g id="text_9">
      <!-- 1.8 -->
      <defs>
       <path d="M 31.78125 34.625 
Q 24.75 34.625 20.71875 30.859375 
Q 16.703125 27.09375 16.703125 20.515625 
Q 16.703125 13.921875 20.71875 10.15625 
Q 24.75 6.390625 31.78125 6.390625 
Q 38.8125 6.390625 42.859375 10.171875 
Q 46.921875 13.96875 46.921875 20.515625 
Q 46.921875 27.09375 42.890625 30.859375 
Q 38.875 34.625 31.78125 34.625 
z
M 21.921875 38.8125 
Q 15.578125 40.375 12.03125 44.71875 
Q 8.5 49.078125 8.5 55.328125 
Q 8.5 64.0625 14.71875 69.140625 
Q 20.953125 74.21875 31.78125 74.21875 
Q 42.671875 74.21875 48.875 69.140625 
Q 55.078125 64.0625 55.078125 55.328125 
Q 55.078125 49.078125 51.53125 44.71875 
Q 48 40.375 41.703125 38.8125 
Q 48.828125 37.15625 52.796875 32.3125 
Q 56.78125 27.484375 56.78125 20.515625 
Q 56.78125 9.90625 50.3125 4.234375 
Q 43.84375 -1.421875 31.78125 -1.421875 
Q 19.734375 -1.421875 13.25 4.234375 
Q 6.78125 9.90625 6.78125 20.515625 
Q 6.78125 27.484375 10.78125 32.3125 
Q 14.796875 37.15625 21.921875 38.8125 
z
M 18.3125 54.390625 
Q 18.3125 48.734375 21.84375 45.5625 
Q 25.390625 42.390625 31.78125 42.390625 
Q 38.140625 42.390625 41.71875 45.5625 
Q 45.3125 48.734375 45.3125 54.390625 
Q 45.3125 60.0625 41.71875 63.234375 
Q 38.140625 66.40625 31.78125 66.40625 
Q 25.390625 66.40625 21.84375 63.234375 
Q 18.3125 60.0625 18.3125 54.390625 
z
" id="DejaVuSans-56"/>
      </defs>
      <g transform="translate(13.096875 123.32562)scale(0.1 -0.1)">
       <use xlink:href="#DejaVuSans-49"/>
       <use x="63.623047" xlink:href="#DejaVuSans-46"/>
       <use x="95.410156" xlink:href="#DejaVuSans-56"/>
      </g>
     </g>
    </g>
    <g id="ytick_5">
     <g id="line2d_9">
      <g>
       <use style="stroke:#000000;stroke-width:0.8;" x="36" xlink:href="#mad41f83f65" y="85.450245"/>
      </g>
     </g>
     <g id="text_10">
      <!-- 2.0 -->
      <g transform="translate(13.096875 89.249464)scale(0.1 -0.1)">
       <use xlink:href="#DejaVuSans-50"/>
       <use x="63.623047" xlink:href="#DejaVuSans-46"/>
       <use x="95.410156" xlink:href="#DejaVuSans-48"/>
      </g>
     </g>
    </g>
    <g id="ytick_6">
     <g id="line2d_10">
      <g>
       <use style="stroke:#000000;stroke-width:0.8;" x="36" xlink:href="#mad41f83f65" y="51.374088"/>
      </g>
     </g>
     <g id="text_11">
      <!-- 2.2 -->
      <g transform="translate(13.096875 55.173307)scale(0.1 -0.1)">
       <use xlink:href="#DejaVuSans-50"/>
       <use x="63.623047" xlink:href="#DejaVuSans-46"/>
       <use x="95.410156" xlink:href="#DejaVuSans-50"/>
      </g>
     </g>
    </g>
    <g id="text_12">
     <!-- Elongation -->
     <defs>
      <path d="M 9.8125 72.90625 
L 55.90625 72.90625 
L 55.90625 64.59375 
L 19.671875 64.59375 
L 19.671875 43.015625 
L 54.390625 43.015625 
L 54.390625 34.71875 
L 19.671875 34.71875 
L 19.671875 8.296875 
L 56.78125 8.296875 
L 56.78125 0 
L 9.8125 0 
z
" id="DejaVuSans-69"/>
      <path d="M 45.40625 27.984375 
Q 45.40625 37.75 41.375 43.109375 
Q 37.359375 48.484375 30.078125 48.484375 
Q 22.859375 48.484375 18.828125 43.109375 
Q 14.796875 37.75 14.796875 27.984375 
Q 14.796875 18.265625 18.828125 12.890625 
Q 22.859375 7.515625 30.078125 7.515625 
Q 37.359375 7.515625 41.375 12.890625 
Q 45.40625 18.265625 45.40625 27.984375 
z
M 54.390625 6.78125 
Q 54.390625 -7.171875 48.1875 -13.984375 
Q 42 -20.796875 29.203125 -20.796875 
Q 24.46875 -20.796875 20.265625 -20.09375 
Q 16.0625 -19.390625 12.109375 -17.921875 
L 12.109375 -9.1875 
Q 16.0625 -11.328125 19.921875 -12.34375 
Q 23.78125 -13.375 27.78125 -13.375 
Q 36.625 -13.375 41.015625 -8.765625 
Q 45.40625 -4.15625 45.40625 5.171875 
L 45.40625 9.625 
Q 42.625 4.78125 38.28125 2.390625 
Q 33.9375 0 27.875 0 
Q 17.828125 0 11.671875 7.65625 
Q 5.515625 15.328125 5.515625 27.984375 
Q 5.515625 40.671875 11.671875 48.328125 
Q 17.828125 56 27.875 56 
Q 33.9375 56 38.28125 53.609375 
Q 42.625 51.21875 45.40625 46.390625 
L 45.40625 54.6875 
L 54.390625 54.6875 
z
" id="DejaVuSans-103"/>
     </defs>
     <g transform="translate(7.017187 169.872187)rotate(-90)scale(0.1 -0.1)">
      <use xlink:href="#DejaVuSans-69"/>
      <use x="63.183594" xlink:href="#DejaVuSans-108"/>
      <use x="90.966797" xlink:href="#DejaVuSans-111"/>
      <use x="152.148438" xlink:href="#DejaVuSans-110"/>
      <use x="215.527344" xlink:href="#DejaVuSans-103"/>
      <use x="279.003906" xlink:href="#DejaVuSans-97"/>
      <use x="340.283203" xlink:href="#DejaVuSans-116"/>
      <use x="379.492188" xlink:href="#DejaVuSans-105"/>
      <use x="407.275391" xlink:href="#DejaVuSans-111"/>
      <use x="468.457031" xlink:href="#DejaVuSans-110"/>
     </g>
    </g>
   </g>
   <g id="line2d_11">
    <path clip-path="url(#p0a23dbe212)" d="M 61.727988 220.166711 
L 63.947974 217.429966 
L 66.201044 214.592091 
L 68.487877 211.657506 
L 70.809169 208.629337 
L 73.165632 205.509693 
L 75.557995 202.299879 
L 77.987007 199.000556 
L 80.453434 195.611856 
L 82.958061 192.133481 
L 85.501693 188.564767 
L 88.085154 184.904744 
L 90.709289 181.152172 
L 93.374962 177.305577 
L 96.083062 173.363274 
L 98.834497 169.323387 
L 101.630197 165.183865 
L 104.471117 160.942491 
L 107.358233 156.596891 
L 110.292548 152.144541 
L 113.275086 147.582772 
L 116.306898 142.90877 
L 119.389061 138.11958 
L 122.522675 133.212103 
L 125.708871 128.1831 
L 128.948803 123.029188 
L 132.243656 117.746835 
L 135.59464 112.33236 
L 139.002996 106.781932 
L 142.469993 101.091558 
L 145.996929 95.257084 
L 149.585135 89.274187 
L 149.585135 89.274187 
L 151.402637 86.225682 
" style="fill:none;stroke:#ff0000;stroke-linecap:square;stroke-width:1.5;"/>
   </g>
   <g id="line2d_12">
    <path clip-path="url(#p0a23dbe212)" d="M 54.685637 161.345575 
L 56.862536 159.280695 
L 59.072362 157.085796 
L 61.315809 154.761118 
L 63.59359 152.306809 
L 65.906436 149.722915 
L 68.255096 147.009352 
L 70.64034 144.165898 
L 73.062957 141.192171 
L 75.523757 138.087621 
L 78.02357 134.85152 
L 80.56325 131.48295 
L 83.14367 127.980794 
L 85.76573 124.343732 
L 88.430349 120.570231 
L 91.138473 116.658539 
L 93.891072 112.606681 
L 96.689142 108.412448 
L 99.533704 104.073397 
L 102.425807 99.586839 
L 105.366526 94.949832 
L 108.356966 90.159176 
L 111.398259 85.211404 
L 114.491567 80.102769 
L 117.638084 74.829237 
L 117.638084 74.829237 
L 119.231676 72.129292 
L 120.839032 69.386472 
" style="fill:none;stroke:#bfbf00;stroke-linecap:square;stroke-width:1.5;"/>
   </g>
   <g id="line2d_13">
    <path clip-path="url(#p0a23dbe212)" d="M 55.347126 195.631341 
L 57.520234 192.225069 
L 59.725937 188.746146 
L 61.964913 185.192897 
L 64.237857 181.563571 
L 66.545482 177.856339 
L 68.888518 174.069302 
L 71.267714 170.200486 
L 73.683839 166.247846 
L 76.137679 162.209267 
L 78.630044 158.082561 
L 81.16176 153.865468 
L 83.733679 149.555654 
L 86.34667 145.150713 
L 89.001628 140.648161 
L 91.699469 136.04544 
L 94.441132 131.339911 
L 97.227582 126.528857 
L 100.059808 121.60948 
L 102.938822 116.578897 
L 105.865666 111.434141 
L 108.841405 106.172157 
L 111.867133 100.789804 
L 114.943972 95.283846 
L 118.073072 89.650957 
L 121.255612 83.887715 
L 124.492801 77.9906 
L 124.492801 77.9906 
L 126.132275 74.990714 
L 127.785879 71.955996 
" style="fill:none;stroke:#bfbf00;stroke-linecap:square;stroke-width:1.5;"/>
   </g>
   <g id="line2d_14">
    <path clip-path="url(#p0a23dbe212)" d="M 68.691134 172.342543 
L 70.940081 168.648625 
L 73.222026 164.870259 
L 75.537633 161.005673 
L 77.887581 157.05298 
L 80.272565 153.010181 
L 82.6933 148.875167 
L 85.150513 144.645721 
L 87.644951 140.319521 
L 90.177381 135.894136 
L 92.748583 131.367031 
L 95.359361 126.735561 
L 98.010535 121.996974 
L 100.702944 117.148407 
L 103.437451 112.186883 
L 106.214935 107.109313 
L 109.036298 101.91249 
L 111.902463 96.593084 
L 114.814375 91.147644 
L 117.773 85.572592 
L 120.779329 79.864218 
L 123.834374 74.018678 
L 123.834374 74.018678 
L 125.380488 71.043232 
" style="fill:none;stroke:#bfbf00;stroke-linecap:square;stroke-width:1.5;"/>
   </g>
   <g id="line2d_15">
    <path clip-path="url(#p0a23dbe212)" d="M 50.6878 188.738861 
L 52.861922 187.000458 
L 55.069291 185.099526 
L 57.310611 183.038959 
L 59.586605 180.821596 
L 61.898018 178.450138 
L 64.245609 175.927094 
L 66.63016 173.254722 
L 69.052474 170.434996 
L 71.513372 167.469581 
L 74.013699 164.359813 
L 76.554321 161.106689 
L 79.136127 157.710866 
L 81.760029 154.172658 
L 84.426963 150.492039 
L 87.137889 146.66865 
L 89.893794 142.701801 
L 92.69569 138.590485 
L 95.544614 134.333378 
L 98.441634 129.92885 
L 101.387841 125.374968 
L 104.38436 120.669503 
L 107.432342 115.809933 
L 110.532969 110.793446 
L 113.687455 105.616943 
L 116.897044 100.277035 
L 120.163014 94.770048 
L 123.486675 89.092012 
L 126.869371 83.238666 
L 130.312483 77.205447 
L 130.312483 77.205447 
L 132.057136 74.119874 
" style="fill:none;stroke:#bfbf00;stroke-linecap:square;stroke-width:1.5;"/>
   </g>
   <g id="line2d_16">
    <path clip-path="url(#p0a23dbe212)" d="M 53.408331 142.485259 
L 55.578894 138.612417 
L 57.782344 134.643502 
L 60.019376 130.57683 
L 62.290702 126.41059 
L 64.597051 122.142843 
L 66.939174 117.771524 
L 69.317838 113.294445 
L 71.733832 108.709291 
L 74.187965 104.013625 
L 76.681067 99.204884 
L 79.213989 94.280379 
L 81.787605 89.237293 
L 84.402811 84.07268 
L 87.060527 78.783462 
L 89.761698 73.366426 
L 92.50729 67.818223 
L 95.298299 62.135361 
L 95.298299 62.135361 
L 96.711152 59.242303 
" style="fill:none;stroke:#bfbf00;stroke-linecap:square;stroke-width:1.5;"/>
   </g>
   <g id="line2d_17">
    <path clip-path="url(#p0a23dbe212)" d="M 66.130731 203.161127 
L 68.369305 199.97514 
L 70.641016 196.721968 
L 72.946538 193.400129 
L 75.286562 190.008051 
L 77.661796 186.544079 
L 80.072964 183.006481 
L 82.520811 179.393448 
L 85.006096 175.703095 
L 87.529599 171.933464 
L 90.092117 168.082522 
L 92.694468 164.148161 
L 95.33749 160.128199 
L 98.02204 156.020376 
L 100.748996 151.822353 
L 103.519257 147.531712 
L 106.333746 143.145954 
L 109.193404 138.662495 
L 112.099199 134.078664 
L 115.05212 129.391702 
L 118.053178 124.598759 
L 121.103412 119.696889 
L 124.203882 114.683051 
L 127.355675 109.554102 
L 130.559902 104.306795 
L 133.817702 98.937775 
L 137.130239 93.443578 
L 140.498703 87.820623 
L 140.498703 87.820623 
L 142.204288 84.95971 
L 143.924314 82.065211 
" style="fill:none;stroke:#bfbf00;stroke-linecap:square;stroke-width:1.5;"/>
   </g>
   <g id="line2d_18">
    <path clip-path="url(#p0a23dbe212)" d="M 64.724511 206.338349 
L 66.951808 203.126877 
L 69.211915 199.837201 
L 71.505496 196.468692 
L 73.833229 193.020457 
L 76.19581 189.491384 
L 78.593951 185.880173 
L 81.02838 182.18536 
L 83.499844 178.405334 
L 86.009109 174.538351 
L 88.556958 170.582546 
L 91.144192 166.53594 
L 93.771635 162.396445 
L 96.440126 158.161871 
L 99.150529 153.82993 
L 101.903726 149.398234 
L 104.70062 144.864302 
L 107.542138 140.225558 
L 110.429227 135.479332 
L 113.362858 130.622863 
L 116.344025 125.653295 
L 119.373745 120.567679 
L 122.453061 115.362972 
L 125.583039 110.036036 
L 128.76477 104.58364 
L 131.999371 99.002455 
L 135.287988 93.289054 
L 138.631788 87.439915 
L 138.631788 87.439915 
L 140.324756 84.463315 
L 142.031971 81.451416 
" style="fill:none;stroke:#bfbf00;stroke-linecap:square;stroke-width:1.5;"/>
   </g>
   <g id="line2d_19">
    <path clip-path="url(#p0a23dbe212)" d="M 65.989794 230.525441 
L 68.238681 227.516003 
L 70.520842 224.424026 
L 72.83695 221.250469 
L 75.187695 217.995313 
L 77.573782 214.657874 
L 79.995933 211.236985 
L 82.45489 207.731116 
L 84.951409 204.138452 
L 87.486268 200.456938 
L 90.06026 196.684319 
L 92.674199 192.818154 
L 95.32892 188.855837 
L 98.025275 184.794603 
L 100.764137 180.631533 
L 103.546403 176.363557 
L 106.372987 171.987453 
L 109.244829 167.499848 
L 112.162887 162.897211 
L 115.128145 158.175852 
L 118.14161 153.331917 
L 121.204311 148.361379 
L 124.317303 143.260034 
L 127.481664 138.023493 
L 130.6985 132.647172 
L 133.968939 127.126283 
L 137.294138 121.455827 
L 140.675279 115.630577 
L 144.113571 109.645071 
L 147.610251 103.493599 
L 151.166584 97.170186 
L 154.783862 90.668578 
L 154.783862 90.668578 
L 156.615767 87.348916 
" style="fill:none;stroke:#bfbf00;stroke-linecap:square;stroke-width:1.5;"/>
   </g>
   <g id="line2d_20">
    <path clip-path="url(#p0a23dbe212)" d="M 56.957716 228.700075 
L 59.159456 226.519876 
L 61.394356 224.168279 
L 63.663103 221.663397 
L 65.966403 219.01937 
L 68.304978 216.247077 
L 70.679567 213.354782 
L 73.09093 210.348662 
L 75.539845 207.233243 
L 78.027108 204.011732 
L 80.553537 200.686279 
L 83.119968 197.258182 
L 85.727261 193.728041 
L 88.376294 190.095879 
L 91.06797 186.361234 
L 93.803212 182.523234 
L 96.582968 178.580651 
L 99.408208 174.531946 
L 102.279928 170.375299 
L 105.199147 166.108642 
L 108.166909 161.729672 
L 111.184286 157.235872 
L 114.252374 152.624517 
L 117.372297 147.892687 
L 120.545206 143.037269 
L 123.772282 138.054962 
L 127.054731 132.942275 
L 130.393791 127.695533 
L 133.790729 122.310869 
L 137.246842 116.784223 
L 140.763458 111.111339 
L 144.341936 105.287757 
L 147.983665 99.308807 
L 151.69007 93.169602 
L 151.69007 93.169602 
L 153.567979 90.038314 
L 155.462605 86.865026 
" style="fill:none;stroke:#bfbf00;stroke-linecap:square;stroke-width:1.5;"/>
   </g>
   <g id="line2d_21">
    <path clip-path="url(#p0a23dbe212)" d="M 50.177639 186.616187 
L 52.321773 183.243469 
L 54.498601 179.802093 
L 56.708824 176.290402 
L 58.953158 172.706679 
L 61.232339 169.049139 
L 63.547122 165.315934 
L 65.898282 161.505151 
L 68.286616 157.614808 
L 70.712939 153.642857 
L 73.17809 149.587178 
L 75.682929 145.44558 
L 78.22834 141.215798 
L 80.815229 136.895492 
L 83.444526 132.482242 
L 86.117188 127.973548 
L 88.834195 123.366825 
L 91.596554 118.659402 
L 94.405299 113.84852 
L 97.261492 108.931324 
L 100.166221 103.904864 
L 103.120605 98.76609 
L 106.125792 93.511849 
L 109.182961 88.138876 
L 112.293322 82.643799 
L 115.458114 77.023124 
L 118.678614 71.273239 
L 118.678614 71.273239 
L 120.310161 68.348678 
" style="fill:none;stroke:#bfbf00;stroke-linecap:square;stroke-width:1.5;"/>
   </g>
   <g id="line2d_22">
    <path clip-path="url(#p0a23dbe212)" d="M 56.699234 209.586235 
L 58.901121 207.411463 
L 61.136281 205.086917 
L 63.405409 202.619478 
L 65.709219 200.015091 
L 68.04844 197.278797 
L 70.423821 194.414779 
L 72.836131 191.426429 
L 75.286157 188.316411 
L 77.774707 185.086729 
L 80.302608 181.738788 
L 82.870709 178.273458 
L 85.479881 174.691114 
L 88.131015 170.991694 
L 90.825028 167.17473 
L 93.562858 163.239384 
L 96.345466 159.184479 
L 99.17384 155.008519 
L 102.048991 150.709714 
L 104.971956 146.285993 
L 107.943799 141.735018 
L 110.965609 137.054193 
L 114.038506 132.240675 
L 117.163633 127.291377 
L 120.342166 122.20297 
L 123.575309 116.971889 
L 126.864294 111.594326 
L 130.210385 106.066235 
L 133.614879 100.383325 
L 137.079101 94.541053 
L 140.604411 88.534622 
L 140.604411 88.534622 
L 142.390408 85.468275 
L 144.1922 82.35897 
" style="fill:none;stroke:#bfbf00;stroke-linecap:square;stroke-width:1.5;"/>
   </g>
   <g id="line2d_23">
    <path clip-path="url(#p0a23dbe212)" d="M 69.278486 196.265796 
L 71.540379 197.491393 
L 73.8356 198.583936 
L 76.164821 199.536512 
L 78.528731 200.342369 
L 80.928036 200.995063 
L 83.363458 201.488623 
L 85.835736 201.817708 
L 88.345627 201.977757 
L 90.893908 201.965112 
L 93.481372 201.777118 
L 96.108831 201.412169 
L 98.777118 200.869715 
L 101.487085 200.150224 
L 104.239604 199.255098 
L 107.035568 198.186555 
L 109.875891 196.947494 
L 112.761509 195.541336 
L 115.69338 193.971875 
L 118.672483 192.243125 
L 121.699822 190.359189 
L 124.776423 188.324143 
L 127.903335 186.141933 
L 131.081634 183.816308 
L 134.312418 181.350754 
L 137.596811 178.748455 
L 140.935962 176.012266 
L 144.331046 173.144701 
L 147.783264 170.147922 
L 151.293844 167.023742 
L 154.864039 163.773634 
L 158.495132 160.398735 
L 162.188429 156.899862 
L 165.945268 153.277526 
L 169.767013 149.53194 
L 173.655054 145.663035 
L 177.610811 141.670475 
L 181.635732 137.55366 
L 185.731292 133.311745 
L 189.898994 128.943639 
L 194.140369 124.448018 
L 198.456977 119.823323 
L 202.850402 115.067767 
L 202.850402 115.067767 
L 205.076424 112.640295 
" style="fill:none;stroke:#bfbf00;stroke-linecap:square;stroke-width:1.5;"/>
   </g>
   <g id="line2d_24">
    <path clip-path="url(#p0a23dbe212)" d="M 61.961732 219.899081 
L 64.200309 218.721793 
L 66.472416 217.320416 
L 68.778741 215.706765 
L 71.119987 213.892925 
L 73.496874 211.890645 
L 75.910141 209.710918 
L 78.360543 207.363714 
L 80.848855 204.857852 
L 83.375869 202.200961 
L 85.942398 199.399506 
L 88.549273 196.458858 
L 91.197347 193.383374 
L 93.887492 190.176494 
L 96.620602 186.840832 
L 99.397591 183.378263 
L 102.219398 179.790002 
L 105.08698 176.076677 
L 108.001321 172.238386 
L 110.963427 168.274753 
L 113.974326 164.184973 
L 117.035075 159.967849 
L 120.14675 155.621824 
L 123.310456 151.145009 
L 126.527323 146.535202 
L 129.798508 141.789906 
L 133.125192 136.906344 
L 136.508585 131.88147 
L 139.949924 126.711972 
L 143.450474 121.394284 
L 147.011528 115.924583 
L 150.634407 110.298792 
L 154.320461 104.512581 
L 158.07107 98.561359 
L 158.07107 98.561359 
L 159.971022 95.522363 
L 161.887643 92.440274 
" style="fill:none;stroke:#bfbf00;stroke-linecap:square;stroke-width:1.5;"/>
   </g>
   <g id="line2d_25">
    <path clip-path="url(#p0a23dbe212)" d="M 46.390061 217.867921 
L 48.535326 218.532928 
L 50.713592 218.970499 
L 52.925567 219.170643 
L 55.171975 219.126363 
L 57.453562 218.834092 
L 59.771093 218.29384 
L 62.125352 217.509011 
L 64.517144 216.485939 
L 66.947296 215.23323 
L 69.416656 213.761021 
L 71.926096 212.080263 
L 74.47651 210.202092 
L 77.068817 208.137342 
L 79.703958 205.896187 
L 82.382903 203.487924 
L 85.106645 200.920853 
L 87.876204 198.202235 
L 90.692628 195.338312 
L 93.556994 192.33435 
L 96.470405 189.19471 
L 99.433997 185.922926 
L 102.448934 182.521781 
L 105.516412 178.993385 
L 108.637658 175.339246 
L 111.813933 171.56033 
L 115.046532 167.657124 
L 118.336783 163.62968 
L 121.686049 159.477663 
L 125.09573 155.200385 
L 128.567262 150.79684 
L 132.10212 146.265729 
L 135.701816 141.605487 
L 139.367901 136.814297 
L 143.101967 131.890113 
L 146.905645 126.830667 
L 150.780611 121.633484 
L 154.728578 116.295888 
L 158.751306 110.815013 
L 162.850596 105.187802 
L 167.028294 99.411014 
L 167.028294 99.411014 
L 169.147135 96.465465 
L 171.28629 93.481223 
" style="fill:none;stroke:#bfbf00;stroke-linecap:square;stroke-width:1.5;"/>
   </g>
   <g id="line2d_26">
    <path clip-path="url(#p0a23dbe212)" d="M 46.145455 230.790711 
L 48.286339 230.878587 
L 50.460066 230.639214 
L 52.667336 230.074321 
L 54.908867 229.194986 
L 57.185396 228.019467 
L 59.497678 226.570336 
L 61.846488 224.871719 
L 64.232623 222.947152 
L 66.656899 220.818217 
L 69.120153 218.503858 
L 71.623245 216.020189 
L 74.167059 213.380602 
L 76.7525 210.596023 
L 79.380498 207.675233 
L 82.052006 204.625177 
L 84.768004 201.451263 
L 87.529498 198.157607 
L 90.337519 194.747253 
L 93.193127 191.222345 
L 96.097408 187.584277 
L 99.051478 183.833809 
L 102.056483 179.971165 
L 105.113598 175.996108 
L 108.224029 171.908008 
L 111.389014 167.705889 
L 114.609825 163.388473 
L 117.887765 158.954214 
L 121.224171 154.401325 
L 124.620417 149.727801 
L 128.077911 144.931436 
L 131.598098 140.009841 
L 135.182459 134.960452 
L 138.832514 129.780544 
L 142.549822 124.467236 
L 146.335981 119.017502 
L 150.192628 113.428167 
L 154.121443 107.695922 
L 158.124146 101.817317 
L 162.2025 95.788771 
L 162.2025 95.788771 
L 164.270609 92.717113 
" style="fill:none;stroke:#bfbf00;stroke-linecap:square;stroke-width:1.5;"/>
   </g>
   <g id="line2d_27">
    <path clip-path="url(#p0a23dbe212)" d="M 57.414155 88.917277 
L 59.619154 85.501753 
L 61.857458 81.953758 
L 64.129765 78.271222 
L 66.436789 74.451938 
L 68.779262 70.493555 
L 71.157935 66.393569 
L 73.573577 62.149318 
L 76.026978 57.757971 
L 78.518948 53.216521 
L 78.518948 53.216521 
L 79.779655 50.888518 
" style="fill:none;stroke:#bfbf00;stroke-linecap:square;stroke-width:1.5;"/>
   </g>
   <g id="line2d_28">
    <path clip-path="url(#p0a23dbe212)" d="M 61.421025 221.559008 
L 63.641772 218.481246 
L 65.895641 215.338509 
L 68.183313 212.129151 
L 70.505482 208.851472 
L 72.862864 205.503712 
L 75.256188 202.084058 
L 77.686204 198.590639 
L 80.15368 195.021525 
L 82.659401 191.374731 
L 85.204175 187.64821 
L 87.788826 183.839854 
L 90.414201 179.947495 
L 93.081167 175.968899 
L 95.790612 171.901766 
L 98.543449 167.743731 
L 101.340608 163.492359 
L 104.183047 159.145143 
L 107.071745 154.699504 
L 110.007706 150.152791 
L 112.991958 145.502274 
L 116.025555 140.745145 
L 119.109576 135.878514 
L 122.245127 130.899413 
L 125.43334 125.804784 
L 128.675376 120.591486 
L 131.972421 115.256286 
L 135.325693 109.79586 
L 138.736438 104.206792 
L 142.205929 98.485567 
L 145.735472 92.628571 
L 149.326403 86.632087 
L 149.326403 86.632087 
L 151.145315 83.580348 
" style="fill:none;stroke:#bfbf00;stroke-linecap:square;stroke-width:1.5;"/>
   </g>
   <g id="line2d_29">
    <path clip-path="url(#p0a23dbe212)" d="M 64.891084 101.43438 
L 67.131262 96.209115 
L 69.404664 90.84867 
L 71.711969 85.349048 
L 74.05387 79.706055 
L 76.431075 73.915302 
L 78.844312 67.97219 
L 81.294326 61.871904 
L 83.78188 55.609407 
L 83.78188 55.609407 
L 85.039978 52.415691 
" style="fill:none;stroke:#bfbf00;stroke-linecap:square;stroke-width:1.5;"/>
   </g>
   <g id="line2d_30">
    <path clip-path="url(#p0a23dbe212)" d="M 67.429195 191.320646 
L 69.693597 192.983437 
L 71.991504 194.516418 
L 74.32359 195.911575 
L 76.690545 197.16071 
L 79.093078 198.255577 
L 81.531912 199.188046 
L 84.007788 199.950296 
L 86.521465 200.535024 
L 89.073718 200.935656 
L 91.665343 201.146553 
L 94.297154 201.163186 
L 96.969981 200.982269 
L 99.684679 200.601838 
L 102.442118 200.021267 
L 105.243191 199.241211 
L 108.088812 198.263508 
L 110.979915 197.091014 
L 113.917456 195.727421 
L 116.902413 194.177056 
L 119.935787 192.444678 
L 123.018603 190.53529 
L 126.151906 188.453968 
L 129.336767 186.205724 
L 132.574281 183.795391 
L 135.865567 181.227534 
L 139.21177 178.506396 
L 142.614057 175.635853 
L 146.073625 172.619398 
L 149.591693 169.460132 
L 153.169507 166.160767 
L 156.808342 162.723645 
L 160.509495 159.150752 
L 164.274294 155.443741 
L 168.104091 151.603959 
L 172.000267 147.632472 
L 175.964229 143.530094 
L 179.997411 139.29741 
L 184.101275 134.934809 
L 188.277309 130.442505 
L 192.52703 125.820566 
L 196.851978 121.068938 
L 201.253722 116.187471 
L 201.253722 116.187471 
L 203.48389 113.697979 
L 205.733857 111.17594 
" style="fill:none;stroke:#bfbf00;stroke-linecap:square;stroke-width:1.5;"/>
   </g>
   <g id="line2d_31">
    <path clip-path="url(#p0a23dbe212)" d="M 67.399117 227.641673 
L 69.654877 225.367853 
L 71.943944 222.946361 
L 74.26699 220.391389 
L 76.624702 217.713872 
L 79.017784 214.922142 
L 81.446955 212.022466 
L 83.912952 209.01948 
L 86.416531 205.916526 
L 88.958464 202.715913 
L 91.539542 199.419123 
L 94.160574 196.026961 
L 96.822389 192.539682 
L 99.525835 188.957078 
L 102.271781 185.278556 
L 105.061113 181.503191 
L 107.894743 177.629769 
L 110.7736 173.656826 
L 113.698636 169.582671 
L 116.670827 165.405409 
L 119.691167 161.122956 
L 122.760677 156.733055 
L 125.8804 152.233283 
L 129.051402 147.621057 
L 132.274775 142.893645 
L 135.551632 138.048163 
L 138.883114 133.081584 
L 142.270387 127.990733 
L 145.71464 122.77229 
L 149.217091 117.422792 
L 152.778983 111.938624 
L 156.401584 106.316024 
L 160.086191 100.551075 
L 163.834126 94.639704 
L 163.834126 94.639704 
L 165.732262 91.627792 
" style="fill:none;stroke:#bfbf00;stroke-linecap:square;stroke-width:1.5;"/>
   </g>
   <g id="line2d_32">
    <path clip-path="url(#p0a23dbe212)" d="M 56.455853 240.305129 
L 58.65728 240.193512 
L 60.891866 239.615183 
L 63.160298 238.603618 
L 65.463279 237.212584 
L 67.80153 235.501142 
L 70.17579 233.523282 
L 72.586816 231.323527 
L 75.035383 228.936506 
L 77.522287 226.388291 
L 80.048342 223.698177 
L 82.614384 220.880296 
L 85.221269 217.94493 
L 87.869874 214.899487 
L 90.561097 211.749233 
L 93.29586 208.497818 
L 96.075106 205.147664 
L 98.899804 201.700244 
L 101.770944 198.156287 
L 104.689542 194.515935 
L 107.656639 190.778853 
L 110.6733 186.944319 
L 113.740619 183.011283 
L 116.859714 178.978423 
L 120.03173 174.844178 
L 123.257842 170.606784 
L 126.539251 166.264287 
L 129.877188 161.814573 
L 133.272912 157.255371 
L 136.727714 152.584273 
L 140.242912 147.798735 
L 143.819858 142.89609 
L 147.459932 137.87355 
L 151.164547 132.728211 
L 154.935148 127.457053 
L 158.773212 122.056948 
L 162.680248 116.524656 
L 166.657799 110.856832 
L 170.707439 105.050017 
L 170.707439 105.050017 
L 172.759793 102.093379 
L 174.830776 99.100649 
" style="fill:none;stroke:#bfbf00;stroke-linecap:square;stroke-width:1.5;"/>
   </g>
   <g id="line2d_33">
    <path clip-path="url(#p0a23dbe212)" d="M 71.764981 204.553075 
L 74.051157 202.555916 
L 76.370874 200.397607 
L 78.724801 198.084342 
L 81.113621 195.62174 
L 83.538035 193.014796 
L 85.998758 190.267858 
L 88.496524 187.384629 
L 91.032082 184.368188 
L 93.606199 181.221018 
L 96.219661 177.945041 
L 98.873271 174.541654 
L 101.567851 171.01177 
L 104.304241 167.355848 
L 107.083304 163.573934 
L 109.905917 159.665685 
L 112.772982 155.6304 
L 115.68542 151.467044 
L 118.644173 147.174268 
L 121.650203 142.750431 
L 124.704497 138.19361 
L 127.80806 133.501621 
L 130.961922 128.672024 
L 134.167137 123.702133 
L 137.424779 118.589025 
L 140.735948 113.329546 
L 144.101767 107.920312 
L 147.523383 102.357715 
L 151.001968 96.63792 
L 154.538718 90.756869 
L 154.538718 90.756869 
L 156.329286 87.754542 
" style="fill:none;stroke:#bfbf00;stroke-linecap:square;stroke-width:1.5;"/>
   </g>
   <g id="line2d_34">
    <path clip-path="url(#p0a23dbe212)" d="M 65.892886 164.931075 
L 68.127176 160.894895 
L 70.394405 156.768375 
L 72.695241 152.54896 
L 75.030367 148.233997 
L 77.400483 143.820734 
L 79.806305 139.306318 
L 82.248568 134.687785 
L 84.728023 129.962062 
L 87.245441 125.125957 
L 89.80161 120.17616 
L 92.397337 115.109233 
L 95.033449 109.921606 
L 97.710795 104.609571 
L 100.430241 99.169276 
L 103.192677 93.596719 
L 105.999011 87.887738 
L 108.850176 82.038008 
L 111.747125 76.04303 
L 114.690836 69.898123 
L 114.690836 69.898123 
L 116.180539 66.76793 
" style="fill:none;stroke:#bfbf00;stroke-linecap:square;stroke-width:1.5;"/>
   </g>
   <g id="line2d_35">
    <path clip-path="url(#p0a23dbe212)" d="M 56.510777 195.782696 
L 58.711374 195.636772 
L 60.945195 195.32365 
L 63.212934 194.841941 
L 65.515298 194.191039 
L 67.853015 193.37108 
L 70.22683 192.382878 
L 72.637506 191.227843 
L 75.085827 189.907879 
L 77.572596 188.425279 
L 80.098634 186.782615 
L 82.664786 184.982632 
L 85.271916 183.028153 
L 87.920911 180.921988 
L 90.612679 178.666865 
L 93.348152 176.265361 
L 96.128285 173.719859 
L 98.954057 171.032505 
L 101.826471 168.205182 
L 104.746556 165.239491 
L 107.715365 162.136739 
L 110.73398 158.897933 
L 113.803508 155.523777 
L 116.925084 152.014678 
L 120.099869 148.370744 
L 123.329057 144.591799 
L 126.613866 140.677379 
L 129.955548 136.626748 
L 133.355383 132.438902 
L 136.814683 128.112576 
L 140.334789 123.646251 
L 143.917078 119.038157 
L 147.562957 114.286285 
L 151.273864 109.38838 
L 155.051275 104.341955 
L 158.896696 99.144282 
L 162.811668 93.792399 
L 162.811668 93.792399 
L 164.795727 91.057639 
" style="fill:none;stroke:#bfbf00;stroke-linecap:square;stroke-width:1.5;"/>
   </g>
   <g id="line2d_36">
    <path clip-path="url(#p0a23dbe212)" d="M 63.98862 227.210361 
L 66.238018 229.678642 
L 68.520911 232.042424 
L 70.837978 234.277065 
L 73.189917 236.348439 
L 75.577439 238.209614 
L 78.001275 239.797814 
L 80.462171 241.0343 
L 82.960893 241.832162 
L 85.498223 242.116364 
L 88.074964 241.850837 
L 90.691937 241.053892 
L 93.349983 239.787998 
L 96.049962 238.133727 
L 98.792756 236.16759 
L 101.579266 233.951906 
L 104.410418 231.533555 
L 107.287155 228.946474 
L 110.210445 226.214834 
L 113.181279 223.355767 
L 116.200671 220.381414 
L 119.269657 217.300372 
L 122.389298 214.118709 
L 125.560681 210.840671 
L 128.784916 207.469167 
L 132.063139 204.00612 
L 135.396512 200.452709 
L 138.786223 196.809552 
L 142.233486 193.076836 
L 145.739543 189.254415 
L 149.305663 185.341883 
L 152.933141 181.338633 
L 156.623303 177.243905 
L 160.377499 173.056815 
L 164.197112 168.776393 
L 168.083551 164.401604 
L 172.038253 159.931371 
L 176.062685 155.364595 
L 180.158344 150.700173 
L 184.326754 145.937014 
L 188.569469 141.074059 
L 192.888071 136.110292 
L 197.284172 131.044759 
L 201.75941 125.876586 
L 206.315453 120.604995 
L 206.315453 120.604995 
L 208.624305 117.930205 
L 210.953996 115.229321 
" style="fill:none;stroke:#bfbf00;stroke-linecap:square;stroke-width:1.5;"/>
   </g>
   <g id="line2d_37">
    <path clip-path="url(#p0a23dbe212)" d="M 64.90717 44.443636 
L 96.711152 60.144 
L 148.235651 85.870505 
L 197.929262 110.597917 
L 225.576228 124.143555 
L 249.054545 135.451079 
L 249.054545 135.451079 
" style="fill:none;stroke:#008000;stroke-linecap:square;stroke-width:1.5;"/>
   </g>
   <g id="patch_3">
    <path d="M 36 252 
L 36 34.56 
" style="fill:none;stroke:#000000;stroke-linecap:square;stroke-linejoin:miter;stroke-width:0.8;"/>
   </g>
   <g id="patch_4">
    <path d="M 259.2 252 
L 259.2 34.56 
" style="fill:none;stroke:#000000;stroke-linecap:square;stroke-linejoin:miter;stroke-width:0.8;"/>
   </g>
   <g id="patch_5">
    <path d="M 36 252 
L 259.2 252 
" style="fill:none;stroke:#000000;stroke-linecap:square;stroke-linejoin:miter;stroke-width:0.8;"/>
   </g>
   <g id="patch_6">
    <path d="M 36 34.56 
L 259.2 34.56 
" style="fill:none;stroke:#000000;stroke-linecap:square;stroke-linejoin:miter;stroke-width:0.8;"/>
   </g>
   <g id="text_13">
    <!--  0.68 -->
    <defs>
     <path id="DejaVuSans-32"/>
    </defs>
    <g transform="translate(151.402637 86.225682)scale(0.1 -0.1)">
     <use xlink:href="#DejaVuSans-32"/>
     <use x="31.787109" xlink:href="#DejaVuSans-48"/>
     <use x="95.410156" xlink:href="#DejaVuSans-46"/>
     <use x="127.197266" xlink:href="#DejaVuSans-54"/>
     <use x="190.820312" xlink:href="#DejaVuSans-56"/>
    </g>
   </g>
   <g id="text_14">
    <!--  f=1 -->
    <defs>
     <path d="M 37.109375 75.984375 
L 37.109375 68.5 
L 28.515625 68.5 
Q 23.6875 68.5 21.796875 66.546875 
Q 19.921875 64.59375 19.921875 59.515625 
L 19.921875 54.6875 
L 34.71875 54.6875 
L 34.71875 47.703125 
L 19.921875 47.703125 
L 19.921875 0 
L 10.890625 0 
L 10.890625 47.703125 
L 2.296875 47.703125 
L 2.296875 54.6875 
L 10.890625 54.6875 
L 10.890625 58.5 
Q 10.890625 67.625 15.140625 71.796875 
Q 19.390625 75.984375 28.609375 75.984375 
z
" id="DejaVuSans-102"/>
     <path d="M 10.59375 45.40625 
L 73.1875 45.40625 
L 73.1875 37.203125 
L 10.59375 37.203125 
z
M 10.59375 25.484375 
L 73.1875 25.484375 
L 73.1875 17.1875 
L 10.59375 17.1875 
z
" id="DejaVuSans-61"/>
    </defs>
    <g transform="translate(42.811495 220.166711)scale(0.1 -0.1)">
     <use xlink:href="#DejaVuSans-32"/>
     <use x="31.787109" xlink:href="#DejaVuSans-102"/>
     <use x="66.992188" xlink:href="#DejaVuSans-61"/>
     <use x="150.78125" xlink:href="#DejaVuSans-49"/>
    </g>
   </g>
  </g>
 </g>
 <defs>
  <clipPath id="p0a23dbe212">
   <rect height="217.44" width="223.2" x="36" y="34.56"/>
  </clipPath>
 </defs>
</svg>
