<?xml version="1.0" encoding="utf-8" standalone="no"?>
<!DOCTYPE svg PUBLIC "-//W3C//DTD SVG 1.1//EN"
  "http://www.w3.org/Graphics/SVG/1.1/DTD/svg11.dtd">
<!-- Created with matplotlib (https://matplotlib.org/) -->
<svg height="288pt" version="1.1" viewBox="0 0 288 288" width="288pt" xmlns="http://www.w3.org/2000/svg" xmlns:xlink="http://www.w3.org/1999/xlink">
 <metadata>
  <rdf:RDF xmlns:cc="http://creativecommons.org/ns#" xmlns:dc="http://purl.org/dc/elements/1.1/" xmlns:rdf="http://www.w3.org/1999/02/22-rdf-syntax-ns#">
   <cc:Work>
    <dc:type rdf:resource="http://purl.org/dc/dcmitype/StillImage"/>
    <dc:date>2021-03-03T22:27:27.736288</dc:date>
    <dc:format>image/svg+xml</dc:format>
    <dc:creator>
     <cc:Agent>
      <dc:title>Matplotlib v3.3.2, https://matplotlib.org/</dc:title>
     </cc:Agent>
    </dc:creator>
   </cc:Work>
  </rdf:RDF>
 </metadata>
 <defs>
  <style type="text/css">*{stroke-linecap:butt;stroke-linejoin:round;}</style>
 </defs>
 <g id="figure_1">
  <g id="patch_1">
   <path d="M 0 288 
L 288 288 
L 288 0 
L 0 0 
z
" style="fill:none;"/>
  </g>
  <g id="axes_1">
   <g id="patch_2">
    <path d="M 36 252 
L 259.2 252 
L 259.2 34.56 
L 36 34.56 
z
" style="fill:#ffffff;"/>
   </g>
   <g id="matplotlib.axis_1">
    <g id="xtick_1">
     <g id="line2d_1">
      <defs>
       <path d="M 0 0 
L 0 3.5 
" id="m2cbdeb76b2" style="stroke:#000000;stroke-width:0.8;"/>
      </defs>
      <g>
       <use style="stroke:#000000;stroke-width:0.8;" x="70.54742" xlink:href="#m2cbdeb76b2" y="252"/>
      </g>
     </g>
     <g id="text_1">
      <!-- 30 -->
      <g transform="translate(64.18492 266.598437)scale(0.1 -0.1)">
       <defs>
        <path d="M 40.578125 39.3125 
Q 47.65625 37.796875 51.625 33 
Q 55.609375 28.21875 55.609375 21.1875 
Q 55.609375 10.40625 48.1875 4.484375 
Q 40.765625 -1.421875 27.09375 -1.421875 
Q 22.515625 -1.421875 17.65625 -0.515625 
Q 12.796875 0.390625 7.625 2.203125 
L 7.625 11.71875 
Q 11.71875 9.328125 16.59375 8.109375 
Q 21.484375 6.890625 26.8125 6.890625 
Q 36.078125 6.890625 40.9375 10.546875 
Q 45.796875 14.203125 45.796875 21.1875 
Q 45.796875 27.640625 41.28125 31.265625 
Q 36.765625 34.90625 28.71875 34.90625 
L 20.21875 34.90625 
L 20.21875 43.015625 
L 29.109375 43.015625 
Q 36.375 43.015625 40.234375 45.921875 
Q 44.09375 48.828125 44.09375 54.296875 
Q 44.09375 59.90625 40.109375 62.90625 
Q 36.140625 65.921875 28.71875 65.921875 
Q 24.65625 65.921875 20.015625 65.03125 
Q 15.375 64.15625 9.8125 62.3125 
L 9.8125 71.09375 
Q 15.4375 72.65625 20.34375 73.4375 
Q 25.25 74.21875 29.59375 74.21875 
Q 40.828125 74.21875 47.359375 69.109375 
Q 53.90625 64.015625 53.90625 55.328125 
Q 53.90625 49.265625 50.4375 45.09375 
Q 46.96875 40.921875 40.578125 39.3125 
z
" id="DejaVuSans-51"/>
        <path d="M 31.78125 66.40625 
Q 24.171875 66.40625 20.328125 58.90625 
Q 16.5 51.421875 16.5 36.375 
Q 16.5 21.390625 20.328125 13.890625 
Q 24.171875 6.390625 31.78125 6.390625 
Q 39.453125 6.390625 43.28125 13.890625 
Q 47.125 21.390625 47.125 36.375 
Q 47.125 51.421875 43.28125 58.90625 
Q 39.453125 66.40625 31.78125 66.40625 
z
M 31.78125 74.21875 
Q 44.046875 74.21875 50.515625 64.515625 
Q 56.984375 54.828125 56.984375 36.375 
Q 56.984375 17.96875 50.515625 8.265625 
Q 44.046875 -1.421875 31.78125 -1.421875 
Q 19.53125 -1.421875 13.0625 8.265625 
Q 6.59375 17.96875 6.59375 36.375 
Q 6.59375 54.828125 13.0625 64.515625 
Q 19.53125 74.21875 31.78125 74.21875 
z
" id="DejaVuSans-48"/>
       </defs>
       <use xlink:href="#DejaVuSans-51"/>
       <use x="63.623047" xlink:href="#DejaVuSans-48"/>
      </g>
     </g>
    </g>
    <g id="xtick_2">
     <g id="line2d_2">
      <g>
       <use style="stroke:#000000;stroke-width:0.8;" x="117.431209" xlink:href="#m2cbdeb76b2" y="252"/>
      </g>
     </g>
     <g id="text_2">
      <!-- 35 -->
      <g transform="translate(111.068709 266.598437)scale(0.1 -0.1)">
       <defs>
        <path d="M 10.796875 72.90625 
L 49.515625 72.90625 
L 49.515625 64.59375 
L 19.828125 64.59375 
L 19.828125 46.734375 
Q 21.96875 47.46875 24.109375 47.828125 
Q 26.265625 48.1875 28.421875 48.1875 
Q 40.625 48.1875 47.75 41.5 
Q 54.890625 34.8125 54.890625 23.390625 
Q 54.890625 11.625 47.5625 5.09375 
Q 40.234375 -1.421875 26.90625 -1.421875 
Q 22.3125 -1.421875 17.546875 -0.640625 
Q 12.796875 0.140625 7.71875 1.703125 
L 7.71875 11.625 
Q 12.109375 9.234375 16.796875 8.0625 
Q 21.484375 6.890625 26.703125 6.890625 
Q 35.15625 6.890625 40.078125 11.328125 
Q 45.015625 15.765625 45.015625 23.390625 
Q 45.015625 31 40.078125 35.4375 
Q 35.15625 39.890625 26.703125 39.890625 
Q 22.75 39.890625 18.8125 39.015625 
Q 14.890625 38.140625 10.796875 36.28125 
z
" id="DejaVuSans-53"/>
       </defs>
       <use xlink:href="#DejaVuSans-51"/>
       <use x="63.623047" xlink:href="#DejaVuSans-53"/>
      </g>
     </g>
    </g>
    <g id="xtick_3">
     <g id="line2d_3">
      <g>
       <use style="stroke:#000000;stroke-width:0.8;" x="164.314997" xlink:href="#m2cbdeb76b2" y="252"/>
      </g>
     </g>
     <g id="text_3">
      <!-- 40 -->
      <g transform="translate(157.952497 266.598437)scale(0.1 -0.1)">
       <defs>
        <path d="M 37.796875 64.3125 
L 12.890625 25.390625 
L 37.796875 25.390625 
z
M 35.203125 72.90625 
L 47.609375 72.90625 
L 47.609375 25.390625 
L 58.015625 25.390625 
L 58.015625 17.1875 
L 47.609375 17.1875 
L 47.609375 0 
L 37.796875 0 
L 37.796875 17.1875 
L 4.890625 17.1875 
L 4.890625 26.703125 
z
" id="DejaVuSans-52"/>
       </defs>
       <use xlink:href="#DejaVuSans-52"/>
       <use x="63.623047" xlink:href="#DejaVuSans-48"/>
      </g>
     </g>
    </g>
    <g id="xtick_4">
     <g id="line2d_4">
      <g>
       <use style="stroke:#000000;stroke-width:0.8;" x="211.198786" xlink:href="#m2cbdeb76b2" y="252"/>
      </g>
     </g>
     <g id="text_4">
      <!-- 45 -->
      <g transform="translate(204.836286 266.598437)scale(0.1 -0.1)">
       <use xlink:href="#DejaVuSans-52"/>
       <use x="63.623047" xlink:href="#DejaVuSans-53"/>
      </g>
     </g>
    </g>
    <g id="xtick_5">
     <g id="line2d_5">
      <g>
       <use style="stroke:#000000;stroke-width:0.8;" x="258.082575" xlink:href="#m2cbdeb76b2" y="252"/>
      </g>
     </g>
     <g id="text_5">
      <!-- 50 -->
      <g transform="translate(251.720075 266.598437)scale(0.1 -0.1)">
       <use xlink:href="#DejaVuSans-53"/>
       <use x="63.623047" xlink:href="#DejaVuSans-48"/>
      </g>
     </g>
    </g>
    <g id="text_6">
     <!-- Inclination -->
     <g transform="translate(121.61875 280.276563)scale(0.1 -0.1)">
      <defs>
       <path d="M 9.8125 72.90625 
L 19.671875 72.90625 
L 19.671875 0 
L 9.8125 0 
z
" id="DejaVuSans-73"/>
       <path d="M 54.890625 33.015625 
L 54.890625 0 
L 45.90625 0 
L 45.90625 32.71875 
Q 45.90625 40.484375 42.875 44.328125 
Q 39.84375 48.1875 33.796875 48.1875 
Q 26.515625 48.1875 22.3125 43.546875 
Q 18.109375 38.921875 18.109375 30.90625 
L 18.109375 0 
L 9.078125 0 
L 9.078125 54.6875 
L 18.109375 54.6875 
L 18.109375 46.1875 
Q 21.34375 51.125 25.703125 53.5625 
Q 30.078125 56 35.796875 56 
Q 45.21875 56 50.046875 50.171875 
Q 54.890625 44.34375 54.890625 33.015625 
z
" id="DejaVuSans-110"/>
       <path d="M 48.78125 52.59375 
L 48.78125 44.1875 
Q 44.96875 46.296875 41.140625 47.34375 
Q 37.3125 48.390625 33.40625 48.390625 
Q 24.65625 48.390625 19.8125 42.84375 
Q 14.984375 37.3125 14.984375 27.296875 
Q 14.984375 17.28125 19.8125 11.734375 
Q 24.65625 6.203125 33.40625 6.203125 
Q 37.3125 6.203125 41.140625 7.25 
Q 44.96875 8.296875 48.78125 10.40625 
L 48.78125 2.09375 
Q 45.015625 0.34375 40.984375 -0.53125 
Q 36.96875 -1.421875 32.421875 -1.421875 
Q 20.0625 -1.421875 12.78125 6.34375 
Q 5.515625 14.109375 5.515625 27.296875 
Q 5.515625 40.671875 12.859375 48.328125 
Q 20.21875 56 33.015625 56 
Q 37.15625 56 41.109375 55.140625 
Q 45.0625 54.296875 48.78125 52.59375 
z
" id="DejaVuSans-99"/>
       <path d="M 9.421875 75.984375 
L 18.40625 75.984375 
L 18.40625 0 
L 9.421875 0 
z
" id="DejaVuSans-108"/>
       <path d="M 9.421875 54.6875 
L 18.40625 54.6875 
L 18.40625 0 
L 9.421875 0 
z
M 9.421875 75.984375 
L 18.40625 75.984375 
L 18.40625 64.59375 
L 9.421875 64.59375 
z
" id="DejaVuSans-105"/>
       <path d="M 34.28125 27.484375 
Q 23.390625 27.484375 19.1875 25 
Q 14.984375 22.515625 14.984375 16.5 
Q 14.984375 11.71875 18.140625 8.90625 
Q 21.296875 6.109375 26.703125 6.109375 
Q 34.1875 6.109375 38.703125 11.40625 
Q 43.21875 16.703125 43.21875 25.484375 
L 43.21875 27.484375 
z
M 52.203125 31.203125 
L 52.203125 0 
L 43.21875 0 
L 43.21875 8.296875 
Q 40.140625 3.328125 35.546875 0.953125 
Q 30.953125 -1.421875 24.3125 -1.421875 
Q 15.921875 -1.421875 10.953125 3.296875 
Q 6 8.015625 6 15.921875 
Q 6 25.140625 12.171875 29.828125 
Q 18.359375 34.515625 30.609375 34.515625 
L 43.21875 34.515625 
L 43.21875 35.40625 
Q 43.21875 41.609375 39.140625 45 
Q 35.0625 48.390625 27.6875 48.390625 
Q 23 48.390625 18.546875 47.265625 
Q 14.109375 46.140625 10.015625 43.890625 
L 10.015625 52.203125 
Q 14.9375 54.109375 19.578125 55.046875 
Q 24.21875 56 28.609375 56 
Q 40.484375 56 46.34375 49.84375 
Q 52.203125 43.703125 52.203125 31.203125 
z
" id="DejaVuSans-97"/>
       <path d="M 18.3125 70.21875 
L 18.3125 54.6875 
L 36.8125 54.6875 
L 36.8125 47.703125 
L 18.3125 47.703125 
L 18.3125 18.015625 
Q 18.3125 11.328125 20.140625 9.421875 
Q 21.96875 7.515625 27.59375 7.515625 
L 36.8125 7.515625 
L 36.8125 0 
L 27.59375 0 
Q 17.1875 0 13.234375 3.875 
Q 9.28125 7.765625 9.28125 18.015625 
L 9.28125 47.703125 
L 2.6875 47.703125 
L 2.6875 54.6875 
L 9.28125 54.6875 
L 9.28125 70.21875 
z
" id="DejaVuSans-116"/>
       <path d="M 30.609375 48.390625 
Q 23.390625 48.390625 19.1875 42.75 
Q 14.984375 37.109375 14.984375 27.296875 
Q 14.984375 17.484375 19.15625 11.84375 
Q 23.34375 6.203125 30.609375 6.203125 
Q 37.796875 6.203125 41.984375 11.859375 
Q 46.1875 17.53125 46.1875 27.296875 
Q 46.1875 37.015625 41.984375 42.703125 
Q 37.796875 48.390625 30.609375 48.390625 
z
M 30.609375 56 
Q 42.328125 56 49.015625 48.375 
Q 55.71875 40.765625 55.71875 27.296875 
Q 55.71875 13.875 49.015625 6.21875 
Q 42.328125 -1.421875 30.609375 -1.421875 
Q 18.84375 -1.421875 12.171875 6.21875 
Q 5.515625 13.875 5.515625 27.296875 
Q 5.515625 40.765625 12.171875 48.375 
Q 18.84375 56 30.609375 56 
z
" id="DejaVuSans-111"/>
      </defs>
      <use xlink:href="#DejaVuSans-73"/>
      <use x="29.492188" xlink:href="#DejaVuSans-110"/>
      <use x="92.871094" xlink:href="#DejaVuSans-99"/>
      <use x="147.851562" xlink:href="#DejaVuSans-108"/>
      <use x="175.634766" xlink:href="#DejaVuSans-105"/>
      <use x="203.417969" xlink:href="#DejaVuSans-110"/>
      <use x="266.796875" xlink:href="#DejaVuSans-97"/>
      <use x="328.076172" xlink:href="#DejaVuSans-116"/>
      <use x="367.285156" xlink:href="#DejaVuSans-105"/>
      <use x="395.068359" xlink:href="#DejaVuSans-111"/>
      <use x="456.25" xlink:href="#DejaVuSans-110"/>
     </g>
    </g>
   </g>
   <g id="matplotlib.axis_2">
    <g id="ytick_1">
     <g id="line2d_6">
      <defs>
       <path d="M 0 0 
L -3.5 0 
" id="m0e33381c4a" style="stroke:#000000;stroke-width:0.8;"/>
      </defs>
      <g>
       <use style="stroke:#000000;stroke-width:0.8;" x="36" xlink:href="#m0e33381c4a" y="244.803796"/>
      </g>
     </g>
     <g id="text_7">
      <!-- 1.0 -->
      <g transform="translate(13.096875 248.603014)scale(0.1 -0.1)">
       <defs>
        <path d="M 12.40625 8.296875 
L 28.515625 8.296875 
L 28.515625 63.921875 
L 10.984375 60.40625 
L 10.984375 69.390625 
L 28.421875 72.90625 
L 38.28125 72.90625 
L 38.28125 8.296875 
L 54.390625 8.296875 
L 54.390625 0 
L 12.40625 0 
z
" id="DejaVuSans-49"/>
        <path d="M 10.6875 12.40625 
L 21 12.40625 
L 21 0 
L 10.6875 0 
z
" id="DejaVuSans-46"/>
       </defs>
       <use xlink:href="#DejaVuSans-49"/>
       <use x="63.623047" xlink:href="#DejaVuSans-46"/>
       <use x="95.410156" xlink:href="#DejaVuSans-48"/>
      </g>
     </g>
    </g>
    <g id="ytick_2">
     <g id="line2d_7">
      <g>
       <use style="stroke:#000000;stroke-width:0.8;" x="36" xlink:href="#m0e33381c4a" y="212.941661"/>
      </g>
     </g>
     <g id="text_8">
      <!-- 1.2 -->
      <g transform="translate(13.096875 216.740879)scale(0.1 -0.1)">
       <defs>
        <path d="M 19.1875 8.296875 
L 53.609375 8.296875 
L 53.609375 0 
L 7.328125 0 
L 7.328125 8.296875 
Q 12.9375 14.109375 22.625 23.890625 
Q 32.328125 33.6875 34.8125 36.53125 
Q 39.546875 41.84375 41.421875 45.53125 
Q 43.3125 49.21875 43.3125 52.78125 
Q 43.3125 58.59375 39.234375 62.25 
Q 35.15625 65.921875 28.609375 65.921875 
Q 23.96875 65.921875 18.8125 64.3125 
Q 13.671875 62.703125 7.8125 59.421875 
L 7.8125 69.390625 
Q 13.765625 71.78125 18.9375 73 
Q 24.125 74.21875 28.421875 74.21875 
Q 39.75 74.21875 46.484375 68.546875 
Q 53.21875 62.890625 53.21875 53.421875 
Q 53.21875 48.921875 51.53125 44.890625 
Q 49.859375 40.875 45.40625 35.40625 
Q 44.1875 33.984375 37.640625 27.21875 
Q 31.109375 20.453125 19.1875 8.296875 
z
" id="DejaVuSans-50"/>
       </defs>
       <use xlink:href="#DejaVuSans-49"/>
       <use x="63.623047" xlink:href="#DejaVuSans-46"/>
       <use x="95.410156" xlink:href="#DejaVuSans-50"/>
      </g>
     </g>
    </g>
    <g id="ytick_3">
     <g id="line2d_8">
      <g>
       <use style="stroke:#000000;stroke-width:0.8;" x="36" xlink:href="#m0e33381c4a" y="181.079525"/>
      </g>
     </g>
     <g id="text_9">
      <!-- 1.4 -->
      <g transform="translate(13.096875 184.878744)scale(0.1 -0.1)">
       <use xlink:href="#DejaVuSans-49"/>
       <use x="63.623047" xlink:href="#DejaVuSans-46"/>
       <use x="95.410156" xlink:href="#DejaVuSans-52"/>
      </g>
     </g>
    </g>
    <g id="ytick_4">
     <g id="line2d_9">
      <g>
       <use style="stroke:#000000;stroke-width:0.8;" x="36" xlink:href="#m0e33381c4a" y="149.21739"/>
      </g>
     </g>
     <g id="text_10">
      <!-- 1.6 -->
      <g transform="translate(13.096875 153.016609)scale(0.1 -0.1)">
       <defs>
        <path d="M 33.015625 40.375 
Q 26.375 40.375 22.484375 35.828125 
Q 18.609375 31.296875 18.609375 23.390625 
Q 18.609375 15.53125 22.484375 10.953125 
Q 26.375 6.390625 33.015625 6.390625 
Q 39.65625 6.390625 43.53125 10.953125 
Q 47.40625 15.53125 47.40625 23.390625 
Q 47.40625 31.296875 43.53125 35.828125 
Q 39.65625 40.375 33.015625 40.375 
z
M 52.59375 71.296875 
L 52.59375 62.3125 
Q 48.875 64.0625 45.09375 64.984375 
Q 41.3125 65.921875 37.59375 65.921875 
Q 27.828125 65.921875 22.671875 59.328125 
Q 17.53125 52.734375 16.796875 39.40625 
Q 19.671875 43.65625 24.015625 45.921875 
Q 28.375 48.1875 33.59375 48.1875 
Q 44.578125 48.1875 50.953125 41.515625 
Q 57.328125 34.859375 57.328125 23.390625 
Q 57.328125 12.15625 50.6875 5.359375 
Q 44.046875 -1.421875 33.015625 -1.421875 
Q 20.359375 -1.421875 13.671875 8.265625 
Q 6.984375 17.96875 6.984375 36.375 
Q 6.984375 53.65625 15.1875 63.9375 
Q 23.390625 74.21875 37.203125 74.21875 
Q 40.921875 74.21875 44.703125 73.484375 
Q 48.484375 72.75 52.59375 71.296875 
z
" id="DejaVuSans-54"/>
       </defs>
       <use xlink:href="#DejaVuSans-49"/>
       <use x="63.623047" xlink:href="#DejaVuSans-46"/>
       <use x="95.410156" xlink:href="#DejaVuSans-54"/>
      </g>
     </g>
    </g>
    <g id="ytick_5">
     <g id="line2d_10">
      <g>
       <use style="stroke:#000000;stroke-width:0.8;" x="36" xlink:href="#m0e33381c4a" y="117.355255"/>
      </g>
     </g>
     <g id="text_11">
      <!-- 1.8 -->
      <g transform="translate(13.096875 121.154474)scale(0.1 -0.1)">
       <defs>
        <path d="M 31.78125 34.625 
Q 24.75 34.625 20.71875 30.859375 
Q 16.703125 27.09375 16.703125 20.515625 
Q 16.703125 13.921875 20.71875 10.15625 
Q 24.75 6.390625 31.78125 6.390625 
Q 38.8125 6.390625 42.859375 10.171875 
Q 46.921875 13.96875 46.921875 20.515625 
Q 46.921875 27.09375 42.890625 30.859375 
Q 38.875 34.625 31.78125 34.625 
z
M 21.921875 38.8125 
Q 15.578125 40.375 12.03125 44.71875 
Q 8.5 49.078125 8.5 55.328125 
Q 8.5 64.0625 14.71875 69.140625 
Q 20.953125 74.21875 31.78125 74.21875 
Q 42.671875 74.21875 48.875 69.140625 
Q 55.078125 64.0625 55.078125 55.328125 
Q 55.078125 49.078125 51.53125 44.71875 
Q 48 40.375 41.703125 38.8125 
Q 48.828125 37.15625 52.796875 32.3125 
Q 56.78125 27.484375 56.78125 20.515625 
Q 56.78125 9.90625 50.3125 4.234375 
Q 43.84375 -1.421875 31.78125 -1.421875 
Q 19.734375 -1.421875 13.25 4.234375 
Q 6.78125 9.90625 6.78125 20.515625 
Q 6.78125 27.484375 10.78125 32.3125 
Q 14.796875 37.15625 21.921875 38.8125 
z
M 18.3125 54.390625 
Q 18.3125 48.734375 21.84375 45.5625 
Q 25.390625 42.390625 31.78125 42.390625 
Q 38.140625 42.390625 41.71875 45.5625 
Q 45.3125 48.734375 45.3125 54.390625 
Q 45.3125 60.0625 41.71875 63.234375 
Q 38.140625 66.40625 31.78125 66.40625 
Q 25.390625 66.40625 21.84375 63.234375 
Q 18.3125 60.0625 18.3125 54.390625 
z
" id="DejaVuSans-56"/>
       </defs>
       <use xlink:href="#DejaVuSans-49"/>
       <use x="63.623047" xlink:href="#DejaVuSans-46"/>
       <use x="95.410156" xlink:href="#DejaVuSans-56"/>
      </g>
     </g>
    </g>
    <g id="ytick_6">
     <g id="line2d_11">
      <g>
       <use style="stroke:#000000;stroke-width:0.8;" x="36" xlink:href="#m0e33381c4a" y="85.49312"/>
      </g>
     </g>
     <g id="text_12">
      <!-- 2.0 -->
      <g transform="translate(13.096875 89.292339)scale(0.1 -0.1)">
       <use xlink:href="#DejaVuSans-50"/>
       <use x="63.623047" xlink:href="#DejaVuSans-46"/>
       <use x="95.410156" xlink:href="#DejaVuSans-48"/>
      </g>
     </g>
    </g>
    <g id="ytick_7">
     <g id="line2d_12">
      <g>
       <use style="stroke:#000000;stroke-width:0.8;" x="36" xlink:href="#m0e33381c4a" y="53.630985"/>
      </g>
     </g>
     <g id="text_13">
      <!-- 2.2 -->
      <g transform="translate(13.096875 57.430204)scale(0.1 -0.1)">
       <use xlink:href="#DejaVuSans-50"/>
       <use x="63.623047" xlink:href="#DejaVuSans-46"/>
       <use x="95.410156" xlink:href="#DejaVuSans-50"/>
      </g>
     </g>
    </g>
    <g id="text_14">
     <!-- Elongation -->
     <g transform="translate(7.017187 169.872187)rotate(-90)scale(0.1 -0.1)">
      <defs>
       <path d="M 9.8125 72.90625 
L 55.90625 72.90625 
L 55.90625 64.59375 
L 19.671875 64.59375 
L 19.671875 43.015625 
L 54.390625 43.015625 
L 54.390625 34.71875 
L 19.671875 34.71875 
L 19.671875 8.296875 
L 56.78125 8.296875 
L 56.78125 0 
L 9.8125 0 
z
" id="DejaVuSans-69"/>
       <path d="M 45.40625 27.984375 
Q 45.40625 37.75 41.375 43.109375 
Q 37.359375 48.484375 30.078125 48.484375 
Q 22.859375 48.484375 18.828125 43.109375 
Q 14.796875 37.75 14.796875 27.984375 
Q 14.796875 18.265625 18.828125 12.890625 
Q 22.859375 7.515625 30.078125 7.515625 
Q 37.359375 7.515625 41.375 12.890625 
Q 45.40625 18.265625 45.40625 27.984375 
z
M 54.390625 6.78125 
Q 54.390625 -7.171875 48.1875 -13.984375 
Q 42 -20.796875 29.203125 -20.796875 
Q 24.46875 -20.796875 20.265625 -20.09375 
Q 16.0625 -19.390625 12.109375 -17.921875 
L 12.109375 -9.1875 
Q 16.0625 -11.328125 19.921875 -12.34375 
Q 23.78125 -13.375 27.78125 -13.375 
Q 36.625 -13.375 41.015625 -8.765625 
Q 45.40625 -4.15625 45.40625 5.171875 
L 45.40625 9.625 
Q 42.625 4.78125 38.28125 2.390625 
Q 33.9375 0 27.875 0 
Q 17.828125 0 11.671875 7.65625 
Q 5.515625 15.328125 5.515625 27.984375 
Q 5.515625 40.671875 11.671875 48.328125 
Q 17.828125 56 27.875 56 
Q 33.9375 56 38.28125 53.609375 
Q 42.625 51.21875 45.40625 46.390625 
L 45.40625 54.6875 
L 54.390625 54.6875 
z
" id="DejaVuSans-103"/>
      </defs>
      <use xlink:href="#DejaVuSans-69"/>
      <use x="63.183594" xlink:href="#DejaVuSans-108"/>
      <use x="90.966797" xlink:href="#DejaVuSans-111"/>
      <use x="152.148438" xlink:href="#DejaVuSans-110"/>
      <use x="215.527344" xlink:href="#DejaVuSans-103"/>
      <use x="279.003906" xlink:href="#DejaVuSans-97"/>
      <use x="340.283203" xlink:href="#DejaVuSans-116"/>
      <use x="379.492188" xlink:href="#DejaVuSans-105"/>
      <use x="407.275391" xlink:href="#DejaVuSans-111"/>
      <use x="468.457031" xlink:href="#DejaVuSans-110"/>
     </g>
    </g>
   </g>
   <g id="line2d_13">
    <path clip-path="url(#p93672939a3)" d="M 61.503579 211.456686 
L 63.704439 208.897755 
L 65.938097 206.244265 
L 68.205228 203.500348 
L 70.50652 200.668927 
L 72.842681 197.751975 
L 75.214432 194.750712 
L 77.622517 191.665755 
L 80.067694 188.497228 
L 82.550742 185.244852 
L 85.072459 181.908008 
L 87.633662 178.485787 
L 90.235188 174.97703 
L 92.877895 171.380358 
L 95.562663 167.694198 
L 98.290392 163.916793 
L 101.062006 160.046228 
L 103.878449 156.080427 
L 106.740691 152.017173 
L 109.649725 147.854104 
L 112.606567 143.588726 
L 115.612258 139.218407 
L 118.667865 134.740383 
L 121.774482 130.151759 
L 124.933227 125.449504 
L 128.145245 120.630456 
L 131.41171 115.691312 
L 134.733824 110.628631 
L 138.112814 105.438829 
L 141.549941 100.118174 
L 145.046491 94.662782 
L 148.603782 89.068611 
L 148.603782 89.068611 
L 150.405625 86.218175 
" style="fill:none;stroke:#ff0000;stroke-linecap:square;stroke-width:1.5;"/>
   </g>
   <g id="line2d_14">
    <path clip-path="url(#p93672939a3)" d="M 63.936092 162.925196 
L 66.156566 160.135276 
L 68.41013 157.214015 
L 70.697462 154.161725 
L 73.019259 150.978417 
L 75.376235 147.663795 
L 77.769121 144.217259 
L 80.198666 140.637906 
L 82.665638 136.92453 
L 85.170823 133.075626 
L 87.715028 129.089394 
L 90.299079 124.963737 
L 92.923824 120.696266 
L 95.590128 116.284296 
L 98.298882 111.724849 
L 101.050996 107.01465 
L 103.847405 102.150124 
L 106.689064 97.127394 
L 109.576954 91.94227 
L 112.512078 86.590247 
L 115.495466 81.066494 
L 118.528172 75.365844 
L 118.528172 75.365844 
L 120.063355 72.447473 
" style="fill:none;stroke:#bfbf00;stroke-linecap:square;stroke-width:1.5;"/>
   </g>
   <g id="line2d_15">
    <path clip-path="url(#p93672939a3)" d="M 64.54243 213.119791 
L 66.755522 210.603091 
L 69.001213 207.969931 
L 71.28016 205.227451 
L 73.593033 202.380888 
L 75.94052 199.433993 
L 78.323325 196.389334 
L 80.742169 193.248542 
L 83.197788 190.01249 
L 85.690939 186.681434 
L 88.222394 183.255119 
L 90.792945 179.73286 
L 93.403403 176.113607 
L 96.054597 172.395991 
L 98.747377 168.578363 
L 101.482612 164.658822 
L 104.261193 160.635237 
L 107.08403 156.505264 
L 109.952055 152.26636 
L 112.866225 147.915789 
L 115.827514 143.450631 
L 118.836923 138.867784 
L 121.895474 134.163968 
L 125.004213 129.335726 
L 128.164212 124.379422 
L 131.376565 119.291239 
L 134.642392 114.067177 
L 137.962837 108.703049 
L 141.339072 103.194474 
L 144.772294 97.536877 
L 148.263727 91.725475 
L 148.263727 91.725475 
L 150.031661 88.760546 
L 151.814619 85.755277 
" style="fill:none;stroke:#bfbf00;stroke-linecap:square;stroke-width:1.5;"/>
   </g>
   <g id="line2d_16">
    <path clip-path="url(#p93672939a3)" d="M 70.036801 242.116364 
L 72.284603 239.853438 
L 74.565505 237.543391 
L 76.880173 235.186689 
L 79.22929 232.782539 
L 81.613554 230.329877 
L 84.03368 227.827525 
L 86.490399 225.274243 
L 88.984461 222.668737 
L 91.516631 220.009668 
L 94.087695 217.295653 
L 96.698456 214.525262 
L 99.349735 211.697022 
L 102.042374 208.809414 
L 104.777232 205.86087 
L 107.555192 202.849776 
L 110.377155 199.774465 
L 113.244042 196.633221 
L 116.156796 193.424274 
L 119.116383 190.1458 
L 122.12379 186.795917 
L 125.180026 183.372685 
L 128.286122 179.874106 
L 131.443135 176.298118 
L 134.652142 172.642595 
L 137.914247 168.905346 
L 141.230576 165.084112 
L 144.602279 161.176564 
L 148.030533 157.180301 
L 151.516538 153.092848 
L 155.06152 148.911653 
L 158.66673 144.634085 
L 162.333445 140.257432 
L 166.062966 135.7789 
L 169.856623 131.195608 
L 173.715768 126.504587 
L 177.641781 121.702776 
L 181.636068 116.787022 
L 185.700059 111.754076 
L 189.83521 106.60059 
L 189.83521 106.60059 
L 191.929932 103.977571 
" style="fill:none;stroke:#bfbf00;stroke-linecap:square;stroke-width:1.5;"/>
   </g>
   <g id="line2d_17">
    <path clip-path="url(#p93672939a3)" d="M 62.203304 152.322584 
L 64.401065 149.814539 
L 66.631536 147.206784 
L 68.895388 144.49932 
L 71.193309 141.692009 
L 73.526005 138.784569 
L 75.8942 135.776578 
L 78.298633 132.667467 
L 80.740065 129.456524 
L 83.219272 126.142892 
L 85.737052 122.725569 
L 88.294221 119.203408 
L 90.891617 115.575119 
L 93.530097 111.839267 
L 96.21054 107.994271 
L 98.933846 104.038407 
L 101.700938 99.969802 
L 104.512761 95.78644 
L 107.370285 91.486155 
L 110.274501 87.06663 
L 113.226425 82.525399 
L 116.2271 77.859839 
L 119.277592 73.067171 
L 119.277592 73.067171 
L 120.82186 70.622259 
" style="fill:none;stroke:#bfbf00;stroke-linecap:square;stroke-width:1.5;"/>
   </g>
   <g id="line2d_18">
    <path clip-path="url(#p93672939a3)" d="M 69.893311 234.618512 
L 72.135776 233.849739 
L 74.411081 232.612259 
L 76.719884 231.010448 
L 79.062854 229.13355 
L 81.44068 227.046757 
L 83.854065 224.794556 
L 86.30373 222.40658 
L 88.79041 219.90249 
L 91.314861 217.295364 
L 93.877855 214.593904 
L 96.480181 211.803869 
L 99.122647 208.928983 
L 101.806082 205.971544 
L 104.531333 202.932815 
L 107.299264 199.813303 
L 110.110764 196.612935 
L 112.966738 193.331192 
L 115.868115 189.967201 
L 118.815844 186.519799 
L 121.810895 182.987581 
L 124.854262 179.368937 
L 127.94696 175.662073 
L 131.090027 171.865036 
L 134.284524 167.97572 
L 137.531536 163.991883 
L 140.832173 159.911151 
L 144.187567 155.731023 
L 147.598875 151.448873 
L 151.067281 147.061953 
L 154.593991 142.567392 
L 158.180238 137.962197 
L 161.827281 133.24325 
L 165.536403 128.407304 
L 169.308913 123.450984 
L 173.146148 118.370777 
L 177.049469 113.163033 
L 181.020262 107.823957 
L 181.020262 107.823957 
L 183.031401 105.103941 
L 185.059941 102.349599 
" style="fill:none;stroke:#bfbf00;stroke-linecap:square;stroke-width:1.5;"/>
   </g>
   <g id="line2d_19">
    <path clip-path="url(#p93672939a3)" d="M 62.800331 204.935366 
L 65.018679 203.073514 
L 67.270132 201.075251 
L 69.555367 198.947895 
L 71.875078 196.697875 
L 74.229975 194.330748 
L 76.620785 191.851243 
L 79.048255 189.263325 
L 81.513148 186.570257 
L 84.016247 183.774675 
L 86.558351 180.878649 
L 89.140283 177.883749 
L 91.762883 174.791097 
L 94.427012 171.601416 
L 97.133552 168.315079 
L 99.883406 164.93214 
L 102.677499 161.452372 
L 105.516779 157.875294 
L 108.402216 154.200196 
L 111.334804 150.426158 
L 114.31556 146.552073 
L 117.345525 142.576656 
L 120.425766 138.498466 
L 123.557374 134.31591 
L 126.741466 130.027258 
L 129.979186 125.63065 
L 133.271703 121.124104 
L 136.620214 116.505523 
L 140.025943 111.772703 
L 143.490142 106.923335 
L 147.014092 101.955014 
L 150.599101 96.86524 
L 154.246507 91.651426 
L 154.246507 91.651426 
L 156.094035 88.997174 
" style="fill:none;stroke:#bfbf00;stroke-linecap:square;stroke-width:1.5;"/>
   </g>
   <g id="line2d_20">
    <path clip-path="url(#p93672939a3)" d="M 61.224154 241.600252 
L 63.426116 241.344624 
L 65.660935 239.774427 
L 67.929285 237.671152 
L 70.231856 235.345387 
L 72.569356 232.892848 
L 74.942509 230.348059 
L 77.352059 227.725394 
L 79.798766 225.031286 
L 82.283409 222.268558 
L 84.806788 219.438194 
L 87.36972 216.54015 
L 89.973044 213.573759 
L 92.617619 210.537949 
L 95.304324 207.431365 
L 98.034062 204.252438 
L 100.807756 200.999433 
L 103.626352 197.670474 
L 106.490819 194.263561 
L 109.402151 190.776582 
L 112.361363 187.207316 
L 115.369499 183.553442 
L 118.427623 179.812532 
L 121.536829 175.98206 
L 124.698235 172.059396 
L 127.912986 168.041801 
L 131.182254 163.926432 
L 134.507238 159.710332 
L 137.889167 155.390428 
L 141.329297 150.963527 
L 144.828913 146.426309 
L 148.38933 141.775326 
L 152.011892 137.00699 
L 155.697974 132.117569 
L 159.448981 127.103181 
L 163.26635 121.959785 
L 167.151547 116.683169 
L 171.106071 111.268948 
L 175.131452 105.712544 
L 175.131452 105.712544 
L 177.1712 102.879539 
L 179.229252 100.009182 
" style="fill:none;stroke:#bfbf00;stroke-linecap:square;stroke-width:1.5;"/>
   </g>
   <g id="line2d_21">
    <path clip-path="url(#p93672939a3)" d="M 61.323966 229.960834 
L 63.517841 227.599425 
L 65.744413 225.178214 
L 68.004357 222.700267 
L 70.298362 220.167086 
L 72.627134 217.579258 
L 74.991397 214.936801 
L 77.391893 212.23936 
L 79.829381 209.486324 
L 82.304642 206.6769 
L 84.818472 203.810155 
L 87.37169 200.885049 
L 89.965135 197.900454 
L 92.599665 194.855171 
L 95.27616 191.747934 
L 97.995523 188.577424 
L 100.758677 185.342268 
L 103.566571 182.041048 
L 106.420173 178.672299 
L 109.32048 175.234517 
L 112.268508 171.726154 
L 115.265302 168.145626 
L 118.31193 164.49131 
L 121.409488 160.761546 
L 124.559097 156.954639 
L 127.761905 153.068859 
L 131.019088 149.102445 
L 134.331849 145.0536 
L 137.701422 140.920499 
L 141.129068 136.701288 
L 144.616077 132.394082 
L 148.163771 127.996974 
L 151.773499 123.508029 
L 155.446645 118.925294 
L 159.184621 114.246795 
L 162.988871 109.470542 
L 166.860872 104.594531 
L 170.802131 99.616751 
L 170.802131 99.616751 
L 172.799212 97.089067 
" style="fill:none;stroke:#bfbf00;stroke-linecap:square;stroke-width:1.5;"/>
   </g>
   <g id="line2d_22">
    <path clip-path="url(#p93672939a3)" d="M 57.676036 189.877404 
L 59.859649 187.347631 
L 62.076115 184.703661 
L 64.32612 181.948135 
L 66.610365 179.083138 
L 68.929568 176.110237 
L 71.284468 173.030528 
L 73.675821 169.844676 
L 76.104403 166.552951 
L 78.571008 163.155263 
L 81.076452 159.651189 
L 83.621571 156.04 
L 86.207223 152.320682 
L 88.834288 148.491955 
L 91.503666 144.552288 
L 94.216284 140.49991 
L 96.97309 136.332826 
L 99.775058 132.048819 
L 102.623184 127.645459 
L 105.518492 123.120106 
L 108.462032 118.469916 
L 111.45488 113.691839 
L 114.49814 108.782617 
L 117.592943 103.738787 
L 120.740451 98.556677 
L 123.941853 93.232398 
L 127.198369 87.761842 
L 130.51125 82.140675 
L 130.51125 82.140675 
L 132.189227 79.272194 
L 133.881778 76.364328 
" style="fill:none;stroke:#bfbf00;stroke-linecap:square;stroke-width:1.5;"/>
   </g>
   <g id="line2d_23">
    <path clip-path="url(#p93672939a3)" d="M 59.834644 173.040608 
L 62.0162 169.864092 
L 64.230284 166.613591 
L 66.477569 163.288106 
L 68.758741 159.886504 
L 71.074507 156.407539 
L 73.425589 152.849849 
L 75.812728 149.211971 
L 78.236683 145.492339 
L 80.698232 141.689292 
L 83.198174 137.801077 
L 85.737327 133.825848 
L 88.316529 129.761672 
L 90.936639 125.606526 
L 93.59854 121.358303 
L 96.303134 117.014807 
L 99.051347 112.573755 
L 101.844129 108.032777 
L 104.682452 103.389416 
L 107.567315 98.641126 
L 110.49974 93.78527 
L 113.480775 88.819122 
L 116.511494 83.739861 
L 119.592998 78.544574 
L 119.592998 78.544574 
L 121.153146 75.902484 
L 122.726416 73.230251 
" style="fill:none;stroke:#bfbf00;stroke-linecap:square;stroke-width:1.5;"/>
   </g>
   <g id="line2d_24">
    <path clip-path="url(#p93672939a3)" d="M 65.067802 221.248467 
L 67.288029 222.561137 
L 69.541045 223.65251 
L 71.827512 224.490405 
L 74.14811 225.0445 
L 76.503536 225.290521 
L 78.894501 225.214386 
L 81.321735 224.814799 
L 83.785986 224.103133 
L 86.28802 223.100705 
L 88.82862 221.834643 
L 91.408589 220.333853 
L 94.028751 218.626029 
L 96.689946 216.735938 
L 99.393039 214.684744 
L 102.138913 212.489996 
L 104.928472 210.165961 
L 107.762643 207.72409 
L 110.642376 205.173488 
L 113.568641 202.521354 
L 116.542433 199.77334 
L 119.564772 196.933864 
L 122.6367 194.006345 
L 125.759284 190.993405 
L 128.933618 187.897022 
L 132.160819 184.718652 
L 135.442033 181.459331 
L 138.77843 178.119752 
L 142.171208 174.700329 
L 145.621594 171.201246 
L 149.13084 167.622505 
L 152.700229 163.963955 
L 156.331072 160.225327 
L 160.024707 156.406252 
L 163.782504 152.50629 
L 167.605862 148.524942 
L 171.496209 144.461671 
L 175.455004 140.315917 
L 179.483737 136.087107 
L 183.583927 131.774672 
L 187.757125 127.378059 
L 192.004912 122.89674 
L 196.3289 118.330229 
L 200.73073 113.678088 
L 200.73073 113.678088 
L 202.961357 111.319786 
" style="fill:none;stroke:#bfbf00;stroke-linecap:square;stroke-width:1.5;"/>
   </g>
   <g id="line2d_25">
    <path clip-path="url(#p93672939a3)" d="M 55.798464 204.905721 
L 57.963654 202.960185 
L 60.161409 200.873944 
L 62.392408 198.654389 
L 64.657346 196.307917 
L 66.956936 193.839966 
L 69.291907 191.255072 
L 71.663009 188.55694 
L 74.071009 185.748528 
L 76.516695 182.832114 
L 79.000873 179.809372 
L 81.524371 176.681438 
L 84.088037 173.448962 
L 86.692741 170.112162 
L 89.339374 166.670869 
L 92.028851 163.124557 
L 94.762109 159.472381 
L 97.54011 155.713201 
L 100.363837 151.845601 
L 103.234302 147.867914 
L 106.15254 143.778228 
L 109.119612 139.574405 
L 112.136607 135.254085 
L 115.204638 130.814697 
L 118.324849 126.253459 
L 121.49841 121.567387 
L 124.726523 116.753289 
L 128.010415 111.807774 
L 131.351346 106.727242 
L 134.750607 101.507886 
L 138.209516 96.145689 
L 141.729428 90.636415 
L 145.311727 84.975607 
L 145.311727 84.975607 
L 147.126713 82.086921 
" style="fill:none;stroke:#bfbf00;stroke-linecap:square;stroke-width:1.5;"/>
   </g>
   <g id="line2d_26">
    <path clip-path="url(#p93672939a3)" d="M 57.268484 215.442143 
L 59.438232 213.273325 
L 61.640457 210.986387 
L 63.875832 208.5906 
L 66.145046 206.093188 
L 68.448804 203.499716 
L 70.787831 200.814414 
L 73.162867 198.040433 
L 75.574674 195.180052 
L 78.024031 192.234843 
L 80.511737 189.205795 
L 83.038611 186.093418 
L 85.605492 182.89782 
L 88.213241 179.618771 
L 90.862741 176.255756 
L 93.554897 172.808006 
L 96.290635 169.274538 
L 99.070906 165.654178 
L 101.896685 161.945578 
L 104.76897 158.147236 
L 107.688786 154.257507 
L 110.657181 150.274616 
L 113.675232 146.196662 
L 116.74404 142.02163 
L 119.864735 137.747394 
L 123.038475 133.371718 
L 126.266446 128.892266 
L 129.549862 124.306601 
L 132.889969 119.612184 
L 136.288041 114.806382 
L 139.745384 109.886464 
L 143.263335 104.849601 
L 146.843262 99.69287 
L 150.486566 94.413252 
L 150.486566 94.413252 
L 152.332431 91.726391 
L 154.194681 89.007631 
" style="fill:none;stroke:#bfbf00;stroke-linecap:square;stroke-width:1.5;"/>
   </g>
   <g id="line2d_27">
    <path clip-path="url(#p93672939a3)" d="M 66.618735 229.337115 
L 68.856199 226.734827 
L 71.126595 224.008891 
L 73.43058 221.17593 
L 75.768826 218.245424 
L 78.142021 215.222716 
L 80.550869 212.11063 
L 82.996091 208.91039 
L 85.478424 205.622143 
L 87.998623 202.24529 
L 90.55746 198.778689 
L 93.155725 195.220783 
L 95.794226 191.569691 
L 98.473791 187.823263 
L 101.195267 183.979118 
L 103.959518 180.034675 
L 106.767431 175.987171 
L 109.619912 171.833667 
L 112.517889 167.571064 
L 115.462308 163.196103 
L 118.454141 158.705368 
L 121.494378 154.095288 
L 124.584034 149.362136 
L 127.724146 144.502024 
L 130.915772 139.510905 
L 134.159998 134.384568 
L 137.457929 129.118631 
L 140.810697 123.708539 
L 144.219459 118.14956 
L 147.685395 112.436776 
L 151.20971 106.56508 
L 154.793636 100.529169 
L 158.43843 94.323536 
L 158.43843 94.323536 
L 160.284053 91.155296 
" style="fill:none;stroke:#bfbf00;stroke-linecap:square;stroke-width:1.5;"/>
   </g>
   <g id="line2d_28">
    <path clip-path="url(#p93672939a3)" d="M 54.520284 144.224709 
L 56.698718 141.819684 
L 58.910253 139.284395 
L 61.155584 136.618482 
L 63.435423 133.821453 
L 65.750503 130.892667 
L 68.10157 127.831324 
L 70.489395 124.636453 
L 72.914764 121.306902 
L 75.378486 117.841328 
L 77.881389 114.238191 
L 80.424322 110.495746 
L 83.008156 106.612034 
L 85.633786 102.584879 
L 88.302127 98.411883 
L 91.014119 94.090412 
L 93.770725 89.617598 
L 96.572935 84.99033 
L 99.42176 80.205243 
L 102.31824 75.258716 
L 105.263441 70.14686 
L 105.263441 70.14686 
L 106.754652 67.527644 
L 108.258455 64.865512 
" style="fill:none;stroke:#bfbf00;stroke-linecap:square;stroke-width:1.5;"/>
   </g>
   <g id="line2d_29">
    <path clip-path="url(#p93672939a3)" d="M 66.575236 220.286681 
L 68.806111 218.334189 
L 71.070014 216.237136 
L 73.367618 214.010896 
L 75.699608 211.667487 
L 78.06669 209.216191 
L 80.469582 206.664101 
L 82.909023 204.016573 
L 85.385768 201.277581 
L 87.900591 198.450004 
L 90.454284 195.535842 
L 93.04766 192.536387 
L 95.681547 189.452353 
L 98.356799 186.283981 
L 101.074285 183.031111 
L 103.834898 179.693254 
L 106.639551 176.26963 
L 109.48918 172.759214 
L 112.38474 169.160759 
L 115.327214 165.472824 
L 118.317602 161.693792 
L 121.356933 157.821884 
L 124.446256 153.855168 
L 127.586646 149.791571 
L 130.779204 145.628886 
L 134.025054 141.364774 
L 137.325347 136.996771 
L 140.681259 132.522287 
L 144.093994 127.938613 
L 147.564783 123.242914 
L 151.094881 118.432238 
L 154.685574 113.503507 
L 158.338174 108.45352 
L 162.054021 103.278954 
L 165.834484 97.976354 
L 165.834484 97.976354 
L 167.749382 95.275927 
" style="fill:none;stroke:#bfbf00;stroke-linecap:square;stroke-width:1.5;"/>
   </g>
   <g id="line2d_30">
    <path clip-path="url(#p93672939a3)" d="M 71.542415 177.444949 
L 73.784398 174.053358 
L 76.058963 170.581267 
L 78.366756 167.027054 
L 80.708437 163.388966 
L 83.084682 159.66512 
L 85.496184 155.853514 
L 87.943649 151.952028 
L 90.427802 147.958428 
L 92.949385 143.870369 
L 95.509156 139.685393 
L 98.107892 135.400933 
L 100.746387 131.01431 
L 103.425452 126.522732 
L 106.145921 121.923294 
L 108.908644 117.212974 
L 111.714491 112.388634 
L 114.564354 107.447014 
L 117.459141 102.38473 
L 120.399787 97.198273 
L 123.387243 91.884001 
L 126.422485 86.43814 
L 129.50651 80.856777 
L 129.50651 80.856777 
L 131.067133 78.014021 
" style="fill:none;stroke:#bfbf00;stroke-linecap:square;stroke-width:1.5;"/>
   </g>
   <g id="line2d_31">
    <path clip-path="url(#p93672939a3)" d="M 66.78779 193.281959 
L 69.003284 193.685325 
L 71.251316 193.944735 
L 73.532542 194.056506 
L 75.847633 194.0177 
L 78.197279 193.826191 
L 80.582182 193.480697 
L 83.003064 192.980786 
L 85.460665 192.326843 
L 87.95574 191.520001 
L 90.489065 190.562061 
L 93.061433 189.45538 
L 95.673655 188.202754 
L 98.326566 186.807304 
L 101.021016 185.272359 
L 103.757877 183.60135 
L 106.538045 181.797718 
L 109.362432 179.86484 
L 112.231977 177.805958 
L 115.147639 175.62414 
L 118.110398 173.322236 
L 121.121262 170.90286 
L 124.181258 168.368374 
L 127.291441 165.720881 
L 130.452888 162.962228 
L 133.666704 160.094008 
L 136.934018 157.117571 
L 140.255984 154.034035 
L 143.633786 150.844298 
L 147.068632 147.549055 
L 150.56176 144.148809 
L 154.114434 140.643888 
L 157.727948 137.034464 
L 161.403624 133.320561 
L 165.142814 129.502073 
L 168.946898 125.578783 
L 172.817287 121.55037 
L 176.755423 117.416426 
L 180.762776 113.176473 
L 184.840849 108.829972 
L 184.840849 108.829972 
L 186.906884 106.616585 
L 188.991176 104.37634 
" style="fill:none;stroke:#bfbf00;stroke-linecap:square;stroke-width:1.5;"/>
   </g>
   <g id="line2d_32">
    <path clip-path="url(#p93672939a3)" d="M 55.263926 184.524467 
L 57.420221 181.806898 
L 59.608802 178.991039 
L 61.830336 176.078251 
L 64.08551 173.069503 
L 66.375025 169.965407 
L 68.699601 166.766254 
L 71.059977 163.472041 
L 73.45691 160.082501 
L 75.891175 156.597123 
L 78.363567 153.015177 
L 80.874904 149.335722 
L 83.42602 145.557631 
L 86.017773 141.679597 
L 88.651042 137.700148 
L 91.326729 133.617654 
L 94.045758 129.430336 
L 96.809076 125.13627 
L 99.617655 120.733399 
L 102.472491 116.219529 
L 105.374606 111.592339 
L 108.325046 106.849384 
L 111.324886 101.988093 
L 114.375225 97.005775 
L 117.477192 91.899618 
L 120.631943 86.666693 
L 123.840664 81.303951 
L 123.840664 81.303951 
L 125.465641 78.572914 
L 127.104568 75.808227 
" style="fill:none;stroke:#bfbf00;stroke-linecap:square;stroke-width:1.5;"/>
   </g>
   <g id="line2d_33">
    <path clip-path="url(#p93672939a3)" d="M 46.145455 161.07778 
L 48.256123 159.287963 
L 50.399155 157.374295 
L 52.575247 155.337402 
L 54.785114 153.177859 
L 57.029491 150.896164 
L 59.309132 148.49272 
L 61.62481 145.967814 
L 63.977323 143.321603 
L 66.367485 140.554102 
L 68.796137 137.66517 
L 71.26414 134.654505 
L 73.772379 131.521632 
L 76.321764 128.265902 
L 78.913229 124.886484 
L 81.547735 121.382363 
L 84.226267 117.752334 
L 86.949839 113.995001 
L 89.719494 110.108775 
L 92.536301 106.09187 
L 95.401361 101.942299 
L 98.315804 97.657876 
L 101.280791 93.236205 
L 104.297518 88.674684 
L 107.36721 83.970497 
L 110.491131 79.120609 
L 113.670574 74.121761 
L 113.670574 74.121761 
L 115.281532 71.565397 
L 116.906874 68.970465 
" style="fill:none;stroke:#bfbf00;stroke-linecap:square;stroke-width:1.5;"/>
   </g>
   <g id="line2d_34">
    <path clip-path="url(#p93672939a3)" d="M 63.781077 162.566259 
L 65.989928 160.557642 
L 68.23167 158.433284 
L 70.506981 156.193746 
L 72.816555 153.839469 
L 75.161103 151.370767 
L 77.541355 148.787808 
L 79.958059 146.090605 
L 82.411979 143.279007 
L 84.903901 140.352688 
L 87.434629 137.311148 
L 90.004988 134.153702 
L 92.615823 130.879479 
L 95.267999 127.487417 
L 97.962405 123.976263 
L 100.69995 120.34457 
L 103.481567 116.59069 
L 106.30821 112.712778 
L 109.180859 108.708784 
L 112.100516 104.576454 
L 115.068211 100.313322 
L 118.084995 95.91671 
L 121.151949 91.38372 
L 124.270177 86.711232 
L 127.440812 81.895893 
L 127.440812 81.895893 
L 129.046143 79.433543 
L 130.665014 76.934114 
" style="fill:none;stroke:#bfbf00;stroke-linecap:square;stroke-width:1.5;"/>
   </g>
   <g id="line2d_35">
    <path clip-path="url(#p93672939a3)" d="M 59.53757 225.778371 
L 61.718781 223.782265 
L 63.932469 221.633309 
L 66.179301 219.353638 
L 68.459963 216.959242 
L 70.775155 214.461604 
L 73.125596 211.868941 
L 75.512023 209.187086 
L 77.935191 206.420123 
L 80.395873 203.570839 
L 82.894864 200.641036 
L 85.432976 197.631769 
L 88.011043 194.54351 
L 90.62992 191.376265 
L 93.290482 188.129673 
L 95.993628 184.803067 
L 98.740278 181.395526 
L 101.531377 177.905913 
L 104.367891 174.332907 
L 107.250812 170.675023 
L 110.181158 166.930628 
L 113.15997 163.097958 
L 116.188316 159.175127 
L 119.267293 155.160132 
L 122.398022 151.050866 
L 125.581654 146.845113 
L 128.819367 142.54056 
L 132.11237 138.134796 
L 135.461902 133.625311 
L 138.869231 129.009503 
L 142.335656 124.284671 
L 145.862509 119.448023 
L 149.451155 114.496667 
L 153.10299 109.427617 
L 156.819444 104.237788 
L 160.601982 98.923995 
L 160.601982 98.923995 
L 162.518501 96.21959 
L 164.452105 93.482952 
" style="fill:none;stroke:#bfbf00;stroke-linecap:square;stroke-width:1.5;"/>
   </g>
   <g id="line2d_36">
    <path clip-path="url(#p93672939a3)" d="M 62.255 227.269551 
L 64.484054 229.185416 
L 66.746407 230.813919 
L 69.042731 232.054996 
L 71.37372 232.794556 
L 73.740081 232.938029 
L 76.142538 232.455093 
L 78.581833 231.395263 
L 81.058726 229.857001 
L 83.573993 227.944193 
L 86.128431 225.74195 
L 88.722853 223.312085 
L 91.358095 220.697136 
L 94.035008 217.925772 
L 96.754467 215.017188 
L 99.517365 211.984184 
L 102.324617 208.835226 
L 105.17716 205.575793 
L 108.075951 202.209263 
L 111.021971 198.737506 
L 114.016221 195.161284 
L 117.059729 191.480525 
L 120.153542 187.69451 
L 123.298733 183.80201 
L 126.4964 179.801382 
L 129.747664 175.690633 
L 133.053672 171.467479 
L 136.415595 167.129373 
L 139.83463 162.673538 
L 143.312001 158.096983 
L 146.848957 153.39652 
L 150.446774 148.568771 
L 154.106754 143.610178 
L 157.830225 138.517004 
L 161.618545 133.285341 
L 165.473096 127.911103 
L 169.395288 122.390032 
L 173.386559 116.717695 
L 177.448374 110.889479 
L 181.582223 104.90059 
L 181.582223 104.90059 
L 183.676634 101.844344 
" style="fill:none;stroke:#bfbf00;stroke-linecap:square;stroke-width:1.5;"/>
   </g>
   <g id="line2d_37">
    <path clip-path="url(#p93672939a3)" d="M 56.766049 209.64253 
L 58.929322 210.036986 
L 61.124914 210.242136 
L 63.353495 210.252932 
L 65.615751 210.066647 
L 67.912386 209.682984 
L 70.244123 209.104015 
L 72.611702 208.333934 
L 75.015881 207.378684 
L 77.45744 206.245506 
L 79.937176 204.942482 
L 82.455908 203.478096 
L 85.014477 201.860874 
L 87.613744 200.099097 
L 90.254592 198.200594 
L 92.937927 196.17261 
L 95.664679 194.021737 
L 98.435802 191.753884 
L 101.252273 189.374287 
L 104.115096 186.887534 
L 107.025299 184.29761 
L 109.983939 181.607945 
L 112.992098 178.821464 
L 116.050886 175.940642 
L 119.161442 172.96755 
L 122.324935 169.903901 
L 125.542562 166.751095 
L 128.815552 163.510252 
L 132.145163 160.182252 
L 135.532688 156.76776 
L 138.979451 153.267257 
L 142.486808 149.681066 
L 146.056151 146.009368 
L 149.688904 142.252228 
L 153.386529 138.409609 
L 157.150521 134.481387 
L 160.982414 130.467368 
L 164.883776 126.3673 
L 168.856215 122.180884 
L 172.901373 117.907784 
L 177.020936 113.547641 
L 181.216623 109.100077 
L 185.490194 104.564706 
L 185.490194 104.564706 
L 187.656748 102.263973 
" style="fill:none;stroke:#bfbf00;stroke-linecap:square;stroke-width:1.5;"/>
   </g>
   <g id="line2d_38">
    <path clip-path="url(#p93672939a3)" d="M 69.330199 211.519209 
L 71.587002 214.433786 
L 73.876967 217.31845 
L 76.200754 220.172346 
L 78.559038 222.994185 
L 80.952508 225.78194 
L 83.381872 228.532245 
L 85.847852 231.239112 
L 88.351188 233.890848 
L 90.892636 236.461497 
L 93.47297 238.882015 
L 96.092981 240.919245 
L 98.75348 241.753133 
L 101.455296 240.594449 
L 104.199275 238.403726 
L 106.986284 235.859688 
L 109.81721 233.146299 
L 112.692959 230.319192 
L 115.614458 227.398926 
L 118.582655 224.393971 
L 121.598519 221.307796 
L 124.663039 218.141493 
L 127.777229 214.894894 
L 130.942123 211.567101 
L 134.158778 208.156758 
L 137.428274 204.662198 
L 140.751714 201.081531 
L 144.130226 197.412693 
L 147.564958 193.653482 
L 151.057087 189.801575 
L 154.60781 185.854544 
L 158.218351 181.809867 
L 161.889958 177.664929 
L 165.623904 173.417031 
L 169.421486 169.063393 
L 173.284026 164.601156 
L 177.212873 160.027382 
L 181.209399 155.339059 
L 185.275002 150.5331 
L 189.411104 145.606346 
L 193.619152 140.555568 
L 197.900619 135.377467 
L 202.257001 130.068679 
L 206.689816 124.625774 
L 211.200609 119.045259 
L 211.200609 119.045259 
L 213.485736 116.202291 
" style="fill:none;stroke:#bfbf00;stroke-linecap:square;stroke-width:1.5;"/>
   </g>
   <g id="line2d_39">
    <path clip-path="url(#p93672939a3)" d="M 58.785059 44.443636 
L 95.847303 61.672692 
L 149.763806 87.064055 
L 198.221178 109.793165 
L 221.169118 120.401427 
L 249.054545 133.071666 
L 249.054545 133.071666 
" style="fill:none;stroke:#008000;stroke-linecap:square;stroke-width:1.5;"/>
   </g>
   <g id="patch_3">
    <path d="M 36 252 
L 36 34.56 
" style="fill:none;stroke:#000000;stroke-linecap:square;stroke-linejoin:miter;stroke-width:0.8;"/>
   </g>
   <g id="patch_4">
    <path d="M 259.2 252 
L 259.2 34.56 
" style="fill:none;stroke:#000000;stroke-linecap:square;stroke-linejoin:miter;stroke-width:0.8;"/>
   </g>
   <g id="patch_5">
    <path d="M 36 252 
L 259.2 252 
" style="fill:none;stroke:#000000;stroke-linecap:square;stroke-linejoin:miter;stroke-width:0.8;"/>
   </g>
   <g id="patch_6">
    <path d="M 36 34.56 
L 259.2 34.56 
" style="fill:none;stroke:#000000;stroke-linecap:square;stroke-linejoin:miter;stroke-width:0.8;"/>
   </g>
   <g id="text_15">
    <!--  0.68 -->
    <g transform="translate(150.405625 86.218175)scale(0.1 -0.1)">
     <defs>
      <path id="DejaVuSans-32"/>
     </defs>
     <use xlink:href="#DejaVuSans-32"/>
     <use x="31.787109" xlink:href="#DejaVuSans-48"/>
     <use x="95.410156" xlink:href="#DejaVuSans-46"/>
     <use x="127.197266" xlink:href="#DejaVuSans-54"/>
     <use x="190.820312" xlink:href="#DejaVuSans-56"/>
    </g>
   </g>
   <g id="text_16">
    <!--  f=1 -->
    <g transform="translate(42.750064 211.456686)scale(0.1 -0.1)">
     <defs>
      <path d="M 37.109375 75.984375 
L 37.109375 68.5 
L 28.515625 68.5 
Q 23.6875 68.5 21.796875 66.546875 
Q 19.921875 64.59375 19.921875 59.515625 
L 19.921875 54.6875 
L 34.71875 54.6875 
L 34.71875 47.703125 
L 19.921875 47.703125 
L 19.921875 0 
L 10.890625 0 
L 10.890625 47.703125 
L 2.296875 47.703125 
L 2.296875 54.6875 
L 10.890625 54.6875 
L 10.890625 58.5 
Q 10.890625 67.625 15.140625 71.796875 
Q 19.390625 75.984375 28.609375 75.984375 
z
" id="DejaVuSans-102"/>
      <path d="M 10.59375 45.40625 
L 73.1875 45.40625 
L 73.1875 37.203125 
L 10.59375 37.203125 
z
M 10.59375 25.484375 
L 73.1875 25.484375 
L 73.1875 17.1875 
L 10.59375 17.1875 
z
" id="DejaVuSans-61"/>
     </defs>
     <use xlink:href="#DejaVuSans-32"/>
     <use x="31.787109" xlink:href="#DejaVuSans-102"/>
     <use x="66.992188" xlink:href="#DejaVuSans-61"/>
     <use x="150.78125" xlink:href="#DejaVuSans-49"/>
    </g>
   </g>
  </g>
 </g>
 <defs>
  <clipPath id="p93672939a3">
   <rect height="217.44" width="223.2" x="36" y="34.56"/>
  </clipPath>
 </defs>
</svg>
