<?xml version="1.0" encoding="utf-8" standalone="no"?>
<!DOCTYPE svg PUBLIC "-//W3C//DTD SVG 1.1//EN"
  "http://www.w3.org/Graphics/SVG/1.1/DTD/svg11.dtd">
<!-- Created with matplotlib (https://matplotlib.org/) -->
<svg height="288pt" version="1.1" viewBox="0 0 288 288" width="288pt" xmlns="http://www.w3.org/2000/svg" xmlns:xlink="http://www.w3.org/1999/xlink">
 <defs>
  <style type="text/css">
*{stroke-linecap:butt;stroke-linejoin:round;}
  </style>
 </defs>
 <g id="figure_1">
  <g id="patch_1">
   <path d="M 0 288 
L 288 288 
L 288 0 
L 0 0 
z
" style="fill:#ffffff;"/>
  </g>
  <g id="axes_1">
   <g id="patch_2">
    <path d="M 36 252 
L 259.2 252 
L 259.2 34.56 
L 36 34.56 
z
" style="fill:#ffffff;"/>
   </g>
   <g id="matplotlib.axis_1">
    <g id="xtick_1">
     <g id="line2d_1">
      <defs>
       <path d="M 0 0 
L 0 3.5 
" id="mc62f092d9b" style="stroke:#000000;stroke-width:0.8;"/>
      </defs>
      <g>
       <use style="stroke:#000000;stroke-width:0.8;" x="67.307808" xlink:href="#mc62f092d9b" y="252"/>
      </g>
     </g>
     <g id="text_1">
      <!-- 30 -->
      <defs>
       <path d="M 40.578125 39.3125 
Q 47.65625 37.796875 51.625 33 
Q 55.609375 28.21875 55.609375 21.1875 
Q 55.609375 10.40625 48.1875 4.484375 
Q 40.765625 -1.421875 27.09375 -1.421875 
Q 22.515625 -1.421875 17.65625 -0.515625 
Q 12.796875 0.390625 7.625 2.203125 
L 7.625 11.71875 
Q 11.71875 9.328125 16.59375 8.109375 
Q 21.484375 6.890625 26.8125 6.890625 
Q 36.078125 6.890625 40.9375 10.546875 
Q 45.796875 14.203125 45.796875 21.1875 
Q 45.796875 27.640625 41.28125 31.265625 
Q 36.765625 34.90625 28.71875 34.90625 
L 20.21875 34.90625 
L 20.21875 43.015625 
L 29.109375 43.015625 
Q 36.375 43.015625 40.234375 45.921875 
Q 44.09375 48.828125 44.09375 54.296875 
Q 44.09375 59.90625 40.109375 62.90625 
Q 36.140625 65.921875 28.71875 65.921875 
Q 24.65625 65.921875 20.015625 65.03125 
Q 15.375 64.15625 9.8125 62.3125 
L 9.8125 71.09375 
Q 15.4375 72.65625 20.34375 73.4375 
Q 25.25 74.21875 29.59375 74.21875 
Q 40.828125 74.21875 47.359375 69.109375 
Q 53.90625 64.015625 53.90625 55.328125 
Q 53.90625 49.265625 50.4375 45.09375 
Q 46.96875 40.921875 40.578125 39.3125 
z
" id="DejaVuSans-51"/>
       <path d="M 31.78125 66.40625 
Q 24.171875 66.40625 20.328125 58.90625 
Q 16.5 51.421875 16.5 36.375 
Q 16.5 21.390625 20.328125 13.890625 
Q 24.171875 6.390625 31.78125 6.390625 
Q 39.453125 6.390625 43.28125 13.890625 
Q 47.125 21.390625 47.125 36.375 
Q 47.125 51.421875 43.28125 58.90625 
Q 39.453125 66.40625 31.78125 66.40625 
z
M 31.78125 74.21875 
Q 44.046875 74.21875 50.515625 64.515625 
Q 56.984375 54.828125 56.984375 36.375 
Q 56.984375 17.96875 50.515625 8.265625 
Q 44.046875 -1.421875 31.78125 -1.421875 
Q 19.53125 -1.421875 13.0625 8.265625 
Q 6.59375 17.96875 6.59375 36.375 
Q 6.59375 54.828125 13.0625 64.515625 
Q 19.53125 74.21875 31.78125 74.21875 
z
" id="DejaVuSans-48"/>
      </defs>
      <g transform="translate(60.945308 266.598437)scale(0.1 -0.1)">
       <use xlink:href="#DejaVuSans-51"/>
       <use x="63.623047" xlink:href="#DejaVuSans-48"/>
      </g>
     </g>
    </g>
    <g id="xtick_2">
     <g id="line2d_2">
      <g>
       <use style="stroke:#000000;stroke-width:0.8;" x="114.87197" xlink:href="#mc62f092d9b" y="252"/>
      </g>
     </g>
     <g id="text_2">
      <!-- 35 -->
      <defs>
       <path d="M 10.796875 72.90625 
L 49.515625 72.90625 
L 49.515625 64.59375 
L 19.828125 64.59375 
L 19.828125 46.734375 
Q 21.96875 47.46875 24.109375 47.828125 
Q 26.265625 48.1875 28.421875 48.1875 
Q 40.625 48.1875 47.75 41.5 
Q 54.890625 34.8125 54.890625 23.390625 
Q 54.890625 11.625 47.5625 5.09375 
Q 40.234375 -1.421875 26.90625 -1.421875 
Q 22.3125 -1.421875 17.546875 -0.640625 
Q 12.796875 0.140625 7.71875 1.703125 
L 7.71875 11.625 
Q 12.109375 9.234375 16.796875 8.0625 
Q 21.484375 6.890625 26.703125 6.890625 
Q 35.15625 6.890625 40.078125 11.328125 
Q 45.015625 15.765625 45.015625 23.390625 
Q 45.015625 31 40.078125 35.4375 
Q 35.15625 39.890625 26.703125 39.890625 
Q 22.75 39.890625 18.8125 39.015625 
Q 14.890625 38.140625 10.796875 36.28125 
z
" id="DejaVuSans-53"/>
      </defs>
      <g transform="translate(108.50947 266.598437)scale(0.1 -0.1)">
       <use xlink:href="#DejaVuSans-51"/>
       <use x="63.623047" xlink:href="#DejaVuSans-53"/>
      </g>
     </g>
    </g>
    <g id="xtick_3">
     <g id="line2d_3">
      <g>
       <use style="stroke:#000000;stroke-width:0.8;" x="162.436133" xlink:href="#mc62f092d9b" y="252"/>
      </g>
     </g>
     <g id="text_3">
      <!-- 40 -->
      <defs>
       <path d="M 37.796875 64.3125 
L 12.890625 25.390625 
L 37.796875 25.390625 
z
M 35.203125 72.90625 
L 47.609375 72.90625 
L 47.609375 25.390625 
L 58.015625 25.390625 
L 58.015625 17.1875 
L 47.609375 17.1875 
L 47.609375 0 
L 37.796875 0 
L 37.796875 17.1875 
L 4.890625 17.1875 
L 4.890625 26.703125 
z
" id="DejaVuSans-52"/>
      </defs>
      <g transform="translate(156.073633 266.598437)scale(0.1 -0.1)">
       <use xlink:href="#DejaVuSans-52"/>
       <use x="63.623047" xlink:href="#DejaVuSans-48"/>
      </g>
     </g>
    </g>
    <g id="xtick_4">
     <g id="line2d_4">
      <g>
       <use style="stroke:#000000;stroke-width:0.8;" x="210.000295" xlink:href="#mc62f092d9b" y="252"/>
      </g>
     </g>
     <g id="text_4">
      <!-- 45 -->
      <g transform="translate(203.637795 266.598437)scale(0.1 -0.1)">
       <use xlink:href="#DejaVuSans-52"/>
       <use x="63.623047" xlink:href="#DejaVuSans-53"/>
      </g>
     </g>
    </g>
    <g id="xtick_5">
     <g id="line2d_5">
      <g>
       <use style="stroke:#000000;stroke-width:0.8;" x="257.564458" xlink:href="#mc62f092d9b" y="252"/>
      </g>
     </g>
     <g id="text_5">
      <!-- 50 -->
      <g transform="translate(251.201958 266.598437)scale(0.1 -0.1)">
       <use xlink:href="#DejaVuSans-53"/>
       <use x="63.623047" xlink:href="#DejaVuSans-48"/>
      </g>
     </g>
    </g>
    <g id="text_6">
     <!-- Inclination -->
     <defs>
      <path d="M 9.8125 72.90625 
L 19.671875 72.90625 
L 19.671875 0 
L 9.8125 0 
z
" id="DejaVuSans-73"/>
      <path d="M 54.890625 33.015625 
L 54.890625 0 
L 45.90625 0 
L 45.90625 32.71875 
Q 45.90625 40.484375 42.875 44.328125 
Q 39.84375 48.1875 33.796875 48.1875 
Q 26.515625 48.1875 22.3125 43.546875 
Q 18.109375 38.921875 18.109375 30.90625 
L 18.109375 0 
L 9.078125 0 
L 9.078125 54.6875 
L 18.109375 54.6875 
L 18.109375 46.1875 
Q 21.34375 51.125 25.703125 53.5625 
Q 30.078125 56 35.796875 56 
Q 45.21875 56 50.046875 50.171875 
Q 54.890625 44.34375 54.890625 33.015625 
z
" id="DejaVuSans-110"/>
      <path d="M 48.78125 52.59375 
L 48.78125 44.1875 
Q 44.96875 46.296875 41.140625 47.34375 
Q 37.3125 48.390625 33.40625 48.390625 
Q 24.65625 48.390625 19.8125 42.84375 
Q 14.984375 37.3125 14.984375 27.296875 
Q 14.984375 17.28125 19.8125 11.734375 
Q 24.65625 6.203125 33.40625 6.203125 
Q 37.3125 6.203125 41.140625 7.25 
Q 44.96875 8.296875 48.78125 10.40625 
L 48.78125 2.09375 
Q 45.015625 0.34375 40.984375 -0.53125 
Q 36.96875 -1.421875 32.421875 -1.421875 
Q 20.0625 -1.421875 12.78125 6.34375 
Q 5.515625 14.109375 5.515625 27.296875 
Q 5.515625 40.671875 12.859375 48.328125 
Q 20.21875 56 33.015625 56 
Q 37.15625 56 41.109375 55.140625 
Q 45.0625 54.296875 48.78125 52.59375 
z
" id="DejaVuSans-99"/>
      <path d="M 9.421875 75.984375 
L 18.40625 75.984375 
L 18.40625 0 
L 9.421875 0 
z
" id="DejaVuSans-108"/>
      <path d="M 9.421875 54.6875 
L 18.40625 54.6875 
L 18.40625 0 
L 9.421875 0 
z
M 9.421875 75.984375 
L 18.40625 75.984375 
L 18.40625 64.59375 
L 9.421875 64.59375 
z
" id="DejaVuSans-105"/>
      <path d="M 34.28125 27.484375 
Q 23.390625 27.484375 19.1875 25 
Q 14.984375 22.515625 14.984375 16.5 
Q 14.984375 11.71875 18.140625 8.90625 
Q 21.296875 6.109375 26.703125 6.109375 
Q 34.1875 6.109375 38.703125 11.40625 
Q 43.21875 16.703125 43.21875 25.484375 
L 43.21875 27.484375 
z
M 52.203125 31.203125 
L 52.203125 0 
L 43.21875 0 
L 43.21875 8.296875 
Q 40.140625 3.328125 35.546875 0.953125 
Q 30.953125 -1.421875 24.3125 -1.421875 
Q 15.921875 -1.421875 10.953125 3.296875 
Q 6 8.015625 6 15.921875 
Q 6 25.140625 12.171875 29.828125 
Q 18.359375 34.515625 30.609375 34.515625 
L 43.21875 34.515625 
L 43.21875 35.40625 
Q 43.21875 41.609375 39.140625 45 
Q 35.0625 48.390625 27.6875 48.390625 
Q 23 48.390625 18.546875 47.265625 
Q 14.109375 46.140625 10.015625 43.890625 
L 10.015625 52.203125 
Q 14.9375 54.109375 19.578125 55.046875 
Q 24.21875 56 28.609375 56 
Q 40.484375 56 46.34375 49.84375 
Q 52.203125 43.703125 52.203125 31.203125 
z
" id="DejaVuSans-97"/>
      <path d="M 18.3125 70.21875 
L 18.3125 54.6875 
L 36.8125 54.6875 
L 36.8125 47.703125 
L 18.3125 47.703125 
L 18.3125 18.015625 
Q 18.3125 11.328125 20.140625 9.421875 
Q 21.96875 7.515625 27.59375 7.515625 
L 36.8125 7.515625 
L 36.8125 0 
L 27.59375 0 
Q 17.1875 0 13.234375 3.875 
Q 9.28125 7.765625 9.28125 18.015625 
L 9.28125 47.703125 
L 2.6875 47.703125 
L 2.6875 54.6875 
L 9.28125 54.6875 
L 9.28125 70.21875 
z
" id="DejaVuSans-116"/>
      <path d="M 30.609375 48.390625 
Q 23.390625 48.390625 19.1875 42.75 
Q 14.984375 37.109375 14.984375 27.296875 
Q 14.984375 17.484375 19.15625 11.84375 
Q 23.34375 6.203125 30.609375 6.203125 
Q 37.796875 6.203125 41.984375 11.859375 
Q 46.1875 17.53125 46.1875 27.296875 
Q 46.1875 37.015625 41.984375 42.703125 
Q 37.796875 48.390625 30.609375 48.390625 
z
M 30.609375 56 
Q 42.328125 56 49.015625 48.375 
Q 55.71875 40.765625 55.71875 27.296875 
Q 55.71875 13.875 49.015625 6.21875 
Q 42.328125 -1.421875 30.609375 -1.421875 
Q 18.84375 -1.421875 12.171875 6.21875 
Q 5.515625 13.875 5.515625 27.296875 
Q 5.515625 40.765625 12.171875 48.375 
Q 18.84375 56 30.609375 56 
z
" id="DejaVuSans-111"/>
     </defs>
     <g transform="translate(121.61875 280.276563)scale(0.1 -0.1)">
      <use xlink:href="#DejaVuSans-73"/>
      <use x="29.492188" xlink:href="#DejaVuSans-110"/>
      <use x="92.871094" xlink:href="#DejaVuSans-99"/>
      <use x="147.851562" xlink:href="#DejaVuSans-108"/>
      <use x="175.634766" xlink:href="#DejaVuSans-105"/>
      <use x="203.417969" xlink:href="#DejaVuSans-110"/>
      <use x="266.796875" xlink:href="#DejaVuSans-97"/>
      <use x="328.076172" xlink:href="#DejaVuSans-116"/>
      <use x="367.285156" xlink:href="#DejaVuSans-105"/>
      <use x="395.068359" xlink:href="#DejaVuSans-111"/>
      <use x="456.25" xlink:href="#DejaVuSans-110"/>
     </g>
    </g>
   </g>
   <g id="matplotlib.axis_2">
    <g id="ytick_1">
     <g id="line2d_6">
      <defs>
       <path d="M 0 0 
L -3.5 0 
" id="m90263aaba9" style="stroke:#000000;stroke-width:0.8;"/>
      </defs>
      <g>
       <use style="stroke:#000000;stroke-width:0.8;" x="36" xlink:href="#m90263aaba9" y="222.747873"/>
      </g>
     </g>
     <g id="text_7">
      <!-- 1.2 -->
      <defs>
       <path d="M 12.40625 8.296875 
L 28.515625 8.296875 
L 28.515625 63.921875 
L 10.984375 60.40625 
L 10.984375 69.390625 
L 28.421875 72.90625 
L 38.28125 72.90625 
L 38.28125 8.296875 
L 54.390625 8.296875 
L 54.390625 0 
L 12.40625 0 
z
" id="DejaVuSans-49"/>
       <path d="M 10.6875 12.40625 
L 21 12.40625 
L 21 0 
L 10.6875 0 
z
" id="DejaVuSans-46"/>
       <path d="M 19.1875 8.296875 
L 53.609375 8.296875 
L 53.609375 0 
L 7.328125 0 
L 7.328125 8.296875 
Q 12.9375 14.109375 22.625 23.890625 
Q 32.328125 33.6875 34.8125 36.53125 
Q 39.546875 41.84375 41.421875 45.53125 
Q 43.3125 49.21875 43.3125 52.78125 
Q 43.3125 58.59375 39.234375 62.25 
Q 35.15625 65.921875 28.609375 65.921875 
Q 23.96875 65.921875 18.8125 64.3125 
Q 13.671875 62.703125 7.8125 59.421875 
L 7.8125 69.390625 
Q 13.765625 71.78125 18.9375 73 
Q 24.125 74.21875 28.421875 74.21875 
Q 39.75 74.21875 46.484375 68.546875 
Q 53.21875 62.890625 53.21875 53.421875 
Q 53.21875 48.921875 51.53125 44.890625 
Q 49.859375 40.875 45.40625 35.40625 
Q 44.1875 33.984375 37.640625 27.21875 
Q 31.109375 20.453125 19.1875 8.296875 
z
" id="DejaVuSans-50"/>
      </defs>
      <g transform="translate(13.096875 226.547092)scale(0.1 -0.1)">
       <use xlink:href="#DejaVuSans-49"/>
       <use x="63.623047" xlink:href="#DejaVuSans-46"/>
       <use x="95.410156" xlink:href="#DejaVuSans-50"/>
      </g>
     </g>
    </g>
    <g id="ytick_2">
     <g id="line2d_7">
      <g>
       <use style="stroke:#000000;stroke-width:0.8;" x="36" xlink:href="#m90263aaba9" y="187.882833"/>
      </g>
     </g>
     <g id="text_8">
      <!-- 1.4 -->
      <g transform="translate(13.096875 191.682052)scale(0.1 -0.1)">
       <use xlink:href="#DejaVuSans-49"/>
       <use x="63.623047" xlink:href="#DejaVuSans-46"/>
       <use x="95.410156" xlink:href="#DejaVuSans-52"/>
      </g>
     </g>
    </g>
    <g id="ytick_3">
     <g id="line2d_8">
      <g>
       <use style="stroke:#000000;stroke-width:0.8;" x="36" xlink:href="#m90263aaba9" y="153.017794"/>
      </g>
     </g>
     <g id="text_9">
      <!-- 1.6 -->
      <defs>
       <path d="M 33.015625 40.375 
Q 26.375 40.375 22.484375 35.828125 
Q 18.609375 31.296875 18.609375 23.390625 
Q 18.609375 15.53125 22.484375 10.953125 
Q 26.375 6.390625 33.015625 6.390625 
Q 39.65625 6.390625 43.53125 10.953125 
Q 47.40625 15.53125 47.40625 23.390625 
Q 47.40625 31.296875 43.53125 35.828125 
Q 39.65625 40.375 33.015625 40.375 
z
M 52.59375 71.296875 
L 52.59375 62.3125 
Q 48.875 64.0625 45.09375 64.984375 
Q 41.3125 65.921875 37.59375 65.921875 
Q 27.828125 65.921875 22.671875 59.328125 
Q 17.53125 52.734375 16.796875 39.40625 
Q 19.671875 43.65625 24.015625 45.921875 
Q 28.375 48.1875 33.59375 48.1875 
Q 44.578125 48.1875 50.953125 41.515625 
Q 57.328125 34.859375 57.328125 23.390625 
Q 57.328125 12.15625 50.6875 5.359375 
Q 44.046875 -1.421875 33.015625 -1.421875 
Q 20.359375 -1.421875 13.671875 8.265625 
Q 6.984375 17.96875 6.984375 36.375 
Q 6.984375 53.65625 15.1875 63.9375 
Q 23.390625 74.21875 37.203125 74.21875 
Q 40.921875 74.21875 44.703125 73.484375 
Q 48.484375 72.75 52.59375 71.296875 
z
" id="DejaVuSans-54"/>
      </defs>
      <g transform="translate(13.096875 156.817013)scale(0.1 -0.1)">
       <use xlink:href="#DejaVuSans-49"/>
       <use x="63.623047" xlink:href="#DejaVuSans-46"/>
       <use x="95.410156" xlink:href="#DejaVuSans-54"/>
      </g>
     </g>
    </g>
    <g id="ytick_4">
     <g id="line2d_9">
      <g>
       <use style="stroke:#000000;stroke-width:0.8;" x="36" xlink:href="#m90263aaba9" y="118.152754"/>
      </g>
     </g>
     <g id="text_10">
      <!-- 1.8 -->
      <defs>
       <path d="M 31.78125 34.625 
Q 24.75 34.625 20.71875 30.859375 
Q 16.703125 27.09375 16.703125 20.515625 
Q 16.703125 13.921875 20.71875 10.15625 
Q 24.75 6.390625 31.78125 6.390625 
Q 38.8125 6.390625 42.859375 10.171875 
Q 46.921875 13.96875 46.921875 20.515625 
Q 46.921875 27.09375 42.890625 30.859375 
Q 38.875 34.625 31.78125 34.625 
z
M 21.921875 38.8125 
Q 15.578125 40.375 12.03125 44.71875 
Q 8.5 49.078125 8.5 55.328125 
Q 8.5 64.0625 14.71875 69.140625 
Q 20.953125 74.21875 31.78125 74.21875 
Q 42.671875 74.21875 48.875 69.140625 
Q 55.078125 64.0625 55.078125 55.328125 
Q 55.078125 49.078125 51.53125 44.71875 
Q 48 40.375 41.703125 38.8125 
Q 48.828125 37.15625 52.796875 32.3125 
Q 56.78125 27.484375 56.78125 20.515625 
Q 56.78125 9.90625 50.3125 4.234375 
Q 43.84375 -1.421875 31.78125 -1.421875 
Q 19.734375 -1.421875 13.25 4.234375 
Q 6.78125 9.90625 6.78125 20.515625 
Q 6.78125 27.484375 10.78125 32.3125 
Q 14.796875 37.15625 21.921875 38.8125 
z
M 18.3125 54.390625 
Q 18.3125 48.734375 21.84375 45.5625 
Q 25.390625 42.390625 31.78125 42.390625 
Q 38.140625 42.390625 41.71875 45.5625 
Q 45.3125 48.734375 45.3125 54.390625 
Q 45.3125 60.0625 41.71875 63.234375 
Q 38.140625 66.40625 31.78125 66.40625 
Q 25.390625 66.40625 21.84375 63.234375 
Q 18.3125 60.0625 18.3125 54.390625 
z
" id="DejaVuSans-56"/>
      </defs>
      <g transform="translate(13.096875 121.951973)scale(0.1 -0.1)">
       <use xlink:href="#DejaVuSans-49"/>
       <use x="63.623047" xlink:href="#DejaVuSans-46"/>
       <use x="95.410156" xlink:href="#DejaVuSans-56"/>
      </g>
     </g>
    </g>
    <g id="ytick_5">
     <g id="line2d_10">
      <g>
       <use style="stroke:#000000;stroke-width:0.8;" x="36" xlink:href="#m90263aaba9" y="83.287714"/>
      </g>
     </g>
     <g id="text_11">
      <!-- 2.0 -->
      <g transform="translate(13.096875 87.086933)scale(0.1 -0.1)">
       <use xlink:href="#DejaVuSans-50"/>
       <use x="63.623047" xlink:href="#DejaVuSans-46"/>
       <use x="95.410156" xlink:href="#DejaVuSans-48"/>
      </g>
     </g>
    </g>
    <g id="ytick_6">
     <g id="line2d_11">
      <g>
       <use style="stroke:#000000;stroke-width:0.8;" x="36" xlink:href="#m90263aaba9" y="48.422675"/>
      </g>
     </g>
     <g id="text_12">
      <!-- 2.2 -->
      <g transform="translate(13.096875 52.221893)scale(0.1 -0.1)">
       <use xlink:href="#DejaVuSans-50"/>
       <use x="63.623047" xlink:href="#DejaVuSans-46"/>
       <use x="95.410156" xlink:href="#DejaVuSans-50"/>
      </g>
     </g>
    </g>
    <g id="text_13">
     <!-- Elongation -->
     <defs>
      <path d="M 9.8125 72.90625 
L 55.90625 72.90625 
L 55.90625 64.59375 
L 19.671875 64.59375 
L 19.671875 43.015625 
L 54.390625 43.015625 
L 54.390625 34.71875 
L 19.671875 34.71875 
L 19.671875 8.296875 
L 56.78125 8.296875 
L 56.78125 0 
L 9.8125 0 
z
" id="DejaVuSans-69"/>
      <path d="M 45.40625 27.984375 
Q 45.40625 37.75 41.375 43.109375 
Q 37.359375 48.484375 30.078125 48.484375 
Q 22.859375 48.484375 18.828125 43.109375 
Q 14.796875 37.75 14.796875 27.984375 
Q 14.796875 18.265625 18.828125 12.890625 
Q 22.859375 7.515625 30.078125 7.515625 
Q 37.359375 7.515625 41.375 12.890625 
Q 45.40625 18.265625 45.40625 27.984375 
z
M 54.390625 6.78125 
Q 54.390625 -7.171875 48.1875 -13.984375 
Q 42 -20.796875 29.203125 -20.796875 
Q 24.46875 -20.796875 20.265625 -20.09375 
Q 16.0625 -19.390625 12.109375 -17.921875 
L 12.109375 -9.1875 
Q 16.0625 -11.328125 19.921875 -12.34375 
Q 23.78125 -13.375 27.78125 -13.375 
Q 36.625 -13.375 41.015625 -8.765625 
Q 45.40625 -4.15625 45.40625 5.171875 
L 45.40625 9.625 
Q 42.625 4.78125 38.28125 2.390625 
Q 33.9375 0 27.875 0 
Q 17.828125 0 11.671875 7.65625 
Q 5.515625 15.328125 5.515625 27.984375 
Q 5.515625 40.671875 11.671875 48.328125 
Q 17.828125 56 27.875 56 
Q 33.9375 56 38.28125 53.609375 
Q 42.625 51.21875 45.40625 46.390625 
L 45.40625 54.6875 
L 54.390625 54.6875 
z
" id="DejaVuSans-103"/>
     </defs>
     <g transform="translate(7.017187 169.872187)rotate(-90)scale(0.1 -0.1)">
      <use xlink:href="#DejaVuSans-69"/>
      <use x="63.183594" xlink:href="#DejaVuSans-108"/>
      <use x="90.966797" xlink:href="#DejaVuSans-111"/>
      <use x="152.148438" xlink:href="#DejaVuSans-110"/>
      <use x="215.527344" xlink:href="#DejaVuSans-103"/>
      <use x="279.003906" xlink:href="#DejaVuSans-97"/>
      <use x="340.283203" xlink:href="#DejaVuSans-116"/>
      <use x="379.492188" xlink:href="#DejaVuSans-105"/>
      <use x="407.275391" xlink:href="#DejaVuSans-111"/>
      <use x="468.457031" xlink:href="#DejaVuSans-110"/>
     </g>
    </g>
   </g>
   <g id="line2d_12">
    <path clip-path="url(#pc226a6664a)" d="M 58.132724 221.122945 
L 60.365522 218.322842 
L 62.631595 215.419269 
L 64.931626 212.416747 
L 67.266315 209.318474 
L 69.636377 206.126608 
L 72.042547 202.842486 
L 74.485578 199.466781 
L 76.966239 195.999631 
L 79.485321 192.440729 
L 82.043633 188.789398 
L 84.642004 185.044643 
L 87.281283 181.205197 
L 89.962341 177.269551 
L 92.68607 173.235981 
L 95.453384 169.102569 
L 98.265219 164.867214 
L 101.122534 160.52765 
L 104.026313 156.081447 
L 106.977562 151.526022 
L 109.977313 146.858646 
L 113.026623 142.076438 
L 116.126573 137.176375 
L 119.278273 132.155287 
L 122.482857 127.00986 
L 125.741488 121.736632 
L 129.055356 116.331989 
L 132.425679 110.792167 
L 135.853706 105.113243 
L 139.340712 99.291133 
L 142.888003 93.321587 
L 146.496917 87.200183 
L 146.496917 87.200183 
L 148.324908 84.081103 
" style="fill:none;stroke:#ff0000;stroke-linecap:square;stroke-width:1.5;"/>
   </g>
   <g id="line2d_13">
    <path clip-path="url(#pc226a6664a)" d="M 52.249166 193.981346 
L 54.463853 191.399775 
L 56.712091 188.703461 
L 58.99458 185.894873 
L 61.312038 182.976046 
L 63.665202 179.948602 
L 66.054826 176.813778 
L 68.481684 173.572455 
L 70.946569 170.225185 
L 73.450294 166.77221 
L 75.993692 163.21349 
L 78.577617 159.548721 
L 81.202946 155.777352 
L 83.870576 151.898606 
L 86.581427 147.911491 
L 89.336443 143.814813 
L 92.136591 139.607191 
L 94.982862 135.287061 
L 97.876273 130.85269 
L 100.817864 126.302182 
L 103.808704 121.63348 
L 106.849885 116.84438 
L 109.94253 111.932527 
L 113.087785 106.895424 
L 116.286829 101.730432 
L 119.540866 96.434778 
L 122.851132 91.00555 
L 126.218891 85.439705 
L 129.645439 79.734065 
L 129.645439 79.734065 
L 131.381171 76.827795 
L 133.1321 73.885325 
" style="fill:none;stroke:#bfbf00;stroke-linecap:square;stroke-width:1.5;"/>
   </g>
   <g id="line2d_14">
    <path clip-path="url(#pc226a6664a)" d="M 46.145455 157.039801 
L 48.309189 152.913456 
L 50.505897 148.684686 
L 52.736282 144.351387 
L 55.001066 139.911301 
L 57.300989 135.362016 
L 59.636812 130.700976 
L 62.009314 125.925476 
L 64.419297 121.032665 
L 66.867583 116.019546 
L 69.355016 110.882973 
L 71.882462 105.619651 
L 74.450812 100.22613 
L 77.06098 94.698807 
L 79.713903 89.033917 
L 82.410546 83.227532 
L 85.151898 77.275554 
L 87.938975 71.173709 
L 90.772821 64.917542 
L 93.654508 58.50241 
L 93.654508 58.50241 
L 95.113634 55.233727 
" style="fill:none;stroke:#bfbf00;stroke-linecap:square;stroke-width:1.5;"/>
   </g>
   <g id="line2d_15">
    <path clip-path="url(#pc226a6664a)" d="M 66.092883 228.667068 
L 68.374525 225.649366 
L 70.689663 222.566597 
L 73.038965 219.41751 
L 75.423117 216.200698 
L 77.842817 212.914628 
L 80.298782 209.557663 
L 82.791745 206.128075 
L 85.322457 202.624051 
L 87.891685 199.043699 
L 90.500213 195.385051 
L 93.148847 191.646065 
L 95.838408 187.824623 
L 98.569738 183.918535 
L 101.343697 179.925535 
L 104.161165 175.84328 
L 107.023044 171.66935 
L 109.930255 167.401244 
L 112.88374 163.036381 
L 115.884462 158.572094 
L 118.933408 154.005631 
L 122.031584 149.334151 
L 125.18002 144.554719 
L 128.379769 139.664308 
L 131.631907 134.659791 
L 134.937534 129.53794 
L 138.297772 124.295424 
L 141.713769 118.928802 
L 145.186696 113.434522 
L 148.71775 107.808916 
L 152.308152 102.048195 
L 155.959148 96.148448 
L 155.959148 96.148448 
L 157.807765 93.145182 
L 159.67201 90.105633 
" style="fill:none;stroke:#bfbf00;stroke-linecap:square;stroke-width:1.5;"/>
   </g>
   <g id="line2d_16">
    <path clip-path="url(#pc226a6664a)" d="M 55.436731 211.474623 
L 57.66135 209.992005 
L 59.9194 208.322643 
L 62.211575 206.473991 
L 64.538585 204.453379 
L 66.901156 202.267784 
L 69.300036 199.923671 
L 71.735988 197.42689 
L 74.209796 194.782621 
L 76.722263 191.995349 
L 79.274211 189.068871 
L 81.866485 186.006317 
L 84.499948 182.810178 
L 87.175486 179.482347 
L 89.894009 176.024156 
L 92.656446 172.436417 
L 95.463751 168.719459 
L 98.316903 164.873158 
L 101.216902 160.896975 
L 104.164777 156.78998 
L 107.161577 152.550873 
L 110.208383 148.178009 
L 113.306296 143.669414 
L 116.45645 139.022797 
L 119.660003 134.235561 
L 122.918142 129.304813 
L 126.232083 124.227371 
L 129.603069 118.999763 
L 133.032377 113.618231 
L 136.521309 108.078732 
L 140.071202 102.376932 
L 143.683421 96.508201 
L 147.359365 90.467609 
L 147.359365 90.467609 
L 149.221679 87.38124 
L 151.100463 84.249916 
" style="fill:none;stroke:#bfbf00;stroke-linecap:square;stroke-width:1.5;"/>
   </g>
   <g id="line2d_17">
    <path clip-path="url(#pc226a6664a)" d="M 59.546404 122.320325 
L 61.782755 117.570914 
L 64.052386 112.706997 
L 66.355979 107.725456 
L 68.694238 102.623027 
L 71.067881 97.396299 
L 73.477644 92.041707 
L 75.924282 86.555528 
L 78.40857 80.933877 
L 80.9313 75.172698 
L 83.493285 69.267761 
L 86.095358 63.214653 
L 88.738373 57.00877 
L 88.738373 57.00877 
L 90.075507 53.847046 
" style="fill:none;stroke:#bfbf00;stroke-linecap:square;stroke-width:1.5;"/>
   </g>
   <g id="line2d_18">
    <path clip-path="url(#pc226a6664a)" d="M 47.883332 169.684716 
L 50.052239 165.944294 
L 52.25402 162.100721 
L 54.489371 158.15279 
L 56.759008 154.099068 
L 59.063663 149.937915 
L 61.40409 145.667491 
L 63.781061 141.285764 
L 66.19537 136.79052 
L 68.647831 132.179365 
L 71.139279 127.449732 
L 73.670572 122.598878 
L 76.242591 117.623891 
L 78.856241 112.521684 
L 81.512449 107.288999 
L 84.21217 101.922402 
L 86.956383 96.418283 
L 89.746093 90.772847 
L 92.582332 84.982114 
L 95.466161 79.041911 
L 98.398668 72.94787 
L 101.380973 66.695412 
L 101.380973 66.695412 
L 102.891157 63.508289 
L 104.414223 60.279748 
" style="fill:none;stroke:#bfbf00;stroke-linecap:square;stroke-width:1.5;"/>
   </g>
   <g id="line2d_19">
    <path clip-path="url(#pc226a6664a)" d="M 55.814697 224.280451 
L 58.019675 221.109285 
L 60.257506 217.869392 
L 62.528869 214.558874 
L 64.834465 211.175773 
L 67.175007 207.718062 
L 69.551231 204.183645 
L 71.963888 200.570353 
L 74.41375 196.875943 
L 76.901609 193.098094 
L 79.428277 189.234402 
L 81.994587 185.282381 
L 84.601392 181.239456 
L 87.249568 177.102958 
L 89.940014 172.870124 
L 92.673652 168.53809 
L 95.451428 164.103888 
L 98.274311 159.564438 
L 101.143296 154.916549 
L 104.059404 150.156906 
L 107.023683 145.282073 
L 110.037205 140.288477 
L 113.101075 135.172412 
L 116.21642 129.930024 
L 119.384402 124.557306 
L 122.606209 119.050095 
L 125.883061 113.404054 
L 129.216208 107.614672 
L 132.606935 101.67725 
L 136.056555 95.58689 
L 139.566419 89.338486 
L 143.137908 82.92671 
L 143.137908 82.92671 
L 144.947204 79.657829 
" style="fill:none;stroke:#bfbf00;stroke-linecap:square;stroke-width:1.5;"/>
   </g>
   <g id="line2d_20">
    <path clip-path="url(#pc226a6664a)" d="M 59.178837 225.861035 
L 61.409936 224.7371 
L 63.674089 223.396804 
L 65.971969 221.854042 
L 68.304263 220.122765 
L 70.671675 218.216307 
L 73.074926 216.146955 
L 75.514755 213.925715 
L 77.991917 211.562226 
L 80.507188 209.064777 
L 83.061361 206.440382 
L 85.655247 203.694895 
L 88.289679 200.833121 
L 90.965508 197.858945 
L 93.683606 194.775445 
L 96.444868 191.584991 
L 99.250206 188.289339 
L 102.100557 184.889708 
L 104.996881 181.386853 
L 107.940157 177.781118 
L 110.931391 174.072488 
L 113.971611 170.260631 
L 117.061869 166.344931 
L 120.203243 162.324523 
L 123.396833 158.198312 
L 126.643768 153.965 
L 129.945201 149.623099 
L 133.302312 145.170951 
L 136.716308 140.606736 
L 140.188422 135.92849 
L 143.719916 131.134105 
L 147.312079 126.221346 
L 150.966228 121.187854 
L 154.683712 116.031149 
L 158.465903 110.748642 
L 162.314208 105.337633 
L 166.23006 99.79532 
L 166.23006 99.79532 
L 168.213772 96.97402 
L 170.214923 94.118797 
" style="fill:none;stroke:#bfbf00;stroke-linecap:square;stroke-width:1.5;"/>
   </g>
   <g id="line2d_21">
    <path clip-path="url(#pc226a6664a)" d="M 58.512123 218.590676 
L 60.74513 215.527042 
L 63.011356 212.398887 
L 65.311484 209.205104 
L 67.64621 205.944455 
L 70.016249 202.615592 
L 72.422333 199.217072 
L 74.865211 195.747365 
L 77.345653 192.204864 
L 79.864446 188.587889 
L 82.422397 184.894693 
L 85.020333 181.123459 
L 87.659102 177.272306 
L 90.339572 173.339291 
L 93.062633 169.322403 
L 95.829197 165.21957 
L 98.640199 161.028654 
L 101.496597 156.747451 
L 104.399372 152.373694 
L 107.34953 147.905045 
L 110.348101 143.339102 
L 113.39614 138.673389 
L 116.494731 133.905363 
L 119.64498 129.032406 
L 122.848023 124.051825 
L 126.105023 118.960854 
L 129.417171 113.756646 
L 132.785686 108.436275 
L 136.211817 102.996732 
L 139.696844 97.434925 
L 143.242075 91.747674 
L 146.848851 85.931707 
L 146.848851 85.931707 
L 148.675746 82.974409 
" style="fill:none;stroke:#bfbf00;stroke-linecap:square;stroke-width:1.5;"/>
   </g>
   <g id="line2d_22">
    <path clip-path="url(#pc226a6664a)" d="M 55.476866 187.650705 
L 57.710204 185.350817 
L 59.97718 182.906283 
L 62.27849 180.319872 
L 64.614851 177.594041 
L 66.986993 174.730907 
L 69.395667 171.732237 
L 71.841642 168.599447 
L 74.325707 165.333595 
L 76.848669 161.935395 
L 79.411355 158.405218 
L 82.014616 154.743107 
L 84.659319 150.948784 
L 87.346356 147.021665 
L 90.076641 142.960869 
L 92.85111 138.765228 
L 95.670721 134.433297 
L 98.536459 129.963364 
L 101.449329 125.353457 
L 104.410365 120.601352 
L 107.420624 115.704575 
L 110.48119 110.660409 
L 113.593173 105.4659 
L 116.757709 100.117854 
L 119.975964 94.612842 
L 123.249131 88.947198 
L 126.57843 83.117023 
L 129.965114 77.118175 
L 129.965114 77.118175 
L 131.680373 74.054141 
" style="fill:none;stroke:#bfbf00;stroke-linecap:square;stroke-width:1.5;"/>
   </g>
   <g id="line2d_23">
    <path clip-path="url(#pc226a6664a)" d="M 59.830606 228.875 
L 62.077432 225.777952 
L 64.357685 222.600329 
L 66.672049 219.342318 
L 69.021223 216.003419 
L 71.405923 212.582646 
L 73.826881 209.078642 
L 76.28485 205.489765 
L 78.780598 201.814133 
L 81.314914 198.049669 
L 83.888605 194.194114 
L 86.502498 190.245052 
L 89.157439 186.199915 
L 91.854297 182.055991 
L 94.593961 177.810427 
L 97.377339 173.460231 
L 100.205364 169.002272 
L 103.07899 164.433276 
L 105.999196 159.749824 
L 108.966981 154.94835 
L 111.983371 150.025135 
L 115.049415 144.9763 
L 118.166186 139.797802 
L 121.334785 134.485427 
L 124.556336 129.034781 
L 127.831992 123.441281 
L 131.162929 117.700151 
L 134.550354 111.806406 
L 137.9955 105.754844 
L 141.499628 99.540035 
L 145.064027 93.156309 
L 148.690014 86.59774 
L 148.690014 86.59774 
L 150.526524 83.250965 
" style="fill:none;stroke:#bfbf00;stroke-linecap:square;stroke-width:1.5;"/>
   </g>
   <g id="line2d_24">
    <path clip-path="url(#pc226a6664a)" d="M 66.430585 218.158983 
L 68.683121 215.304422 
L 70.968489 212.390323 
L 73.287346 209.416319 
L 75.640367 206.381844 
L 78.028243 203.286178 
L 80.451681 200.128468 
L 82.911405 196.907756 
L 85.408157 193.622988 
L 87.942697 190.273031 
L 90.515801 186.856679 
L 93.128267 183.372661 
L 95.780911 179.81965 
L 98.474566 176.196258 
L 101.210088 172.50105 
L 103.988354 168.73254 
L 106.810259 164.889195 
L 109.676722 160.969439 
L 112.588682 156.97165 
L 115.547103 152.894165 
L 118.552969 148.735281 
L 121.607288 144.493253 
L 124.711094 140.1663 
L 127.865442 135.752601 
L 131.071414 131.250299 
L 134.330117 126.657502 
L 137.642684 121.972283 
L 141.010271 117.192683 
L 144.434065 112.316708 
L 147.915278 107.342339 
L 151.455149 102.267524 
L 155.054944 97.090187 
L 158.715961 91.808227 
L 158.715961 91.808227 
L 160.56984 89.127351 
" style="fill:none;stroke:#bfbf00;stroke-linecap:square;stroke-width:1.5;"/>
   </g>
   <g id="line2d_25">
    <path clip-path="url(#pc226a6664a)" d="M 69.121122 209.147013 
L 71.409509 206.419106 
L 73.731338 203.57837 
L 76.087279 200.628434 
L 78.478015 197.572078 
L 80.904245 194.411344 
L 83.366686 191.147639 
L 85.866072 187.781817 
L 88.403153 184.314252 
L 90.978697 180.744892 
L 93.59349 177.073313 
L 96.248338 173.298757 
L 98.944064 169.420164 
L 101.681511 165.4362 
L 104.461542 161.345282 
L 107.285039 157.145589 
L 110.152906 152.835084 
L 113.066068 148.411519 
L 116.02547 143.872446 
L 119.032079 139.215225 
L 122.086887 134.437025 
L 125.190904 129.534828 
L 128.345167 124.505432 
L 131.550734 119.345448 
L 134.808688 114.051301 
L 138.120136 108.619226 
L 141.48621 103.045265 
L 144.908066 97.325264 
L 148.386885 91.454864 
L 148.386885 91.454864 
L 150.148032 88.461846 
L 151.923875 85.429498 
" style="fill:none;stroke:#bfbf00;stroke-linecap:square;stroke-width:1.5;"/>
   </g>
   <g id="line2d_26">
    <path clip-path="url(#pc226a6664a)" d="M 55.25046 239.619097 
L 57.480115 239.497551 
L 59.743244 238.909818 
L 62.040536 237.882859 
L 64.372697 236.462491 
L 66.74045 234.701432 
L 69.144535 232.650061 
L 71.585712 230.351635 
L 74.064757 227.840981 
L 76.582468 225.145067 
L 79.13966 222.284281 
L 81.73717 219.273784 
L 84.375854 216.124693 
L 87.05659 212.845025 
L 89.780277 209.440423 
L 92.547836 205.914697 
L 95.360211 202.270238 
L 98.218368 198.508312 
L 101.123297 194.629287 
L 104.076013 190.632803 
L 107.077555 186.517892 
L 110.128986 182.28308 
L 113.231395 177.926448 
L 116.385898 173.445695 
L 119.593637 168.838169 
L 122.855781 164.100905 
L 126.173527 159.230639 
L 129.5481 154.223828 
L 132.980753 149.076659 
L 136.472768 143.785052 
L 140.025458 138.344667 
L 143.640163 132.750902 
L 147.318257 126.998888 
L 151.061141 121.083486 
L 154.870249 114.99928 
L 158.747046 108.740566 
L 162.693028 102.301341 
L 166.709722 95.675292 
L 166.709722 95.675292 
L 168.745073 92.290147 
" style="fill:none;stroke:#bfbf00;stroke-linecap:square;stroke-width:1.5;"/>
   </g>
   <g id="line2d_27">
    <path clip-path="url(#pc226a6664a)" d="M 48.520555 176.036303 
L 50.701166 173.422104 
L 52.914842 170.669978 
L 55.162277 167.781333 
L 57.444187 164.757299 
L 59.761303 161.598714 
L 62.114378 158.306128 
L 64.504182 154.879797 
L 66.931506 151.319684 
L 69.397161 147.62547 
L 71.901981 143.79655 
L 74.446817 139.832045 
L 77.032548 135.730804 
L 79.660071 131.491415 
L 82.33031 127.112203 
L 85.044211 122.591241 
L 87.802745 117.926352 
L 90.606909 113.115113 
L 93.457726 108.154858 
L 96.356245 103.04268 
L 99.303544 97.775432 
L 102.300727 92.349728 
L 105.348929 86.761944 
L 108.449313 81.008213 
L 111.603072 75.084426 
L 114.811433 68.986229 
L 114.811433 68.986229 
L 116.436479 65.870298 
" style="fill:none;stroke:#bfbf00;stroke-linecap:square;stroke-width:1.5;"/>
   </g>
   <g id="line2d_28">
    <path clip-path="url(#pc226a6664a)" d="M 69.738428 145.988586 
L 72.0326 142.325275 
L 74.360137 138.546199 
L 76.721697 134.650104 
L 79.117952 130.63554 
L 81.549589 126.500858 
L 84.017312 122.244217 
L 86.521841 117.863581 
L 89.063912 113.356727 
L 91.644276 108.721238 
L 94.263705 103.95451 
L 96.922985 99.053746 
L 99.622921 94.01596 
L 102.364337 88.837969 
L 105.148075 83.516396 
L 107.974995 78.047661 
L 110.845977 72.427985 
L 110.845977 72.427985 
L 112.298272 69.560305 
L 113.761922 66.653377 
" style="fill:none;stroke:#bfbf00;stroke-linecap:square;stroke-width:1.5;"/>
   </g>
   <g id="line2d_29">
    <path clip-path="url(#pc226a6664a)" d="M 61.949266 227.715541 
L 64.212477 225.700596 
L 66.509236 223.49519 
L 68.840222 221.11794 
L 71.206131 218.584264 
L 73.607674 215.906687 
L 76.04558 213.095232 
L 78.520595 210.157808 
L 81.033483 207.100568 
L 83.585027 203.928215 
L 86.176028 200.644262 
L 88.807306 197.251236 
L 91.4797 193.750852 
L 94.19407 190.144151 
L 96.951297 186.431605 
L 99.75228 182.613209 
L 102.597944 178.68855 
L 105.48923 174.656866 
L 108.427107 170.517088 
L 111.412562 166.267883 
L 114.446608 161.907679 
L 117.530281 157.434693 
L 120.664639 152.846949 
L 123.850768 148.142297 
L 127.089776 143.318425 
L 130.382797 138.372872 
L 133.730991 133.303037 
L 137.135544 128.106188 
L 140.597669 122.779468 
L 144.118604 117.319902 
L 147.699616 111.724405 
L 151.341999 105.989784 
L 155.047073 100.112746 
L 158.81619 94.089898 
L 158.81619 94.089898 
L 160.725193 91.022711 
" style="fill:none;stroke:#bfbf00;stroke-linecap:square;stroke-width:1.5;"/>
   </g>
   <g id="line2d_30">
    <path clip-path="url(#pc226a6664a)" d="M 56.37193 218.903508 
L 58.605593 216.090003 
L 60.872793 213.174355 
L 63.174223 210.160466 
L 65.51059 207.051091 
L 67.882623 203.848072 
L 70.291065 200.552508 
L 72.736681 197.1649 
L 75.220251 193.685252 
L 77.742576 190.113151 
L 80.304478 186.447833 
L 82.906798 182.688228 
L 85.550398 178.833001 
L 88.23616 174.880581 
L 90.964989 170.829181 
L 93.737813 166.676821 
L 96.555581 162.421335 
L 99.419266 158.060386 
L 102.329865 153.591474 
L 105.288398 149.011938 
L 108.295913 144.318962 
L 111.353479 139.509576 
L 114.462194 134.580658 
L 117.623181 129.528933 
L 120.837591 124.350972 
L 124.106601 119.043188 
L 127.431416 113.601835 
L 130.813271 108.023006 
L 134.253427 102.302623 
L 137.753176 96.436437 
L 141.31384 90.420021 
L 144.936771 84.248762 
L 144.936771 84.248762 
L 146.772017 81.103572 
" style="fill:none;stroke:#bfbf00;stroke-linecap:square;stroke-width:1.5;"/>
   </g>
   <g id="line2d_31">
    <path clip-path="url(#pc226a6664a)" d="M 56.086187 224.322225 
L 58.313387 223.933244 
L 60.573994 223.303588 
L 62.868702 222.439277 
L 65.198218 221.349121 
L 67.563269 220.043888 
L 69.964599 218.535459 
L 72.402973 216.83607 
L 74.879171 214.957723 
L 77.393997 212.911753 
L 79.948272 210.708559 
L 82.542838 208.357466 
L 85.178559 205.866678 
L 87.85632 203.243298 
L 90.577029 200.493393 
L 93.341616 197.622071 
L 96.151035 194.633577 
L 99.006262 191.531382 
L 101.908299 188.318272 
L 104.858174 184.996433 
L 107.856938 181.567517 
L 110.905669 178.032711 
L 114.005473 174.392792 
L 117.157482 170.648176 
L 120.362857 166.798959 
L 123.622785 162.844958 
L 126.938485 158.785735 
L 130.311204 154.62063 
L 133.742219 150.34878 
L 137.232839 145.969142 
L 140.784403 141.480505 
L 144.398281 136.881509 
L 148.075878 132.170656 
L 151.81863 127.346319 
L 155.628004 122.406752 
L 159.505505 117.350095 
L 163.45267 112.174385 
L 167.471068 106.877556 
L 171.562306 101.457444 
L 171.562306 101.457444 
L 173.635752 98.700456 
L 175.728025 95.911792 
" style="fill:none;stroke:#bfbf00;stroke-linecap:square;stroke-width:1.5;"/>
   </g>
   <g id="line2d_32">
    <path clip-path="url(#pc226a6664a)" d="M 47.434017 241.021442 
L 49.61463 241.80854 
L 51.828477 242.116364 
L 54.076261 241.911283 
L 56.358704 241.201342 
L 58.676549 240.031545 
L 61.030554 238.466573 
L 63.4215 236.573112 
L 65.850188 234.409349 
L 68.317439 232.021572 
L 70.824095 229.444781 
L 73.371021 226.704737 
L 75.959105 223.820133 
L 78.589258 220.804416 
L 81.262413 217.667177 
L 83.979531 214.415169 
L 86.741595 211.053042 
L 89.549617 207.583865 
L 92.404632 204.009507 
L 95.307706 200.33091 
L 98.25993 196.548284 
L 101.262425 192.661254 
L 104.316342 188.668967 
L 107.42286 184.570175 
L 110.583193 180.36329 
L 113.798581 176.046434 
L 117.070302 171.617468 
L 120.399662 167.074021 
L 123.788005 162.413506 
L 127.236708 157.633136 
L 130.747182 152.729933 
L 134.320877 147.700734 
L 137.959276 142.542195 
L 141.663902 137.250791 
L 145.436316 131.822819 
L 149.278118 126.254393 
L 153.190945 120.54144 
L 157.176476 114.679696 
L 161.236429 108.664699 
L 165.372566 102.491779 
L 169.586685 96.15605 
L 169.586685 96.15605 
L 171.723563 92.925543 
" style="fill:none;stroke:#bfbf00;stroke-linecap:square;stroke-width:1.5;"/>
   </g>
   <g id="line2d_33">
    <path clip-path="url(#pc226a6664a)" d="M 54.496198 192.790359 
L 56.718373 193.23911 
L 58.974005 193.536774 
L 61.263787 193.67957 
L 63.58843 193.664306 
L 65.948663 193.488426 
L 68.345232 193.150054 
L 70.778902 192.648002 
L 73.250457 191.98176 
L 75.760701 191.151462 
L 78.310457 190.157833 
L 80.900568 189.002117 
L 83.531901 187.685998 
L 86.205341 186.211509 
L 88.921796 184.580941 
L 91.682198 182.79676 
L 94.4875 180.861517 
L 97.33868 178.777779 
L 100.236739 176.54806 
L 103.182705 174.174769 
L 106.177627 171.66016 
L 109.222584 169.006302 
L 112.318678 166.215048 
L 115.467041 163.288017 
L 118.668829 160.22658 
L 121.925229 157.031858 
L 125.237453 153.704709 
L 128.606746 150.245738 
L 132.034379 146.655297 
L 135.521653 142.933489 
L 139.069902 139.080173 
L 142.680489 135.094977 
L 146.354807 130.977302 
L 150.094283 126.726328 
L 153.900375 122.341027 
L 157.774573 117.820169 
L 161.718398 113.162327 
L 165.733408 108.36589 
L 169.821189 103.429064 
L 169.821189 103.429064 
L 171.892875 100.907397 
L 173.983364 98.349882 
" style="fill:none;stroke:#bfbf00;stroke-linecap:square;stroke-width:1.5;"/>
   </g>
   <g id="line2d_34">
    <path clip-path="url(#pc226a6664a)" d="M 56.430715 222.073655 
L 58.658736 219.475711 
L 60.920129 216.771016 
L 63.215584 213.965671 
L 65.545807 211.064283 
L 67.911521 208.070272 
L 70.313468 204.986109 
L 72.752407 201.8135 
L 75.229117 198.553531 
L 77.744396 195.206779 
L 80.299062 191.773401 
L 82.893954 188.253202 
L 85.52993 184.64569 
L 88.207872 180.950118 
L 90.92868 177.165516 
L 93.693281 173.290724 
L 96.502623 169.324408 
L 99.357675 165.265078 
L 102.259435 161.111108 
L 105.208922 156.860738 
L 108.207181 152.512092 
L 111.255283 148.063179 
L 114.354325 143.511903 
L 117.505433 138.856066 
L 120.709757 134.093372 
L 123.968476 129.22143 
L 127.2828 124.237755 
L 130.653965 119.139775 
L 134.083239 113.924824 
L 137.571918 108.590151 
L 141.12133 103.132914 
L 144.732835 97.550185 
L 148.407822 91.838945 
L 148.407822 91.838945 
L 150.269565 88.934167 
L 152.147715 85.996088 
" style="fill:none;stroke:#bfbf00;stroke-linecap:square;stroke-width:1.5;"/>
   </g>
   <g id="line2d_35">
    <path clip-path="url(#pc226a6664a)" d="M 48.539349 196.424953 
L 50.714169 192.984634 
L 52.921895 189.461287 
L 55.16322 185.853833 
L 57.438854 182.160993 
L 59.749526 178.381308 
L 62.095982 174.51316 
L 64.47899 170.554782 
L 66.899335 166.504273 
L 69.357824 162.3596 
L 71.855284 158.118612 
L 74.392565 153.779037 
L 76.970538 149.33849 
L 79.590096 144.794473 
L 82.252158 140.144376 
L 84.957664 135.38548 
L 87.707579 130.514954 
L 90.502897 125.529857 
L 93.344632 120.427134 
L 96.23383 115.203615 
L 99.171561 109.856018 
L 102.158925 104.380938 
L 105.197049 98.774853 
L 108.28709 93.034115 
L 111.430238 87.154952 
L 114.627709 81.133459 
L 117.880755 74.965599 
L 117.880755 74.965599 
L 119.528518 71.825482 
L 121.190659 68.647197 
" style="fill:none;stroke:#bfbf00;stroke-linecap:square;stroke-width:1.5;"/>
   </g>
   <g id="line2d_36">
    <path clip-path="url(#pc226a6664a)" d="M 59.680002 187.935621 
L 61.908674 184.859398 
L 64.170349 181.690677 
L 66.465703 178.430141 
L 68.79543 175.078175 
L 71.160239 171.6349 
L 73.560856 168.100199 
L 75.998028 164.473739 
L 78.472519 160.754996 
L 80.985111 156.943267 
L 83.536607 153.037689 
L 86.12783 149.037254 
L 88.759622 144.940815 
L 91.432848 140.747104 
L 94.148394 136.454733 
L 96.907168 132.062207 
L 99.7101 127.567928 
L 102.558145 122.970203 
L 105.45228 118.26725 
L 108.393507 113.457197 
L 111.382854 108.538093 
L 114.421373 103.507911 
L 117.510144 98.364546 
L 120.650273 93.105825 
L 123.842892 87.729505 
L 127.089162 82.233279 
L 130.390273 76.614778 
L 130.390273 76.614778 
L 132.061774 73.758918 
" style="fill:none;stroke:#bfbf00;stroke-linecap:square;stroke-width:1.5;"/>
   </g>
   <g id="line2d_37">
    <path clip-path="url(#pc226a6664a)" d="M 52.634703 185.249946 
L 54.843608 181.915187 
L 57.085747 178.467263 
L 59.361806 174.906551 
L 61.672491 171.233025 
L 64.018525 167.446296 
L 66.40065 163.545641 
L 68.819625 159.53003 
L 71.276229 155.398148 
L 73.771258 151.148416 
L 76.305532 146.779005 
L 78.879889 142.287847 
L 81.495187 137.672654 
L 84.152309 132.930916 
L 86.852156 128.059915 
L 89.595654 123.056729 
L 92.383753 117.918233 
L 95.217423 112.641104 
L 98.097663 107.221819 
L 101.025492 101.656658 
L 104.001959 95.941704 
L 107.028136 90.072837 
L 110.105122 84.045733 
L 113.234044 77.855863 
L 116.416056 71.498488 
L 116.416056 71.498488 
L 118.02734 68.255446 
" style="fill:none;stroke:#bfbf00;stroke-linecap:square;stroke-width:1.5;"/>
   </g>
   <g id="line2d_38">
    <path clip-path="url(#pc226a6664a)" d="M 67.564599 44.443636 
L 102.560633 62.073785 
L 215.609597 119.251649 
L 239.211482 130.878434 
L 249.054545 135.664777 
L 249.054545 135.664777 
" style="fill:none;stroke:#008000;stroke-linecap:square;stroke-width:1.5;"/>
   </g>
   <g id="patch_3">
    <path d="M 36 252 
L 36 34.56 
" style="fill:none;stroke:#000000;stroke-linecap:square;stroke-linejoin:miter;stroke-width:0.8;"/>
   </g>
   <g id="patch_4">
    <path d="M 259.2 252 
L 259.2 34.56 
" style="fill:none;stroke:#000000;stroke-linecap:square;stroke-linejoin:miter;stroke-width:0.8;"/>
   </g>
   <g id="patch_5">
    <path d="M 36 252 
L 259.2 252 
" style="fill:none;stroke:#000000;stroke-linecap:square;stroke-linejoin:miter;stroke-width:0.8;"/>
   </g>
   <g id="patch_6">
    <path d="M 36 34.56 
L 259.2 34.56 
" style="fill:none;stroke:#000000;stroke-linecap:square;stroke-linejoin:miter;stroke-width:0.8;"/>
   </g>
   <g id="text_14">
    <!--  0.68 -->
    <defs>
     <path id="DejaVuSans-32"/>
    </defs>
    <g transform="translate(148.324908 84.081103)scale(0.1 -0.1)">
     <use xlink:href="#DejaVuSans-32"/>
     <use x="31.787109" xlink:href="#DejaVuSans-48"/>
     <use x="95.410156" xlink:href="#DejaVuSans-46"/>
     <use x="127.197266" xlink:href="#DejaVuSans-54"/>
     <use x="190.820312" xlink:href="#DejaVuSans-56"/>
    </g>
   </g>
   <g id="text_15">
    <!--  f=1 -->
    <defs>
     <path d="M 37.109375 75.984375 
L 37.109375 68.5 
L 28.515625 68.5 
Q 23.6875 68.5 21.796875 66.546875 
Q 19.921875 64.59375 19.921875 59.515625 
L 19.921875 54.6875 
L 34.71875 54.6875 
L 34.71875 47.703125 
L 19.921875 47.703125 
L 19.921875 0 
L 10.890625 0 
L 10.890625 47.703125 
L 2.296875 47.703125 
L 2.296875 54.6875 
L 10.890625 54.6875 
L 10.890625 58.5 
Q 10.890625 67.625 15.140625 71.796875 
Q 19.390625 75.984375 28.609375 75.984375 
z
" id="DejaVuSans-102"/>
     <path d="M 10.59375 45.40625 
L 73.1875 45.40625 
L 73.1875 37.203125 
L 10.59375 37.203125 
z
M 10.59375 25.484375 
L 73.1875 25.484375 
L 73.1875 17.1875 
L 10.59375 17.1875 
z
" id="DejaVuSans-61"/>
    </defs>
    <g transform="translate(39.107059 221.122945)scale(0.1 -0.1)">
     <use xlink:href="#DejaVuSans-32"/>
     <use x="31.787109" xlink:href="#DejaVuSans-102"/>
     <use x="66.992188" xlink:href="#DejaVuSans-61"/>
     <use x="150.78125" xlink:href="#DejaVuSans-49"/>
    </g>
   </g>
  </g>
 </g>
 <defs>
  <clipPath id="pc226a6664a">
   <rect height="217.44" width="223.2" x="36" y="34.56"/>
  </clipPath>
 </defs>
</svg>
