<?xml version="1.0" encoding="utf-8" standalone="no"?>
<!DOCTYPE svg PUBLIC "-//W3C//DTD SVG 1.1//EN"
  "http://www.w3.org/Graphics/SVG/1.1/DTD/svg11.dtd">
<!-- Created with matplotlib (https://matplotlib.org/) -->
<svg height="288pt" version="1.1" viewBox="0 0 288 288" width="288pt" xmlns="http://www.w3.org/2000/svg" xmlns:xlink="http://www.w3.org/1999/xlink">
 <defs>
  <style type="text/css">
*{stroke-linecap:butt;stroke-linejoin:round;}
  </style>
 </defs>
 <g id="figure_1">
  <g id="patch_1">
   <path d="M 0 288 
L 288 288 
L 288 0 
L 0 0 
z
" style="fill:#ffffff;"/>
  </g>
  <g id="axes_1">
   <g id="patch_2">
    <path d="M 36 252 
L 259.2 252 
L 259.2 34.56 
L 36 34.56 
z
" style="fill:#ffffff;"/>
   </g>
   <g id="matplotlib.axis_1">
    <g id="xtick_1">
     <g id="line2d_1">
      <defs>
       <path d="M 0 0 
L 0 3.5 
" id="m68f2ab950a" style="stroke:#000000;stroke-width:0.8;"/>
      </defs>
      <g>
       <use style="stroke:#000000;stroke-width:0.8;" x="46.145455" xlink:href="#m68f2ab950a" y="252"/>
      </g>
     </g>
     <g id="text_1">
      <!-- 0 -->
      <defs>
       <path d="M 31.78125 66.40625 
Q 24.171875 66.40625 20.328125 58.90625 
Q 16.5 51.421875 16.5 36.375 
Q 16.5 21.390625 20.328125 13.890625 
Q 24.171875 6.390625 31.78125 6.390625 
Q 39.453125 6.390625 43.28125 13.890625 
Q 47.125 21.390625 47.125 36.375 
Q 47.125 51.421875 43.28125 58.90625 
Q 39.453125 66.40625 31.78125 66.40625 
z
M 31.78125 74.21875 
Q 44.046875 74.21875 50.515625 64.515625 
Q 56.984375 54.828125 56.984375 36.375 
Q 56.984375 17.96875 50.515625 8.265625 
Q 44.046875 -1.421875 31.78125 -1.421875 
Q 19.53125 -1.421875 13.0625 8.265625 
Q 6.59375 17.96875 6.59375 36.375 
Q 6.59375 54.828125 13.0625 64.515625 
Q 19.53125 74.21875 31.78125 74.21875 
z
" id="DejaVuSans-48"/>
      </defs>
      <g transform="translate(42.964205 266.598437)scale(0.1 -0.1)">
       <use xlink:href="#DejaVuSans-48"/>
      </g>
     </g>
    </g>
    <g id="xtick_2">
     <g id="line2d_2">
      <g>
       <use style="stroke:#000000;stroke-width:0.8;" x="93.677517" xlink:href="#m68f2ab950a" y="252"/>
      </g>
     </g>
     <g id="text_2">
      <!-- 10 -->
      <defs>
       <path d="M 12.40625 8.296875 
L 28.515625 8.296875 
L 28.515625 63.921875 
L 10.984375 60.40625 
L 10.984375 69.390625 
L 28.421875 72.90625 
L 38.28125 72.90625 
L 38.28125 8.296875 
L 54.390625 8.296875 
L 54.390625 0 
L 12.40625 0 
z
" id="DejaVuSans-49"/>
      </defs>
      <g transform="translate(87.315017 266.598437)scale(0.1 -0.1)">
       <use xlink:href="#DejaVuSans-49"/>
       <use x="63.623047" xlink:href="#DejaVuSans-48"/>
      </g>
     </g>
    </g>
    <g id="xtick_3">
     <g id="line2d_3">
      <g>
       <use style="stroke:#000000;stroke-width:0.8;" x="141.209579" xlink:href="#m68f2ab950a" y="252"/>
      </g>
     </g>
     <g id="text_3">
      <!-- 20 -->
      <defs>
       <path d="M 19.1875 8.296875 
L 53.609375 8.296875 
L 53.609375 0 
L 7.328125 0 
L 7.328125 8.296875 
Q 12.9375 14.109375 22.625 23.890625 
Q 32.328125 33.6875 34.8125 36.53125 
Q 39.546875 41.84375 41.421875 45.53125 
Q 43.3125 49.21875 43.3125 52.78125 
Q 43.3125 58.59375 39.234375 62.25 
Q 35.15625 65.921875 28.609375 65.921875 
Q 23.96875 65.921875 18.8125 64.3125 
Q 13.671875 62.703125 7.8125 59.421875 
L 7.8125 69.390625 
Q 13.765625 71.78125 18.9375 73 
Q 24.125 74.21875 28.421875 74.21875 
Q 39.75 74.21875 46.484375 68.546875 
Q 53.21875 62.890625 53.21875 53.421875 
Q 53.21875 48.921875 51.53125 44.890625 
Q 49.859375 40.875 45.40625 35.40625 
Q 44.1875 33.984375 37.640625 27.21875 
Q 31.109375 20.453125 19.1875 8.296875 
z
" id="DejaVuSans-50"/>
      </defs>
      <g transform="translate(134.847079 266.598437)scale(0.1 -0.1)">
       <use xlink:href="#DejaVuSans-50"/>
       <use x="63.623047" xlink:href="#DejaVuSans-48"/>
      </g>
     </g>
    </g>
    <g id="xtick_4">
     <g id="line2d_4">
      <g>
       <use style="stroke:#000000;stroke-width:0.8;" x="188.741641" xlink:href="#m68f2ab950a" y="252"/>
      </g>
     </g>
     <g id="text_4">
      <!-- 30 -->
      <defs>
       <path d="M 40.578125 39.3125 
Q 47.65625 37.796875 51.625 33 
Q 55.609375 28.21875 55.609375 21.1875 
Q 55.609375 10.40625 48.1875 4.484375 
Q 40.765625 -1.421875 27.09375 -1.421875 
Q 22.515625 -1.421875 17.65625 -0.515625 
Q 12.796875 0.390625 7.625 2.203125 
L 7.625 11.71875 
Q 11.71875 9.328125 16.59375 8.109375 
Q 21.484375 6.890625 26.8125 6.890625 
Q 36.078125 6.890625 40.9375 10.546875 
Q 45.796875 14.203125 45.796875 21.1875 
Q 45.796875 27.640625 41.28125 31.265625 
Q 36.765625 34.90625 28.71875 34.90625 
L 20.21875 34.90625 
L 20.21875 43.015625 
L 29.109375 43.015625 
Q 36.375 43.015625 40.234375 45.921875 
Q 44.09375 48.828125 44.09375 54.296875 
Q 44.09375 59.90625 40.109375 62.90625 
Q 36.140625 65.921875 28.71875 65.921875 
Q 24.65625 65.921875 20.015625 65.03125 
Q 15.375 64.15625 9.8125 62.3125 
L 9.8125 71.09375 
Q 15.4375 72.65625 20.34375 73.4375 
Q 25.25 74.21875 29.59375 74.21875 
Q 40.828125 74.21875 47.359375 69.109375 
Q 53.90625 64.015625 53.90625 55.328125 
Q 53.90625 49.265625 50.4375 45.09375 
Q 46.96875 40.921875 40.578125 39.3125 
z
" id="DejaVuSans-51"/>
      </defs>
      <g transform="translate(182.379141 266.598437)scale(0.1 -0.1)">
       <use xlink:href="#DejaVuSans-51"/>
       <use x="63.623047" xlink:href="#DejaVuSans-48"/>
      </g>
     </g>
    </g>
    <g id="xtick_5">
     <g id="line2d_5">
      <g>
       <use style="stroke:#000000;stroke-width:0.8;" x="236.273703" xlink:href="#m68f2ab950a" y="252"/>
      </g>
     </g>
     <g id="text_5">
      <!-- 40 -->
      <defs>
       <path d="M 37.796875 64.3125 
L 12.890625 25.390625 
L 37.796875 25.390625 
z
M 35.203125 72.90625 
L 47.609375 72.90625 
L 47.609375 25.390625 
L 58.015625 25.390625 
L 58.015625 17.1875 
L 47.609375 17.1875 
L 47.609375 0 
L 37.796875 0 
L 37.796875 17.1875 
L 4.890625 17.1875 
L 4.890625 26.703125 
z
" id="DejaVuSans-52"/>
      </defs>
      <g transform="translate(229.911203 266.598437)scale(0.1 -0.1)">
       <use xlink:href="#DejaVuSans-52"/>
       <use x="63.623047" xlink:href="#DejaVuSans-48"/>
      </g>
     </g>
    </g>
    <g id="text_6">
     <!-- Inclination -->
     <defs>
      <path d="M 9.8125 72.90625 
L 19.671875 72.90625 
L 19.671875 0 
L 9.8125 0 
z
" id="DejaVuSans-73"/>
      <path d="M 54.890625 33.015625 
L 54.890625 0 
L 45.90625 0 
L 45.90625 32.71875 
Q 45.90625 40.484375 42.875 44.328125 
Q 39.84375 48.1875 33.796875 48.1875 
Q 26.515625 48.1875 22.3125 43.546875 
Q 18.109375 38.921875 18.109375 30.90625 
L 18.109375 0 
L 9.078125 0 
L 9.078125 54.6875 
L 18.109375 54.6875 
L 18.109375 46.1875 
Q 21.34375 51.125 25.703125 53.5625 
Q 30.078125 56 35.796875 56 
Q 45.21875 56 50.046875 50.171875 
Q 54.890625 44.34375 54.890625 33.015625 
z
" id="DejaVuSans-110"/>
      <path d="M 48.78125 52.59375 
L 48.78125 44.1875 
Q 44.96875 46.296875 41.140625 47.34375 
Q 37.3125 48.390625 33.40625 48.390625 
Q 24.65625 48.390625 19.8125 42.84375 
Q 14.984375 37.3125 14.984375 27.296875 
Q 14.984375 17.28125 19.8125 11.734375 
Q 24.65625 6.203125 33.40625 6.203125 
Q 37.3125 6.203125 41.140625 7.25 
Q 44.96875 8.296875 48.78125 10.40625 
L 48.78125 2.09375 
Q 45.015625 0.34375 40.984375 -0.53125 
Q 36.96875 -1.421875 32.421875 -1.421875 
Q 20.0625 -1.421875 12.78125 6.34375 
Q 5.515625 14.109375 5.515625 27.296875 
Q 5.515625 40.671875 12.859375 48.328125 
Q 20.21875 56 33.015625 56 
Q 37.15625 56 41.109375 55.140625 
Q 45.0625 54.296875 48.78125 52.59375 
z
" id="DejaVuSans-99"/>
      <path d="M 9.421875 75.984375 
L 18.40625 75.984375 
L 18.40625 0 
L 9.421875 0 
z
" id="DejaVuSans-108"/>
      <path d="M 9.421875 54.6875 
L 18.40625 54.6875 
L 18.40625 0 
L 9.421875 0 
z
M 9.421875 75.984375 
L 18.40625 75.984375 
L 18.40625 64.59375 
L 9.421875 64.59375 
z
" id="DejaVuSans-105"/>
      <path d="M 34.28125 27.484375 
Q 23.390625 27.484375 19.1875 25 
Q 14.984375 22.515625 14.984375 16.5 
Q 14.984375 11.71875 18.140625 8.90625 
Q 21.296875 6.109375 26.703125 6.109375 
Q 34.1875 6.109375 38.703125 11.40625 
Q 43.21875 16.703125 43.21875 25.484375 
L 43.21875 27.484375 
z
M 52.203125 31.203125 
L 52.203125 0 
L 43.21875 0 
L 43.21875 8.296875 
Q 40.140625 3.328125 35.546875 0.953125 
Q 30.953125 -1.421875 24.3125 -1.421875 
Q 15.921875 -1.421875 10.953125 3.296875 
Q 6 8.015625 6 15.921875 
Q 6 25.140625 12.171875 29.828125 
Q 18.359375 34.515625 30.609375 34.515625 
L 43.21875 34.515625 
L 43.21875 35.40625 
Q 43.21875 41.609375 39.140625 45 
Q 35.0625 48.390625 27.6875 48.390625 
Q 23 48.390625 18.546875 47.265625 
Q 14.109375 46.140625 10.015625 43.890625 
L 10.015625 52.203125 
Q 14.9375 54.109375 19.578125 55.046875 
Q 24.21875 56 28.609375 56 
Q 40.484375 56 46.34375 49.84375 
Q 52.203125 43.703125 52.203125 31.203125 
z
" id="DejaVuSans-97"/>
      <path d="M 18.3125 70.21875 
L 18.3125 54.6875 
L 36.8125 54.6875 
L 36.8125 47.703125 
L 18.3125 47.703125 
L 18.3125 18.015625 
Q 18.3125 11.328125 20.140625 9.421875 
Q 21.96875 7.515625 27.59375 7.515625 
L 36.8125 7.515625 
L 36.8125 0 
L 27.59375 0 
Q 17.1875 0 13.234375 3.875 
Q 9.28125 7.765625 9.28125 18.015625 
L 9.28125 47.703125 
L 2.6875 47.703125 
L 2.6875 54.6875 
L 9.28125 54.6875 
L 9.28125 70.21875 
z
" id="DejaVuSans-116"/>
      <path d="M 30.609375 48.390625 
Q 23.390625 48.390625 19.1875 42.75 
Q 14.984375 37.109375 14.984375 27.296875 
Q 14.984375 17.484375 19.15625 11.84375 
Q 23.34375 6.203125 30.609375 6.203125 
Q 37.796875 6.203125 41.984375 11.859375 
Q 46.1875 17.53125 46.1875 27.296875 
Q 46.1875 37.015625 41.984375 42.703125 
Q 37.796875 48.390625 30.609375 48.390625 
z
M 30.609375 56 
Q 42.328125 56 49.015625 48.375 
Q 55.71875 40.765625 55.71875 27.296875 
Q 55.71875 13.875 49.015625 6.21875 
Q 42.328125 -1.421875 30.609375 -1.421875 
Q 18.84375 -1.421875 12.171875 6.21875 
Q 5.515625 13.875 5.515625 27.296875 
Q 5.515625 40.765625 12.171875 48.375 
Q 18.84375 56 30.609375 56 
z
" id="DejaVuSans-111"/>
     </defs>
     <g transform="translate(121.61875 280.276563)scale(0.1 -0.1)">
      <use xlink:href="#DejaVuSans-73"/>
      <use x="29.492188" xlink:href="#DejaVuSans-110"/>
      <use x="92.871094" xlink:href="#DejaVuSans-99"/>
      <use x="147.851562" xlink:href="#DejaVuSans-108"/>
      <use x="175.634766" xlink:href="#DejaVuSans-105"/>
      <use x="203.417969" xlink:href="#DejaVuSans-110"/>
      <use x="266.796875" xlink:href="#DejaVuSans-97"/>
      <use x="328.076172" xlink:href="#DejaVuSans-116"/>
      <use x="367.285156" xlink:href="#DejaVuSans-105"/>
      <use x="395.068359" xlink:href="#DejaVuSans-111"/>
      <use x="456.25" xlink:href="#DejaVuSans-110"/>
     </g>
    </g>
   </g>
   <g id="matplotlib.axis_2">
    <g id="ytick_1">
     <g id="line2d_6">
      <defs>
       <path d="M 0 0 
L -3.5 0 
" id="mc3a9e76ead" style="stroke:#000000;stroke-width:0.8;"/>
      </defs>
      <g>
       <use style="stroke:#000000;stroke-width:0.8;" x="36" xlink:href="#mc3a9e76ead" y="242.116364"/>
      </g>
     </g>
     <g id="text_7">
      <!-- 0.0 -->
      <defs>
       <path d="M 10.6875 12.40625 
L 21 12.40625 
L 21 0 
L 10.6875 0 
z
" id="DejaVuSans-46"/>
      </defs>
      <g transform="translate(13.096875 245.915582)scale(0.1 -0.1)">
       <use xlink:href="#DejaVuSans-48"/>
       <use x="63.623047" xlink:href="#DejaVuSans-46"/>
       <use x="95.410156" xlink:href="#DejaVuSans-48"/>
      </g>
     </g>
    </g>
    <g id="ytick_2">
     <g id="line2d_7">
      <g>
       <use style="stroke:#000000;stroke-width:0.8;" x="36" xlink:href="#mc3a9e76ead" y="199.075619"/>
      </g>
     </g>
     <g id="text_8">
      <!-- 0.5 -->
      <defs>
       <path d="M 10.796875 72.90625 
L 49.515625 72.90625 
L 49.515625 64.59375 
L 19.828125 64.59375 
L 19.828125 46.734375 
Q 21.96875 47.46875 24.109375 47.828125 
Q 26.265625 48.1875 28.421875 48.1875 
Q 40.625 48.1875 47.75 41.5 
Q 54.890625 34.8125 54.890625 23.390625 
Q 54.890625 11.625 47.5625 5.09375 
Q 40.234375 -1.421875 26.90625 -1.421875 
Q 22.3125 -1.421875 17.546875 -0.640625 
Q 12.796875 0.140625 7.71875 1.703125 
L 7.71875 11.625 
Q 12.109375 9.234375 16.796875 8.0625 
Q 21.484375 6.890625 26.703125 6.890625 
Q 35.15625 6.890625 40.078125 11.328125 
Q 45.015625 15.765625 45.015625 23.390625 
Q 45.015625 31 40.078125 35.4375 
Q 35.15625 39.890625 26.703125 39.890625 
Q 22.75 39.890625 18.8125 39.015625 
Q 14.890625 38.140625 10.796875 36.28125 
z
" id="DejaVuSans-53"/>
      </defs>
      <g transform="translate(13.096875 202.874838)scale(0.1 -0.1)">
       <use xlink:href="#DejaVuSans-48"/>
       <use x="63.623047" xlink:href="#DejaVuSans-46"/>
       <use x="95.410156" xlink:href="#DejaVuSans-53"/>
      </g>
     </g>
    </g>
    <g id="ytick_3">
     <g id="line2d_8">
      <g>
       <use style="stroke:#000000;stroke-width:0.8;" x="36" xlink:href="#mc3a9e76ead" y="156.034874"/>
      </g>
     </g>
     <g id="text_9">
      <!-- 1.0 -->
      <g transform="translate(13.096875 159.834093)scale(0.1 -0.1)">
       <use xlink:href="#DejaVuSans-49"/>
       <use x="63.623047" xlink:href="#DejaVuSans-46"/>
       <use x="95.410156" xlink:href="#DejaVuSans-48"/>
      </g>
     </g>
    </g>
    <g id="ytick_4">
     <g id="line2d_9">
      <g>
       <use style="stroke:#000000;stroke-width:0.8;" x="36" xlink:href="#mc3a9e76ead" y="112.994129"/>
      </g>
     </g>
     <g id="text_10">
      <!-- 1.5 -->
      <g transform="translate(13.096875 116.793348)scale(0.1 -0.1)">
       <use xlink:href="#DejaVuSans-49"/>
       <use x="63.623047" xlink:href="#DejaVuSans-46"/>
       <use x="95.410156" xlink:href="#DejaVuSans-53"/>
      </g>
     </g>
    </g>
    <g id="ytick_5">
     <g id="line2d_10">
      <g>
       <use style="stroke:#000000;stroke-width:0.8;" x="36" xlink:href="#mc3a9e76ead" y="69.953384"/>
      </g>
     </g>
     <g id="text_11">
      <!-- 2.0 -->
      <g transform="translate(13.096875 73.752603)scale(0.1 -0.1)">
       <use xlink:href="#DejaVuSans-50"/>
       <use x="63.623047" xlink:href="#DejaVuSans-46"/>
       <use x="95.410156" xlink:href="#DejaVuSans-48"/>
      </g>
     </g>
    </g>
    <g id="text_12">
     <!-- Elongation -->
     <defs>
      <path d="M 9.8125 72.90625 
L 55.90625 72.90625 
L 55.90625 64.59375 
L 19.671875 64.59375 
L 19.671875 43.015625 
L 54.390625 43.015625 
L 54.390625 34.71875 
L 19.671875 34.71875 
L 19.671875 8.296875 
L 56.78125 8.296875 
L 56.78125 0 
L 9.8125 0 
z
" id="DejaVuSans-69"/>
      <path d="M 45.40625 27.984375 
Q 45.40625 37.75 41.375 43.109375 
Q 37.359375 48.484375 30.078125 48.484375 
Q 22.859375 48.484375 18.828125 43.109375 
Q 14.796875 37.75 14.796875 27.984375 
Q 14.796875 18.265625 18.828125 12.890625 
Q 22.859375 7.515625 30.078125 7.515625 
Q 37.359375 7.515625 41.375 12.890625 
Q 45.40625 18.265625 45.40625 27.984375 
z
M 54.390625 6.78125 
Q 54.390625 -7.171875 48.1875 -13.984375 
Q 42 -20.796875 29.203125 -20.796875 
Q 24.46875 -20.796875 20.265625 -20.09375 
Q 16.0625 -19.390625 12.109375 -17.921875 
L 12.109375 -9.1875 
Q 16.0625 -11.328125 19.921875 -12.34375 
Q 23.78125 -13.375 27.78125 -13.375 
Q 36.625 -13.375 41.015625 -8.765625 
Q 45.40625 -4.15625 45.40625 5.171875 
L 45.40625 9.625 
Q 42.625 4.78125 38.28125 2.390625 
Q 33.9375 0 27.875 0 
Q 17.828125 0 11.671875 7.65625 
Q 5.515625 15.328125 5.515625 27.984375 
Q 5.515625 40.671875 11.671875 48.328125 
Q 17.828125 56 27.875 56 
Q 33.9375 56 38.28125 53.609375 
Q 42.625 51.21875 45.40625 46.390625 
L 45.40625 54.6875 
L 54.390625 54.6875 
z
" id="DejaVuSans-103"/>
     </defs>
     <g transform="translate(7.017187 169.872187)rotate(-90)scale(0.1 -0.1)">
      <use xlink:href="#DejaVuSans-69"/>
      <use x="63.183594" xlink:href="#DejaVuSans-108"/>
      <use x="90.966797" xlink:href="#DejaVuSans-111"/>
      <use x="152.148438" xlink:href="#DejaVuSans-110"/>
      <use x="215.527344" xlink:href="#DejaVuSans-103"/>
      <use x="279.003906" xlink:href="#DejaVuSans-97"/>
      <use x="340.283203" xlink:href="#DejaVuSans-116"/>
      <use x="379.492188" xlink:href="#DejaVuSans-105"/>
      <use x="407.275391" xlink:href="#DejaVuSans-111"/>
      <use x="468.457031" xlink:href="#DejaVuSans-110"/>
     </g>
    </g>
   </g>
   <g id="line2d_11">
    <path clip-path="url(#pf2de9fa2ce)" d="M 179.767113 112.739402 
L 180.862223 110.700964 
L 181.97394 108.616695 
L 183.102614 106.485283 
L 184.248602 104.305374 
L 185.412269 102.075563 
L 186.593994 99.794402 
L 187.794159 97.460386 
L 189.013162 95.071963 
L 190.251408 92.627522 
L 191.509311 90.125398 
L 192.7873 87.563865 
L 194.085812 84.941136 
L 195.405295 82.25536 
L 196.74621 79.504617 
L 198.109029 76.686922 
L 199.494236 73.800212 
L 200.902329 70.842352 
L 202.333817 67.811128 
L 203.789222 64.704242 
L 205.269081 61.519311 
L 205.269081 61.519311 
L 206.018353 59.896811 
L 206.773945 58.253865 
" style="fill:none;stroke:#ff0000;stroke-linecap:square;stroke-width:1.5;"/>
   </g>
   <g id="line2d_12">
    <path clip-path="url(#pf2de9fa2ce)" d="M 185.167699 145.023904 
L 186.295989 143.874916 
L 187.441076 142.62342 
L 188.603303 141.283995 
L 189.783018 139.867206 
L 190.98058 138.380619 
L 192.196356 136.829586 
L 193.430721 135.217836 
L 194.684061 133.547891 
L 195.956769 131.821375 
L 197.249249 130.03923 
L 198.561914 128.201866 
L 199.895188 126.309277 
L 201.249503 124.361124 
L 202.625304 122.356789 
L 204.023045 120.295425 
L 205.443191 118.175986 
L 206.886219 115.99725 
L 208.352616 113.757838 
L 209.842883 111.456225 
L 211.35753 109.090751 
L 212.897081 106.659628 
L 214.462071 104.16094 
L 216.053049 101.592649 
L 217.670576 98.952594 
L 219.315225 96.238491 
L 220.987585 93.447929 
L 222.688256 90.578371 
L 224.417852 87.627149 
L 226.177002 84.591456 
L 227.966348 81.468348 
L 229.786548 78.25473 
L 231.638272 74.947358 
L 231.638272 74.947358 
L 232.57617 73.257455 
L 233.522206 71.542823 
" style="fill:none;stroke:#bfbf00;stroke-linecap:square;stroke-width:1.5;"/>
   </g>
   <g id="line2d_13">
    <path clip-path="url(#pf2de9fa2ce)" d="M 172.621586 132.174364 
L 173.681301 130.369344 
L 174.757541 128.519564 
L 175.850665 126.623947 
L 176.961042 124.681321 
L 178.08905 122.690428 
L 179.235078 120.649929 
L 180.399523 118.55841 
L 181.582796 116.414385 
L 182.785316 114.216293 
L 184.007516 111.962502 
L 185.24984 109.651308 
L 186.512742 107.280931 
L 187.79669 104.849517 
L 189.102166 102.355135 
L 190.429662 99.795774 
L 191.779687 97.169339 
L 193.15276 94.473654 
L 194.549418 91.70645 
L 195.97021 88.865369 
L 197.415701 85.947956 
L 198.886472 82.95166 
L 200.38312 79.873821 
L 201.906256 76.711676 
L 203.456511 73.462347 
L 205.034532 70.122838 
L 206.640983 66.69003 
L 208.276547 63.160677 
L 208.276547 63.160677 
L 209.105465 61.358745 
L 209.941925 59.531397 
" style="fill:none;stroke:#bfbf00;stroke-linecap:square;stroke-width:1.5;"/>
   </g>
   <g id="line2d_14">
    <path clip-path="url(#pf2de9fa2ce)" d="M 171.791911 88.653386 
L 172.848415 86.364212 
L 173.921525 84.008338 
L 175.011605 81.584338 
L 176.119032 79.090681 
L 177.244192 76.525729 
L 178.387482 73.887735 
L 179.549308 71.174844 
L 180.730091 68.385091 
L 181.930259 65.516396 
L 183.150256 62.566562 
L 184.390537 59.533276 
L 185.651567 56.414101 
L 186.933829 53.206472 
L 186.933829 53.206472 
L 187.583075 51.568651 
L 188.237814 49.907696 
" style="fill:none;stroke:#bfbf00;stroke-linecap:square;stroke-width:1.5;"/>
   </g>
   <g id="line2d_15">
    <path clip-path="url(#pf2de9fa2ce)" d="M 171.490208 67.991966 
L 172.532371 65.194349 
L 173.590784 62.329335 
L 174.665806 59.394881 
L 175.757805 56.388861 
L 176.867158 53.309065 
L 177.994253 50.15319 
L 179.13949 46.918839 
L 179.13949 46.918839 
L 179.719039 45.271459 
" style="fill:none;stroke:#bfbf00;stroke-linecap:square;stroke-width:1.5;"/>
   </g>
   <g id="line2d_16">
    <path clip-path="url(#pf2de9fa2ce)" d="M 46.145455 242.116364 
" style="fill:none;stroke:#bfbf00;stroke-linecap:square;stroke-width:1.5;"/>
   </g>
   <g id="line2d_17">
    <path clip-path="url(#pf2de9fa2ce)" d="M 182.869797 111.877183 
L 183.981972 110.370719 
L 185.110864 108.809805 
L 186.256823 107.194573 
L 187.420203 105.525035 
L 188.601369 103.801091 
L 189.800697 102.022533 
L 191.018569 100.189045 
L 192.255378 98.300212 
L 193.511529 96.35552 
L 194.787434 94.35436 
L 196.083517 92.296028 
L 197.400213 90.179734 
L 198.737966 88.004597 
L 200.097234 85.76965 
L 201.478485 83.47384 
L 202.882198 81.11603 
L 204.308867 78.694998 
L 205.758995 76.209439 
L 207.233099 73.657963 
L 208.73171 71.039095 
L 210.255371 68.351276 
L 211.804639 65.592856 
L 211.804639 65.592856 
L 212.589053 64.186633 
L 213.380084 62.762102 
" style="fill:none;stroke:#bfbf00;stroke-linecap:square;stroke-width:1.5;"/>
   </g>
   <g id="line2d_18">
    <path clip-path="url(#pf2de9fa2ce)" d="M 170.929909 123.507208 
L 171.979001 121.508723 
L 173.044584 119.460208 
L 174.127023 117.360164 
L 175.226689 115.207017 
L 176.343969 112.999116 
L 177.479256 110.734736 
L 178.632955 108.412071 
L 179.805485 106.029236 
L 180.997272 103.584261 
L 182.208757 101.075091 
L 183.440394 98.499582 
L 184.692647 95.855495 
L 185.965994 93.140494 
L 187.260929 90.352141 
L 188.577956 87.487893 
L 189.917597 84.545092 
L 191.280386 81.520965 
L 192.666874 78.412613 
L 194.077627 75.217011 
L 195.513227 71.930994 
L 196.974275 68.551254 
L 198.461386 65.074333 
L 199.975194 61.49661 
L 201.516352 57.814297 
L 201.516352 57.814297 
L 202.297397 55.932687 
" style="fill:none;stroke:#bfbf00;stroke-linecap:square;stroke-width:1.5;"/>
   </g>
   <g id="line2d_19">
    <path clip-path="url(#pf2de9fa2ce)" d="M 172.854061 114.112138 
L 173.913295 112.266005 
L 174.989097 110.369965 
L 176.08183 108.423377 
L 177.191867 106.425492 
L 178.319594 104.375458 
L 179.465403 102.272329 
L 180.629702 100.115066 
L 181.812905 97.902541 
L 183.015441 95.633542 
L 184.23775 93.306771 
L 185.480282 90.920848 
L 186.743504 88.474311 
L 188.027892 85.965615 
L 189.333936 83.393131 
L 190.662142 80.755148 
L 192.013027 78.049868 
L 193.387124 75.275408 
L 194.784982 72.429795 
L 196.207165 69.510964 
L 197.65425 66.516757 
L 199.126834 63.444917 
L 200.625529 60.293087 
L 200.625529 60.293087 
L 201.384864 58.686411 
L 202.150964 57.058805 
" style="fill:none;stroke:#bfbf00;stroke-linecap:square;stroke-width:1.5;"/>
   </g>
   <g id="line2d_20">
    <path clip-path="url(#pf2de9fa2ce)" d="M 189.217591 69.739112 
L 190.366827 68.077404 
L 191.532906 66.348741 
L 192.716164 64.552164 
L 193.916942 62.68666 
L 195.13559 60.751151 
L 196.372467 58.744496 
L 197.627938 56.665489 
L 197.627938 56.665489 
L 198.262763 55.598456 
L 198.902379 54.512849 
" style="fill:none;stroke:#bfbf00;stroke-linecap:square;stroke-width:1.5;"/>
   </g>
   <g id="line2d_21">
    <path clip-path="url(#pf2de9fa2ce)" d="M 178.835859 88.48449 
L 179.915181 86.282395 
L 181.01087 84.033548 
L 182.123275 81.736834 
L 183.252752 79.391098 
L 184.399669 76.995144 
L 185.564399 74.547733 
L 186.747331 72.047581 
L 187.948859 69.493362 
L 189.16939 66.883704 
L 190.409341 64.217185 
L 191.669141 61.49234 
L 192.94923 58.707649 
L 194.250058 55.861546 
L 194.250058 55.861546 
L 194.908394 54.41496 
L 195.572089 52.952409 
" style="fill:none;stroke:#bfbf00;stroke-linecap:square;stroke-width:1.5;"/>
   </g>
   <g id="line2d_22">
    <path clip-path="url(#pf2de9fa2ce)" d="M 184.424872 97.093135 
L 185.53894 94.925713 
L 186.669577 92.708857 
L 187.817124 90.441328 
L 188.98193 88.121827 
L 190.164355 85.749 
L 191.364766 83.321435 
L 192.583539 80.837655 
L 193.82106 78.296125 
L 195.077726 75.695245 
L 196.353942 73.033348 
L 197.650124 70.308698 
L 198.966699 67.519489 
L 200.304104 64.663841 
L 201.662788 61.739795 
L 203.04321 58.745313 
L 203.04321 58.745313 
L 203.741719 57.220998 
" style="fill:none;stroke:#bfbf00;stroke-linecap:square;stroke-width:1.5;"/>
   </g>
   <g id="line2d_23">
    <path clip-path="url(#pf2de9fa2ce)" d="M 178.129161 141.56905 
L 179.221046 140.647824 
L 180.329617 139.608956 
L 181.455227 138.464221 
L 182.598234 137.223695 
L 183.759008 135.895734 
L 184.937927 134.487115 
L 186.13538 133.00323 
L 187.351765 131.448288 
L 188.58749 129.825517 
L 189.842973 128.137325 
L 191.118643 126.385445 
L 192.414941 124.571048 
L 193.732319 122.69484 
L 195.071238 120.757136 
L 196.432174 118.75792 
L 197.815614 116.696895 
L 199.222056 114.573518 
L 200.652012 112.387032 
L 202.106008 110.136493 
L 203.584582 107.820782 
L 205.088285 105.438629 
L 206.617684 102.988619 
L 208.173358 100.469202 
L 209.755903 97.878703 
L 211.365928 95.215325 
L 213.004058 92.477153 
L 214.670933 89.662158 
L 216.367211 86.7682 
L 218.093563 83.793025 
L 219.850679 80.734271 
L 221.639265 77.589461 
L 223.460044 74.356008 
L 225.313756 71.031212 
L 225.313756 71.031212 
L 226.253198 69.333685 
" style="fill:none;stroke:#bfbf00;stroke-linecap:square;stroke-width:1.5;"/>
   </g>
   <g id="line2d_24">
    <path clip-path="url(#pf2de9fa2ce)" d="M 175.330457 106.271352 
L 176.407956 104.508286 
L 177.502112 102.677468 
L 178.613283 100.77862 
L 179.741835 98.811315 
L 180.888143 96.774987 
L 182.052592 94.668926 
L 183.235579 92.492291 
L 184.437508 90.244102 
L 185.658797 87.923251 
L 186.899872 85.528502 
L 188.161174 83.058488 
L 189.443151 80.511721 
L 190.746267 77.886583 
L 192.070997 75.181335 
L 193.417826 72.394111 
L 194.787256 69.522919 
L 196.179799 66.565644 
L 197.595984 63.520041 
L 199.036351 60.383736 
L 200.501455 57.154223 
L 200.501455 57.154223 
L 201.243461 55.503693 
" style="fill:none;stroke:#bfbf00;stroke-linecap:square;stroke-width:1.5;"/>
   </g>
   <g id="line2d_25">
    <path clip-path="url(#pf2de9fa2ce)" d="M 180.972126 112.274822 
L 182.065877 110.360118 
L 183.176033 108.400285 
L 184.302934 106.394513 
L 185.446931 104.341926 
L 186.608381 102.241588 
L 187.787655 100.092505 
L 188.985128 97.893627 
L 190.201189 95.64385 
L 191.436235 93.342019 
L 192.690672 90.986925 
L 193.964919 88.577308 
L 195.259405 86.111858 
L 196.574568 83.589215 
L 197.910861 81.007966 
L 199.268746 78.366651 
L 200.648697 75.663756 
L 202.051202 72.897717 
L 203.476761 70.06692 
L 204.925887 67.169696 
L 206.399105 64.204327 
L 207.896954 61.169038 
L 207.896954 61.169038 
L 208.655289 59.624606 
" style="fill:none;stroke:#bfbf00;stroke-linecap:square;stroke-width:1.5;"/>
   </g>
   <g id="line2d_26">
    <path clip-path="url(#pf2de9fa2ce)" d="M 183.25072 88.109825 
L 184.361133 86.390564 
L 185.488085 84.610923 
L 186.631916 82.770358 
L 187.792973 80.868257 
L 188.97161 78.903943 
L 190.168194 76.876672 
L 191.383097 74.78563 
L 192.616703 72.629936 
L 193.869404 70.408639 
L 195.141602 68.120719 
L 196.433708 65.765082 
L 197.746147 63.340569 
L 199.07935 60.845943 
L 200.433761 58.279899 
L 200.433761 58.279899 
L 201.119061 56.969668 
L 201.809835 55.641058 
" style="fill:none;stroke:#bfbf00;stroke-linecap:square;stroke-width:1.5;"/>
   </g>
   <g id="line2d_27">
    <path clip-path="url(#pf2de9fa2ce)" d="M 180.462047 82.805619 
L 181.564746 80.223936 
L 182.68416 77.578411 
L 183.820639 74.867214 
L 184.97454 72.088438 
L 186.146231 69.240094 
L 187.336089 66.32011 
L 188.5445 63.326329 
L 189.771861 60.256501 
L 191.018577 57.108285 
L 192.285066 53.879245 
L 192.285066 53.879245 
L 192.925858 52.233627 
" style="fill:none;stroke:#bfbf00;stroke-linecap:square;stroke-width:1.5;"/>
   </g>
   <g id="line2d_28">
    <path clip-path="url(#pf2de9fa2ce)" d="M 180.416901 112.920471 
L 181.513838 110.976652 
L 182.627362 108.976678 
L 183.757821 106.919718 
L 184.905571 104.804814 
L 186.070978 102.630879 
L 187.254416 100.396712 
L 188.456272 98.100994 
L 189.676938 95.742297 
L 190.916821 93.319084 
L 192.176333 90.82971 
L 193.455903 88.272425 
L 194.755965 85.645371 
L 196.076969 82.946581 
L 197.419373 80.173982 
L 198.78365 77.325388 
L 200.170282 74.398501 
L 201.579767 71.390905 
L 203.012612 68.300067 
L 204.469342 65.123329 
L 205.95049 61.857904 
L 205.95049 61.857904 
L 206.700393 60.191028 
L 207.456608 58.500875 
" style="fill:none;stroke:#bfbf00;stroke-linecap:square;stroke-width:1.5;"/>
   </g>
   <g id="line2d_29">
    <path clip-path="url(#pf2de9fa2ce)" d="M 179.320665 126.127349 
L 180.416425 124.886209 
L 181.528863 123.573525 
L 182.658329 122.191262 
L 183.805183 120.741093 
L 184.969792 119.224398 
L 186.152536 117.642285 
L 187.3538 115.995596 
L 188.573983 114.284928 
L 189.813492 112.510647 
L 191.072745 110.672907 
L 192.35217 108.771657 
L 193.652206 106.806664 
L 194.973304 104.777518 
L 196.315926 102.683646 
L 197.680546 100.524323 
L 199.067649 98.298678 
L 200.477735 96.0057 
L 201.911313 93.644248 
L 203.368909 91.213055 
L 204.851059 88.710729 
L 206.358314 86.13576 
L 207.891238 83.486522 
L 209.450413 80.761273 
L 211.036429 77.958159 
L 212.649897 75.075213 
L 214.29144 72.110355 
L 215.961698 69.061395 
L 217.661324 65.926029 
L 217.661324 65.926029 
L 218.52236 64.325192 
" style="fill:none;stroke:#bfbf00;stroke-linecap:square;stroke-width:1.5;"/>
   </g>
   <g id="line2d_30">
    <path clip-path="url(#pf2de9fa2ce)" d="M 176.634849 93.899312 
L 177.713058 91.518352 
L 178.807856 89.079764 
L 179.919601 86.581901 
L 181.048658 84.023044 
L 182.195403 81.401401 
L 183.360222 78.715102 
L 184.543511 75.9622 
L 185.745676 73.140667 
L 186.967135 70.248388 
L 188.208317 67.28316 
L 189.469661 64.242691 
L 190.751621 61.124591 
L 192.05466 57.926369 
L 193.379256 54.645432 
L 193.379256 54.645432 
L 194.04979 52.973105 
" style="fill:none;stroke:#bfbf00;stroke-linecap:square;stroke-width:1.5;"/>
   </g>
   <g id="line2d_31">
    <path clip-path="url(#pf2de9fa2ce)" d="M 178.587266 128.666764 
L 179.682245 126.930476 
L 180.793983 125.14752 
L 181.922833 123.317516 
L 183.069161 121.439911 
L 184.233338 119.514005 
L 185.415748 117.53897 
L 186.616784 115.513863 
L 187.836848 113.437639 
L 189.076353 111.309156 
L 190.335723 109.127186 
L 191.615392 106.890415 
L 192.915808 104.597447 
L 194.237427 102.24681 
L 195.580719 99.836951 
L 196.946165 97.366243 
L 198.33426 94.83298 
L 199.745511 92.23538 
L 201.180437 89.571582 
L 202.639572 86.839647 
L 204.123464 84.037552 
L 205.632674 81.163193 
L 207.167779 78.21438 
L 208.729369 75.188835 
L 210.318049 72.084189 
L 211.934443 68.89798 
L 213.579187 65.627648 
L 213.579187 65.627648 
L 214.412394 63.960108 
L 215.252935 62.270531 
" style="fill:none;stroke:#bfbf00;stroke-linecap:square;stroke-width:1.5;"/>
   </g>
   <g id="line2d_32">
    <path clip-path="url(#pf2de9fa2ce)" d="M 174.345916 116.587594 
L 175.415228 114.964702 
L 176.501157 113.278626 
L 177.604061 111.52954 
L 178.724311 109.717422 
L 179.862286 107.842064 
L 181.018373 105.903075 
L 182.192974 103.8999 
L 183.386497 101.83182 
L 184.599363 99.697961 
L 185.832006 97.497301 
L 187.084868 95.228672 
L 188.358405 92.890768 
L 189.653086 90.482143 
L 190.96939 88.001214 
L 192.30781 85.446265 
L 193.668855 82.815442 
L 195.053043 80.106758 
L 196.460909 77.318087 
L 197.893001 74.447163 
L 199.349884 71.491581 
L 200.832135 68.448785 
L 202.340348 65.316074 
L 203.875134 62.09059 
L 203.875134 62.09059 
L 204.652687 60.442121 
L 205.437119 58.769314 
" style="fill:none;stroke:#bfbf00;stroke-linecap:square;stroke-width:1.5;"/>
   </g>
   <g id="line2d_33">
    <path clip-path="url(#pf2de9fa2ce)" d="M 188.06437 120.534265 
L 189.204431 118.611581 
L 190.361222 116.64228 
L 191.535078 114.62522 
L 192.726339 112.559181 
L 193.935354 110.442872 
L 195.162482 108.274929 
L 196.408089 106.05392 
L 197.672547 103.778338 
L 198.956242 101.446609 
L 200.259564 99.057084 
L 201.582916 96.608043 
L 202.926707 94.097688 
L 204.291357 91.524146 
L 205.677297 88.885462 
L 207.084966 86.179601 
L 208.514814 83.40444 
L 209.967301 80.557767 
L 211.442897 77.63728 
L 212.942085 74.640576 
L 214.465356 71.565154 
L 216.013214 68.408409 
L 217.586173 65.167621 
L 217.586173 65.167621 
L 218.38223 63.514831 
" style="fill:none;stroke:#bfbf00;stroke-linecap:square;stroke-width:1.5;"/>
   </g>
   <g id="line2d_34">
    <path clip-path="url(#pf2de9fa2ce)" d="M 183.962019 135.594596 
L 185.082615 134.292611 
L 186.219987 132.932096 
L 187.37448 131.515868 
L 188.546448 130.046117 
L 189.736252 128.524509 
L 190.944262 126.952271 
L 192.170858 125.330261 
L 193.416428 123.659027 
L 194.681372 121.938856 
L 195.966097 120.169807 
L 197.271021 118.351747 
L 198.596572 116.484377 
L 199.94319 114.567246 
L 201.311324 112.599775 
L 202.701433 110.581267 
L 204.113991 108.510917 
L 205.54948 106.387824 
L 207.008395 104.210996 
L 208.491242 101.979356 
L 209.998541 99.691748 
L 211.530823 97.346939 
L 213.088633 94.943625 
L 214.672527 92.48043 
L 216.283076 89.955909 
L 217.920863 87.36855 
L 219.586487 84.716778 
L 221.280559 81.998948 
L 223.003705 79.213355 
L 224.756564 76.358228 
L 226.539791 73.431733 
L 226.539791 73.431733 
L 227.443001 71.941132 
L 228.354056 70.431973 
" style="fill:none;stroke:#bfbf00;stroke-linecap:square;stroke-width:1.5;"/>
   </g>
   <g id="line2d_35">
    <path clip-path="url(#pf2de9fa2ce)" d="M 178.231557 93.845567 
L 179.316702 91.792947 
L 180.418404 89.684929 
L 181.537017 87.520521 
L 182.6729 85.298652 
L 183.826426 83.018172 
L 184.997973 80.677853 
L 186.187932 78.276385 
L 187.396704 75.812379 
L 188.624699 73.284367 
L 189.87234 70.690796 
L 191.14006 68.030033 
L 192.428302 65.300356 
L 193.737524 62.499961 
L 195.068194 59.62695 
L 196.420792 56.679337 
L 196.420792 56.679337 
L 197.105469 55.176907 
L 197.795813 53.655039 
" style="fill:none;stroke:#bfbf00;stroke-linecap:square;stroke-width:1.5;"/>
   </g>
   <g id="line2d_36">
    <path clip-path="url(#pf2de9fa2ce)" d="M 183.032651 113.393004 
L 184.144522 111.479675 
L 185.273076 109.524848 
L 186.418656 107.527515 
L 187.581619 105.486625 
L 188.762327 103.401087 
L 189.961152 101.269766 
L 191.178476 99.091486 
L 192.41469 96.865028 
L 193.670196 94.589127 
L 194.945403 92.262476 
L 196.240735 89.883721 
L 197.556622 87.451462 
L 198.893507 84.96425 
L 200.251846 82.420588 
L 201.632102 79.818929 
L 203.034754 77.157671 
L 204.460291 74.435163 
L 205.909213 71.649696 
L 207.382037 68.799504 
L 208.879287 65.882764 
L 210.401505 62.89759 
L 210.401505 62.89759 
L 211.172149 61.378735 
" style="fill:none;stroke:#bfbf00;stroke-linecap:square;stroke-width:1.5;"/>
   </g>
   <g id="line2d_37">
    <path clip-path="url(#pf2de9fa2ce)" d="M 183.053464 97.849969 
L 184.173028 95.471627 
L 185.309423 93.036295 
L 186.462996 90.542218 
L 187.634101 87.987571 
L 188.823101 85.370461 
L 190.030369 82.688917 
L 191.256287 79.940894 
L 192.501245 77.124265 
L 193.765644 74.236818 
L 195.049894 71.276253 
L 196.354416 68.240177 
L 197.679639 65.1261 
L 199.026006 61.931431 
L 200.393968 58.653473 
L 200.393968 58.653473 
L 201.086192 56.982386 
L 201.783989 55.289414 
" style="fill:none;stroke:#bfbf00;stroke-linecap:square;stroke-width:1.5;"/>
   </g>
   <g id="line2d_38">
    <path clip-path="url(#pf2de9fa2ce)" d="M 175.963951 44.443636 
L 196.14233 54.378356 
L 227.962733 70.332334 
L 249.054545 80.894479 
L 249.054545 80.894479 
" style="fill:none;stroke:#008000;stroke-linecap:square;stroke-width:1.5;"/>
   </g>
   <g id="patch_3">
    <path d="M 36 252 
L 36 34.56 
" style="fill:none;stroke:#000000;stroke-linecap:square;stroke-linejoin:miter;stroke-width:0.8;"/>
   </g>
   <g id="patch_4">
    <path d="M 259.2 252 
L 259.2 34.56 
" style="fill:none;stroke:#000000;stroke-linecap:square;stroke-linejoin:miter;stroke-width:0.8;"/>
   </g>
   <g id="patch_5">
    <path d="M 36 252 
L 259.2 252 
" style="fill:none;stroke:#000000;stroke-linecap:square;stroke-linejoin:miter;stroke-width:0.8;"/>
   </g>
   <g id="patch_6">
    <path d="M 36 34.56 
L 259.2 34.56 
" style="fill:none;stroke:#000000;stroke-linecap:square;stroke-linejoin:miter;stroke-width:0.8;"/>
   </g>
   <g id="text_13">
    <!--  0.79 -->
    <defs>
     <path id="DejaVuSans-32"/>
     <path d="M 8.203125 72.90625 
L 55.078125 72.90625 
L 55.078125 68.703125 
L 28.609375 0 
L 18.3125 0 
L 43.21875 64.59375 
L 8.203125 64.59375 
z
" id="DejaVuSans-55"/>
     <path d="M 10.984375 1.515625 
L 10.984375 10.5 
Q 14.703125 8.734375 18.5 7.8125 
Q 22.3125 6.890625 25.984375 6.890625 
Q 35.75 6.890625 40.890625 13.453125 
Q 46.046875 20.015625 46.78125 33.40625 
Q 43.953125 29.203125 39.59375 26.953125 
Q 35.25 24.703125 29.984375 24.703125 
Q 19.046875 24.703125 12.671875 31.3125 
Q 6.296875 37.9375 6.296875 49.421875 
Q 6.296875 60.640625 12.9375 67.421875 
Q 19.578125 74.21875 30.609375 74.21875 
Q 43.265625 74.21875 49.921875 64.515625 
Q 56.59375 54.828125 56.59375 36.375 
Q 56.59375 19.140625 48.40625 8.859375 
Q 40.234375 -1.421875 26.421875 -1.421875 
Q 22.703125 -1.421875 18.890625 -0.6875 
Q 15.09375 0.046875 10.984375 1.515625 
z
M 30.609375 32.421875 
Q 37.25 32.421875 41.125 36.953125 
Q 45.015625 41.5 45.015625 49.421875 
Q 45.015625 57.28125 41.125 61.84375 
Q 37.25 66.40625 30.609375 66.40625 
Q 23.96875 66.40625 20.09375 61.84375 
Q 16.21875 57.28125 16.21875 49.421875 
Q 16.21875 41.5 20.09375 36.953125 
Q 23.96875 32.421875 30.609375 32.421875 
z
" id="DejaVuSans-57"/>
    </defs>
    <g transform="translate(206.773945 58.253865)scale(0.1 -0.1)">
     <use xlink:href="#DejaVuSans-32"/>
     <use x="31.787109" xlink:href="#DejaVuSans-48"/>
     <use x="95.410156" xlink:href="#DejaVuSans-46"/>
     <use x="127.197266" xlink:href="#DejaVuSans-55"/>
     <use x="190.820312" xlink:href="#DejaVuSans-57"/>
    </g>
   </g>
   <g id="text_14">
    <!--  f=1 -->
    <defs>
     <path d="M 37.109375 75.984375 
L 37.109375 68.5 
L 28.515625 68.5 
Q 23.6875 68.5 21.796875 66.546875 
Q 19.921875 64.59375 19.921875 59.515625 
L 19.921875 54.6875 
L 34.71875 54.6875 
L 34.71875 47.703125 
L 19.921875 47.703125 
L 19.921875 0 
L 10.890625 0 
L 10.890625 47.703125 
L 2.296875 47.703125 
L 2.296875 54.6875 
L 10.890625 54.6875 
L 10.890625 58.5 
Q 10.890625 67.625 15.140625 71.796875 
Q 19.390625 75.984375 28.609375 75.984375 
z
" id="DejaVuSans-102"/>
     <path d="M 10.59375 45.40625 
L 73.1875 45.40625 
L 73.1875 37.203125 
L 10.59375 37.203125 
z
M 10.59375 25.484375 
L 73.1875 25.484375 
L 73.1875 17.1875 
L 10.59375 17.1875 
z
" id="DejaVuSans-61"/>
    </defs>
    <g transform="translate(170.2607 112.739402)scale(0.1 -0.1)">
     <use xlink:href="#DejaVuSans-32"/>
     <use x="31.787109" xlink:href="#DejaVuSans-102"/>
     <use x="66.992188" xlink:href="#DejaVuSans-61"/>
     <use x="150.78125" xlink:href="#DejaVuSans-49"/>
    </g>
   </g>
  </g>
 </g>
 <defs>
  <clipPath id="pf2de9fa2ce">
   <rect height="217.44" width="223.2" x="36" y="34.56"/>
  </clipPath>
 </defs>
</svg>
