<?xml version="1.0" encoding="utf-8" standalone="no"?>
<!DOCTYPE svg PUBLIC "-//W3C//DTD SVG 1.1//EN"
  "http://www.w3.org/Graphics/SVG/1.1/DTD/svg11.dtd">
<!-- Created with matplotlib (https://matplotlib.org/) -->
<svg height="288pt" version="1.1" viewBox="0 0 288 288" width="288pt" xmlns="http://www.w3.org/2000/svg" xmlns:xlink="http://www.w3.org/1999/xlink">
 <defs>
  <style type="text/css">
*{stroke-linecap:butt;stroke-linejoin:round;}
  </style>
 </defs>
 <g id="figure_1">
  <g id="patch_1">
   <path d="M 0 288 
L 288 288 
L 288 0 
L 0 0 
z
" style="fill:#ffffff;"/>
  </g>
  <g id="axes_1">
   <g id="patch_2">
    <path d="M 36 252 
L 259.2 252 
L 259.2 34.56 
L 36 34.56 
z
" style="fill:#ffffff;"/>
   </g>
   <g id="matplotlib.axis_1">
    <g id="xtick_1">
     <g id="line2d_1">
      <defs>
       <path d="M 0 0 
L 0 3.5 
" id="m829f9dc91b" style="stroke:#000000;stroke-width:0.8;"/>
      </defs>
      <g>
       <use style="stroke:#000000;stroke-width:0.8;" x="67.747168" xlink:href="#m829f9dc91b" y="252"/>
      </g>
     </g>
     <g id="text_1">
      <!-- 30 -->
      <defs>
       <path d="M 40.578125 39.3125 
Q 47.65625 37.796875 51.625 33 
Q 55.609375 28.21875 55.609375 21.1875 
Q 55.609375 10.40625 48.1875 4.484375 
Q 40.765625 -1.421875 27.09375 -1.421875 
Q 22.515625 -1.421875 17.65625 -0.515625 
Q 12.796875 0.390625 7.625 2.203125 
L 7.625 11.71875 
Q 11.71875 9.328125 16.59375 8.109375 
Q 21.484375 6.890625 26.8125 6.890625 
Q 36.078125 6.890625 40.9375 10.546875 
Q 45.796875 14.203125 45.796875 21.1875 
Q 45.796875 27.640625 41.28125 31.265625 
Q 36.765625 34.90625 28.71875 34.90625 
L 20.21875 34.90625 
L 20.21875 43.015625 
L 29.109375 43.015625 
Q 36.375 43.015625 40.234375 45.921875 
Q 44.09375 48.828125 44.09375 54.296875 
Q 44.09375 59.90625 40.109375 62.90625 
Q 36.140625 65.921875 28.71875 65.921875 
Q 24.65625 65.921875 20.015625 65.03125 
Q 15.375 64.15625 9.8125 62.3125 
L 9.8125 71.09375 
Q 15.4375 72.65625 20.34375 73.4375 
Q 25.25 74.21875 29.59375 74.21875 
Q 40.828125 74.21875 47.359375 69.109375 
Q 53.90625 64.015625 53.90625 55.328125 
Q 53.90625 49.265625 50.4375 45.09375 
Q 46.96875 40.921875 40.578125 39.3125 
z
" id="DejaVuSans-51"/>
       <path d="M 31.78125 66.40625 
Q 24.171875 66.40625 20.328125 58.90625 
Q 16.5 51.421875 16.5 36.375 
Q 16.5 21.390625 20.328125 13.890625 
Q 24.171875 6.390625 31.78125 6.390625 
Q 39.453125 6.390625 43.28125 13.890625 
Q 47.125 21.390625 47.125 36.375 
Q 47.125 51.421875 43.28125 58.90625 
Q 39.453125 66.40625 31.78125 66.40625 
z
M 31.78125 74.21875 
Q 44.046875 74.21875 50.515625 64.515625 
Q 56.984375 54.828125 56.984375 36.375 
Q 56.984375 17.96875 50.515625 8.265625 
Q 44.046875 -1.421875 31.78125 -1.421875 
Q 19.53125 -1.421875 13.0625 8.265625 
Q 6.59375 17.96875 6.59375 36.375 
Q 6.59375 54.828125 13.0625 64.515625 
Q 19.53125 74.21875 31.78125 74.21875 
z
" id="DejaVuSans-48"/>
      </defs>
      <g transform="translate(61.384668 266.598437)scale(0.1 -0.1)">
       <use xlink:href="#DejaVuSans-51"/>
       <use x="63.623047" xlink:href="#DejaVuSans-48"/>
      </g>
     </g>
    </g>
    <g id="xtick_2">
     <g id="line2d_2">
      <g>
       <use style="stroke:#000000;stroke-width:0.8;" x="114.188233" xlink:href="#m829f9dc91b" y="252"/>
      </g>
     </g>
     <g id="text_2">
      <!-- 35 -->
      <defs>
       <path d="M 10.796875 72.90625 
L 49.515625 72.90625 
L 49.515625 64.59375 
L 19.828125 64.59375 
L 19.828125 46.734375 
Q 21.96875 47.46875 24.109375 47.828125 
Q 26.265625 48.1875 28.421875 48.1875 
Q 40.625 48.1875 47.75 41.5 
Q 54.890625 34.8125 54.890625 23.390625 
Q 54.890625 11.625 47.5625 5.09375 
Q 40.234375 -1.421875 26.90625 -1.421875 
Q 22.3125 -1.421875 17.546875 -0.640625 
Q 12.796875 0.140625 7.71875 1.703125 
L 7.71875 11.625 
Q 12.109375 9.234375 16.796875 8.0625 
Q 21.484375 6.890625 26.703125 6.890625 
Q 35.15625 6.890625 40.078125 11.328125 
Q 45.015625 15.765625 45.015625 23.390625 
Q 45.015625 31 40.078125 35.4375 
Q 35.15625 39.890625 26.703125 39.890625 
Q 22.75 39.890625 18.8125 39.015625 
Q 14.890625 38.140625 10.796875 36.28125 
z
" id="DejaVuSans-53"/>
      </defs>
      <g transform="translate(107.825733 266.598437)scale(0.1 -0.1)">
       <use xlink:href="#DejaVuSans-51"/>
       <use x="63.623047" xlink:href="#DejaVuSans-53"/>
      </g>
     </g>
    </g>
    <g id="xtick_3">
     <g id="line2d_3">
      <g>
       <use style="stroke:#000000;stroke-width:0.8;" x="160.629298" xlink:href="#m829f9dc91b" y="252"/>
      </g>
     </g>
     <g id="text_3">
      <!-- 40 -->
      <defs>
       <path d="M 37.796875 64.3125 
L 12.890625 25.390625 
L 37.796875 25.390625 
z
M 35.203125 72.90625 
L 47.609375 72.90625 
L 47.609375 25.390625 
L 58.015625 25.390625 
L 58.015625 17.1875 
L 47.609375 17.1875 
L 47.609375 0 
L 37.796875 0 
L 37.796875 17.1875 
L 4.890625 17.1875 
L 4.890625 26.703125 
z
" id="DejaVuSans-52"/>
      </defs>
      <g transform="translate(154.266798 266.598437)scale(0.1 -0.1)">
       <use xlink:href="#DejaVuSans-52"/>
       <use x="63.623047" xlink:href="#DejaVuSans-48"/>
      </g>
     </g>
    </g>
    <g id="xtick_4">
     <g id="line2d_4">
      <g>
       <use style="stroke:#000000;stroke-width:0.8;" x="207.070363" xlink:href="#m829f9dc91b" y="252"/>
      </g>
     </g>
     <g id="text_4">
      <!-- 45 -->
      <g transform="translate(200.707863 266.598437)scale(0.1 -0.1)">
       <use xlink:href="#DejaVuSans-52"/>
       <use x="63.623047" xlink:href="#DejaVuSans-53"/>
      </g>
     </g>
    </g>
    <g id="xtick_5">
     <g id="line2d_5">
      <g>
       <use style="stroke:#000000;stroke-width:0.8;" x="253.511429" xlink:href="#m829f9dc91b" y="252"/>
      </g>
     </g>
     <g id="text_5">
      <!-- 50 -->
      <g transform="translate(247.148929 266.598437)scale(0.1 -0.1)">
       <use xlink:href="#DejaVuSans-53"/>
       <use x="63.623047" xlink:href="#DejaVuSans-48"/>
      </g>
     </g>
    </g>
    <g id="text_6">
     <!-- Inclination -->
     <defs>
      <path d="M 9.8125 72.90625 
L 19.671875 72.90625 
L 19.671875 0 
L 9.8125 0 
z
" id="DejaVuSans-73"/>
      <path d="M 54.890625 33.015625 
L 54.890625 0 
L 45.90625 0 
L 45.90625 32.71875 
Q 45.90625 40.484375 42.875 44.328125 
Q 39.84375 48.1875 33.796875 48.1875 
Q 26.515625 48.1875 22.3125 43.546875 
Q 18.109375 38.921875 18.109375 30.90625 
L 18.109375 0 
L 9.078125 0 
L 9.078125 54.6875 
L 18.109375 54.6875 
L 18.109375 46.1875 
Q 21.34375 51.125 25.703125 53.5625 
Q 30.078125 56 35.796875 56 
Q 45.21875 56 50.046875 50.171875 
Q 54.890625 44.34375 54.890625 33.015625 
z
" id="DejaVuSans-110"/>
      <path d="M 48.78125 52.59375 
L 48.78125 44.1875 
Q 44.96875 46.296875 41.140625 47.34375 
Q 37.3125 48.390625 33.40625 48.390625 
Q 24.65625 48.390625 19.8125 42.84375 
Q 14.984375 37.3125 14.984375 27.296875 
Q 14.984375 17.28125 19.8125 11.734375 
Q 24.65625 6.203125 33.40625 6.203125 
Q 37.3125 6.203125 41.140625 7.25 
Q 44.96875 8.296875 48.78125 10.40625 
L 48.78125 2.09375 
Q 45.015625 0.34375 40.984375 -0.53125 
Q 36.96875 -1.421875 32.421875 -1.421875 
Q 20.0625 -1.421875 12.78125 6.34375 
Q 5.515625 14.109375 5.515625 27.296875 
Q 5.515625 40.671875 12.859375 48.328125 
Q 20.21875 56 33.015625 56 
Q 37.15625 56 41.109375 55.140625 
Q 45.0625 54.296875 48.78125 52.59375 
z
" id="DejaVuSans-99"/>
      <path d="M 9.421875 75.984375 
L 18.40625 75.984375 
L 18.40625 0 
L 9.421875 0 
z
" id="DejaVuSans-108"/>
      <path d="M 9.421875 54.6875 
L 18.40625 54.6875 
L 18.40625 0 
L 9.421875 0 
z
M 9.421875 75.984375 
L 18.40625 75.984375 
L 18.40625 64.59375 
L 9.421875 64.59375 
z
" id="DejaVuSans-105"/>
      <path d="M 34.28125 27.484375 
Q 23.390625 27.484375 19.1875 25 
Q 14.984375 22.515625 14.984375 16.5 
Q 14.984375 11.71875 18.140625 8.90625 
Q 21.296875 6.109375 26.703125 6.109375 
Q 34.1875 6.109375 38.703125 11.40625 
Q 43.21875 16.703125 43.21875 25.484375 
L 43.21875 27.484375 
z
M 52.203125 31.203125 
L 52.203125 0 
L 43.21875 0 
L 43.21875 8.296875 
Q 40.140625 3.328125 35.546875 0.953125 
Q 30.953125 -1.421875 24.3125 -1.421875 
Q 15.921875 -1.421875 10.953125 3.296875 
Q 6 8.015625 6 15.921875 
Q 6 25.140625 12.171875 29.828125 
Q 18.359375 34.515625 30.609375 34.515625 
L 43.21875 34.515625 
L 43.21875 35.40625 
Q 43.21875 41.609375 39.140625 45 
Q 35.0625 48.390625 27.6875 48.390625 
Q 23 48.390625 18.546875 47.265625 
Q 14.109375 46.140625 10.015625 43.890625 
L 10.015625 52.203125 
Q 14.9375 54.109375 19.578125 55.046875 
Q 24.21875 56 28.609375 56 
Q 40.484375 56 46.34375 49.84375 
Q 52.203125 43.703125 52.203125 31.203125 
z
" id="DejaVuSans-97"/>
      <path d="M 18.3125 70.21875 
L 18.3125 54.6875 
L 36.8125 54.6875 
L 36.8125 47.703125 
L 18.3125 47.703125 
L 18.3125 18.015625 
Q 18.3125 11.328125 20.140625 9.421875 
Q 21.96875 7.515625 27.59375 7.515625 
L 36.8125 7.515625 
L 36.8125 0 
L 27.59375 0 
Q 17.1875 0 13.234375 3.875 
Q 9.28125 7.765625 9.28125 18.015625 
L 9.28125 47.703125 
L 2.6875 47.703125 
L 2.6875 54.6875 
L 9.28125 54.6875 
L 9.28125 70.21875 
z
" id="DejaVuSans-116"/>
      <path d="M 30.609375 48.390625 
Q 23.390625 48.390625 19.1875 42.75 
Q 14.984375 37.109375 14.984375 27.296875 
Q 14.984375 17.484375 19.15625 11.84375 
Q 23.34375 6.203125 30.609375 6.203125 
Q 37.796875 6.203125 41.984375 11.859375 
Q 46.1875 17.53125 46.1875 27.296875 
Q 46.1875 37.015625 41.984375 42.703125 
Q 37.796875 48.390625 30.609375 48.390625 
z
M 30.609375 56 
Q 42.328125 56 49.015625 48.375 
Q 55.71875 40.765625 55.71875 27.296875 
Q 55.71875 13.875 49.015625 6.21875 
Q 42.328125 -1.421875 30.609375 -1.421875 
Q 18.84375 -1.421875 12.171875 6.21875 
Q 5.515625 13.875 5.515625 27.296875 
Q 5.515625 40.765625 12.171875 48.375 
Q 18.84375 56 30.609375 56 
z
" id="DejaVuSans-111"/>
     </defs>
     <g transform="translate(121.61875 280.276563)scale(0.1 -0.1)">
      <use xlink:href="#DejaVuSans-73"/>
      <use x="29.492188" xlink:href="#DejaVuSans-110"/>
      <use x="92.871094" xlink:href="#DejaVuSans-99"/>
      <use x="147.851562" xlink:href="#DejaVuSans-108"/>
      <use x="175.634766" xlink:href="#DejaVuSans-105"/>
      <use x="203.417969" xlink:href="#DejaVuSans-110"/>
      <use x="266.796875" xlink:href="#DejaVuSans-97"/>
      <use x="328.076172" xlink:href="#DejaVuSans-116"/>
      <use x="367.285156" xlink:href="#DejaVuSans-105"/>
      <use x="395.068359" xlink:href="#DejaVuSans-111"/>
      <use x="456.25" xlink:href="#DejaVuSans-110"/>
     </g>
    </g>
   </g>
   <g id="matplotlib.axis_2">
    <g id="ytick_1">
     <g id="line2d_6">
      <defs>
       <path d="M 0 0 
L -3.5 0 
" id="ma3ef99934b" style="stroke:#000000;stroke-width:0.8;"/>
      </defs>
      <g>
       <use style="stroke:#000000;stroke-width:0.8;" x="36" xlink:href="#ma3ef99934b" y="221.867243"/>
      </g>
     </g>
     <g id="text_7">
      <!-- 1.2 -->
      <defs>
       <path d="M 12.40625 8.296875 
L 28.515625 8.296875 
L 28.515625 63.921875 
L 10.984375 60.40625 
L 10.984375 69.390625 
L 28.421875 72.90625 
L 38.28125 72.90625 
L 38.28125 8.296875 
L 54.390625 8.296875 
L 54.390625 0 
L 12.40625 0 
z
" id="DejaVuSans-49"/>
       <path d="M 10.6875 12.40625 
L 21 12.40625 
L 21 0 
L 10.6875 0 
z
" id="DejaVuSans-46"/>
       <path d="M 19.1875 8.296875 
L 53.609375 8.296875 
L 53.609375 0 
L 7.328125 0 
L 7.328125 8.296875 
Q 12.9375 14.109375 22.625 23.890625 
Q 32.328125 33.6875 34.8125 36.53125 
Q 39.546875 41.84375 41.421875 45.53125 
Q 43.3125 49.21875 43.3125 52.78125 
Q 43.3125 58.59375 39.234375 62.25 
Q 35.15625 65.921875 28.609375 65.921875 
Q 23.96875 65.921875 18.8125 64.3125 
Q 13.671875 62.703125 7.8125 59.421875 
L 7.8125 69.390625 
Q 13.765625 71.78125 18.9375 73 
Q 24.125 74.21875 28.421875 74.21875 
Q 39.75 74.21875 46.484375 68.546875 
Q 53.21875 62.890625 53.21875 53.421875 
Q 53.21875 48.921875 51.53125 44.890625 
Q 49.859375 40.875 45.40625 35.40625 
Q 44.1875 33.984375 37.640625 27.21875 
Q 31.109375 20.453125 19.1875 8.296875 
z
" id="DejaVuSans-50"/>
      </defs>
      <g transform="translate(13.096875 225.666462)scale(0.1 -0.1)">
       <use xlink:href="#DejaVuSans-49"/>
       <use x="63.623047" xlink:href="#DejaVuSans-46"/>
       <use x="95.410156" xlink:href="#DejaVuSans-50"/>
      </g>
     </g>
    </g>
    <g id="ytick_2">
     <g id="line2d_7">
      <g>
       <use style="stroke:#000000;stroke-width:0.8;" x="36" xlink:href="#ma3ef99934b" y="186.422488"/>
      </g>
     </g>
     <g id="text_8">
      <!-- 1.4 -->
      <g transform="translate(13.096875 190.221707)scale(0.1 -0.1)">
       <use xlink:href="#DejaVuSans-49"/>
       <use x="63.623047" xlink:href="#DejaVuSans-46"/>
       <use x="95.410156" xlink:href="#DejaVuSans-52"/>
      </g>
     </g>
    </g>
    <g id="ytick_3">
     <g id="line2d_8">
      <g>
       <use style="stroke:#000000;stroke-width:0.8;" x="36" xlink:href="#ma3ef99934b" y="150.977733"/>
      </g>
     </g>
     <g id="text_9">
      <!-- 1.6 -->
      <defs>
       <path d="M 33.015625 40.375 
Q 26.375 40.375 22.484375 35.828125 
Q 18.609375 31.296875 18.609375 23.390625 
Q 18.609375 15.53125 22.484375 10.953125 
Q 26.375 6.390625 33.015625 6.390625 
Q 39.65625 6.390625 43.53125 10.953125 
Q 47.40625 15.53125 47.40625 23.390625 
Q 47.40625 31.296875 43.53125 35.828125 
Q 39.65625 40.375 33.015625 40.375 
z
M 52.59375 71.296875 
L 52.59375 62.3125 
Q 48.875 64.0625 45.09375 64.984375 
Q 41.3125 65.921875 37.59375 65.921875 
Q 27.828125 65.921875 22.671875 59.328125 
Q 17.53125 52.734375 16.796875 39.40625 
Q 19.671875 43.65625 24.015625 45.921875 
Q 28.375 48.1875 33.59375 48.1875 
Q 44.578125 48.1875 50.953125 41.515625 
Q 57.328125 34.859375 57.328125 23.390625 
Q 57.328125 12.15625 50.6875 5.359375 
Q 44.046875 -1.421875 33.015625 -1.421875 
Q 20.359375 -1.421875 13.671875 8.265625 
Q 6.984375 17.96875 6.984375 36.375 
Q 6.984375 53.65625 15.1875 63.9375 
Q 23.390625 74.21875 37.203125 74.21875 
Q 40.921875 74.21875 44.703125 73.484375 
Q 48.484375 72.75 52.59375 71.296875 
z
" id="DejaVuSans-54"/>
      </defs>
      <g transform="translate(13.096875 154.776952)scale(0.1 -0.1)">
       <use xlink:href="#DejaVuSans-49"/>
       <use x="63.623047" xlink:href="#DejaVuSans-46"/>
       <use x="95.410156" xlink:href="#DejaVuSans-54"/>
      </g>
     </g>
    </g>
    <g id="ytick_4">
     <g id="line2d_9">
      <g>
       <use style="stroke:#000000;stroke-width:0.8;" x="36" xlink:href="#ma3ef99934b" y="115.532978"/>
      </g>
     </g>
     <g id="text_10">
      <!-- 1.8 -->
      <defs>
       <path d="M 31.78125 34.625 
Q 24.75 34.625 20.71875 30.859375 
Q 16.703125 27.09375 16.703125 20.515625 
Q 16.703125 13.921875 20.71875 10.15625 
Q 24.75 6.390625 31.78125 6.390625 
Q 38.8125 6.390625 42.859375 10.171875 
Q 46.921875 13.96875 46.921875 20.515625 
Q 46.921875 27.09375 42.890625 30.859375 
Q 38.875 34.625 31.78125 34.625 
z
M 21.921875 38.8125 
Q 15.578125 40.375 12.03125 44.71875 
Q 8.5 49.078125 8.5 55.328125 
Q 8.5 64.0625 14.71875 69.140625 
Q 20.953125 74.21875 31.78125 74.21875 
Q 42.671875 74.21875 48.875 69.140625 
Q 55.078125 64.0625 55.078125 55.328125 
Q 55.078125 49.078125 51.53125 44.71875 
Q 48 40.375 41.703125 38.8125 
Q 48.828125 37.15625 52.796875 32.3125 
Q 56.78125 27.484375 56.78125 20.515625 
Q 56.78125 9.90625 50.3125 4.234375 
Q 43.84375 -1.421875 31.78125 -1.421875 
Q 19.734375 -1.421875 13.25 4.234375 
Q 6.78125 9.90625 6.78125 20.515625 
Q 6.78125 27.484375 10.78125 32.3125 
Q 14.796875 37.15625 21.921875 38.8125 
z
M 18.3125 54.390625 
Q 18.3125 48.734375 21.84375 45.5625 
Q 25.390625 42.390625 31.78125 42.390625 
Q 38.140625 42.390625 41.71875 45.5625 
Q 45.3125 48.734375 45.3125 54.390625 
Q 45.3125 60.0625 41.71875 63.234375 
Q 38.140625 66.40625 31.78125 66.40625 
Q 25.390625 66.40625 21.84375 63.234375 
Q 18.3125 60.0625 18.3125 54.390625 
z
" id="DejaVuSans-56"/>
      </defs>
      <g transform="translate(13.096875 119.332197)scale(0.1 -0.1)">
       <use xlink:href="#DejaVuSans-49"/>
       <use x="63.623047" xlink:href="#DejaVuSans-46"/>
       <use x="95.410156" xlink:href="#DejaVuSans-56"/>
      </g>
     </g>
    </g>
    <g id="ytick_5">
     <g id="line2d_10">
      <g>
       <use style="stroke:#000000;stroke-width:0.8;" x="36" xlink:href="#ma3ef99934b" y="80.088223"/>
      </g>
     </g>
     <g id="text_11">
      <!-- 2.0 -->
      <g transform="translate(13.096875 83.887442)scale(0.1 -0.1)">
       <use xlink:href="#DejaVuSans-50"/>
       <use x="63.623047" xlink:href="#DejaVuSans-46"/>
       <use x="95.410156" xlink:href="#DejaVuSans-48"/>
      </g>
     </g>
    </g>
    <g id="ytick_6">
     <g id="line2d_11">
      <g>
       <use style="stroke:#000000;stroke-width:0.8;" x="36" xlink:href="#ma3ef99934b" y="44.643468"/>
      </g>
     </g>
     <g id="text_12">
      <!-- 2.2 -->
      <g transform="translate(13.096875 48.442686)scale(0.1 -0.1)">
       <use xlink:href="#DejaVuSans-50"/>
       <use x="63.623047" xlink:href="#DejaVuSans-46"/>
       <use x="95.410156" xlink:href="#DejaVuSans-50"/>
      </g>
     </g>
    </g>
    <g id="text_13">
     <!-- Elongation -->
     <defs>
      <path d="M 9.8125 72.90625 
L 55.90625 72.90625 
L 55.90625 64.59375 
L 19.671875 64.59375 
L 19.671875 43.015625 
L 54.390625 43.015625 
L 54.390625 34.71875 
L 19.671875 34.71875 
L 19.671875 8.296875 
L 56.78125 8.296875 
L 56.78125 0 
L 9.8125 0 
z
" id="DejaVuSans-69"/>
      <path d="M 45.40625 27.984375 
Q 45.40625 37.75 41.375 43.109375 
Q 37.359375 48.484375 30.078125 48.484375 
Q 22.859375 48.484375 18.828125 43.109375 
Q 14.796875 37.75 14.796875 27.984375 
Q 14.796875 18.265625 18.828125 12.890625 
Q 22.859375 7.515625 30.078125 7.515625 
Q 37.359375 7.515625 41.375 12.890625 
Q 45.40625 18.265625 45.40625 27.984375 
z
M 54.390625 6.78125 
Q 54.390625 -7.171875 48.1875 -13.984375 
Q 42 -20.796875 29.203125 -20.796875 
Q 24.46875 -20.796875 20.265625 -20.09375 
Q 16.0625 -19.390625 12.109375 -17.921875 
L 12.109375 -9.1875 
Q 16.0625 -11.328125 19.921875 -12.34375 
Q 23.78125 -13.375 27.78125 -13.375 
Q 36.625 -13.375 41.015625 -8.765625 
Q 45.40625 -4.15625 45.40625 5.171875 
L 45.40625 9.625 
Q 42.625 4.78125 38.28125 2.390625 
Q 33.9375 0 27.875 0 
Q 17.828125 0 11.671875 7.65625 
Q 5.515625 15.328125 5.515625 27.984375 
Q 5.515625 40.671875 11.671875 48.328125 
Q 17.828125 56 27.875 56 
Q 33.9375 56 38.28125 53.609375 
Q 42.625 51.21875 45.40625 46.390625 
L 45.40625 54.6875 
L 54.390625 54.6875 
z
" id="DejaVuSans-103"/>
     </defs>
     <g transform="translate(7.017187 169.872187)rotate(-90)scale(0.1 -0.1)">
      <use xlink:href="#DejaVuSans-69"/>
      <use x="63.183594" xlink:href="#DejaVuSans-108"/>
      <use x="90.966797" xlink:href="#DejaVuSans-111"/>
      <use x="152.148438" xlink:href="#DejaVuSans-110"/>
      <use x="215.527344" xlink:href="#DejaVuSans-103"/>
      <use x="279.003906" xlink:href="#DejaVuSans-97"/>
      <use x="340.283203" xlink:href="#DejaVuSans-116"/>
      <use x="379.492188" xlink:href="#DejaVuSans-105"/>
      <use x="407.275391" xlink:href="#DejaVuSans-111"/>
      <use x="468.457031" xlink:href="#DejaVuSans-110"/>
     </g>
    </g>
   </g>
   <g id="line2d_12">
    <path clip-path="url(#pf82d83871c)" d="M 58.788729 220.215297 
L 60.968805 217.368636 
L 63.181371 214.416784 
L 65.427094 211.364337 
L 67.706655 208.214548 
L 70.020755 204.96961 
L 72.37011 201.630881 
L 74.755455 198.199047 
L 77.177542 194.674247 
L 79.637143 191.05617 
L 82.135047 187.344127 
L 84.672065 183.537106 
L 87.249024 179.63382 
L 89.866777 175.632734 
L 92.526192 171.532097 
L 95.228164 167.329956 
L 97.973605 163.024179 
L 100.763453 158.612459 
L 103.598667 154.092326 
L 106.48023 149.461157 
L 109.40915 144.716174 
L 112.386459 139.854451 
L 115.413212 134.872912 
L 118.490493 129.768337 
L 121.61941 124.537355 
L 124.801097 119.176446 
L 128.036717 113.681938 
L 131.32746 108.050003 
L 134.674543 102.276653 
L 138.079212 96.357737 
L 141.542744 90.288933 
L 145.066444 84.065746 
L 145.066444 84.065746 
L 146.851272 80.894804 
" style="fill:none;stroke:#ff0000;stroke-linecap:square;stroke-width:1.5;"/>
   </g>
   <g id="line2d_13">
    <path clip-path="url(#pf82d83871c)" d="M 72.41764 223.072676 
L 74.669461 221.733944 
L 76.953985 220.169895 
L 79.271859 218.395359 
L 81.623741 216.424782 
L 84.010308 214.271646 
L 86.432252 211.948127 
L 88.890279 209.464943 
L 91.385113 206.831327 
L 93.917494 204.055092 
L 96.488179 201.142732 
L 99.097944 198.09955 
L 101.74758 194.929792 
L 104.437897 191.636767 
L 107.169726 188.222968 
L 109.943913 184.690169 
L 112.761327 181.039521 
L 115.622853 177.271618 
L 118.529399 173.386575 
L 121.481891 169.384072 
L 124.481277 165.263406 
L 127.528526 161.023529 
L 130.624629 156.663079 
L 133.770598 152.180406 
L 136.967466 147.573595 
L 140.21629 142.840485 
L 143.51815 137.978677 
L 146.874147 132.985556 
L 150.285407 127.858288 
L 153.75308 122.593836 
L 157.278338 117.18896 
L 160.862377 111.640218 
L 164.50642 105.943975 
L 168.211711 100.096393 
L 168.211711 100.096393 
L 170.08772 97.114597 
L 171.979519 94.093438 
" style="fill:none;stroke:#bfbf00;stroke-linecap:square;stroke-width:1.5;"/>
   </g>
   <g id="line2d_14">
    <path clip-path="url(#pf82d83871c)" d="M 58.529247 229.918459 
L 60.708401 229.837567 
L 62.920097 229.462375 
L 65.165005 228.797111 
L 67.443811 227.852338 
L 69.75722 226.643331 
L 72.105953 225.188159 
L 74.490748 223.505906 
L 76.912364 221.615267 
L 79.371576 219.533607 
L 81.869179 217.276447 
L 84.40599 214.857258 
L 86.982844 212.287471 
L 89.600597 209.576607 
L 92.260127 206.732468 
L 94.962332 203.761347 
L 97.708136 200.668225 
L 100.498482 197.456962 
L 103.334339 194.130454 
L 106.216698 190.690777 
L 109.146576 187.139299 
L 112.125015 183.476783 
L 115.15308 179.703465 
L 118.231867 175.81912 
L 121.362493 171.823118 
L 124.546106 167.714468 
L 127.783882 163.491851 
L 131.077022 159.153654 
L 134.426758 154.697988 
L 137.834352 150.12271 
L 141.301094 145.425433 
L 144.828306 140.603537 
L 148.417339 135.654178 
L 152.069575 130.574291 
L 155.78643 125.36059 
L 159.569349 120.009572 
L 163.419811 114.517507 
L 167.339328 108.880442 
L 171.329442 103.094187 
L 171.329442 103.094187 
L 173.351465 100.143737 
L 175.391732 97.154308 
" style="fill:none;stroke:#bfbf00;stroke-linecap:square;stroke-width:1.5;"/>
   </g>
   <g id="line2d_15">
    <path clip-path="url(#pf82d83871c)" d="M 50.41943 234.403114 
L 52.551446 231.59183 
L 54.715777 228.691861 
L 56.913103 225.708408 
L 59.144124 222.644542 
L 61.409557 219.501937 
L 63.710137 216.281313 
L 66.046618 212.982712 
L 68.419773 209.605684 
L 70.830398 206.149411 
L 73.279306 202.612783 
L 75.767332 198.994462 
L 78.295336 195.292917 
L 80.864195 191.506455 
L 83.474814 187.633245 
L 86.128118 183.671326 
L 88.825058 179.618623 
L 91.566609 175.472956 
L 94.353773 171.232039 
L 97.187578 166.893492 
L 100.069076 162.454838 
L 102.99935 157.913509 
L 105.97951 153.266842 
L 109.010694 148.512086 
L 112.094072 143.646394 
L 115.230843 138.666831 
L 118.422236 133.570365 
L 121.669514 128.353873 
L 124.973972 123.014134 
L 128.336938 117.547831 
L 131.759773 111.951546 
L 135.243875 106.221764 
L 138.790676 100.354861 
L 142.401645 94.34711 
L 146.078287 88.194674 
L 146.078287 88.194674 
L 147.941717 85.06297 
L 149.822146 81.893605 
" style="fill:none;stroke:#bfbf00;stroke-linecap:square;stroke-width:1.5;"/>
   </g>
   <g id="line2d_16">
    <path clip-path="url(#pf82d83871c)" d="M 63.240036 123.672795 
L 65.43922 119.737351 
L 67.670896 115.686817 
L 69.935726 111.519434 
L 72.234385 107.23328 
L 74.567568 102.82627 
L 76.935983 98.296153 
L 79.340358 93.640513 
L 81.781437 88.856766 
L 84.259984 83.942155 
L 86.77678 78.893753 
L 89.332626 73.708452 
L 91.92834 68.382966 
L 94.564765 62.913823 
L 97.242758 57.297359 
L 97.242758 57.297359 
L 98.597619 54.432684 
" style="fill:none;stroke:#bfbf00;stroke-linecap:square;stroke-width:1.5;"/>
   </g>
   <g id="line2d_17">
    <path clip-path="url(#pf82d83871c)" d="M 54.908988 242.116364 
L 57.078021 241.625217 
L 59.279764 240.674493 
L 61.514897 239.31983 
L 63.784116 237.625152 
L 66.088134 235.649759 
L 68.427682 233.442596 
L 70.80351 231.04151 
L 73.216384 228.474751 
L 75.667093 225.763019 
L 78.156443 222.921326 
L 80.68526 219.960478 
L 83.254392 216.888179 
L 85.864706 213.709835 
L 88.517094 210.429138 
L 91.212467 207.048477 
L 93.951759 203.569246 
L 96.735929 199.992056 
L 99.565958 196.316902 
L 102.442852 192.543279 
L 105.367642 188.670271 
L 108.341384 184.696618 
L 111.365158 180.620765 
L 114.440075 176.440903 
L 117.567269 172.154993 
L 120.747902 167.760794 
L 123.983167 163.255877 
L 127.274281 158.637636 
L 130.622494 153.9033 
L 134.029084 149.049939 
L 137.495358 144.07447 
L 141.022657 138.973656 
L 144.612349 133.744114 
L 148.265835 128.382308 
L 151.98455 122.884557 
L 155.769958 117.247025 
L 159.623557 111.465724 
L 163.546879 105.536509 
L 167.541488 99.455073 
L 167.541488 99.455073 
L 169.566023 96.355882 
L 171.608981 93.216946 
" style="fill:none;stroke:#bfbf00;stroke-linecap:square;stroke-width:1.5;"/>
   </g>
   <g id="line2d_18">
    <path clip-path="url(#pf82d83871c)" d="M 67.809276 223.675862 
L 70.023104 221.438913 
L 72.269264 219.053778 
L 74.548406 216.532194 
L 76.861192 213.883667 
L 79.208303 211.115792 
L 81.590433 208.234552 
L 84.008294 205.244582 
L 86.462616 202.149394 
L 88.954144 198.951566 
L 91.483643 195.652895 
L 94.051895 192.254521 
L 96.659701 188.757029 
L 99.307881 185.16053 
L 101.997273 181.464728 
L 104.728738 177.668969 
L 107.503154 173.77229 
L 110.321422 169.773445 
L 113.184463 165.670939 
L 116.09322 161.463045 
L 119.048659 157.147822 
L 122.051767 152.723133 
L 125.103553 148.186646 
L 128.205053 143.53585 
L 131.357324 138.768056 
L 134.561447 133.880402 
L 137.818529 128.869855 
L 141.129701 123.733207 
L 144.49612 118.467083 
L 147.918968 113.067928 
L 151.399454 107.532014 
L 154.938813 101.855426 
L 158.538307 96.034063 
L 158.538307 96.034063 
L 160.361006 93.067756 
L 162.199224 90.063629 
" style="fill:none;stroke:#bfbf00;stroke-linecap:square;stroke-width:1.5;"/>
   </g>
   <g id="line2d_19">
    <path clip-path="url(#pf82d83871c)" d="M 47.664534 239.153669 
L 49.789172 240.436526 
L 51.946196 241.310338 
L 54.136289 241.706746 
L 56.360153 241.584656 
L 58.618507 240.944808 
L 60.912089 239.827925 
L 63.241655 238.298172 
L 65.60798 236.424218 
L 68.011862 234.267099 
L 70.454116 231.875799 
L 72.935578 229.287483 
L 75.457109 226.529509 
L 78.019589 223.6217 
L 80.623922 220.578275 
L 83.271034 217.409339 
L 85.961876 214.121974 
L 88.697424 210.721024 
L 91.478677 207.209658 
L 94.306662 203.589771 
L 97.182432 199.862274 
L 100.107065 196.027308 
L 103.081668 192.084391 
L 106.107376 188.032537 
L 109.185354 183.87034 
L 112.316796 179.596033 
L 115.502924 175.207537 
L 118.744993 170.7025 
L 122.04429 166.078315 
L 125.402131 161.33215 
L 128.819869 156.460953 
L 132.298886 151.461468 
L 135.840601 146.330241 
L 139.446465 141.063621 
L 143.117967 135.657768 
L 146.856627 130.108647 
L 150.664006 124.41203 
L 154.541698 118.563495 
L 158.491334 112.558417 
L 162.514584 106.391966 
L 166.613153 100.0591 
L 166.613153 100.0591 
L 168.691227 96.828625 
L 170.788787 93.554557 
" style="fill:none;stroke:#bfbf00;stroke-linecap:square;stroke-width:1.5;"/>
   </g>
   <g id="line2d_20">
    <path clip-path="url(#pf82d83871c)" d="M 47.82364 153.348709 
L 49.933003 149.368189 
L 52.074314 145.281351 
L 54.248247 141.086655 
L 56.455498 136.782378 
L 58.696777 132.366627 
L 60.972814 127.837343 
L 63.284359 123.1923 
L 65.632182 118.429116 
L 68.017072 113.545253 
L 70.439839 108.538014 
L 72.901315 103.404551 
L 75.402354 98.141859 
L 77.943834 92.746779 
L 80.526654 87.215992 
L 83.15174 81.546023 
L 85.820039 75.733235 
L 88.532527 69.773823 
L 91.290205 63.663816 
L 94.0941 57.399068 
L 94.0941 57.399068 
L 95.513708 54.207322 
" style="fill:none;stroke:#bfbf00;stroke-linecap:square;stroke-width:1.5;"/>
   </g>
   <g id="line2d_21">
    <path clip-path="url(#pf82d83871c)" d="M 55.460775 193.624449 
L 57.630162 192.020557 
L 59.832198 190.243474 
L 62.067561 188.296635 
L 64.336948 186.183499 
L 66.641072 183.907439 
L 68.980662 181.47165 
L 71.356469 178.879077 
L 73.769261 176.13236 
L 76.219824 173.233793 
L 78.708967 170.1853 
L 81.237517 166.988414 
L 83.806322 163.644276 
L 86.416253 160.153625 
L 89.068202 156.51681 
L 91.763084 152.733786 
L 94.501836 148.80413 
L 97.285419 144.727044 
L 100.114819 140.501367 
L 102.991047 136.125581 
L 105.915139 131.597818 
L 108.888156 126.915871 
L 111.911188 122.077191 
L 114.985351 117.078895 
L 118.111787 111.91777 
L 121.291669 106.590266 
L 124.526199 101.0925 
L 127.816607 95.420248 
L 131.164155 89.568943 
L 134.570135 83.533663 
L 134.570135 83.533663 
L 136.295449 80.445396 
L 138.03587 77.309125 
" style="fill:none;stroke:#bfbf00;stroke-linecap:square;stroke-width:1.5;"/>
   </g>
   <g id="line2d_22">
    <path clip-path="url(#pf82d83871c)" d="M 53.723458 211.006611 
L 55.889135 208.570672 
L 58.0875 205.981994 
L 60.319231 203.248186 
L 62.585023 200.37563 
L 64.88559 197.369583 
L 67.221663 194.234282 
L 69.59399 190.973053 
L 72.00334 187.588414 
L 74.450498 184.082169 
L 76.936271 180.455487 
L 79.461487 176.708981 
L 82.026992 172.84276 
L 84.633655 168.856494 
L 87.282365 164.749446 
L 89.974036 160.52052 
L 92.709603 156.168287 
L 95.490023 151.69101 
L 98.31628 147.086668 
L 101.18938 142.35297 
L 104.110354 137.487373 
L 107.080261 132.487088 
L 110.100182 127.349089 
L 113.171228 122.07012 
L 116.294535 116.646699 
L 119.471269 111.075118 
L 122.702623 105.351442 
L 125.989817 99.471513 
L 129.334104 93.430939 
L 132.736763 87.225096 
L 136.199107 80.849122 
L 136.199107 80.849122 
L 137.953078 77.595748 
L 139.722477 74.297906 
" style="fill:none;stroke:#bfbf00;stroke-linecap:square;stroke-width:1.5;"/>
   </g>
   <g id="line2d_23">
    <path clip-path="url(#pf82d83871c)" d="M 52.780795 230.249679 
L 54.936527 230.724115 
L 57.124746 230.874394 
L 59.346126 230.690492 
L 61.601356 230.172261 
L 63.891143 229.32905 
L 66.216212 228.177838 
L 68.577306 226.740533 
L 70.975185 225.041213 
L 73.41063 223.103865 
L 75.88444 220.950861 
L 78.397436 218.60212 
L 80.950456 216.074793 
L 83.544362 213.383298 
L 86.180037 210.539529 
L 88.858384 207.553153 
L 91.580331 204.431922 
L 94.346829 201.181968 
L 97.15885 197.808066 
L 100.017394 194.313857 
L 102.923482 190.702038 
L 105.878163 186.974519 
L 108.88251 183.132552 
L 111.937626 179.176838 
L 115.044636 175.107612 
L 118.204696 170.924716 
L 121.418989 166.62766 
L 124.688728 162.215667 
L 128.015154 157.687716 
L 131.399538 153.042581 
L 134.843182 148.278852 
L 138.347418 143.39497 
L 141.913611 138.389243 
L 145.543156 133.259869 
L 149.237483 128.004954 
L 152.998053 122.622531 
L 156.82636 117.110573 
L 160.723933 111.467011 
L 164.692336 105.689748 
L 168.733165 99.776678 
L 168.733165 99.776678 
L 170.781248 96.768558 
L 172.848052 93.725698 
" style="fill:none;stroke:#bfbf00;stroke-linecap:square;stroke-width:1.5;"/>
   </g>
   <g id="line2d_24">
    <path clip-path="url(#pf82d83871c)" d="M 65.895702 197.779781 
L 68.129895 196.295788 
L 70.397204 194.650801 
L 72.698301 192.848572 
L 75.033871 190.892888 
L 77.404618 188.787456 
L 79.811261 186.53582 
L 82.254537 184.141292 
L 84.735201 181.606898 
L 87.254024 178.935343 
L 89.811798 176.128988 
L 92.409331 173.189837 
L 95.047453 170.119531 
L 97.727011 166.919351 
L 100.448875 163.590222 
L 103.213933 160.132722 
L 106.023094 156.547093 
L 108.87729 152.833254 
L 111.777474 148.990806 
L 114.72462 145.01905 
L 117.719726 140.916995 
L 120.763812 136.683366 
L 123.857922 132.316613 
L 127.003125 127.814919 
L 130.200511 123.176203 
L 133.451197 118.398128 
L 136.756324 113.478099 
L 140.117059 108.413267 
L 143.534594 103.200528 
L 147.010146 97.83652 
L 150.544959 92.317622 
L 154.140303 86.639945 
L 154.140303 86.639945 
L 155.961079 83.740276 
" style="fill:none;stroke:#bfbf00;stroke-linecap:square;stroke-width:1.5;"/>
   </g>
   <g id="line2d_25">
    <path clip-path="url(#pf82d83871c)" d="M 54.097598 194.965718 
L 56.249789 194.484393 
L 58.434281 193.822177 
L 60.651744 192.979188 
L 62.902866 191.956311 
L 65.188351 190.755101 
L 67.50892 189.377677 
L 69.865315 187.826594 
L 72.258294 186.104724 
L 74.688634 184.215134 
L 77.157135 182.160977 
L 79.664613 179.945394 
L 82.211907 177.571429 
L 84.799877 175.041959 
L 87.429404 172.359642 
L 90.101391 169.526873 
L 92.816767 166.545756 
L 95.576479 163.41808 
L 98.381504 160.145313 
L 101.232838 156.728592 
L 104.131506 153.168725 
L 107.078557 149.466194 
L 110.075067 145.621162 
L 113.122138 141.633478 
L 116.220901 137.502691 
L 119.372514 133.228054 
L 122.578165 128.808535 
L 125.839069 124.242829 
L 129.156472 119.529362 
L 132.531652 114.6663 
L 135.965917 109.651557 
L 139.460604 104.482799 
L 143.017087 99.15745 
L 146.636769 93.672694 
L 150.321087 88.025478 
L 150.321087 88.025478 
L 152.187943 85.139929 
L 154.071513 82.212514 
" style="fill:none;stroke:#bfbf00;stroke-linecap:square;stroke-width:1.5;"/>
   </g>
   <g id="line2d_26">
    <path clip-path="url(#pf82d83871c)" d="M 55.575072 199.739897 
L 57.745088 198.715713 
L 59.947764 197.523348 
L 62.183779 196.165781 
L 64.453829 194.646387 
L 66.758627 192.968803 
L 69.098906 191.136795 
L 71.475413 189.154146 
L 73.888919 187.024559 
L 76.340211 184.751579 
L 78.830096 182.33853 
L 81.359404 179.788471 
L 83.928982 177.104162 
L 86.539702 174.288048 
L 89.192457 171.342244 
L 91.888161 168.268539 
L 94.627753 165.068391 
L 97.412195 161.742942 
L 100.242473 158.293021 
L 103.119598 154.719163 
L 106.044608 151.021614 
L 109.018563 147.200351 
L 112.042555 143.255092 
L 115.117699 139.185306 
L 118.245139 134.99023 
L 121.426049 130.668878 
L 124.661631 126.220049 
L 127.953115 121.64234 
L 131.301764 116.934152 
L 134.708871 112.093697 
L 138.175758 107.119003 
L 141.703783 102.007926 
L 145.294333 96.758144 
L 148.948829 91.367169 
L 152.668727 85.832344 
L 152.668727 85.832344 
L 154.553666 83.010113 
" style="fill:none;stroke:#bfbf00;stroke-linecap:square;stroke-width:1.5;"/>
   </g>
   <g id="line2d_27">
    <path clip-path="url(#pf82d83871c)" d="M 65.852201 189.754709 
L 68.074058 188.204544 
L 70.328555 186.488836 
L 72.616348 184.610332 
L 74.938104 182.571848 
L 77.294508 180.37617 
L 79.686261 178.025984 
L 82.114079 175.523809 
L 84.578697 172.871945 
L 87.080867 170.072438 
L 89.621357 167.127045 
L 92.200955 164.037217 
L 94.820466 160.804091 
L 97.480716 157.428478 
L 100.182549 153.910861 
L 102.926829 150.251401 
L 105.714439 146.449941 
L 108.546285 142.506006 
L 111.423294 138.418815 
L 114.346412 134.187285 
L 117.316609 129.810042 
L 120.334877 125.285421 
L 123.402231 120.611478 
L 126.519709 115.785991 
L 129.688372 110.806468 
L 132.909307 105.670147 
L 136.183623 100.374 
L 139.512456 94.914735 
L 142.896966 89.288794 
L 146.338339 83.492354 
L 146.338339 83.492354 
L 148.080727 80.528929 
" style="fill:none;stroke:#bfbf00;stroke-linecap:square;stroke-width:1.5;"/>
   </g>
   <g id="line2d_28">
    <path clip-path="url(#pf82d83871c)" d="M 51.117722 238.74407 
L 53.265773 235.942593 
L 55.446367 233.02553 
L 57.660186 230.005636 
L 59.907927 226.890429 
L 62.190306 223.684246 
L 64.508055 220.389412 
L 66.861928 217.006919 
L 69.252694 213.536847 
L 71.681145 209.97862 
L 74.14809 206.331175 
L 76.654363 202.593075 
L 79.200813 198.762582 
L 81.788316 194.83771 
L 84.417768 190.816258 
L 87.090088 186.695834 
L 89.806218 182.473874 
L 92.567124 178.147654 
L 95.373797 173.714291 
L 98.227253 169.170755 
L 101.128534 164.513866 
L 104.078706 159.740296 
L 107.078866 154.846568 
L 110.130136 149.829053 
L 113.233665 144.683965 
L 116.390634 139.40736 
L 119.60225 133.995128 
L 122.869752 128.442989 
L 126.194409 122.746485 
L 129.577521 116.900973 
L 133.020421 110.901616 
L 136.524472 104.743377 
L 140.091071 98.421005 
L 143.721648 91.929028 
L 147.417668 85.261739 
L 147.417668 85.261739 
L 149.290686 81.860503 
" style="fill:none;stroke:#bfbf00;stroke-linecap:square;stroke-width:1.5;"/>
   </g>
   <g id="line2d_29">
    <path clip-path="url(#pf82d83871c)" d="M 68.394278 212.071024 
L 70.634052 210.881418 
L 72.906672 209.499502 
L 75.212794 207.932221 
L 77.553086 206.186834 
L 79.928234 204.270616 
L 82.338938 202.190622 
L 84.785916 199.953508 
L 87.269902 197.565413 
L 89.791645 195.031883 
L 92.351915 192.357833 
L 94.951497 189.547541 
L 97.591195 186.604661 
L 100.271831 183.532243 
L 102.994247 180.332772 
L 105.759304 177.008199 
L 108.567881 173.559986 
L 111.420879 169.989138 
L 114.319218 166.296244 
L 117.263839 162.481506 
L 120.255704 158.544774 
L 123.295798 154.48557 
L 126.385126 150.303115 
L 129.524715 145.996352 
L 132.715615 141.563962 
L 135.9589 137.004384 
L 139.255664 132.315826 
L 142.607027 127.496284 
L 146.014132 122.543547 
L 149.478145 117.455208 
L 153.000256 112.228673 
L 156.581681 106.861169 
L 160.223657 101.349746 
L 163.927449 95.691286 
L 163.927449 95.691286 
L 165.802928 92.805896 
L 167.694344 89.882502 
" style="fill:none;stroke:#bfbf00;stroke-linecap:square;stroke-width:1.5;"/>
   </g>
   <g id="line2d_30">
    <path clip-path="url(#pf82d83871c)" d="M 61.021337 172.927441 
L 63.223297 168.89609 
L 65.457943 164.769309 
L 67.725936 160.544875 
L 70.027952 156.220425 
L 72.364686 151.793467 
L 74.736846 147.26138 
L 77.14516 142.621413 
L 79.590372 137.870688 
L 82.073243 133.006198 
L 84.594552 128.024806 
L 87.155099 122.923244 
L 89.7557 117.698106 
L 92.397192 112.34585 
L 95.080431 106.862795 
L 97.806295 101.24511 
L 100.575679 95.488817 
L 103.389502 89.589782 
L 106.248704 83.543711 
L 109.154247 77.346144 
L 112.107114 70.992449 
L 112.107114 70.992449 
L 113.601608 67.755557 
L 115.108313 64.477814 
" style="fill:none;stroke:#bfbf00;stroke-linecap:square;stroke-width:1.5;"/>
   </g>
   <g id="line2d_31">
    <path clip-path="url(#pf82d83871c)" d="M 63.59896 234.686735 
L 65.796035 231.683995 
L 68.025437 228.61565 
L 70.287818 225.480053 
L 72.583844 222.275443 
L 74.9142 218.999963 
L 77.279583 215.651667 
L 79.680711 212.228524 
L 82.118316 208.728427 
L 84.593149 205.149182 
L 87.105979 201.488517 
L 89.657592 197.744074 
L 92.248793 193.913411 
L 94.880408 189.993997 
L 97.553281 185.983208 
L 100.268276 181.878329 
L 103.026277 177.676543 
L 105.828191 173.374935 
L 108.674944 168.970484 
L 111.567485 164.460058 
L 114.506785 159.840412 
L 117.493836 155.108186 
L 120.529656 150.259894 
L 123.615284 145.291923 
L 126.751784 140.20053 
L 129.940243 134.981834 
L 133.181776 129.631808 
L 136.477519 124.14628 
L 139.828635 118.520923 
L 143.236314 112.75125 
L 146.701771 106.832605 
L 150.226246 100.760161 
L 153.81101 94.528913 
L 157.457356 88.133665 
L 157.457356 88.133665 
L 159.304035 84.872866 
" style="fill:none;stroke:#bfbf00;stroke-linecap:square;stroke-width:1.5;"/>
   </g>
   <g id="line2d_32">
    <path clip-path="url(#pf82d83871c)" d="M 65.570225 83.822386 
L 67.766292 79.373395 
L 69.994515 74.817769 
L 72.255544 70.153507 
L 74.550048 65.37851 
L 76.878708 60.490576 
L 79.242226 55.4874 
L 81.641318 50.36657 
L 81.641318 50.36657 
L 82.854434 47.761253 
" style="fill:none;stroke:#bfbf00;stroke-linecap:square;stroke-width:1.5;"/>
   </g>
   <g id="line2d_33">
    <path clip-path="url(#pf82d83871c)" d="M 59.071911 231.681668 
L 61.246886 228.688636 
L 63.454161 225.63183 
L 65.694396 222.509836 
L 67.968267 219.321115 
L 70.276468 216.064026 
L 72.619707 212.736844 
L 74.998712 209.337761 
L 77.414228 205.864893 
L 79.867019 202.316286 
L 82.357866 198.689912 
L 84.887571 194.98367 
L 87.456954 191.195386 
L 90.066857 187.322811 
L 92.718142 183.363623 
L 95.41169 179.315417 
L 98.148407 175.17571 
L 100.929219 170.941937 
L 103.755076 166.611446 
L 106.626948 162.181497 
L 109.545833 157.64926 
L 112.512751 153.011809 
L 115.528745 148.266122 
L 118.594887 143.409076 
L 121.712271 138.437442 
L 124.882019 133.347885 
L 128.10528 128.136957 
L 131.38323 122.801094 
L 134.717071 117.336611 
L 138.108034 111.739701 
L 141.557381 106.006427 
L 145.0664 100.132716 
L 148.63641 94.11436 
L 152.268759 87.947006 
L 152.268759 87.947006 
L 154.10874 84.806054 
" style="fill:none;stroke:#bfbf00;stroke-linecap:square;stroke-width:1.5;"/>
   </g>
   <g id="line2d_34">
    <path clip-path="url(#pf82d83871c)" d="M 54.33851 231.424301 
L 56.49027 228.930358 
L 58.674381 226.310997 
L 60.891516 223.578507 
L 63.142367 220.741728 
L 65.427643 217.806964 
L 67.748069 214.778647 
L 70.104391 211.659806 
L 72.497371 208.452405 
L 74.927794 205.15759 
L 77.396462 201.775867 
L 79.904197 198.307232 
L 82.451845 194.75127 
L 85.04027 191.107224 
L 87.670361 187.374057 
L 90.343028 183.550485 
L 93.059203 179.635017 
L 95.819845 175.625974 
L 98.625933 171.521508 
L 101.478476 167.319621 
L 104.378504 163.018171 
L 107.327075 158.614882 
L 110.325275 154.10735 
L 113.374214 149.493051 
L 116.475033 144.76934 
L 119.628901 139.933452 
L 122.837014 134.982511 
L 126.100601 129.913522 
L 129.42092 124.723374 
L 132.799259 119.408842 
L 136.236938 113.966582 
L 139.735311 108.39313 
L 143.295763 102.6849 
L 146.919713 96.838184 
L 150.608612 90.849145 
L 150.608612 90.849145 
L 152.477882 87.80002 
L 154.363949 84.713816 
" style="fill:none;stroke:#bfbf00;stroke-linecap:square;stroke-width:1.5;"/>
   </g>
   <g id="line2d_35">
    <path clip-path="url(#pf82d83871c)" d="M 46.145455 191.347832 
L 48.257382 188.443848 
L 50.401686 185.426588 
L 52.57906 182.297779 
L 54.790218 179.058683 
L 57.035892 175.710131 
L 59.316833 172.252563 
L 61.633812 168.686055 
L 63.98762 165.010351 
L 66.379071 161.224886 
L 68.808999 157.328806 
L 71.278261 153.32099 
L 73.787736 149.200063 
L 76.338327 144.964406 
L 78.930962 140.612176 
L 81.566594 136.141303 
L 84.246199 131.549505 
L 86.970783 126.834288 
L 89.741377 121.992954 
L 92.55904 117.022595 
L 95.424858 111.9201 
L 98.33995 106.682151 
L 101.30546 101.305221 
L 104.322568 95.78557 
L 107.392482 90.119238 
L 110.516442 84.302045 
L 113.695725 78.329576 
L 116.931636 72.197178 
L 116.931636 72.197178 
L 118.571247 69.069483 
L 120.225521 65.899946 
" style="fill:none;stroke:#bfbf00;stroke-linecap:square;stroke-width:1.5;"/>
   </g>
   <g id="line2d_36">
    <path clip-path="url(#pf82d83871c)" d="M 58.009997 208.791615 
L 60.166015 205.602822 
L 62.354053 202.352068 
L 64.574772 199.037903 
L 66.828852 195.65884 
L 69.116986 192.213351 
L 71.439888 188.69987 
L 73.798287 185.116787 
L 76.192934 181.462454 
L 78.624596 177.735177 
L 81.094061 173.933219 
L 83.602137 170.054801 
L 86.149652 166.098094 
L 88.737456 162.061225 
L 91.36642 157.942272 
L 94.037437 153.739263 
L 96.751423 149.450179 
L 99.509319 145.072946 
L 102.312087 140.605438 
L 105.160718 136.045478 
L 108.056223 131.390831 
L 110.999642 126.639207 
L 113.992043 121.788256 
L 117.034517 116.835572 
L 120.128186 111.778687 
L 123.274199 106.615069 
L 126.473735 101.342125 
L 129.728002 95.957194 
L 133.038239 90.457549 
L 136.405716 84.840392 
L 139.831733 79.102854 
L 139.831733 79.102854 
L 141.56711 76.188026 
" style="fill:none;stroke:#bfbf00;stroke-linecap:square;stroke-width:1.5;"/>
   </g>
   <g id="line2d_37">
    <path clip-path="url(#pf82d83871c)" d="M 46.512377 221.447055 
L 48.622929 218.203217 
L 50.765644 214.889153 
L 52.941205 211.502953 
L 55.150313 208.042643 
L 57.393686 204.506181 
L 59.672062 200.891458 
L 61.986197 197.196292 
L 64.336869 193.418432 
L 66.724873 189.555549 
L 69.151027 185.605238 
L 71.616171 181.565011 
L 74.121167 177.432299 
L 76.666898 173.204445 
L 79.254272 168.878704 
L 81.884221 164.452236 
L 84.5577 159.922106 
L 87.275692 155.28528 
L 90.039204 150.538617 
L 92.849271 145.67887 
L 95.706955 140.702682 
L 98.613345 135.606578 
L 101.569561 130.386961 
L 104.576752 125.040111 
L 107.636096 119.562178 
L 110.748804 113.949174 
L 113.916119 108.196973 
L 117.139315 102.301302 
L 120.419702 96.257734 
L 123.758622 90.061686 
L 127.157453 83.708407 
L 130.61761 77.192977 
L 130.61761 77.192977 
L 132.371137 73.872867 
" style="fill:none;stroke:#bfbf00;stroke-linecap:square;stroke-width:1.5;"/>
   </g>
   <g id="line2d_38">
    <path clip-path="url(#pf82d83871c)" d="M 75.370407 44.443636 
L 112.781998 64.129219 
L 200.796649 110.552838 
L 224.419261 122.764546 
L 249.054545 135.274685 
L 249.054545 135.274685 
" style="fill:none;stroke:#008000;stroke-linecap:square;stroke-width:1.5;"/>
   </g>
   <g id="patch_3">
    <path d="M 36 252 
L 36 34.56 
" style="fill:none;stroke:#000000;stroke-linecap:square;stroke-linejoin:miter;stroke-width:0.8;"/>
   </g>
   <g id="patch_4">
    <path d="M 259.2 252 
L 259.2 34.56 
" style="fill:none;stroke:#000000;stroke-linecap:square;stroke-linejoin:miter;stroke-width:0.8;"/>
   </g>
   <g id="patch_5">
    <path d="M 36 252 
L 259.2 252 
" style="fill:none;stroke:#000000;stroke-linecap:square;stroke-linejoin:miter;stroke-width:0.8;"/>
   </g>
   <g id="patch_6">
    <path d="M 36 34.56 
L 259.2 34.56 
" style="fill:none;stroke:#000000;stroke-linecap:square;stroke-linejoin:miter;stroke-width:0.8;"/>
   </g>
   <g id="text_14">
    <!--  0.68 -->
    <defs>
     <path id="DejaVuSans-32"/>
    </defs>
    <g transform="translate(146.851272 80.894804)scale(0.1 -0.1)">
     <use xlink:href="#DejaVuSans-32"/>
     <use x="31.787109" xlink:href="#DejaVuSans-48"/>
     <use x="95.410156" xlink:href="#DejaVuSans-46"/>
     <use x="127.197266" xlink:href="#DejaVuSans-54"/>
     <use x="190.820312" xlink:href="#DejaVuSans-56"/>
    </g>
   </g>
   <g id="text_15">
    <!--  f=1 -->
    <defs>
     <path d="M 37.109375 75.984375 
L 37.109375 68.5 
L 28.515625 68.5 
Q 23.6875 68.5 21.796875 66.546875 
Q 19.921875 64.59375 19.921875 59.515625 
L 19.921875 54.6875 
L 34.71875 54.6875 
L 34.71875 47.703125 
L 19.921875 47.703125 
L 19.921875 0 
L 10.890625 0 
L 10.890625 47.703125 
L 2.296875 47.703125 
L 2.296875 54.6875 
L 10.890625 54.6875 
L 10.890625 58.5 
Q 10.890625 67.625 15.140625 71.796875 
Q 19.390625 75.984375 28.609375 75.984375 
z
" id="DejaVuSans-102"/>
     <path d="M 10.59375 45.40625 
L 73.1875 45.40625 
L 73.1875 37.203125 
L 10.59375 37.203125 
z
M 10.59375 25.484375 
L 73.1875 25.484375 
L 73.1875 17.1875 
L 10.59375 17.1875 
z
" id="DejaVuSans-61"/>
    </defs>
    <g transform="translate(40.212303 220.215297)scale(0.1 -0.1)">
     <use xlink:href="#DejaVuSans-32"/>
     <use x="31.787109" xlink:href="#DejaVuSans-102"/>
     <use x="66.992188" xlink:href="#DejaVuSans-61"/>
     <use x="150.78125" xlink:href="#DejaVuSans-49"/>
    </g>
   </g>
  </g>
 </g>
 <defs>
  <clipPath id="pf82d83871c">
   <rect height="217.44" width="223.2" x="36" y="34.56"/>
  </clipPath>
 </defs>
</svg>
