<?xml version="1.0" encoding="utf-8" standalone="no"?>
<!DOCTYPE svg PUBLIC "-//W3C//DTD SVG 1.1//EN"
  "http://www.w3.org/Graphics/SVG/1.1/DTD/svg11.dtd">
<!-- Created with matplotlib (https://matplotlib.org/) -->
<svg height="288pt" version="1.1" viewBox="0 0 288 288" width="288pt" xmlns="http://www.w3.org/2000/svg" xmlns:xlink="http://www.w3.org/1999/xlink">
 <defs>
  <style type="text/css">
*{stroke-linecap:butt;stroke-linejoin:round;}
  </style>
 </defs>
 <g id="figure_1">
  <g id="patch_1">
   <path d="M 0 288 
L 288 288 
L 288 0 
L 0 0 
z
" style="fill:#ffffff;"/>
  </g>
  <g id="axes_1">
   <g id="patch_2">
    <path d="M 36 252 
L 259.2 252 
L 259.2 34.56 
L 36 34.56 
z
" style="fill:#ffffff;"/>
   </g>
   <g id="matplotlib.axis_1">
    <g id="xtick_1">
     <g id="line2d_1">
      <defs>
       <path d="M 0 0 
L 0 3.5 
" id="me750b1c9ed" style="stroke:#000000;stroke-width:0.8;"/>
      </defs>
      <g>
       <use style="stroke:#000000;stroke-width:0.8;" x="62.510869" xlink:href="#me750b1c9ed" y="252"/>
      </g>
     </g>
     <g id="text_1">
      <!-- 30 -->
      <defs>
       <path d="M 40.578125 39.3125 
Q 47.65625 37.796875 51.625 33 
Q 55.609375 28.21875 55.609375 21.1875 
Q 55.609375 10.40625 48.1875 4.484375 
Q 40.765625 -1.421875 27.09375 -1.421875 
Q 22.515625 -1.421875 17.65625 -0.515625 
Q 12.796875 0.390625 7.625 2.203125 
L 7.625 11.71875 
Q 11.71875 9.328125 16.59375 8.109375 
Q 21.484375 6.890625 26.8125 6.890625 
Q 36.078125 6.890625 40.9375 10.546875 
Q 45.796875 14.203125 45.796875 21.1875 
Q 45.796875 27.640625 41.28125 31.265625 
Q 36.765625 34.90625 28.71875 34.90625 
L 20.21875 34.90625 
L 20.21875 43.015625 
L 29.109375 43.015625 
Q 36.375 43.015625 40.234375 45.921875 
Q 44.09375 48.828125 44.09375 54.296875 
Q 44.09375 59.90625 40.109375 62.90625 
Q 36.140625 65.921875 28.71875 65.921875 
Q 24.65625 65.921875 20.015625 65.03125 
Q 15.375 64.15625 9.8125 62.3125 
L 9.8125 71.09375 
Q 15.4375 72.65625 20.34375 73.4375 
Q 25.25 74.21875 29.59375 74.21875 
Q 40.828125 74.21875 47.359375 69.109375 
Q 53.90625 64.015625 53.90625 55.328125 
Q 53.90625 49.265625 50.4375 45.09375 
Q 46.96875 40.921875 40.578125 39.3125 
z
" id="DejaVuSans-51"/>
       <path d="M 31.78125 66.40625 
Q 24.171875 66.40625 20.328125 58.90625 
Q 16.5 51.421875 16.5 36.375 
Q 16.5 21.390625 20.328125 13.890625 
Q 24.171875 6.390625 31.78125 6.390625 
Q 39.453125 6.390625 43.28125 13.890625 
Q 47.125 21.390625 47.125 36.375 
Q 47.125 51.421875 43.28125 58.90625 
Q 39.453125 66.40625 31.78125 66.40625 
z
M 31.78125 74.21875 
Q 44.046875 74.21875 50.515625 64.515625 
Q 56.984375 54.828125 56.984375 36.375 
Q 56.984375 17.96875 50.515625 8.265625 
Q 44.046875 -1.421875 31.78125 -1.421875 
Q 19.53125 -1.421875 13.0625 8.265625 
Q 6.59375 17.96875 6.59375 36.375 
Q 6.59375 54.828125 13.0625 64.515625 
Q 19.53125 74.21875 31.78125 74.21875 
z
" id="DejaVuSans-48"/>
      </defs>
      <g transform="translate(56.148369 266.598437)scale(0.1 -0.1)">
       <use xlink:href="#DejaVuSans-51"/>
       <use x="63.623047" xlink:href="#DejaVuSans-48"/>
      </g>
     </g>
    </g>
    <g id="xtick_2">
     <g id="line2d_2">
      <g>
       <use style="stroke:#000000;stroke-width:0.8;" x="103.628045" xlink:href="#me750b1c9ed" y="252"/>
      </g>
     </g>
     <g id="text_2">
      <!-- 35 -->
      <defs>
       <path d="M 10.796875 72.90625 
L 49.515625 72.90625 
L 49.515625 64.59375 
L 19.828125 64.59375 
L 19.828125 46.734375 
Q 21.96875 47.46875 24.109375 47.828125 
Q 26.265625 48.1875 28.421875 48.1875 
Q 40.625 48.1875 47.75 41.5 
Q 54.890625 34.8125 54.890625 23.390625 
Q 54.890625 11.625 47.5625 5.09375 
Q 40.234375 -1.421875 26.90625 -1.421875 
Q 22.3125 -1.421875 17.546875 -0.640625 
Q 12.796875 0.140625 7.71875 1.703125 
L 7.71875 11.625 
Q 12.109375 9.234375 16.796875 8.0625 
Q 21.484375 6.890625 26.703125 6.890625 
Q 35.15625 6.890625 40.078125 11.328125 
Q 45.015625 15.765625 45.015625 23.390625 
Q 45.015625 31 40.078125 35.4375 
Q 35.15625 39.890625 26.703125 39.890625 
Q 22.75 39.890625 18.8125 39.015625 
Q 14.890625 38.140625 10.796875 36.28125 
z
" id="DejaVuSans-53"/>
      </defs>
      <g transform="translate(97.265545 266.598437)scale(0.1 -0.1)">
       <use xlink:href="#DejaVuSans-51"/>
       <use x="63.623047" xlink:href="#DejaVuSans-53"/>
      </g>
     </g>
    </g>
    <g id="xtick_3">
     <g id="line2d_3">
      <g>
       <use style="stroke:#000000;stroke-width:0.8;" x="144.745221" xlink:href="#me750b1c9ed" y="252"/>
      </g>
     </g>
     <g id="text_3">
      <!-- 40 -->
      <defs>
       <path d="M 37.796875 64.3125 
L 12.890625 25.390625 
L 37.796875 25.390625 
z
M 35.203125 72.90625 
L 47.609375 72.90625 
L 47.609375 25.390625 
L 58.015625 25.390625 
L 58.015625 17.1875 
L 47.609375 17.1875 
L 47.609375 0 
L 37.796875 0 
L 37.796875 17.1875 
L 4.890625 17.1875 
L 4.890625 26.703125 
z
" id="DejaVuSans-52"/>
      </defs>
      <g transform="translate(138.382721 266.598437)scale(0.1 -0.1)">
       <use xlink:href="#DejaVuSans-52"/>
       <use x="63.623047" xlink:href="#DejaVuSans-48"/>
      </g>
     </g>
    </g>
    <g id="xtick_4">
     <g id="line2d_4">
      <g>
       <use style="stroke:#000000;stroke-width:0.8;" x="185.862397" xlink:href="#me750b1c9ed" y="252"/>
      </g>
     </g>
     <g id="text_4">
      <!-- 45 -->
      <g transform="translate(179.499897 266.598437)scale(0.1 -0.1)">
       <use xlink:href="#DejaVuSans-52"/>
       <use x="63.623047" xlink:href="#DejaVuSans-53"/>
      </g>
     </g>
    </g>
    <g id="xtick_5">
     <g id="line2d_5">
      <g>
       <use style="stroke:#000000;stroke-width:0.8;" x="226.979572" xlink:href="#me750b1c9ed" y="252"/>
      </g>
     </g>
     <g id="text_5">
      <!-- 50 -->
      <g transform="translate(220.617072 266.598437)scale(0.1 -0.1)">
       <use xlink:href="#DejaVuSans-53"/>
       <use x="63.623047" xlink:href="#DejaVuSans-48"/>
      </g>
     </g>
    </g>
    <g id="text_6">
     <!-- Inclination -->
     <defs>
      <path d="M 9.8125 72.90625 
L 19.671875 72.90625 
L 19.671875 0 
L 9.8125 0 
z
" id="DejaVuSans-73"/>
      <path d="M 54.890625 33.015625 
L 54.890625 0 
L 45.90625 0 
L 45.90625 32.71875 
Q 45.90625 40.484375 42.875 44.328125 
Q 39.84375 48.1875 33.796875 48.1875 
Q 26.515625 48.1875 22.3125 43.546875 
Q 18.109375 38.921875 18.109375 30.90625 
L 18.109375 0 
L 9.078125 0 
L 9.078125 54.6875 
L 18.109375 54.6875 
L 18.109375 46.1875 
Q 21.34375 51.125 25.703125 53.5625 
Q 30.078125 56 35.796875 56 
Q 45.21875 56 50.046875 50.171875 
Q 54.890625 44.34375 54.890625 33.015625 
z
" id="DejaVuSans-110"/>
      <path d="M 48.78125 52.59375 
L 48.78125 44.1875 
Q 44.96875 46.296875 41.140625 47.34375 
Q 37.3125 48.390625 33.40625 48.390625 
Q 24.65625 48.390625 19.8125 42.84375 
Q 14.984375 37.3125 14.984375 27.296875 
Q 14.984375 17.28125 19.8125 11.734375 
Q 24.65625 6.203125 33.40625 6.203125 
Q 37.3125 6.203125 41.140625 7.25 
Q 44.96875 8.296875 48.78125 10.40625 
L 48.78125 2.09375 
Q 45.015625 0.34375 40.984375 -0.53125 
Q 36.96875 -1.421875 32.421875 -1.421875 
Q 20.0625 -1.421875 12.78125 6.34375 
Q 5.515625 14.109375 5.515625 27.296875 
Q 5.515625 40.671875 12.859375 48.328125 
Q 20.21875 56 33.015625 56 
Q 37.15625 56 41.109375 55.140625 
Q 45.0625 54.296875 48.78125 52.59375 
z
" id="DejaVuSans-99"/>
      <path d="M 9.421875 75.984375 
L 18.40625 75.984375 
L 18.40625 0 
L 9.421875 0 
z
" id="DejaVuSans-108"/>
      <path d="M 9.421875 54.6875 
L 18.40625 54.6875 
L 18.40625 0 
L 9.421875 0 
z
M 9.421875 75.984375 
L 18.40625 75.984375 
L 18.40625 64.59375 
L 9.421875 64.59375 
z
" id="DejaVuSans-105"/>
      <path d="M 34.28125 27.484375 
Q 23.390625 27.484375 19.1875 25 
Q 14.984375 22.515625 14.984375 16.5 
Q 14.984375 11.71875 18.140625 8.90625 
Q 21.296875 6.109375 26.703125 6.109375 
Q 34.1875 6.109375 38.703125 11.40625 
Q 43.21875 16.703125 43.21875 25.484375 
L 43.21875 27.484375 
z
M 52.203125 31.203125 
L 52.203125 0 
L 43.21875 0 
L 43.21875 8.296875 
Q 40.140625 3.328125 35.546875 0.953125 
Q 30.953125 -1.421875 24.3125 -1.421875 
Q 15.921875 -1.421875 10.953125 3.296875 
Q 6 8.015625 6 15.921875 
Q 6 25.140625 12.171875 29.828125 
Q 18.359375 34.515625 30.609375 34.515625 
L 43.21875 34.515625 
L 43.21875 35.40625 
Q 43.21875 41.609375 39.140625 45 
Q 35.0625 48.390625 27.6875 48.390625 
Q 23 48.390625 18.546875 47.265625 
Q 14.109375 46.140625 10.015625 43.890625 
L 10.015625 52.203125 
Q 14.9375 54.109375 19.578125 55.046875 
Q 24.21875 56 28.609375 56 
Q 40.484375 56 46.34375 49.84375 
Q 52.203125 43.703125 52.203125 31.203125 
z
" id="DejaVuSans-97"/>
      <path d="M 18.3125 70.21875 
L 18.3125 54.6875 
L 36.8125 54.6875 
L 36.8125 47.703125 
L 18.3125 47.703125 
L 18.3125 18.015625 
Q 18.3125 11.328125 20.140625 9.421875 
Q 21.96875 7.515625 27.59375 7.515625 
L 36.8125 7.515625 
L 36.8125 0 
L 27.59375 0 
Q 17.1875 0 13.234375 3.875 
Q 9.28125 7.765625 9.28125 18.015625 
L 9.28125 47.703125 
L 2.6875 47.703125 
L 2.6875 54.6875 
L 9.28125 54.6875 
L 9.28125 70.21875 
z
" id="DejaVuSans-116"/>
      <path d="M 30.609375 48.390625 
Q 23.390625 48.390625 19.1875 42.75 
Q 14.984375 37.109375 14.984375 27.296875 
Q 14.984375 17.484375 19.15625 11.84375 
Q 23.34375 6.203125 30.609375 6.203125 
Q 37.796875 6.203125 41.984375 11.859375 
Q 46.1875 17.53125 46.1875 27.296875 
Q 46.1875 37.015625 41.984375 42.703125 
Q 37.796875 48.390625 30.609375 48.390625 
z
M 30.609375 56 
Q 42.328125 56 49.015625 48.375 
Q 55.71875 40.765625 55.71875 27.296875 
Q 55.71875 13.875 49.015625 6.21875 
Q 42.328125 -1.421875 30.609375 -1.421875 
Q 18.84375 -1.421875 12.171875 6.21875 
Q 5.515625 13.875 5.515625 27.296875 
Q 5.515625 40.765625 12.171875 48.375 
Q 18.84375 56 30.609375 56 
z
" id="DejaVuSans-111"/>
     </defs>
     <g transform="translate(121.61875 280.276563)scale(0.1 -0.1)">
      <use xlink:href="#DejaVuSans-73"/>
      <use x="29.492188" xlink:href="#DejaVuSans-110"/>
      <use x="92.871094" xlink:href="#DejaVuSans-99"/>
      <use x="147.851562" xlink:href="#DejaVuSans-108"/>
      <use x="175.634766" xlink:href="#DejaVuSans-105"/>
      <use x="203.417969" xlink:href="#DejaVuSans-110"/>
      <use x="266.796875" xlink:href="#DejaVuSans-97"/>
      <use x="328.076172" xlink:href="#DejaVuSans-116"/>
      <use x="367.285156" xlink:href="#DejaVuSans-105"/>
      <use x="395.068359" xlink:href="#DejaVuSans-111"/>
      <use x="456.25" xlink:href="#DejaVuSans-110"/>
     </g>
    </g>
   </g>
   <g id="matplotlib.axis_2">
    <g id="ytick_1">
     <g id="line2d_6">
      <defs>
       <path d="M 0 0 
L -3.5 0 
" id="m07825c54ff" style="stroke:#000000;stroke-width:0.8;"/>
      </defs>
      <g>
       <use style="stroke:#000000;stroke-width:0.8;" x="36" xlink:href="#m07825c54ff" y="245.445308"/>
      </g>
     </g>
     <g id="text_7">
      <!-- 1.0 -->
      <defs>
       <path d="M 12.40625 8.296875 
L 28.515625 8.296875 
L 28.515625 63.921875 
L 10.984375 60.40625 
L 10.984375 69.390625 
L 28.421875 72.90625 
L 38.28125 72.90625 
L 38.28125 8.296875 
L 54.390625 8.296875 
L 54.390625 0 
L 12.40625 0 
z
" id="DejaVuSans-49"/>
       <path d="M 10.6875 12.40625 
L 21 12.40625 
L 21 0 
L 10.6875 0 
z
" id="DejaVuSans-46"/>
      </defs>
      <g transform="translate(13.096875 249.244527)scale(0.1 -0.1)">
       <use xlink:href="#DejaVuSans-49"/>
       <use x="63.623047" xlink:href="#DejaVuSans-46"/>
       <use x="95.410156" xlink:href="#DejaVuSans-48"/>
      </g>
     </g>
    </g>
    <g id="ytick_2">
     <g id="line2d_7">
      <g>
       <use style="stroke:#000000;stroke-width:0.8;" x="36" xlink:href="#m07825c54ff" y="212.964788"/>
      </g>
     </g>
     <g id="text_8">
      <!-- 1.2 -->
      <defs>
       <path d="M 19.1875 8.296875 
L 53.609375 8.296875 
L 53.609375 0 
L 7.328125 0 
L 7.328125 8.296875 
Q 12.9375 14.109375 22.625 23.890625 
Q 32.328125 33.6875 34.8125 36.53125 
Q 39.546875 41.84375 41.421875 45.53125 
Q 43.3125 49.21875 43.3125 52.78125 
Q 43.3125 58.59375 39.234375 62.25 
Q 35.15625 65.921875 28.609375 65.921875 
Q 23.96875 65.921875 18.8125 64.3125 
Q 13.671875 62.703125 7.8125 59.421875 
L 7.8125 69.390625 
Q 13.765625 71.78125 18.9375 73 
Q 24.125 74.21875 28.421875 74.21875 
Q 39.75 74.21875 46.484375 68.546875 
Q 53.21875 62.890625 53.21875 53.421875 
Q 53.21875 48.921875 51.53125 44.890625 
Q 49.859375 40.875 45.40625 35.40625 
Q 44.1875 33.984375 37.640625 27.21875 
Q 31.109375 20.453125 19.1875 8.296875 
z
" id="DejaVuSans-50"/>
      </defs>
      <g transform="translate(13.096875 216.764007)scale(0.1 -0.1)">
       <use xlink:href="#DejaVuSans-49"/>
       <use x="63.623047" xlink:href="#DejaVuSans-46"/>
       <use x="95.410156" xlink:href="#DejaVuSans-50"/>
      </g>
     </g>
    </g>
    <g id="ytick_3">
     <g id="line2d_8">
      <g>
       <use style="stroke:#000000;stroke-width:0.8;" x="36" xlink:href="#m07825c54ff" y="180.484268"/>
      </g>
     </g>
     <g id="text_9">
      <!-- 1.4 -->
      <g transform="translate(13.096875 184.283487)scale(0.1 -0.1)">
       <use xlink:href="#DejaVuSans-49"/>
       <use x="63.623047" xlink:href="#DejaVuSans-46"/>
       <use x="95.410156" xlink:href="#DejaVuSans-52"/>
      </g>
     </g>
    </g>
    <g id="ytick_4">
     <g id="line2d_9">
      <g>
       <use style="stroke:#000000;stroke-width:0.8;" x="36" xlink:href="#m07825c54ff" y="148.003748"/>
      </g>
     </g>
     <g id="text_10">
      <!-- 1.6 -->
      <defs>
       <path d="M 33.015625 40.375 
Q 26.375 40.375 22.484375 35.828125 
Q 18.609375 31.296875 18.609375 23.390625 
Q 18.609375 15.53125 22.484375 10.953125 
Q 26.375 6.390625 33.015625 6.390625 
Q 39.65625 6.390625 43.53125 10.953125 
Q 47.40625 15.53125 47.40625 23.390625 
Q 47.40625 31.296875 43.53125 35.828125 
Q 39.65625 40.375 33.015625 40.375 
z
M 52.59375 71.296875 
L 52.59375 62.3125 
Q 48.875 64.0625 45.09375 64.984375 
Q 41.3125 65.921875 37.59375 65.921875 
Q 27.828125 65.921875 22.671875 59.328125 
Q 17.53125 52.734375 16.796875 39.40625 
Q 19.671875 43.65625 24.015625 45.921875 
Q 28.375 48.1875 33.59375 48.1875 
Q 44.578125 48.1875 50.953125 41.515625 
Q 57.328125 34.859375 57.328125 23.390625 
Q 57.328125 12.15625 50.6875 5.359375 
Q 44.046875 -1.421875 33.015625 -1.421875 
Q 20.359375 -1.421875 13.671875 8.265625 
Q 6.984375 17.96875 6.984375 36.375 
Q 6.984375 53.65625 15.1875 63.9375 
Q 23.390625 74.21875 37.203125 74.21875 
Q 40.921875 74.21875 44.703125 73.484375 
Q 48.484375 72.75 52.59375 71.296875 
z
" id="DejaVuSans-54"/>
      </defs>
      <g transform="translate(13.096875 151.802967)scale(0.1 -0.1)">
       <use xlink:href="#DejaVuSans-49"/>
       <use x="63.623047" xlink:href="#DejaVuSans-46"/>
       <use x="95.410156" xlink:href="#DejaVuSans-54"/>
      </g>
     </g>
    </g>
    <g id="ytick_5">
     <g id="line2d_10">
      <g>
       <use style="stroke:#000000;stroke-width:0.8;" x="36" xlink:href="#m07825c54ff" y="115.523228"/>
      </g>
     </g>
     <g id="text_11">
      <!-- 1.8 -->
      <defs>
       <path d="M 31.78125 34.625 
Q 24.75 34.625 20.71875 30.859375 
Q 16.703125 27.09375 16.703125 20.515625 
Q 16.703125 13.921875 20.71875 10.15625 
Q 24.75 6.390625 31.78125 6.390625 
Q 38.8125 6.390625 42.859375 10.171875 
Q 46.921875 13.96875 46.921875 20.515625 
Q 46.921875 27.09375 42.890625 30.859375 
Q 38.875 34.625 31.78125 34.625 
z
M 21.921875 38.8125 
Q 15.578125 40.375 12.03125 44.71875 
Q 8.5 49.078125 8.5 55.328125 
Q 8.5 64.0625 14.71875 69.140625 
Q 20.953125 74.21875 31.78125 74.21875 
Q 42.671875 74.21875 48.875 69.140625 
Q 55.078125 64.0625 55.078125 55.328125 
Q 55.078125 49.078125 51.53125 44.71875 
Q 48 40.375 41.703125 38.8125 
Q 48.828125 37.15625 52.796875 32.3125 
Q 56.78125 27.484375 56.78125 20.515625 
Q 56.78125 9.90625 50.3125 4.234375 
Q 43.84375 -1.421875 31.78125 -1.421875 
Q 19.734375 -1.421875 13.25 4.234375 
Q 6.78125 9.90625 6.78125 20.515625 
Q 6.78125 27.484375 10.78125 32.3125 
Q 14.796875 37.15625 21.921875 38.8125 
z
M 18.3125 54.390625 
Q 18.3125 48.734375 21.84375 45.5625 
Q 25.390625 42.390625 31.78125 42.390625 
Q 38.140625 42.390625 41.71875 45.5625 
Q 45.3125 48.734375 45.3125 54.390625 
Q 45.3125 60.0625 41.71875 63.234375 
Q 38.140625 66.40625 31.78125 66.40625 
Q 25.390625 66.40625 21.84375 63.234375 
Q 18.3125 60.0625 18.3125 54.390625 
z
" id="DejaVuSans-56"/>
      </defs>
      <g transform="translate(13.096875 119.322447)scale(0.1 -0.1)">
       <use xlink:href="#DejaVuSans-49"/>
       <use x="63.623047" xlink:href="#DejaVuSans-46"/>
       <use x="95.410156" xlink:href="#DejaVuSans-56"/>
      </g>
     </g>
    </g>
    <g id="ytick_6">
     <g id="line2d_11">
      <g>
       <use style="stroke:#000000;stroke-width:0.8;" x="36" xlink:href="#m07825c54ff" y="83.042708"/>
      </g>
     </g>
     <g id="text_12">
      <!-- 2.0 -->
      <g transform="translate(13.096875 86.841927)scale(0.1 -0.1)">
       <use xlink:href="#DejaVuSans-50"/>
       <use x="63.623047" xlink:href="#DejaVuSans-46"/>
       <use x="95.410156" xlink:href="#DejaVuSans-48"/>
      </g>
     </g>
    </g>
    <g id="ytick_7">
     <g id="line2d_12">
      <g>
       <use style="stroke:#000000;stroke-width:0.8;" x="36" xlink:href="#m07825c54ff" y="50.562188"/>
      </g>
     </g>
     <g id="text_13">
      <!-- 2.2 -->
      <g transform="translate(13.096875 54.361407)scale(0.1 -0.1)">
       <use xlink:href="#DejaVuSans-50"/>
       <use x="63.623047" xlink:href="#DejaVuSans-46"/>
       <use x="95.410156" xlink:href="#DejaVuSans-50"/>
      </g>
     </g>
    </g>
    <g id="text_14">
     <!-- Elongation -->
     <defs>
      <path d="M 9.8125 72.90625 
L 55.90625 72.90625 
L 55.90625 64.59375 
L 19.671875 64.59375 
L 19.671875 43.015625 
L 54.390625 43.015625 
L 54.390625 34.71875 
L 19.671875 34.71875 
L 19.671875 8.296875 
L 56.78125 8.296875 
L 56.78125 0 
L 9.8125 0 
z
" id="DejaVuSans-69"/>
      <path d="M 45.40625 27.984375 
Q 45.40625 37.75 41.375 43.109375 
Q 37.359375 48.484375 30.078125 48.484375 
Q 22.859375 48.484375 18.828125 43.109375 
Q 14.796875 37.75 14.796875 27.984375 
Q 14.796875 18.265625 18.828125 12.890625 
Q 22.859375 7.515625 30.078125 7.515625 
Q 37.359375 7.515625 41.375 12.890625 
Q 45.40625 18.265625 45.40625 27.984375 
z
M 54.390625 6.78125 
Q 54.390625 -7.171875 48.1875 -13.984375 
Q 42 -20.796875 29.203125 -20.796875 
Q 24.46875 -20.796875 20.265625 -20.09375 
Q 16.0625 -19.390625 12.109375 -17.921875 
L 12.109375 -9.1875 
Q 16.0625 -11.328125 19.921875 -12.34375 
Q 23.78125 -13.375 27.78125 -13.375 
Q 36.625 -13.375 41.015625 -8.765625 
Q 45.40625 -4.15625 45.40625 5.171875 
L 45.40625 9.625 
Q 42.625 4.78125 38.28125 2.390625 
Q 33.9375 0 27.875 0 
Q 17.828125 0 11.671875 7.65625 
Q 5.515625 15.328125 5.515625 27.984375 
Q 5.515625 40.671875 11.671875 48.328125 
Q 17.828125 56 27.875 56 
Q 33.9375 56 38.28125 53.609375 
Q 42.625 51.21875 45.40625 46.390625 
L 45.40625 54.6875 
L 54.390625 54.6875 
z
" id="DejaVuSans-103"/>
     </defs>
     <g transform="translate(7.017187 169.872187)rotate(-90)scale(0.1 -0.1)">
      <use xlink:href="#DejaVuSans-69"/>
      <use x="63.183594" xlink:href="#DejaVuSans-108"/>
      <use x="90.966797" xlink:href="#DejaVuSans-111"/>
      <use x="152.148438" xlink:href="#DejaVuSans-110"/>
      <use x="215.527344" xlink:href="#DejaVuSans-103"/>
      <use x="279.003906" xlink:href="#DejaVuSans-97"/>
      <use x="340.283203" xlink:href="#DejaVuSans-116"/>
      <use x="379.492188" xlink:href="#DejaVuSans-105"/>
      <use x="407.275391" xlink:href="#DejaVuSans-111"/>
      <use x="468.457031" xlink:href="#DejaVuSans-110"/>
     </g>
    </g>
   </g>
   <g id="line2d_13">
    <path clip-path="url(#p592f7e27ee)" d="M 54.579403 211.450994 
L 56.509561 208.842398 
L 58.468484 206.137408 
L 60.456762 203.340237 
L 62.475 200.453864 
L 64.523817 197.480299 
L 66.603848 194.420787 
L 68.715743 191.275956 
L 70.860168 188.045935 
L 73.037807 184.730436 
L 75.249357 181.32883 
L 77.495537 177.84019 
L 79.777081 174.263334 
L 82.09474 170.596858 
L 84.449287 166.839156 
L 86.841511 162.988439 
L 89.272221 159.042753 
L 91.742248 154.999984 
L 94.25244 150.857869 
L 96.803668 146.614003 
L 99.396824 142.265842 
L 102.032821 137.810703 
L 104.712595 133.245769 
L 107.437104 128.568088 
L 110.20733 123.774572 
L 113.024276 118.861994 
L 115.888973 113.82699 
L 118.802473 108.666052 
L 121.765854 103.375526 
L 124.780221 97.951607 
L 127.846702 92.390336 
L 130.966453 86.687592 
L 130.966453 86.687592 
L 132.546673 83.781835 
" style="fill:none;stroke:#ff0000;stroke-linecap:square;stroke-width:1.5;"/>
   </g>
   <g id="line2d_14">
    <path clip-path="url(#p592f7e27ee)" d="M 56.284563 231.514564 
L 58.241605 229.567552 
L 60.227843 227.363203 
L 62.243869 224.958972 
L 64.290291 222.392857 
L 66.367732 219.689742 
L 68.476828 216.865925 
L 70.618232 213.932073 
L 72.79261 210.895107 
L 75.000647 207.759401 
L 77.243043 204.527558 
L 79.520513 201.200909 
L 81.833793 197.779861 
L 84.183632 194.264119 
L 86.570799 190.652845 
L 88.996082 186.944772 
L 91.460286 183.138281 
L 93.964237 179.231456 
L 96.508777 175.222126 
L 99.09477 171.107893 
L 101.723101 166.886157 
L 104.394673 162.554123 
L 107.110411 158.108822 
L 109.871263 153.547111 
L 112.678195 148.865678 
L 115.532198 144.061047 
L 118.434283 139.129577 
L 121.385485 134.067463 
L 124.386862 128.87073 
L 127.439494 123.535236 
L 130.544485 118.056662 
L 133.702963 112.43051 
L 136.91608 106.652101 
L 140.185011 100.716561 
L 143.510956 94.61882 
L 143.510956 94.61882 
L 145.19569 91.507484 
" style="fill:none;stroke:#bfbf00;stroke-linecap:square;stroke-width:1.5;"/>
   </g>
   <g id="line2d_15">
    <path clip-path="url(#p592f7e27ee)" d="M 56.926042 195.871924 
L 58.860749 192.731834 
L 60.824055 189.522214 
L 62.816541 186.241642 
L 64.838805 182.888585 
L 66.891456 179.461401 
L 68.975119 175.958357 
L 71.090437 172.377623 
L 73.238065 168.717287 
L 75.418675 164.975347 
L 77.632957 161.149722 
L 79.881615 157.238244 
L 82.165374 153.238666 
L 84.484974 149.148654 
L 86.841173 144.965792 
L 89.234749 140.68758 
L 91.666498 136.311428 
L 94.137235 131.834659 
L 96.647796 127.254507 
L 99.199037 122.568112 
L 101.791834 117.772516 
L 104.427084 112.864669 
L 107.105707 107.841416 
L 109.828644 102.699501 
L 112.596859 97.43556 
L 115.411337 92.046121 
L 118.27309 86.527598 
L 121.183152 80.876288 
L 121.183152 80.876288 
L 122.656628 77.999649 
" style="fill:none;stroke:#bfbf00;stroke-linecap:square;stroke-width:1.5;"/>
   </g>
   <g id="line2d_16">
    <path clip-path="url(#p592f7e27ee)" d="M 60.537805 222.564688 
L 62.506933 220.133081 
L 64.50509 217.591323 
L 66.532859 214.949763 
L 68.590838 212.215502 
L 70.679639 209.393356 
L 72.799888 206.486503 
L 74.952227 203.496928 
L 77.137312 200.425725 
L 79.355815 197.273316 
L 81.608424 194.039598 
L 83.895844 190.724054 
L 86.218795 187.325831 
L 88.578014 183.843799 
L 90.974259 180.27659 
L 93.408301 176.622636 
L 95.880931 172.880185 
L 98.392961 169.047327 
L 100.945217 165.121999 
L 103.538549 161.102003 
L 106.173823 156.985006 
L 108.851928 152.768548 
L 111.573771 148.450047 
L 114.340281 144.026797 
L 117.152407 139.495973 
L 120.011121 134.85463 
L 122.917416 130.099699 
L 125.872306 125.227992 
L 128.876829 120.236193 
L 131.932045 115.120861 
L 135.039036 109.878427 
L 138.198909 104.505189 
L 141.412792 98.997306 
L 144.681839 93.350801 
L 144.681839 93.350801 
L 146.337415 90.474283 
" style="fill:none;stroke:#bfbf00;stroke-linecap:square;stroke-width:1.5;"/>
   </g>
   <g id="line2d_17">
    <path clip-path="url(#p592f7e27ee)" d="M 62.994716 214.631956 
L 64.963227 211.908536 
L 66.960497 209.116856 
L 68.987102 206.257512 
L 71.043629 203.330576 
L 73.13068 200.335722 
L 75.248872 197.272319 
L 77.398836 194.139495 
L 79.581218 190.936182 
L 81.796678 187.661142 
L 84.045894 184.313001 
L 86.329559 180.890258 
L 88.648381 177.391299 
L 91.003086 173.814409 
L 93.394418 170.157777 
L 95.823135 166.419499 
L 98.290018 162.597585 
L 100.795861 158.689959 
L 103.34148 154.69446 
L 105.927709 150.608844 
L 108.555401 146.430782 
L 111.225428 142.157861 
L 113.938684 137.787585 
L 116.696083 133.317369 
L 119.498558 128.74454 
L 122.347064 124.066336 
L 125.24258 119.279902 
L 128.186103 114.382289 
L 131.178654 109.370451 
L 134.221277 104.24124 
L 137.315038 98.991404 
L 140.461026 93.617585 
L 140.461026 93.617585 
L 142.053953 90.883103 
L 143.660355 88.116314 
" style="fill:none;stroke:#bfbf00;stroke-linecap:square;stroke-width:1.5;"/>
   </g>
   <g id="line2d_18">
    <path clip-path="url(#p592f7e27ee)" d="M 48.783674 239.639973 
L 50.678933 237.182542 
L 52.602772 234.673079 
L 54.555789 232.111251 
L 56.538597 229.496102 
L 58.551826 226.826445 
L 60.59612 224.100973 
L 62.672142 221.318301 
L 64.78057 218.476984 
L 66.922099 215.575521 
L 69.097445 212.612362 
L 71.307339 209.585904 
L 73.552531 206.494495 
L 75.833793 203.336432 
L 78.151914 200.109959 
L 80.507706 196.81327 
L 82.901998 193.444502 
L 85.335644 190.001736 
L 87.809519 186.482998 
L 90.324519 182.886253 
L 92.881565 179.209407 
L 95.481601 175.450303 
L 98.125594 171.60672 
L 100.814538 167.676372 
L 103.549449 163.656905 
L 106.331372 159.545896 
L 109.161378 155.34085 
L 112.040562 151.0392 
L 114.970051 146.638302 
L 117.950997 142.135436 
L 120.984581 137.527804 
L 124.072015 132.812524 
L 127.214539 127.986633 
L 130.413424 123.047081 
L 133.66997 117.990732 
L 136.985512 112.814359 
L 140.361413 107.514643 
L 143.79907 102.088171 
L 147.29991 96.531435 
L 147.29991 96.531435 
L 149.07448 93.703094 
" style="fill:none;stroke:#bfbf00;stroke-linecap:square;stroke-width:1.5;"/>
   </g>
   <g id="line2d_19">
    <path clip-path="url(#p592f7e27ee)" d="M 47.513616 240.121018 
L 49.409626 241.814025 
L 51.334289 242.116364 
L 53.288203 240.735109 
L 55.271981 238.57875 
L 57.286252 236.12634 
L 59.331662 233.519729 
L 61.408871 230.806558 
L 63.518558 228.005719 
L 65.661419 225.125443 
L 67.838166 222.169325 
L 70.049532 219.138685 
L 72.296266 216.033605 
L 74.579138 212.853439 
L 76.898937 209.597074 
L 79.256473 206.263084 
L 81.652577 202.849812 
L 84.088099 199.355424 
L 86.563914 195.777941 
L 89.080918 192.115259 
L 91.64003 188.365165 
L 94.242192 184.525342 
L 96.888372 180.593378 
L 99.579561 176.566768 
L 102.316777 172.442913 
L 105.101062 168.219125 
L 107.933487 163.892625 
L 110.815148 159.460541 
L 113.747169 154.919909 
L 116.730705 150.26767 
L 119.766937 145.500669 
L 122.857078 140.615651 
L 126.002369 135.60926 
L 129.204082 130.478036 
L 132.463524 125.218411 
L 135.782029 119.826705 
L 139.160966 114.299124 
L 142.601738 108.631753 
L 146.105779 102.820553 
L 149.674558 96.861354 
L 149.674558 96.861354 
L 151.483693 93.824915 
" style="fill:none;stroke:#bfbf00;stroke-linecap:square;stroke-width:1.5;"/>
   </g>
   <g id="line2d_20">
    <path clip-path="url(#p592f7e27ee)" d="M 50.193681 134.327614 
L 52.085503 130.666823 
L 54.00559 126.904629 
L 55.954528 123.03961 
L 57.932919 119.070199 
L 59.941377 114.994688 
L 61.980535 110.811228 
L 64.051041 106.517832 
L 66.153559 102.11238 
L 68.288769 97.592614 
L 70.457371 92.956143 
L 72.66008 88.200444 
L 74.89763 83.322856 
L 77.170776 78.320588 
L 79.480289 73.190712 
L 81.826962 67.930164 
L 84.211606 62.535741 
L 84.211606 62.535741 
L 85.418428 59.787289 
L 86.635056 57.004104 
" style="fill:none;stroke:#bfbf00;stroke-linecap:square;stroke-width:1.5;"/>
   </g>
   <g id="line2d_21">
    <path clip-path="url(#p592f7e27ee)" d="M 53.049728 134.205066 
L 54.964409 130.932865 
L 56.907688 127.553086 
L 58.880158 124.064623 
L 60.882424 120.466206 
L 62.91511 116.756402 
L 64.978854 112.933612 
L 67.074308 108.996072 
L 69.202144 104.941852 
L 71.363049 100.768855 
L 73.557727 96.474813 
L 75.786901 92.057289 
L 78.051312 87.513671 
L 80.351718 82.84117 
L 82.688899 78.036817 
L 85.063653 73.097459 
L 87.476798 68.019752 
L 89.929174 62.80016 
L 89.929174 62.80016 
L 91.170342 60.135997 
" style="fill:none;stroke:#bfbf00;stroke-linecap:square;stroke-width:1.5;"/>
   </g>
   <g id="line2d_22">
    <path clip-path="url(#p592f7e27ee)" d="M 46.145455 190.804063 
L 48.034191 187.294506 
L 49.951656 183.69961 
L 51.898456 180.017015 
L 53.875214 176.244223 
L 55.882566 172.378601 
L 57.921167 168.41738 
L 59.991688 164.357659 
L 62.094817 160.196399 
L 64.23126 155.930424 
L 66.401742 151.556413 
L 68.607006 147.070902 
L 70.847813 142.470273 
L 73.124945 137.750749 
L 75.439204 132.908393 
L 77.791414 127.939093 
L 80.182419 122.838561 
L 82.613084 117.602319 
L 85.084298 112.225696 
L 87.596972 106.703813 
L 90.152041 101.031578 
L 92.750465 95.203668 
L 95.393226 89.214525 
L 98.081334 83.058337 
L 100.815823 76.729028 
L 103.597756 70.220243 
L 103.597756 70.220243 
L 105.006852 66.89648 
" style="fill:none;stroke:#bfbf00;stroke-linecap:square;stroke-width:1.5;"/>
   </g>
   <g id="line2d_23">
    <path clip-path="url(#p592f7e27ee)" d="M 67.985631 203.223947 
L 69.985782 200.326439 
L 72.014834 197.325995 
L 74.073355 194.224949 
L 76.161922 191.024753 
L 78.281127 187.726137 
L 80.431578 184.329231 
L 82.613893 180.833662 
L 84.828706 177.238626 
L 87.076665 173.54295 
L 89.358433 169.745131 
L 91.674688 165.843375 
L 94.026123 161.835621 
L 96.413448 157.719562 
L 98.837388 153.492659 
L 101.298683 149.152154 
L 103.798092 144.695077 
L 106.336389 140.118247 
L 108.914367 135.418281 
L 111.532836 130.591588 
L 114.192622 125.634373 
L 116.894573 120.542629 
L 119.639551 115.312137 
L 122.42844 109.938457 
L 125.262142 104.416924 
L 128.141578 98.742635 
L 131.067689 92.910445 
L 134.041434 86.914954 
L 134.041434 86.914954 
L 135.546476 83.854209 
" style="fill:none;stroke:#bfbf00;stroke-linecap:square;stroke-width:1.5;"/>
   </g>
   <g id="line2d_24">
    <path clip-path="url(#p592f7e27ee)" d="M 60.464088 202.861783 
L 62.42157 202.1492 
L 64.407864 201.277113 
L 66.423552 200.249138 
L 68.46923 199.069537 
L 70.545505 197.743008 
L 72.653002 196.274496 
L 74.792359 194.669012 
L 76.96423 192.931496 
L 79.169284 191.066699 
L 81.408206 189.0791 
L 83.681699 186.972847 
L 85.99048 184.751719 
L 88.335284 182.419112 
L 90.716865 179.978028 
L 93.135993 177.43109 
L 95.593457 174.780544 
L 98.090064 172.028287 
L 100.62664 169.175881 
L 103.204032 166.224579 
L 105.823103 163.175343 
L 108.484741 160.02887 
L 111.189851 156.785612 
L 113.939359 153.445794 
L 116.734213 150.009436 
L 119.575384 146.476368 
L 122.463863 142.846247 
L 125.400662 139.118572 
L 128.386819 135.292695 
L 131.423392 131.367839 
L 134.511464 127.343105 
L 137.65214 123.217487 
L 140.84655 118.989876 
L 144.095846 114.659076 
L 147.401205 110.223812 
L 150.76383 105.682733 
L 154.184945 101.03443 
L 154.184945 101.03443 
L 155.917827 98.669613 
L 157.665801 96.277436 
" style="fill:none;stroke:#bfbf00;stroke-linecap:square;stroke-width:1.5;"/>
   </g>
   <g id="line2d_25">
    <path clip-path="url(#p592f7e27ee)" d="M 57.796526 238.673685 
L 59.751146 239.470145 
L 61.73475 239.359396 
L 63.747924 238.368824 
L 65.791269 236.768587 
L 67.8654 234.801357 
L 69.970947 232.607142 
L 72.108555 230.258624 
L 74.278884 227.794017 
L 76.482609 225.234266 
L 78.720422 222.5913 
L 80.993033 219.872088 
L 83.301166 217.080708 
L 85.645564 214.219482 
L 88.026987 211.289606 
L 90.446212 208.291533 
L 92.904038 205.225203 
L 95.401277 202.090194 
L 97.938766 198.885818 
L 100.517357 195.611186 
L 103.137924 192.265258 
L 105.801362 188.84687 
L 108.508584 185.354761 
L 111.260526 181.787593 
L 114.058146 178.143959 
L 116.902421 174.422399 
L 119.794353 170.621405 
L 122.734965 166.739433 
L 125.725302 162.774904 
L 128.766433 158.726216 
L 131.859451 154.591745 
L 135.005471 150.369854 
L 138.205633 146.058897 
L 141.461101 141.657223 
L 144.773062 137.163186 
L 148.142729 132.575151 
L 151.571339 127.891496 
L 155.060153 123.110625 
L 158.610457 118.230974 
L 162.223563 113.25102 
L 165.900806 108.169289 
L 165.900806 108.169289 
L 167.763903 105.589813 
L 169.643546 102.984369 
" style="fill:none;stroke:#bfbf00;stroke-linecap:square;stroke-width:1.5;"/>
   </g>
   <g id="line2d_26">
    <path clip-path="url(#p592f7e27ee)" d="M 48.869618 145.774324 
L 50.763189 143.538298 
L 52.685234 141.177231 
L 54.636344 138.691074 
L 56.617127 136.079681 
L 58.628206 133.342799 
L 60.67022 130.48005 
L 62.743823 127.490926 
L 64.849687 124.374778 
L 66.9885 121.130805 
L 69.160968 117.758051 
L 71.367814 114.2554 
L 73.609781 110.621567 
L 75.887629 106.855098 
L 78.202139 102.954364 
L 80.55411 98.917557 
L 82.944364 94.742692 
L 85.373742 90.427598 
L 87.843106 85.969918 
L 90.353341 81.367109 
L 92.905353 76.616433 
L 95.500073 71.714962 
L 98.138454 66.659568 
L 98.138454 66.659568 
L 99.474322 64.073117 
" style="fill:none;stroke:#bfbf00;stroke-linecap:square;stroke-width:1.5;"/>
   </g>
   <g id="line2d_27">
    <path clip-path="url(#p592f7e27ee)" d="M 55.798936 208.013836 
L 57.740731 205.260869 
L 59.711453 202.419489 
L 61.711696 199.492022 
L 63.742067 196.479959 
L 65.803187 193.384122 
L 67.895694 190.204798 
L 70.020241 186.941837 
L 72.177495 183.594725 
L 74.368143 180.162641 
L 76.592887 176.6445 
L 78.852446 173.038991 
L 81.147557 169.344594 
L 83.478976 165.559606 
L 85.847476 161.682157 
L 88.25385 157.710214 
L 90.69891 153.641598 
L 93.18349 149.473983 
L 95.70844 145.204904 
L 98.274635 140.831757 
L 100.88297 136.351802 
L 103.534361 131.76216 
L 106.229746 127.059815 
L 108.970086 122.241609 
L 111.756368 117.304239 
L 114.589598 112.244254 
L 117.470808 107.05805 
L 120.401055 101.741861 
L 123.381422 96.291759 
L 126.413013 90.703639 
L 129.496963 84.973216 
L 129.496963 84.973216 
L 131.058933 82.05325 
" style="fill:none;stroke:#bfbf00;stroke-linecap:square;stroke-width:1.5;"/>
   </g>
   <g id="line2d_28">
    <path clip-path="url(#p592f7e27ee)" d="M 65.365536 175.679014 
L 67.338238 172.217272 
L 69.33947 168.680128 
L 71.369797 165.065761 
L 73.429795 161.372265 
L 75.520057 157.597654 
L 77.641186 153.739863 
L 79.793802 149.796741 
L 81.978538 145.766057 
L 84.196044 141.645496 
L 86.446984 137.43266 
L 88.732036 133.125061 
L 91.051896 128.720124 
L 93.407276 124.215183 
L 95.798905 119.607477 
L 98.227529 114.894151 
L 100.69391 110.072247 
L 103.19883 105.138706 
L 105.743088 100.090363 
L 108.327501 94.923943 
L 110.952908 89.636055 
L 113.620163 84.223191 
L 116.330143 78.68172 
L 116.330143 78.68172 
L 117.701435 75.861589 
" style="fill:none;stroke:#bfbf00;stroke-linecap:square;stroke-width:1.5;"/>
   </g>
   <g id="line2d_29">
    <path clip-path="url(#p592f7e27ee)" d="M 62.14594 201.144712 
L 64.107779 198.162618 
L 66.09835 195.102821 
L 68.118231 191.965048 
L 70.168012 188.748676 
L 72.248301 185.452794 
L 74.359718 182.076242 
L 76.502898 178.617646 
L 78.678491 175.075443 
L 80.887165 171.447896 
L 83.129601 167.733111 
L 85.406499 163.929046 
L 87.718573 160.033519 
L 90.066556 156.044212 
L 92.451199 151.958673 
L 94.873269 147.774321 
L 97.333554 143.488441 
L 99.832859 139.09819 
L 102.372008 134.60059 
L 104.951846 129.992528 
L 107.573238 125.270752 
L 110.237067 120.431866 
L 112.944239 115.472327 
L 115.695682 110.388441 
L 118.492344 105.176352 
L 121.335196 99.83204 
L 124.225231 94.351313 
L 127.163465 88.729798 
L 127.163465 88.729798 
L 128.65098 85.864826 
L 130.150937 82.96293 
" style="fill:none;stroke:#bfbf00;stroke-linecap:square;stroke-width:1.5;"/>
   </g>
   <g id="line2d_30">
    <path clip-path="url(#p592f7e27ee)" d="M 54.674145 205.258766 
L 56.606295 202.263051 
L 58.567306 199.202414 
L 60.557768 196.075172 
L 62.578291 192.879556 
L 64.629495 189.613719 
L 66.71202 186.275734 
L 68.826516 182.863593 
L 70.973654 179.37521 
L 73.154119 175.808415 
L 75.368612 172.160957 
L 77.617853 168.430496 
L 79.902579 164.614606 
L 82.223543 160.710768 
L 84.58152 156.716369 
L 86.9773 152.628696 
L 89.411695 148.444937 
L 91.885536 144.16217 
L 94.399672 139.777365 
L 96.954975 135.287374 
L 99.552336 130.688932 
L 102.192669 125.978646 
L 104.876909 121.152995 
L 107.606012 116.208319 
L 110.380958 111.140817 
L 113.202748 105.94654 
L 116.072409 100.621383 
L 118.99099 95.161078 
L 121.959563 89.56119 
L 124.979226 83.817102 
L 124.979226 83.817102 
L 126.508565 80.889492 
" style="fill:none;stroke:#bfbf00;stroke-linecap:square;stroke-width:1.5;"/>
   </g>
   <g id="line2d_31">
    <path clip-path="url(#p592f7e27ee)" d="M 67.709961 190.14203 
L 69.70691 186.864395 
L 71.732665 183.51248 
L 73.787789 180.084621 
L 75.872855 176.579039 
L 77.988452 172.993842 
L 80.135179 169.327036 
L 82.313652 165.576524 
L 84.524498 161.740111 
L 86.76836 157.815504 
L 89.045893 153.80031 
L 91.357771 149.692039 
L 93.704678 145.4881 
L 96.087317 141.185801 
L 98.506405 136.782346 
L 100.962676 132.274832 
L 103.456879 127.66025 
L 105.989779 122.935475 
L 108.562161 118.097269 
L 111.174823 113.142275 
L 113.828583 108.067013 
L 116.524277 102.867877 
L 119.262756 97.541129 
L 122.044891 92.082896 
L 124.871573 86.489167 
L 124.871573 86.489167 
L 126.301902 83.640198 
L 127.743709 80.755783 
" style="fill:none;stroke:#bfbf00;stroke-linecap:square;stroke-width:1.5;"/>
   </g>
   <g id="line2d_32">
    <path clip-path="url(#p592f7e27ee)" d="M 49.35663 174.15082 
L 51.257476 171.973532 
L 53.187069 169.689315 
L 55.146011 167.29967 
L 57.134921 164.805895 
L 59.154436 162.209079 
L 61.205205 159.510103 
L 63.287896 156.709639 
L 65.403194 153.808158 
L 67.551802 150.805929 
L 69.734439 147.70303 
L 71.951845 144.49935 
L 74.204776 141.194597 
L 76.49401 137.788305 
L 78.820343 134.279839 
L 81.184594 130.668403 
L 83.587601 126.953044 
L 86.030222 123.132656 
L 88.513341 119.205991 
L 91.03786 115.171654 
L 93.604709 111.028116 
L 96.214838 106.773713 
L 98.869221 102.40665 
L 101.56886 97.925005 
L 104.314779 93.326729 
L 107.108029 88.609651 
L 109.949688 83.771477 
L 112.84086 78.809795 
L 112.84086 78.809795 
L 114.305366 76.281851 
L 115.782677 73.722071 
" style="fill:none;stroke:#bfbf00;stroke-linecap:square;stroke-width:1.5;"/>
   </g>
   <g id="line2d_33">
    <path clip-path="url(#p592f7e27ee)" d="M 59.905751 129.668778 
L 61.853085 125.982711 
L 63.829042 122.20706 
L 65.834203 118.340201 
L 67.869161 114.380399 
L 69.934524 110.325811 
L 72.030914 106.174483 
L 74.158968 101.924351 
L 76.319341 97.57324 
L 78.512701 93.118865 
L 80.739732 88.558828 
L 83.001139 83.890617 
L 85.297638 79.111603 
L 87.629966 74.219039 
L 89.998879 69.210059 
L 92.405148 64.08167 
L 92.405148 64.08167 
L 93.622537 61.471728 
" style="fill:none;stroke:#bfbf00;stroke-linecap:square;stroke-width:1.5;"/>
   </g>
   <g id="line2d_34">
    <path clip-path="url(#p592f7e27ee)" d="M 55.76269 199.30856 
L 57.699413 197.629001 
L 59.664943 195.804378 
L 61.65987 193.840541 
L 63.684798 191.742921 
L 65.740344 189.516453 
L 67.827143 187.165543 
L 69.945843 184.694052 
L 72.097109 182.105304 
L 74.281623 179.402102 
L 76.500082 176.586751 
L 78.753202 173.661094 
L 81.041715 170.62654 
L 83.366371 167.484093 
L 85.727939 164.234387 
L 88.127207 160.877714 
L 90.564982 157.414045 
L 93.04209 153.843062 
L 95.559379 150.164171 
L 98.117715 146.376525 
L 100.717986 142.47904 
L 103.361103 138.470408 
L 106.047997 134.34911 
L 108.779622 130.113426 
L 111.556956 125.761441 
L 114.380997 121.291057 
L 117.252771 116.699995 
L 120.173324 111.985799 
L 123.14373 107.145841 
L 126.165086 102.177321 
L 129.238514 97.07727 
L 132.365164 91.842548 
L 132.365164 91.842548 
L 133.948812 89.173657 
L 135.546209 86.469843 
" style="fill:none;stroke:#bfbf00;stroke-linecap:square;stroke-width:1.5;"/>
   </g>
   <g id="line2d_35">
    <path clip-path="url(#p592f7e27ee)" d="M 50.450642 191.715976 
L 52.357884 189.551633 
L 54.293791 187.272399 
L 56.258957 184.88172 
L 58.253992 182.382574 
L 60.279518 179.777484 
L 62.336178 177.068546 
L 64.424626 174.257448 
L 66.545535 171.345503 
L 68.699594 168.333676 
L 70.887509 165.222607 
L 73.110005 162.012637 
L 75.367825 158.703833 
L 77.661727 155.296007 
L 79.992494 151.788735 
L 82.360923 148.181373 
L 84.767835 144.473074 
L 87.214069 140.6628 
L 89.700486 136.74933 
L 92.227969 132.731278 
L 94.797421 128.607094 
L 97.409769 124.375074 
L 100.065963 120.033368 
L 102.766977 115.579982 
L 105.513807 111.012786 
L 108.307474 106.329514 
L 111.149026 101.527769 
L 114.039534 96.605026 
L 116.980097 91.55863 
L 119.971838 86.385801 
L 123.01591 81.083631 
L 123.01591 81.083631 
L 124.557937 78.3831 
" style="fill:none;stroke:#bfbf00;stroke-linecap:square;stroke-width:1.5;"/>
   </g>
   <g id="line2d_36">
    <path clip-path="url(#p592f7e27ee)" d="M 53.70614 203.506857 
L 55.630763 200.809465 
L 57.584076 198.01931 
L 59.566668 195.139027 
L 61.579141 192.170482 
L 63.622114 189.114909 
L 65.69622 185.973017 
L 67.802108 182.745077 
L 69.940443 179.430987 
L 72.111908 176.030332 
L 74.317199 172.542421 
L 76.557034 168.966325 
L 78.832145 165.300904 
L 81.143284 161.544831 
L 83.491222 157.696607 
L 85.876747 153.754577 
L 88.30067 149.716942 
L 90.763817 145.581768 
L 93.26704 141.346993 
L 95.811209 137.010434 
L 98.397215 132.56979 
L 101.025972 128.022645 
L 103.698417 123.366476 
L 106.415509 118.598647 
L 109.17823 113.716418 
L 111.987588 108.71694 
L 114.844613 103.597258 
L 117.75036 98.354311 
L 120.705913 92.984933 
L 123.712377 87.485849 
L 126.770886 81.853676 
L 126.770886 81.853676 
L 128.320019 78.986595 
" style="fill:none;stroke:#bfbf00;stroke-linecap:square;stroke-width:1.5;"/>
   </g>
   <g id="line2d_37">
    <path clip-path="url(#p592f7e27ee)" d="M 59.311536 240.079586 
L 61.255489 239.321977 
L 63.227959 237.828664 
L 65.229521 235.909008 
L 67.260761 233.741624 
L 69.322282 231.413989 
L 71.414701 228.969445 
L 73.538649 226.430604 
L 75.694772 223.809839 
L 77.883732 221.114115 
L 80.106208 218.347362 
L 82.362893 215.511698 
L 84.654498 212.608111 
L 86.981751 209.636846 
L 89.345397 206.597641 
L 91.7462 203.489874 
L 94.184941 200.312659 
L 96.66242 197.064903 
L 99.179456 193.745355 
L 101.736888 190.352631 
L 104.335573 186.885236 
L 106.97639 183.34158 
L 109.660239 179.719986 
L 112.38804 176.018698 
L 115.160734 172.235891 
L 117.979284 168.369668 
L 120.844678 164.41807 
L 123.757921 160.379072 
L 126.720047 156.25059 
L 129.732109 152.030479 
L 132.795184 147.716535 
L 135.910376 143.306496 
L 139.07881 138.798038 
L 142.301637 134.188782 
L 145.580031 129.476289 
L 148.915194 124.658061 
L 152.30835 119.731541 
L 155.76075 114.694111 
L 159.273671 109.543094 
L 162.848414 104.275751 
L 162.848414 104.275751 
L 164.659382 101.597584 
" style="fill:none;stroke:#bfbf00;stroke-linecap:square;stroke-width:1.5;"/>
   </g>
   <g id="line2d_38">
    <path clip-path="url(#p592f7e27ee)" d="M 57.854154 205.967516 
L 59.818754 208.620906 
L 61.812644 211.214073 
L 63.83642 213.738761 
L 65.89069 216.184176 
L 67.97608 218.536057 
L 70.093229 220.775426 
L 72.242792 222.876929 
L 74.425438 224.806803 
L 76.641855 226.520799 
L 78.892744 227.963 
L 81.178825 229.067556 
L 83.500833 229.766137 
L 85.859523 230.002338 
L 88.255667 229.748582 
L 90.690053 229.015268 
L 93.16349 227.84525 
L 95.676805 226.298163 
L 98.230845 224.435006 
L 100.826475 222.309039 
L 103.464582 219.962789 
L 106.146072 217.428534 
L 108.871872 214.730081 
L 111.64293 211.884682 
L 114.460217 208.904668 
L 117.324723 205.798712 
L 120.237461 202.572761 
L 123.199467 199.230717 
L 126.211799 195.774919 
L 129.275538 192.206503 
L 132.391788 188.525648 
L 135.561676 184.731764 
L 138.786351 180.823625 
L 142.066989 176.799468 
L 145.404785 172.657057 
L 148.800962 168.393742 
L 152.256763 164.006487 
L 155.773457 159.491894 
L 159.352334 154.846222 
L 162.994709 150.065388 
L 166.70192 145.144967 
L 170.475326 140.080191 
L 174.31631 134.865932 
L 178.226275 129.496693 
L 182.206648 123.966582 
L 186.258872 118.26929 
L 186.258872 118.26929 
L 188.312385 115.355858 
L 190.384413 112.39806 
" style="fill:none;stroke:#bfbf00;stroke-linecap:square;stroke-width:1.5;"/>
   </g>
   <g id="line2d_39">
    <path clip-path="url(#p592f7e27ee)" d="M 58.25087 44.443636 
L 88.092065 60.609171 
L 144.470011 91.481652 
L 180.541924 111.085681 
L 203.022476 123.104836 
L 209.333654 126.440827 
L 249.054545 146.936095 
L 249.054545 146.936095 
" style="fill:none;stroke:#008000;stroke-linecap:square;stroke-width:1.5;"/>
   </g>
   <g id="patch_3">
    <path d="M 36 252 
L 36 34.56 
" style="fill:none;stroke:#000000;stroke-linecap:square;stroke-linejoin:miter;stroke-width:0.8;"/>
   </g>
   <g id="patch_4">
    <path d="M 259.2 252 
L 259.2 34.56 
" style="fill:none;stroke:#000000;stroke-linecap:square;stroke-linejoin:miter;stroke-width:0.8;"/>
   </g>
   <g id="patch_5">
    <path d="M 36 252 
L 259.2 252 
" style="fill:none;stroke:#000000;stroke-linecap:square;stroke-linejoin:miter;stroke-width:0.8;"/>
   </g>
   <g id="patch_6">
    <path d="M 36 34.56 
L 259.2 34.56 
" style="fill:none;stroke:#000000;stroke-linecap:square;stroke-linejoin:miter;stroke-width:0.8;"/>
   </g>
   <g id="text_15">
    <!--  0.68 -->
    <defs>
     <path id="DejaVuSans-32"/>
    </defs>
    <g transform="translate(132.546673 83.781835)scale(0.1 -0.1)">
     <use xlink:href="#DejaVuSans-32"/>
     <use x="31.787109" xlink:href="#DejaVuSans-48"/>
     <use x="95.410156" xlink:href="#DejaVuSans-46"/>
     <use x="127.197266" xlink:href="#DejaVuSans-54"/>
     <use x="190.820312" xlink:href="#DejaVuSans-56"/>
    </g>
   </g>
   <g id="text_16">
    <!--  f=1 -->
    <defs>
     <path d="M 37.109375 75.984375 
L 37.109375 68.5 
L 28.515625 68.5 
Q 23.6875 68.5 21.796875 66.546875 
Q 19.921875 64.59375 19.921875 59.515625 
L 19.921875 54.6875 
L 34.71875 54.6875 
L 34.71875 47.703125 
L 19.921875 47.703125 
L 19.921875 0 
L 10.890625 0 
L 10.890625 47.703125 
L 2.296875 47.703125 
L 2.296875 54.6875 
L 10.890625 54.6875 
L 10.890625 58.5 
Q 10.890625 67.625 15.140625 71.796875 
Q 19.390625 75.984375 28.609375 75.984375 
z
" id="DejaVuSans-102"/>
     <path d="M 10.59375 45.40625 
L 73.1875 45.40625 
L 73.1875 37.203125 
L 10.59375 37.203125 
z
M 10.59375 25.484375 
L 73.1875 25.484375 
L 73.1875 17.1875 
L 10.59375 17.1875 
z
" id="DejaVuSans-61"/>
    </defs>
    <g transform="translate(38.132533 211.450994)scale(0.1 -0.1)">
     <use xlink:href="#DejaVuSans-32"/>
     <use x="31.787109" xlink:href="#DejaVuSans-102"/>
     <use x="66.992188" xlink:href="#DejaVuSans-61"/>
     <use x="150.78125" xlink:href="#DejaVuSans-49"/>
    </g>
   </g>
  </g>
 </g>
 <defs>
  <clipPath id="p592f7e27ee">
   <rect height="217.44" width="223.2" x="36" y="34.56"/>
  </clipPath>
 </defs>
</svg>
