<?xml version="1.0" encoding="utf-8" standalone="no"?>
<!DOCTYPE svg PUBLIC "-//W3C//DTD SVG 1.1//EN"
  "http://www.w3.org/Graphics/SVG/1.1/DTD/svg11.dtd">
<!-- Created with matplotlib (https://matplotlib.org/) -->
<svg height="288pt" version="1.1" viewBox="0 0 288 288" width="288pt" xmlns="http://www.w3.org/2000/svg" xmlns:xlink="http://www.w3.org/1999/xlink">
 <defs>
  <style type="text/css">
*{stroke-linecap:butt;stroke-linejoin:round;}
  </style>
 </defs>
 <g id="figure_1">
  <g id="patch_1">
   <path d="M 0 288 
L 288 288 
L 288 0 
L 0 0 
z
" style="fill:#ffffff;"/>
  </g>
  <g id="axes_1">
   <g id="patch_2">
    <path d="M 36 252 
L 259.2 252 
L 259.2 34.56 
L 36 34.56 
z
" style="fill:#ffffff;"/>
   </g>
   <g id="matplotlib.axis_1">
    <g id="xtick_1">
     <g id="line2d_1">
      <defs>
       <path d="M 0 0 
L 0 3.5 
" id="mbe34059c18" style="stroke:#000000;stroke-width:0.8;"/>
      </defs>
      <g>
       <use style="stroke:#000000;stroke-width:0.8;" x="75.306185" xlink:href="#mbe34059c18" y="252"/>
      </g>
     </g>
     <g id="text_1">
      <!-- 25 -->
      <defs>
       <path d="M 19.1875 8.296875 
L 53.609375 8.296875 
L 53.609375 0 
L 7.328125 0 
L 7.328125 8.296875 
Q 12.9375 14.109375 22.625 23.890625 
Q 32.328125 33.6875 34.8125 36.53125 
Q 39.546875 41.84375 41.421875 45.53125 
Q 43.3125 49.21875 43.3125 52.78125 
Q 43.3125 58.59375 39.234375 62.25 
Q 35.15625 65.921875 28.609375 65.921875 
Q 23.96875 65.921875 18.8125 64.3125 
Q 13.671875 62.703125 7.8125 59.421875 
L 7.8125 69.390625 
Q 13.765625 71.78125 18.9375 73 
Q 24.125 74.21875 28.421875 74.21875 
Q 39.75 74.21875 46.484375 68.546875 
Q 53.21875 62.890625 53.21875 53.421875 
Q 53.21875 48.921875 51.53125 44.890625 
Q 49.859375 40.875 45.40625 35.40625 
Q 44.1875 33.984375 37.640625 27.21875 
Q 31.109375 20.453125 19.1875 8.296875 
z
" id="DejaVuSans-50"/>
       <path d="M 10.796875 72.90625 
L 49.515625 72.90625 
L 49.515625 64.59375 
L 19.828125 64.59375 
L 19.828125 46.734375 
Q 21.96875 47.46875 24.109375 47.828125 
Q 26.265625 48.1875 28.421875 48.1875 
Q 40.625 48.1875 47.75 41.5 
Q 54.890625 34.8125 54.890625 23.390625 
Q 54.890625 11.625 47.5625 5.09375 
Q 40.234375 -1.421875 26.90625 -1.421875 
Q 22.3125 -1.421875 17.546875 -0.640625 
Q 12.796875 0.140625 7.71875 1.703125 
L 7.71875 11.625 
Q 12.109375 9.234375 16.796875 8.0625 
Q 21.484375 6.890625 26.703125 6.890625 
Q 35.15625 6.890625 40.078125 11.328125 
Q 45.015625 15.765625 45.015625 23.390625 
Q 45.015625 31 40.078125 35.4375 
Q 35.15625 39.890625 26.703125 39.890625 
Q 22.75 39.890625 18.8125 39.015625 
Q 14.890625 38.140625 10.796875 36.28125 
z
" id="DejaVuSans-53"/>
      </defs>
      <g transform="translate(68.943685 266.598437)scale(0.1 -0.1)">
       <use xlink:href="#DejaVuSans-50"/>
       <use x="63.623047" xlink:href="#DejaVuSans-53"/>
      </g>
     </g>
    </g>
    <g id="xtick_2">
     <g id="line2d_2">
      <g>
       <use style="stroke:#000000;stroke-width:0.8;" x="131.800511" xlink:href="#mbe34059c18" y="252"/>
      </g>
     </g>
     <g id="text_2">
      <!-- 30 -->
      <defs>
       <path d="M 40.578125 39.3125 
Q 47.65625 37.796875 51.625 33 
Q 55.609375 28.21875 55.609375 21.1875 
Q 55.609375 10.40625 48.1875 4.484375 
Q 40.765625 -1.421875 27.09375 -1.421875 
Q 22.515625 -1.421875 17.65625 -0.515625 
Q 12.796875 0.390625 7.625 2.203125 
L 7.625 11.71875 
Q 11.71875 9.328125 16.59375 8.109375 
Q 21.484375 6.890625 26.8125 6.890625 
Q 36.078125 6.890625 40.9375 10.546875 
Q 45.796875 14.203125 45.796875 21.1875 
Q 45.796875 27.640625 41.28125 31.265625 
Q 36.765625 34.90625 28.71875 34.90625 
L 20.21875 34.90625 
L 20.21875 43.015625 
L 29.109375 43.015625 
Q 36.375 43.015625 40.234375 45.921875 
Q 44.09375 48.828125 44.09375 54.296875 
Q 44.09375 59.90625 40.109375 62.90625 
Q 36.140625 65.921875 28.71875 65.921875 
Q 24.65625 65.921875 20.015625 65.03125 
Q 15.375 64.15625 9.8125 62.3125 
L 9.8125 71.09375 
Q 15.4375 72.65625 20.34375 73.4375 
Q 25.25 74.21875 29.59375 74.21875 
Q 40.828125 74.21875 47.359375 69.109375 
Q 53.90625 64.015625 53.90625 55.328125 
Q 53.90625 49.265625 50.4375 45.09375 
Q 46.96875 40.921875 40.578125 39.3125 
z
" id="DejaVuSans-51"/>
       <path d="M 31.78125 66.40625 
Q 24.171875 66.40625 20.328125 58.90625 
Q 16.5 51.421875 16.5 36.375 
Q 16.5 21.390625 20.328125 13.890625 
Q 24.171875 6.390625 31.78125 6.390625 
Q 39.453125 6.390625 43.28125 13.890625 
Q 47.125 21.390625 47.125 36.375 
Q 47.125 51.421875 43.28125 58.90625 
Q 39.453125 66.40625 31.78125 66.40625 
z
M 31.78125 74.21875 
Q 44.046875 74.21875 50.515625 64.515625 
Q 56.984375 54.828125 56.984375 36.375 
Q 56.984375 17.96875 50.515625 8.265625 
Q 44.046875 -1.421875 31.78125 -1.421875 
Q 19.53125 -1.421875 13.0625 8.265625 
Q 6.59375 17.96875 6.59375 36.375 
Q 6.59375 54.828125 13.0625 64.515625 
Q 19.53125 74.21875 31.78125 74.21875 
z
" id="DejaVuSans-48"/>
      </defs>
      <g transform="translate(125.438011 266.598437)scale(0.1 -0.1)">
       <use xlink:href="#DejaVuSans-51"/>
       <use x="63.623047" xlink:href="#DejaVuSans-48"/>
      </g>
     </g>
    </g>
    <g id="xtick_3">
     <g id="line2d_3">
      <g>
       <use style="stroke:#000000;stroke-width:0.8;" x="188.294836" xlink:href="#mbe34059c18" y="252"/>
      </g>
     </g>
     <g id="text_3">
      <!-- 35 -->
      <g transform="translate(181.932336 266.598437)scale(0.1 -0.1)">
       <use xlink:href="#DejaVuSans-51"/>
       <use x="63.623047" xlink:href="#DejaVuSans-53"/>
      </g>
     </g>
    </g>
    <g id="xtick_4">
     <g id="line2d_4">
      <g>
       <use style="stroke:#000000;stroke-width:0.8;" x="244.789162" xlink:href="#mbe34059c18" y="252"/>
      </g>
     </g>
     <g id="text_4">
      <!-- 40 -->
      <defs>
       <path d="M 37.796875 64.3125 
L 12.890625 25.390625 
L 37.796875 25.390625 
z
M 35.203125 72.90625 
L 47.609375 72.90625 
L 47.609375 25.390625 
L 58.015625 25.390625 
L 58.015625 17.1875 
L 47.609375 17.1875 
L 47.609375 0 
L 37.796875 0 
L 37.796875 17.1875 
L 4.890625 17.1875 
L 4.890625 26.703125 
z
" id="DejaVuSans-52"/>
      </defs>
      <g transform="translate(238.426662 266.598437)scale(0.1 -0.1)">
       <use xlink:href="#DejaVuSans-52"/>
       <use x="63.623047" xlink:href="#DejaVuSans-48"/>
      </g>
     </g>
    </g>
    <g id="text_5">
     <!-- Inclination -->
     <defs>
      <path d="M 9.8125 72.90625 
L 19.671875 72.90625 
L 19.671875 0 
L 9.8125 0 
z
" id="DejaVuSans-73"/>
      <path d="M 54.890625 33.015625 
L 54.890625 0 
L 45.90625 0 
L 45.90625 32.71875 
Q 45.90625 40.484375 42.875 44.328125 
Q 39.84375 48.1875 33.796875 48.1875 
Q 26.515625 48.1875 22.3125 43.546875 
Q 18.109375 38.921875 18.109375 30.90625 
L 18.109375 0 
L 9.078125 0 
L 9.078125 54.6875 
L 18.109375 54.6875 
L 18.109375 46.1875 
Q 21.34375 51.125 25.703125 53.5625 
Q 30.078125 56 35.796875 56 
Q 45.21875 56 50.046875 50.171875 
Q 54.890625 44.34375 54.890625 33.015625 
z
" id="DejaVuSans-110"/>
      <path d="M 48.78125 52.59375 
L 48.78125 44.1875 
Q 44.96875 46.296875 41.140625 47.34375 
Q 37.3125 48.390625 33.40625 48.390625 
Q 24.65625 48.390625 19.8125 42.84375 
Q 14.984375 37.3125 14.984375 27.296875 
Q 14.984375 17.28125 19.8125 11.734375 
Q 24.65625 6.203125 33.40625 6.203125 
Q 37.3125 6.203125 41.140625 7.25 
Q 44.96875 8.296875 48.78125 10.40625 
L 48.78125 2.09375 
Q 45.015625 0.34375 40.984375 -0.53125 
Q 36.96875 -1.421875 32.421875 -1.421875 
Q 20.0625 -1.421875 12.78125 6.34375 
Q 5.515625 14.109375 5.515625 27.296875 
Q 5.515625 40.671875 12.859375 48.328125 
Q 20.21875 56 33.015625 56 
Q 37.15625 56 41.109375 55.140625 
Q 45.0625 54.296875 48.78125 52.59375 
z
" id="DejaVuSans-99"/>
      <path d="M 9.421875 75.984375 
L 18.40625 75.984375 
L 18.40625 0 
L 9.421875 0 
z
" id="DejaVuSans-108"/>
      <path d="M 9.421875 54.6875 
L 18.40625 54.6875 
L 18.40625 0 
L 9.421875 0 
z
M 9.421875 75.984375 
L 18.40625 75.984375 
L 18.40625 64.59375 
L 9.421875 64.59375 
z
" id="DejaVuSans-105"/>
      <path d="M 34.28125 27.484375 
Q 23.390625 27.484375 19.1875 25 
Q 14.984375 22.515625 14.984375 16.5 
Q 14.984375 11.71875 18.140625 8.90625 
Q 21.296875 6.109375 26.703125 6.109375 
Q 34.1875 6.109375 38.703125 11.40625 
Q 43.21875 16.703125 43.21875 25.484375 
L 43.21875 27.484375 
z
M 52.203125 31.203125 
L 52.203125 0 
L 43.21875 0 
L 43.21875 8.296875 
Q 40.140625 3.328125 35.546875 0.953125 
Q 30.953125 -1.421875 24.3125 -1.421875 
Q 15.921875 -1.421875 10.953125 3.296875 
Q 6 8.015625 6 15.921875 
Q 6 25.140625 12.171875 29.828125 
Q 18.359375 34.515625 30.609375 34.515625 
L 43.21875 34.515625 
L 43.21875 35.40625 
Q 43.21875 41.609375 39.140625 45 
Q 35.0625 48.390625 27.6875 48.390625 
Q 23 48.390625 18.546875 47.265625 
Q 14.109375 46.140625 10.015625 43.890625 
L 10.015625 52.203125 
Q 14.9375 54.109375 19.578125 55.046875 
Q 24.21875 56 28.609375 56 
Q 40.484375 56 46.34375 49.84375 
Q 52.203125 43.703125 52.203125 31.203125 
z
" id="DejaVuSans-97"/>
      <path d="M 18.3125 70.21875 
L 18.3125 54.6875 
L 36.8125 54.6875 
L 36.8125 47.703125 
L 18.3125 47.703125 
L 18.3125 18.015625 
Q 18.3125 11.328125 20.140625 9.421875 
Q 21.96875 7.515625 27.59375 7.515625 
L 36.8125 7.515625 
L 36.8125 0 
L 27.59375 0 
Q 17.1875 0 13.234375 3.875 
Q 9.28125 7.765625 9.28125 18.015625 
L 9.28125 47.703125 
L 2.6875 47.703125 
L 2.6875 54.6875 
L 9.28125 54.6875 
L 9.28125 70.21875 
z
" id="DejaVuSans-116"/>
      <path d="M 30.609375 48.390625 
Q 23.390625 48.390625 19.1875 42.75 
Q 14.984375 37.109375 14.984375 27.296875 
Q 14.984375 17.484375 19.15625 11.84375 
Q 23.34375 6.203125 30.609375 6.203125 
Q 37.796875 6.203125 41.984375 11.859375 
Q 46.1875 17.53125 46.1875 27.296875 
Q 46.1875 37.015625 41.984375 42.703125 
Q 37.796875 48.390625 30.609375 48.390625 
z
M 30.609375 56 
Q 42.328125 56 49.015625 48.375 
Q 55.71875 40.765625 55.71875 27.296875 
Q 55.71875 13.875 49.015625 6.21875 
Q 42.328125 -1.421875 30.609375 -1.421875 
Q 18.84375 -1.421875 12.171875 6.21875 
Q 5.515625 13.875 5.515625 27.296875 
Q 5.515625 40.765625 12.171875 48.375 
Q 18.84375 56 30.609375 56 
z
" id="DejaVuSans-111"/>
     </defs>
     <g transform="translate(121.61875 280.276563)scale(0.1 -0.1)">
      <use xlink:href="#DejaVuSans-73"/>
      <use x="29.492188" xlink:href="#DejaVuSans-110"/>
      <use x="92.871094" xlink:href="#DejaVuSans-99"/>
      <use x="147.851562" xlink:href="#DejaVuSans-108"/>
      <use x="175.634766" xlink:href="#DejaVuSans-105"/>
      <use x="203.417969" xlink:href="#DejaVuSans-110"/>
      <use x="266.796875" xlink:href="#DejaVuSans-97"/>
      <use x="328.076172" xlink:href="#DejaVuSans-116"/>
      <use x="367.285156" xlink:href="#DejaVuSans-105"/>
      <use x="395.068359" xlink:href="#DejaVuSans-111"/>
      <use x="456.25" xlink:href="#DejaVuSans-110"/>
     </g>
    </g>
   </g>
   <g id="matplotlib.axis_2">
    <g id="ytick_1">
     <g id="line2d_5">
      <defs>
       <path d="M 0 0 
L -3.5 0 
" id="m701221976a" style="stroke:#000000;stroke-width:0.8;"/>
      </defs>
      <g>
       <use style="stroke:#000000;stroke-width:0.8;" x="36" xlink:href="#m701221976a" y="244.54301"/>
      </g>
     </g>
     <g id="text_6">
      <!-- 1.2 -->
      <defs>
       <path d="M 12.40625 8.296875 
L 28.515625 8.296875 
L 28.515625 63.921875 
L 10.984375 60.40625 
L 10.984375 69.390625 
L 28.421875 72.90625 
L 38.28125 72.90625 
L 38.28125 8.296875 
L 54.390625 8.296875 
L 54.390625 0 
L 12.40625 0 
z
" id="DejaVuSans-49"/>
       <path d="M 10.6875 12.40625 
L 21 12.40625 
L 21 0 
L 10.6875 0 
z
" id="DejaVuSans-46"/>
      </defs>
      <g transform="translate(13.096875 248.342229)scale(0.1 -0.1)">
       <use xlink:href="#DejaVuSans-49"/>
       <use x="63.623047" xlink:href="#DejaVuSans-46"/>
       <use x="95.410156" xlink:href="#DejaVuSans-50"/>
      </g>
     </g>
    </g>
    <g id="ytick_2">
     <g id="line2d_6">
      <g>
       <use style="stroke:#000000;stroke-width:0.8;" x="36" xlink:href="#m701221976a" y="210.313288"/>
      </g>
     </g>
     <g id="text_7">
      <!-- 1.4 -->
      <g transform="translate(13.096875 214.112507)scale(0.1 -0.1)">
       <use xlink:href="#DejaVuSans-49"/>
       <use x="63.623047" xlink:href="#DejaVuSans-46"/>
       <use x="95.410156" xlink:href="#DejaVuSans-52"/>
      </g>
     </g>
    </g>
    <g id="ytick_3">
     <g id="line2d_7">
      <g>
       <use style="stroke:#000000;stroke-width:0.8;" x="36" xlink:href="#m701221976a" y="176.083566"/>
      </g>
     </g>
     <g id="text_8">
      <!-- 1.6 -->
      <defs>
       <path d="M 33.015625 40.375 
Q 26.375 40.375 22.484375 35.828125 
Q 18.609375 31.296875 18.609375 23.390625 
Q 18.609375 15.53125 22.484375 10.953125 
Q 26.375 6.390625 33.015625 6.390625 
Q 39.65625 6.390625 43.53125 10.953125 
Q 47.40625 15.53125 47.40625 23.390625 
Q 47.40625 31.296875 43.53125 35.828125 
Q 39.65625 40.375 33.015625 40.375 
z
M 52.59375 71.296875 
L 52.59375 62.3125 
Q 48.875 64.0625 45.09375 64.984375 
Q 41.3125 65.921875 37.59375 65.921875 
Q 27.828125 65.921875 22.671875 59.328125 
Q 17.53125 52.734375 16.796875 39.40625 
Q 19.671875 43.65625 24.015625 45.921875 
Q 28.375 48.1875 33.59375 48.1875 
Q 44.578125 48.1875 50.953125 41.515625 
Q 57.328125 34.859375 57.328125 23.390625 
Q 57.328125 12.15625 50.6875 5.359375 
Q 44.046875 -1.421875 33.015625 -1.421875 
Q 20.359375 -1.421875 13.671875 8.265625 
Q 6.984375 17.96875 6.984375 36.375 
Q 6.984375 53.65625 15.1875 63.9375 
Q 23.390625 74.21875 37.203125 74.21875 
Q 40.921875 74.21875 44.703125 73.484375 
Q 48.484375 72.75 52.59375 71.296875 
z
" id="DejaVuSans-54"/>
      </defs>
      <g transform="translate(13.096875 179.882785)scale(0.1 -0.1)">
       <use xlink:href="#DejaVuSans-49"/>
       <use x="63.623047" xlink:href="#DejaVuSans-46"/>
       <use x="95.410156" xlink:href="#DejaVuSans-54"/>
      </g>
     </g>
    </g>
    <g id="ytick_4">
     <g id="line2d_8">
      <g>
       <use style="stroke:#000000;stroke-width:0.8;" x="36" xlink:href="#m701221976a" y="141.853844"/>
      </g>
     </g>
     <g id="text_9">
      <!-- 1.8 -->
      <defs>
       <path d="M 31.78125 34.625 
Q 24.75 34.625 20.71875 30.859375 
Q 16.703125 27.09375 16.703125 20.515625 
Q 16.703125 13.921875 20.71875 10.15625 
Q 24.75 6.390625 31.78125 6.390625 
Q 38.8125 6.390625 42.859375 10.171875 
Q 46.921875 13.96875 46.921875 20.515625 
Q 46.921875 27.09375 42.890625 30.859375 
Q 38.875 34.625 31.78125 34.625 
z
M 21.921875 38.8125 
Q 15.578125 40.375 12.03125 44.71875 
Q 8.5 49.078125 8.5 55.328125 
Q 8.5 64.0625 14.71875 69.140625 
Q 20.953125 74.21875 31.78125 74.21875 
Q 42.671875 74.21875 48.875 69.140625 
Q 55.078125 64.0625 55.078125 55.328125 
Q 55.078125 49.078125 51.53125 44.71875 
Q 48 40.375 41.703125 38.8125 
Q 48.828125 37.15625 52.796875 32.3125 
Q 56.78125 27.484375 56.78125 20.515625 
Q 56.78125 9.90625 50.3125 4.234375 
Q 43.84375 -1.421875 31.78125 -1.421875 
Q 19.734375 -1.421875 13.25 4.234375 
Q 6.78125 9.90625 6.78125 20.515625 
Q 6.78125 27.484375 10.78125 32.3125 
Q 14.796875 37.15625 21.921875 38.8125 
z
M 18.3125 54.390625 
Q 18.3125 48.734375 21.84375 45.5625 
Q 25.390625 42.390625 31.78125 42.390625 
Q 38.140625 42.390625 41.71875 45.5625 
Q 45.3125 48.734375 45.3125 54.390625 
Q 45.3125 60.0625 41.71875 63.234375 
Q 38.140625 66.40625 31.78125 66.40625 
Q 25.390625 66.40625 21.84375 63.234375 
Q 18.3125 60.0625 18.3125 54.390625 
z
" id="DejaVuSans-56"/>
      </defs>
      <g transform="translate(13.096875 145.653063)scale(0.1 -0.1)">
       <use xlink:href="#DejaVuSans-49"/>
       <use x="63.623047" xlink:href="#DejaVuSans-46"/>
       <use x="95.410156" xlink:href="#DejaVuSans-56"/>
      </g>
     </g>
    </g>
    <g id="ytick_5">
     <g id="line2d_9">
      <g>
       <use style="stroke:#000000;stroke-width:0.8;" x="36" xlink:href="#m701221976a" y="107.624122"/>
      </g>
     </g>
     <g id="text_10">
      <!-- 2.0 -->
      <g transform="translate(13.096875 111.423341)scale(0.1 -0.1)">
       <use xlink:href="#DejaVuSans-50"/>
       <use x="63.623047" xlink:href="#DejaVuSans-46"/>
       <use x="95.410156" xlink:href="#DejaVuSans-48"/>
      </g>
     </g>
    </g>
    <g id="ytick_6">
     <g id="line2d_10">
      <g>
       <use style="stroke:#000000;stroke-width:0.8;" x="36" xlink:href="#m701221976a" y="73.3944"/>
      </g>
     </g>
     <g id="text_11">
      <!-- 2.2 -->
      <g transform="translate(13.096875 77.193619)scale(0.1 -0.1)">
       <use xlink:href="#DejaVuSans-50"/>
       <use x="63.623047" xlink:href="#DejaVuSans-46"/>
       <use x="95.410156" xlink:href="#DejaVuSans-50"/>
      </g>
     </g>
    </g>
    <g id="ytick_7">
     <g id="line2d_11">
      <g>
       <use style="stroke:#000000;stroke-width:0.8;" x="36" xlink:href="#m701221976a" y="39.164678"/>
      </g>
     </g>
     <g id="text_12">
      <!-- 2.4 -->
      <g transform="translate(13.096875 42.963897)scale(0.1 -0.1)">
       <use xlink:href="#DejaVuSans-50"/>
       <use x="63.623047" xlink:href="#DejaVuSans-46"/>
       <use x="95.410156" xlink:href="#DejaVuSans-52"/>
      </g>
     </g>
    </g>
    <g id="text_13">
     <!-- Elongation -->
     <defs>
      <path d="M 9.8125 72.90625 
L 55.90625 72.90625 
L 55.90625 64.59375 
L 19.671875 64.59375 
L 19.671875 43.015625 
L 54.390625 43.015625 
L 54.390625 34.71875 
L 19.671875 34.71875 
L 19.671875 8.296875 
L 56.78125 8.296875 
L 56.78125 0 
L 9.8125 0 
z
" id="DejaVuSans-69"/>
      <path d="M 45.40625 27.984375 
Q 45.40625 37.75 41.375 43.109375 
Q 37.359375 48.484375 30.078125 48.484375 
Q 22.859375 48.484375 18.828125 43.109375 
Q 14.796875 37.75 14.796875 27.984375 
Q 14.796875 18.265625 18.828125 12.890625 
Q 22.859375 7.515625 30.078125 7.515625 
Q 37.359375 7.515625 41.375 12.890625 
Q 45.40625 18.265625 45.40625 27.984375 
z
M 54.390625 6.78125 
Q 54.390625 -7.171875 48.1875 -13.984375 
Q 42 -20.796875 29.203125 -20.796875 
Q 24.46875 -20.796875 20.265625 -20.09375 
Q 16.0625 -19.390625 12.109375 -17.921875 
L 12.109375 -9.1875 
Q 16.0625 -11.328125 19.921875 -12.34375 
Q 23.78125 -13.375 27.78125 -13.375 
Q 36.625 -13.375 41.015625 -8.765625 
Q 45.40625 -4.15625 45.40625 5.171875 
L 45.40625 9.625 
Q 42.625 4.78125 38.28125 2.390625 
Q 33.9375 0 27.875 0 
Q 17.828125 0 11.671875 7.65625 
Q 5.515625 15.328125 5.515625 27.984375 
Q 5.515625 40.671875 11.671875 48.328125 
Q 17.828125 56 27.875 56 
Q 33.9375 56 38.28125 53.609375 
Q 42.625 51.21875 45.40625 46.390625 
L 45.40625 54.6875 
L 54.390625 54.6875 
z
" id="DejaVuSans-103"/>
     </defs>
     <g transform="translate(7.017187 169.872187)rotate(-90)scale(0.1 -0.1)">
      <use xlink:href="#DejaVuSans-69"/>
      <use x="63.183594" xlink:href="#DejaVuSans-108"/>
      <use x="90.966797" xlink:href="#DejaVuSans-111"/>
      <use x="152.148438" xlink:href="#DejaVuSans-110"/>
      <use x="215.527344" xlink:href="#DejaVuSans-103"/>
      <use x="279.003906" xlink:href="#DejaVuSans-97"/>
      <use x="340.283203" xlink:href="#DejaVuSans-116"/>
      <use x="379.492188" xlink:href="#DejaVuSans-105"/>
      <use x="407.275391" xlink:href="#DejaVuSans-111"/>
      <use x="468.457031" xlink:href="#DejaVuSans-110"/>
     </g>
    </g>
   </g>
   <g id="line2d_12">
    <path clip-path="url(#pb77508cbf8)" d="M 66.573226 215.977228 
L 68.910086 213.383559 
L 71.284646 210.637363 
L 73.697771 207.742117 
L 76.150347 204.700698 
L 78.64329 201.515398 
L 81.177538 198.187935 
L 83.754059 194.719478 
L 86.373849 191.110677 
L 89.037933 187.36169 
L 91.747365 183.472204 
L 94.503231 179.441469 
L 97.306649 175.268316 
L 100.15877 170.951177 
L 103.06078 166.488108 
L 106.013899 161.876798 
L 109.019385 157.114586 
L 112.078532 152.198472 
L 115.192675 147.12512 
L 118.363188 141.89087 
L 121.591487 136.491734 
L 124.87903 130.923405 
L 128.227322 125.181252 
L 131.637911 119.260316 
L 135.112393 113.155313 
L 138.652414 106.860621 
L 142.259668 100.37028 
L 145.935902 93.677975 
L 149.682917 86.777035 
L 153.502568 79.660415 
L 153.502568 79.660415 
L 155.440228 76.018919 
" style="fill:none;stroke:#ff0000;stroke-linecap:square;stroke-width:1.5;"/>
   </g>
   <g id="line2d_13">
    <path clip-path="url(#pb77508cbf8)" d="M 70.595127 158.836903 
L 72.942809 154.078157 
L 75.327813 149.195898 
L 77.750979 144.186714 
L 80.213171 139.047011 
L 82.715277 133.773014 
L 85.25821 128.36076 
L 87.842909 122.806096 
L 90.47034 117.104675 
L 93.141497 111.251947 
L 95.857404 105.243153 
L 98.619111 99.073321 
L 101.427702 92.737253 
L 104.284292 86.229522 
L 107.190027 79.544457 
L 110.146087 72.676139 
L 113.153689 65.618384 
L 113.153689 65.618384 
L 114.677208 62.016462 
" style="fill:none;stroke:#bfbf00;stroke-linecap:square;stroke-width:1.5;"/>
   </g>
   <g id="line2d_14">
    <path clip-path="url(#pb77508cbf8)" d="M 75.085487 211.657868 
L 77.496964 210.559343 
L 79.947129 209.260903 
L 82.436855 207.763937 
L 84.967037 206.070325 
L 87.538598 204.182293 
L 90.152486 202.102277 
L 92.809673 199.832791 
L 95.511163 197.376313 
L 98.257984 194.735184 
L 101.051196 191.911521 
L 103.891887 188.907149 
L 106.781179 185.72355 
L 109.720222 182.36182 
L 112.710202 178.822645 
L 115.752338 175.106276 
L 118.847884 171.21252 
L 121.998129 167.140735 
L 125.2044 162.889825 
L 128.468062 158.458242 
L 131.79052 153.843988 
L 135.173219 149.044615 
L 138.617645 144.057231 
L 142.125327 138.878503 
L 145.697838 133.504655 
L 149.336798 127.931468 
L 153.043871 122.154284 
L 156.82077 116.167999 
L 160.669256 109.967057 
L 164.591142 103.545449 
L 168.588291 96.8967 
L 172.662619 90.013862 
L 172.662619 90.013862 
L 174.729339 86.482356 
" style="fill:none;stroke:#bfbf00;stroke-linecap:square;stroke-width:1.5;"/>
   </g>
   <g id="line2d_15">
    <path clip-path="url(#pb77508cbf8)" d="M 72.233542 147.373068 
L 74.599206 146.368092 
L 77.002774 145.208983 
L 79.445108 143.893293 
L 81.927095 142.418623 
L 84.449648 140.782607 
L 87.013704 138.982899 
L 89.620228 137.017157 
L 92.270215 134.883027 
L 94.964684 132.578119 
L 97.704689 130.099994 
L 100.491309 127.446135 
L 103.325659 124.613932 
L 106.208885 121.600657 
L 109.142166 118.403441 
L 112.126715 115.019255 
L 115.163784 111.444883 
L 118.254658 107.676902 
L 121.400662 103.711662 
L 124.60316 99.54526 
L 127.863557 95.173518 
L 131.183299 90.591964 
L 134.563873 85.79581 
L 138.006815 80.779923 
L 141.513702 75.538813 
L 141.513702 75.538813 
L 143.291632 72.831977 
" style="fill:none;stroke:#bfbf00;stroke-linecap:square;stroke-width:1.5;"/>
   </g>
   <g id="line2d_16">
    <path clip-path="url(#pb77508cbf8)" d="M 75.012312 156.826049 
L 77.385156 152.91054 
L 79.795522 148.861676 
L 82.244246 144.677564 
L 84.732192 140.35608 
L 87.260246 135.894871 
L 89.829319 131.291349 
L 92.440348 126.542694 
L 95.094296 121.645848 
L 97.792155 116.59752 
L 100.534943 111.394173 
L 103.323708 106.032028 
L 106.159529 100.507055 
L 109.043515 94.81497 
L 111.976807 88.951227 
L 114.960579 82.911014 
L 117.996041 76.689242 
L 121.084435 70.280538 
L 121.084435 70.280538 
L 122.64888 67.004328 
L 124.227041 63.679237 
" style="fill:none;stroke:#bfbf00;stroke-linecap:square;stroke-width:1.5;"/>
   </g>
   <g id="line2d_17">
    <path clip-path="url(#pb77508cbf8)" d="M 54.480061 228.758135 
L 56.762491 225.852776 
L 59.082642 222.793784 
L 61.441398 219.586647 
L 63.839671 216.235587 
L 66.2784 212.743712 
L 68.758551 209.113149 
L 71.281118 205.345164 
L 73.847128 201.440266 
L 76.457634 197.398296 
L 79.113726 193.218497 
L 81.816524 188.899577 
L 84.567181 184.439759 
L 87.366889 179.83682 
L 90.216873 175.088126 
L 93.118398 170.190656 
L 96.072766 165.141025 
L 99.081322 159.935495 
L 102.14545 154.569988 
L 105.266579 149.040094 
L 108.446181 143.341075 
L 111.685777 137.467867 
L 114.986933 131.415077 
L 118.351265 125.17698 
L 121.780441 118.747518 
L 125.27618 112.120287 
L 128.840257 105.288532 
L 132.474504 98.245138 
L 136.180808 90.982613 
L 139.96112 83.49308 
L 143.817449 75.768261 
L 143.817449 75.768261 
L 145.774767 71.814918 
" style="fill:none;stroke:#bfbf00;stroke-linecap:square;stroke-width:1.5;"/>
   </g>
   <g id="line2d_18">
    <path clip-path="url(#pb77508cbf8)" d="M 81.807887 122.821204 
L 84.252629 123.273262 
L 86.736099 123.586775 
L 89.259159 123.758515 
L 91.822694 123.785279 
L 94.427611 123.66389 
L 97.074847 123.39121 
L 99.765359 122.964141 
L 102.500136 122.37963 
L 105.28019 121.63467 
L 108.106566 120.726299 
L 110.980333 119.651601 
L 113.902595 118.407698 
L 116.874484 116.99175 
L 119.897165 115.400941 
L 122.971836 113.632475 
L 126.099728 111.683558 
L 129.282107 109.551395 
L 132.520278 107.233164 
L 135.815579 104.726011 
L 139.169389 102.027026 
L 142.583124 99.133228 
L 146.058242 96.041548 
L 149.596244 92.748807 
L 153.19867 89.251702 
L 156.867107 85.54678 
L 160.603187 81.630426 
L 160.603187 81.630426 
L 162.497116 79.591781 
" style="fill:none;stroke:#bfbf00;stroke-linecap:square;stroke-width:1.5;"/>
   </g>
   <g id="line2d_19">
    <path clip-path="url(#pb77508cbf8)" d="M 55.50476 130.661494 
L 57.775437 127.526334 
L 60.083247 124.228666 
L 62.429055 120.766358 
L 64.813747 117.137118 
L 67.238238 113.338482 
L 69.703468 109.367797 
L 72.210407 105.22221 
L 74.760052 100.898652 
L 77.353429 96.39383 
L 79.991597 91.704207 
L 82.675646 86.825996 
L 85.406699 81.755144 
L 88.185911 76.487322 
L 91.014476 71.017909 
L 93.893621 65.341983 
L 96.824612 59.454306 
L 96.824612 59.454306 
L 98.309957 56.429333 
L 99.808755 53.349308 
" style="fill:none;stroke:#bfbf00;stroke-linecap:square;stroke-width:1.5;"/>
   </g>
   <g id="line2d_20">
    <path clip-path="url(#pb77508cbf8)" d="M 80.246589 97.303326 
L 82.654034 94.401226 
L 85.09945 91.360745 
L 87.583683 88.179684 
L 90.107604 84.855739 
L 92.672107 81.386494 
L 95.278112 77.769415 
L 97.926565 74.001832 
L 100.618437 70.080942 
L 103.35473 66.003792 
L 106.136469 61.767269 
L 106.136469 61.767269 
L 107.544711 59.588227 
L 108.964713 57.3681 
" style="fill:none;stroke:#bfbf00;stroke-linecap:square;stroke-width:1.5;"/>
   </g>
   <g id="line2d_21">
    <path clip-path="url(#pb77508cbf8)" d="M 72.737039 172.718167 
L 75.095615 170.117138 
L 77.491846 167.384254 
L 79.926588 164.519112 
L 82.400719 161.52116 
L 84.915146 158.389683 
L 87.470798 155.123795 
L 90.068635 151.722431 
L 92.709641 148.184334 
L 95.39483 144.508049 
L 98.125245 140.691921 
L 100.90196 136.734082 
L 103.72608 132.63245 
L 106.598744 128.384724 
L 109.521121 123.988375 
L 112.494417 119.440645 
L 115.519873 114.738539 
L 118.598767 109.87882 
L 121.732415 104.858002 
L 124.922172 99.672349 
L 128.169433 94.31786 
L 131.475636 88.790268 
L 134.842259 83.085028 
L 138.270827 77.197314 
L 138.270827 77.197314 
L 140.008829 74.183441 
L 141.76291 71.122004 
" style="fill:none;stroke:#bfbf00;stroke-linecap:square;stroke-width:1.5;"/>
   </g>
   <g id="line2d_22">
    <path clip-path="url(#pb77508cbf8)" d="M 77.269143 235.289526 
L 79.679837 231.814337 
L 82.128849 228.256555 
L 84.617035 224.613983 
L 87.145275 220.884289 
L 89.714474 217.065016 
L 92.325562 213.153584 
L 94.979493 209.147293 
L 97.677251 205.043325 
L 100.419845 200.838744 
L 103.208314 196.53049 
L 106.043726 192.115379 
L 108.927178 187.590102 
L 111.859801 182.951215 
L 114.842756 178.195143 
L 117.877237 173.318166 
L 120.964473 168.31642 
L 124.105729 163.18589 
L 127.302305 157.922404 
L 130.555538 152.521624 
L 133.866805 146.979045 
L 137.237522 141.289982 
L 140.669146 135.449565 
L 144.163176 129.452734 
L 147.721155 123.294225 
L 151.344669 116.968567 
L 155.03535 110.470068 
L 158.79488 103.792812 
L 162.624986 96.930642 
L 166.527447 89.877155 
L 166.527447 89.877155 
L 168.50638 86.276596 
L 170.504092 82.625689 
" style="fill:none;stroke:#bfbf00;stroke-linecap:square;stroke-width:1.5;"/>
   </g>
   <g id="line2d_23">
    <path clip-path="url(#pb77508cbf8)" d="M 61.226163 213.323072 
L 63.535581 210.449779 
L 65.882661 207.430156 
L 68.268277 204.266734 
L 70.693328 200.961424 
L 73.158741 197.515542 
L 75.665468 193.929845 
L 78.214492 190.204561 
L 80.806822 186.339422 
L 83.443499 182.333692 
L 86.125594 178.186194 
L 88.854213 173.895333 
L 91.63049 169.459116 
L 94.455599 164.875166 
L 97.330746 160.14074 
L 100.257175 155.252737 
L 103.236167 150.207705 
L 106.269043 145.001847 
L 109.357166 139.631026 
L 112.501939 134.09076 
L 115.704809 128.376226 
L 118.967267 122.482251 
L 122.290852 116.403311 
L 125.677151 110.133517 
L 129.127798 103.666613 
L 132.644482 96.995956 
L 136.22894 90.11451 
L 139.882968 83.014825 
L 143.608415 75.689022 
L 143.608415 75.689022 
L 145.498515 71.938743 
" style="fill:none;stroke:#bfbf00;stroke-linecap:square;stroke-width:1.5;"/>
   </g>
   <g id="line2d_24">
    <path clip-path="url(#pb77508cbf8)" d="M 71.633739 242.116364 
L 74.001485 239.743222 
L 76.407204 237.221504 
L 78.851759 234.561092 
L 81.336039 231.769934 
L 83.86096 228.854308 
L 86.427462 225.819073 
L 89.036512 222.667886 
L 91.689108 219.403391 
L 94.386273 216.027375 
L 97.129062 212.540897 
L 99.918561 208.944393 
L 102.755888 205.237762 
L 105.642192 201.420435 
L 108.578659 197.491433 
L 111.566508 193.449409 
L 114.606995 189.292683 
L 117.701414 185.019277 
L 120.851096 180.626929 
L 124.057413 176.113117 
L 127.321778 171.475068 
L 130.645648 166.70977 
L 134.030522 161.813979 
L 137.477945 156.784224 
L 140.989508 151.616806 
L 144.566852 146.307803 
L 148.211665 140.853067 
L 151.92569 135.24822 
L 155.71072 129.488654 
L 159.568602 123.569521 
L 163.501241 117.485732 
L 167.5106 111.231947 
L 171.598698 104.802566 
L 175.767619 98.191723 
L 180.019508 91.393276 
L 180.019508 91.393276 
L 182.177253 87.921702 
" style="fill:none;stroke:#bfbf00;stroke-linecap:square;stroke-width:1.5;"/>
   </g>
   <g id="line2d_25">
    <path clip-path="url(#pb77508cbf8)" d="M 50.279889 129.296178 
L 52.481341 124.519753 
L 54.71874 119.625251 
L 56.992933 114.609718 
L 59.304791 109.470061 
L 61.655213 104.203037 
L 64.045125 98.805259 
L 66.47548 93.273183 
L 68.947263 87.603111 
L 71.461486 81.791184 
L 74.019197 75.833376 
L 76.621473 69.725492 
L 79.269425 63.463158 
L 81.964202 57.041819 
L 84.706987 50.45673 
L 84.706987 50.45673 
L 86.096762 47.101244 
" style="fill:none;stroke:#bfbf00;stroke-linecap:square;stroke-width:1.5;"/>
   </g>
   <g id="line2d_26">
    <path clip-path="url(#pb77508cbf8)" d="M 85.049544 213.950481 
L 87.49318 211.506686 
L 89.975091 208.915043 
L 92.496117 206.178763 
L 95.057127 203.300588 
L 97.659007 200.282786 
L 100.302672 197.127149 
L 102.98906 193.835011 
L 105.719135 190.407255 
L 108.493889 186.844335 
L 111.314338 183.146293 
L 114.181531 179.31278 
L 117.096542 175.343071 
L 120.060477 171.236085 
L 123.074473 166.990399 
L 126.139697 162.604262 
L 129.25735 158.075606 
L 132.428667 153.402059 
L 135.654918 148.580953 
L 138.937406 143.609325 
L 142.277473 138.483932 
L 145.676499 133.201245 
L 149.135903 127.757457 
L 152.657141 122.148481 
L 156.241713 116.369951 
L 159.89116 110.417218 
L 163.607067 104.285347 
L 167.391062 97.969116 
L 171.244821 91.463006 
L 171.244821 91.463006 
L 173.198397 88.13694 
L 175.170064 84.761198 
" style="fill:none;stroke:#bfbf00;stroke-linecap:square;stroke-width:1.5;"/>
   </g>
   <g id="line2d_27">
    <path clip-path="url(#pb77508cbf8)" d="M 73.716231 209.190372 
L 76.104508 205.733992 
L 78.530985 202.157512 
L 80.996524 198.461006 
L 83.50201 194.644076 
L 86.048354 190.705901 
L 88.636492 186.645272 
L 91.267386 182.460624 
L 93.942027 178.150058 
L 96.661432 173.711367 
L 99.426648 169.142049 
L 102.238753 164.43932 
L 105.098855 159.600128 
L 108.008092 154.621155 
L 110.967638 149.498824 
L 113.9787 144.229305 
L 117.042519 138.808511 
L 120.160371 133.2321 
L 123.333574 127.495472 
L 126.563478 121.593768 
L 129.851476 115.52186 
L 133.199002 109.274351 
L 136.607531 102.845562 
L 140.078581 96.229528 
L 143.613714 89.419989 
L 147.214539 82.410374 
L 147.214539 82.410374 
L 149.040102 78.8284 
L 150.882712 75.193798 
" style="fill:none;stroke:#bfbf00;stroke-linecap:square;stroke-width:1.5;"/>
   </g>
   <g id="line2d_28">
    <path clip-path="url(#pb77508cbf8)" d="M 46.145455 239.24883 
L 48.35925 235.644157 
L 50.609802 231.946292 
L 52.89798 228.152795 
L 55.22468 224.260999 
L 57.590828 220.268034 
L 59.997373 216.170842 
L 62.445296 211.966193 
L 64.935607 207.650683 
L 67.469347 203.220741 
L 70.047588 198.672624 
L 72.671437 194.00242 
L 75.342035 189.206039 
L 78.060556 184.27921 
L 80.828214 179.217479 
L 83.64626 174.016195 
L 86.515983 168.670508 
L 89.438715 163.17536 
L 92.41583 157.525475 
L 95.448744 151.715353 
L 98.53892 145.739255 
L 101.687867 139.591197 
L 104.897145 133.264937 
L 108.168362 126.753963 
L 111.503179 120.051485 
L 114.903311 113.150415 
L 118.370529 106.04336 
L 121.906663 98.722604 
L 125.513601 91.180097 
L 129.193294 83.407437 
L 132.947758 75.395852 
L 132.947758 75.395852 
L 134.853677 71.297619 
L 136.779074 67.136191 
" style="fill:none;stroke:#bfbf00;stroke-linecap:square;stroke-width:1.5;"/>
   </g>
   <g id="line2d_29">
    <path clip-path="url(#pb77508cbf8)" d="M 72.429383 235.101569 
L 74.800071 232.332616 
L 77.208696 229.41789 
L 79.656118 226.363867 
L 82.14322 223.175514 
L 84.670911 219.856505 
L 87.240127 216.409407 
L 89.851828 212.835841 
L 92.507005 209.136614 
L 95.206673 205.31183 
L 97.95188 201.360976 
L 100.743703 197.282998 
L 103.58325 193.076356 
L 106.471662 188.739076 
L 109.410111 184.268779 
L 112.399806 179.662716 
L 115.44199 174.917787 
L 118.537942 170.03056 
L 121.68898 164.997277 
L 124.896459 159.81387 
L 128.161776 154.475957 
L 131.486368 148.97885 
L 134.871713 143.317548 
L 138.319336 137.486739 
L 141.830805 131.480788 
L 145.407734 125.293735 
L 149.051786 118.91928 
L 152.764672 112.350775 
L 156.548155 105.581212 
L 160.404048 98.603203 
L 164.334218 91.408967 
L 164.334218 91.408967 
L 166.327755 87.728221 
L 168.340588 83.990313 
" style="fill:none;stroke:#bfbf00;stroke-linecap:square;stroke-width:1.5;"/>
   </g>
   <g id="line2d_30">
    <path clip-path="url(#pb77508cbf8)" d="M 66.080991 227.629296 
L 68.424126 227.047013 
L 70.805187 226.225727 
L 73.225044 225.166936 
L 75.684588 223.873704 
L 78.18474 222.350344 
L 80.726444 220.602061 
L 83.310672 218.634599 
L 85.938425 216.453921 
L 88.610733 214.065929 
L 91.328655 211.476237 
L 94.093282 208.690002 
L 96.905736 205.711798 
L 99.767173 202.545541 
L 102.678782 199.194443 
L 105.641788 195.660989 
L 108.657452 191.946941 
L 111.727073 188.053351 
L 114.851988 183.980577 
L 118.033574 179.728315 
L 121.27325 175.295619 
L 124.572476 170.680931 
L 127.932757 165.882107 
L 131.355644 160.896432 
L 134.842732 155.720649 
L 138.395666 150.350965 
L 142.016141 144.78307 
L 145.705902 139.012142 
L 149.466747 133.032853 
L 153.300527 126.839373 
L 157.20915 120.425368 
L 161.194581 113.783993 
L 165.258844 106.907891 
L 169.404023 99.789178 
L 173.632265 92.419431 
L 173.632265 92.419431 
L 175.778224 88.637638 
L 177.945782 84.789678 
" style="fill:none;stroke:#bfbf00;stroke-linecap:square;stroke-width:1.5;"/>
   </g>
   <g id="line2d_31">
    <path clip-path="url(#pb77508cbf8)" d="M 72.160773 230.210758 
L 74.540913 228.374022 
L 76.959272 226.345421 
L 79.41672 224.132774 
L 81.914147 221.743394 
L 84.452474 219.183925 
L 87.032642 216.460256 
L 89.655624 213.577474 
L 92.322418 210.539859 
L 95.034053 207.350901 
L 97.791585 204.013333 
L 100.596103 200.529176 
L 103.448727 196.899784 
L 106.350609 193.125888 
L 109.302935 189.207646 
L 112.306928 185.144676 
L 115.363843 180.936102 
L 118.474977 176.580579 
L 121.64166 172.076327 
L 124.865265 167.42115 
L 128.147205 162.612461 
L 131.488936 157.647294 
L 134.891955 152.522319 
L 138.357805 147.23385 
L 141.888077 141.777854 
L 145.484406 136.149955 
L 149.148478 130.34543 
L 152.882029 124.359217 
L 156.686849 118.185905 
L 160.564777 111.819732 
L 164.517712 105.254581 
L 168.547606 98.483966 
L 172.65647 91.501024 
L 172.65647 91.501024 
L 174.741161 87.92768 
L 176.846376 84.298505 
" style="fill:none;stroke:#bfbf00;stroke-linecap:square;stroke-width:1.5;"/>
   </g>
   <g id="line2d_32">
    <path clip-path="url(#pb77508cbf8)" d="M 57.351525 186.003157 
L 59.601273 181.659943 
L 61.887334 177.210883 
L 64.210548 172.652754 
L 66.571779 167.982196 
L 68.971918 163.195708 
L 71.411878 158.289641 
L 73.892606 153.260195 
L 76.41507 148.103412 
L 78.980274 142.81517 
L 81.589247 137.391174 
L 84.243052 131.826952 
L 86.942784 126.117846 
L 89.689571 120.259003 
L 92.484577 114.245364 
L 95.329 108.071661 
L 98.224078 101.732399 
L 101.171084 95.221854 
L 104.171335 88.534053 
L 107.226186 81.66277 
L 110.337036 74.60151 
L 113.505329 67.343494 
L 113.505329 67.343494 
L 115.11148 63.638506 
L 116.732554 59.881652 
" style="fill:none;stroke:#bfbf00;stroke-linecap:square;stroke-width:1.5;"/>
   </g>
   <g id="line2d_33">
    <path clip-path="url(#pb77508cbf8)" d="M 72.241526 205.633763 
L 74.609788 205.517199 
L 77.015957 205.232391 
L 79.460894 204.776978 
L 81.945484 204.149169 
L 84.470638 203.347727 
L 87.037292 202.371943 
L 89.64641 201.221592 
L 92.298982 199.896877 
L 94.99603 198.398359 
L 97.738602 196.726887 
L 100.527779 194.883516 
L 103.364673 192.869441 
L 106.250428 190.685913 
L 109.186223 188.33418 
L 112.173271 185.815423 
L 115.212821 183.130702 
L 118.306159 180.28091 
L 121.45461 177.266735 
L 124.659539 174.088627 
L 127.92235 170.746776 
L 131.24449 167.241088 
L 134.627451 163.571174 
L 138.072769 159.736338 
L 141.582025 155.735567 
L 145.156851 151.567528 
L 148.798924 147.230566 
L 152.509977 142.722698 
L 156.291792 138.041615 
L 160.146205 133.184682 
L 164.07511 128.148934 
L 168.080458 122.931078 
L 172.164256 117.527491 
L 176.328577 111.934222 
L 180.575552 106.146985 
L 184.907379 100.161162 
L 189.326323 93.971794 
L 189.326323 93.971794 
L 191.569189 90.799139 
" style="fill:none;stroke:#bfbf00;stroke-linecap:square;stroke-width:1.5;"/>
   </g>
   <g id="line2d_34">
    <path clip-path="url(#pb77508cbf8)" d="M 59.378627 197.859329 
L 61.667149 194.772452 
L 63.992945 191.553331 
L 66.356879 188.20254 
L 68.759841 184.720281 
L 71.202747 181.106395 
L 73.686542 177.360373 
L 76.212194 173.48137 
L 78.780705 169.468218 
L 81.393105 165.319436 
L 84.050452 161.033237 
L 86.753841 156.607543 
L 89.504395 152.039986 
L 92.303275 147.327918 
L 95.151675 142.468413 
L 98.050827 137.458271 
L 101.001998 132.29402 
L 104.006498 126.971917 
L 107.065673 121.487945 
L 110.180914 115.837814 
L 113.353654 110.016957 
L 116.585371 104.020526 
L 119.877587 97.843387 
L 123.231875 91.480112 
L 126.649856 84.924975 
L 130.133199 78.171941 
L 133.683631 71.21466 
L 133.683631 71.21466 
L 135.484558 67.657352 
" style="fill:none;stroke:#bfbf00;stroke-linecap:square;stroke-width:1.5;"/>
   </g>
   <g id="line2d_35">
    <path clip-path="url(#pb77508cbf8)" d="M 62.722849 218.188341 
L 65.050325 215.727995 
L 67.415735 213.100674 
L 69.819955 210.310781 
L 72.263888 207.362089 
L 74.748459 204.257728 
L 77.274626 201.000186 
L 79.843369 197.591322 
L 82.455701 194.032395 
L 85.112663 190.324086 
L 87.815326 186.46653 
L 90.564795 182.459342 
L 93.362206 178.301649 
L 96.20873 173.992106 
L 99.105571 169.528926 
L 102.053972 164.909897 
L 105.055211 160.132395 
L 108.110607 155.1934 
L 111.221517 150.089507 
L 114.389339 144.816927 
L 117.615514 139.371501 
L 120.901529 133.748695 
L 124.248912 127.943601 
L 127.659242 121.950936 
L 131.134144 115.765037 
L 134.675292 109.379853 
L 138.284414 102.788936 
L 141.963288 95.985431 
L 145.713749 88.962065 
L 149.537687 81.711125 
L 149.537687 81.711125 
L 151.477817 77.997782 
L 153.43705 74.22445 
" style="fill:none;stroke:#bfbf00;stroke-linecap:square;stroke-width:1.5;"/>
   </g>
   <g id="line2d_36">
    <path clip-path="url(#pb77508cbf8)" d="M 49.375127 226.997351 
L 51.601031 223.381454 
L 53.863651 219.669231 
L 56.163855 215.85894 
L 58.502533 211.948537 
L 60.880606 207.935711 
L 63.29902 203.81791 
L 65.758751 199.592366 
L 68.260804 195.256099 
L 70.806216 190.805933 
L 73.396054 186.238498 
L 76.03142 181.550233 
L 78.713448 176.737387 
L 81.443311 171.796013 
L 84.222216 166.721973 
L 87.051407 161.510926 
L 89.932171 156.158327 
L 92.865834 150.659418 
L 95.853764 145.009223 
L 98.897373 139.202537 
L 101.998118 133.23392 
L 105.157506 127.097684 
L 108.377088 120.787884 
L 111.658471 114.298305 
L 115.003309 107.622452 
L 118.413315 100.753533 
L 121.890256 93.684449 
L 125.435956 86.407777 
L 129.052302 78.915752 
L 132.741242 71.200255 
L 132.741242 71.200255 
L 134.613562 67.256065 
" style="fill:none;stroke:#bfbf00;stroke-linecap:square;stroke-width:1.5;"/>
   </g>
   <g id="line2d_37">
    <path clip-path="url(#pb77508cbf8)" d="M 67.542343 197.850158 
L 69.87814 194.40587 
L 72.251436 190.828525 
L 74.663087 187.118034 
L 77.113971 183.273883 
L 79.604993 179.295161 
L 82.137082 175.180574 
L 84.711196 170.928467 
L 87.32832 166.536842 
L 89.989466 162.003363 
L 92.695679 157.325375 
L 95.448032 152.499908 
L 98.247631 147.523683 
L 101.095614 142.393115 
L 103.993152 137.104321 
L 106.941452 131.653112 
L 109.941756 126.034996 
L 112.995346 120.245176 
L 116.103538 114.278543 
L 119.267691 108.12967 
L 122.489203 101.792805 
L 125.769515 95.261861 
L 129.110112 88.530407 
L 132.512524 81.591658 
L 135.978326 74.438454 
L 135.978326 74.438454 
L 137.735503 70.779091 
" style="fill:none;stroke:#bfbf00;stroke-linecap:square;stroke-width:1.5;"/>
   </g>
   <g id="line2d_38">
    <path clip-path="url(#pb77508cbf8)" d="M 70.458487 44.443636 
L 99.808755 56.247666 
L 132.478098 69.641863 
L 172.445483 86.283019 
L 249.054545 118.464783 
L 249.054545 118.464783 
" style="fill:none;stroke:#008000;stroke-linecap:square;stroke-width:1.5;"/>
   </g>
   <g id="patch_3">
    <path d="M 36 252 
L 36 34.56 
" style="fill:none;stroke:#000000;stroke-linecap:square;stroke-linejoin:miter;stroke-width:0.8;"/>
   </g>
   <g id="patch_4">
    <path d="M 259.2 252 
L 259.2 34.56 
" style="fill:none;stroke:#000000;stroke-linecap:square;stroke-linejoin:miter;stroke-width:0.8;"/>
   </g>
   <g id="patch_5">
    <path d="M 36 252 
L 259.2 252 
" style="fill:none;stroke:#000000;stroke-linecap:square;stroke-linejoin:miter;stroke-width:0.8;"/>
   </g>
   <g id="patch_6">
    <path d="M 36 34.56 
L 259.2 34.56 
" style="fill:none;stroke:#000000;stroke-linecap:square;stroke-linejoin:miter;stroke-width:0.8;"/>
   </g>
   <g id="text_14">
    <!--  0.70 -->
    <defs>
     <path id="DejaVuSans-32"/>
     <path d="M 8.203125 72.90625 
L 55.078125 72.90625 
L 55.078125 68.703125 
L 28.609375 0 
L 18.3125 0 
L 43.21875 64.59375 
L 8.203125 64.59375 
z
" id="DejaVuSans-55"/>
    </defs>
    <g transform="translate(155.440228 76.018919)scale(0.1 -0.1)">
     <use xlink:href="#DejaVuSans-32"/>
     <use x="31.787109" xlink:href="#DejaVuSans-48"/>
     <use x="95.410156" xlink:href="#DejaVuSans-46"/>
     <use x="127.197266" xlink:href="#DejaVuSans-55"/>
     <use x="190.820312" xlink:href="#DejaVuSans-48"/>
    </g>
   </g>
   <g id="text_15">
    <!--  f=1 -->
    <defs>
     <path d="M 37.109375 75.984375 
L 37.109375 68.5 
L 28.515625 68.5 
Q 23.6875 68.5 21.796875 66.546875 
Q 19.921875 64.59375 19.921875 59.515625 
L 19.921875 54.6875 
L 34.71875 54.6875 
L 34.71875 47.703125 
L 19.921875 47.703125 
L 19.921875 0 
L 10.890625 0 
L 10.890625 47.703125 
L 2.296875 47.703125 
L 2.296875 54.6875 
L 10.890625 54.6875 
L 10.890625 58.5 
Q 10.890625 67.625 15.140625 71.796875 
Q 19.390625 75.984375 28.609375 75.984375 
z
" id="DejaVuSans-102"/>
     <path d="M 10.59375 45.40625 
L 73.1875 45.40625 
L 73.1875 37.203125 
L 10.59375 37.203125 
z
M 10.59375 25.484375 
L 73.1875 25.484375 
L 73.1875 17.1875 
L 10.59375 17.1875 
z
" id="DejaVuSans-61"/>
    </defs>
    <g transform="translate(43.975495 215.977228)scale(0.1 -0.1)">
     <use xlink:href="#DejaVuSans-32"/>
     <use x="31.787109" xlink:href="#DejaVuSans-102"/>
     <use x="66.992188" xlink:href="#DejaVuSans-61"/>
     <use x="150.78125" xlink:href="#DejaVuSans-49"/>
    </g>
   </g>
  </g>
 </g>
 <defs>
  <clipPath id="pb77508cbf8">
   <rect height="217.44" width="223.2" x="36" y="34.56"/>
  </clipPath>
 </defs>
</svg>
