<?xml version="1.0" encoding="utf-8" standalone="no"?>
<!DOCTYPE svg PUBLIC "-//W3C//DTD SVG 1.1//EN"
  "http://www.w3.org/Graphics/SVG/1.1/DTD/svg11.dtd">
<!-- Created with matplotlib (https://matplotlib.org/) -->
<svg height="288pt" version="1.1" viewBox="0 0 288 288" width="288pt" xmlns="http://www.w3.org/2000/svg" xmlns:xlink="http://www.w3.org/1999/xlink">
 <defs>
  <style type="text/css">
*{stroke-linecap:butt;stroke-linejoin:round;}
  </style>
 </defs>
 <g id="figure_1">
  <g id="patch_1">
   <path d="M 0 288 
L 288 288 
L 288 0 
L 0 0 
z
" style="fill:#ffffff;"/>
  </g>
  <g id="axes_1">
   <g id="patch_2">
    <path d="M 36 252 
L 259.2 252 
L 259.2 34.56 
L 36 34.56 
z
" style="fill:#ffffff;"/>
   </g>
   <g id="matplotlib.axis_1">
    <g id="xtick_1">
     <g id="line2d_1">
      <defs>
       <path d="M 0 0 
L 0 3.5 
" id="m73e62f5ea2" style="stroke:#000000;stroke-width:0.8;"/>
      </defs>
      <g>
       <use style="stroke:#000000;stroke-width:0.8;" x="37.045703" xlink:href="#m73e62f5ea2" y="252"/>
      </g>
     </g>
     <g id="text_1">
      <!-- 25 -->
      <defs>
       <path d="M 19.1875 8.296875 
L 53.609375 8.296875 
L 53.609375 0 
L 7.328125 0 
L 7.328125 8.296875 
Q 12.9375 14.109375 22.625 23.890625 
Q 32.328125 33.6875 34.8125 36.53125 
Q 39.546875 41.84375 41.421875 45.53125 
Q 43.3125 49.21875 43.3125 52.78125 
Q 43.3125 58.59375 39.234375 62.25 
Q 35.15625 65.921875 28.609375 65.921875 
Q 23.96875 65.921875 18.8125 64.3125 
Q 13.671875 62.703125 7.8125 59.421875 
L 7.8125 69.390625 
Q 13.765625 71.78125 18.9375 73 
Q 24.125 74.21875 28.421875 74.21875 
Q 39.75 74.21875 46.484375 68.546875 
Q 53.21875 62.890625 53.21875 53.421875 
Q 53.21875 48.921875 51.53125 44.890625 
Q 49.859375 40.875 45.40625 35.40625 
Q 44.1875 33.984375 37.640625 27.21875 
Q 31.109375 20.453125 19.1875 8.296875 
z
" id="DejaVuSans-50"/>
       <path d="M 10.796875 72.90625 
L 49.515625 72.90625 
L 49.515625 64.59375 
L 19.828125 64.59375 
L 19.828125 46.734375 
Q 21.96875 47.46875 24.109375 47.828125 
Q 26.265625 48.1875 28.421875 48.1875 
Q 40.625 48.1875 47.75 41.5 
Q 54.890625 34.8125 54.890625 23.390625 
Q 54.890625 11.625 47.5625 5.09375 
Q 40.234375 -1.421875 26.90625 -1.421875 
Q 22.3125 -1.421875 17.546875 -0.640625 
Q 12.796875 0.140625 7.71875 1.703125 
L 7.71875 11.625 
Q 12.109375 9.234375 16.796875 8.0625 
Q 21.484375 6.890625 26.703125 6.890625 
Q 35.15625 6.890625 40.078125 11.328125 
Q 45.015625 15.765625 45.015625 23.390625 
Q 45.015625 31 40.078125 35.4375 
Q 35.15625 39.890625 26.703125 39.890625 
Q 22.75 39.890625 18.8125 39.015625 
Q 14.890625 38.140625 10.796875 36.28125 
z
" id="DejaVuSans-53"/>
      </defs>
      <g transform="translate(30.683203 266.598437)scale(0.1 -0.1)">
       <use xlink:href="#DejaVuSans-50"/>
       <use x="63.623047" xlink:href="#DejaVuSans-53"/>
      </g>
     </g>
    </g>
    <g id="xtick_2">
     <g id="line2d_2">
      <g>
       <use style="stroke:#000000;stroke-width:0.8;" x="94.190692" xlink:href="#m73e62f5ea2" y="252"/>
      </g>
     </g>
     <g id="text_2">
      <!-- 30 -->
      <defs>
       <path d="M 40.578125 39.3125 
Q 47.65625 37.796875 51.625 33 
Q 55.609375 28.21875 55.609375 21.1875 
Q 55.609375 10.40625 48.1875 4.484375 
Q 40.765625 -1.421875 27.09375 -1.421875 
Q 22.515625 -1.421875 17.65625 -0.515625 
Q 12.796875 0.390625 7.625 2.203125 
L 7.625 11.71875 
Q 11.71875 9.328125 16.59375 8.109375 
Q 21.484375 6.890625 26.8125 6.890625 
Q 36.078125 6.890625 40.9375 10.546875 
Q 45.796875 14.203125 45.796875 21.1875 
Q 45.796875 27.640625 41.28125 31.265625 
Q 36.765625 34.90625 28.71875 34.90625 
L 20.21875 34.90625 
L 20.21875 43.015625 
L 29.109375 43.015625 
Q 36.375 43.015625 40.234375 45.921875 
Q 44.09375 48.828125 44.09375 54.296875 
Q 44.09375 59.90625 40.109375 62.90625 
Q 36.140625 65.921875 28.71875 65.921875 
Q 24.65625 65.921875 20.015625 65.03125 
Q 15.375 64.15625 9.8125 62.3125 
L 9.8125 71.09375 
Q 15.4375 72.65625 20.34375 73.4375 
Q 25.25 74.21875 29.59375 74.21875 
Q 40.828125 74.21875 47.359375 69.109375 
Q 53.90625 64.015625 53.90625 55.328125 
Q 53.90625 49.265625 50.4375 45.09375 
Q 46.96875 40.921875 40.578125 39.3125 
z
" id="DejaVuSans-51"/>
       <path d="M 31.78125 66.40625 
Q 24.171875 66.40625 20.328125 58.90625 
Q 16.5 51.421875 16.5 36.375 
Q 16.5 21.390625 20.328125 13.890625 
Q 24.171875 6.390625 31.78125 6.390625 
Q 39.453125 6.390625 43.28125 13.890625 
Q 47.125 21.390625 47.125 36.375 
Q 47.125 51.421875 43.28125 58.90625 
Q 39.453125 66.40625 31.78125 66.40625 
z
M 31.78125 74.21875 
Q 44.046875 74.21875 50.515625 64.515625 
Q 56.984375 54.828125 56.984375 36.375 
Q 56.984375 17.96875 50.515625 8.265625 
Q 44.046875 -1.421875 31.78125 -1.421875 
Q 19.53125 -1.421875 13.0625 8.265625 
Q 6.59375 17.96875 6.59375 36.375 
Q 6.59375 54.828125 13.0625 64.515625 
Q 19.53125 74.21875 31.78125 74.21875 
z
" id="DejaVuSans-48"/>
      </defs>
      <g transform="translate(87.828192 266.598437)scale(0.1 -0.1)">
       <use xlink:href="#DejaVuSans-51"/>
       <use x="63.623047" xlink:href="#DejaVuSans-48"/>
      </g>
     </g>
    </g>
    <g id="xtick_3">
     <g id="line2d_3">
      <g>
       <use style="stroke:#000000;stroke-width:0.8;" x="151.335681" xlink:href="#m73e62f5ea2" y="252"/>
      </g>
     </g>
     <g id="text_3">
      <!-- 35 -->
      <g transform="translate(144.973181 266.598437)scale(0.1 -0.1)">
       <use xlink:href="#DejaVuSans-51"/>
       <use x="63.623047" xlink:href="#DejaVuSans-53"/>
      </g>
     </g>
    </g>
    <g id="xtick_4">
     <g id="line2d_4">
      <g>
       <use style="stroke:#000000;stroke-width:0.8;" x="208.48067" xlink:href="#m73e62f5ea2" y="252"/>
      </g>
     </g>
     <g id="text_4">
      <!-- 40 -->
      <defs>
       <path d="M 37.796875 64.3125 
L 12.890625 25.390625 
L 37.796875 25.390625 
z
M 35.203125 72.90625 
L 47.609375 72.90625 
L 47.609375 25.390625 
L 58.015625 25.390625 
L 58.015625 17.1875 
L 47.609375 17.1875 
L 47.609375 0 
L 37.796875 0 
L 37.796875 17.1875 
L 4.890625 17.1875 
L 4.890625 26.703125 
z
" id="DejaVuSans-52"/>
      </defs>
      <g transform="translate(202.11817 266.598437)scale(0.1 -0.1)">
       <use xlink:href="#DejaVuSans-52"/>
       <use x="63.623047" xlink:href="#DejaVuSans-48"/>
      </g>
     </g>
    </g>
    <g id="text_5">
     <!-- Inclination -->
     <defs>
      <path d="M 9.8125 72.90625 
L 19.671875 72.90625 
L 19.671875 0 
L 9.8125 0 
z
" id="DejaVuSans-73"/>
      <path d="M 54.890625 33.015625 
L 54.890625 0 
L 45.90625 0 
L 45.90625 32.71875 
Q 45.90625 40.484375 42.875 44.328125 
Q 39.84375 48.1875 33.796875 48.1875 
Q 26.515625 48.1875 22.3125 43.546875 
Q 18.109375 38.921875 18.109375 30.90625 
L 18.109375 0 
L 9.078125 0 
L 9.078125 54.6875 
L 18.109375 54.6875 
L 18.109375 46.1875 
Q 21.34375 51.125 25.703125 53.5625 
Q 30.078125 56 35.796875 56 
Q 45.21875 56 50.046875 50.171875 
Q 54.890625 44.34375 54.890625 33.015625 
z
" id="DejaVuSans-110"/>
      <path d="M 48.78125 52.59375 
L 48.78125 44.1875 
Q 44.96875 46.296875 41.140625 47.34375 
Q 37.3125 48.390625 33.40625 48.390625 
Q 24.65625 48.390625 19.8125 42.84375 
Q 14.984375 37.3125 14.984375 27.296875 
Q 14.984375 17.28125 19.8125 11.734375 
Q 24.65625 6.203125 33.40625 6.203125 
Q 37.3125 6.203125 41.140625 7.25 
Q 44.96875 8.296875 48.78125 10.40625 
L 48.78125 2.09375 
Q 45.015625 0.34375 40.984375 -0.53125 
Q 36.96875 -1.421875 32.421875 -1.421875 
Q 20.0625 -1.421875 12.78125 6.34375 
Q 5.515625 14.109375 5.515625 27.296875 
Q 5.515625 40.671875 12.859375 48.328125 
Q 20.21875 56 33.015625 56 
Q 37.15625 56 41.109375 55.140625 
Q 45.0625 54.296875 48.78125 52.59375 
z
" id="DejaVuSans-99"/>
      <path d="M 9.421875 75.984375 
L 18.40625 75.984375 
L 18.40625 0 
L 9.421875 0 
z
" id="DejaVuSans-108"/>
      <path d="M 9.421875 54.6875 
L 18.40625 54.6875 
L 18.40625 0 
L 9.421875 0 
z
M 9.421875 75.984375 
L 18.40625 75.984375 
L 18.40625 64.59375 
L 9.421875 64.59375 
z
" id="DejaVuSans-105"/>
      <path d="M 34.28125 27.484375 
Q 23.390625 27.484375 19.1875 25 
Q 14.984375 22.515625 14.984375 16.5 
Q 14.984375 11.71875 18.140625 8.90625 
Q 21.296875 6.109375 26.703125 6.109375 
Q 34.1875 6.109375 38.703125 11.40625 
Q 43.21875 16.703125 43.21875 25.484375 
L 43.21875 27.484375 
z
M 52.203125 31.203125 
L 52.203125 0 
L 43.21875 0 
L 43.21875 8.296875 
Q 40.140625 3.328125 35.546875 0.953125 
Q 30.953125 -1.421875 24.3125 -1.421875 
Q 15.921875 -1.421875 10.953125 3.296875 
Q 6 8.015625 6 15.921875 
Q 6 25.140625 12.171875 29.828125 
Q 18.359375 34.515625 30.609375 34.515625 
L 43.21875 34.515625 
L 43.21875 35.40625 
Q 43.21875 41.609375 39.140625 45 
Q 35.0625 48.390625 27.6875 48.390625 
Q 23 48.390625 18.546875 47.265625 
Q 14.109375 46.140625 10.015625 43.890625 
L 10.015625 52.203125 
Q 14.9375 54.109375 19.578125 55.046875 
Q 24.21875 56 28.609375 56 
Q 40.484375 56 46.34375 49.84375 
Q 52.203125 43.703125 52.203125 31.203125 
z
" id="DejaVuSans-97"/>
      <path d="M 18.3125 70.21875 
L 18.3125 54.6875 
L 36.8125 54.6875 
L 36.8125 47.703125 
L 18.3125 47.703125 
L 18.3125 18.015625 
Q 18.3125 11.328125 20.140625 9.421875 
Q 21.96875 7.515625 27.59375 7.515625 
L 36.8125 7.515625 
L 36.8125 0 
L 27.59375 0 
Q 17.1875 0 13.234375 3.875 
Q 9.28125 7.765625 9.28125 18.015625 
L 9.28125 47.703125 
L 2.6875 47.703125 
L 2.6875 54.6875 
L 9.28125 54.6875 
L 9.28125 70.21875 
z
" id="DejaVuSans-116"/>
      <path d="M 30.609375 48.390625 
Q 23.390625 48.390625 19.1875 42.75 
Q 14.984375 37.109375 14.984375 27.296875 
Q 14.984375 17.484375 19.15625 11.84375 
Q 23.34375 6.203125 30.609375 6.203125 
Q 37.796875 6.203125 41.984375 11.859375 
Q 46.1875 17.53125 46.1875 27.296875 
Q 46.1875 37.015625 41.984375 42.703125 
Q 37.796875 48.390625 30.609375 48.390625 
z
M 30.609375 56 
Q 42.328125 56 49.015625 48.375 
Q 55.71875 40.765625 55.71875 27.296875 
Q 55.71875 13.875 49.015625 6.21875 
Q 42.328125 -1.421875 30.609375 -1.421875 
Q 18.84375 -1.421875 12.171875 6.21875 
Q 5.515625 13.875 5.515625 27.296875 
Q 5.515625 40.765625 12.171875 48.375 
Q 18.84375 56 30.609375 56 
z
" id="DejaVuSans-111"/>
     </defs>
     <g transform="translate(121.61875 280.276563)scale(0.1 -0.1)">
      <use xlink:href="#DejaVuSans-73"/>
      <use x="29.492188" xlink:href="#DejaVuSans-110"/>
      <use x="92.871094" xlink:href="#DejaVuSans-99"/>
      <use x="147.851562" xlink:href="#DejaVuSans-108"/>
      <use x="175.634766" xlink:href="#DejaVuSans-105"/>
      <use x="203.417969" xlink:href="#DejaVuSans-110"/>
      <use x="266.796875" xlink:href="#DejaVuSans-97"/>
      <use x="328.076172" xlink:href="#DejaVuSans-116"/>
      <use x="367.285156" xlink:href="#DejaVuSans-105"/>
      <use x="395.068359" xlink:href="#DejaVuSans-111"/>
      <use x="456.25" xlink:href="#DejaVuSans-110"/>
     </g>
    </g>
   </g>
   <g id="matplotlib.axis_2">
    <g id="ytick_1">
     <g id="line2d_5">
      <defs>
       <path d="M 0 0 
L -3.5 0 
" id="m80e200abd1" style="stroke:#000000;stroke-width:0.8;"/>
      </defs>
      <g>
       <use style="stroke:#000000;stroke-width:0.8;" x="36" xlink:href="#m80e200abd1" y="240.587095"/>
      </g>
     </g>
     <g id="text_6">
      <!-- 1.2 -->
      <defs>
       <path d="M 12.40625 8.296875 
L 28.515625 8.296875 
L 28.515625 63.921875 
L 10.984375 60.40625 
L 10.984375 69.390625 
L 28.421875 72.90625 
L 38.28125 72.90625 
L 38.28125 8.296875 
L 54.390625 8.296875 
L 54.390625 0 
L 12.40625 0 
z
" id="DejaVuSans-49"/>
       <path d="M 10.6875 12.40625 
L 21 12.40625 
L 21 0 
L 10.6875 0 
z
" id="DejaVuSans-46"/>
      </defs>
      <g transform="translate(13.096875 244.386314)scale(0.1 -0.1)">
       <use xlink:href="#DejaVuSans-49"/>
       <use x="63.623047" xlink:href="#DejaVuSans-46"/>
       <use x="95.410156" xlink:href="#DejaVuSans-50"/>
      </g>
     </g>
    </g>
    <g id="ytick_2">
     <g id="line2d_6">
      <g>
       <use style="stroke:#000000;stroke-width:0.8;" x="36" xlink:href="#m80e200abd1" y="205.373071"/>
      </g>
     </g>
     <g id="text_7">
      <!-- 1.4 -->
      <g transform="translate(13.096875 209.17229)scale(0.1 -0.1)">
       <use xlink:href="#DejaVuSans-49"/>
       <use x="63.623047" xlink:href="#DejaVuSans-46"/>
       <use x="95.410156" xlink:href="#DejaVuSans-52"/>
      </g>
     </g>
    </g>
    <g id="ytick_3">
     <g id="line2d_7">
      <g>
       <use style="stroke:#000000;stroke-width:0.8;" x="36" xlink:href="#m80e200abd1" y="170.159047"/>
      </g>
     </g>
     <g id="text_8">
      <!-- 1.6 -->
      <defs>
       <path d="M 33.015625 40.375 
Q 26.375 40.375 22.484375 35.828125 
Q 18.609375 31.296875 18.609375 23.390625 
Q 18.609375 15.53125 22.484375 10.953125 
Q 26.375 6.390625 33.015625 6.390625 
Q 39.65625 6.390625 43.53125 10.953125 
Q 47.40625 15.53125 47.40625 23.390625 
Q 47.40625 31.296875 43.53125 35.828125 
Q 39.65625 40.375 33.015625 40.375 
z
M 52.59375 71.296875 
L 52.59375 62.3125 
Q 48.875 64.0625 45.09375 64.984375 
Q 41.3125 65.921875 37.59375 65.921875 
Q 27.828125 65.921875 22.671875 59.328125 
Q 17.53125 52.734375 16.796875 39.40625 
Q 19.671875 43.65625 24.015625 45.921875 
Q 28.375 48.1875 33.59375 48.1875 
Q 44.578125 48.1875 50.953125 41.515625 
Q 57.328125 34.859375 57.328125 23.390625 
Q 57.328125 12.15625 50.6875 5.359375 
Q 44.046875 -1.421875 33.015625 -1.421875 
Q 20.359375 -1.421875 13.671875 8.265625 
Q 6.984375 17.96875 6.984375 36.375 
Q 6.984375 53.65625 15.1875 63.9375 
Q 23.390625 74.21875 37.203125 74.21875 
Q 40.921875 74.21875 44.703125 73.484375 
Q 48.484375 72.75 52.59375 71.296875 
z
" id="DejaVuSans-54"/>
      </defs>
      <g transform="translate(13.096875 173.958265)scale(0.1 -0.1)">
       <use xlink:href="#DejaVuSans-49"/>
       <use x="63.623047" xlink:href="#DejaVuSans-46"/>
       <use x="95.410156" xlink:href="#DejaVuSans-54"/>
      </g>
     </g>
    </g>
    <g id="ytick_4">
     <g id="line2d_8">
      <g>
       <use style="stroke:#000000;stroke-width:0.8;" x="36" xlink:href="#m80e200abd1" y="134.945022"/>
      </g>
     </g>
     <g id="text_9">
      <!-- 1.8 -->
      <defs>
       <path d="M 31.78125 34.625 
Q 24.75 34.625 20.71875 30.859375 
Q 16.703125 27.09375 16.703125 20.515625 
Q 16.703125 13.921875 20.71875 10.15625 
Q 24.75 6.390625 31.78125 6.390625 
Q 38.8125 6.390625 42.859375 10.171875 
Q 46.921875 13.96875 46.921875 20.515625 
Q 46.921875 27.09375 42.890625 30.859375 
Q 38.875 34.625 31.78125 34.625 
z
M 21.921875 38.8125 
Q 15.578125 40.375 12.03125 44.71875 
Q 8.5 49.078125 8.5 55.328125 
Q 8.5 64.0625 14.71875 69.140625 
Q 20.953125 74.21875 31.78125 74.21875 
Q 42.671875 74.21875 48.875 69.140625 
Q 55.078125 64.0625 55.078125 55.328125 
Q 55.078125 49.078125 51.53125 44.71875 
Q 48 40.375 41.703125 38.8125 
Q 48.828125 37.15625 52.796875 32.3125 
Q 56.78125 27.484375 56.78125 20.515625 
Q 56.78125 9.90625 50.3125 4.234375 
Q 43.84375 -1.421875 31.78125 -1.421875 
Q 19.734375 -1.421875 13.25 4.234375 
Q 6.78125 9.90625 6.78125 20.515625 
Q 6.78125 27.484375 10.78125 32.3125 
Q 14.796875 37.15625 21.921875 38.8125 
z
M 18.3125 54.390625 
Q 18.3125 48.734375 21.84375 45.5625 
Q 25.390625 42.390625 31.78125 42.390625 
Q 38.140625 42.390625 41.71875 45.5625 
Q 45.3125 48.734375 45.3125 54.390625 
Q 45.3125 60.0625 41.71875 63.234375 
Q 38.140625 66.40625 31.78125 66.40625 
Q 25.390625 66.40625 21.84375 63.234375 
Q 18.3125 60.0625 18.3125 54.390625 
z
" id="DejaVuSans-56"/>
      </defs>
      <g transform="translate(13.096875 138.744241)scale(0.1 -0.1)">
       <use xlink:href="#DejaVuSans-49"/>
       <use x="63.623047" xlink:href="#DejaVuSans-46"/>
       <use x="95.410156" xlink:href="#DejaVuSans-56"/>
      </g>
     </g>
    </g>
    <g id="ytick_5">
     <g id="line2d_9">
      <g>
       <use style="stroke:#000000;stroke-width:0.8;" x="36" xlink:href="#m80e200abd1" y="99.730998"/>
      </g>
     </g>
     <g id="text_10">
      <!-- 2.0 -->
      <g transform="translate(13.096875 103.530217)scale(0.1 -0.1)">
       <use xlink:href="#DejaVuSans-50"/>
       <use x="63.623047" xlink:href="#DejaVuSans-46"/>
       <use x="95.410156" xlink:href="#DejaVuSans-48"/>
      </g>
     </g>
    </g>
    <g id="ytick_6">
     <g id="line2d_10">
      <g>
       <use style="stroke:#000000;stroke-width:0.8;" x="36" xlink:href="#m80e200abd1" y="64.516974"/>
      </g>
     </g>
     <g id="text_11">
      <!-- 2.2 -->
      <g transform="translate(13.096875 68.316192)scale(0.1 -0.1)">
       <use xlink:href="#DejaVuSans-50"/>
       <use x="63.623047" xlink:href="#DejaVuSans-46"/>
       <use x="95.410156" xlink:href="#DejaVuSans-50"/>
      </g>
     </g>
    </g>
    <g id="text_12">
     <!-- Elongation -->
     <defs>
      <path d="M 9.8125 72.90625 
L 55.90625 72.90625 
L 55.90625 64.59375 
L 19.671875 64.59375 
L 19.671875 43.015625 
L 54.390625 43.015625 
L 54.390625 34.71875 
L 19.671875 34.71875 
L 19.671875 8.296875 
L 56.78125 8.296875 
L 56.78125 0 
L 9.8125 0 
z
" id="DejaVuSans-69"/>
      <path d="M 45.40625 27.984375 
Q 45.40625 37.75 41.375 43.109375 
Q 37.359375 48.484375 30.078125 48.484375 
Q 22.859375 48.484375 18.828125 43.109375 
Q 14.796875 37.75 14.796875 27.984375 
Q 14.796875 18.265625 18.828125 12.890625 
Q 22.859375 7.515625 30.078125 7.515625 
Q 37.359375 7.515625 41.375 12.890625 
Q 45.40625 18.265625 45.40625 27.984375 
z
M 54.390625 6.78125 
Q 54.390625 -7.171875 48.1875 -13.984375 
Q 42 -20.796875 29.203125 -20.796875 
Q 24.46875 -20.796875 20.265625 -20.09375 
Q 16.0625 -19.390625 12.109375 -17.921875 
L 12.109375 -9.1875 
Q 16.0625 -11.328125 19.921875 -12.34375 
Q 23.78125 -13.375 27.78125 -13.375 
Q 36.625 -13.375 41.015625 -8.765625 
Q 45.40625 -4.15625 45.40625 5.171875 
L 45.40625 9.625 
Q 42.625 4.78125 38.28125 2.390625 
Q 33.9375 0 27.875 0 
Q 17.828125 0 11.671875 7.65625 
Q 5.515625 15.328125 5.515625 27.984375 
Q 5.515625 40.671875 11.671875 48.328125 
Q 17.828125 56 27.875 56 
Q 33.9375 56 38.28125 53.609375 
Q 42.625 51.21875 45.40625 46.390625 
L 45.40625 54.6875 
L 54.390625 54.6875 
z
" id="DejaVuSans-103"/>
     </defs>
     <g transform="translate(7.017187 169.872187)rotate(-90)scale(0.1 -0.1)">
      <use xlink:href="#DejaVuSans-69"/>
      <use x="63.183594" xlink:href="#DejaVuSans-108"/>
      <use x="90.966797" xlink:href="#DejaVuSans-111"/>
      <use x="152.148438" xlink:href="#DejaVuSans-110"/>
      <use x="215.527344" xlink:href="#DejaVuSans-103"/>
      <use x="279.003906" xlink:href="#DejaVuSans-97"/>
      <use x="340.283203" xlink:href="#DejaVuSans-116"/>
      <use x="379.492188" xlink:href="#DejaVuSans-105"/>
      <use x="407.275391" xlink:href="#DejaVuSans-111"/>
      <use x="468.457031" xlink:href="#DejaVuSans-110"/>
     </g>
    </g>
   </g>
   <g id="line2d_11">
    <path clip-path="url(#p25febf7dfd)" d="M 72.611603 187.245042 
L 75.244775 183.075645 
L 77.917879 178.812504 
L 80.631755 174.452938 
L 83.387261 169.994175 
L 86.18528 165.433346 
L 89.026714 160.767483 
L 91.91249 155.993514 
L 94.84356 151.108259 
L 97.820899 146.108428 
L 100.845506 140.990611 
L 103.918407 135.75128 
L 107.040655 130.386779 
L 110.213328 124.893322 
L 113.437533 119.266984 
L 116.714407 113.5037 
L 120.045112 107.599256 
L 123.430846 101.549283 
L 126.872832 95.34925 
L 130.372327 88.99446 
L 133.930622 82.480039 
L 133.930622 82.480039 
L 135.732231 79.161394 
L 137.549039 75.800931 
" style="fill:none;stroke:#ff0000;stroke-linecap:square;stroke-width:1.5;"/>
   </g>
   <g id="line2d_12">
    <path clip-path="url(#p25febf7dfd)" d="M 75.908331 221.977565 
L 78.579804 220.684265 
L 81.291691 219.168021 
L 84.044828 217.43438 
L 86.84007 215.489383 
L 89.678296 213.339262 
L 92.560403 210.99018 
L 95.487312 208.448024 
L 98.459966 205.718241 
L 101.479332 202.805735 
L 104.546398 199.71479 
L 107.662179 196.449034 
L 110.827714 193.011426 
L 114.044068 189.404257 
L 117.31233 185.629169 
L 120.633618 181.687174 
L 124.009076 177.578687 
L 127.439876 173.303553 
L 130.927217 168.861075 
L 134.472331 164.250041 
L 138.076475 159.468754 
L 141.740938 154.515053 
L 145.467042 149.38633 
L 149.256137 144.079553 
L 153.109608 138.591275 
L 157.028869 132.91765 
L 161.015371 127.054442 
L 165.070597 120.997027 
L 169.196063 114.740403 
L 173.393323 108.279191 
L 177.663962 101.607632 
L 177.663962 101.607632 
L 179.827305 98.19107 
L 182.009605 94.71959 
" style="fill:none;stroke:#bfbf00;stroke-linecap:square;stroke-width:1.5;"/>
   </g>
   <g id="line2d_13">
    <path clip-path="url(#p25febf7dfd)" d="M 78.652252 212.193384 
L 81.314289 208.368642 
L 84.016304 204.456428 
L 86.759128 200.454179 
L 89.543611 196.359245 
L 92.370622 192.168879 
L 95.241057 187.880239 
L 98.15583 183.490379 
L 101.11588 178.996249 
L 104.122169 174.394689 
L 107.175684 169.682425 
L 110.277437 164.856061 
L 113.428463 159.912081 
L 116.629826 154.846836 
L 119.882617 149.656545 
L 123.187952 144.337286 
L 126.546977 138.88499 
L 129.960866 133.295435 
L 133.430825 127.564244 
L 136.958086 121.686871 
L 140.543917 115.658597 
L 144.189614 109.474527 
L 147.896506 103.129575 
L 151.665958 96.618459 
L 155.499365 89.935696 
L 155.499365 89.935696 
L 157.440498 86.528175 
" style="fill:none;stroke:#bfbf00;stroke-linecap:square;stroke-width:1.5;"/>
   </g>
   <g id="line2d_14">
    <path clip-path="url(#p25febf7dfd)" d="M 64.759999 153.765691 
L 67.34883 149.126014 
L 69.977465 144.370101 
L 72.646759 139.494857 
L 75.357587 134.497028 
L 78.110848 129.373191 
L 80.907462 124.119754 
L 83.748377 118.732952 
L 86.634564 113.208842 
L 89.567019 107.543297 
L 92.546766 101.732 
L 95.574855 95.770441 
L 98.652364 89.653905 
L 101.7804 83.377464 
L 104.9601 76.935975 
L 108.19263 70.324063 
L 108.19263 70.324063 
L 109.829079 66.952454 
" style="fill:none;stroke:#bfbf00;stroke-linecap:square;stroke-width:1.5;"/>
   </g>
   <g id="line2d_15">
    <path clip-path="url(#p25febf7dfd)" d="M 70.865007 218.546732 
L 73.495624 214.835947 
L 76.166225 211.03108 
L 78.877649 207.130372 
L 81.630755 203.131824 
L 84.426423 199.03323 
L 87.265556 194.832192 
L 90.149078 190.526134 
L 93.07794 186.112315 
L 96.053113 181.587831 
L 99.075596 176.949622 
L 102.146412 172.194474 
L 105.266609 167.319022 
L 108.437264 162.319744 
L 111.659479 157.192968 
L 114.934386 151.934862 
L 118.263144 146.541437 
L 121.646943 141.00854 
L 125.087003 135.331854 
L 128.584573 129.506888 
L 132.140937 123.528978 
L 135.757409 117.393277 
L 139.435336 111.094753 
L 143.176101 104.628182 
L 146.98112 97.988142 
L 150.851845 91.169006 
L 150.851845 91.169006 
L 152.812311 87.690461 
L 154.789765 84.164935 
" style="fill:none;stroke:#bfbf00;stroke-linecap:square;stroke-width:1.5;"/>
   </g>
   <g id="line2d_16">
    <path clip-path="url(#p25febf7dfd)" d="M 74.656459 154.667161 
L 77.280535 150.218895 
L 79.943992 145.677129 
L 82.647647 141.039439 
L 85.392342 136.303328 
L 88.178937 131.466221 
L 91.008315 126.52546 
L 93.881382 121.478308 
L 96.799066 116.321938 
L 99.762318 111.053438 
L 102.772116 105.669801 
L 105.829461 100.167927 
L 108.935379 94.544618 
L 112.090924 88.796573 
L 115.297175 82.920387 
L 118.555242 76.912546 
L 118.555242 76.912546 
L 120.20406 73.858126 
L 121.866259 70.769423 
" style="fill:none;stroke:#bfbf00;stroke-linecap:square;stroke-width:1.5;"/>
   </g>
   <g id="line2d_17">
    <path clip-path="url(#p25febf7dfd)" d="M 84.156887 240.629859 
L 86.860477 239.195952 
L 89.60438 237.544901 
L 92.389417 235.69103 
L 95.21643 233.648045 
L 98.086279 231.428577 
L 100.999846 229.043931 
L 103.958035 226.50399 
L 106.96177 223.817223 
L 110.011998 220.990761 
L 113.10969 218.030504 
L 116.255839 214.941247 
L 119.451462 211.726802 
L 122.697601 208.390117 
L 125.995323 204.933379 
L 129.345719 201.358111 
L 132.749909 197.665251 
L 136.209038 193.855228 
L 139.724277 189.928016 
L 143.296828 185.883191 
L 146.927919 181.719967 
L 150.618808 177.43724 
L 154.370782 173.033613 
L 158.185158 168.507424 
L 162.063285 163.856767 
L 166.006541 159.079508 
L 170.016339 154.173304 
L 174.09412 149.135613 
L 178.241363 143.963703 
L 182.459574 138.654664 
L 186.750299 133.205415 
L 191.115115 127.612707 
L 195.555633 121.873131 
L 200.0735 115.983124 
L 204.6704 109.938967 
L 204.6704 109.938967 
L 206.999022 106.857881 
" style="fill:none;stroke:#bfbf00;stroke-linecap:square;stroke-width:1.5;"/>
   </g>
   <g id="line2d_18">
    <path clip-path="url(#p25febf7dfd)" d="M 62.778869 181.349353 
L 65.350271 177.238425 
L 67.961254 173.02751 
L 70.612672 168.714266 
L 73.305399 164.2962 
L 76.040335 159.770669 
L 78.818403 155.134879 
L 81.64055 150.385892 
L 84.507749 145.520617 
L 87.421001 140.535811 
L 90.38133 135.428076 
L 93.389792 130.193856 
L 96.447468 124.829432 
L 99.555471 119.330916 
L 102.714943 113.694248 
L 105.927057 107.915186 
L 109.193019 101.989302 
L 112.514067 95.911974 
L 115.891473 89.678374 
L 119.326544 83.283464 
L 122.820624 76.721984 
L 122.820624 76.721984 
L 124.590222 73.377072 
L 126.375092 69.988439 
" style="fill:none;stroke:#bfbf00;stroke-linecap:square;stroke-width:1.5;"/>
   </g>
   <g id="line2d_19">
    <path clip-path="url(#p25febf7dfd)" d="M 77.699984 169.904113 
L 80.365175 166.211298 
L 83.070578 162.403643 
L 85.81703 158.480087 
L 88.60539 154.439354 
L 91.436537 150.27996 
L 94.311373 146.00022 
L 97.230824 141.598248 
L 100.195837 137.071967 
L 103.207384 132.419103 
L 106.266461 127.637198 
L 109.37409 122.723599 
L 112.531318 117.675466 
L 115.739218 112.489772 
L 118.998891 107.163295 
L 122.311466 101.692622 
L 125.678099 96.074144 
L 129.099977 90.304051 
L 132.578316 84.37833 
L 136.11436 78.292758 
L 136.11436 78.292758 
L 137.904421 75.18865 
" style="fill:none;stroke:#bfbf00;stroke-linecap:square;stroke-width:1.5;"/>
   </g>
   <g id="line2d_20">
    <path clip-path="url(#p25febf7dfd)" d="M 64.175179 242.116364 
L 66.776875 238.869558 
L 69.418734 235.551501 
L 72.101616 232.160465 
L 74.826406 228.69463 
L 77.594008 225.152089 
L 80.405352 221.530858 
L 83.261392 217.828876 
L 86.163107 214.044009 
L 89.111503 210.174052 
L 92.107609 206.216725 
L 95.152485 202.169676 
L 98.247217 198.030478 
L 101.392919 193.796632 
L 104.590738 189.46556 
L 107.841847 185.034607 
L 111.147453 180.501041 
L 114.508794 175.862046 
L 117.92714 171.114728 
L 121.403798 166.256106 
L 124.940105 161.283116 
L 128.537438 156.192607 
L 132.197206 150.98134 
L 135.920859 145.645986 
L 139.709883 140.183126 
L 143.565804 134.589249 
L 147.490189 128.860751 
L 151.484644 122.993934 
L 155.550819 116.985007 
L 159.690405 110.830083 
L 163.905138 104.525181 
L 168.196799 98.066225 
L 168.196799 98.066225 
L 170.372046 94.777678 
L 172.567214 91.449046 
" style="fill:none;stroke:#bfbf00;stroke-linecap:square;stroke-width:1.5;"/>
   </g>
   <g id="line2d_21">
    <path clip-path="url(#p25febf7dfd)" d="M 74.276953 174.807754 
L 76.920786 170.464882 
L 79.60455 166.024022 
L 82.329075 161.482624 
L 85.095214 156.838042 
L 87.903843 152.087531 
L 90.755857 147.22825 
L 93.652175 142.257255 
L 96.59374 137.171499 
L 99.581517 131.967829 
L 102.616497 126.642986 
L 105.699696 121.193598 
L 108.832155 115.616177 
L 112.014942 109.907121 
L 115.249154 104.062704 
L 118.535911 98.079076 
L 121.876368 91.952258 
L 125.271703 85.678138 
L 128.723129 79.252466 
L 128.723129 79.252466 
L 130.470263 75.981431 
L 132.231888 72.670851 
" style="fill:none;stroke:#bfbf00;stroke-linecap:square;stroke-width:1.5;"/>
   </g>
   <g id="line2d_22">
    <path clip-path="url(#p25febf7dfd)" d="M 86.111254 211.11712 
L 88.820971 207.897633 
L 91.570868 204.560561 
L 94.361756 201.107207 
L 97.194466 197.538337 
L 100.069848 193.854236 
L 102.988774 190.054759 
L 105.952135 186.139369 
L 108.960845 182.10718 
L 112.015838 177.95698 
L 115.11807 173.687263 
L 118.268522 169.296246 
L 121.468195 164.781887 
L 124.718116 160.141902 
L 128.019337 155.373773 
L 131.372932 150.474762 
L 134.780001 145.441912 
L 138.241672 140.272057 
L 141.759098 134.961823 
L 145.333458 129.507633 
L 148.965958 123.905705 
L 152.657835 118.152056 
L 156.410351 112.242496 
L 160.2248 106.172633 
L 164.102501 99.937862 
L 168.044809 93.533369 
L 168.044809 93.533369 
L 170.04062 90.265914 
" style="fill:none;stroke:#bfbf00;stroke-linecap:square;stroke-width:1.5;"/>
   </g>
   <g id="line2d_23">
    <path clip-path="url(#p25febf7dfd)" d="M 67.057803 143.637637 
L 69.64634 140.194775 
L 72.274244 136.629023 
L 74.942345 132.939363 
L 77.651499 129.124634 
L 80.40258 125.183531 
L 83.196487 121.114601 
L 86.034141 116.916243 
L 88.916489 112.586707 
L 91.844501 108.124092 
L 94.819171 103.526348 
L 97.841522 98.79127 
L 100.912601 93.916503 
L 104.033486 88.899536 
L 107.205278 83.737704 
L 110.429113 78.428185 
L 113.706151 72.968 
L 113.706151 72.968 
L 115.364994 70.180434 
L 117.037588 67.354013 
" style="fill:none;stroke:#bfbf00;stroke-linecap:square;stroke-width:1.5;"/>
   </g>
   <g id="line2d_24">
    <path clip-path="url(#p25febf7dfd)" d="M 74.196011 73.918134 
L 76.832146 67.864313 
L 79.508037 61.665208 
L 79.508037 61.665208 
L 80.86115 58.509892 
L 82.224514 55.316697 
" style="fill:none;stroke:#bfbf00;stroke-linecap:square;stroke-width:1.5;"/>
   </g>
   <g id="line2d_25">
    <path clip-path="url(#p25febf7dfd)" d="M 70.807782 215.308808 
L 73.434959 211.756134 
L 76.102193 208.127474 
L 78.810333 204.420904 
L 81.560248 200.634425 
L 84.352828 196.76596 
L 87.188987 192.813359 
L 90.069664 188.774391 
L 92.995821 184.646749 
L 95.968443 180.428046 
L 98.988545 176.115811 
L 102.057164 171.707488 
L 105.175366 167.200435 
L 108.344244 162.59192 
L 111.56492 157.879116 
L 114.838545 153.059101 
L 118.166301 148.128853 
L 121.549397 143.085247 
L 124.989079 137.925049 
L 128.48662 132.644915 
L 132.043329 127.241383 
L 135.66055 121.710874 
L 139.339658 116.049679 
L 143.082067 110.253963 
L 146.889227 104.319751 
L 150.762623 98.242929 
L 154.703781 92.019232 
L 154.703781 92.019232 
L 156.700257 88.850931 
L 158.714264 85.644243 
" style="fill:none;stroke:#bfbf00;stroke-linecap:square;stroke-width:1.5;"/>
   </g>
   <g id="line2d_26">
    <path clip-path="url(#p25febf7dfd)" d="M 74.670156 149.762406 
L 77.332872 144.861507 
L 80.035969 139.833716 
L 82.780285 134.675667 
L 85.566683 129.383811 
L 88.396044 123.954422 
L 91.269275 118.383586 
L 94.187301 112.667207 
L 97.151073 106.800992 
L 100.161566 100.780454 
L 103.219777 94.600904 
L 106.32673 88.257442 
L 109.483475 81.744954 
L 112.691086 75.058101 
L 112.691086 75.058101 
L 114.314309 71.647557 
L 115.950665 68.191314 
" style="fill:none;stroke:#bfbf00;stroke-linecap:square;stroke-width:1.5;"/>
   </g>
   <g id="line2d_27">
    <path clip-path="url(#p25febf7dfd)" d="M 67.201619 144.376585 
L 69.80126 139.621023 
L 72.440614 134.745048 
L 75.120526 129.745645 
L 77.841861 124.619638 
L 80.605509 119.363683 
L 83.41238 113.974269 
L 86.263412 108.447711 
L 89.159564 102.780151 
L 92.101822 96.967548 
L 95.091197 91.005677 
L 98.128728 84.890118 
L 101.21548 78.616255 
L 104.352547 72.179264 
L 104.352547 72.179264 
L 105.940299 68.898031 
L 107.541053 65.574109 
" style="fill:none;stroke:#bfbf00;stroke-linecap:square;stroke-width:1.5;"/>
   </g>
   <g id="line2d_28">
    <path clip-path="url(#p25febf7dfd)" d="M 84.264097 127.503213 
L 86.943715 122.957007 
L 89.663121 118.305843 
L 92.423131 113.547512 
L 95.224583 108.679703 
L 98.068333 103.699999 
L 100.95526 98.605879 
L 103.886263 93.394716 
L 106.862267 88.063772 
L 109.884215 82.610203 
L 112.953077 77.031051 
L 116.069846 71.323246 
L 116.069846 71.323246 
L 117.646514 68.420108 
" style="fill:none;stroke:#bfbf00;stroke-linecap:square;stroke-width:1.5;"/>
   </g>
   <g id="line2d_29">
    <path clip-path="url(#p25febf7dfd)" d="M 59.424339 194.471753 
L 62.011293 193.156745 
L 64.638621 191.674383 
L 67.307195 190.025528 
L 70.017913 188.211244 
L 72.771694 186.232732 
L 75.569483 184.091271 
L 78.412249 181.788161 
L 81.300986 179.324667 
L 84.236717 176.701977 
L 87.220488 173.921159 
L 90.253376 170.983127 
L 93.336485 167.888617 
L 96.47095 164.638159 
L 99.657934 161.232063 
L 102.898631 157.670406 
L 106.19427 153.953022 
L 109.546109 150.079495 
L 112.955441 146.04916 
L 116.423594 141.861096 
L 119.951931 137.514128 
L 123.541849 133.006829 
L 127.194785 128.337524 
L 130.912214 123.504289 
L 134.695647 118.504955 
L 138.546638 113.337114 
L 142.466779 107.998121 
L 146.457708 102.485097 
L 150.5211 96.794932 
L 154.658678 90.924289 
L 154.658678 90.924289 
L 156.755837 87.920184 
L 158.872208 84.869607 
" style="fill:none;stroke:#bfbf00;stroke-linecap:square;stroke-width:1.5;"/>
   </g>
   <g id="line2d_30">
    <path clip-path="url(#p25febf7dfd)" d="M 68.168334 153.675782 
L 70.765175 149.272975 
L 73.401438 144.76298 
L 76.077954 140.14349 
L 78.795574 135.412063 
L 81.55517 130.566123 
L 84.35764 125.602963 
L 87.2039 120.519745 
L 90.094895 115.313493 
L 93.031589 109.981101 
L 96.014976 104.519323 
L 99.046072 98.924773 
L 102.125921 93.193926 
L 105.255595 87.32311 
L 108.43619 81.308506 
L 111.668836 75.14614 
L 111.668836 75.14614 
L 113.305038 72.008262 
L 114.954689 68.831884 
" style="fill:none;stroke:#bfbf00;stroke-linecap:square;stroke-width:1.5;"/>
   </g>
   <g id="line2d_31">
    <path clip-path="url(#p25febf7dfd)" d="M 55.030507 155.589666 
L 57.55962 150.996749 
L 60.128052 146.281332 
L 62.736661 141.440542 
L 65.386327 136.471313 
L 68.077955 131.370386 
L 70.812474 126.134309 
L 73.590839 120.75943 
L 76.41403 115.241901 
L 79.283054 109.577667 
L 82.198948 103.762467 
L 85.162774 97.791823 
L 88.175626 91.661038 
L 91.238629 85.365187 
L 94.352936 78.899105 
L 97.519734 72.257385 
L 100.740246 65.43436 
L 100.740246 65.43436 
L 102.371034 61.953015 
" style="fill:none;stroke:#bfbf00;stroke-linecap:square;stroke-width:1.5;"/>
   </g>
   <g id="line2d_32">
    <path clip-path="url(#p25febf7dfd)" d="M 62.897691 107.832057 
L 65.469552 102.544475 
L 68.080837 97.141591 
L 70.732389 91.620332 
L 73.425071 85.977522 
L 76.159768 80.209887 
L 78.937389 74.314045 
L 81.758868 68.286503 
L 84.625161 62.123658 
L 84.625161 62.123658 
L 86.07542 58.990338 
L 87.537253 55.821788 
" style="fill:none;stroke:#bfbf00;stroke-linecap:square;stroke-width:1.5;"/>
   </g>
   <g id="line2d_33">
    <path clip-path="url(#p25febf7dfd)" d="M 46.145455 162.015862 
L 48.615842 157.819323 
L 51.125148 153.521423 
L 53.674242 149.120193 
L 56.264019 144.613539 
L 58.895398 139.999236 
L 61.569323 135.274934 
L 64.286766 130.438158 
L 67.048728 125.486309 
L 69.856236 120.416662 
L 72.710349 115.226368 
L 75.612155 109.91245 
L 78.562775 104.471805 
L 81.563362 98.901196 
L 84.615102 93.197257 
L 87.719217 87.356483 
L 90.876965 81.375231 
L 94.089641 75.249715 
L 97.358578 68.976002 
L 97.358578 68.976002 
L 99.014571 65.782301 
L 100.685148 62.550008 
" style="fill:none;stroke:#bfbf00;stroke-linecap:square;stroke-width:1.5;"/>
   </g>
   <g id="line2d_34">
    <path clip-path="url(#p25febf7dfd)" d="M 81.445563 164.116662 
L 84.139946 160.082808 
L 86.874791 155.940649 
L 89.65093 151.688391 
L 92.469215 147.324069 
L 95.330516 142.845546 
L 98.235728 138.250523 
L 101.185765 133.536536 
L 104.181565 128.700959 
L 107.224086 123.741004 
L 110.314314 118.653721 
L 113.453253 113.435997 
L 116.641936 108.084555 
L 119.881418 102.59595 
L 123.172782 96.966569 
L 126.517134 91.192626 
L 129.915609 85.270156 
L 133.369368 79.195015 
L 133.369368 79.195015 
L 135.11735 76.098847 
" style="fill:none;stroke:#bfbf00;stroke-linecap:square;stroke-width:1.5;"/>
   </g>
   <g id="line2d_35">
    <path clip-path="url(#p25febf7dfd)" d="M 85.396132 95.549304 
L 88.09088 90.650078 
L 90.825466 85.628457 
L 93.600694 80.481897 
L 96.417389 75.207734 
L 99.276394 69.803182 
L 102.178572 64.265333 
L 102.178572 64.265333 
L 103.646127 61.44548 
" style="fill:none;stroke:#bfbf00;stroke-linecap:square;stroke-width:1.5;"/>
   </g>
   <g id="line2d_36">
    <path clip-path="url(#p25febf7dfd)" d="M 67.489403 153.142763 
L 70.103367 148.319318 
L 72.757346 143.370391 
L 75.452189 138.292633 
L 78.188767 133.082508 
L 80.96797 127.736293 
L 83.790714 122.250073 
L 86.657938 116.619736 
L 89.570605 110.840971 
L 92.529703 104.909257 
L 95.536246 98.819863 
L 98.591272 92.567835 
L 101.695851 86.147991 
L 104.851075 79.55491 
L 108.058069 72.782924 
L 108.058069 72.782924 
L 109.681339 69.328 
L 111.317986 65.826106 
" style="fill:none;stroke:#bfbf00;stroke-linecap:square;stroke-width:1.5;"/>
   </g>
   <g id="line2d_37">
    <path clip-path="url(#p25febf7dfd)" d="M 55.929439 44.443636 
L 87.570507 57.590309 
L 125.454198 73.585828 
L 184.322716 98.720777 
L 242.666252 123.571386 
L 249.054545 126.269702 
L 249.054545 126.269702 
" style="fill:none;stroke:#008000;stroke-linecap:square;stroke-width:1.5;"/>
   </g>
   <g id="patch_3">
    <path d="M 36 252 
L 36 34.56 
" style="fill:none;stroke:#000000;stroke-linecap:square;stroke-linejoin:miter;stroke-width:0.8;"/>
   </g>
   <g id="patch_4">
    <path d="M 259.2 252 
L 259.2 34.56 
" style="fill:none;stroke:#000000;stroke-linecap:square;stroke-linejoin:miter;stroke-width:0.8;"/>
   </g>
   <g id="patch_5">
    <path d="M 36 252 
L 259.2 252 
" style="fill:none;stroke:#000000;stroke-linecap:square;stroke-linejoin:miter;stroke-width:0.8;"/>
   </g>
   <g id="patch_6">
    <path d="M 36 34.56 
L 259.2 34.56 
" style="fill:none;stroke:#000000;stroke-linecap:square;stroke-linejoin:miter;stroke-width:0.8;"/>
   </g>
   <g id="text_13">
    <!--  0.79 -->
    <defs>
     <path id="DejaVuSans-32"/>
     <path d="M 8.203125 72.90625 
L 55.078125 72.90625 
L 55.078125 68.703125 
L 28.609375 0 
L 18.3125 0 
L 43.21875 64.59375 
L 8.203125 64.59375 
z
" id="DejaVuSans-55"/>
     <path d="M 10.984375 1.515625 
L 10.984375 10.5 
Q 14.703125 8.734375 18.5 7.8125 
Q 22.3125 6.890625 25.984375 6.890625 
Q 35.75 6.890625 40.890625 13.453125 
Q 46.046875 20.015625 46.78125 33.40625 
Q 43.953125 29.203125 39.59375 26.953125 
Q 35.25 24.703125 29.984375 24.703125 
Q 19.046875 24.703125 12.671875 31.3125 
Q 6.296875 37.9375 6.296875 49.421875 
Q 6.296875 60.640625 12.9375 67.421875 
Q 19.578125 74.21875 30.609375 74.21875 
Q 43.265625 74.21875 49.921875 64.515625 
Q 56.59375 54.828125 56.59375 36.375 
Q 56.59375 19.140625 48.40625 8.859375 
Q 40.234375 -1.421875 26.421875 -1.421875 
Q 22.703125 -1.421875 18.890625 -0.6875 
Q 15.09375 0.046875 10.984375 1.515625 
z
M 30.609375 32.421875 
Q 37.25 32.421875 41.125 36.953125 
Q 45.015625 41.5 45.015625 49.421875 
Q 45.015625 57.28125 41.125 61.84375 
Q 37.25 66.40625 30.609375 66.40625 
Q 23.96875 66.40625 20.09375 61.84375 
Q 16.21875 57.28125 16.21875 49.421875 
Q 16.21875 41.5 20.09375 36.953125 
Q 23.96875 32.421875 30.609375 32.421875 
z
" id="DejaVuSans-57"/>
    </defs>
    <g transform="translate(137.549039 75.800931)scale(0.1 -0.1)">
     <use xlink:href="#DejaVuSans-32"/>
     <use x="31.787109" xlink:href="#DejaVuSans-48"/>
     <use x="95.410156" xlink:href="#DejaVuSans-46"/>
     <use x="127.197266" xlink:href="#DejaVuSans-55"/>
     <use x="190.820312" xlink:href="#DejaVuSans-57"/>
    </g>
   </g>
   <g id="text_14">
    <!--  f=1 -->
    <defs>
     <path d="M 37.109375 75.984375 
L 37.109375 68.5 
L 28.515625 68.5 
Q 23.6875 68.5 21.796875 66.546875 
Q 19.921875 64.59375 19.921875 59.515625 
L 19.921875 54.6875 
L 34.71875 54.6875 
L 34.71875 47.703125 
L 19.921875 47.703125 
L 19.921875 0 
L 10.890625 0 
L 10.890625 47.703125 
L 2.296875 47.703125 
L 2.296875 54.6875 
L 10.890625 54.6875 
L 10.890625 58.5 
Q 10.890625 67.625 15.140625 71.796875 
Q 19.390625 75.984375 28.609375 75.984375 
z
" id="DejaVuSans-102"/>
     <path d="M 10.59375 45.40625 
L 73.1875 45.40625 
L 73.1875 37.203125 
L 10.59375 37.203125 
z
M 10.59375 25.484375 
L 73.1875 25.484375 
L 73.1875 17.1875 
L 10.59375 17.1875 
z
" id="DejaVuSans-61"/>
    </defs>
    <g transform="translate(49.753607 187.245042)scale(0.1 -0.1)">
     <use xlink:href="#DejaVuSans-32"/>
     <use x="31.787109" xlink:href="#DejaVuSans-102"/>
     <use x="66.992188" xlink:href="#DejaVuSans-61"/>
     <use x="150.78125" xlink:href="#DejaVuSans-49"/>
    </g>
   </g>
  </g>
 </g>
 <defs>
  <clipPath id="p25febf7dfd">
   <rect height="217.44" width="223.2" x="36" y="34.56"/>
  </clipPath>
 </defs>
</svg>
