<?xml version="1.0" encoding="utf-8" standalone="no"?>
<!DOCTYPE svg PUBLIC "-//W3C//DTD SVG 1.1//EN"
  "http://www.w3.org/Graphics/SVG/1.1/DTD/svg11.dtd">
<!-- Created with matplotlib (https://matplotlib.org/) -->
<svg height="288pt" version="1.1" viewBox="0 0 288 288" width="288pt" xmlns="http://www.w3.org/2000/svg" xmlns:xlink="http://www.w3.org/1999/xlink">
 <defs>
  <style type="text/css">
*{stroke-linecap:butt;stroke-linejoin:round;}
  </style>
 </defs>
 <g id="figure_1">
  <g id="patch_1">
   <path d="M 0 288 
L 288 288 
L 288 0 
L 0 0 
z
" style="fill:#ffffff;"/>
  </g>
  <g id="axes_1">
   <g id="patch_2">
    <path d="M 36 252 
L 259.2 252 
L 259.2 34.56 
L 36 34.56 
z
" style="fill:#ffffff;"/>
   </g>
   <g id="matplotlib.axis_1">
    <g id="xtick_1">
     <g id="line2d_1">
      <defs>
       <path d="M 0 0 
L 0 3.5 
" id="m01f50bd7aa" style="stroke:#000000;stroke-width:0.8;"/>
      </defs>
      <g>
       <use style="stroke:#000000;stroke-width:0.8;" x="46.145455" xlink:href="#m01f50bd7aa" y="252"/>
      </g>
     </g>
     <g id="text_1">
      <!-- 0 -->
      <defs>
       <path d="M 31.78125 66.40625 
Q 24.171875 66.40625 20.328125 58.90625 
Q 16.5 51.421875 16.5 36.375 
Q 16.5 21.390625 20.328125 13.890625 
Q 24.171875 6.390625 31.78125 6.390625 
Q 39.453125 6.390625 43.28125 13.890625 
Q 47.125 21.390625 47.125 36.375 
Q 47.125 51.421875 43.28125 58.90625 
Q 39.453125 66.40625 31.78125 66.40625 
z
M 31.78125 74.21875 
Q 44.046875 74.21875 50.515625 64.515625 
Q 56.984375 54.828125 56.984375 36.375 
Q 56.984375 17.96875 50.515625 8.265625 
Q 44.046875 -1.421875 31.78125 -1.421875 
Q 19.53125 -1.421875 13.0625 8.265625 
Q 6.59375 17.96875 6.59375 36.375 
Q 6.59375 54.828125 13.0625 64.515625 
Q 19.53125 74.21875 31.78125 74.21875 
z
" id="DejaVuSans-48"/>
      </defs>
      <g transform="translate(42.964205 266.598437)scale(0.1 -0.1)">
       <use xlink:href="#DejaVuSans-48"/>
      </g>
     </g>
    </g>
    <g id="xtick_2">
     <g id="line2d_2">
      <g>
       <use style="stroke:#000000;stroke-width:0.8;" x="92.090502" xlink:href="#m01f50bd7aa" y="252"/>
      </g>
     </g>
     <g id="text_2">
      <!-- 10 -->
      <defs>
       <path d="M 12.40625 8.296875 
L 28.515625 8.296875 
L 28.515625 63.921875 
L 10.984375 60.40625 
L 10.984375 69.390625 
L 28.421875 72.90625 
L 38.28125 72.90625 
L 38.28125 8.296875 
L 54.390625 8.296875 
L 54.390625 0 
L 12.40625 0 
z
" id="DejaVuSans-49"/>
      </defs>
      <g transform="translate(85.728002 266.598437)scale(0.1 -0.1)">
       <use xlink:href="#DejaVuSans-49"/>
       <use x="63.623047" xlink:href="#DejaVuSans-48"/>
      </g>
     </g>
    </g>
    <g id="xtick_3">
     <g id="line2d_3">
      <g>
       <use style="stroke:#000000;stroke-width:0.8;" x="138.035548" xlink:href="#m01f50bd7aa" y="252"/>
      </g>
     </g>
     <g id="text_3">
      <!-- 20 -->
      <defs>
       <path d="M 19.1875 8.296875 
L 53.609375 8.296875 
L 53.609375 0 
L 7.328125 0 
L 7.328125 8.296875 
Q 12.9375 14.109375 22.625 23.890625 
Q 32.328125 33.6875 34.8125 36.53125 
Q 39.546875 41.84375 41.421875 45.53125 
Q 43.3125 49.21875 43.3125 52.78125 
Q 43.3125 58.59375 39.234375 62.25 
Q 35.15625 65.921875 28.609375 65.921875 
Q 23.96875 65.921875 18.8125 64.3125 
Q 13.671875 62.703125 7.8125 59.421875 
L 7.8125 69.390625 
Q 13.765625 71.78125 18.9375 73 
Q 24.125 74.21875 28.421875 74.21875 
Q 39.75 74.21875 46.484375 68.546875 
Q 53.21875 62.890625 53.21875 53.421875 
Q 53.21875 48.921875 51.53125 44.890625 
Q 49.859375 40.875 45.40625 35.40625 
Q 44.1875 33.984375 37.640625 27.21875 
Q 31.109375 20.453125 19.1875 8.296875 
z
" id="DejaVuSans-50"/>
      </defs>
      <g transform="translate(131.673048 266.598437)scale(0.1 -0.1)">
       <use xlink:href="#DejaVuSans-50"/>
       <use x="63.623047" xlink:href="#DejaVuSans-48"/>
      </g>
     </g>
    </g>
    <g id="xtick_4">
     <g id="line2d_4">
      <g>
       <use style="stroke:#000000;stroke-width:0.8;" x="183.980595" xlink:href="#m01f50bd7aa" y="252"/>
      </g>
     </g>
     <g id="text_4">
      <!-- 30 -->
      <defs>
       <path d="M 40.578125 39.3125 
Q 47.65625 37.796875 51.625 33 
Q 55.609375 28.21875 55.609375 21.1875 
Q 55.609375 10.40625 48.1875 4.484375 
Q 40.765625 -1.421875 27.09375 -1.421875 
Q 22.515625 -1.421875 17.65625 -0.515625 
Q 12.796875 0.390625 7.625 2.203125 
L 7.625 11.71875 
Q 11.71875 9.328125 16.59375 8.109375 
Q 21.484375 6.890625 26.8125 6.890625 
Q 36.078125 6.890625 40.9375 10.546875 
Q 45.796875 14.203125 45.796875 21.1875 
Q 45.796875 27.640625 41.28125 31.265625 
Q 36.765625 34.90625 28.71875 34.90625 
L 20.21875 34.90625 
L 20.21875 43.015625 
L 29.109375 43.015625 
Q 36.375 43.015625 40.234375 45.921875 
Q 44.09375 48.828125 44.09375 54.296875 
Q 44.09375 59.90625 40.109375 62.90625 
Q 36.140625 65.921875 28.71875 65.921875 
Q 24.65625 65.921875 20.015625 65.03125 
Q 15.375 64.15625 9.8125 62.3125 
L 9.8125 71.09375 
Q 15.4375 72.65625 20.34375 73.4375 
Q 25.25 74.21875 29.59375 74.21875 
Q 40.828125 74.21875 47.359375 69.109375 
Q 53.90625 64.015625 53.90625 55.328125 
Q 53.90625 49.265625 50.4375 45.09375 
Q 46.96875 40.921875 40.578125 39.3125 
z
" id="DejaVuSans-51"/>
      </defs>
      <g transform="translate(177.618095 266.598437)scale(0.1 -0.1)">
       <use xlink:href="#DejaVuSans-51"/>
       <use x="63.623047" xlink:href="#DejaVuSans-48"/>
      </g>
     </g>
    </g>
    <g id="xtick_5">
     <g id="line2d_5">
      <g>
       <use style="stroke:#000000;stroke-width:0.8;" x="229.925642" xlink:href="#m01f50bd7aa" y="252"/>
      </g>
     </g>
     <g id="text_5">
      <!-- 40 -->
      <defs>
       <path d="M 37.796875 64.3125 
L 12.890625 25.390625 
L 37.796875 25.390625 
z
M 35.203125 72.90625 
L 47.609375 72.90625 
L 47.609375 25.390625 
L 58.015625 25.390625 
L 58.015625 17.1875 
L 47.609375 17.1875 
L 47.609375 0 
L 37.796875 0 
L 37.796875 17.1875 
L 4.890625 17.1875 
L 4.890625 26.703125 
z
" id="DejaVuSans-52"/>
      </defs>
      <g transform="translate(223.563142 266.598437)scale(0.1 -0.1)">
       <use xlink:href="#DejaVuSans-52"/>
       <use x="63.623047" xlink:href="#DejaVuSans-48"/>
      </g>
     </g>
    </g>
    <g id="text_6">
     <!-- Inclination -->
     <defs>
      <path d="M 9.8125 72.90625 
L 19.671875 72.90625 
L 19.671875 0 
L 9.8125 0 
z
" id="DejaVuSans-73"/>
      <path d="M 54.890625 33.015625 
L 54.890625 0 
L 45.90625 0 
L 45.90625 32.71875 
Q 45.90625 40.484375 42.875 44.328125 
Q 39.84375 48.1875 33.796875 48.1875 
Q 26.515625 48.1875 22.3125 43.546875 
Q 18.109375 38.921875 18.109375 30.90625 
L 18.109375 0 
L 9.078125 0 
L 9.078125 54.6875 
L 18.109375 54.6875 
L 18.109375 46.1875 
Q 21.34375 51.125 25.703125 53.5625 
Q 30.078125 56 35.796875 56 
Q 45.21875 56 50.046875 50.171875 
Q 54.890625 44.34375 54.890625 33.015625 
z
" id="DejaVuSans-110"/>
      <path d="M 48.78125 52.59375 
L 48.78125 44.1875 
Q 44.96875 46.296875 41.140625 47.34375 
Q 37.3125 48.390625 33.40625 48.390625 
Q 24.65625 48.390625 19.8125 42.84375 
Q 14.984375 37.3125 14.984375 27.296875 
Q 14.984375 17.28125 19.8125 11.734375 
Q 24.65625 6.203125 33.40625 6.203125 
Q 37.3125 6.203125 41.140625 7.25 
Q 44.96875 8.296875 48.78125 10.40625 
L 48.78125 2.09375 
Q 45.015625 0.34375 40.984375 -0.53125 
Q 36.96875 -1.421875 32.421875 -1.421875 
Q 20.0625 -1.421875 12.78125 6.34375 
Q 5.515625 14.109375 5.515625 27.296875 
Q 5.515625 40.671875 12.859375 48.328125 
Q 20.21875 56 33.015625 56 
Q 37.15625 56 41.109375 55.140625 
Q 45.0625 54.296875 48.78125 52.59375 
z
" id="DejaVuSans-99"/>
      <path d="M 9.421875 75.984375 
L 18.40625 75.984375 
L 18.40625 0 
L 9.421875 0 
z
" id="DejaVuSans-108"/>
      <path d="M 9.421875 54.6875 
L 18.40625 54.6875 
L 18.40625 0 
L 9.421875 0 
z
M 9.421875 75.984375 
L 18.40625 75.984375 
L 18.40625 64.59375 
L 9.421875 64.59375 
z
" id="DejaVuSans-105"/>
      <path d="M 34.28125 27.484375 
Q 23.390625 27.484375 19.1875 25 
Q 14.984375 22.515625 14.984375 16.5 
Q 14.984375 11.71875 18.140625 8.90625 
Q 21.296875 6.109375 26.703125 6.109375 
Q 34.1875 6.109375 38.703125 11.40625 
Q 43.21875 16.703125 43.21875 25.484375 
L 43.21875 27.484375 
z
M 52.203125 31.203125 
L 52.203125 0 
L 43.21875 0 
L 43.21875 8.296875 
Q 40.140625 3.328125 35.546875 0.953125 
Q 30.953125 -1.421875 24.3125 -1.421875 
Q 15.921875 -1.421875 10.953125 3.296875 
Q 6 8.015625 6 15.921875 
Q 6 25.140625 12.171875 29.828125 
Q 18.359375 34.515625 30.609375 34.515625 
L 43.21875 34.515625 
L 43.21875 35.40625 
Q 43.21875 41.609375 39.140625 45 
Q 35.0625 48.390625 27.6875 48.390625 
Q 23 48.390625 18.546875 47.265625 
Q 14.109375 46.140625 10.015625 43.890625 
L 10.015625 52.203125 
Q 14.9375 54.109375 19.578125 55.046875 
Q 24.21875 56 28.609375 56 
Q 40.484375 56 46.34375 49.84375 
Q 52.203125 43.703125 52.203125 31.203125 
z
" id="DejaVuSans-97"/>
      <path d="M 18.3125 70.21875 
L 18.3125 54.6875 
L 36.8125 54.6875 
L 36.8125 47.703125 
L 18.3125 47.703125 
L 18.3125 18.015625 
Q 18.3125 11.328125 20.140625 9.421875 
Q 21.96875 7.515625 27.59375 7.515625 
L 36.8125 7.515625 
L 36.8125 0 
L 27.59375 0 
Q 17.1875 0 13.234375 3.875 
Q 9.28125 7.765625 9.28125 18.015625 
L 9.28125 47.703125 
L 2.6875 47.703125 
L 2.6875 54.6875 
L 9.28125 54.6875 
L 9.28125 70.21875 
z
" id="DejaVuSans-116"/>
      <path d="M 30.609375 48.390625 
Q 23.390625 48.390625 19.1875 42.75 
Q 14.984375 37.109375 14.984375 27.296875 
Q 14.984375 17.484375 19.15625 11.84375 
Q 23.34375 6.203125 30.609375 6.203125 
Q 37.796875 6.203125 41.984375 11.859375 
Q 46.1875 17.53125 46.1875 27.296875 
Q 46.1875 37.015625 41.984375 42.703125 
Q 37.796875 48.390625 30.609375 48.390625 
z
M 30.609375 56 
Q 42.328125 56 49.015625 48.375 
Q 55.71875 40.765625 55.71875 27.296875 
Q 55.71875 13.875 49.015625 6.21875 
Q 42.328125 -1.421875 30.609375 -1.421875 
Q 18.84375 -1.421875 12.171875 6.21875 
Q 5.515625 13.875 5.515625 27.296875 
Q 5.515625 40.765625 12.171875 48.375 
Q 18.84375 56 30.609375 56 
z
" id="DejaVuSans-111"/>
     </defs>
     <g transform="translate(121.61875 280.276563)scale(0.1 -0.1)">
      <use xlink:href="#DejaVuSans-73"/>
      <use x="29.492188" xlink:href="#DejaVuSans-110"/>
      <use x="92.871094" xlink:href="#DejaVuSans-99"/>
      <use x="147.851562" xlink:href="#DejaVuSans-108"/>
      <use x="175.634766" xlink:href="#DejaVuSans-105"/>
      <use x="203.417969" xlink:href="#DejaVuSans-110"/>
      <use x="266.796875" xlink:href="#DejaVuSans-97"/>
      <use x="328.076172" xlink:href="#DejaVuSans-116"/>
      <use x="367.285156" xlink:href="#DejaVuSans-105"/>
      <use x="395.068359" xlink:href="#DejaVuSans-111"/>
      <use x="456.25" xlink:href="#DejaVuSans-110"/>
     </g>
    </g>
   </g>
   <g id="matplotlib.axis_2">
    <g id="ytick_1">
     <g id="line2d_6">
      <defs>
       <path d="M 0 0 
L -3.5 0 
" id="m0c84c75b73" style="stroke:#000000;stroke-width:0.8;"/>
      </defs>
      <g>
       <use style="stroke:#000000;stroke-width:0.8;" x="36" xlink:href="#m0c84c75b73" y="242.116364"/>
      </g>
     </g>
     <g id="text_7">
      <!-- 0.0 -->
      <defs>
       <path d="M 10.6875 12.40625 
L 21 12.40625 
L 21 0 
L 10.6875 0 
z
" id="DejaVuSans-46"/>
      </defs>
      <g transform="translate(13.096875 245.915582)scale(0.1 -0.1)">
       <use xlink:href="#DejaVuSans-48"/>
       <use x="63.623047" xlink:href="#DejaVuSans-46"/>
       <use x="95.410156" xlink:href="#DejaVuSans-48"/>
      </g>
     </g>
    </g>
    <g id="ytick_2">
     <g id="line2d_7">
      <g>
       <use style="stroke:#000000;stroke-width:0.8;" x="36" xlink:href="#m0c84c75b73" y="199.195553"/>
      </g>
     </g>
     <g id="text_8">
      <!-- 0.5 -->
      <defs>
       <path d="M 10.796875 72.90625 
L 49.515625 72.90625 
L 49.515625 64.59375 
L 19.828125 64.59375 
L 19.828125 46.734375 
Q 21.96875 47.46875 24.109375 47.828125 
Q 26.265625 48.1875 28.421875 48.1875 
Q 40.625 48.1875 47.75 41.5 
Q 54.890625 34.8125 54.890625 23.390625 
Q 54.890625 11.625 47.5625 5.09375 
Q 40.234375 -1.421875 26.90625 -1.421875 
Q 22.3125 -1.421875 17.546875 -0.640625 
Q 12.796875 0.140625 7.71875 1.703125 
L 7.71875 11.625 
Q 12.109375 9.234375 16.796875 8.0625 
Q 21.484375 6.890625 26.703125 6.890625 
Q 35.15625 6.890625 40.078125 11.328125 
Q 45.015625 15.765625 45.015625 23.390625 
Q 45.015625 31 40.078125 35.4375 
Q 35.15625 39.890625 26.703125 39.890625 
Q 22.75 39.890625 18.8125 39.015625 
Q 14.890625 38.140625 10.796875 36.28125 
z
" id="DejaVuSans-53"/>
      </defs>
      <g transform="translate(13.096875 202.994772)scale(0.1 -0.1)">
       <use xlink:href="#DejaVuSans-48"/>
       <use x="63.623047" xlink:href="#DejaVuSans-46"/>
       <use x="95.410156" xlink:href="#DejaVuSans-53"/>
      </g>
     </g>
    </g>
    <g id="ytick_3">
     <g id="line2d_8">
      <g>
       <use style="stroke:#000000;stroke-width:0.8;" x="36" xlink:href="#m0c84c75b73" y="156.274742"/>
      </g>
     </g>
     <g id="text_9">
      <!-- 1.0 -->
      <g transform="translate(13.096875 160.073961)scale(0.1 -0.1)">
       <use xlink:href="#DejaVuSans-49"/>
       <use x="63.623047" xlink:href="#DejaVuSans-46"/>
       <use x="95.410156" xlink:href="#DejaVuSans-48"/>
      </g>
     </g>
    </g>
    <g id="ytick_4">
     <g id="line2d_9">
      <g>
       <use style="stroke:#000000;stroke-width:0.8;" x="36" xlink:href="#m0c84c75b73" y="113.353931"/>
      </g>
     </g>
     <g id="text_10">
      <!-- 1.5 -->
      <g transform="translate(13.096875 117.15315)scale(0.1 -0.1)">
       <use xlink:href="#DejaVuSans-49"/>
       <use x="63.623047" xlink:href="#DejaVuSans-46"/>
       <use x="95.410156" xlink:href="#DejaVuSans-53"/>
      </g>
     </g>
    </g>
    <g id="ytick_5">
     <g id="line2d_10">
      <g>
       <use style="stroke:#000000;stroke-width:0.8;" x="36" xlink:href="#m0c84c75b73" y="70.433121"/>
      </g>
     </g>
     <g id="text_11">
      <!-- 2.0 -->
      <g transform="translate(13.096875 74.232339)scale(0.1 -0.1)">
       <use xlink:href="#DejaVuSans-50"/>
       <use x="63.623047" xlink:href="#DejaVuSans-46"/>
       <use x="95.410156" xlink:href="#DejaVuSans-48"/>
      </g>
     </g>
    </g>
    <g id="text_12">
     <!-- Elongation -->
     <defs>
      <path d="M 9.8125 72.90625 
L 55.90625 72.90625 
L 55.90625 64.59375 
L 19.671875 64.59375 
L 19.671875 43.015625 
L 54.390625 43.015625 
L 54.390625 34.71875 
L 19.671875 34.71875 
L 19.671875 8.296875 
L 56.78125 8.296875 
L 56.78125 0 
L 9.8125 0 
z
" id="DejaVuSans-69"/>
      <path d="M 45.40625 27.984375 
Q 45.40625 37.75 41.375 43.109375 
Q 37.359375 48.484375 30.078125 48.484375 
Q 22.859375 48.484375 18.828125 43.109375 
Q 14.796875 37.75 14.796875 27.984375 
Q 14.796875 18.265625 18.828125 12.890625 
Q 22.859375 7.515625 30.078125 7.515625 
Q 37.359375 7.515625 41.375 12.890625 
Q 45.40625 18.265625 45.40625 27.984375 
z
M 54.390625 6.78125 
Q 54.390625 -7.171875 48.1875 -13.984375 
Q 42 -20.796875 29.203125 -20.796875 
Q 24.46875 -20.796875 20.265625 -20.09375 
Q 16.0625 -19.390625 12.109375 -17.921875 
L 12.109375 -9.1875 
Q 16.0625 -11.328125 19.921875 -12.34375 
Q 23.78125 -13.375 27.78125 -13.375 
Q 36.625 -13.375 41.015625 -8.765625 
Q 45.40625 -4.15625 45.40625 5.171875 
L 45.40625 9.625 
Q 42.625 4.78125 38.28125 2.390625 
Q 33.9375 0 27.875 0 
Q 17.828125 0 11.671875 7.65625 
Q 5.515625 15.328125 5.515625 27.984375 
Q 5.515625 40.671875 11.671875 48.328125 
Q 17.828125 56 27.875 56 
Q 33.9375 56 38.28125 53.609375 
Q 42.625 51.21875 45.40625 46.390625 
L 45.40625 54.6875 
L 54.390625 54.6875 
z
" id="DejaVuSans-103"/>
     </defs>
     <g transform="translate(7.017187 169.872187)rotate(-90)scale(0.1 -0.1)">
      <use xlink:href="#DejaVuSans-69"/>
      <use x="63.183594" xlink:href="#DejaVuSans-108"/>
      <use x="90.966797" xlink:href="#DejaVuSans-111"/>
      <use x="152.148438" xlink:href="#DejaVuSans-110"/>
      <use x="215.527344" xlink:href="#DejaVuSans-103"/>
      <use x="279.003906" xlink:href="#DejaVuSans-97"/>
      <use x="340.283203" xlink:href="#DejaVuSans-116"/>
      <use x="379.492188" xlink:href="#DejaVuSans-105"/>
      <use x="407.275391" xlink:href="#DejaVuSans-111"/>
      <use x="468.457031" xlink:href="#DejaVuSans-110"/>
     </g>
    </g>
   </g>
   <g id="line2d_11">
    <path clip-path="url(#p0727e9fc6e)" d="M 175.305711 113.099914 
L 176.364258 111.067157 
L 177.438857 108.988695 
L 178.529846 106.863223 
L 179.637571 104.689387 
L 180.762386 102.465791 
L 181.904654 100.190985 
L 183.064749 97.863474 
L 184.243051 95.481706 
L 185.439954 93.044077 
L 186.655858 90.548925 
L 187.891177 87.99453 
L 189.146334 85.379109 
L 190.421762 82.700816 
L 191.717906 79.957739 
L 193.035222 77.147895 
L 194.37418 74.269229 
L 195.735259 71.319611 
L 197.118951 68.296834 
L 198.525763 65.198605 
L 199.956213 62.02255 
L 199.956213 62.02255 
L 200.680467 60.40457 
L 201.410831 58.766202 
" style="fill:none;stroke:#ff0000;stroke-linecap:square;stroke-width:1.5;"/>
   </g>
   <g id="line2d_12">
    <path clip-path="url(#p0727e9fc6e)" d="M 176.113501 134.469699 
L 177.174287 132.882829 
L 178.2511 131.263257 
L 179.344277 129.610185 
L 180.454162 127.922788 
L 181.581107 126.200214 
L 182.725476 124.441584 
L 183.887639 122.645992 
L 185.067978 120.812503 
L 186.266884 118.940157 
L 187.484757 117.027961 
L 188.722009 115.074897 
L 189.979061 113.079916 
L 191.256347 111.041937 
L 192.554311 108.95985 
L 193.873407 106.832512 
L 195.214104 104.658747 
L 196.57688 102.437347 
L 197.962229 100.167068 
L 199.370654 97.846631 
L 200.802673 95.474721 
L 202.258818 93.049986 
L 203.739634 90.571036 
L 205.24568 88.036441 
L 206.77753 85.444731 
L 208.335772 82.794395 
L 209.92101 80.083879 
L 211.533863 77.311585 
L 213.174966 74.475872 
L 214.844972 71.57505 
L 216.544547 68.607382 
L 216.544547 68.607382 
L 217.405637 67.097926 
" style="fill:none;stroke:#bfbf00;stroke-linecap:square;stroke-width:1.5;"/>
   </g>
   <g id="line2d_13">
    <path clip-path="url(#p0727e9fc6e)" d="M 167.961955 128.609582 
L 168.979463 126.847353 
L 170.012864 125.046251 
L 171.062507 123.205198 
L 172.12875 121.323079 
L 173.211959 119.398741 
L 174.312513 117.430992 
L 175.430798 115.418599 
L 176.567215 113.36029 
L 177.722171 111.254746 
L 178.896087 109.100607 
L 180.089396 106.896464 
L 181.302542 104.640861 
L 182.535981 102.332291 
L 183.790182 99.969197 
L 185.065629 97.549966 
L 186.362815 95.07293 
L 187.682253 92.536363 
L 189.024464 89.938479 
L 190.389988 87.277429 
L 191.779379 84.551298 
L 193.193206 81.758106 
L 194.632054 78.8958 
L 196.096525 75.962254 
L 197.587238 72.955267 
L 199.10483 69.872558 
L 200.649954 66.711764 
L 202.223284 63.470435 
L 202.223284 63.470435 
L 203.02074 61.818781 
L 203.82551 60.146034 
" style="fill:none;stroke:#bfbf00;stroke-linecap:square;stroke-width:1.5;"/>
   </g>
   <g id="line2d_14">
    <path clip-path="url(#p0727e9fc6e)" d="M 174.757375 117.338582 
L 175.80844 115.416575 
L 176.875437 113.452449 
L 177.958702 111.445083 
L 179.05858 109.393312 
L 180.175424 107.295932 
L 181.309598 105.151698 
L 182.461474 102.95932 
L 183.631434 100.717463 
L 184.819869 98.424748 
L 186.027182 96.079747 
L 187.253786 93.680984 
L 188.500103 91.22693 
L 189.766569 88.716005 
L 191.05363 86.146576 
L 192.361743 83.516949 
L 193.691378 80.825374 
L 195.043017 78.07004 
L 196.417156 75.249071 
L 197.814303 72.360526 
L 199.234978 69.402395 
L 200.679717 66.372595 
L 202.149069 63.26897 
L 202.149069 63.26897 
L 202.893151 61.688777 
L 203.643599 60.089285 
" style="fill:none;stroke:#bfbf00;stroke-linecap:square;stroke-width:1.5;"/>
   </g>
   <g id="line2d_15">
    <path clip-path="url(#p0727e9fc6e)" d="M 174.164152 93.21538 
L 175.207953 91.06123 
L 176.267563 88.856219 
L 177.343317 86.599242 
L 178.435557 84.289136 
L 179.544635 81.924678 
L 180.670913 79.504589 
L 181.814762 77.027529 
L 182.976561 74.4921 
L 184.156701 71.896841 
L 185.355583 69.240232 
L 186.573618 66.520689 
L 187.811228 63.736564 
L 189.068847 60.886142 
L 190.34692 57.967643 
L 190.34692 57.967643 
L 190.993769 56.482289 
L 191.645903 54.979216 
" style="fill:none;stroke:#bfbf00;stroke-linecap:square;stroke-width:1.5;"/>
   </g>
   <g id="line2d_16">
    <path clip-path="url(#p0727e9fc6e)" d="M 176.733882 129.814988 
L 177.805393 128.959392 
L 178.893133 128.019406 
L 179.99744 126.99788 
L 181.118664 125.897537 
L 182.257158 124.720922 
L 183.41329 123.470356 
L 184.587432 122.147913 
L 185.779969 120.75541 
L 186.991294 119.294398 
L 188.221811 117.76617 
L 189.471933 116.171768 
L 190.742084 114.511992 
L 192.032699 112.787414 
L 193.344225 110.998389 
L 194.677118 109.145071 
L 196.031847 107.227425 
L 197.408893 105.245234 
L 198.808749 103.198116 
L 200.23192 101.085531 
L 201.678925 98.906787 
L 203.150295 96.661054 
L 204.646575 94.347361 
L 206.168322 91.964612 
L 207.71611 89.51158 
L 209.290524 86.986919 
L 210.892168 84.389163 
L 212.521656 81.716725 
L 214.17962 78.967905 
L 215.866707 76.140885 
L 217.58358 73.23373 
L 219.330919 70.244388 
L 219.330919 70.244388 
L 220.21623 68.718223 
" style="fill:none;stroke:#bfbf00;stroke-linecap:square;stroke-width:1.5;"/>
   </g>
   <g id="line2d_17">
    <path clip-path="url(#p0727e9fc6e)" d="M 175.160297 102.040901 
L 176.211496 100.43585 
L 177.278564 98.774378 
L 178.361834 97.05627 
L 179.461646 95.281226 
L 180.578351 93.448866 
L 181.712307 91.558726 
L 182.863882 89.610263 
L 184.033453 87.602855 
L 185.221409 85.5358 
L 186.428145 83.408322 
L 187.654069 81.219568 
L 188.8996 78.96861 
L 190.165165 76.654447 
L 191.451205 74.276003 
L 192.75817 71.832133 
L 194.086524 69.321617 
L 195.436741 66.743166 
L 196.809309 64.095417 
L 198.204727 61.376941 
L 198.204727 61.376941 
L 198.911164 59.990713 
L 199.623508 58.586233 
" style="fill:none;stroke:#bfbf00;stroke-linecap:square;stroke-width:1.5;"/>
   </g>
   <g id="line2d_18">
    <path clip-path="url(#p0727e9fc6e)" d="M 177.319855 141.400522 
L 178.397877 140.058327 
L 179.492194 138.645677 
L 180.603143 137.168407 
L 181.731069 135.630751 
L 182.876328 134.035724 
L 184.039282 132.385422 
L 185.220304 130.681226 
L 186.419775 128.923965 
L 187.638085 127.114035 
L 188.875635 125.251478 
L 190.132835 123.336056 
L 191.410106 121.36729 
L 192.70788 119.344506 
L 194.026597 117.266855 
L 195.36671 115.133339 
L 196.728683 112.942824 
L 198.112992 110.694054 
L 199.520123 108.38566 
L 200.950576 106.016162 
L 202.404861 103.583982 
L 203.883503 101.08744 
L 205.387039 98.524758 
L 206.916017 95.894062 
L 208.471002 93.193382 
L 210.052569 90.420648 
L 211.661311 87.573694 
L 213.29783 84.650248 
L 214.962747 81.647939 
L 216.656695 78.564285 
L 218.380322 75.396692 
L 220.134294 72.142454 
L 220.134294 72.142454 
L 221.02287 70.481963 
L 221.919289 68.79874 
" style="fill:none;stroke:#bfbf00;stroke-linecap:square;stroke-width:1.5;"/>
   </g>
   <g id="line2d_19">
    <path clip-path="url(#p0727e9fc6e)" d="M 182.023198 63.292863 
L 183.11708 60.740846 
L 184.227117 58.126779 
L 185.353635 55.449196 
L 186.496968 52.706569 
L 186.496968 52.706569 
L 187.075048 51.310369 
" style="fill:none;stroke:#bfbf00;stroke-linecap:square;stroke-width:1.5;"/>
   </g>
   <g id="line2d_20">
    <path clip-path="url(#p0727e9fc6e)" d="M 175.503559 123.434435 
L 176.567036 121.885582 
L 177.646676 120.271755 
L 178.74282 118.593746 
L 179.855815 116.852052 
L 180.986017 115.046906 
L 182.133792 113.178292 
L 183.299513 111.245968 
L 184.483566 109.249481 
L 185.686345 107.18818 
L 186.908251 105.061235 
L 188.149701 102.867637 
L 189.411119 100.606215 
L 190.692939 98.275637 
L 191.995609 95.874419 
L 193.319586 93.400925 
L 194.665339 90.853372 
L 196.03335 88.22983 
L 197.424112 85.528222 
L 198.838132 82.746323 
L 200.275927 79.881759 
L 201.738029 76.932003 
L 203.224984 73.89437 
L 204.73735 70.766017 
L 206.2757 67.543933 
L 207.84062 64.224933 
L 207.84062 64.224933 
L 208.633232 62.528046 
" style="fill:none;stroke:#bfbf00;stroke-linecap:square;stroke-width:1.5;"/>
   </g>
   <g id="line2d_21">
    <path clip-path="url(#p0727e9fc6e)" d="M 174.592248 107.558576 
L 175.642895 105.47299 
L 176.709468 103.338609 
L 177.792304 101.154194 
L 178.891746 98.918448 
L 180.008148 96.630015 
L 181.14187 94.287479 
L 182.293285 91.889365 
L 183.462774 89.434139 
L 184.650726 86.920201 
L 185.857545 84.345893 
L 187.08364 81.709486 
L 188.329434 79.009191 
L 189.595361 76.243145 
L 190.881864 73.409417 
L 192.189401 70.506004 
L 193.518439 67.530827 
L 194.86946 64.481727 
L 196.242955 61.356468 
L 196.242955 61.356468 
L 196.938288 59.764557 
L 197.639432 58.152729 
" style="fill:none;stroke:#bfbf00;stroke-linecap:square;stroke-width:1.5;"/>
   </g>
   <g id="line2d_22">
    <path clip-path="url(#p0727e9fc6e)" d="M 180.62364 112.621948 
L 181.712851 110.584614 
L 182.818269 108.501098 
L 183.940225 106.370119 
L 185.079058 104.190346 
L 186.235113 101.960403 
L 187.408747 99.678856 
L 188.600324 97.344223 
L 189.810216 94.954966 
L 191.038806 92.509488 
L 192.286486 90.006137 
L 193.553656 87.443196 
L 194.840727 84.818887 
L 196.14812 82.131366 
L 197.476267 79.378718 
L 198.825609 76.55896 
L 200.196598 73.670031 
L 201.589699 70.709795 
L 203.005386 67.676032 
L 204.444146 64.566438 
L 204.444146 64.566438 
L 205.172334 62.982461 
L 205.906477 61.378622 
" style="fill:none;stroke:#bfbf00;stroke-linecap:square;stroke-width:1.5;"/>
   </g>
   <g id="line2d_23">
    <path clip-path="url(#p0727e9fc6e)" d="M 172.438417 117.195482 
L 173.472182 115.510699 
L 174.521682 113.77586 
L 175.587253 111.99083 
L 176.669237 110.155346 
L 177.767987 108.269018 
L 178.883865 106.331347 
L 180.017242 104.341726 
L 181.1685 102.299452 
L 182.33803 100.203731 
L 183.526234 98.053678 
L 184.733524 95.848327 
L 185.960323 93.586634 
L 187.207068 91.267474 
L 188.474203 88.889649 
L 189.762188 86.451887 
L 191.071494 83.952844 
L 192.402605 81.391105 
L 193.756016 78.765184 
L 195.132239 76.073525 
L 196.531797 73.314499 
L 197.955228 70.486409 
L 199.403086 67.587486 
L 200.875937 64.615888 
L 202.374365 61.569701 
L 202.374365 61.569701 
L 203.133357 60.018018 
" style="fill:none;stroke:#bfbf00;stroke-linecap:square;stroke-width:1.5;"/>
   </g>
   <g id="line2d_24">
    <path clip-path="url(#p0727e9fc6e)" d="M 170.652341 109.064304 
L 171.683851 106.950719 
L 172.731296 104.78817 
L 173.795022 102.575242 
L 174.875381 100.310464 
L 175.972737 97.992308 
L 177.087462 95.619187 
L 178.219939 93.189453 
L 179.370561 90.701392 
L 180.539733 88.153226 
L 181.727868 85.543106 
L 182.935392 82.869114 
L 184.162743 80.129254 
L 185.41037 77.321453 
L 186.678735 74.443556 
L 187.968311 71.493323 
L 189.279586 68.468425 
L 190.61306 65.366438 
L 191.969248 62.184843 
L 193.348678 58.921015 
L 193.348678 58.921015 
L 194.047278 57.257414 
L 194.751892 55.572223 
" style="fill:none;stroke:#bfbf00;stroke-linecap:square;stroke-width:1.5;"/>
   </g>
   <g id="line2d_25">
    <path clip-path="url(#p0727e9fc6e)" d="M 164.746008 145.160445 
L 165.750541 144.004121 
L 166.770992 142.733428 
L 167.807713 141.364985 
L 168.861069 139.910906 
L 169.931432 138.379883 
L 171.019186 136.778068 
L 172.124726 135.109745 
L 173.248457 133.377809 
L 174.390795 131.584125 
L 175.552169 129.729771 
L 176.733019 127.815221 
L 177.933797 125.840472 
L 179.15497 123.805143 
L 180.397016 121.708538 
L 181.660428 119.549699 
L 182.945712 117.327443 
L 184.253388 115.040389 
L 185.583994 112.686979 
L 186.938079 110.265491 
L 188.316212 107.77405 
L 189.718975 105.210637 
L 191.14697 102.573089 
L 192.600813 99.859107 
L 194.081141 97.066252 
L 195.588608 94.191947 
L 197.123886 91.233474 
L 198.687669 88.187972 
L 200.280668 85.052433 
L 201.903619 81.823695 
L 203.557275 78.498441 
L 205.242413 75.073186 
L 206.959833 71.544277 
L 208.710357 67.907877 
L 208.710357 67.907877 
L 209.598297 66.048119 
L 210.494832 64.159964 
" style="fill:none;stroke:#bfbf00;stroke-linecap:square;stroke-width:1.5;"/>
   </g>
   <g id="line2d_26">
    <path clip-path="url(#p0727e9fc6e)" d="M 178.180316 90.026576 
L 179.244251 88.371637 
L 180.323983 86.662075 
L 181.419835 84.897466 
L 182.532139 83.07733 
L 183.661236 81.201129 
L 184.807474 79.268272 
L 185.971209 77.278109 
L 187.152809 75.229935 
L 188.352648 73.122987 
L 189.571111 70.956447 
L 190.808592 68.72944 
L 192.065495 66.441034 
L 193.342234 64.090241 
L 194.639235 61.676017 
L 195.956931 59.197262 
L 195.956931 59.197262 
L 196.62368 57.933325 
L 197.29577 56.652817 
" style="fill:none;stroke:#bfbf00;stroke-linecap:square;stroke-width:1.5;"/>
   </g>
   <g id="line2d_27">
    <path clip-path="url(#p0727e9fc6e)" d="M 172.657025 130.007903 
L 173.70539 128.864996 
L 174.769857 127.641269 
L 175.850768 126.339814 
L 176.948475 124.963337 
L 178.063337 123.514151 
L 179.195725 121.99419 
L 180.346018 120.405024 
L 181.514606 118.747885 
L 182.701887 117.023691 
L 183.908271 115.233067 
L 185.134179 113.376375 
L 186.380041 111.453729 
L 187.646302 109.46502 
L 188.933415 107.409934 
L 190.241846 105.287963 
L 191.572073 103.098426 
L 192.924587 100.840473 
L 194.299893 98.513103 
L 195.698506 96.115168 
L 197.120958 93.645382 
L 198.567791 91.102327 
L 200.039566 88.484458 
L 201.536855 85.790109 
L 203.060245 83.017491 
L 204.61034 80.164703 
L 206.187759 77.229728 
L 207.793135 74.210436 
L 209.42712 71.104586 
L 211.090382 67.909825 
L 211.090382 67.909825 
L 211.933205 66.278338 
L 212.783604 64.623691 
" style="fill:none;stroke:#bfbf00;stroke-linecap:square;stroke-width:1.5;"/>
   </g>
   <g id="line2d_28">
    <path clip-path="url(#p0727e9fc6e)" d="M 172.022592 131.72037 
L 173.064453 131.307967 
L 174.122307 130.788607 
L 175.196494 130.164317 
L 176.287365 129.437635 
L 177.395278 128.611452 
L 178.520601 127.688859 
L 179.663712 126.673005 
L 180.824998 125.566988 
L 182.004858 124.373759 
L 183.203698 123.096062 
L 184.421939 121.736382 
L 185.66001 120.29692 
L 186.918353 118.779582 
L 188.197421 117.185973 
L 189.497677 115.517403 
L 190.819601 113.774897 
L 192.163682 111.95921 
L 193.530422 110.070839 
L 194.920338 108.110039 
L 196.33396 106.07684 
L 197.771832 103.971063 
L 199.234513 101.792327 
L 200.722575 99.540069 
L 202.236607 97.213552 
L 203.777213 94.811876 
L 205.345012 92.333986 
L 206.940642 89.778679 
L 208.564753 87.144615 
L 210.218017 84.43032 
L 211.90112 81.634188 
L 213.614767 78.754492 
L 215.359683 75.789383 
L 217.136607 72.736894 
L 218.946302 69.594942 
L 218.946302 69.594942 
L 219.863681 67.989735 
" style="fill:none;stroke:#bfbf00;stroke-linecap:square;stroke-width:1.5;"/>
   </g>
   <g id="line2d_29">
    <path clip-path="url(#p0727e9fc6e)" d="M 180.822985 117.191182 
L 181.908343 115.593734 
L 183.009749 113.944744 
L 184.12753 112.244357 
L 185.262017 110.492578 
L 186.413553 108.68928 
L 187.582485 106.834216 
L 188.769172 104.927027 
L 189.973979 102.967251 
L 191.197283 100.954329 
L 192.439468 98.887609 
L 193.700926 96.766356 
L 194.982062 94.589753 
L 196.283288 92.356904 
L 197.605027 90.06684 
L 198.947712 87.718524 
L 200.311787 85.310847 
L 201.697706 82.842635 
L 203.105935 80.312651 
L 204.53695 77.719594 
L 205.991238 75.062103 
L 207.4693 72.338757 
L 208.971647 69.548077 
L 210.498803 66.688523 
L 210.498803 66.688523 
L 211.271851 65.232424 
" style="fill:none;stroke:#bfbf00;stroke-linecap:square;stroke-width:1.5;"/>
   </g>
   <g id="line2d_30">
    <path clip-path="url(#p0727e9fc6e)" d="M 172.195229 108.141376 
L 173.239886 106.188305 
L 174.300615 104.181627 
L 175.37776 102.12055 
L 176.471673 100.004185 
L 177.582717 97.831546 
L 178.711262 95.601558 
L 179.857691 93.313052 
L 181.022395 90.964777 
L 182.205776 88.555394 
L 183.408246 86.083481 
L 184.630228 83.547533 
L 185.872158 80.945961 
L 187.134481 78.277091 
L 188.417656 75.539167 
L 189.722153 72.730347 
L 191.048456 69.8487 
L 192.39706 66.892211 
L 193.768474 63.858772 
L 195.163222 60.746183 
L 195.163222 60.746183 
L 195.869514 59.159494 
L 196.581841 57.552149 
" style="fill:none;stroke:#bfbf00;stroke-linecap:square;stroke-width:1.5;"/>
   </g>
   <g id="line2d_31">
    <path clip-path="url(#p0727e9fc6e)" d="M 179.398518 136.809312 
L 180.482852 135.331463 
L 181.583384 133.79484 
L 182.700444 132.201752 
L 183.83437 130.553797 
L 184.985509 128.852001 
L 186.154216 127.096938 
L 187.340853 125.288808 
L 188.545794 123.427506 
L 189.76942 121.512674 
L 191.012119 119.543731 
L 192.274293 117.519911 
L 193.55635 115.440282 
L 194.858709 113.303761 
L 196.1818 111.109131 
L 197.526061 108.855048 
L 198.891942 106.540051 
L 200.279904 104.162566 
L 201.690418 101.720907 
L 203.123966 99.213285 
L 204.581043 96.637802 
L 206.062152 93.992456 
L 207.567813 91.275139 
L 209.098553 88.483635 
L 210.654913 85.615618 
L 212.237448 82.668652 
L 213.846724 79.640187 
L 215.483319 76.527551 
L 217.147825 73.327954 
L 218.840848 70.038478 
L 218.840848 70.038478 
L 219.698246 68.359088 
" style="fill:none;stroke:#bfbf00;stroke-linecap:square;stroke-width:1.5;"/>
   </g>
   <g id="line2d_32">
    <path clip-path="url(#p0727e9fc6e)" d="M 167.054424 130.444221 
L 168.064176 128.743129 
L 169.089696 127.004497 
L 170.131332 125.227454 
L 171.189437 123.41108 
L 172.264378 121.554406 
L 173.356528 119.656421 
L 174.466274 117.716068 
L 175.59401 115.732248 
L 176.740144 113.703823 
L 177.905092 111.629609 
L 179.089286 109.508381 
L 180.293166 107.338872 
L 181.517186 105.11977 
L 182.761812 102.849722 
L 184.027523 100.527326 
L 185.314814 98.151137 
L 186.62419 95.719661 
L 187.956172 93.231358 
L 189.311297 90.684635 
L 190.690115 88.077853 
L 192.093193 85.409318 
L 193.521113 82.677284 
L 194.974474 79.879949 
L 196.453893 77.015457 
L 197.960002 74.081893 
L 199.493453 71.077286 
L 201.054916 67.999603 
L 202.64508 64.846748 
L 202.64508 64.846748 
L 203.451145 63.241461 
L 204.264653 61.616567 
" style="fill:none;stroke:#bfbf00;stroke-linecap:square;stroke-width:1.5;"/>
   </g>
   <g id="line2d_33">
    <path clip-path="url(#p0727e9fc6e)" d="M 46.145455 242.116364 
" style="fill:none;stroke:#bfbf00;stroke-linecap:square;stroke-width:1.5;"/>
   </g>
   <g id="line2d_34">
    <path clip-path="url(#p0727e9fc6e)" d="M 165.431115 122.81145 
L 166.432338 120.868242 
L 167.449263 118.873296 
L 168.482232 116.825555 
L 169.531602 114.723838 
L 170.597736 112.566852 
L 171.68101 110.353195 
L 172.781808 108.081367 
L 173.900525 105.749768 
L 175.037567 103.3567 
L 176.193353 100.900372 
L 177.368312 98.378897 
L 178.562885 95.790292 
L 179.777526 93.132474 
L 181.012701 90.403264 
L 182.268891 87.600378 
L 183.546588 84.721428 
L 184.8463 81.763918 
L 186.168548 78.725237 
L 187.51387 75.60266 
L 188.882817 72.393338 
L 190.275957 69.094297 
L 191.693874 65.702429 
L 193.137169 62.214488 
L 194.606461 58.627083 
L 194.606461 58.627083 
L 195.351054 56.79498 
" style="fill:none;stroke:#bfbf00;stroke-linecap:square;stroke-width:1.5;"/>
   </g>
   <g id="line2d_35">
    <path clip-path="url(#p0727e9fc6e)" d="M 179.326086 107.677705 
L 180.40338 105.537929 
L 181.496696 103.349674 
L 182.606361 101.11155 
L 183.73271 98.822123 
L 184.876087 96.479907 
L 186.036845 94.083367 
L 187.215344 91.630914 
L 188.411954 89.120901 
L 189.627055 86.551627 
L 190.861033 83.921329 
L 192.114287 81.228184 
L 193.387226 78.470303 
L 194.680265 75.645729 
L 195.993835 72.752437 
L 197.328372 69.788327 
L 198.684327 66.751227 
L 200.062161 63.638883 
L 201.462345 60.44896 
L 201.462345 60.44896 
L 202.170969 58.824153 
" style="fill:none;stroke:#bfbf00;stroke-linecap:square;stroke-width:1.5;"/>
   </g>
   <g id="line2d_36">
    <path clip-path="url(#p0727e9fc6e)" d="M 179.232026 98.469249 
L 180.311638 96.331501 
L 181.40743 94.141493 
L 182.519736 91.897961 
L 183.6489 89.599565 
L 184.795274 87.244893 
L 185.959217 84.832459 
L 187.141101 82.360703 
L 188.341302 79.827985 
L 189.56021 77.232587 
L 190.798222 74.572712 
L 192.055746 71.846475 
L 193.3332 69.051907 
L 194.631013 66.186949 
L 195.949624 63.249446 
L 197.289482 60.237147 
L 197.289482 60.237147 
L 197.967524 58.702217 
L 198.651051 57.147698 
" style="fill:none;stroke:#bfbf00;stroke-linecap:square;stroke-width:1.5;"/>
   </g>
   <g id="line2d_37">
    <path clip-path="url(#p0727e9fc6e)" d="M 169.302812 104.575291 
L 170.324697 102.539626 
L 171.362424 100.457883 
L 172.416336 98.329003 
L 173.486786 96.151875 
L 174.574139 93.925336 
L 175.678766 91.648175 
L 176.801049 89.319127 
L 177.941383 86.936877 
L 179.10017 84.500058 
L 180.277826 82.007249 
L 181.474776 79.456975 
L 182.691457 76.847709 
L 183.92832 74.177864 
L 185.185826 71.4458 
L 186.464449 68.649816 
L 187.764678 65.78815 
L 189.087013 62.858981 
L 190.431969 59.860422 
L 191.800074 56.790523 
L 191.800074 56.790523 
L 192.492977 55.228193 
" style="fill:none;stroke:#bfbf00;stroke-linecap:square;stroke-width:1.5;"/>
   </g>
   <g id="line2d_38">
    <path clip-path="url(#p0727e9fc6e)" d="M 170.530426 44.443636 
L 189.754331 54.193736 
L 218.965795 69.29304 
L 249.054545 84.811689 
L 249.054545 84.811689 
" style="fill:none;stroke:#008000;stroke-linecap:square;stroke-width:1.5;"/>
   </g>
   <g id="patch_3">
    <path d="M 36 252 
L 36 34.56 
" style="fill:none;stroke:#000000;stroke-linecap:square;stroke-linejoin:miter;stroke-width:0.8;"/>
   </g>
   <g id="patch_4">
    <path d="M 259.2 252 
L 259.2 34.56 
" style="fill:none;stroke:#000000;stroke-linecap:square;stroke-linejoin:miter;stroke-width:0.8;"/>
   </g>
   <g id="patch_5">
    <path d="M 36 252 
L 259.2 252 
" style="fill:none;stroke:#000000;stroke-linecap:square;stroke-linejoin:miter;stroke-width:0.8;"/>
   </g>
   <g id="patch_6">
    <path d="M 36 34.56 
L 259.2 34.56 
" style="fill:none;stroke:#000000;stroke-linecap:square;stroke-linejoin:miter;stroke-width:0.8;"/>
   </g>
   <g id="text_13">
    <!--  0.79 -->
    <defs>
     <path id="DejaVuSans-32"/>
     <path d="M 8.203125 72.90625 
L 55.078125 72.90625 
L 55.078125 68.703125 
L 28.609375 0 
L 18.3125 0 
L 43.21875 64.59375 
L 8.203125 64.59375 
z
" id="DejaVuSans-55"/>
     <path d="M 10.984375 1.515625 
L 10.984375 10.5 
Q 14.703125 8.734375 18.5 7.8125 
Q 22.3125 6.890625 25.984375 6.890625 
Q 35.75 6.890625 40.890625 13.453125 
Q 46.046875 20.015625 46.78125 33.40625 
Q 43.953125 29.203125 39.59375 26.953125 
Q 35.25 24.703125 29.984375 24.703125 
Q 19.046875 24.703125 12.671875 31.3125 
Q 6.296875 37.9375 6.296875 49.421875 
Q 6.296875 60.640625 12.9375 67.421875 
Q 19.578125 74.21875 30.609375 74.21875 
Q 43.265625 74.21875 49.921875 64.515625 
Q 56.59375 54.828125 56.59375 36.375 
Q 56.59375 19.140625 48.40625 8.859375 
Q 40.234375 -1.421875 26.421875 -1.421875 
Q 22.703125 -1.421875 18.890625 -0.6875 
Q 15.09375 0.046875 10.984375 1.515625 
z
M 30.609375 32.421875 
Q 37.25 32.421875 41.125 36.953125 
Q 45.015625 41.5 45.015625 49.421875 
Q 45.015625 57.28125 41.125 61.84375 
Q 37.25 66.40625 30.609375 66.40625 
Q 23.96875 66.40625 20.09375 61.84375 
Q 16.21875 57.28125 16.21875 49.421875 
Q 16.21875 41.5 20.09375 36.953125 
Q 23.96875 32.421875 30.609375 32.421875 
z
" id="DejaVuSans-57"/>
    </defs>
    <g transform="translate(201.410831 58.766202)scale(0.1 -0.1)">
     <use xlink:href="#DejaVuSans-32"/>
     <use x="31.787109" xlink:href="#DejaVuSans-48"/>
     <use x="95.410156" xlink:href="#DejaVuSans-46"/>
     <use x="127.197266" xlink:href="#DejaVuSans-55"/>
     <use x="190.820312" xlink:href="#DejaVuSans-57"/>
    </g>
   </g>
   <g id="text_14">
    <!--  f=1 -->
    <defs>
     <path d="M 37.109375 75.984375 
L 37.109375 68.5 
L 28.515625 68.5 
Q 23.6875 68.5 21.796875 66.546875 
Q 19.921875 64.59375 19.921875 59.515625 
L 19.921875 54.6875 
L 34.71875 54.6875 
L 34.71875 47.703125 
L 19.921875 47.703125 
L 19.921875 0 
L 10.890625 0 
L 10.890625 47.703125 
L 2.296875 47.703125 
L 2.296875 54.6875 
L 10.890625 54.6875 
L 10.890625 58.5 
Q 10.890625 67.625 15.140625 71.796875 
Q 19.390625 75.984375 28.609375 75.984375 
z
" id="DejaVuSans-102"/>
     <path d="M 10.59375 45.40625 
L 73.1875 45.40625 
L 73.1875 37.203125 
L 10.59375 37.203125 
z
M 10.59375 25.484375 
L 73.1875 25.484375 
L 73.1875 17.1875 
L 10.59375 17.1875 
z
" id="DejaVuSans-61"/>
    </defs>
    <g transform="translate(166.116702 113.099914)scale(0.1 -0.1)">
     <use xlink:href="#DejaVuSans-32"/>
     <use x="31.787109" xlink:href="#DejaVuSans-102"/>
     <use x="66.992188" xlink:href="#DejaVuSans-61"/>
     <use x="150.78125" xlink:href="#DejaVuSans-49"/>
    </g>
   </g>
  </g>
 </g>
 <defs>
  <clipPath id="p0727e9fc6e">
   <rect height="217.44" width="223.2" x="36" y="34.56"/>
  </clipPath>
 </defs>
</svg>
