<?xml version="1.0" encoding="utf-8" standalone="no"?>
<!DOCTYPE svg PUBLIC "-//W3C//DTD SVG 1.1//EN"
  "http://www.w3.org/Graphics/SVG/1.1/DTD/svg11.dtd">
<!-- Created with matplotlib (https://matplotlib.org/) -->
<svg height="288pt" version="1.1" viewBox="0 0 288 288" width="288pt" xmlns="http://www.w3.org/2000/svg" xmlns:xlink="http://www.w3.org/1999/xlink">
 <defs>
  <style type="text/css">
*{stroke-linecap:butt;stroke-linejoin:round;}
  </style>
 </defs>
 <g id="figure_1">
  <g id="patch_1">
   <path d="M 0 288 
L 288 288 
L 288 0 
L 0 0 
z
" style="fill:#ffffff;"/>
  </g>
  <g id="axes_1">
   <g id="patch_2">
    <path d="M 36 252 
L 259.2 252 
L 259.2 34.56 
L 36 34.56 
z
" style="fill:#ffffff;"/>
   </g>
   <g id="matplotlib.axis_1">
    <g id="xtick_1">
     <g id="line2d_1">
      <defs>
       <path d="M 0 0 
L 0 3.5 
" id="m23a3cefccc" style="stroke:#000000;stroke-width:0.8;"/>
      </defs>
      <g>
       <use style="stroke:#000000;stroke-width:0.8;" x="73.449496" xlink:href="#m23a3cefccc" y="252"/>
      </g>
     </g>
     <g id="text_1">
      <!-- 25 -->
      <defs>
       <path d="M 19.1875 8.296875 
L 53.609375 8.296875 
L 53.609375 0 
L 7.328125 0 
L 7.328125 8.296875 
Q 12.9375 14.109375 22.625 23.890625 
Q 32.328125 33.6875 34.8125 36.53125 
Q 39.546875 41.84375 41.421875 45.53125 
Q 43.3125 49.21875 43.3125 52.78125 
Q 43.3125 58.59375 39.234375 62.25 
Q 35.15625 65.921875 28.609375 65.921875 
Q 23.96875 65.921875 18.8125 64.3125 
Q 13.671875 62.703125 7.8125 59.421875 
L 7.8125 69.390625 
Q 13.765625 71.78125 18.9375 73 
Q 24.125 74.21875 28.421875 74.21875 
Q 39.75 74.21875 46.484375 68.546875 
Q 53.21875 62.890625 53.21875 53.421875 
Q 53.21875 48.921875 51.53125 44.890625 
Q 49.859375 40.875 45.40625 35.40625 
Q 44.1875 33.984375 37.640625 27.21875 
Q 31.109375 20.453125 19.1875 8.296875 
z
" id="DejaVuSans-50"/>
       <path d="M 10.796875 72.90625 
L 49.515625 72.90625 
L 49.515625 64.59375 
L 19.828125 64.59375 
L 19.828125 46.734375 
Q 21.96875 47.46875 24.109375 47.828125 
Q 26.265625 48.1875 28.421875 48.1875 
Q 40.625 48.1875 47.75 41.5 
Q 54.890625 34.8125 54.890625 23.390625 
Q 54.890625 11.625 47.5625 5.09375 
Q 40.234375 -1.421875 26.90625 -1.421875 
Q 22.3125 -1.421875 17.546875 -0.640625 
Q 12.796875 0.140625 7.71875 1.703125 
L 7.71875 11.625 
Q 12.109375 9.234375 16.796875 8.0625 
Q 21.484375 6.890625 26.703125 6.890625 
Q 35.15625 6.890625 40.078125 11.328125 
Q 45.015625 15.765625 45.015625 23.390625 
Q 45.015625 31 40.078125 35.4375 
Q 35.15625 39.890625 26.703125 39.890625 
Q 22.75 39.890625 18.8125 39.015625 
Q 14.890625 38.140625 10.796875 36.28125 
z
" id="DejaVuSans-53"/>
      </defs>
      <g transform="translate(67.086996 266.598437)scale(0.1 -0.1)">
       <use xlink:href="#DejaVuSans-50"/>
       <use x="63.623047" xlink:href="#DejaVuSans-53"/>
      </g>
     </g>
    </g>
    <g id="xtick_2">
     <g id="line2d_2">
      <g>
       <use style="stroke:#000000;stroke-width:0.8;" x="129.492901" xlink:href="#m23a3cefccc" y="252"/>
      </g>
     </g>
     <g id="text_2">
      <!-- 30 -->
      <defs>
       <path d="M 40.578125 39.3125 
Q 47.65625 37.796875 51.625 33 
Q 55.609375 28.21875 55.609375 21.1875 
Q 55.609375 10.40625 48.1875 4.484375 
Q 40.765625 -1.421875 27.09375 -1.421875 
Q 22.515625 -1.421875 17.65625 -0.515625 
Q 12.796875 0.390625 7.625 2.203125 
L 7.625 11.71875 
Q 11.71875 9.328125 16.59375 8.109375 
Q 21.484375 6.890625 26.8125 6.890625 
Q 36.078125 6.890625 40.9375 10.546875 
Q 45.796875 14.203125 45.796875 21.1875 
Q 45.796875 27.640625 41.28125 31.265625 
Q 36.765625 34.90625 28.71875 34.90625 
L 20.21875 34.90625 
L 20.21875 43.015625 
L 29.109375 43.015625 
Q 36.375 43.015625 40.234375 45.921875 
Q 44.09375 48.828125 44.09375 54.296875 
Q 44.09375 59.90625 40.109375 62.90625 
Q 36.140625 65.921875 28.71875 65.921875 
Q 24.65625 65.921875 20.015625 65.03125 
Q 15.375 64.15625 9.8125 62.3125 
L 9.8125 71.09375 
Q 15.4375 72.65625 20.34375 73.4375 
Q 25.25 74.21875 29.59375 74.21875 
Q 40.828125 74.21875 47.359375 69.109375 
Q 53.90625 64.015625 53.90625 55.328125 
Q 53.90625 49.265625 50.4375 45.09375 
Q 46.96875 40.921875 40.578125 39.3125 
z
" id="DejaVuSans-51"/>
       <path d="M 31.78125 66.40625 
Q 24.171875 66.40625 20.328125 58.90625 
Q 16.5 51.421875 16.5 36.375 
Q 16.5 21.390625 20.328125 13.890625 
Q 24.171875 6.390625 31.78125 6.390625 
Q 39.453125 6.390625 43.28125 13.890625 
Q 47.125 21.390625 47.125 36.375 
Q 47.125 51.421875 43.28125 58.90625 
Q 39.453125 66.40625 31.78125 66.40625 
z
M 31.78125 74.21875 
Q 44.046875 74.21875 50.515625 64.515625 
Q 56.984375 54.828125 56.984375 36.375 
Q 56.984375 17.96875 50.515625 8.265625 
Q 44.046875 -1.421875 31.78125 -1.421875 
Q 19.53125 -1.421875 13.0625 8.265625 
Q 6.59375 17.96875 6.59375 36.375 
Q 6.59375 54.828125 13.0625 64.515625 
Q 19.53125 74.21875 31.78125 74.21875 
z
" id="DejaVuSans-48"/>
      </defs>
      <g transform="translate(123.130401 266.598437)scale(0.1 -0.1)">
       <use xlink:href="#DejaVuSans-51"/>
       <use x="63.623047" xlink:href="#DejaVuSans-48"/>
      </g>
     </g>
    </g>
    <g id="xtick_3">
     <g id="line2d_3">
      <g>
       <use style="stroke:#000000;stroke-width:0.8;" x="185.536307" xlink:href="#m23a3cefccc" y="252"/>
      </g>
     </g>
     <g id="text_3">
      <!-- 35 -->
      <g transform="translate(179.173807 266.598437)scale(0.1 -0.1)">
       <use xlink:href="#DejaVuSans-51"/>
       <use x="63.623047" xlink:href="#DejaVuSans-53"/>
      </g>
     </g>
    </g>
    <g id="xtick_4">
     <g id="line2d_4">
      <g>
       <use style="stroke:#000000;stroke-width:0.8;" x="241.579712" xlink:href="#m23a3cefccc" y="252"/>
      </g>
     </g>
     <g id="text_4">
      <!-- 40 -->
      <defs>
       <path d="M 37.796875 64.3125 
L 12.890625 25.390625 
L 37.796875 25.390625 
z
M 35.203125 72.90625 
L 47.609375 72.90625 
L 47.609375 25.390625 
L 58.015625 25.390625 
L 58.015625 17.1875 
L 47.609375 17.1875 
L 47.609375 0 
L 37.796875 0 
L 37.796875 17.1875 
L 4.890625 17.1875 
L 4.890625 26.703125 
z
" id="DejaVuSans-52"/>
      </defs>
      <g transform="translate(235.217212 266.598437)scale(0.1 -0.1)">
       <use xlink:href="#DejaVuSans-52"/>
       <use x="63.623047" xlink:href="#DejaVuSans-48"/>
      </g>
     </g>
    </g>
    <g id="text_5">
     <!-- Inclination -->
     <defs>
      <path d="M 9.8125 72.90625 
L 19.671875 72.90625 
L 19.671875 0 
L 9.8125 0 
z
" id="DejaVuSans-73"/>
      <path d="M 54.890625 33.015625 
L 54.890625 0 
L 45.90625 0 
L 45.90625 32.71875 
Q 45.90625 40.484375 42.875 44.328125 
Q 39.84375 48.1875 33.796875 48.1875 
Q 26.515625 48.1875 22.3125 43.546875 
Q 18.109375 38.921875 18.109375 30.90625 
L 18.109375 0 
L 9.078125 0 
L 9.078125 54.6875 
L 18.109375 54.6875 
L 18.109375 46.1875 
Q 21.34375 51.125 25.703125 53.5625 
Q 30.078125 56 35.796875 56 
Q 45.21875 56 50.046875 50.171875 
Q 54.890625 44.34375 54.890625 33.015625 
z
" id="DejaVuSans-110"/>
      <path d="M 48.78125 52.59375 
L 48.78125 44.1875 
Q 44.96875 46.296875 41.140625 47.34375 
Q 37.3125 48.390625 33.40625 48.390625 
Q 24.65625 48.390625 19.8125 42.84375 
Q 14.984375 37.3125 14.984375 27.296875 
Q 14.984375 17.28125 19.8125 11.734375 
Q 24.65625 6.203125 33.40625 6.203125 
Q 37.3125 6.203125 41.140625 7.25 
Q 44.96875 8.296875 48.78125 10.40625 
L 48.78125 2.09375 
Q 45.015625 0.34375 40.984375 -0.53125 
Q 36.96875 -1.421875 32.421875 -1.421875 
Q 20.0625 -1.421875 12.78125 6.34375 
Q 5.515625 14.109375 5.515625 27.296875 
Q 5.515625 40.671875 12.859375 48.328125 
Q 20.21875 56 33.015625 56 
Q 37.15625 56 41.109375 55.140625 
Q 45.0625 54.296875 48.78125 52.59375 
z
" id="DejaVuSans-99"/>
      <path d="M 9.421875 75.984375 
L 18.40625 75.984375 
L 18.40625 0 
L 9.421875 0 
z
" id="DejaVuSans-108"/>
      <path d="M 9.421875 54.6875 
L 18.40625 54.6875 
L 18.40625 0 
L 9.421875 0 
z
M 9.421875 75.984375 
L 18.40625 75.984375 
L 18.40625 64.59375 
L 9.421875 64.59375 
z
" id="DejaVuSans-105"/>
      <path d="M 34.28125 27.484375 
Q 23.390625 27.484375 19.1875 25 
Q 14.984375 22.515625 14.984375 16.5 
Q 14.984375 11.71875 18.140625 8.90625 
Q 21.296875 6.109375 26.703125 6.109375 
Q 34.1875 6.109375 38.703125 11.40625 
Q 43.21875 16.703125 43.21875 25.484375 
L 43.21875 27.484375 
z
M 52.203125 31.203125 
L 52.203125 0 
L 43.21875 0 
L 43.21875 8.296875 
Q 40.140625 3.328125 35.546875 0.953125 
Q 30.953125 -1.421875 24.3125 -1.421875 
Q 15.921875 -1.421875 10.953125 3.296875 
Q 6 8.015625 6 15.921875 
Q 6 25.140625 12.171875 29.828125 
Q 18.359375 34.515625 30.609375 34.515625 
L 43.21875 34.515625 
L 43.21875 35.40625 
Q 43.21875 41.609375 39.140625 45 
Q 35.0625 48.390625 27.6875 48.390625 
Q 23 48.390625 18.546875 47.265625 
Q 14.109375 46.140625 10.015625 43.890625 
L 10.015625 52.203125 
Q 14.9375 54.109375 19.578125 55.046875 
Q 24.21875 56 28.609375 56 
Q 40.484375 56 46.34375 49.84375 
Q 52.203125 43.703125 52.203125 31.203125 
z
" id="DejaVuSans-97"/>
      <path d="M 18.3125 70.21875 
L 18.3125 54.6875 
L 36.8125 54.6875 
L 36.8125 47.703125 
L 18.3125 47.703125 
L 18.3125 18.015625 
Q 18.3125 11.328125 20.140625 9.421875 
Q 21.96875 7.515625 27.59375 7.515625 
L 36.8125 7.515625 
L 36.8125 0 
L 27.59375 0 
Q 17.1875 0 13.234375 3.875 
Q 9.28125 7.765625 9.28125 18.015625 
L 9.28125 47.703125 
L 2.6875 47.703125 
L 2.6875 54.6875 
L 9.28125 54.6875 
L 9.28125 70.21875 
z
" id="DejaVuSans-116"/>
      <path d="M 30.609375 48.390625 
Q 23.390625 48.390625 19.1875 42.75 
Q 14.984375 37.109375 14.984375 27.296875 
Q 14.984375 17.484375 19.15625 11.84375 
Q 23.34375 6.203125 30.609375 6.203125 
Q 37.796875 6.203125 41.984375 11.859375 
Q 46.1875 17.53125 46.1875 27.296875 
Q 46.1875 37.015625 41.984375 42.703125 
Q 37.796875 48.390625 30.609375 48.390625 
z
M 30.609375 56 
Q 42.328125 56 49.015625 48.375 
Q 55.71875 40.765625 55.71875 27.296875 
Q 55.71875 13.875 49.015625 6.21875 
Q 42.328125 -1.421875 30.609375 -1.421875 
Q 18.84375 -1.421875 12.171875 6.21875 
Q 5.515625 13.875 5.515625 27.296875 
Q 5.515625 40.765625 12.171875 48.375 
Q 18.84375 56 30.609375 56 
z
" id="DejaVuSans-111"/>
     </defs>
     <g transform="translate(121.61875 280.276563)scale(0.1 -0.1)">
      <use xlink:href="#DejaVuSans-73"/>
      <use x="29.492188" xlink:href="#DejaVuSans-110"/>
      <use x="92.871094" xlink:href="#DejaVuSans-99"/>
      <use x="147.851562" xlink:href="#DejaVuSans-108"/>
      <use x="175.634766" xlink:href="#DejaVuSans-105"/>
      <use x="203.417969" xlink:href="#DejaVuSans-110"/>
      <use x="266.796875" xlink:href="#DejaVuSans-97"/>
      <use x="328.076172" xlink:href="#DejaVuSans-116"/>
      <use x="367.285156" xlink:href="#DejaVuSans-105"/>
      <use x="395.068359" xlink:href="#DejaVuSans-111"/>
      <use x="456.25" xlink:href="#DejaVuSans-110"/>
     </g>
    </g>
   </g>
   <g id="matplotlib.axis_2">
    <g id="ytick_1">
     <g id="line2d_5">
      <defs>
       <path d="M 0 0 
L -3.5 0 
" id="mf1eec54839" style="stroke:#000000;stroke-width:0.8;"/>
      </defs>
      <g>
       <use style="stroke:#000000;stroke-width:0.8;" x="36" xlink:href="#mf1eec54839" y="234.179012"/>
      </g>
     </g>
     <g id="text_6">
      <!-- 1.2 -->
      <defs>
       <path d="M 12.40625 8.296875 
L 28.515625 8.296875 
L 28.515625 63.921875 
L 10.984375 60.40625 
L 10.984375 69.390625 
L 28.421875 72.90625 
L 38.28125 72.90625 
L 38.28125 8.296875 
L 54.390625 8.296875 
L 54.390625 0 
L 12.40625 0 
z
" id="DejaVuSans-49"/>
       <path d="M 10.6875 12.40625 
L 21 12.40625 
L 21 0 
L 10.6875 0 
z
" id="DejaVuSans-46"/>
      </defs>
      <g transform="translate(13.096875 237.978231)scale(0.1 -0.1)">
       <use xlink:href="#DejaVuSans-49"/>
       <use x="63.623047" xlink:href="#DejaVuSans-46"/>
       <use x="95.410156" xlink:href="#DejaVuSans-50"/>
      </g>
     </g>
    </g>
    <g id="ytick_2">
     <g id="line2d_6">
      <g>
       <use style="stroke:#000000;stroke-width:0.8;" x="36" xlink:href="#mf1eec54839" y="202.030248"/>
      </g>
     </g>
     <g id="text_7">
      <!-- 1.4 -->
      <g transform="translate(13.096875 205.829467)scale(0.1 -0.1)">
       <use xlink:href="#DejaVuSans-49"/>
       <use x="63.623047" xlink:href="#DejaVuSans-46"/>
       <use x="95.410156" xlink:href="#DejaVuSans-52"/>
      </g>
     </g>
    </g>
    <g id="ytick_3">
     <g id="line2d_7">
      <g>
       <use style="stroke:#000000;stroke-width:0.8;" x="36" xlink:href="#mf1eec54839" y="169.881484"/>
      </g>
     </g>
     <g id="text_8">
      <!-- 1.6 -->
      <defs>
       <path d="M 33.015625 40.375 
Q 26.375 40.375 22.484375 35.828125 
Q 18.609375 31.296875 18.609375 23.390625 
Q 18.609375 15.53125 22.484375 10.953125 
Q 26.375 6.390625 33.015625 6.390625 
Q 39.65625 6.390625 43.53125 10.953125 
Q 47.40625 15.53125 47.40625 23.390625 
Q 47.40625 31.296875 43.53125 35.828125 
Q 39.65625 40.375 33.015625 40.375 
z
M 52.59375 71.296875 
L 52.59375 62.3125 
Q 48.875 64.0625 45.09375 64.984375 
Q 41.3125 65.921875 37.59375 65.921875 
Q 27.828125 65.921875 22.671875 59.328125 
Q 17.53125 52.734375 16.796875 39.40625 
Q 19.671875 43.65625 24.015625 45.921875 
Q 28.375 48.1875 33.59375 48.1875 
Q 44.578125 48.1875 50.953125 41.515625 
Q 57.328125 34.859375 57.328125 23.390625 
Q 57.328125 12.15625 50.6875 5.359375 
Q 44.046875 -1.421875 33.015625 -1.421875 
Q 20.359375 -1.421875 13.671875 8.265625 
Q 6.984375 17.96875 6.984375 36.375 
Q 6.984375 53.65625 15.1875 63.9375 
Q 23.390625 74.21875 37.203125 74.21875 
Q 40.921875 74.21875 44.703125 73.484375 
Q 48.484375 72.75 52.59375 71.296875 
z
" id="DejaVuSans-54"/>
      </defs>
      <g transform="translate(13.096875 173.680703)scale(0.1 -0.1)">
       <use xlink:href="#DejaVuSans-49"/>
       <use x="63.623047" xlink:href="#DejaVuSans-46"/>
       <use x="95.410156" xlink:href="#DejaVuSans-54"/>
      </g>
     </g>
    </g>
    <g id="ytick_4">
     <g id="line2d_8">
      <g>
       <use style="stroke:#000000;stroke-width:0.8;" x="36" xlink:href="#mf1eec54839" y="137.732721"/>
      </g>
     </g>
     <g id="text_9">
      <!-- 1.8 -->
      <defs>
       <path d="M 31.78125 34.625 
Q 24.75 34.625 20.71875 30.859375 
Q 16.703125 27.09375 16.703125 20.515625 
Q 16.703125 13.921875 20.71875 10.15625 
Q 24.75 6.390625 31.78125 6.390625 
Q 38.8125 6.390625 42.859375 10.171875 
Q 46.921875 13.96875 46.921875 20.515625 
Q 46.921875 27.09375 42.890625 30.859375 
Q 38.875 34.625 31.78125 34.625 
z
M 21.921875 38.8125 
Q 15.578125 40.375 12.03125 44.71875 
Q 8.5 49.078125 8.5 55.328125 
Q 8.5 64.0625 14.71875 69.140625 
Q 20.953125 74.21875 31.78125 74.21875 
Q 42.671875 74.21875 48.875 69.140625 
Q 55.078125 64.0625 55.078125 55.328125 
Q 55.078125 49.078125 51.53125 44.71875 
Q 48 40.375 41.703125 38.8125 
Q 48.828125 37.15625 52.796875 32.3125 
Q 56.78125 27.484375 56.78125 20.515625 
Q 56.78125 9.90625 50.3125 4.234375 
Q 43.84375 -1.421875 31.78125 -1.421875 
Q 19.734375 -1.421875 13.25 4.234375 
Q 6.78125 9.90625 6.78125 20.515625 
Q 6.78125 27.484375 10.78125 32.3125 
Q 14.796875 37.15625 21.921875 38.8125 
z
M 18.3125 54.390625 
Q 18.3125 48.734375 21.84375 45.5625 
Q 25.390625 42.390625 31.78125 42.390625 
Q 38.140625 42.390625 41.71875 45.5625 
Q 45.3125 48.734375 45.3125 54.390625 
Q 45.3125 60.0625 41.71875 63.234375 
Q 38.140625 66.40625 31.78125 66.40625 
Q 25.390625 66.40625 21.84375 63.234375 
Q 18.3125 60.0625 18.3125 54.390625 
z
" id="DejaVuSans-56"/>
      </defs>
      <g transform="translate(13.096875 141.53194)scale(0.1 -0.1)">
       <use xlink:href="#DejaVuSans-49"/>
       <use x="63.623047" xlink:href="#DejaVuSans-46"/>
       <use x="95.410156" xlink:href="#DejaVuSans-56"/>
      </g>
     </g>
    </g>
    <g id="ytick_5">
     <g id="line2d_9">
      <g>
       <use style="stroke:#000000;stroke-width:0.8;" x="36" xlink:href="#mf1eec54839" y="105.583957"/>
      </g>
     </g>
     <g id="text_10">
      <!-- 2.0 -->
      <g transform="translate(13.096875 109.383176)scale(0.1 -0.1)">
       <use xlink:href="#DejaVuSans-50"/>
       <use x="63.623047" xlink:href="#DejaVuSans-46"/>
       <use x="95.410156" xlink:href="#DejaVuSans-48"/>
      </g>
     </g>
    </g>
    <g id="ytick_6">
     <g id="line2d_10">
      <g>
       <use style="stroke:#000000;stroke-width:0.8;" x="36" xlink:href="#mf1eec54839" y="73.435194"/>
      </g>
     </g>
     <g id="text_11">
      <!-- 2.2 -->
      <g transform="translate(13.096875 77.234412)scale(0.1 -0.1)">
       <use xlink:href="#DejaVuSans-50"/>
       <use x="63.623047" xlink:href="#DejaVuSans-46"/>
       <use x="95.410156" xlink:href="#DejaVuSans-50"/>
      </g>
     </g>
    </g>
    <g id="ytick_7">
     <g id="line2d_11">
      <g>
       <use style="stroke:#000000;stroke-width:0.8;" x="36" xlink:href="#mf1eec54839" y="41.28643"/>
      </g>
     </g>
     <g id="text_12">
      <!-- 2.4 -->
      <g transform="translate(13.096875 45.085649)scale(0.1 -0.1)">
       <use xlink:href="#DejaVuSans-50"/>
       <use x="63.623047" xlink:href="#DejaVuSans-46"/>
       <use x="95.410156" xlink:href="#DejaVuSans-52"/>
      </g>
     </g>
    </g>
    <g id="text_13">
     <!-- Elongation -->
     <defs>
      <path d="M 9.8125 72.90625 
L 55.90625 72.90625 
L 55.90625 64.59375 
L 19.671875 64.59375 
L 19.671875 43.015625 
L 54.390625 43.015625 
L 54.390625 34.71875 
L 19.671875 34.71875 
L 19.671875 8.296875 
L 56.78125 8.296875 
L 56.78125 0 
L 9.8125 0 
z
" id="DejaVuSans-69"/>
      <path d="M 45.40625 27.984375 
Q 45.40625 37.75 41.375 43.109375 
Q 37.359375 48.484375 30.078125 48.484375 
Q 22.859375 48.484375 18.828125 43.109375 
Q 14.796875 37.75 14.796875 27.984375 
Q 14.796875 18.265625 18.828125 12.890625 
Q 22.859375 7.515625 30.078125 7.515625 
Q 37.359375 7.515625 41.375 12.890625 
Q 45.40625 18.265625 45.40625 27.984375 
z
M 54.390625 6.78125 
Q 54.390625 -7.171875 48.1875 -13.984375 
Q 42 -20.796875 29.203125 -20.796875 
Q 24.46875 -20.796875 20.265625 -20.09375 
Q 16.0625 -19.390625 12.109375 -17.921875 
L 12.109375 -9.1875 
Q 16.0625 -11.328125 19.921875 -12.34375 
Q 23.78125 -13.375 27.78125 -13.375 
Q 36.625 -13.375 41.015625 -8.765625 
Q 45.40625 -4.15625 45.40625 5.171875 
L 45.40625 9.625 
Q 42.625 4.78125 38.28125 2.390625 
Q 33.9375 0 27.875 0 
Q 17.828125 0 11.671875 7.65625 
Q 5.515625 15.328125 5.515625 27.984375 
Q 5.515625 40.671875 11.671875 48.328125 
Q 17.828125 56 27.875 56 
Q 33.9375 56 38.28125 53.609375 
Q 42.625 51.21875 45.40625 46.390625 
L 45.40625 54.6875 
L 54.390625 54.6875 
z
" id="DejaVuSans-103"/>
     </defs>
     <g transform="translate(7.017187 169.872187)rotate(-90)scale(0.1 -0.1)">
      <use xlink:href="#DejaVuSans-69"/>
      <use x="63.183594" xlink:href="#DejaVuSans-108"/>
      <use x="90.966797" xlink:href="#DejaVuSans-111"/>
      <use x="152.148438" xlink:href="#DejaVuSans-110"/>
      <use x="215.527344" xlink:href="#DejaVuSans-103"/>
      <use x="279.003906" xlink:href="#DejaVuSans-97"/>
      <use x="340.283203" xlink:href="#DejaVuSans-116"/>
      <use x="379.492188" xlink:href="#DejaVuSans-105"/>
      <use x="407.275391" xlink:href="#DejaVuSans-111"/>
      <use x="468.457031" xlink:href="#DejaVuSans-110"/>
     </g>
    </g>
   </g>
   <g id="line2d_12">
    <path clip-path="url(#pdf3d7ee8dd)" d="M 64.786241 207.349855 
L 67.104448 204.913866 
L 69.460056 202.334621 
L 71.85392 199.615388 
L 74.286921 196.75887 
L 76.759965 193.767217 
L 79.273986 190.642042 
L 81.829942 187.384447 
L 84.428822 183.995039 
L 87.071642 180.473967 
L 89.759448 176.820938 
L 92.493317 173.035248 
L 95.274359 169.115797 
L 98.103716 165.061114 
L 100.982563 160.869372 
L 103.912111 156.538401 
L 106.893607 152.065703 
L 109.928337 147.448458 
L 113.017624 142.683536 
L 116.162831 137.767496 
L 119.365362 132.696595 
L 122.626666 127.466786 
L 125.948233 122.07372 
L 129.3316 116.512741 
L 132.77835 110.778885 
L 136.290115 104.866872 
L 139.868577 98.771104 
L 143.515468 92.485651 
L 147.232576 86.004246 
L 151.02174 79.320273 
L 151.02174 79.320273 
L 152.943934 75.900157 
" style="fill:none;stroke:#ff0000;stroke-linecap:square;stroke-width:1.5;"/>
   </g>
   <g id="line2d_13">
    <path clip-path="url(#pdf3d7ee8dd)" d="M 65.406101 239.231045 
L 67.734748 237.19613 
L 70.100951 234.949777 
L 72.505571 232.514096 
L 74.949488 229.906916 
L 77.433611 227.142278 
L 79.958873 224.231016 
L 82.526236 221.181323 
L 85.136688 217.999241 
L 87.791246 214.689072 
L 90.490959 211.253702 
L 93.236904 207.694862 
L 96.030191 204.013333 
L 98.871964 200.209107 
L 101.7634 196.281505 
L 104.70571 192.229279 
L 107.700143 188.050682 
L 110.747985 183.743528 
L 113.85056 179.305237 
L 117.009232 174.732867 
L 120.225408 170.023142 
L 123.500535 165.172467 
L 126.836107 160.176947 
L 130.233661 155.032392 
L 133.694783 149.734327 
L 137.221106 144.27799 
L 140.814313 138.658336 
L 144.47614 132.870032 
L 148.208376 126.907459 
L 152.012864 120.764699 
L 155.891505 114.435534 
L 159.846258 107.913436 
L 163.879141 101.191557 
L 167.992237 94.26272 
L 172.18769 87.119406 
L 172.18769 87.119406 
L 174.316989 83.464874 
" style="fill:none;stroke:#bfbf00;stroke-linecap:square;stroke-width:1.5;"/>
   </g>
   <g id="line2d_14">
    <path clip-path="url(#pdf3d7ee8dd)" d="M 65.198099 214.94945 
L 67.529112 213.863308 
L 69.897895 212.586568 
L 72.305317 211.122904 
L 74.752271 209.476466 
L 77.239674 207.651659 
L 79.768474 205.652955 
L 82.339644 203.484719 
L 84.954183 201.151079 
L 87.613125 198.655825 
L 90.317529 196.002329 
L 93.068488 193.193504 
L 95.867127 190.231767 
L 98.714605 187.119032 
L 101.612114 183.856705 
L 104.560882 180.445691 
L 107.562175 176.886406 
L 110.617297 173.178792 
L 113.727589 169.322337 
L 116.894435 165.316087 
L 120.119261 161.158665 
L 123.403534 156.848287 
L 126.748768 152.382774 
L 130.156522 147.759567 
L 133.628402 142.975733 
L 137.166064 138.027973 
L 140.771214 132.912631 
L 144.445611 127.625698 
L 148.191066 122.162809 
L 152.009448 116.519247 
L 155.902681 110.689942 
L 159.872749 104.669465 
L 163.921694 98.452023 
L 168.051624 92.031454 
L 168.051624 92.031454 
L 170.147634 88.742969 
L 172.264709 85.401219 
" style="fill:none;stroke:#bfbf00;stroke-linecap:square;stroke-width:1.5;"/>
   </g>
   <g id="line2d_15">
    <path clip-path="url(#pdf3d7ee8dd)" d="M 67.419906 217.500518 
L 69.759626 216.639522 
L 72.137086 215.591103 
L 74.553151 214.358418 
L 77.008708 212.945316 
L 79.504672 211.356116 
L 82.041984 209.595385 
L 84.621612 207.66775 
L 87.244551 205.577731 
L 89.911826 203.329612 
L 92.624493 200.927345 
L 95.383636 198.374473 
L 98.190375 195.674089 
L 101.045861 192.828808 
L 103.951277 189.840755 
L 106.907845 186.711565 
L 109.916821 183.442394 
L 112.9795 180.03393 
L 116.097214 176.486408 
L 119.271336 172.799633 
L 122.503281 168.972991 
L 125.794506 165.005474 
L 129.146511 160.895691 
L 132.560843 156.641882 
L 136.039094 152.241937 
L 139.582906 147.693399 
L 143.19397 142.993478 
L 146.874027 138.139056 
L 150.624873 133.126692 
L 154.448356 127.952627 
L 158.346383 122.612782 
L 162.320914 117.10276 
L 166.373972 111.417843 
L 170.507639 105.552991 
L 174.72406 99.502833 
L 179.025445 93.261661 
L 179.025445 93.261661 
L 181.208706 90.067569 
L 183.414067 86.823427 
" style="fill:none;stroke:#bfbf00;stroke-linecap:square;stroke-width:1.5;"/>
   </g>
   <g id="line2d_16">
    <path clip-path="url(#pdf3d7ee8dd)" d="M 46.145455 173.070868 
L 48.352081 169.348414 
L 50.595235 165.498622 
L 52.875777 161.520046 
L 55.194595 157.410941 
L 57.552602 153.169271 
L 59.950738 148.792722 
L 62.389973 144.278704 
L 64.871305 139.624359 
L 67.395762 134.826568 
L 69.964405 129.881948 
L 72.578326 124.786856 
L 75.238651 119.53739 
L 77.946543 114.129384 
L 80.703198 108.55841 
L 83.50985 102.819769 
L 86.367774 96.908492 
L 89.278282 90.81933 
L 92.242729 84.546747 
L 95.262514 78.084916 
L 98.339079 71.427706 
L 101.473911 64.568675 
L 101.473911 64.568675 
L 103.063656 61.061375 
L 104.668548 57.501058 
" style="fill:none;stroke:#bfbf00;stroke-linecap:square;stroke-width:1.5;"/>
   </g>
   <g id="line2d_17">
    <path clip-path="url(#pdf3d7ee8dd)" d="M 80.562063 219.113733 
L 82.972143 216.422648 
L 85.420089 213.610218 
L 87.906737 210.680141 
L 90.432946 207.635198 
L 92.999601 204.477369 
L 95.607607 201.207939 
L 98.257899 197.82758 
L 100.951434 194.33643 
L 103.689198 190.734152 
L 106.472203 187.019985 
L 109.30149 183.192786 
L 112.178128 179.251066 
L 115.103219 175.193017 
L 118.077892 171.016533 
L 121.103311 166.71923 
L 124.180671 162.298457 
L 127.311203 157.751309 
L 130.49617 153.074632 
L 133.736872 148.265029 
L 137.034648 143.318863 
L 140.390871 138.232256 
L 143.806958 133.00109 
L 147.284361 127.621003 
L 150.824578 122.087385 
L 154.429146 116.395372 
L 158.099649 110.539843 
L 161.837714 104.515406 
L 165.645013 98.316395 
L 169.523268 91.936856 
L 169.523268 91.936856 
L 171.489556 88.677446 
L 173.474249 85.370536 
" style="fill:none;stroke:#bfbf00;stroke-linecap:square;stroke-width:1.5;"/>
   </g>
   <g id="line2d_18">
    <path clip-path="url(#pdf3d7ee8dd)" d="M 58.100404 225.636964 
L 60.375829 223.539187 
L 62.68825 221.249912 
L 65.038522 218.779543 
L 67.427524 216.137078 
L 69.856161 213.330087 
L 72.325365 210.364765 
L 74.836092 207.24602 
L 77.389332 203.977583 
L 79.986098 200.562121 
L 82.627438 197.001345 
L 85.314428 193.296108 
L 88.048177 189.446495 
L 90.829829 185.451895 
L 93.66056 181.311069 
L 96.541583 177.022199 
L 99.474147 172.582936 
L 102.459539 167.99043 
L 105.499086 163.241362 
L 108.594154 158.331962 
L 111.746152 153.258025 
L 114.956533 148.014923 
L 118.226794 142.597607 
L 121.558476 137.000608 
L 124.953172 131.218041 
L 128.412521 125.243592 
L 131.938214 119.070515 
L 135.531994 112.691618 
L 139.195659 106.099248 
L 142.931063 99.285277 
L 146.740115 92.241079 
L 150.624788 84.957512 
L 150.624788 84.957512 
L 152.596115 81.22296 
L 154.587113 77.424889 
" style="fill:none;stroke:#bfbf00;stroke-linecap:square;stroke-width:1.5;"/>
   </g>
   <g id="line2d_19">
    <path clip-path="url(#pdf3d7ee8dd)" d="M 71.984331 200.135046 
L 74.350119 198.814208 
L 76.753668 197.32319 
L 79.195828 195.663783 
L 81.677475 193.837973 
L 84.19951 191.84784 
L 86.762859 189.695473 
L 89.368474 187.382887 
L 92.017334 184.911956 
L 94.710447 182.284359 
L 97.448851 179.501532 
L 100.233611 176.564635 
L 103.065824 173.474529 
L 105.946622 170.231752 
L 108.877166 166.836511 
L 111.858652 163.288674 
L 114.892312 159.587766 
L 117.979414 155.732968 
L 121.121263 151.723121 
L 124.319203 147.556723 
L 127.574618 143.231939 
L 130.888932 138.746599 
L 134.263612 134.0982 
L 137.700169 129.283916 
L 141.20016 124.300591 
L 144.765185 119.144745 
L 148.396897 113.812573 
L 152.096994 108.299942 
L 155.867226 102.602392 
L 159.709397 96.71513 
L 163.625363 90.633026 
L 163.625363 90.633026 
L 165.611615 87.517211 
L 167.617037 84.350608 
" style="fill:none;stroke:#bfbf00;stroke-linecap:square;stroke-width:1.5;"/>
   </g>
   <g id="line2d_20">
    <path clip-path="url(#pdf3d7ee8dd)" d="M 72.925793 152.620517 
L 75.279526 148.516828 
L 77.670552 144.291838 
L 80.099705 139.943045 
L 82.567846 135.467736 
L 85.075859 130.862979 
L 87.624654 126.125634 
L 90.215165 121.252342 
L 92.848354 116.239528 
L 95.52521 111.083395 
L 98.24675 105.77992 
L 101.014021 100.32485 
L 103.8281 94.713694 
L 106.690093 88.94172 
L 109.601142 83.003941 
L 112.562419 76.895111 
L 115.575132 70.609714 
L 115.575132 70.609714 
L 117.101163 67.399002 
L 118.640522 64.141952 
" style="fill:none;stroke:#bfbf00;stroke-linecap:square;stroke-width:1.5;"/>
   </g>
   <g id="line2d_21">
    <path clip-path="url(#pdf3d7ee8dd)" d="M 56.162603 182.174138 
L 58.405453 179.003519 
L 60.684606 175.71451 
L 63.000903 172.306794 
L 65.355207 168.779759 
L 67.748411 165.13251 
L 70.181429 161.363879 
L 72.655207 157.472431 
L 75.170715 153.456478 
L 77.728955 149.314078 
L 80.330959 145.04305 
L 82.977788 140.640968 
L 85.670539 136.105174 
L 88.410338 131.432774 
L 91.19835 126.620643 
L 94.035771 121.665423 
L 96.92384 116.563523 
L 99.863828 111.311117 
L 102.857051 105.904142 
L 105.904862 100.338295 
L 109.00866 94.609028 
L 112.169886 88.711541 
L 115.390026 82.64078 
L 118.670615 76.391428 
L 122.013235 69.957896 
L 122.013235 69.957896 
L 123.708316 66.67024 
" style="fill:none;stroke:#bfbf00;stroke-linecap:square;stroke-width:1.5;"/>
   </g>
   <g id="line2d_22">
    <path clip-path="url(#pdf3d7ee8dd)" d="M 68.547101 190.758464 
L 70.884405 188.732008 
L 73.259147 186.566571 
L 75.672177 184.263565 
L 78.12437 181.824259 
L 80.616626 179.249746 
L 83.149872 176.540918 
L 85.725059 173.698449 
L 88.343168 170.722778 
L 91.005207 167.614104 
L 93.712215 164.372372 
L 96.46526 160.997276 
L 99.265442 157.488256 
L 102.113893 153.844494 
L 105.011778 150.06492 
L 107.9603 146.148212 
L 110.960693 142.092795 
L 114.014232 137.89685 
L 117.122227 133.558309 
L 120.286029 129.074862 
L 123.50703 124.443955 
L 126.786664 119.662796 
L 130.126408 114.728351 
L 133.527783 109.637347 
L 136.992358 104.386269 
L 140.521749 98.971365 
L 144.117621 93.388636 
L 147.78169 87.633844 
L 151.515725 81.702499 
L 151.515725 81.702499 
L 153.409547 78.66915 
" style="fill:none;stroke:#bfbf00;stroke-linecap:square;stroke-width:1.5;"/>
   </g>
   <g id="line2d_23">
    <path clip-path="url(#pdf3d7ee8dd)" d="M 68.497106 175.533459 
L 70.830915 172.004024 
L 73.20204 168.349889 
L 75.611326 164.569862 
L 78.059643 160.662448 
L 80.547885 156.625859 
L 83.076973 152.458019 
L 85.647853 148.156576 
L 88.261498 143.718901 
L 90.91891 139.142093 
L 93.62112 134.422982 
L 96.36919 129.558129 
L 99.16421 124.543826 
L 102.007304 119.37609 
L 104.89963 114.050664 
L 107.842377 108.563009 
L 110.836773 102.908303 
L 113.884079 97.081424 
L 116.985594 91.076953 
L 120.142658 84.889156 
L 123.356649 78.511975 
L 126.628986 71.939017 
L 126.628986 71.939017 
L 128.287489 68.57703 
" style="fill:none;stroke:#bfbf00;stroke-linecap:square;stroke-width:1.5;"/>
   </g>
   <g id="line2d_24">
    <path clip-path="url(#pdf3d7ee8dd)" d="M 70.66808 228.227968 
L 73.031258 226.074109 
L 75.432392 223.762605 
L 77.872346 221.302819 
L 80.352007 218.70259 
L 82.872288 215.96834 
L 85.434127 213.10522 
L 88.038491 210.117249 
L 90.686372 207.007453 
L 93.378792 203.777989 
L 96.116804 200.430254 
L 98.90149 196.96498 
L 101.733963 193.382312 
L 104.615371 189.681876 
L 107.546893 185.862837 
L 110.529745 181.92394 
L 113.565177 177.863549 
L 116.654477 173.679679 
L 119.798972 169.370019 
L 123.000027 164.93195 
L 126.259048 160.36256 
L 129.577483 155.658655 
L 132.956824 150.816767 
L 136.398608 145.833159 
L 139.904416 140.703827 
L 143.475878 135.424497 
L 147.114673 129.990629 
L 150.822529 124.39741 
L 154.601229 118.639747 
L 158.452606 112.712266 
L 162.37855 106.609297 
L 166.381007 100.324869 
L 170.46198 93.852697 
L 170.46198 93.852697 
L 172.532554 90.544154 
L 174.623536 87.18617 
" style="fill:none;stroke:#bfbf00;stroke-linecap:square;stroke-width:1.5;"/>
   </g>
   <g id="line2d_25">
    <path clip-path="url(#pdf3d7ee8dd)" d="M 59.344223 184.188275 
L 61.611556 180.831037 
L 63.915536 177.352609 
L 66.257011 173.752304 
L 68.636849 170.029098 
L 71.055947 166.181651 
L 73.515227 162.208317 
L 76.015639 158.107155 
L 78.558159 153.87594 
L 81.143794 149.512169 
L 83.773582 145.013066 
L 86.44859 140.375588 
L 89.169917 135.596426 
L 91.938697 130.672007 
L 94.756099 125.598489 
L 97.623324 120.371767 
L 100.541614 114.987462 
L 103.512246 109.440919 
L 106.536537 103.727203 
L 109.615847 97.84109 
L 112.751575 91.77706 
L 115.945165 85.529287 
L 119.198106 79.091626 
L 122.511934 72.457608 
L 122.511934 72.457608 
L 124.192172 69.06485 
L 125.88823 65.62042 
" style="fill:none;stroke:#bfbf00;stroke-linecap:square;stroke-width:1.5;"/>
   </g>
   <g id="line2d_26">
    <path clip-path="url(#pdf3d7ee8dd)" d="M 61.238333 216.883422 
L 63.540748 214.021033 
L 65.880667 211.054938 
L 68.258959 207.98686 
L 70.67652 204.817865 
L 73.13427 201.548456 
L 75.633159 198.178648 
L 78.174161 194.708026 
L 80.758283 191.135796 
L 83.38656 187.460829 
L 86.060056 183.681685 
L 88.779871 179.796646 
L 91.547134 175.803735 
L 94.36301 171.70073 
L 97.2287 167.485174 
L 100.14544 163.15439 
L 103.114503 158.705482 
L 106.137203 154.135343 
L 109.214892 149.440652 
L 112.348965 144.61788 
L 115.54086 139.663281 
L 118.792058 134.572898 
L 122.104087 129.342553 
L 125.478521 123.967842 
L 128.916983 118.444131 
L 132.421148 112.766547 
L 135.99274 106.929967 
L 139.63354 100.929015 
L 143.345382 94.758041 
L 147.130156 88.411121 
L 150.989814 81.882033 
L 150.989814 81.882033 
L 152.94835 78.547148 
" style="fill:none;stroke:#bfbf00;stroke-linecap:square;stroke-width:1.5;"/>
   </g>
   <g id="line2d_27">
    <path clip-path="url(#pdf3d7ee8dd)" d="M 62.241466 178.914151 
L 64.528767 176.291369 
L 66.852892 173.531042 
L 69.214687 170.63335 
L 71.615019 167.598233 
L 74.054784 164.425381 
L 76.534901 161.114225 
L 79.056317 157.663926 
L 81.620009 154.073376 
L 84.226978 150.341188 
L 86.87826 146.465699 
L 89.574916 142.444963 
L 92.318044 138.276752 
L 95.108772 133.958551 
L 97.948261 129.487558 
L 100.83771 124.860678 
L 103.778352 120.074525 
L 106.771458 115.125412 
L 109.818337 110.009348 
L 112.920339 104.722034 
L 116.078854 99.258852 
L 119.295315 93.614863 
L 122.5712 87.784791 
L 125.908032 81.763021 
L 129.30738 75.543579 
L 129.30738 75.543579 
L 131.031001 72.357765 
L 132.770861 69.120127 
" style="fill:none;stroke:#bfbf00;stroke-linecap:square;stroke-width:1.5;"/>
   </g>
   <g id="line2d_28">
    <path clip-path="url(#pdf3d7ee8dd)" d="M 70.984715 186.168314 
L 73.331906 183.915743 
L 75.716439 181.517451 
L 78.139154 178.974456 
L 80.600918 176.287591 
L 83.102618 173.457469 
L 85.64517 170.484469 
L 88.229512 167.368715 
L 90.856614 164.110065 
L 93.527468 160.708104 
L 96.2431 157.162135 
L 99.004562 153.471179 
L 101.812938 149.63397 
L 104.669344 145.648955 
L 107.574926 141.514297 
L 110.530868 137.227868 
L 113.538384 132.787257 
L 116.598728 128.189765 
L 119.713187 123.432406 
L 122.88309 118.511907 
L 126.109803 113.424706 
L 129.394733 108.166949 
L 132.73933 102.73449 
L 136.145086 97.122884 
L 139.613539 91.327388 
L 143.146271 85.342949 
L 146.744914 79.164206 
L 146.744914 79.164206 
L 148.569475 76.000207 
" style="fill:none;stroke:#bfbf00;stroke-linecap:square;stroke-width:1.5;"/>
   </g>
   <g id="line2d_29">
    <path clip-path="url(#pdf3d7ee8dd)" d="M 50.589049 161.300642 
L 52.800487 157.630533 
L 55.048138 153.835771 
L 57.332851 149.914567 
L 59.655502 145.864884 
L 62.016994 141.68444 
L 64.418255 137.370711 
L 66.860242 132.920928 
L 69.343941 128.332077 
L 71.870368 123.6009 
L 74.44057 118.723891 
L 77.055628 113.697294 
L 79.716653 108.517095 
L 82.424793 103.179022 
L 85.181232 97.678538 
L 87.987188 92.010831 
L 90.843922 86.170809 
L 93.752732 80.153092 
L 96.714956 73.951999 
L 99.731978 67.561541 
L 102.805223 60.975406 
L 102.805223 60.975406 
L 104.363387 57.606897 
" style="fill:none;stroke:#bfbf00;stroke-linecap:square;stroke-width:1.5;"/>
   </g>
   <g id="line2d_30">
    <path clip-path="url(#pdf3d7ee8dd)" d="M 79.732115 239.308472 
L 82.166105 240.516328 
L 84.638789 241.40905 
L 87.151026 241.951469 
L 89.703702 242.116364 
L 92.297725 241.88885 
L 94.934028 241.268687 
L 97.613571 240.269511 
L 100.337339 238.915393 
L 103.106347 237.236173 
L 105.921634 235.263124 
L 108.784271 233.025821 
L 111.695357 230.550392 
L 114.656025 227.858838 
L 117.667435 224.969049 
L 120.730784 221.895161 
L 123.847298 218.648063 
L 127.018241 215.235901 
L 130.244911 211.664545 
L 133.528643 207.937983 
L 136.870809 204.058645 
L 140.27282 200.027663 
L 143.736127 195.845083 
L 147.26222 191.510025 
L 150.852633 187.02081 
L 154.508942 182.37506 
L 158.232767 177.569775 
L 162.025773 172.601391 
L 165.889673 167.465821 
L 169.826225 162.158491 
L 173.837237 156.674363 
L 177.924568 151.007948 
L 182.090126 145.153315 
L 186.335871 139.104097 
L 190.663819 132.853492 
L 195.076036 126.394252 
L 199.574648 119.718683 
L 204.161833 112.818629 
L 208.83983 105.685461 
L 208.83983 105.685461 
L 211.213598 102.028629 
L 213.610934 98.31006 
" style="fill:none;stroke:#bfbf00;stroke-linecap:square;stroke-width:1.5;"/>
   </g>
   <g id="line2d_31">
    <path clip-path="url(#pdf3d7ee8dd)" d="M 60.66615 187.542894 
L 62.952934 184.037425 
L 65.276685 180.423179 
L 67.638252 176.699108 
L 70.038512 172.863873 
L 72.478363 168.915865 
L 74.958732 164.853221 
L 77.480573 160.673834 
L 80.044867 156.375365 
L 82.652625 151.95525 
L 85.304887 147.410704 
L 88.002725 142.738729 
L 90.747243 137.93611 
L 93.539577 132.999421 
L 96.3809 127.925025 
L 99.272417 122.709067 
L 102.215373 117.347479 
L 105.211048 111.835969 
L 108.260763 106.17002 
L 111.365879 100.344888 
L 114.5278 94.355586 
L 117.747971 88.196888 
L 121.027883 81.863313 
L 124.369075 75.34912 
L 124.369075 75.34912 
L 126.063143 72.022423 
L 127.77313 68.648294 
" style="fill:none;stroke:#bfbf00;stroke-linecap:square;stroke-width:1.5;"/>
   </g>
   <g id="line2d_32">
    <path clip-path="url(#pdf3d7ee8dd)" d="M 61.452297 217.04785 
L 63.746098 213.628297 
L 66.076983 210.127662 
L 68.445804 206.543467 
L 70.853438 202.873139 
L 73.300785 199.113999 
L 75.788775 195.263264 
L 78.318361 191.318037 
L 80.890526 187.275308 
L 83.506281 183.131946 
L 86.166669 178.884692 
L 88.872762 174.530159 
L 91.625664 170.064819 
L 94.426511 165.485002 
L 97.276477 160.786884 
L 100.176767 155.966486 
L 103.128623 151.019661 
L 106.133328 145.942088 
L 109.1922 140.729263 
L 112.306598 135.376491 
L 115.477925 129.878873 
L 118.707624 124.231299 
L 121.997184 118.428437 
L 125.348139 112.46472 
L 128.76207 106.334332 
L 132.240608 100.031199 
L 135.785433 93.548973 
L 139.398278 86.881018 
L 143.08093 80.020392 
L 143.08093 80.020392 
L 144.949007 76.515571 
L 146.835231 72.959833 
" style="fill:none;stroke:#bfbf00;stroke-linecap:square;stroke-width:1.5;"/>
   </g>
   <g id="line2d_33">
    <path clip-path="url(#pdf3d7ee8dd)" d="M 54.591174 225.27618 
L 56.861506 223.55806 
L 59.16922 221.644291 
L 61.515193 219.544802 
L 63.900325 217.268794 
L 66.325546 214.824542 
L 68.791811 212.219294 
L 71.300106 209.459246 
L 73.851444 206.54956 
L 76.446871 203.494417 
L 79.087463 200.297083 
L 81.774329 196.959986 
L 84.508612 193.484785 
L 87.291491 189.872442 
L 90.124179 186.123288 
L 93.00793 182.237076 
L 95.944033 178.213036 
L 98.933819 174.049913 
L 101.978662 169.746007 
L 105.079975 165.2992 
L 108.23922 160.706986 
L 111.457903 155.966485 
L 114.737576 151.074464 
L 118.079843 146.027348 
L 121.486357 140.821227 
L 124.958825 135.451863 
L 128.499009 129.914696 
L 132.108724 124.204837 
L 135.789846 118.317077 
L 139.544312 112.245874 
L 143.374119 105.985355 
L 147.281328 99.529304 
L 151.268067 92.871154 
L 155.336534 86.00398 
L 155.336534 86.00398 
L 157.402121 82.489742 
L 159.488995 78.920482 
" style="fill:none;stroke:#bfbf00;stroke-linecap:square;stroke-width:1.5;"/>
   </g>
   <g id="line2d_34">
    <path clip-path="url(#pdf3d7ee8dd)" d="M 69.095707 229.115507 
L 71.437747 226.013756 
L 73.817344 222.829 
L 76.235354 219.560427 
L 78.692654 216.206811 
L 81.190148 212.766591 
L 83.728764 209.237925 
L 86.309458 205.618732 
L 88.933213 201.906715 
L 91.601041 198.099382 
L 94.313982 194.194059 
L 97.073108 190.187895 
L 99.87952 186.077869 
L 102.734354 181.860791 
L 105.638777 177.533302 
L 108.593991 173.091874 
L 111.601234 168.532804 
L 114.66178 163.852212 
L 117.776941 159.046033 
L 120.948069 154.110015 
L 124.176553 149.039708 
L 127.463827 143.830456 
L 130.811366 138.477393 
L 134.220689 132.975427 
L 137.69336 127.319234 
L 141.230992 121.503247 
L 144.835245 115.52164 
L 148.507826 109.36832 
L 152.250498 103.036911 
L 156.065072 96.52074 
L 159.953418 89.812821 
L 159.953418 89.812821 
L 161.925853 86.384683 
L 163.917456 82.905839 
" style="fill:none;stroke:#bfbf00;stroke-linecap:square;stroke-width:1.5;"/>
   </g>
   <g id="line2d_35">
    <path clip-path="url(#pdf3d7ee8dd)" d="M 46.608771 187.907699 
L 48.811148 184.902449 
L 51.050002 181.77291 
L 53.3262 178.519345 
L 55.640633 175.141673 
L 57.994218 171.63948 
L 60.387903 168.012033 
L 62.822661 164.25829 
L 65.299497 160.37691 
L 67.819448 156.366265 
L 70.383582 152.224445 
L 72.992998 147.949268 
L 75.648833 143.538283 
L 78.352258 138.988777 
L 81.10448 134.297777 
L 83.906746 129.462051 
L 86.760341 124.478109 
L 89.666593 119.342204 
L 92.626871 114.05033 
L 95.642588 108.598217 
L 98.715204 102.981328 
L 101.846224 97.194857 
L 105.037206 91.233719 
L 108.289755 85.092547 
L 111.605531 78.765681 
L 114.986247 72.24716 
L 118.433674 65.530715 
L 118.433674 65.530715 
L 120.182973 62.096223 
" style="fill:none;stroke:#bfbf00;stroke-linecap:square;stroke-width:1.5;"/>
   </g>
   <g id="line2d_36">
    <path clip-path="url(#pdf3d7ee8dd)" d="M 66.925122 208.122826 
L 69.269701 207.111036 
L 71.652176 205.91525 
L 74.073413 204.537391 
L 76.534303 202.979856 
L 79.035765 201.245364 
L 81.57874 199.33681 
L 84.1642 197.257132 
L 86.793144 195.009196 
L 89.466598 192.595696 
L 92.185621 190.019077 
L 94.951301 187.281468 
L 97.764759 184.384642 
L 100.627147 181.329981 
L 103.539654 178.118454 
L 106.5035 174.750605 
L 109.519945 171.22655 
L 112.590285 167.545972 
L 115.715855 163.708128 
L 118.898027 159.711848 
L 122.138218 155.555549 
L 125.437884 151.237232 
L 128.798528 146.754493 
L 132.221694 142.104526 
L 135.708976 137.284127 
L 139.262014 132.289694 
L 142.882496 127.117231 
L 146.572162 121.762344 
L 150.332806 116.22024 
L 154.166272 110.485718 
L 158.07446 104.55317 
L 162.059329 98.416565 
L 166.122894 92.069443 
L 166.122894 92.069443 
L 168.184833 88.814798 
L 170.26723 85.504899 
" style="fill:none;stroke:#bfbf00;stroke-linecap:square;stroke-width:1.5;"/>
   </g>
   <g id="line2d_37">
    <path clip-path="url(#pdf3d7ee8dd)" d="M 60.658162 218.314804 
L 62.948632 216.816934 
L 65.276229 215.122979 
L 67.641808 213.239193 
L 70.046247 211.171798 
L 72.490454 208.926749 
L 74.975357 206.509566 
L 77.501918 203.925208 
L 80.071122 201.178004 
L 82.683985 198.271609 
L 85.341553 195.208991 
L 88.044902 191.992442 
L 90.795143 188.623592 
L 93.593416 185.103437 
L 96.440898 181.432372 
L 99.338801 177.610216 
L 102.288371 173.636248 
L 105.290896 169.509232 
L 108.347701 165.227445 
L 111.460149 160.788699 
L 114.629647 156.190357 
L 117.857646 151.429354 
L 121.145639 146.502206 
L 124.495166 141.405019 
L 127.907814 136.1335 
L 131.385219 130.682955 
L 134.929067 125.048294 
L 138.541095 119.224029 
L 142.223097 113.204268 
L 145.976919 106.982715 
L 149.804465 100.552655 
L 153.707698 93.906948 
L 157.688642 87.038017 
L 157.688642 87.038017 
L 159.708904 83.517352 
L 161.749381 79.937835 
" style="fill:none;stroke:#bfbf00;stroke-linecap:square;stroke-width:1.5;"/>
   </g>
   <g id="line2d_38">
    <path clip-path="url(#pdf3d7ee8dd)" d="M 63.849519 44.443636 
L 91.770358 55.032983 
L 124.425607 67.667591 
L 163.699735 83.117922 
L 225.282246 107.605465 
L 249.054545 117.05234 
L 249.054545 117.05234 
" style="fill:none;stroke:#008000;stroke-linecap:square;stroke-width:1.5;"/>
   </g>
   <g id="patch_3">
    <path d="M 36 252 
L 36 34.56 
" style="fill:none;stroke:#000000;stroke-linecap:square;stroke-linejoin:miter;stroke-width:0.8;"/>
   </g>
   <g id="patch_4">
    <path d="M 259.2 252 
L 259.2 34.56 
" style="fill:none;stroke:#000000;stroke-linecap:square;stroke-linejoin:miter;stroke-width:0.8;"/>
   </g>
   <g id="patch_5">
    <path d="M 36 252 
L 259.2 252 
" style="fill:none;stroke:#000000;stroke-linecap:square;stroke-linejoin:miter;stroke-width:0.8;"/>
   </g>
   <g id="patch_6">
    <path d="M 36 34.56 
L 259.2 34.56 
" style="fill:none;stroke:#000000;stroke-linecap:square;stroke-linejoin:miter;stroke-width:0.8;"/>
   </g>
   <g id="text_14">
    <!--  0.70 -->
    <defs>
     <path id="DejaVuSans-32"/>
     <path d="M 8.203125 72.90625 
L 55.078125 72.90625 
L 55.078125 68.703125 
L 28.609375 0 
L 18.3125 0 
L 43.21875 64.59375 
L 8.203125 64.59375 
z
" id="DejaVuSans-55"/>
    </defs>
    <g transform="translate(152.943934 75.900157)scale(0.1 -0.1)">
     <use xlink:href="#DejaVuSans-32"/>
     <use x="31.787109" xlink:href="#DejaVuSans-48"/>
     <use x="95.410156" xlink:href="#DejaVuSans-46"/>
     <use x="127.197266" xlink:href="#DejaVuSans-55"/>
     <use x="190.820312" xlink:href="#DejaVuSans-48"/>
    </g>
   </g>
   <g id="text_15">
    <!--  f=1 -->
    <defs>
     <path d="M 37.109375 75.984375 
L 37.109375 68.5 
L 28.515625 68.5 
Q 23.6875 68.5 21.796875 66.546875 
Q 19.921875 64.59375 19.921875 59.515625 
L 19.921875 54.6875 
L 34.71875 54.6875 
L 34.71875 47.703125 
L 19.921875 47.703125 
L 19.921875 0 
L 10.890625 0 
L 10.890625 47.703125 
L 2.296875 47.703125 
L 2.296875 54.6875 
L 10.890625 54.6875 
L 10.890625 58.5 
Q 10.890625 67.625 15.140625 71.796875 
Q 19.390625 75.984375 28.609375 75.984375 
z
" id="DejaVuSans-102"/>
     <path d="M 10.59375 45.40625 
L 73.1875 45.40625 
L 73.1875 37.203125 
L 10.59375 37.203125 
z
M 10.59375 25.484375 
L 73.1875 25.484375 
L 73.1875 17.1875 
L 10.59375 17.1875 
z
" id="DejaVuSans-61"/>
    </defs>
    <g transform="translate(42.368878 207.349855)scale(0.1 -0.1)">
     <use xlink:href="#DejaVuSans-32"/>
     <use x="31.787109" xlink:href="#DejaVuSans-102"/>
     <use x="66.992188" xlink:href="#DejaVuSans-61"/>
     <use x="150.78125" xlink:href="#DejaVuSans-49"/>
    </g>
   </g>
  </g>
 </g>
 <defs>
  <clipPath id="pdf3d7ee8dd">
   <rect height="217.44" width="223.2" x="36" y="34.56"/>
  </clipPath>
 </defs>
</svg>
