<?xml version="1.0" encoding="utf-8" standalone="no"?>
<!DOCTYPE svg PUBLIC "-//W3C//DTD SVG 1.1//EN"
  "http://www.w3.org/Graphics/SVG/1.1/DTD/svg11.dtd">
<!-- Created with matplotlib (https://matplotlib.org/) -->
<svg height="288pt" version="1.1" viewBox="0 0 288 288" width="288pt" xmlns="http://www.w3.org/2000/svg" xmlns:xlink="http://www.w3.org/1999/xlink">
 <metadata>
  <rdf:RDF xmlns:cc="http://creativecommons.org/ns#" xmlns:dc="http://purl.org/dc/elements/1.1/" xmlns:rdf="http://www.w3.org/1999/02/22-rdf-syntax-ns#">
   <cc:Work>
    <dc:type rdf:resource="http://purl.org/dc/dcmitype/StillImage"/>
    <dc:date>2021-02-02T17:47:29.690244</dc:date>
    <dc:format>image/svg+xml</dc:format>
    <dc:creator>
     <cc:Agent>
      <dc:title>Matplotlib v3.3.2, https://matplotlib.org/</dc:title>
     </cc:Agent>
    </dc:creator>
   </cc:Work>
  </rdf:RDF>
 </metadata>
 <defs>
  <style type="text/css">*{stroke-linecap:butt;stroke-linejoin:round;}</style>
 </defs>
 <g id="figure_1">
  <g id="patch_1">
   <path d="M 0 288 
L 288 288 
L 288 0 
L 0 0 
z
" style="fill:none;"/>
  </g>
  <g id="axes_1">
   <g id="patch_2">
    <path d="M 36 252 
L 259.2 252 
L 259.2 34.56 
L 36 34.56 
z
" style="fill:#ffffff;"/>
   </g>
   <g id="matplotlib.axis_1">
    <g id="xtick_1">
     <g id="line2d_1">
      <defs>
       <path d="M 0 0 
L 0 3.5 
" id="ma15c0a61bc" style="stroke:#000000;stroke-width:0.8;"/>
      </defs>
      <g>
       <use style="stroke:#000000;stroke-width:0.8;" x="46.145455" xlink:href="#ma15c0a61bc" y="252"/>
      </g>
     </g>
     <g id="text_1">
      <!-- 0 -->
      <g transform="translate(42.964205 266.598437)scale(0.1 -0.1)">
       <defs>
        <path d="M 31.78125 66.40625 
Q 24.171875 66.40625 20.328125 58.90625 
Q 16.5 51.421875 16.5 36.375 
Q 16.5 21.390625 20.328125 13.890625 
Q 24.171875 6.390625 31.78125 6.390625 
Q 39.453125 6.390625 43.28125 13.890625 
Q 47.125 21.390625 47.125 36.375 
Q 47.125 51.421875 43.28125 58.90625 
Q 39.453125 66.40625 31.78125 66.40625 
z
M 31.78125 74.21875 
Q 44.046875 74.21875 50.515625 64.515625 
Q 56.984375 54.828125 56.984375 36.375 
Q 56.984375 17.96875 50.515625 8.265625 
Q 44.046875 -1.421875 31.78125 -1.421875 
Q 19.53125 -1.421875 13.0625 8.265625 
Q 6.59375 17.96875 6.59375 36.375 
Q 6.59375 54.828125 13.0625 64.515625 
Q 19.53125 74.21875 31.78125 74.21875 
z
" id="DejaVuSans-48"/>
       </defs>
       <use xlink:href="#DejaVuSans-48"/>
      </g>
     </g>
    </g>
    <g id="xtick_2">
     <g id="line2d_2">
      <g>
       <use style="stroke:#000000;stroke-width:0.8;" x="105.315015" xlink:href="#ma15c0a61bc" y="252"/>
      </g>
     </g>
     <g id="text_2">
      <!-- 20 -->
      <g transform="translate(98.952515 266.598437)scale(0.1 -0.1)">
       <defs>
        <path d="M 19.1875 8.296875 
L 53.609375 8.296875 
L 53.609375 0 
L 7.328125 0 
L 7.328125 8.296875 
Q 12.9375 14.109375 22.625 23.890625 
Q 32.328125 33.6875 34.8125 36.53125 
Q 39.546875 41.84375 41.421875 45.53125 
Q 43.3125 49.21875 43.3125 52.78125 
Q 43.3125 58.59375 39.234375 62.25 
Q 35.15625 65.921875 28.609375 65.921875 
Q 23.96875 65.921875 18.8125 64.3125 
Q 13.671875 62.703125 7.8125 59.421875 
L 7.8125 69.390625 
Q 13.765625 71.78125 18.9375 73 
Q 24.125 74.21875 28.421875 74.21875 
Q 39.75 74.21875 46.484375 68.546875 
Q 53.21875 62.890625 53.21875 53.421875 
Q 53.21875 48.921875 51.53125 44.890625 
Q 49.859375 40.875 45.40625 35.40625 
Q 44.1875 33.984375 37.640625 27.21875 
Q 31.109375 20.453125 19.1875 8.296875 
z
" id="DejaVuSans-50"/>
       </defs>
       <use xlink:href="#DejaVuSans-50"/>
       <use x="63.623047" xlink:href="#DejaVuSans-48"/>
      </g>
     </g>
    </g>
    <g id="xtick_3">
     <g id="line2d_3">
      <g>
       <use style="stroke:#000000;stroke-width:0.8;" x="164.484576" xlink:href="#ma15c0a61bc" y="252"/>
      </g>
     </g>
     <g id="text_3">
      <!-- 40 -->
      <g transform="translate(158.122076 266.598437)scale(0.1 -0.1)">
       <defs>
        <path d="M 37.796875 64.3125 
L 12.890625 25.390625 
L 37.796875 25.390625 
z
M 35.203125 72.90625 
L 47.609375 72.90625 
L 47.609375 25.390625 
L 58.015625 25.390625 
L 58.015625 17.1875 
L 47.609375 17.1875 
L 47.609375 0 
L 37.796875 0 
L 37.796875 17.1875 
L 4.890625 17.1875 
L 4.890625 26.703125 
z
" id="DejaVuSans-52"/>
       </defs>
       <use xlink:href="#DejaVuSans-52"/>
       <use x="63.623047" xlink:href="#DejaVuSans-48"/>
      </g>
     </g>
    </g>
    <g id="xtick_4">
     <g id="line2d_4">
      <g>
       <use style="stroke:#000000;stroke-width:0.8;" x="223.654136" xlink:href="#ma15c0a61bc" y="252"/>
      </g>
     </g>
     <g id="text_4">
      <!-- 60 -->
      <g transform="translate(217.291636 266.598437)scale(0.1 -0.1)">
       <defs>
        <path d="M 33.015625 40.375 
Q 26.375 40.375 22.484375 35.828125 
Q 18.609375 31.296875 18.609375 23.390625 
Q 18.609375 15.53125 22.484375 10.953125 
Q 26.375 6.390625 33.015625 6.390625 
Q 39.65625 6.390625 43.53125 10.953125 
Q 47.40625 15.53125 47.40625 23.390625 
Q 47.40625 31.296875 43.53125 35.828125 
Q 39.65625 40.375 33.015625 40.375 
z
M 52.59375 71.296875 
L 52.59375 62.3125 
Q 48.875 64.0625 45.09375 64.984375 
Q 41.3125 65.921875 37.59375 65.921875 
Q 27.828125 65.921875 22.671875 59.328125 
Q 17.53125 52.734375 16.796875 39.40625 
Q 19.671875 43.65625 24.015625 45.921875 
Q 28.375 48.1875 33.59375 48.1875 
Q 44.578125 48.1875 50.953125 41.515625 
Q 57.328125 34.859375 57.328125 23.390625 
Q 57.328125 12.15625 50.6875 5.359375 
Q 44.046875 -1.421875 33.015625 -1.421875 
Q 20.359375 -1.421875 13.671875 8.265625 
Q 6.984375 17.96875 6.984375 36.375 
Q 6.984375 53.65625 15.1875 63.9375 
Q 23.390625 74.21875 37.203125 74.21875 
Q 40.921875 74.21875 44.703125 73.484375 
Q 48.484375 72.75 52.59375 71.296875 
z
" id="DejaVuSans-54"/>
       </defs>
       <use xlink:href="#DejaVuSans-54"/>
       <use x="63.623047" xlink:href="#DejaVuSans-48"/>
      </g>
     </g>
    </g>
    <g id="text_5">
     <!-- Inclination -->
     <g transform="translate(121.61875 280.276563)scale(0.1 -0.1)">
      <defs>
       <path d="M 9.8125 72.90625 
L 19.671875 72.90625 
L 19.671875 0 
L 9.8125 0 
z
" id="DejaVuSans-73"/>
       <path d="M 54.890625 33.015625 
L 54.890625 0 
L 45.90625 0 
L 45.90625 32.71875 
Q 45.90625 40.484375 42.875 44.328125 
Q 39.84375 48.1875 33.796875 48.1875 
Q 26.515625 48.1875 22.3125 43.546875 
Q 18.109375 38.921875 18.109375 30.90625 
L 18.109375 0 
L 9.078125 0 
L 9.078125 54.6875 
L 18.109375 54.6875 
L 18.109375 46.1875 
Q 21.34375 51.125 25.703125 53.5625 
Q 30.078125 56 35.796875 56 
Q 45.21875 56 50.046875 50.171875 
Q 54.890625 44.34375 54.890625 33.015625 
z
" id="DejaVuSans-110"/>
       <path d="M 48.78125 52.59375 
L 48.78125 44.1875 
Q 44.96875 46.296875 41.140625 47.34375 
Q 37.3125 48.390625 33.40625 48.390625 
Q 24.65625 48.390625 19.8125 42.84375 
Q 14.984375 37.3125 14.984375 27.296875 
Q 14.984375 17.28125 19.8125 11.734375 
Q 24.65625 6.203125 33.40625 6.203125 
Q 37.3125 6.203125 41.140625 7.25 
Q 44.96875 8.296875 48.78125 10.40625 
L 48.78125 2.09375 
Q 45.015625 0.34375 40.984375 -0.53125 
Q 36.96875 -1.421875 32.421875 -1.421875 
Q 20.0625 -1.421875 12.78125 6.34375 
Q 5.515625 14.109375 5.515625 27.296875 
Q 5.515625 40.671875 12.859375 48.328125 
Q 20.21875 56 33.015625 56 
Q 37.15625 56 41.109375 55.140625 
Q 45.0625 54.296875 48.78125 52.59375 
z
" id="DejaVuSans-99"/>
       <path d="M 9.421875 75.984375 
L 18.40625 75.984375 
L 18.40625 0 
L 9.421875 0 
z
" id="DejaVuSans-108"/>
       <path d="M 9.421875 54.6875 
L 18.40625 54.6875 
L 18.40625 0 
L 9.421875 0 
z
M 9.421875 75.984375 
L 18.40625 75.984375 
L 18.40625 64.59375 
L 9.421875 64.59375 
z
" id="DejaVuSans-105"/>
       <path d="M 34.28125 27.484375 
Q 23.390625 27.484375 19.1875 25 
Q 14.984375 22.515625 14.984375 16.5 
Q 14.984375 11.71875 18.140625 8.90625 
Q 21.296875 6.109375 26.703125 6.109375 
Q 34.1875 6.109375 38.703125 11.40625 
Q 43.21875 16.703125 43.21875 25.484375 
L 43.21875 27.484375 
z
M 52.203125 31.203125 
L 52.203125 0 
L 43.21875 0 
L 43.21875 8.296875 
Q 40.140625 3.328125 35.546875 0.953125 
Q 30.953125 -1.421875 24.3125 -1.421875 
Q 15.921875 -1.421875 10.953125 3.296875 
Q 6 8.015625 6 15.921875 
Q 6 25.140625 12.171875 29.828125 
Q 18.359375 34.515625 30.609375 34.515625 
L 43.21875 34.515625 
L 43.21875 35.40625 
Q 43.21875 41.609375 39.140625 45 
Q 35.0625 48.390625 27.6875 48.390625 
Q 23 48.390625 18.546875 47.265625 
Q 14.109375 46.140625 10.015625 43.890625 
L 10.015625 52.203125 
Q 14.9375 54.109375 19.578125 55.046875 
Q 24.21875 56 28.609375 56 
Q 40.484375 56 46.34375 49.84375 
Q 52.203125 43.703125 52.203125 31.203125 
z
" id="DejaVuSans-97"/>
       <path d="M 18.3125 70.21875 
L 18.3125 54.6875 
L 36.8125 54.6875 
L 36.8125 47.703125 
L 18.3125 47.703125 
L 18.3125 18.015625 
Q 18.3125 11.328125 20.140625 9.421875 
Q 21.96875 7.515625 27.59375 7.515625 
L 36.8125 7.515625 
L 36.8125 0 
L 27.59375 0 
Q 17.1875 0 13.234375 3.875 
Q 9.28125 7.765625 9.28125 18.015625 
L 9.28125 47.703125 
L 2.6875 47.703125 
L 2.6875 54.6875 
L 9.28125 54.6875 
L 9.28125 70.21875 
z
" id="DejaVuSans-116"/>
       <path d="M 30.609375 48.390625 
Q 23.390625 48.390625 19.1875 42.75 
Q 14.984375 37.109375 14.984375 27.296875 
Q 14.984375 17.484375 19.15625 11.84375 
Q 23.34375 6.203125 30.609375 6.203125 
Q 37.796875 6.203125 41.984375 11.859375 
Q 46.1875 17.53125 46.1875 27.296875 
Q 46.1875 37.015625 41.984375 42.703125 
Q 37.796875 48.390625 30.609375 48.390625 
z
M 30.609375 56 
Q 42.328125 56 49.015625 48.375 
Q 55.71875 40.765625 55.71875 27.296875 
Q 55.71875 13.875 49.015625 6.21875 
Q 42.328125 -1.421875 30.609375 -1.421875 
Q 18.84375 -1.421875 12.171875 6.21875 
Q 5.515625 13.875 5.515625 27.296875 
Q 5.515625 40.765625 12.171875 48.375 
Q 18.84375 56 30.609375 56 
z
" id="DejaVuSans-111"/>
      </defs>
      <use xlink:href="#DejaVuSans-73"/>
      <use x="29.492188" xlink:href="#DejaVuSans-110"/>
      <use x="92.871094" xlink:href="#DejaVuSans-99"/>
      <use x="147.851562" xlink:href="#DejaVuSans-108"/>
      <use x="175.634766" xlink:href="#DejaVuSans-105"/>
      <use x="203.417969" xlink:href="#DejaVuSans-110"/>
      <use x="266.796875" xlink:href="#DejaVuSans-97"/>
      <use x="328.076172" xlink:href="#DejaVuSans-116"/>
      <use x="367.285156" xlink:href="#DejaVuSans-105"/>
      <use x="395.068359" xlink:href="#DejaVuSans-111"/>
      <use x="456.25" xlink:href="#DejaVuSans-110"/>
     </g>
    </g>
   </g>
   <g id="matplotlib.axis_2">
    <g id="ytick_1">
     <g id="line2d_5">
      <defs>
       <path d="M 0 0 
L -3.5 0 
" id="maa6e7817bf" style="stroke:#000000;stroke-width:0.8;"/>
      </defs>
      <g>
       <use style="stroke:#000000;stroke-width:0.8;" x="36" xlink:href="#maa6e7817bf" y="242.116364"/>
      </g>
     </g>
     <g id="text_6">
      <!-- 0.0 -->
      <g transform="translate(13.096875 245.915582)scale(0.1 -0.1)">
       <defs>
        <path d="M 10.6875 12.40625 
L 21 12.40625 
L 21 0 
L 10.6875 0 
z
" id="DejaVuSans-46"/>
       </defs>
       <use xlink:href="#DejaVuSans-48"/>
       <use x="63.623047" xlink:href="#DejaVuSans-46"/>
       <use x="95.410156" xlink:href="#DejaVuSans-48"/>
      </g>
     </g>
    </g>
    <g id="ytick_2">
     <g id="line2d_6">
      <g>
       <use style="stroke:#000000;stroke-width:0.8;" x="36" xlink:href="#maa6e7817bf" y="198.907722"/>
      </g>
     </g>
     <g id="text_7">
      <!-- 0.5 -->
      <g transform="translate(13.096875 202.706941)scale(0.1 -0.1)">
       <defs>
        <path d="M 10.796875 72.90625 
L 49.515625 72.90625 
L 49.515625 64.59375 
L 19.828125 64.59375 
L 19.828125 46.734375 
Q 21.96875 47.46875 24.109375 47.828125 
Q 26.265625 48.1875 28.421875 48.1875 
Q 40.625 48.1875 47.75 41.5 
Q 54.890625 34.8125 54.890625 23.390625 
Q 54.890625 11.625 47.5625 5.09375 
Q 40.234375 -1.421875 26.90625 -1.421875 
Q 22.3125 -1.421875 17.546875 -0.640625 
Q 12.796875 0.140625 7.71875 1.703125 
L 7.71875 11.625 
Q 12.109375 9.234375 16.796875 8.0625 
Q 21.484375 6.890625 26.703125 6.890625 
Q 35.15625 6.890625 40.078125 11.328125 
Q 45.015625 15.765625 45.015625 23.390625 
Q 45.015625 31 40.078125 35.4375 
Q 35.15625 39.890625 26.703125 39.890625 
Q 22.75 39.890625 18.8125 39.015625 
Q 14.890625 38.140625 10.796875 36.28125 
z
" id="DejaVuSans-53"/>
       </defs>
       <use xlink:href="#DejaVuSans-48"/>
       <use x="63.623047" xlink:href="#DejaVuSans-46"/>
       <use x="95.410156" xlink:href="#DejaVuSans-53"/>
      </g>
     </g>
    </g>
    <g id="ytick_3">
     <g id="line2d_7">
      <g>
       <use style="stroke:#000000;stroke-width:0.8;" x="36" xlink:href="#maa6e7817bf" y="155.69908"/>
      </g>
     </g>
     <g id="text_8">
      <!-- 1.0 -->
      <g transform="translate(13.096875 159.498299)scale(0.1 -0.1)">
       <defs>
        <path d="M 12.40625 8.296875 
L 28.515625 8.296875 
L 28.515625 63.921875 
L 10.984375 60.40625 
L 10.984375 69.390625 
L 28.421875 72.90625 
L 38.28125 72.90625 
L 38.28125 8.296875 
L 54.390625 8.296875 
L 54.390625 0 
L 12.40625 0 
z
" id="DejaVuSans-49"/>
       </defs>
       <use xlink:href="#DejaVuSans-49"/>
       <use x="63.623047" xlink:href="#DejaVuSans-46"/>
       <use x="95.410156" xlink:href="#DejaVuSans-48"/>
      </g>
     </g>
    </g>
    <g id="ytick_4">
     <g id="line2d_8">
      <g>
       <use style="stroke:#000000;stroke-width:0.8;" x="36" xlink:href="#maa6e7817bf" y="112.490439"/>
      </g>
     </g>
     <g id="text_9">
      <!-- 1.5 -->
      <g transform="translate(13.096875 116.289657)scale(0.1 -0.1)">
       <use xlink:href="#DejaVuSans-49"/>
       <use x="63.623047" xlink:href="#DejaVuSans-46"/>
       <use x="95.410156" xlink:href="#DejaVuSans-53"/>
      </g>
     </g>
    </g>
    <g id="ytick_5">
     <g id="line2d_9">
      <g>
       <use style="stroke:#000000;stroke-width:0.8;" x="36" xlink:href="#maa6e7817bf" y="69.281797"/>
      </g>
     </g>
     <g id="text_10">
      <!-- 2.0 -->
      <g transform="translate(13.096875 73.081016)scale(0.1 -0.1)">
       <use xlink:href="#DejaVuSans-50"/>
       <use x="63.623047" xlink:href="#DejaVuSans-46"/>
       <use x="95.410156" xlink:href="#DejaVuSans-48"/>
      </g>
     </g>
    </g>
    <g id="text_11">
     <!-- Elongation -->
     <g transform="translate(7.017187 169.872187)rotate(-90)scale(0.1 -0.1)">
      <defs>
       <path d="M 9.8125 72.90625 
L 55.90625 72.90625 
L 55.90625 64.59375 
L 19.671875 64.59375 
L 19.671875 43.015625 
L 54.390625 43.015625 
L 54.390625 34.71875 
L 19.671875 34.71875 
L 19.671875 8.296875 
L 56.78125 8.296875 
L 56.78125 0 
L 9.8125 0 
z
" id="DejaVuSans-69"/>
       <path d="M 45.40625 27.984375 
Q 45.40625 37.75 41.375 43.109375 
Q 37.359375 48.484375 30.078125 48.484375 
Q 22.859375 48.484375 18.828125 43.109375 
Q 14.796875 37.75 14.796875 27.984375 
Q 14.796875 18.265625 18.828125 12.890625 
Q 22.859375 7.515625 30.078125 7.515625 
Q 37.359375 7.515625 41.375 12.890625 
Q 45.40625 18.265625 45.40625 27.984375 
z
M 54.390625 6.78125 
Q 54.390625 -7.171875 48.1875 -13.984375 
Q 42 -20.796875 29.203125 -20.796875 
Q 24.46875 -20.796875 20.265625 -20.09375 
Q 16.0625 -19.390625 12.109375 -17.921875 
L 12.109375 -9.1875 
Q 16.0625 -11.328125 19.921875 -12.34375 
Q 23.78125 -13.375 27.78125 -13.375 
Q 36.625 -13.375 41.015625 -8.765625 
Q 45.40625 -4.15625 45.40625 5.171875 
L 45.40625 9.625 
Q 42.625 4.78125 38.28125 2.390625 
Q 33.9375 0 27.875 0 
Q 17.828125 0 11.671875 7.65625 
Q 5.515625 15.328125 5.515625 27.984375 
Q 5.515625 40.671875 11.671875 48.328125 
Q 17.828125 56 27.875 56 
Q 33.9375 56 38.28125 53.609375 
Q 42.625 51.21875 45.40625 46.390625 
L 45.40625 54.6875 
L 54.390625 54.6875 
z
" id="DejaVuSans-103"/>
      </defs>
      <use xlink:href="#DejaVuSans-69"/>
      <use x="63.183594" xlink:href="#DejaVuSans-108"/>
      <use x="90.966797" xlink:href="#DejaVuSans-111"/>
      <use x="152.148438" xlink:href="#DejaVuSans-110"/>
      <use x="215.527344" xlink:href="#DejaVuSans-103"/>
      <use x="279.003906" xlink:href="#DejaVuSans-97"/>
      <use x="340.283203" xlink:href="#DejaVuSans-116"/>
      <use x="379.492188" xlink:href="#DejaVuSans-105"/>
      <use x="407.275391" xlink:href="#DejaVuSans-111"/>
      <use x="468.457031" xlink:href="#DejaVuSans-110"/>
     </g>
    </g>
   </g>
   <g id="line2d_10">
    <path clip-path="url(#pbb37970558)" d="M 131.762773 114.933731 
L 132.452281 115.659095 
L 133.152 116.324401 
L 133.86214 116.927096 
L 134.582913 117.46463 
L 135.314536 117.934484 
L 136.057234 118.334208 
L 136.811234 118.661458 
L 137.576771 118.914031 
L 138.354084 119.089906 
L 139.143421 119.187273 
L 139.945032 119.204567 
L 140.759175 119.140494 
L 141.586115 118.994042 
L 142.426122 118.764494 
L 143.279473 118.451427 
L 144.146452 118.054699 
L 145.027351 117.574435 
L 145.922466 117.011003 
L 146.832103 116.364978 
L 147.756574 115.637115 
L 148.696199 114.82831 
L 149.651305 113.939559 
L 150.622228 112.971933 
L 151.609311 111.926532 
L 152.612905 110.804465 
L 153.63337 109.606817 
L 154.671073 108.334627 
L 155.726392 106.988871 
L 156.799711 105.570444 
L 157.891424 104.080145 
L 159.001935 102.518674 
L 160.131654 100.88662 
L 161.281004 99.184456 
L 162.450415 97.412539 
L 163.640326 95.571107 
L 164.851186 93.660275 
L 166.083455 91.680042 
L 167.3376 89.630283 
L 168.614099 87.510756 
L 169.913441 85.3211 
L 171.236121 83.060832 
L 172.582648 80.729354 
L 172.582648 80.729354 
L 173.265014 79.536691 
" style="fill:none;stroke:#ff0000;stroke-linecap:square;stroke-width:1.5;"/>
   </g>
   <g id="line2d_11">
    <path clip-path="url(#pbb37970558)" d="M 129.095772 127.232381 
L 129.764908 126.754442 
L 130.44405 126.192263 
L 131.133406 125.547197 
L 131.833191 124.820822 
L 132.543622 124.014865 
L 133.264925 123.131142 
L 133.99733 122.171498 
L 134.741073 121.137752 
L 135.496396 120.031658 
L 136.263547 118.85487 
L 137.042781 117.608916 
L 137.834359 116.295183 
L 138.63855 114.914898 
L 139.455628 113.469127 
L 140.285875 111.958769 
L 141.129581 110.38456 
L 141.987042 108.747068 
L 142.858563 107.046706 
L 143.744457 105.28373 
L 144.645042 103.458249 
L 145.560649 101.570228 
L 146.491613 99.619496 
L 147.438282 97.60575 
L 148.401009 95.528563 
L 149.380157 93.387386 
L 150.376101 91.181551 
L 151.389223 88.910281 
L 152.419914 86.572686 
L 153.468577 84.16777 
L 154.535623 81.694431 
L 155.621477 79.151462 
L 156.72657 76.537553 
L 157.851347 73.85129 
L 158.996262 71.091152 
L 158.996262 71.091152 
L 159.576417 69.682877 
" style="fill:none;stroke:#bfbf00;stroke-linecap:square;stroke-width:1.5;"/>
   </g>
   <g id="line2d_12">
    <path clip-path="url(#pbb37970558)" d="M 135.107364 60.765229 
L 135.823903 61.391844 
L 136.550958 61.968641 
L 137.288739 62.494573 
L 138.037457 62.968585 
L 138.79733 63.38961 
L 139.568581 63.756577 
L 140.351437 64.068408 
L 141.14613 64.324024 
L 141.952899 64.522344 
L 142.771985 64.662286 
L 143.603639 64.742774 
L 144.448113 64.762731 
L 145.305668 64.721089 
L 146.176568 64.616782 
L 147.061086 64.448753 
L 147.959497 64.215953 
L 148.872084 63.917336 
L 149.799138 63.551868 
L 150.740952 63.118517 
L 150.740952 63.118517 
L 151.217489 62.876066 
" style="fill:none;stroke:#bfbf00;stroke-linecap:square;stroke-width:1.5;"/>
   </g>
   <g id="line2d_13">
    <path clip-path="url(#pbb37970558)" d="M 129.892197 74.555066 
L 130.574154 74.744837 
L 131.266388 74.87897 
L 131.969111 74.956481 
L 132.682544 74.976399 
L 133.406913 74.937769 
L 134.142448 74.839657 
L 134.889387 74.681146 
L 135.647972 74.461342 
L 136.418452 74.17937 
L 137.201083 73.834378 
L 137.996126 73.425535 
L 138.803851 72.952031 
L 139.624533 72.413074 
L 140.458453 71.807893 
L 141.305902 71.13573 
L 142.167177 70.395844 
L 143.042582 69.587502 
L 143.932429 68.709982 
L 144.837038 67.762563 
L 145.756738 66.744529 
L 146.691865 65.655156 
L 147.642764 64.493715 
L 148.609789 63.259466 
L 149.593301 61.95165 
L 149.593301 61.95165 
L 150.091356 61.269911 
" style="fill:none;stroke:#bfbf00;stroke-linecap:square;stroke-width:1.5;"/>
   </g>
   <g id="line2d_14">
    <path clip-path="url(#pbb37970558)" d="M 129.031817 99.7265 
L 129.711189 101.348457 
L 130.400831 102.935092 
L 131.100955 104.484986 
L 131.811782 105.996585 
L 132.533536 107.468185 
L 133.266447 108.897919 
L 134.010751 110.283747 
L 134.766691 111.623441 
L 135.534515 112.914574 
L 136.314477 114.154507 
L 137.106838 115.340383 
L 137.911865 116.469122 
L 138.729833 117.537421 
L 139.561023 118.541759 
L 140.405723 119.478414 
L 141.264228 120.343485 
L 142.136842 121.132932 
L 143.023875 121.842622 
L 143.925645 122.468395 
L 144.84248 123.006137 
L 145.774713 123.45187 
L 146.722688 123.80185 
L 147.686756 124.05266 
L 148.667278 124.20131 
L 149.664623 124.245318 
L 150.679169 124.182782 
L 151.711303 124.012417 
L 152.761424 123.733576 
L 153.829938 123.346229 
L 154.917261 122.850929 
L 156.023821 122.248739 
L 157.150054 121.541154 
L 158.296407 120.730004 
L 159.463337 119.817357 
L 160.651314 118.805424 
L 161.860816 117.69647 
L 163.092332 116.492738 
L 164.346363 115.196376 
L 165.623421 113.809391 
L 166.924028 112.3336 
L 168.248718 110.770598 
L 169.598036 109.121734 
L 170.972536 107.388095 
L 172.372787 105.570494 
L 173.799365 103.669455 
L 175.252859 101.685214 
L 176.733868 99.617709 
L 178.243001 97.46657 
L 179.780876 95.231119 
L 181.348124 92.910351 
L 182.945383 90.502929 
L 182.945383 90.502929 
L 183.755468 89.266208 
" style="fill:none;stroke:#bfbf00;stroke-linecap:square;stroke-width:1.5;"/>
   </g>
   <g id="line2d_15">
    <path clip-path="url(#pbb37970558)" d="M 132.517927 124.306241 
L 133.212696 125.750284 
L 133.917705 127.158573 
L 134.633162 128.528228 
L 135.359276 129.855863 
L 136.096265 131.137494 
L 136.84435 132.368432 
L 137.603757 133.543168 
L 138.374718 134.65526 
L 139.157472 135.697217 
L 139.952261 136.660426 
L 140.759333 137.535134 
L 141.578946 138.310544 
L 142.411358 138.975072 
L 143.256839 139.516815 
L 144.11566 139.924252 
L 144.988103 140.187144 
L 145.874455 140.297505 
L 146.775008 140.250451 
L 147.690064 140.044707 
L 148.61993 139.682641 
L 149.564921 139.169803 
L 150.525358 138.514123 
L 151.501573 137.72497 
L 152.493901 136.812261 
L 153.502687 135.78576 
L 154.528286 134.654596 
L 155.571057 133.426983 
L 156.63137 132.110106 
L 157.709601 130.71011 
L 158.806138 129.232163 
L 159.921374 127.680538 
L 161.055713 126.058723 
L 162.209565 124.369518 
L 163.383351 122.615133 
L 164.577501 120.797269 
L 165.792453 118.917191 
L 167.028654 116.975789 
L 168.28656 114.973633 
L 169.566638 112.91101 
L 170.869361 110.787961 
L 172.195214 108.60431 
L 173.544689 106.359686 
L 174.918288 104.053542 
L 176.316522 101.685164 
L 177.73991 99.253687 
L 179.188982 96.758097 
L 180.664274 94.197237 
L 182.166332 91.569807 
L 182.166332 91.569807 
L 182.927571 90.230682 
L 183.69571 88.874362 
" style="fill:none;stroke:#bfbf00;stroke-linecap:square;stroke-width:1.5;"/>
   </g>
   <g id="line2d_16">
    <path clip-path="url(#pbb37970558)" d="M 125.26343 134.016209 
L 125.92017 135.439279 
L 126.587064 136.835777 
L 127.264331 138.202837 
L 127.952196 139.536715 
L 128.65089 140.832468 
L 129.360649 142.083473 
L 130.081717 143.280773 
L 130.814344 144.412135 
L 131.558786 145.460815 
L 132.315306 146.404077 
L 133.084175 147.211893 
L 133.865671 147.846963 
L 134.660078 148.268143 
L 135.46769 148.439113 
L 136.288807 148.34037 
L 137.123738 147.977009 
L 137.9728 147.375702 
L 138.83632 146.573688 
L 139.714632 145.608118 
L 140.60808 144.510361 
L 141.517018 143.304637 
L 142.441807 142.00881 
L 143.382821 140.635768 
L 144.340442 139.194722 
L 145.315063 137.692223 
L 146.307089 136.132913 
L 147.316933 134.520049 
L 148.345022 132.855882 
L 149.391792 131.141913 
L 150.457694 129.379079 
L 151.543186 127.567887 
L 152.648744 125.70851 
L 153.774853 123.800852 
L 154.92201 121.844601 
L 156.090729 119.839266 
L 157.281533 117.784204 
L 158.494961 115.67864 
L 159.731565 113.521683 
L 160.991912 111.312336 
L 162.276582 109.049505 
L 163.58617 106.732001 
L 164.921285 104.358544 
L 166.282553 101.927766 
L 167.670613 99.438209 
L 169.086118 96.888322 
L 170.529739 94.27646 
L 172.002161 91.600876 
L 173.504084 88.859719 
L 175.036223 86.051024 
L 175.036223 86.051024 
L 175.813852 84.620703 
L 176.59931 83.172705 
" style="fill:none;stroke:#bfbf00;stroke-linecap:square;stroke-width:1.5;"/>
   </g>
   <g id="line2d_17">
    <path clip-path="url(#pbb37970558)" d="M 46.145455 242.116364 
" style="fill:none;stroke:#bfbf00;stroke-linecap:square;stroke-width:1.5;"/>
   </g>
   <g id="line2d_18">
    <path clip-path="url(#pbb37970558)" d="M 129.053268 64.088701 
L 129.731988 66.308252 
L 130.421002 68.502496 
L 131.120526 70.671198 
L 131.830781 72.814103 
L 132.551996 74.930934 
L 133.284403 77.02139 
L 134.028243 79.085142 
L 134.78376 81.121831 
L 135.551207 83.131065 
L 136.330842 85.112415 
L 137.122931 87.065412 
L 137.927744 88.989543 
L 138.745561 90.884244 
L 139.576669 92.748898 
L 140.421359 94.582825 
L 141.279934 96.38528 
L 142.152702 98.15544 
L 143.039981 99.892402 
L 143.942094 101.595171 
L 144.859376 103.262647 
L 145.792168 104.893622 
L 146.740821 106.486759 
L 147.705694 108.040587 
L 148.687157 109.553483 
L 149.685588 111.023657 
L 150.701374 112.449142 
L 151.734913 113.827774 
L 152.786614 115.157178 
L 153.856893 116.434759 
L 154.94618 117.657685 
L 156.054913 118.822882 
L 157.183542 119.927033 
L 158.332528 120.966576 
L 159.502343 121.937725 
L 160.69347 122.836491 
L 161.906404 123.658721 
L 163.141651 124.400155 
L 164.399731 125.056495 
L 165.681172 125.623498 
L 166.986517 126.097077 
L 168.31632 126.473416 
L 169.671147 126.749093 
L 171.051578 126.921189 
L 172.458201 126.987394 
L 173.891621 126.946081 
L 175.352452 126.796352 
L 176.841321 126.538049 
L 178.358865 126.171722 
L 179.905736 125.698566 
L 181.482594 125.120328 
L 183.090113 124.439197 
L 184.728974 123.657681 
L 186.399872 122.77848 
L 188.10351 121.804378 
L 189.8406 120.738128 
L 191.611863 119.582371 
L 193.418026 118.33955 
L 195.259827 117.011858 
L 197.138005 115.601184 
L 199.053307 114.109079 
L 201.006483 112.536725 
L 202.998284 110.88491 
L 205.029463 109.154013 
L 207.100773 107.34398 
L 207.100773 107.34398 
L 208.151711 106.409149 
" style="fill:none;stroke:#bfbf00;stroke-linecap:square;stroke-width:1.5;"/>
   </g>
   <g id="line2d_19">
    <path clip-path="url(#pbb37970558)" d="M 136.594897 124.150166 
L 137.316526 125.772293 
L 138.048623 127.378808 
L 138.791393 128.969715 
L 139.545045 130.545016 
L 140.309795 132.104711 
L 141.085862 133.648798 
L 141.873469 135.17727 
L 142.672845 136.690115 
L 143.484226 138.187315 
L 144.307851 139.66884 
L 145.143965 141.134645 
L 145.992818 142.584661 
L 146.854666 144.018779 
L 147.729773 145.43683 
L 148.618404 146.83853 
L 149.520834 148.223384 
L 150.437343 149.590455 
L 151.368216 150.937754 
L 152.313745 152.260267 
L 153.274229 153.541019 
L 154.249971 154.677354 
L 155.241285 154.761564 
L 156.248487 153.65295 
L 157.271902 152.361482 
L 158.311861 151.015451 
L 159.368703 149.634072 
L 160.442773 148.222534 
L 161.534423 146.782623 
L 162.644012 145.314975 
L 163.771907 143.819753 
L 164.918481 142.296899 
L 166.084114 140.746246 
L 167.269194 139.167565 
L 168.474117 137.5606 
L 169.699284 135.925079 
L 170.945104 134.26073 
L 172.211994 132.567282 
L 173.500377 130.844475 
L 174.810684 129.092061 
L 176.143351 127.309809 
L 177.498822 125.49751 
L 178.877548 123.654977 
L 180.279985 121.782048 
L 181.706597 119.878594 
L 183.157852 117.944515 
L 184.634224 115.97975 
L 186.136195 113.984273 
L 187.664248 111.958106 
L 189.218874 109.901312 
L 190.800566 107.814009 
L 192.409822 105.696365 
L 194.047142 103.54861 
L 195.713032 101.371034 
L 195.713032 101.371034 
L 196.556847 100.271173 
L 197.407995 99.163996 
" style="fill:none;stroke:#bfbf00;stroke-linecap:square;stroke-width:1.5;"/>
   </g>
   <g id="line2d_20">
    <path clip-path="url(#pbb37970558)" d="M 132.476991 128.838608 
L 133.172537 128.194814 
L 133.878374 127.470108 
L 134.594709 126.666722 
L 135.321756 125.786956 
L 136.059732 124.83311 
L 136.808862 123.807423 
L 137.569374 122.712029 
L 138.341503 121.548923 
L 139.125487 120.319939 
L 139.921573 119.026733 
L 140.730012 117.670776 
L 141.551062 116.253353 
L 142.384985 114.775562 
L 143.232052 113.238324 
L 144.092538 111.642384 
L 144.966726 109.988324 
L 145.854906 108.276569 
L 146.757374 106.507397 
L 147.674432 104.680947 
L 148.60639 102.797231 
L 149.553566 100.856137 
L 150.516284 98.857441 
L 151.494876 96.800812 
L 152.489681 94.685819 
L 153.501046 92.511937 
L 154.529327 90.27855 
L 155.574886 87.984961 
L 156.638094 85.630389 
L 157.719329 83.21398 
L 158.81898 80.734805 
L 159.937441 78.191865 
L 161.075116 75.584093 
L 162.232416 72.910357 
L 162.232416 72.910357 
L 162.818558 71.54838 
" style="fill:none;stroke:#bfbf00;stroke-linecap:square;stroke-width:1.5;"/>
   </g>
   <g id="line2d_21">
    <path clip-path="url(#pbb37970558)" d="M 133.513847 133.941352 
L 134.214549 133.717852 
L 134.925533 133.385346 
L 135.647004 132.945328 
L 136.379173 132.400152 
L 137.122256 131.752845 
L 137.876472 131.006908 
L 138.642048 130.166117 
L 139.419215 129.234354 
L 140.20821 128.215455 
L 141.009274 127.113101 
L 141.822656 125.930736 
L 142.648609 124.671517 
L 143.487393 123.338278 
L 144.339274 121.933527 
L 145.204523 120.459439 
L 146.08342 118.917874 
L 146.976249 117.310389 
L 147.883302 115.638257 
L 148.804876 113.902493 
L 149.741277 112.10387 
L 150.692818 110.242942 
L 151.659818 108.320063 
L 152.642603 106.335403 
L 153.641507 104.288971 
L 154.656873 102.18062 
L 155.689048 100.010069 
L 156.738392 97.77691 
L 157.805268 95.480621 
L 158.89005 93.120573 
L 159.993118 90.696042 
L 161.114863 88.206213 
L 162.255681 85.650188 
L 163.415979 83.026991 
L 164.596172 80.335576 
L 165.796682 77.574827 
L 165.796682 77.574827 
L 166.404691 76.168086 
L 167.017941 74.743566 
" style="fill:none;stroke:#bfbf00;stroke-linecap:square;stroke-width:1.5;"/>
   </g>
   <g id="line2d_22">
    <path clip-path="url(#pbb37970558)" d="M 130.633633 92.038826 
L 131.323153 94.13069 
L 132.023036 96.20276 
L 132.733496 98.255047 
L 133.454753 100.287561 
L 134.18703 102.300311 
L 134.930559 104.293305 
L 135.685577 106.266549 
L 136.452324 108.22005 
L 137.231049 110.153811 
L 138.022007 112.067833 
L 138.825458 113.962114 
L 139.641668 115.836649 
L 140.470913 117.691428 
L 141.313472 119.526436 
L 142.169633 121.34165 
L 143.039692 123.137038 
L 143.923949 124.912556 
L 144.822714 126.668145 
L 145.736306 128.403725 
L 146.665048 130.119192 
L 147.609275 131.814406 
L 148.569327 133.489177 
L 149.545554 135.143253 
L 150.538315 136.776289 
L 151.547976 138.387805 
L 152.574915 139.97713 
L 153.619515 141.543295 
L 154.682171 143.084865 
L 155.763287 144.599639 
L 156.863276 146.084097 
L 157.982561 147.53229 
L 159.121576 148.93347 
L 160.280763 150.266521 
L 161.460575 151.485702 
L 162.661476 152.483445 
L 163.88394 153.025632 
L 165.128451 152.850085 
L 166.395503 152.048808 
L 167.685603 150.907378 
L 168.999267 149.594369 
L 170.337021 148.181594 
L 171.699403 146.700261 
L 173.086962 145.165156 
L 174.500256 143.583833 
L 175.939855 141.960347 
L 177.40634 140.296903 
L 178.900299 138.594661 
L 180.422335 136.854147 
L 181.973056 135.07548 
L 183.553084 133.258503 
L 185.163047 131.402863 
L 186.803583 129.508056 
L 188.47534 127.573458 
L 190.178971 125.598341 
L 191.915138 123.581887 
L 193.68451 121.523191 
L 195.487763 119.421265 
L 197.325576 117.275039 
L 199.198635 115.083357 
L 201.107626 112.844977 
L 203.053242 110.55857 
L 205.036173 108.222714 
L 205.036173 108.222714 
L 206.041849 107.035772 
L 207.057114 105.835892 
" style="fill:none;stroke:#bfbf00;stroke-linecap:square;stroke-width:1.5;"/>
   </g>
   <g id="line2d_23">
    <path clip-path="url(#pbb37970558)" d="M 125.446154 131.703925 
L 126.093444 132.87283 
L 126.750593 133.993462 
L 127.41781 135.060353 
L 128.095311 136.067137 
L 128.78332 137.00646 
L 129.482065 137.869935 
L 130.191778 138.648161 
L 130.912702 139.330863 
L 131.645083 139.907191 
L 132.389173 140.366218 
L 133.145235 140.697637 
L 133.913536 140.8926 
L 134.69435 140.944563 
L 135.487959 140.849963 
L 136.294654 140.608544 
L 137.114732 140.223247 
L 137.948501 139.699702 
L 138.796273 139.045462 
L 139.658373 138.269163 
L 140.535133 137.379772 
L 141.426894 136.386001 
L 142.334006 135.295922 
L 143.25683 134.116751 
L 144.195737 132.854759 
L 145.151107 131.515281 
L 146.123331 130.102764 
L 147.112811 128.620854 
L 148.119961 127.072483 
L 149.145204 125.459953 
L 150.188978 123.785023 
L 151.251731 122.048979 
L 152.333923 120.25269 
L 153.436027 118.396669 
L 154.55853 116.481107 
L 155.701931 114.505914 
L 156.866743 112.470742 
L 158.053494 110.37501 
L 159.262724 108.217922 
L 160.494988 105.998472 
L 161.750858 103.71546 
L 163.030918 101.367489 
L 164.335769 98.95297 
L 165.666028 96.470118 
L 167.022326 93.916945 
L 168.40531 91.29125 
L 169.815646 88.590611 
L 171.254014 85.812363 
L 172.72111 82.953584 
L 172.72111 82.953584 
L 173.465654 81.493005 
L 174.217648 80.011067 
" style="fill:none;stroke:#bfbf00;stroke-linecap:square;stroke-width:1.5;"/>
   </g>
   <g id="line2d_24">
    <path clip-path="url(#pbb37970558)" d="M 140.764626 97.016735 
L 141.500455 98.269664 
L 142.246552 99.477053 
L 143.003106 100.637104 
L 143.770311 101.747919 
L 144.548365 102.807509 
L 145.337468 103.813791 
L 146.137828 104.764598 
L 146.949653 105.657683 
L 147.773158 106.490733 
L 148.608561 107.26138 
L 149.456085 107.967216 
L 150.315957 108.605814 
L 151.188409 109.174751 
L 152.073677 109.671628 
L 152.972002 110.094098 
L 153.883631 110.439896 
L 154.808812 110.706861 
L 155.747801 110.892971 
L 156.700859 110.996361 
L 157.668249 111.015351 
L 158.650243 110.948462 
L 159.647114 110.79443 
L 160.659141 110.552213 
L 161.686611 110.220995 
L 162.729812 109.800181 
L 163.789039 109.289384 
L 164.864591 108.688412 
L 165.956775 107.997245 
L 167.065898 107.21601 
L 168.192277 106.344957 
L 169.33623 105.384426 
L 170.498082 104.334821 
L 171.678163 103.196577 
L 172.876807 101.970135 
L 174.094353 100.655914 
L 175.331144 99.254285 
L 176.587529 97.765551 
L 177.86386 96.189927 
L 179.160494 94.527517 
L 180.477791 92.778302 
L 181.816117 90.942126 
L 183.17584 89.018678 
L 183.17584 89.018678 
L 183.863842 88.024085 
" style="fill:none;stroke:#bfbf00;stroke-linecap:square;stroke-width:1.5;"/>
   </g>
   <g id="line2d_25">
    <path clip-path="url(#pbb37970558)" d="M 131.293952 116.123411 
L 131.975895 117.754387 
L 132.667937 119.365727 
L 133.370286 120.956941 
L 134.083156 122.527459 
L 134.806764 124.076606 
L 135.541335 125.603586 
L 136.287096 127.10745 
L 137.044285 128.587064 
L 137.81314 130.041062 
L 138.593911 131.46779 
L 139.386849 132.865228 
L 140.192215 134.230896 
L 141.010276 135.56173 
L 141.841303 136.853916 
L 142.685577 138.102679 
L 143.543386 139.302016 
L 144.415023 140.444358 
L 145.300791 141.520167 
L 146.200998 142.517494 
L 147.115963 143.421566 
L 148.046011 144.214586 
L 148.991474 144.876014 
L 149.952696 145.383746 
L 150.930026 145.716507 
L 151.923824 145.857311 
L 152.934459 145.797041 
L 153.962307 145.536556 
L 155.007756 145.086237 
L 156.071202 144.463213 
L 157.153052 143.687722 
L 158.253721 142.780004 
L 159.373636 141.758377 
L 160.513233 140.638406 
L 161.67296 139.432813 
L 162.853274 138.151741 
L 164.054644 136.803168 
L 165.277548 135.393308 
L 166.522478 133.926977 
L 167.789936 132.407889 
L 169.080433 130.838891 
L 170.394495 129.222147 
L 171.732658 127.559276 
L 173.095469 125.851467 
L 174.483486 124.099553 
L 175.897281 122.304082 
L 177.337436 120.465357 
L 178.804545 118.583478 
L 180.299212 116.658363 
L 181.822053 114.689771 
L 183.373698 112.677314 
L 184.954783 110.620462 
L 186.565958 108.518551 
L 188.207884 106.37078 
L 189.881229 104.176205 
L 191.586672 101.933736 
L 193.324904 99.642122 
L 193.324904 99.642122 
L 194.206532 98.477448 
L 195.09662 97.29994 
" style="fill:none;stroke:#bfbf00;stroke-linecap:square;stroke-width:1.5;"/>
   </g>
   <g id="line2d_26">
    <path clip-path="url(#pbb37970558)" d="M 46.145455 242.116364 
" style="fill:none;stroke:#bfbf00;stroke-linecap:square;stroke-width:1.5;"/>
   </g>
   <g id="line2d_27">
    <path clip-path="url(#pbb37970558)" d="M 133.111909 97.098038 
L 133.806104 96.761845 
L 134.510455 96.362366 
L 135.225164 95.899038 
L 135.95044 95.371353 
L 136.686496 94.778856 
L 137.43355 94.121138 
L 138.191825 93.397834 
L 138.961551 92.608614 
L 139.742961 91.753178 
L 140.536296 90.83125 
L 141.341801 89.84257 
L 142.159726 88.786888 
L 142.990331 87.663958 
L 143.833877 86.473526 
L 144.690635 85.215332 
L 145.56088 83.889096 
L 146.444896 82.494515 
L 147.342972 81.031257 
L 148.255403 79.498957 
L 149.182493 77.897209 
L 150.124553 76.225562 
L 151.081898 74.483519 
L 152.054854 72.670528 
L 153.043754 70.785981 
L 154.048936 68.82921 
L 155.070749 66.799484 
L 155.070749 66.799484 
L 155.588003 65.757017 
" style="fill:none;stroke:#bfbf00;stroke-linecap:square;stroke-width:1.5;"/>
   </g>
   <g id="line2d_28">
    <path clip-path="url(#pbb37970558)" d="M 127.869485 75.889772 
L 128.542437 78.239567 
L 129.225617 80.565881 
L 129.919242 82.86865 
L 130.623529 85.147799 
L 131.338706 87.403242 
L 132.065004 89.634882 
L 132.802659 91.842608 
L 133.551915 94.026296 
L 134.313021 96.185799 
L 135.086234 98.320954 
L 135.871816 100.431569 
L 136.670035 102.517428 
L 137.48117 104.578277 
L 138.305501 106.613825 
L 139.143321 108.623734 
L 139.994927 110.60761 
L 140.860625 112.564991 
L 141.740729 114.495336 
L 142.63556 116.398009 
L 143.545449 118.272253 
L 144.470734 120.117171 
L 145.411763 121.931687 
L 146.368891 123.714509 
L 147.342485 125.464072 
L 148.332918 127.178469 
L 149.340577 128.855365 
L 150.365854 130.491878 
L 151.409154 132.084427 
L 152.470892 133.628539 
L 153.551493 135.118585 
L 154.651393 136.547457 
L 155.771039 137.906152 
L 156.910889 139.183271 
L 158.071412 140.364472 
L 159.25309 141.431954 
L 160.456414 142.364197 
L 161.681891 143.136323 
L 162.930037 143.721577 
L 164.201382 144.094329 
L 165.496468 144.234385 
L 166.81585 144.131318 
L 168.160095 143.786839 
L 169.529785 143.213923 
L 170.925512 142.433209 
L 172.347885 141.46853 
L 173.797524 140.343275 
L 175.275062 139.078229 
L 176.781146 137.690724 
L 178.316437 136.194613 
L 179.881608 134.600643 
L 181.477346 132.916946 
L 183.10435 131.149518 
L 184.763333 129.302635 
L 186.455019 127.379178 
L 188.180147 125.380891 
L 189.939463 123.308567 
L 191.73373 121.162186 
L 193.563716 118.941014 
L 195.430203 116.643662 
L 197.333982 114.268119 
L 199.275849 111.811769 
L 201.256612 109.271378 
L 203.277082 106.643069 
L 203.277082 106.643069 
L 204.302462 105.294548 
L 205.338076 103.92228 
" style="fill:none;stroke:#bfbf00;stroke-linecap:square;stroke-width:1.5;"/>
   </g>
   <g id="line2d_29">
    <path clip-path="url(#pbb37970558)" d="M 46.145455 242.116364 
" style="fill:none;stroke:#bfbf00;stroke-linecap:square;stroke-width:1.5;"/>
   </g>
   <g id="line2d_30">
    <path clip-path="url(#pbb37970558)" d="M 136.030178 125.759464 
L 136.746927 126.999983 
L 137.474103 128.203542 
L 138.211913 129.367257 
L 138.960569 130.487829 
L 139.720284 131.561499 
L 140.491281 132.583992 
L 141.273785 133.550481 
L 142.068028 134.455554 
L 142.874244 135.293214 
L 143.692677 136.056911 
L 144.523574 136.739633 
L 145.367188 137.334066 
L 146.223777 137.832837 
L 147.093608 138.228841 
L 147.97695 138.515631 
L 148.874081 138.687847 
L 149.785285 138.741606 
L 150.71085 138.674803 
L 151.651074 138.487259 
L 152.60626 138.180683 
L 153.576718 137.758465 
L 154.562763 137.225334 
L 155.564721 136.58696 
L 156.582922 135.849541 
L 157.617703 135.01945 
L 158.669411 134.102943 
L 159.738398 133.10596 
L 160.825024 132.033993 
L 161.929657 130.892022 
L 163.052673 129.684489 
L 164.194454 128.415313 
L 165.355393 127.087916 
L 166.535886 125.705269 
L 167.736342 124.26993 
L 168.957174 122.784096 
L 170.198804 121.249641 
L 171.461663 119.668162 
L 172.746188 118.041009 
L 174.052825 116.369319 
L 175.382026 114.654046 
L 176.734253 112.895979 
L 178.109972 111.095766 
L 179.50966 109.25393 
L 180.933798 107.37088 
L 182.382875 105.446923 
L 183.857386 103.482271 
L 185.357832 101.477048 
L 186.88472 99.43129 
L 188.438562 97.344947 
L 190.019875 95.21788 
L 190.019875 95.21788 
L 190.820996 94.139005 
" style="fill:none;stroke:#bfbf00;stroke-linecap:square;stroke-width:1.5;"/>
   </g>
   <g id="line2d_31">
    <path clip-path="url(#pbb37970558)" d="M 124.608856 127.491729 
L 125.253866 129.192163 
L 125.908762 130.876231 
L 126.573757 132.543936 
L 127.249068 134.195278 
L 127.93492 135.830257 
L 128.631543 137.448868 
L 129.339173 139.051102 
L 130.058052 140.63694 
L 130.78843 142.206355 
L 131.530563 143.759296 
L 132.284713 145.295681 
L 133.051151 146.815365 
L 133.830153 148.318082 
L 134.622006 149.803293 
L 135.427001 151.269741 
L 136.245441 152.713754 
L 137.077634 154.118495 
L 137.923898 155.210929 
L 138.78456 154.264465 
L 139.659956 152.846641 
L 140.55043 151.369092 
L 141.456339 149.852118 
L 142.378047 148.29921 
L 143.315928 146.711012 
L 144.270368 145.087346 
L 145.241764 143.427718 
L 146.230524 141.731492 
L 147.237066 139.99795 
L 148.261821 138.22633 
L 149.305232 136.415835 
L 150.367754 134.565649 
L 151.449857 132.674937 
L 152.552021 130.742851 
L 153.674742 128.76853 
L 154.818529 126.751106 
L 155.983904 124.689705 
L 157.171406 122.583446 
L 158.381588 120.431445 
L 159.615018 118.232817 
L 160.872281 115.986675 
L 162.153978 113.692135 
L 163.460726 111.348316 
L 164.793159 108.954342 
L 166.151929 106.509344 
L 167.537707 104.012462 
L 168.95118 101.462846 
L 170.393055 98.859659 
L 171.864059 96.202079 
L 173.364937 93.4893 
L 174.896456 90.720534 
L 176.4594 87.895013 
L 178.054578 85.01199 
L 178.054578 85.01199 
L 178.864512 83.548688 
" style="fill:none;stroke:#bfbf00;stroke-linecap:square;stroke-width:1.5;"/>
   </g>
   <g id="line2d_32">
    <path clip-path="url(#pbb37970558)" d="M 131.16652 113.761014 
L 131.859202 115.504674 
L 132.56227 117.226674 
L 133.275936 118.926483 
L 134.00042 120.603481 
L 134.735945 122.256937 
L 135.482741 123.885989 
L 136.241044 125.489611 
L 137.011095 127.066575 
L 137.793139 128.615404 
L 138.587431 130.134309 
L 139.394229 131.621105 
L 140.213798 133.073111 
L 141.046412 134.487011 
L 141.892348 135.858676 
L 142.751892 137.18294 
L 143.625336 138.4533 
L 144.51298 139.661562 
L 145.415131 140.797401 
L 146.332103 141.847894 
L 147.264217 142.797096 
L 148.211804 143.62586 
L 149.175201 144.312215 
L 150.154753 144.832729 
L 151.150814 145.165179 
L 152.163746 145.292294 
L 153.193921 145.205455 
L 154.241717 144.906689 
L 155.307522 144.407875 
L 156.391733 143.727637 
L 157.494758 142.887496 
L 158.617009 141.908691 
L 159.758914 140.81029 
L 160.920904 139.608414 
L 162.103424 138.316197 
L 163.306927 136.9441 
L 164.531875 135.500344 
L 165.778741 133.991342 
L 167.048006 132.422072 
L 168.340162 130.796385 
L 169.65571 129.117249 
L 170.995162 127.386933 
L 172.359037 125.607162 
L 173.747866 123.779217 
L 175.162189 121.904027 
L 176.602553 119.982233 
L 178.069517 118.014234 
L 179.563646 116.000222 
L 181.085516 113.940216 
L 182.635708 111.834073 
L 184.214815 109.681502 
L 185.823434 107.482073 
L 187.46217 105.235215 
L 189.131633 102.940217 
L 190.832441 100.596215 
L 192.565215 98.202182 
L 192.565215 98.202182 
L 193.443785 96.986035 
L 194.330581 95.756913 
" style="fill:none;stroke:#bfbf00;stroke-linecap:square;stroke-width:1.5;"/>
   </g>
   <g id="line2d_33">
    <path clip-path="url(#pbb37970558)" d="M 129.996264 105.321672 
L 130.669217 105.374716 
L 131.352152 105.360033 
L 132.045276 105.276438 
L 132.748798 105.122848 
L 133.462933 104.898286 
L 134.187903 104.601883 
L 134.923932 104.232876 
L 135.671254 103.790606 
L 136.430106 103.274515 
L 137.200731 102.684135 
L 137.983379 102.019083 
L 138.778305 101.279048 
L 139.585772 100.46378 
L 140.406049 99.573077 
L 141.23941 98.606775 
L 142.086138 97.564728 
L 142.946523 96.446802 
L 143.820861 95.252856 
L 144.709456 93.982733 
L 145.612618 92.636246 
L 146.530668 91.213168 
L 147.463932 89.71322 
L 148.412745 88.136062 
L 149.377451 86.481284 
L 150.3584 84.748399 
L 151.355954 82.936832 
L 152.37048 81.045917 
L 153.402356 79.074889 
L 154.451969 77.022876 
L 155.519716 74.888897 
L 156.606 72.671852 
L 157.711237 70.370522 
L 157.711237 70.370522 
L 158.271095 69.187834 
L 158.835851 67.983559 
" style="fill:none;stroke:#bfbf00;stroke-linecap:square;stroke-width:1.5;"/>
   </g>
   <g id="line2d_34">
    <path clip-path="url(#pbb37970558)" d="M 128.831031 107.28155 
L 129.504869 105.950857 
L 130.188839 104.557651 
L 130.883151 103.102215 
L 131.588019 101.584748 
L 132.303665 100.005364 
L 133.030314 98.364088 
L 133.7682 96.660858 
L 134.517559 94.89552 
L 135.278636 93.067833 
L 136.05168 91.177466 
L 136.836948 89.224 
L 137.634703 87.206929 
L 138.445213 85.125662 
L 139.268756 82.979525 
L 140.105613 80.767758 
L 140.956076 78.489523 
L 141.820443 76.1439 
L 142.699018 73.729891 
L 143.592114 71.246419 
L 144.500052 68.692332 
L 145.423162 66.0664 
L 146.36178 63.367322 
L 147.316252 60.593719 
L 147.316252 60.593719 
L 147.799544 59.17852 
" style="fill:none;stroke:#bfbf00;stroke-linecap:square;stroke-width:1.5;"/>
   </g>
   <g id="line2d_35">
    <path clip-path="url(#pbb37970558)" d="M 125.519087 89.745374 
L 126.173772 89.325896 
L 126.838494 88.843286 
L 127.51347 88.296954 
L 128.198919 87.686348 
L 128.895069 87.01095 
L 129.602151 86.270274 
L 130.320405 85.463864 
L 131.050075 84.591283 
L 131.791414 83.652116 
L 132.54468 82.645958 
L 133.310138 81.572414 
L 134.088061 80.431092 
L 134.878729 79.221595 
L 135.68243 77.94352 
L 136.499459 76.596451 
L 137.33012 75.179953 
L 138.174724 73.69357 
L 139.033592 72.136819 
L 139.907053 70.509183 
L 140.795445 68.810112 
L 141.699116 67.039016 
L 142.618423 65.195264 
L 143.553732 63.278174 
L 144.50542 61.287021 
L 145.473876 59.221022 
L 145.473876 59.221022 
L 145.964515 58.159697 
" style="fill:none;stroke:#bfbf00;stroke-linecap:square;stroke-width:1.5;"/>
   </g>
   <g id="line2d_36">
    <path clip-path="url(#pbb37970558)" d="M 129.24332 77.771672 
L 129.924626 79.234188 
L 130.616244 80.652479 
L 131.318386 82.025153 
L 132.031275 83.350745 
L 132.755134 84.627718 
L 133.490197 85.854462 
L 134.236699 87.029294 
L 134.994885 88.150462 
L 135.765002 89.216144 
L 136.547307 90.224453 
L 137.342061 91.173445 
L 138.149533 92.061117 
L 138.969998 92.885424 
L 139.803738 93.64428 
L 140.651041 94.335573 
L 141.512205 94.957174 
L 142.387532 95.506951 
L 143.277334 95.982784 
L 144.18193 96.382575 
L 145.101648 96.704268 
L 146.036821 96.945858 
L 146.987793 97.105411 
L 147.954917 97.181073 
L 148.938551 97.171085 
L 149.939066 97.073787 
L 150.956839 96.88763 
L 151.992258 96.61118 
L 153.045719 96.243116 
L 154.117627 95.782231 
L 155.208399 95.227422 
L 156.318459 94.577689 
L 157.448243 93.832114 
L 158.598195 92.989854 
L 159.76877 92.050116 
L 160.960434 91.012148 
L 162.173663 89.875208 
L 163.408941 88.638547 
L 164.666767 87.301385 
L 165.947645 85.862889 
L 167.252094 84.322143 
L 168.580642 82.678129 
L 169.933825 80.9297 
L 169.933825 80.9297 
L 170.619826 80.01593 
L 171.312193 79.075554 
" style="fill:none;stroke:#bfbf00;stroke-linecap:square;stroke-width:1.5;"/>
   </g>
   <g id="line2d_37">
    <path clip-path="url(#pbb37970558)" d="M 136.35023 83.144817 
L 137.059541 83.634801 
L 137.779011 84.072657 
L 138.508839 84.457277 
L 139.249227 84.787562 
L 140.000383 85.06243 
L 140.762517 85.280819 
L 141.535847 85.44169 
L 142.320593 85.544035 
L 143.116983 85.586875 
L 143.925248 85.569267 
L 144.745624 85.490307 
L 145.578355 85.349129 
L 146.423688 85.144912 
L 147.281877 84.876875 
L 148.15318 84.544281 
L 149.037863 84.146439 
L 149.936196 83.682697 
L 150.848457 83.152446 
L 151.774929 82.555112 
L 152.7159 81.89016 
L 153.671667 81.157085 
L 154.642532 80.355411 
L 155.628803 79.484683 
L 156.630797 78.544468 
L 157.648835 77.534342 
L 158.683245 76.453894 
L 159.734365 75.302709 
L 160.802537 74.080374 
L 161.888111 72.786462 
L 161.888111 72.786462 
L 162.437535 72.112528 
" style="fill:none;stroke:#bfbf00;stroke-linecap:square;stroke-width:1.5;"/>
   </g>
   <g id="line2d_38">
    <path clip-path="url(#pbb37970558)" d="M 132.497305 99.352535 
L 133.197789 100.647535 
L 133.90867 101.895235 
L 134.630158 103.093638 
L 135.362468 104.240629 
L 136.10582 105.33398 
L 136.860439 106.371351 
L 137.626554 107.350302 
L 138.404403 108.268296 
L 139.194226 109.122716 
L 139.996271 109.910885 
L 140.810791 110.630082 
L 141.638045 111.277572 
L 142.478297 111.850632 
L 143.33182 112.346589 
L 144.198891 112.762851 
L 145.079793 113.096949 
L 145.974819 113.346569 
L 146.884265 113.509596 
L 147.808437 113.584139 
L 148.747645 113.568567 
L 149.702209 113.461529 
L 150.672454 113.261964 
L 151.658714 112.969115 
L 152.66133 112.582523 
L 153.680651 112.102015 
L 154.717033 111.527688 
L 155.770841 110.859881 
L 156.842448 110.099148 
L 157.932233 109.246223 
L 159.040586 108.301985 
L 160.167905 107.267423 
L 161.314594 106.1436 
L 162.481069 104.931623 
L 163.667751 103.632615 
L 164.875073 102.247687 
L 166.103474 100.777918 
L 167.353404 99.224337 
L 168.62532 97.587911 
L 169.919688 95.869532 
L 171.236983 94.07001 
L 172.57769 92.19007 
L 173.942301 90.230351 
L 175.331317 88.191402 
L 176.745248 86.073687 
L 176.745248 86.073687 
L 177.461718 84.985414 
L 178.184612 83.877586 
" style="fill:none;stroke:#bfbf00;stroke-linecap:square;stroke-width:1.5;"/>
   </g>
   <g id="line2d_39">
    <path clip-path="url(#pbb37970558)" d="M 127.928949 44.443636 
L 143.120603 56.552593 
L 188.426638 92.924297 
L 199.56053 101.447349 
L 209.404511 108.702167 
L 217.354985 114.325979 
L 224.775118 119.354451 
L 228.068514 121.51125 
L 249.054545 134.000357 
L 249.054545 134.000357 
" style="fill:none;stroke:#008000;stroke-linecap:square;stroke-width:1.5;"/>
   </g>
   <g id="patch_3">
    <path d="M 36 252 
L 36 34.56 
" style="fill:none;stroke:#000000;stroke-linecap:square;stroke-linejoin:miter;stroke-width:0.8;"/>
   </g>
   <g id="patch_4">
    <path d="M 259.2 252 
L 259.2 34.56 
" style="fill:none;stroke:#000000;stroke-linecap:square;stroke-linejoin:miter;stroke-width:0.8;"/>
   </g>
   <g id="patch_5">
    <path d="M 36 252 
L 259.2 252 
" style="fill:none;stroke:#000000;stroke-linecap:square;stroke-linejoin:miter;stroke-width:0.8;"/>
   </g>
   <g id="patch_6">
    <path d="M 36 34.56 
L 259.2 34.56 
" style="fill:none;stroke:#000000;stroke-linecap:square;stroke-linejoin:miter;stroke-width:0.8;"/>
   </g>
   <g id="text_12">
    <!--  0.57 -->
    <g transform="translate(173.265014 79.536691)scale(0.1 -0.1)">
     <defs>
      <path id="DejaVuSans-32"/>
      <path d="M 8.203125 72.90625 
L 55.078125 72.90625 
L 55.078125 68.703125 
L 28.609375 0 
L 18.3125 0 
L 43.21875 64.59375 
L 8.203125 64.59375 
z
" id="DejaVuSans-55"/>
     </defs>
     <use xlink:href="#DejaVuSans-32"/>
     <use x="31.787109" xlink:href="#DejaVuSans-48"/>
     <use x="95.410156" xlink:href="#DejaVuSans-46"/>
     <use x="127.197266" xlink:href="#DejaVuSans-53"/>
     <use x="190.820312" xlink:href="#DejaVuSans-55"/>
    </g>
   </g>
   <g id="text_13">
    <!--  f=1 -->
    <g transform="translate(125.845817 114.933731)scale(0.1 -0.1)">
     <defs>
      <path d="M 37.109375 75.984375 
L 37.109375 68.5 
L 28.515625 68.5 
Q 23.6875 68.5 21.796875 66.546875 
Q 19.921875 64.59375 19.921875 59.515625 
L 19.921875 54.6875 
L 34.71875 54.6875 
L 34.71875 47.703125 
L 19.921875 47.703125 
L 19.921875 0 
L 10.890625 0 
L 10.890625 47.703125 
L 2.296875 47.703125 
L 2.296875 54.6875 
L 10.890625 54.6875 
L 10.890625 58.5 
Q 10.890625 67.625 15.140625 71.796875 
Q 19.390625 75.984375 28.609375 75.984375 
z
" id="DejaVuSans-102"/>
      <path d="M 10.59375 45.40625 
L 73.1875 45.40625 
L 73.1875 37.203125 
L 10.59375 37.203125 
z
M 10.59375 25.484375 
L 73.1875 25.484375 
L 73.1875 17.1875 
L 10.59375 17.1875 
z
" id="DejaVuSans-61"/>
     </defs>
     <use xlink:href="#DejaVuSans-32"/>
     <use x="31.787109" xlink:href="#DejaVuSans-102"/>
     <use x="66.992188" xlink:href="#DejaVuSans-61"/>
     <use x="150.78125" xlink:href="#DejaVuSans-49"/>
    </g>
   </g>
  </g>
 </g>
 <defs>
  <clipPath id="pbb37970558">
   <rect height="217.44" width="223.2" x="36" y="34.56"/>
  </clipPath>
 </defs>
</svg>
