<?xml version="1.0" encoding="utf-8" standalone="no"?>
<!DOCTYPE svg PUBLIC "-//W3C//DTD SVG 1.1//EN"
  "http://www.w3.org/Graphics/SVG/1.1/DTD/svg11.dtd">
<!-- Created with matplotlib (https://matplotlib.org/) -->
<svg height="288pt" version="1.1" viewBox="0 0 288 288" width="288pt" xmlns="http://www.w3.org/2000/svg" xmlns:xlink="http://www.w3.org/1999/xlink">
 <defs>
  <style type="text/css">
*{stroke-linecap:butt;stroke-linejoin:round;}
  </style>
 </defs>
 <g id="figure_1">
  <g id="patch_1">
   <path d="M 0 288 
L 288 288 
L 288 0 
L 0 0 
z
" style="fill:#ffffff;"/>
  </g>
  <g id="axes_1">
   <g id="patch_2">
    <path d="M 36 252 
L 259.2 252 
L 259.2 34.56 
L 36 34.56 
z
" style="fill:#ffffff;"/>
   </g>
   <g id="matplotlib.axis_1">
    <g id="xtick_1">
     <g id="line2d_1">
      <defs>
       <path d="M 0 0 
L 0 3.5 
" id="m02ab9a317a" style="stroke:#000000;stroke-width:0.8;"/>
      </defs>
      <g>
       <use style="stroke:#000000;stroke-width:0.8;" x="66.655277" xlink:href="#m02ab9a317a" y="252"/>
      </g>
     </g>
     <g id="text_1">
      <!-- 30 -->
      <defs>
       <path d="M 40.578125 39.3125 
Q 47.65625 37.796875 51.625 33 
Q 55.609375 28.21875 55.609375 21.1875 
Q 55.609375 10.40625 48.1875 4.484375 
Q 40.765625 -1.421875 27.09375 -1.421875 
Q 22.515625 -1.421875 17.65625 -0.515625 
Q 12.796875 0.390625 7.625 2.203125 
L 7.625 11.71875 
Q 11.71875 9.328125 16.59375 8.109375 
Q 21.484375 6.890625 26.8125 6.890625 
Q 36.078125 6.890625 40.9375 10.546875 
Q 45.796875 14.203125 45.796875 21.1875 
Q 45.796875 27.640625 41.28125 31.265625 
Q 36.765625 34.90625 28.71875 34.90625 
L 20.21875 34.90625 
L 20.21875 43.015625 
L 29.109375 43.015625 
Q 36.375 43.015625 40.234375 45.921875 
Q 44.09375 48.828125 44.09375 54.296875 
Q 44.09375 59.90625 40.109375 62.90625 
Q 36.140625 65.921875 28.71875 65.921875 
Q 24.65625 65.921875 20.015625 65.03125 
Q 15.375 64.15625 9.8125 62.3125 
L 9.8125 71.09375 
Q 15.4375 72.65625 20.34375 73.4375 
Q 25.25 74.21875 29.59375 74.21875 
Q 40.828125 74.21875 47.359375 69.109375 
Q 53.90625 64.015625 53.90625 55.328125 
Q 53.90625 49.265625 50.4375 45.09375 
Q 46.96875 40.921875 40.578125 39.3125 
z
" id="DejaVuSans-51"/>
       <path d="M 31.78125 66.40625 
Q 24.171875 66.40625 20.328125 58.90625 
Q 16.5 51.421875 16.5 36.375 
Q 16.5 21.390625 20.328125 13.890625 
Q 24.171875 6.390625 31.78125 6.390625 
Q 39.453125 6.390625 43.28125 13.890625 
Q 47.125 21.390625 47.125 36.375 
Q 47.125 51.421875 43.28125 58.90625 
Q 39.453125 66.40625 31.78125 66.40625 
z
M 31.78125 74.21875 
Q 44.046875 74.21875 50.515625 64.515625 
Q 56.984375 54.828125 56.984375 36.375 
Q 56.984375 17.96875 50.515625 8.265625 
Q 44.046875 -1.421875 31.78125 -1.421875 
Q 19.53125 -1.421875 13.0625 8.265625 
Q 6.59375 17.96875 6.59375 36.375 
Q 6.59375 54.828125 13.0625 64.515625 
Q 19.53125 74.21875 31.78125 74.21875 
z
" id="DejaVuSans-48"/>
      </defs>
      <g transform="translate(60.292777 266.598437)scale(0.1 -0.1)">
       <use xlink:href="#DejaVuSans-51"/>
       <use x="63.623047" xlink:href="#DejaVuSans-48"/>
      </g>
     </g>
    </g>
    <g id="xtick_2">
     <g id="line2d_2">
      <g>
       <use style="stroke:#000000;stroke-width:0.8;" x="112.589246" xlink:href="#m02ab9a317a" y="252"/>
      </g>
     </g>
     <g id="text_2">
      <!-- 35 -->
      <defs>
       <path d="M 10.796875 72.90625 
L 49.515625 72.90625 
L 49.515625 64.59375 
L 19.828125 64.59375 
L 19.828125 46.734375 
Q 21.96875 47.46875 24.109375 47.828125 
Q 26.265625 48.1875 28.421875 48.1875 
Q 40.625 48.1875 47.75 41.5 
Q 54.890625 34.8125 54.890625 23.390625 
Q 54.890625 11.625 47.5625 5.09375 
Q 40.234375 -1.421875 26.90625 -1.421875 
Q 22.3125 -1.421875 17.546875 -0.640625 
Q 12.796875 0.140625 7.71875 1.703125 
L 7.71875 11.625 
Q 12.109375 9.234375 16.796875 8.0625 
Q 21.484375 6.890625 26.703125 6.890625 
Q 35.15625 6.890625 40.078125 11.328125 
Q 45.015625 15.765625 45.015625 23.390625 
Q 45.015625 31 40.078125 35.4375 
Q 35.15625 39.890625 26.703125 39.890625 
Q 22.75 39.890625 18.8125 39.015625 
Q 14.890625 38.140625 10.796875 36.28125 
z
" id="DejaVuSans-53"/>
      </defs>
      <g transform="translate(106.226746 266.598437)scale(0.1 -0.1)">
       <use xlink:href="#DejaVuSans-51"/>
       <use x="63.623047" xlink:href="#DejaVuSans-53"/>
      </g>
     </g>
    </g>
    <g id="xtick_3">
     <g id="line2d_3">
      <g>
       <use style="stroke:#000000;stroke-width:0.8;" x="158.523216" xlink:href="#m02ab9a317a" y="252"/>
      </g>
     </g>
     <g id="text_3">
      <!-- 40 -->
      <defs>
       <path d="M 37.796875 64.3125 
L 12.890625 25.390625 
L 37.796875 25.390625 
z
M 35.203125 72.90625 
L 47.609375 72.90625 
L 47.609375 25.390625 
L 58.015625 25.390625 
L 58.015625 17.1875 
L 47.609375 17.1875 
L 47.609375 0 
L 37.796875 0 
L 37.796875 17.1875 
L 4.890625 17.1875 
L 4.890625 26.703125 
z
" id="DejaVuSans-52"/>
      </defs>
      <g transform="translate(152.160716 266.598437)scale(0.1 -0.1)">
       <use xlink:href="#DejaVuSans-52"/>
       <use x="63.623047" xlink:href="#DejaVuSans-48"/>
      </g>
     </g>
    </g>
    <g id="xtick_4">
     <g id="line2d_4">
      <g>
       <use style="stroke:#000000;stroke-width:0.8;" x="204.457185" xlink:href="#m02ab9a317a" y="252"/>
      </g>
     </g>
     <g id="text_4">
      <!-- 45 -->
      <g transform="translate(198.094685 266.598437)scale(0.1 -0.1)">
       <use xlink:href="#DejaVuSans-52"/>
       <use x="63.623047" xlink:href="#DejaVuSans-53"/>
      </g>
     </g>
    </g>
    <g id="xtick_5">
     <g id="line2d_5">
      <g>
       <use style="stroke:#000000;stroke-width:0.8;" x="250.391154" xlink:href="#m02ab9a317a" y="252"/>
      </g>
     </g>
     <g id="text_5">
      <!-- 50 -->
      <g transform="translate(244.028654 266.598437)scale(0.1 -0.1)">
       <use xlink:href="#DejaVuSans-53"/>
       <use x="63.623047" xlink:href="#DejaVuSans-48"/>
      </g>
     </g>
    </g>
    <g id="text_6">
     <!-- Inclination -->
     <defs>
      <path d="M 9.8125 72.90625 
L 19.671875 72.90625 
L 19.671875 0 
L 9.8125 0 
z
" id="DejaVuSans-73"/>
      <path d="M 54.890625 33.015625 
L 54.890625 0 
L 45.90625 0 
L 45.90625 32.71875 
Q 45.90625 40.484375 42.875 44.328125 
Q 39.84375 48.1875 33.796875 48.1875 
Q 26.515625 48.1875 22.3125 43.546875 
Q 18.109375 38.921875 18.109375 30.90625 
L 18.109375 0 
L 9.078125 0 
L 9.078125 54.6875 
L 18.109375 54.6875 
L 18.109375 46.1875 
Q 21.34375 51.125 25.703125 53.5625 
Q 30.078125 56 35.796875 56 
Q 45.21875 56 50.046875 50.171875 
Q 54.890625 44.34375 54.890625 33.015625 
z
" id="DejaVuSans-110"/>
      <path d="M 48.78125 52.59375 
L 48.78125 44.1875 
Q 44.96875 46.296875 41.140625 47.34375 
Q 37.3125 48.390625 33.40625 48.390625 
Q 24.65625 48.390625 19.8125 42.84375 
Q 14.984375 37.3125 14.984375 27.296875 
Q 14.984375 17.28125 19.8125 11.734375 
Q 24.65625 6.203125 33.40625 6.203125 
Q 37.3125 6.203125 41.140625 7.25 
Q 44.96875 8.296875 48.78125 10.40625 
L 48.78125 2.09375 
Q 45.015625 0.34375 40.984375 -0.53125 
Q 36.96875 -1.421875 32.421875 -1.421875 
Q 20.0625 -1.421875 12.78125 6.34375 
Q 5.515625 14.109375 5.515625 27.296875 
Q 5.515625 40.671875 12.859375 48.328125 
Q 20.21875 56 33.015625 56 
Q 37.15625 56 41.109375 55.140625 
Q 45.0625 54.296875 48.78125 52.59375 
z
" id="DejaVuSans-99"/>
      <path d="M 9.421875 75.984375 
L 18.40625 75.984375 
L 18.40625 0 
L 9.421875 0 
z
" id="DejaVuSans-108"/>
      <path d="M 9.421875 54.6875 
L 18.40625 54.6875 
L 18.40625 0 
L 9.421875 0 
z
M 9.421875 75.984375 
L 18.40625 75.984375 
L 18.40625 64.59375 
L 9.421875 64.59375 
z
" id="DejaVuSans-105"/>
      <path d="M 34.28125 27.484375 
Q 23.390625 27.484375 19.1875 25 
Q 14.984375 22.515625 14.984375 16.5 
Q 14.984375 11.71875 18.140625 8.90625 
Q 21.296875 6.109375 26.703125 6.109375 
Q 34.1875 6.109375 38.703125 11.40625 
Q 43.21875 16.703125 43.21875 25.484375 
L 43.21875 27.484375 
z
M 52.203125 31.203125 
L 52.203125 0 
L 43.21875 0 
L 43.21875 8.296875 
Q 40.140625 3.328125 35.546875 0.953125 
Q 30.953125 -1.421875 24.3125 -1.421875 
Q 15.921875 -1.421875 10.953125 3.296875 
Q 6 8.015625 6 15.921875 
Q 6 25.140625 12.171875 29.828125 
Q 18.359375 34.515625 30.609375 34.515625 
L 43.21875 34.515625 
L 43.21875 35.40625 
Q 43.21875 41.609375 39.140625 45 
Q 35.0625 48.390625 27.6875 48.390625 
Q 23 48.390625 18.546875 47.265625 
Q 14.109375 46.140625 10.015625 43.890625 
L 10.015625 52.203125 
Q 14.9375 54.109375 19.578125 55.046875 
Q 24.21875 56 28.609375 56 
Q 40.484375 56 46.34375 49.84375 
Q 52.203125 43.703125 52.203125 31.203125 
z
" id="DejaVuSans-97"/>
      <path d="M 18.3125 70.21875 
L 18.3125 54.6875 
L 36.8125 54.6875 
L 36.8125 47.703125 
L 18.3125 47.703125 
L 18.3125 18.015625 
Q 18.3125 11.328125 20.140625 9.421875 
Q 21.96875 7.515625 27.59375 7.515625 
L 36.8125 7.515625 
L 36.8125 0 
L 27.59375 0 
Q 17.1875 0 13.234375 3.875 
Q 9.28125 7.765625 9.28125 18.015625 
L 9.28125 47.703125 
L 2.6875 47.703125 
L 2.6875 54.6875 
L 9.28125 54.6875 
L 9.28125 70.21875 
z
" id="DejaVuSans-116"/>
      <path d="M 30.609375 48.390625 
Q 23.390625 48.390625 19.1875 42.75 
Q 14.984375 37.109375 14.984375 27.296875 
Q 14.984375 17.484375 19.15625 11.84375 
Q 23.34375 6.203125 30.609375 6.203125 
Q 37.796875 6.203125 41.984375 11.859375 
Q 46.1875 17.53125 46.1875 27.296875 
Q 46.1875 37.015625 41.984375 42.703125 
Q 37.796875 48.390625 30.609375 48.390625 
z
M 30.609375 56 
Q 42.328125 56 49.015625 48.375 
Q 55.71875 40.765625 55.71875 27.296875 
Q 55.71875 13.875 49.015625 6.21875 
Q 42.328125 -1.421875 30.609375 -1.421875 
Q 18.84375 -1.421875 12.171875 6.21875 
Q 5.515625 13.875 5.515625 27.296875 
Q 5.515625 40.765625 12.171875 48.375 
Q 18.84375 56 30.609375 56 
z
" id="DejaVuSans-111"/>
     </defs>
     <g transform="translate(121.61875 280.276563)scale(0.1 -0.1)">
      <use xlink:href="#DejaVuSans-73"/>
      <use x="29.492188" xlink:href="#DejaVuSans-110"/>
      <use x="92.871094" xlink:href="#DejaVuSans-99"/>
      <use x="147.851562" xlink:href="#DejaVuSans-108"/>
      <use x="175.634766" xlink:href="#DejaVuSans-105"/>
      <use x="203.417969" xlink:href="#DejaVuSans-110"/>
      <use x="266.796875" xlink:href="#DejaVuSans-97"/>
      <use x="328.076172" xlink:href="#DejaVuSans-116"/>
      <use x="367.285156" xlink:href="#DejaVuSans-105"/>
      <use x="395.068359" xlink:href="#DejaVuSans-111"/>
      <use x="456.25" xlink:href="#DejaVuSans-110"/>
     </g>
    </g>
   </g>
   <g id="matplotlib.axis_2">
    <g id="ytick_1">
     <g id="line2d_6">
      <defs>
       <path d="M 0 0 
L -3.5 0 
" id="m319053e937" style="stroke:#000000;stroke-width:0.8;"/>
      </defs>
      <g>
       <use style="stroke:#000000;stroke-width:0.8;" x="36" xlink:href="#m319053e937" y="251.027319"/>
      </g>
     </g>
     <g id="text_7">
      <!-- 1.0 -->
      <defs>
       <path d="M 12.40625 8.296875 
L 28.515625 8.296875 
L 28.515625 63.921875 
L 10.984375 60.40625 
L 10.984375 69.390625 
L 28.421875 72.90625 
L 38.28125 72.90625 
L 38.28125 8.296875 
L 54.390625 8.296875 
L 54.390625 0 
L 12.40625 0 
z
" id="DejaVuSans-49"/>
       <path d="M 10.6875 12.40625 
L 21 12.40625 
L 21 0 
L 10.6875 0 
z
" id="DejaVuSans-46"/>
      </defs>
      <g transform="translate(13.096875 254.826538)scale(0.1 -0.1)">
       <use xlink:href="#DejaVuSans-49"/>
       <use x="63.623047" xlink:href="#DejaVuSans-46"/>
       <use x="95.410156" xlink:href="#DejaVuSans-48"/>
      </g>
     </g>
    </g>
    <g id="ytick_2">
     <g id="line2d_7">
      <g>
       <use style="stroke:#000000;stroke-width:0.8;" x="36" xlink:href="#m319053e937" y="217.31314"/>
      </g>
     </g>
     <g id="text_8">
      <!-- 1.2 -->
      <defs>
       <path d="M 19.1875 8.296875 
L 53.609375 8.296875 
L 53.609375 0 
L 7.328125 0 
L 7.328125 8.296875 
Q 12.9375 14.109375 22.625 23.890625 
Q 32.328125 33.6875 34.8125 36.53125 
Q 39.546875 41.84375 41.421875 45.53125 
Q 43.3125 49.21875 43.3125 52.78125 
Q 43.3125 58.59375 39.234375 62.25 
Q 35.15625 65.921875 28.609375 65.921875 
Q 23.96875 65.921875 18.8125 64.3125 
Q 13.671875 62.703125 7.8125 59.421875 
L 7.8125 69.390625 
Q 13.765625 71.78125 18.9375 73 
Q 24.125 74.21875 28.421875 74.21875 
Q 39.75 74.21875 46.484375 68.546875 
Q 53.21875 62.890625 53.21875 53.421875 
Q 53.21875 48.921875 51.53125 44.890625 
Q 49.859375 40.875 45.40625 35.40625 
Q 44.1875 33.984375 37.640625 27.21875 
Q 31.109375 20.453125 19.1875 8.296875 
z
" id="DejaVuSans-50"/>
      </defs>
      <g transform="translate(13.096875 221.112358)scale(0.1 -0.1)">
       <use xlink:href="#DejaVuSans-49"/>
       <use x="63.623047" xlink:href="#DejaVuSans-46"/>
       <use x="95.410156" xlink:href="#DejaVuSans-50"/>
      </g>
     </g>
    </g>
    <g id="ytick_3">
     <g id="line2d_8">
      <g>
       <use style="stroke:#000000;stroke-width:0.8;" x="36" xlink:href="#m319053e937" y="183.59896"/>
      </g>
     </g>
     <g id="text_9">
      <!-- 1.4 -->
      <g transform="translate(13.096875 187.398178)scale(0.1 -0.1)">
       <use xlink:href="#DejaVuSans-49"/>
       <use x="63.623047" xlink:href="#DejaVuSans-46"/>
       <use x="95.410156" xlink:href="#DejaVuSans-52"/>
      </g>
     </g>
    </g>
    <g id="ytick_4">
     <g id="line2d_9">
      <g>
       <use style="stroke:#000000;stroke-width:0.8;" x="36" xlink:href="#m319053e937" y="149.88478"/>
      </g>
     </g>
     <g id="text_10">
      <!-- 1.6 -->
      <defs>
       <path d="M 33.015625 40.375 
Q 26.375 40.375 22.484375 35.828125 
Q 18.609375 31.296875 18.609375 23.390625 
Q 18.609375 15.53125 22.484375 10.953125 
Q 26.375 6.390625 33.015625 6.390625 
Q 39.65625 6.390625 43.53125 10.953125 
Q 47.40625 15.53125 47.40625 23.390625 
Q 47.40625 31.296875 43.53125 35.828125 
Q 39.65625 40.375 33.015625 40.375 
z
M 52.59375 71.296875 
L 52.59375 62.3125 
Q 48.875 64.0625 45.09375 64.984375 
Q 41.3125 65.921875 37.59375 65.921875 
Q 27.828125 65.921875 22.671875 59.328125 
Q 17.53125 52.734375 16.796875 39.40625 
Q 19.671875 43.65625 24.015625 45.921875 
Q 28.375 48.1875 33.59375 48.1875 
Q 44.578125 48.1875 50.953125 41.515625 
Q 57.328125 34.859375 57.328125 23.390625 
Q 57.328125 12.15625 50.6875 5.359375 
Q 44.046875 -1.421875 33.015625 -1.421875 
Q 20.359375 -1.421875 13.671875 8.265625 
Q 6.984375 17.96875 6.984375 36.375 
Q 6.984375 53.65625 15.1875 63.9375 
Q 23.390625 74.21875 37.203125 74.21875 
Q 40.921875 74.21875 44.703125 73.484375 
Q 48.484375 72.75 52.59375 71.296875 
z
" id="DejaVuSans-54"/>
      </defs>
      <g transform="translate(13.096875 153.683999)scale(0.1 -0.1)">
       <use xlink:href="#DejaVuSans-49"/>
       <use x="63.623047" xlink:href="#DejaVuSans-46"/>
       <use x="95.410156" xlink:href="#DejaVuSans-54"/>
      </g>
     </g>
    </g>
    <g id="ytick_5">
     <g id="line2d_10">
      <g>
       <use style="stroke:#000000;stroke-width:0.8;" x="36" xlink:href="#m319053e937" y="116.1706"/>
      </g>
     </g>
     <g id="text_11">
      <!-- 1.8 -->
      <defs>
       <path d="M 31.78125 34.625 
Q 24.75 34.625 20.71875 30.859375 
Q 16.703125 27.09375 16.703125 20.515625 
Q 16.703125 13.921875 20.71875 10.15625 
Q 24.75 6.390625 31.78125 6.390625 
Q 38.8125 6.390625 42.859375 10.171875 
Q 46.921875 13.96875 46.921875 20.515625 
Q 46.921875 27.09375 42.890625 30.859375 
Q 38.875 34.625 31.78125 34.625 
z
M 21.921875 38.8125 
Q 15.578125 40.375 12.03125 44.71875 
Q 8.5 49.078125 8.5 55.328125 
Q 8.5 64.0625 14.71875 69.140625 
Q 20.953125 74.21875 31.78125 74.21875 
Q 42.671875 74.21875 48.875 69.140625 
Q 55.078125 64.0625 55.078125 55.328125 
Q 55.078125 49.078125 51.53125 44.71875 
Q 48 40.375 41.703125 38.8125 
Q 48.828125 37.15625 52.796875 32.3125 
Q 56.78125 27.484375 56.78125 20.515625 
Q 56.78125 9.90625 50.3125 4.234375 
Q 43.84375 -1.421875 31.78125 -1.421875 
Q 19.734375 -1.421875 13.25 4.234375 
Q 6.78125 9.90625 6.78125 20.515625 
Q 6.78125 27.484375 10.78125 32.3125 
Q 14.796875 37.15625 21.921875 38.8125 
z
M 18.3125 54.390625 
Q 18.3125 48.734375 21.84375 45.5625 
Q 25.390625 42.390625 31.78125 42.390625 
Q 38.140625 42.390625 41.71875 45.5625 
Q 45.3125 48.734375 45.3125 54.390625 
Q 45.3125 60.0625 41.71875 63.234375 
Q 38.140625 66.40625 31.78125 66.40625 
Q 25.390625 66.40625 21.84375 63.234375 
Q 18.3125 60.0625 18.3125 54.390625 
z
" id="DejaVuSans-56"/>
      </defs>
      <g transform="translate(13.096875 119.969819)scale(0.1 -0.1)">
       <use xlink:href="#DejaVuSans-49"/>
       <use x="63.623047" xlink:href="#DejaVuSans-46"/>
       <use x="95.410156" xlink:href="#DejaVuSans-56"/>
      </g>
     </g>
    </g>
    <g id="ytick_6">
     <g id="line2d_11">
      <g>
       <use style="stroke:#000000;stroke-width:0.8;" x="36" xlink:href="#m319053e937" y="82.45642"/>
      </g>
     </g>
     <g id="text_12">
      <!-- 2.0 -->
      <g transform="translate(13.096875 86.255639)scale(0.1 -0.1)">
       <use xlink:href="#DejaVuSans-50"/>
       <use x="63.623047" xlink:href="#DejaVuSans-46"/>
       <use x="95.410156" xlink:href="#DejaVuSans-48"/>
      </g>
     </g>
    </g>
    <g id="ytick_7">
     <g id="line2d_12">
      <g>
       <use style="stroke:#000000;stroke-width:0.8;" x="36" xlink:href="#m319053e937" y="48.74224"/>
      </g>
     </g>
     <g id="text_13">
      <!-- 2.2 -->
      <g transform="translate(13.096875 52.541459)scale(0.1 -0.1)">
       <use xlink:href="#DejaVuSans-50"/>
       <use x="63.623047" xlink:href="#DejaVuSans-46"/>
       <use x="95.410156" xlink:href="#DejaVuSans-50"/>
      </g>
     </g>
    </g>
    <g id="text_14">
     <!-- Elongation -->
     <defs>
      <path d="M 9.8125 72.90625 
L 55.90625 72.90625 
L 55.90625 64.59375 
L 19.671875 64.59375 
L 19.671875 43.015625 
L 54.390625 43.015625 
L 54.390625 34.71875 
L 19.671875 34.71875 
L 19.671875 8.296875 
L 56.78125 8.296875 
L 56.78125 0 
L 9.8125 0 
z
" id="DejaVuSans-69"/>
      <path d="M 45.40625 27.984375 
Q 45.40625 37.75 41.375 43.109375 
Q 37.359375 48.484375 30.078125 48.484375 
Q 22.859375 48.484375 18.828125 43.109375 
Q 14.796875 37.75 14.796875 27.984375 
Q 14.796875 18.265625 18.828125 12.890625 
Q 22.859375 7.515625 30.078125 7.515625 
Q 37.359375 7.515625 41.375 12.890625 
Q 45.40625 18.265625 45.40625 27.984375 
z
M 54.390625 6.78125 
Q 54.390625 -7.171875 48.1875 -13.984375 
Q 42 -20.796875 29.203125 -20.796875 
Q 24.46875 -20.796875 20.265625 -20.09375 
Q 16.0625 -19.390625 12.109375 -17.921875 
L 12.109375 -9.1875 
Q 16.0625 -11.328125 19.921875 -12.34375 
Q 23.78125 -13.375 27.78125 -13.375 
Q 36.625 -13.375 41.015625 -8.765625 
Q 45.40625 -4.15625 45.40625 5.171875 
L 45.40625 9.625 
Q 42.625 4.78125 38.28125 2.390625 
Q 33.9375 0 27.875 0 
Q 17.828125 0 11.671875 7.65625 
Q 5.515625 15.328125 5.515625 27.984375 
Q 5.515625 40.671875 11.671875 48.328125 
Q 17.828125 56 27.875 56 
Q 33.9375 56 38.28125 53.609375 
Q 42.625 51.21875 45.40625 46.390625 
L 45.40625 54.6875 
L 54.390625 54.6875 
z
" id="DejaVuSans-103"/>
     </defs>
     <g transform="translate(7.017187 169.872187)rotate(-90)scale(0.1 -0.1)">
      <use xlink:href="#DejaVuSans-69"/>
      <use x="63.183594" xlink:href="#DejaVuSans-108"/>
      <use x="90.966797" xlink:href="#DejaVuSans-111"/>
      <use x="152.148438" xlink:href="#DejaVuSans-110"/>
      <use x="215.527344" xlink:href="#DejaVuSans-103"/>
      <use x="279.003906" xlink:href="#DejaVuSans-97"/>
      <use x="340.283203" xlink:href="#DejaVuSans-116"/>
      <use x="379.492188" xlink:href="#DejaVuSans-105"/>
      <use x="407.275391" xlink:href="#DejaVuSans-111"/>
      <use x="468.457031" xlink:href="#DejaVuSans-110"/>
     </g>
    </g>
   </g>
   <g id="line2d_13">
    <path clip-path="url(#p85e24bddd3)" d="M 57.794656 215.741849 
L 59.950928 213.034175 
L 62.139335 210.226445 
L 64.360536 207.323034 
L 66.615206 204.327031 
L 68.904038 201.240526 
L 71.22774 198.064809 
L 73.587039 194.800533 
L 75.98268 191.44783 
L 78.415424 188.006404 
L 80.886053 184.475599 
L 83.395368 180.854455 
L 85.94419 177.141745 
L 88.533359 173.336011 
L 91.163736 169.435585 
L 93.836204 165.438613 
L 96.551667 161.343063 
L 99.311052 157.146743 
L 102.115308 152.847304 
L 104.965408 148.44225 
L 107.862347 143.928939 
L 110.807146 139.304587 
L 113.80085 134.56627 
L 116.844529 129.710924 
L 119.939281 124.735342 
L 123.086227 119.636178 
L 126.286517 114.409937 
L 129.541327 109.052978 
L 132.851863 103.56151 
L 136.219357 97.931582 
L 139.64507 92.159085 
L 143.130294 86.239743 
L 143.130294 86.239743 
L 144.895633 83.22362 
" style="fill:none;stroke:#ff0000;stroke-linecap:square;stroke-width:1.5;"/>
   </g>
   <g id="line2d_14">
    <path clip-path="url(#p85e24bddd3)" d="M 50.136359 165.208719 
L 52.236461 162.46584 
L 54.368101 159.614582 
L 56.531936 156.655407 
L 58.728641 153.588565 
L 60.958907 150.414096 
L 63.223442 147.131834 
L 65.522972 143.741412 
L 67.858243 140.242268 
L 70.230019 136.633649 
L 72.639084 132.914615 
L 75.086241 129.084048 
L 77.572314 125.140649 
L 80.098149 121.082947 
L 82.664613 116.909302 
L 85.272596 112.617905 
L 87.92301 108.206782 
L 90.61679 103.673796 
L 93.354896 99.016646 
L 96.138314 94.232871 
L 98.968052 89.319846 
L 101.845146 84.274784 
L 104.770658 79.094734 
L 107.745679 73.776578 
L 110.771325 68.317034 
L 110.771325 68.317034 
L 112.30349 65.533168 
" style="fill:none;stroke:#bfbf00;stroke-linecap:square;stroke-width:1.5;"/>
   </g>
   <g id="line2d_15">
    <path clip-path="url(#p85e24bddd3)" d="M 67.253711 166.385606 
L 69.436645 162.718715 
L 71.651201 158.969499 
L 73.898004 155.136184 
L 76.177695 151.216892 
L 78.490932 147.209642 
L 80.838385 143.112356 
L 83.220741 138.922857 
L 85.638704 134.638869 
L 88.092993 130.258019 
L 90.584345 125.777835 
L 93.113514 121.195746 
L 95.681271 116.509079 
L 98.288406 111.715057 
L 100.935727 106.810801 
L 103.62406 101.793322 
L 106.354251 96.659521 
L 109.127166 91.406188 
L 111.94369 86.029994 
L 114.804729 80.527493 
L 117.71121 74.895113 
L 117.71121 74.895113 
L 119.181787 72.029068 
L 120.664082 69.129157 
" style="fill:none;stroke:#bfbf00;stroke-linecap:square;stroke-width:1.5;"/>
   </g>
   <g id="line2d_16">
    <path clip-path="url(#p85e24bddd3)" d="M 62.286769 137.670599 
L 64.438598 133.654161 
L 66.621916 129.538775 
L 68.837359 125.322423 
L 71.08558 121.002955 
L 73.367246 116.578086 
L 75.683044 112.045403 
L 78.033675 107.402361 
L 80.419856 102.646284 
L 82.842325 97.774359 
L 85.301835 92.783643 
L 87.79916 87.671051 
L 90.335091 82.43336 
L 92.910441 77.067203 
L 95.526039 71.569064 
L 98.182737 65.935279 
L 98.182737 65.935279 
L 99.526771 63.06633 
L 100.881409 60.162024 
" style="fill:none;stroke:#bfbf00;stroke-linecap:square;stroke-width:1.5;"/>
   </g>
   <g id="line2d_17">
    <path clip-path="url(#p85e24bddd3)" d="M 64.530813 184.54298 
L 66.724704 182.514758 
L 68.950885 180.346038 
L 71.210006 178.039437 
L 73.502731 175.597336 
L 75.829741 173.02185 
L 78.191733 170.314797 
L 80.589421 167.477688 
L 83.023534 164.511718 
L 85.494822 161.41776 
L 88.004049 158.19637 
L 90.551999 154.84779 
L 93.139475 151.371953 
L 95.767298 147.768494 
L 98.436308 144.036752 
L 101.147367 140.175785 
L 103.901356 136.184372 
L 106.699175 132.061024 
L 109.541749 127.803987 
L 112.430021 123.411251 
L 115.364958 118.880553 
L 118.347549 114.20938 
L 121.378805 109.394972 
L 124.459762 104.434326 
L 127.591478 99.324191 
L 130.775036 94.061073 
L 134.011543 88.641229 
L 137.302132 83.060668 
L 137.302132 83.060668 
L 138.968068 80.208802 
" style="fill:none;stroke:#bfbf00;stroke-linecap:square;stroke-width:1.5;"/>
   </g>
   <g id="line2d_18">
    <path clip-path="url(#p85e24bddd3)" d="M 64.472859 223.031507 
L 66.675091 221.980995 
L 68.909789 220.69474 
L 71.177603 219.19011 
L 73.4792 217.484576 
L 75.815262 215.594719 
L 78.186489 213.535619 
L 80.593595 211.320567 
L 83.037313 208.961001 
L 85.518391 206.466579 
L 88.037596 203.84533 
L 90.595714 201.103835 
L 93.193546 198.247413 
L 95.831916 195.280292 
L 98.511665 192.205768 
L 101.233654 189.026343 
L 103.998763 185.743837 
L 106.807894 182.359489 
L 109.66197 178.874039 
L 112.561933 175.287797 
L 115.508749 171.600702 
L 118.503406 167.812362 
L 121.546912 163.922102 
L 124.640301 159.928992 
L 127.784628 155.831872 
L 130.980972 151.629379 
L 134.230436 147.319962 
L 137.534148 142.901897 
L 140.89326 138.373304 
L 144.308948 133.732151 
L 147.782414 128.976268 
L 151.314884 124.103349 
L 154.907613 119.110963 
L 158.561878 113.996555 
L 162.278984 108.757449 
L 166.06026 103.390852 
L 169.907063 97.893857 
L 169.907063 97.893857 
L 171.855468 95.09552 
" style="fill:none;stroke:#bfbf00;stroke-linecap:square;stroke-width:1.5;"/>
   </g>
   <g id="line2d_19">
    <path clip-path="url(#p85e24bddd3)" d="M 49.366595 81.237745 
L 51.477851 78.244486 
L 53.62123 75.118101 
L 55.797415 71.856457 
L 58.007106 68.457299 
L 60.251021 64.918245 
L 62.529895 61.236772 
L 64.844485 57.410208 
L 67.195566 53.435725 
L 69.583934 49.310326 
L 69.583934 49.310326 
L 70.792354 47.190048 
L 72.010404 45.030836 
" style="fill:none;stroke:#bfbf00;stroke-linecap:square;stroke-width:1.5;"/>
   </g>
   <g id="line2d_20">
    <path clip-path="url(#p85e24bddd3)" d="M 73.866178 200.169133 
L 76.105654 197.408376 
L 78.377503 194.539505 
L 80.682357 191.565115 
L 83.020867 188.487107 
L 85.393695 185.306776 
L 87.80152 182.024883 
L 90.245038 178.641723 
L 92.724957 175.157179 
L 95.242004 171.570764 
L 97.79692 167.88166 
L 100.390466 164.088752 
L 103.023417 160.190647 
L 105.696568 156.1857 
L 108.410728 152.072026 
L 111.166728 147.847517 
L 113.965415 143.509849 
L 116.807656 139.056492 
L 119.694337 134.484714 
L 122.626361 129.791586 
L 125.604655 124.973979 
L 128.630161 120.028573 
L 131.703846 114.951847 
L 134.826693 109.740082 
L 137.99971 104.389356 
L 141.223923 98.89554 
L 144.50038 93.25429 
L 147.830152 87.461045 
L 147.830152 87.461045 
L 149.515371 84.505936 
" style="fill:none;stroke:#bfbf00;stroke-linecap:square;stroke-width:1.5;"/>
   </g>
   <g id="line2d_21">
    <path clip-path="url(#p85e24bddd3)" d="M 54.275339 212.238128 
L 56.399667 209.215723 
L 58.555775 206.131723 
L 60.744323 202.984586 
L 62.965989 199.772721 
L 65.221466 196.494494 
L 67.511466 193.148218 
L 69.836717 189.732159 
L 72.197968 186.244532 
L 74.595986 182.683497 
L 77.031557 179.047161 
L 79.505487 175.333577 
L 82.018602 171.540738 
L 84.571752 167.66658 
L 87.165804 163.708978 
L 89.801652 159.665742 
L 92.480208 155.534619 
L 95.202411 151.31329 
L 97.969221 146.999367 
L 100.781626 142.590389 
L 103.640635 138.083824 
L 106.547285 133.477064 
L 109.502639 128.767422 
L 112.507786 123.952131 
L 115.563843 119.02834 
L 118.671956 113.993113 
L 121.833298 108.843424 
L 125.049072 103.576154 
L 128.320511 98.18809 
L 131.648877 92.675917 
L 135.035467 87.036218 
L 138.481604 81.265469 
L 138.481604 81.265469 
L 140.227427 78.329819 
" style="fill:none;stroke:#bfbf00;stroke-linecap:square;stroke-width:1.5;"/>
   </g>
   <g id="line2d_22">
    <path clip-path="url(#p85e24bddd3)" d="M 52.220997 222.897123 
L 54.363048 225.686388 
L 56.537515 228.409687 
L 58.745073 231.051644 
L 60.986413 233.588335 
L 63.262244 235.981223 
L 65.573291 238.166444 
L 67.920298 240.037522 
L 70.304029 241.426478 
L 72.725265 242.116364 
L 75.184807 241.944238 
L 77.683477 240.935697 
L 80.222117 239.274691 
L 82.801588 237.160007 
L 85.422777 234.73351 
L 88.086588 232.082323 
L 90.793952 229.257929 
L 93.54582 226.290877 
L 96.343168 223.199546 
L 99.186996 219.995087 
L 102.078329 216.684215 
L 105.018217 213.270817 
L 108.007736 209.756912 
L 111.047988 206.143239 
L 114.140104 202.429631 
L 117.285239 198.615256 
L 120.484579 194.698774 
L 123.739337 190.678447 
L 127.050755 186.552216 
L 130.420108 182.317748 
L 133.848695 177.972477 
L 137.337852 173.513624 
L 140.888942 168.938222 
L 144.503361 164.243121 
L 148.182537 159.425001 
L 151.92793 154.480375 
L 155.741033 149.405589 
L 159.623372 144.196826 
L 163.576506 138.850102 
L 167.602029 133.361263 
L 171.701566 127.72598 
L 175.87678 121.939746 
L 180.129364 115.997863 
L 184.461048 109.895438 
L 184.461048 109.895438 
L 186.657101 106.782438 
L 188.873593 103.627372 
" style="fill:none;stroke:#bfbf00;stroke-linecap:square;stroke-width:1.5;"/>
   </g>
   <g id="line2d_23">
    <path clip-path="url(#p85e24bddd3)" d="M 60.707271 184.26363 
L 62.872349 180.971298 
L 65.069342 177.587011 
L 67.298894 174.11043 
L 69.561667 170.540935 
L 71.858335 166.877656 
L 74.189592 163.119496 
L 76.556146 159.265156 
L 78.958725 155.313145 
L 81.398071 151.2618 
L 83.874946 147.109293 
L 86.390131 142.853643 
L 88.944424 138.492721 
L 91.538643 134.024257 
L 94.173626 129.445844 
L 96.850232 124.754943 
L 99.569338 119.948883 
L 102.331844 115.024868 
L 105.138671 109.979971 
L 107.990764 104.81114 
L 110.889086 99.515196 
L 113.834627 94.088836 
L 116.828399 88.528628 
L 119.871437 82.831011 
L 122.964802 76.992299 
L 122.964802 76.992299 
L 124.530695 74.018844 
" style="fill:none;stroke:#bfbf00;stroke-linecap:square;stroke-width:1.5;"/>
   </g>
   <g id="line2d_24">
    <path clip-path="url(#p85e24bddd3)" d="M 59.00032 232.320924 
L 61.168005 230.084811 
L 63.367935 227.656165 
L 65.60077 225.066291 
L 67.867184 222.336828 
L 70.167869 219.48264 
L 72.503532 216.513872 
L 74.8749 213.437361 
L 77.282716 210.25759 
L 79.72774 206.97734 
L 82.210755 203.598132 
L 84.732559 200.120538 
L 87.293971 196.544395 
L 89.895831 192.868961 
L 92.539 189.093022 
L 95.224357 185.214971 
L 97.952807 181.232869 
L 100.725274 177.144483 
L 103.542706 172.947317 
L 106.406075 168.638636 
L 109.316374 164.215478 
L 112.274624 159.674666 
L 115.281867 155.012814 
L 118.339174 150.22633 
L 121.44764 145.311418 
L 124.608385 140.264072 
L 127.82256 135.080077 
L 131.09134 129.755001 
L 134.415928 124.284193 
L 137.797559 118.662766 
L 141.237494 112.885596 
L 144.737024 106.947307 
L 148.297471 100.842259 
L 151.920187 94.564535 
L 151.920187 94.564535 
L 153.755326 91.35899 
L 155.606553 88.107923 
" style="fill:none;stroke:#bfbf00;stroke-linecap:square;stroke-width:1.5;"/>
   </g>
   <g id="line2d_25">
    <path clip-path="url(#p85e24bddd3)" d="M 60.861349 195.041897 
L 63.045424 192.375212 
L 65.261982 189.582325 
L 67.511686 186.666534 
L 69.795213 183.630461 
L 72.113257 180.476104 
L 74.46653 177.204894 
L 76.85576 173.817748 
L 79.281691 170.315114 
L 81.745089 166.697014 
L 84.246736 162.96308 
L 86.787433 159.112586 
L 89.368001 155.144476 
L 91.98928 151.057388 
L 94.652133 146.84967 
L 97.35744 142.519402 
L 100.106105 138.064405 
L 102.899053 133.482252 
L 105.737232 128.770277 
L 108.62161 123.925582 
L 111.553183 118.945039 
L 114.532965 113.825292 
L 117.561999 108.562763 
L 120.641349 103.153644 
L 123.772108 97.593899 
L 126.955391 91.879261 
L 130.192341 86.005224 
L 133.484126 79.967039 
L 133.484126 79.967039 
L 135.150955 76.88484 
" style="fill:none;stroke:#bfbf00;stroke-linecap:square;stroke-width:1.5;"/>
   </g>
   <g id="line2d_26">
    <path clip-path="url(#p85e24bddd3)" d="M 58.077616 162.320141 
L 60.221494 158.547381 
L 62.397091 154.696562 
L 64.605052 150.765827 
L 66.846041 146.753261 
L 69.120735 142.656886 
L 71.42983 138.474666 
L 73.774038 134.204498 
L 76.154088 129.84422 
L 78.570729 125.391604 
L 81.024727 120.844356 
L 83.516865 116.200118 
L 86.047949 111.456462 
L 88.618803 106.61089 
L 91.23027 101.660836 
L 93.883216 96.603657 
L 96.578527 91.43664 
L 99.317112 86.156995 
L 102.0999 80.761854 
L 104.927844 75.248268 
L 107.801922 69.613211 
L 107.801922 69.613211 
L 109.256573 66.74916 
L 110.723134 63.853568 
" style="fill:none;stroke:#bfbf00;stroke-linecap:square;stroke-width:1.5;"/>
   </g>
   <g id="line2d_27">
    <path clip-path="url(#p85e24bddd3)" d="M 56.263011 214.190352 
L 58.408107 211.502887 
L 60.585208 208.731832 
L 62.79497 205.880072 
L 65.038068 202.949638 
L 67.315195 199.941885 
L 69.627057 196.857636 
L 71.974382 193.697283 
L 74.357913 190.460866 
L 76.778413 187.148142 
L 79.236663 183.758625 
L 81.733465 180.291628 
L 84.269638 176.746291 
L 86.846025 173.121604 
L 89.463487 169.416428 
L 92.122908 165.629508 
L 94.825194 161.759484 
L 97.571272 157.804904 
L 100.362093 153.764232 
L 103.198632 149.635852 
L 106.081888 145.418077 
L 109.012884 141.10915 
L 111.992667 136.707254 
L 115.022313 132.210509 
L 118.102921 127.61698 
L 121.235618 122.92468 
L 124.421559 118.131569 
L 127.661925 113.235558 
L 130.957928 108.234515 
L 134.310806 103.126263 
L 137.721828 97.908583 
L 141.192294 92.579219 
L 144.723531 87.135875 
L 144.723531 87.135875 
L 146.512362 84.370735 
" style="fill:none;stroke:#bfbf00;stroke-linecap:square;stroke-width:1.5;"/>
   </g>
   <g id="line2d_28">
    <path clip-path="url(#p85e24bddd3)" d="M 60.598586 194.198907 
L 62.760625 190.990177 
L 64.954592 187.718282 
L 67.181135 184.381762 
L 69.440917 180.979118 
L 71.734618 177.508811 
L 74.062936 173.969261 
L 76.426583 170.358848 
L 78.826289 166.67591 
L 81.262805 162.918747 
L 83.736896 159.085616 
L 86.249347 155.174731 
L 88.800964 151.184267 
L 91.39257 147.112355 
L 94.025008 142.957086 
L 96.699145 138.716507 
L 99.415864 134.388623 
L 102.176074 129.971399 
L 104.980702 125.462757 
L 107.8307 120.860577 
L 110.727041 116.162699 
L 113.670724 111.366923 
L 116.66277 106.471009 
L 119.704224 101.47268 
L 122.796156 96.369622 
L 125.939662 91.159486 
L 129.135864 85.839888 
L 132.38591 80.408416 
L 132.38591 80.408416 
L 134.03149 77.649965 
" style="fill:none;stroke:#bfbf00;stroke-linecap:square;stroke-width:1.5;"/>
   </g>
   <g id="line2d_29">
    <path clip-path="url(#p85e24bddd3)" d="M 60.496886 231.043796 
L 62.663109 228.718465 
L 64.861386 226.273057 
L 67.09237 223.722905 
L 69.35673 221.078485 
L 71.655151 218.346965 
L 73.988333 215.533227 
L 76.356997 212.640542 
L 78.761877 209.671022 
L 81.203729 206.62593 
L 83.683324 203.505895 
L 86.201456 200.311063 
L 88.758935 197.041201 
L 91.356592 193.695778 
L 93.995279 190.274022 
L 96.675867 186.77496 
L 99.399252 183.197452 
L 102.166347 179.540216 
L 104.978092 175.801841 
L 107.835447 171.980809 
L 110.739396 168.075498 
L 113.690947 164.084197 
L 116.691133 160.005109 
L 119.741011 155.836355 
L 122.841665 151.575984 
L 125.994202 147.221968 
L 129.199759 142.77221 
L 132.459498 138.224543 
L 135.774609 133.576734 
L 139.146309 128.82648 
L 142.575846 123.971412 
L 146.064493 119.009095 
L 149.613557 113.937023 
L 153.22437 108.752625 
L 156.898299 103.453257 
L 160.636738 98.036205 
L 160.636738 98.036205 
L 162.530593 95.282679 
L 164.441113 92.498681 
" style="fill:none;stroke:#bfbf00;stroke-linecap:square;stroke-width:1.5;"/>
   </g>
   <g id="line2d_30">
    <path clip-path="url(#p85e24bddd3)" d="M 48.622875 201.144583 
L 50.711945 197.811182 
L 52.83252 194.398399 
L 54.985262 190.904611 
L 57.170853 187.328012 
L 59.38999 183.666635 
L 61.643389 179.918363 
L 63.931787 176.080938 
L 66.255935 172.151964 
L 68.616608 168.128918 
L 71.014601 164.009142 
L 73.450726 159.789849 
L 75.92582 155.46812 
L 78.440741 151.040904 
L 80.99637 146.505009 
L 83.593608 141.857105 
L 86.233384 137.093715 
L 88.916649 132.211213 
L 91.64438 127.205815 
L 94.417579 122.073572 
L 97.237273 116.810368 
L 100.10452 111.411906 
L 103.020402 105.873704 
L 105.986031 100.191083 
L 109.002547 94.359157 
L 112.071122 88.372826 
L 115.192955 82.226759 
L 118.36928 75.915387 
L 118.36928 75.915387 
L 119.978271 72.695902 
L 121.601361 69.432886 
" style="fill:none;stroke:#bfbf00;stroke-linecap:square;stroke-width:1.5;"/>
   </g>
   <g id="line2d_31">
    <path clip-path="url(#p85e24bddd3)" d="M 69.548415 213.388213 
L 71.769256 211.475039 
L 74.02258 209.397701 
L 76.309036 207.166491 
L 78.629289 204.790389 
L 80.984019 202.277067 
L 83.373921 199.632956 
L 85.799708 196.863342 
L 88.262109 193.972481 
L 90.761869 190.963708 
L 93.299754 187.839542 
L 95.876544 184.601782 
L 98.493039 181.251592 
L 101.150059 177.789573 
L 103.84844 174.215824 
L 106.589041 170.53 
L 109.372739 166.731351 
L 112.20043 162.818759 
L 115.073034 158.790773 
L 117.991489 154.645625 
L 120.956757 150.381257 
L 123.969821 145.995334 
L 127.031685 141.485252 
L 130.143378 136.848151 
L 133.30595 132.080919 
L 136.520476 127.180193 
L 139.788053 122.142362 
L 143.109804 116.963562 
L 146.486875 111.639678 
L 149.920437 106.166333 
L 153.411687 100.538884 
L 156.961845 94.75241 
L 156.961845 94.75241 
L 158.759404 91.797923 
L 160.572159 88.801703 
" style="fill:none;stroke:#bfbf00;stroke-linecap:square;stroke-width:1.5;"/>
   </g>
   <g id="line2d_32">
    <path clip-path="url(#p85e24bddd3)" d="M 46.145455 183.25545 
L 48.233988 180.494218 
L 50.3543 177.612923 
L 52.507064 174.613281 
L 54.692972 171.496582 
L 56.912733 168.263716 
L 59.167075 164.915193 
L 61.456743 161.451171 
L 63.782506 157.871475 
L 66.145148 154.175615 
L 68.545477 150.362808 
L 70.984321 146.431991 
L 73.46253 142.381836 
L 75.980978 138.210766 
L 78.540559 133.916956 
L 81.142194 129.498352 
L 83.786826 124.952671 
L 86.475424 120.277409 
L 89.208984 115.469845 
L 91.988525 110.527042 
L 94.815098 105.445851 
L 97.689777 100.222906 
L 100.613669 94.854629 
L 103.587907 89.337224 
L 106.613656 83.666674 
L 109.692112 77.838737 
L 112.824502 71.848941 
L 112.824502 71.848941 
L 114.411314 68.791883 
" style="fill:none;stroke:#bfbf00;stroke-linecap:square;stroke-width:1.5;"/>
   </g>
   <g id="line2d_33">
    <path clip-path="url(#p85e24bddd3)" d="M 66.482804 214.846675 
L 68.677305 212.039597 
L 70.903729 209.117191 
L 73.162708 206.084812 
L 75.454888 202.946253 
L 77.780929 199.704074 
L 80.141509 196.359854 
L 82.537319 192.914381 
L 84.969069 189.3678 
L 87.437482 185.719722 
L 89.943301 181.969308 
L 92.487285 178.115337 
L 95.070209 174.156251 
L 97.692869 170.090199 
L 100.356076 165.915063 
L 103.060663 161.62848 
L 105.80748 157.227863 
L 108.597397 152.710407 
L 111.431303 148.073105 
L 114.31011 143.312748 
L 117.234748 138.425933 
L 120.206168 133.409064 
L 123.225345 128.258351 
L 126.293273 122.96981 
L 129.41097 117.539258 
L 132.579475 111.962312 
L 135.799852 106.234383 
L 139.073186 100.350673 
L 142.400586 94.306162 
L 145.783187 88.095606 
L 145.783187 88.095606 
L 147.495548 84.92636 
" style="fill:none;stroke:#bfbf00;stroke-linecap:square;stroke-width:1.5;"/>
   </g>
   <g id="line2d_34">
    <path clip-path="url(#p85e24bddd3)" d="M 70.750578 237.819741 
L 72.970897 239.051338 
L 75.223305 239.810651 
L 77.508428 240.000654 
L 79.826907 239.585938 
L 82.179396 238.612355 
L 84.566566 237.177498 
L 86.989101 235.385564 
L 89.447701 233.32183 
L 91.943082 231.047942 
L 94.475977 228.606148 
L 97.047133 226.024889 
L 99.657315 223.323276 
L 102.307306 220.514193 
L 104.997905 217.606339 
L 107.729928 214.605561 
L 110.504211 211.515725 
L 113.321606 208.339289 
L 116.182985 205.077696 
L 119.089239 201.731636 
L 122.041278 198.301231 
L 125.040031 194.786165 
L 128.086448 191.18578 
L 131.181496 187.499145 
L 134.326166 183.725102 
L 137.521469 179.86231 
L 140.768434 175.909269 
L 144.068114 171.864347 
L 147.421582 167.725793 
L 150.829933 163.491757 
L 154.294283 159.160293 
L 157.815771 154.729376 
L 161.395556 150.196908 
L 165.03482 145.560722 
L 168.734769 140.818592 
L 172.496628 135.968234 
L 176.321646 131.007319 
L 180.211093 125.933471 
L 184.166263 120.744274 
L 188.188471 115.43728 
L 192.279053 110.010012 
L 192.279053 110.010012 
L 194.350408 107.250496 
" style="fill:none;stroke:#bfbf00;stroke-linecap:square;stroke-width:1.5;"/>
   </g>
   <g id="line2d_35">
    <path clip-path="url(#p85e24bddd3)" d="M 65.908952 168.679775 
L 68.096051 165.112999 
L 70.315204 161.465429 
L 72.567056 157.735407 
L 74.852268 153.921162 
L 77.171517 150.020816 
L 79.525495 146.032385 
L 81.914911 141.953784 
L 84.340492 137.782823 
L 86.80298 133.517211 
L 89.303137 129.154555 
L 91.841742 124.692358 
L 94.419593 120.128021 
L 97.037508 115.458836 
L 99.696322 110.681989 
L 102.396892 105.794556 
L 105.140094 100.793499 
L 107.926826 95.675667 
L 110.758006 90.437787 
L 113.634575 85.076467 
L 116.557494 79.588187 
L 119.527747 73.969299 
L 119.527747 73.969299 
L 121.030939 71.109699 
" style="fill:none;stroke:#bfbf00;stroke-linecap:square;stroke-width:1.5;"/>
   </g>
   <g id="line2d_36">
    <path clip-path="url(#p85e24bddd3)" d="M 51.054591 204.9463 
L 53.191625 201.612598 
L 55.361092 198.203891 
L 57.563669 194.718368 
L 59.800052 191.154114 
L 62.070954 187.509114 
L 64.377107 183.78126 
L 66.719259 179.968353 
L 69.09818 176.068105 
L 71.514657 172.078139 
L 73.969498 167.99599 
L 76.463532 163.819102 
L 78.997608 159.544828 
L 81.572597 155.170428 
L 84.189393 150.693066 
L 86.84891 146.109811 
L 89.552089 141.417629 
L 92.299891 136.613385 
L 95.093305 131.693838 
L 97.933343 126.655636 
L 100.821043 121.495316 
L 103.757468 116.209298 
L 106.74371 110.79388 
L 109.780886 105.24524 
L 112.870145 99.559424 
L 116.01266 93.732345 
L 119.209636 87.75978 
L 122.462306 81.637364 
L 125.771937 75.360581 
L 125.771937 75.360581 
L 127.448515 72.16285 
" style="fill:none;stroke:#bfbf00;stroke-linecap:square;stroke-width:1.5;"/>
   </g>
   <g id="line2d_37">
    <path clip-path="url(#p85e24bddd3)" d="M 66.824245 143.844926 
L 69.029067 140.259921 
L 71.266176 136.553757 
L 73.536218 132.725135 
L 75.839856 128.772528 
L 78.177764 124.69418 
L 80.550636 120.488111 
L 82.959182 116.15212 
L 85.404127 111.68378 
L 87.886214 107.080442 
L 90.406204 102.33923 
L 92.964875 97.457046 
L 95.563026 92.430558 
L 98.20147 87.256204 
L 100.881045 81.930185 
L 103.602603 76.448455 
L 106.36702 70.806725 
L 106.36702 70.806725 
L 107.76558 67.924448 
L 109.175192 65.000444 
" style="fill:none;stroke:#bfbf00;stroke-linecap:square;stroke-width:1.5;"/>
   </g>
   <g id="line2d_38">
    <path clip-path="url(#p85e24bddd3)" d="M 59.629251 148.707193 
L 61.798858 148.208658 
L 64.00066 147.572434 
L 66.235311 146.797137 
L 68.503482 145.88157 
L 70.805858 144.824711 
L 73.143144 143.625704 
L 75.516061 142.283839 
L 77.925345 140.798538 
L 80.371753 139.169334 
L 82.856059 137.395852 
L 85.379056 135.477784 
L 87.941556 133.41487 
L 90.54439 131.206874 
L 93.188412 128.853565 
L 95.874493 126.354695 
L 98.603527 123.709982 
L 101.37643 120.91909 
L 104.194138 117.981616 
L 107.057611 114.897071 
L 109.967832 111.664873 
L 112.925807 108.28433 
L 115.932566 104.754636 
L 118.989163 101.074858 
L 122.096678 97.243931 
L 125.256216 93.260654 
L 128.468906 89.123681 
L 131.735905 84.831525 
L 135.058396 80.382546 
L 135.058396 80.382546 
L 136.740829 78.098697 
" style="fill:none;stroke:#bfbf00;stroke-linecap:square;stroke-width:1.5;"/>
   </g>
   <g id="line2d_39">
    <path clip-path="url(#p85e24bddd3)" d="M 66.002383 44.443636 
L 98.957018 61.058548 
L 212.445868 118.510905 
L 236.134527 130.168971 
L 249.054545 136.429999 
L 249.054545 136.429999 
" style="fill:none;stroke:#008000;stroke-linecap:square;stroke-width:1.5;"/>
   </g>
   <g id="patch_3">
    <path d="M 36 252 
L 36 34.56 
" style="fill:none;stroke:#000000;stroke-linecap:square;stroke-linejoin:miter;stroke-width:0.8;"/>
   </g>
   <g id="patch_4">
    <path d="M 259.2 252 
L 259.2 34.56 
" style="fill:none;stroke:#000000;stroke-linecap:square;stroke-linejoin:miter;stroke-width:0.8;"/>
   </g>
   <g id="patch_5">
    <path d="M 36 252 
L 259.2 252 
" style="fill:none;stroke:#000000;stroke-linecap:square;stroke-linejoin:miter;stroke-width:0.8;"/>
   </g>
   <g id="patch_6">
    <path d="M 36 34.56 
L 259.2 34.56 
" style="fill:none;stroke:#000000;stroke-linecap:square;stroke-linejoin:miter;stroke-width:0.8;"/>
   </g>
   <g id="text_15">
    <!--  0.68 -->
    <defs>
     <path id="DejaVuSans-32"/>
    </defs>
    <g transform="translate(144.895633 83.22362)scale(0.1 -0.1)">
     <use xlink:href="#DejaVuSans-32"/>
     <use x="31.787109" xlink:href="#DejaVuSans-48"/>
     <use x="95.410156" xlink:href="#DejaVuSans-46"/>
     <use x="127.197266" xlink:href="#DejaVuSans-54"/>
     <use x="190.820312" xlink:href="#DejaVuSans-56"/>
    </g>
   </g>
   <g id="text_16">
    <!--  f=1 -->
    <defs>
     <path d="M 37.109375 75.984375 
L 37.109375 68.5 
L 28.515625 68.5 
Q 23.6875 68.5 21.796875 66.546875 
Q 19.921875 64.59375 19.921875 59.515625 
L 19.921875 54.6875 
L 34.71875 54.6875 
L 34.71875 47.703125 
L 19.921875 47.703125 
L 19.921875 0 
L 10.890625 0 
L 10.890625 47.703125 
L 2.296875 47.703125 
L 2.296875 54.6875 
L 10.890625 54.6875 
L 10.890625 58.5 
Q 10.890625 67.625 15.140625 71.796875 
Q 19.390625 75.984375 28.609375 75.984375 
z
" id="DejaVuSans-102"/>
     <path d="M 10.59375 45.40625 
L 73.1875 45.40625 
L 73.1875 37.203125 
L 10.59375 37.203125 
z
M 10.59375 25.484375 
L 73.1875 25.484375 
L 73.1875 17.1875 
L 10.59375 17.1875 
z
" id="DejaVuSans-61"/>
    </defs>
    <g transform="translate(39.421068 215.741849)scale(0.1 -0.1)">
     <use xlink:href="#DejaVuSans-32"/>
     <use x="31.787109" xlink:href="#DejaVuSans-102"/>
     <use x="66.992188" xlink:href="#DejaVuSans-61"/>
     <use x="150.78125" xlink:href="#DejaVuSans-49"/>
    </g>
   </g>
  </g>
 </g>
 <defs>
  <clipPath id="p85e24bddd3">
   <rect height="217.44" width="223.2" x="36" y="34.56"/>
  </clipPath>
 </defs>
</svg>
