<?xml version="1.0" encoding="utf-8" standalone="no"?>
<!DOCTYPE svg PUBLIC "-//W3C//DTD SVG 1.1//EN"
  "http://www.w3.org/Graphics/SVG/1.1/DTD/svg11.dtd">
<!-- Created with matplotlib (https://matplotlib.org/) -->
<svg height="288pt" version="1.1" viewBox="0 0 288 288" width="288pt" xmlns="http://www.w3.org/2000/svg" xmlns:xlink="http://www.w3.org/1999/xlink">
 <defs>
  <style type="text/css">
*{stroke-linecap:butt;stroke-linejoin:round;}
  </style>
 </defs>
 <g id="figure_1">
  <g id="patch_1">
   <path d="M 0 288 
L 288 288 
L 288 0 
L 0 0 
z
" style="fill:#ffffff;"/>
  </g>
  <g id="axes_1">
   <g id="patch_2">
    <path d="M 36 252 
L 259.2 252 
L 259.2 34.56 
L 36 34.56 
z
" style="fill:#ffffff;"/>
   </g>
   <g id="matplotlib.axis_1">
    <g id="xtick_1">
     <g id="line2d_1">
      <defs>
       <path d="M 0 0 
L 0 3.5 
" id="mc2c92547dd" style="stroke:#000000;stroke-width:0.8;"/>
      </defs>
      <g>
       <use style="stroke:#000000;stroke-width:0.8;" x="89.973587" xlink:href="#mc2c92547dd" y="252"/>
      </g>
     </g>
     <g id="text_1">
      <!-- 30 -->
      <defs>
       <path d="M 40.578125 39.3125 
Q 47.65625 37.796875 51.625 33 
Q 55.609375 28.21875 55.609375 21.1875 
Q 55.609375 10.40625 48.1875 4.484375 
Q 40.765625 -1.421875 27.09375 -1.421875 
Q 22.515625 -1.421875 17.65625 -0.515625 
Q 12.796875 0.390625 7.625 2.203125 
L 7.625 11.71875 
Q 11.71875 9.328125 16.59375 8.109375 
Q 21.484375 6.890625 26.8125 6.890625 
Q 36.078125 6.890625 40.9375 10.546875 
Q 45.796875 14.203125 45.796875 21.1875 
Q 45.796875 27.640625 41.28125 31.265625 
Q 36.765625 34.90625 28.71875 34.90625 
L 20.21875 34.90625 
L 20.21875 43.015625 
L 29.109375 43.015625 
Q 36.375 43.015625 40.234375 45.921875 
Q 44.09375 48.828125 44.09375 54.296875 
Q 44.09375 59.90625 40.109375 62.90625 
Q 36.140625 65.921875 28.71875 65.921875 
Q 24.65625 65.921875 20.015625 65.03125 
Q 15.375 64.15625 9.8125 62.3125 
L 9.8125 71.09375 
Q 15.4375 72.65625 20.34375 73.4375 
Q 25.25 74.21875 29.59375 74.21875 
Q 40.828125 74.21875 47.359375 69.109375 
Q 53.90625 64.015625 53.90625 55.328125 
Q 53.90625 49.265625 50.4375 45.09375 
Q 46.96875 40.921875 40.578125 39.3125 
z
" id="DejaVuSans-51"/>
       <path d="M 31.78125 66.40625 
Q 24.171875 66.40625 20.328125 58.90625 
Q 16.5 51.421875 16.5 36.375 
Q 16.5 21.390625 20.328125 13.890625 
Q 24.171875 6.390625 31.78125 6.390625 
Q 39.453125 6.390625 43.28125 13.890625 
Q 47.125 21.390625 47.125 36.375 
Q 47.125 51.421875 43.28125 58.90625 
Q 39.453125 66.40625 31.78125 66.40625 
z
M 31.78125 74.21875 
Q 44.046875 74.21875 50.515625 64.515625 
Q 56.984375 54.828125 56.984375 36.375 
Q 56.984375 17.96875 50.515625 8.265625 
Q 44.046875 -1.421875 31.78125 -1.421875 
Q 19.53125 -1.421875 13.0625 8.265625 
Q 6.59375 17.96875 6.59375 36.375 
Q 6.59375 54.828125 13.0625 64.515625 
Q 19.53125 74.21875 31.78125 74.21875 
z
" id="DejaVuSans-48"/>
      </defs>
      <g transform="translate(83.611087 266.598437)scale(0.1 -0.1)">
       <use xlink:href="#DejaVuSans-51"/>
       <use x="63.623047" xlink:href="#DejaVuSans-48"/>
      </g>
     </g>
    </g>
    <g id="xtick_2">
     <g id="line2d_2">
      <g>
       <use style="stroke:#000000;stroke-width:0.8;" x="146.136436" xlink:href="#mc2c92547dd" y="252"/>
      </g>
     </g>
     <g id="text_2">
      <!-- 35 -->
      <defs>
       <path d="M 10.796875 72.90625 
L 49.515625 72.90625 
L 49.515625 64.59375 
L 19.828125 64.59375 
L 19.828125 46.734375 
Q 21.96875 47.46875 24.109375 47.828125 
Q 26.265625 48.1875 28.421875 48.1875 
Q 40.625 48.1875 47.75 41.5 
Q 54.890625 34.8125 54.890625 23.390625 
Q 54.890625 11.625 47.5625 5.09375 
Q 40.234375 -1.421875 26.90625 -1.421875 
Q 22.3125 -1.421875 17.546875 -0.640625 
Q 12.796875 0.140625 7.71875 1.703125 
L 7.71875 11.625 
Q 12.109375 9.234375 16.796875 8.0625 
Q 21.484375 6.890625 26.703125 6.890625 
Q 35.15625 6.890625 40.078125 11.328125 
Q 45.015625 15.765625 45.015625 23.390625 
Q 45.015625 31 40.078125 35.4375 
Q 35.15625 39.890625 26.703125 39.890625 
Q 22.75 39.890625 18.8125 39.015625 
Q 14.890625 38.140625 10.796875 36.28125 
z
" id="DejaVuSans-53"/>
      </defs>
      <g transform="translate(139.773936 266.598437)scale(0.1 -0.1)">
       <use xlink:href="#DejaVuSans-51"/>
       <use x="63.623047" xlink:href="#DejaVuSans-53"/>
      </g>
     </g>
    </g>
    <g id="xtick_3">
     <g id="line2d_3">
      <g>
       <use style="stroke:#000000;stroke-width:0.8;" x="202.299286" xlink:href="#mc2c92547dd" y="252"/>
      </g>
     </g>
     <g id="text_3">
      <!-- 40 -->
      <defs>
       <path d="M 37.796875 64.3125 
L 12.890625 25.390625 
L 37.796875 25.390625 
z
M 35.203125 72.90625 
L 47.609375 72.90625 
L 47.609375 25.390625 
L 58.015625 25.390625 
L 58.015625 17.1875 
L 47.609375 17.1875 
L 47.609375 0 
L 37.796875 0 
L 37.796875 17.1875 
L 4.890625 17.1875 
L 4.890625 26.703125 
z
" id="DejaVuSans-52"/>
      </defs>
      <g transform="translate(195.936786 266.598437)scale(0.1 -0.1)">
       <use xlink:href="#DejaVuSans-52"/>
       <use x="63.623047" xlink:href="#DejaVuSans-48"/>
      </g>
     </g>
    </g>
    <g id="xtick_4">
     <g id="line2d_4">
      <g>
       <use style="stroke:#000000;stroke-width:0.8;" x="258.462135" xlink:href="#mc2c92547dd" y="252"/>
      </g>
     </g>
     <g id="text_4">
      <!-- 45 -->
      <g transform="translate(252.099635 266.598437)scale(0.1 -0.1)">
       <use xlink:href="#DejaVuSans-52"/>
       <use x="63.623047" xlink:href="#DejaVuSans-53"/>
      </g>
     </g>
    </g>
    <g id="text_5">
     <!-- Inclination -->
     <defs>
      <path d="M 9.8125 72.90625 
L 19.671875 72.90625 
L 19.671875 0 
L 9.8125 0 
z
" id="DejaVuSans-73"/>
      <path d="M 54.890625 33.015625 
L 54.890625 0 
L 45.90625 0 
L 45.90625 32.71875 
Q 45.90625 40.484375 42.875 44.328125 
Q 39.84375 48.1875 33.796875 48.1875 
Q 26.515625 48.1875 22.3125 43.546875 
Q 18.109375 38.921875 18.109375 30.90625 
L 18.109375 0 
L 9.078125 0 
L 9.078125 54.6875 
L 18.109375 54.6875 
L 18.109375 46.1875 
Q 21.34375 51.125 25.703125 53.5625 
Q 30.078125 56 35.796875 56 
Q 45.21875 56 50.046875 50.171875 
Q 54.890625 44.34375 54.890625 33.015625 
z
" id="DejaVuSans-110"/>
      <path d="M 48.78125 52.59375 
L 48.78125 44.1875 
Q 44.96875 46.296875 41.140625 47.34375 
Q 37.3125 48.390625 33.40625 48.390625 
Q 24.65625 48.390625 19.8125 42.84375 
Q 14.984375 37.3125 14.984375 27.296875 
Q 14.984375 17.28125 19.8125 11.734375 
Q 24.65625 6.203125 33.40625 6.203125 
Q 37.3125 6.203125 41.140625 7.25 
Q 44.96875 8.296875 48.78125 10.40625 
L 48.78125 2.09375 
Q 45.015625 0.34375 40.984375 -0.53125 
Q 36.96875 -1.421875 32.421875 -1.421875 
Q 20.0625 -1.421875 12.78125 6.34375 
Q 5.515625 14.109375 5.515625 27.296875 
Q 5.515625 40.671875 12.859375 48.328125 
Q 20.21875 56 33.015625 56 
Q 37.15625 56 41.109375 55.140625 
Q 45.0625 54.296875 48.78125 52.59375 
z
" id="DejaVuSans-99"/>
      <path d="M 9.421875 75.984375 
L 18.40625 75.984375 
L 18.40625 0 
L 9.421875 0 
z
" id="DejaVuSans-108"/>
      <path d="M 9.421875 54.6875 
L 18.40625 54.6875 
L 18.40625 0 
L 9.421875 0 
z
M 9.421875 75.984375 
L 18.40625 75.984375 
L 18.40625 64.59375 
L 9.421875 64.59375 
z
" id="DejaVuSans-105"/>
      <path d="M 34.28125 27.484375 
Q 23.390625 27.484375 19.1875 25 
Q 14.984375 22.515625 14.984375 16.5 
Q 14.984375 11.71875 18.140625 8.90625 
Q 21.296875 6.109375 26.703125 6.109375 
Q 34.1875 6.109375 38.703125 11.40625 
Q 43.21875 16.703125 43.21875 25.484375 
L 43.21875 27.484375 
z
M 52.203125 31.203125 
L 52.203125 0 
L 43.21875 0 
L 43.21875 8.296875 
Q 40.140625 3.328125 35.546875 0.953125 
Q 30.953125 -1.421875 24.3125 -1.421875 
Q 15.921875 -1.421875 10.953125 3.296875 
Q 6 8.015625 6 15.921875 
Q 6 25.140625 12.171875 29.828125 
Q 18.359375 34.515625 30.609375 34.515625 
L 43.21875 34.515625 
L 43.21875 35.40625 
Q 43.21875 41.609375 39.140625 45 
Q 35.0625 48.390625 27.6875 48.390625 
Q 23 48.390625 18.546875 47.265625 
Q 14.109375 46.140625 10.015625 43.890625 
L 10.015625 52.203125 
Q 14.9375 54.109375 19.578125 55.046875 
Q 24.21875 56 28.609375 56 
Q 40.484375 56 46.34375 49.84375 
Q 52.203125 43.703125 52.203125 31.203125 
z
" id="DejaVuSans-97"/>
      <path d="M 18.3125 70.21875 
L 18.3125 54.6875 
L 36.8125 54.6875 
L 36.8125 47.703125 
L 18.3125 47.703125 
L 18.3125 18.015625 
Q 18.3125 11.328125 20.140625 9.421875 
Q 21.96875 7.515625 27.59375 7.515625 
L 36.8125 7.515625 
L 36.8125 0 
L 27.59375 0 
Q 17.1875 0 13.234375 3.875 
Q 9.28125 7.765625 9.28125 18.015625 
L 9.28125 47.703125 
L 2.6875 47.703125 
L 2.6875 54.6875 
L 9.28125 54.6875 
L 9.28125 70.21875 
z
" id="DejaVuSans-116"/>
      <path d="M 30.609375 48.390625 
Q 23.390625 48.390625 19.1875 42.75 
Q 14.984375 37.109375 14.984375 27.296875 
Q 14.984375 17.484375 19.15625 11.84375 
Q 23.34375 6.203125 30.609375 6.203125 
Q 37.796875 6.203125 41.984375 11.859375 
Q 46.1875 17.53125 46.1875 27.296875 
Q 46.1875 37.015625 41.984375 42.703125 
Q 37.796875 48.390625 30.609375 48.390625 
z
M 30.609375 56 
Q 42.328125 56 49.015625 48.375 
Q 55.71875 40.765625 55.71875 27.296875 
Q 55.71875 13.875 49.015625 6.21875 
Q 42.328125 -1.421875 30.609375 -1.421875 
Q 18.84375 -1.421875 12.171875 6.21875 
Q 5.515625 13.875 5.515625 27.296875 
Q 5.515625 40.765625 12.171875 48.375 
Q 18.84375 56 30.609375 56 
z
" id="DejaVuSans-111"/>
     </defs>
     <g transform="translate(121.61875 280.276563)scale(0.1 -0.1)">
      <use xlink:href="#DejaVuSans-73"/>
      <use x="29.492188" xlink:href="#DejaVuSans-110"/>
      <use x="92.871094" xlink:href="#DejaVuSans-99"/>
      <use x="147.851562" xlink:href="#DejaVuSans-108"/>
      <use x="175.634766" xlink:href="#DejaVuSans-105"/>
      <use x="203.417969" xlink:href="#DejaVuSans-110"/>
      <use x="266.796875" xlink:href="#DejaVuSans-97"/>
      <use x="328.076172" xlink:href="#DejaVuSans-116"/>
      <use x="367.285156" xlink:href="#DejaVuSans-105"/>
      <use x="395.068359" xlink:href="#DejaVuSans-111"/>
      <use x="456.25" xlink:href="#DejaVuSans-110"/>
     </g>
    </g>
   </g>
   <g id="matplotlib.axis_2">
    <g id="ytick_1">
     <g id="line2d_5">
      <defs>
       <path d="M 0 0 
L -3.5 0 
" id="m0f460c7dc0" style="stroke:#000000;stroke-width:0.8;"/>
      </defs>
      <g>
       <use style="stroke:#000000;stroke-width:0.8;" x="36" xlink:href="#m0f460c7dc0" y="217.624737"/>
      </g>
     </g>
     <g id="text_6">
      <!-- 1.4 -->
      <defs>
       <path d="M 12.40625 8.296875 
L 28.515625 8.296875 
L 28.515625 63.921875 
L 10.984375 60.40625 
L 10.984375 69.390625 
L 28.421875 72.90625 
L 38.28125 72.90625 
L 38.28125 8.296875 
L 54.390625 8.296875 
L 54.390625 0 
L 12.40625 0 
z
" id="DejaVuSans-49"/>
       <path d="M 10.6875 12.40625 
L 21 12.40625 
L 21 0 
L 10.6875 0 
z
" id="DejaVuSans-46"/>
      </defs>
      <g transform="translate(13.096875 221.423956)scale(0.1 -0.1)">
       <use xlink:href="#DejaVuSans-49"/>
       <use x="63.623047" xlink:href="#DejaVuSans-46"/>
       <use x="95.410156" xlink:href="#DejaVuSans-52"/>
      </g>
     </g>
    </g>
    <g id="ytick_2">
     <g id="line2d_6">
      <g>
       <use style="stroke:#000000;stroke-width:0.8;" x="36" xlink:href="#m0f460c7dc0" y="179.404651"/>
      </g>
     </g>
     <g id="text_7">
      <!-- 1.6 -->
      <defs>
       <path d="M 33.015625 40.375 
Q 26.375 40.375 22.484375 35.828125 
Q 18.609375 31.296875 18.609375 23.390625 
Q 18.609375 15.53125 22.484375 10.953125 
Q 26.375 6.390625 33.015625 6.390625 
Q 39.65625 6.390625 43.53125 10.953125 
Q 47.40625 15.53125 47.40625 23.390625 
Q 47.40625 31.296875 43.53125 35.828125 
Q 39.65625 40.375 33.015625 40.375 
z
M 52.59375 71.296875 
L 52.59375 62.3125 
Q 48.875 64.0625 45.09375 64.984375 
Q 41.3125 65.921875 37.59375 65.921875 
Q 27.828125 65.921875 22.671875 59.328125 
Q 17.53125 52.734375 16.796875 39.40625 
Q 19.671875 43.65625 24.015625 45.921875 
Q 28.375 48.1875 33.59375 48.1875 
Q 44.578125 48.1875 50.953125 41.515625 
Q 57.328125 34.859375 57.328125 23.390625 
Q 57.328125 12.15625 50.6875 5.359375 
Q 44.046875 -1.421875 33.015625 -1.421875 
Q 20.359375 -1.421875 13.671875 8.265625 
Q 6.984375 17.96875 6.984375 36.375 
Q 6.984375 53.65625 15.1875 63.9375 
Q 23.390625 74.21875 37.203125 74.21875 
Q 40.921875 74.21875 44.703125 73.484375 
Q 48.484375 72.75 52.59375 71.296875 
z
" id="DejaVuSans-54"/>
      </defs>
      <g transform="translate(13.096875 183.20387)scale(0.1 -0.1)">
       <use xlink:href="#DejaVuSans-49"/>
       <use x="63.623047" xlink:href="#DejaVuSans-46"/>
       <use x="95.410156" xlink:href="#DejaVuSans-54"/>
      </g>
     </g>
    </g>
    <g id="ytick_3">
     <g id="line2d_7">
      <g>
       <use style="stroke:#000000;stroke-width:0.8;" x="36" xlink:href="#m0f460c7dc0" y="141.184566"/>
      </g>
     </g>
     <g id="text_8">
      <!-- 1.8 -->
      <defs>
       <path d="M 31.78125 34.625 
Q 24.75 34.625 20.71875 30.859375 
Q 16.703125 27.09375 16.703125 20.515625 
Q 16.703125 13.921875 20.71875 10.15625 
Q 24.75 6.390625 31.78125 6.390625 
Q 38.8125 6.390625 42.859375 10.171875 
Q 46.921875 13.96875 46.921875 20.515625 
Q 46.921875 27.09375 42.890625 30.859375 
Q 38.875 34.625 31.78125 34.625 
z
M 21.921875 38.8125 
Q 15.578125 40.375 12.03125 44.71875 
Q 8.5 49.078125 8.5 55.328125 
Q 8.5 64.0625 14.71875 69.140625 
Q 20.953125 74.21875 31.78125 74.21875 
Q 42.671875 74.21875 48.875 69.140625 
Q 55.078125 64.0625 55.078125 55.328125 
Q 55.078125 49.078125 51.53125 44.71875 
Q 48 40.375 41.703125 38.8125 
Q 48.828125 37.15625 52.796875 32.3125 
Q 56.78125 27.484375 56.78125 20.515625 
Q 56.78125 9.90625 50.3125 4.234375 
Q 43.84375 -1.421875 31.78125 -1.421875 
Q 19.734375 -1.421875 13.25 4.234375 
Q 6.78125 9.90625 6.78125 20.515625 
Q 6.78125 27.484375 10.78125 32.3125 
Q 14.796875 37.15625 21.921875 38.8125 
z
M 18.3125 54.390625 
Q 18.3125 48.734375 21.84375 45.5625 
Q 25.390625 42.390625 31.78125 42.390625 
Q 38.140625 42.390625 41.71875 45.5625 
Q 45.3125 48.734375 45.3125 54.390625 
Q 45.3125 60.0625 41.71875 63.234375 
Q 38.140625 66.40625 31.78125 66.40625 
Q 25.390625 66.40625 21.84375 63.234375 
Q 18.3125 60.0625 18.3125 54.390625 
z
" id="DejaVuSans-56"/>
      </defs>
      <g transform="translate(13.096875 144.983785)scale(0.1 -0.1)">
       <use xlink:href="#DejaVuSans-49"/>
       <use x="63.623047" xlink:href="#DejaVuSans-46"/>
       <use x="95.410156" xlink:href="#DejaVuSans-56"/>
      </g>
     </g>
    </g>
    <g id="ytick_4">
     <g id="line2d_8">
      <g>
       <use style="stroke:#000000;stroke-width:0.8;" x="36" xlink:href="#m0f460c7dc0" y="102.96448"/>
      </g>
     </g>
     <g id="text_9">
      <!-- 2.0 -->
      <defs>
       <path d="M 19.1875 8.296875 
L 53.609375 8.296875 
L 53.609375 0 
L 7.328125 0 
L 7.328125 8.296875 
Q 12.9375 14.109375 22.625 23.890625 
Q 32.328125 33.6875 34.8125 36.53125 
Q 39.546875 41.84375 41.421875 45.53125 
Q 43.3125 49.21875 43.3125 52.78125 
Q 43.3125 58.59375 39.234375 62.25 
Q 35.15625 65.921875 28.609375 65.921875 
Q 23.96875 65.921875 18.8125 64.3125 
Q 13.671875 62.703125 7.8125 59.421875 
L 7.8125 69.390625 
Q 13.765625 71.78125 18.9375 73 
Q 24.125 74.21875 28.421875 74.21875 
Q 39.75 74.21875 46.484375 68.546875 
Q 53.21875 62.890625 53.21875 53.421875 
Q 53.21875 48.921875 51.53125 44.890625 
Q 49.859375 40.875 45.40625 35.40625 
Q 44.1875 33.984375 37.640625 27.21875 
Q 31.109375 20.453125 19.1875 8.296875 
z
" id="DejaVuSans-50"/>
      </defs>
      <g transform="translate(13.096875 106.763699)scale(0.1 -0.1)">
       <use xlink:href="#DejaVuSans-50"/>
       <use x="63.623047" xlink:href="#DejaVuSans-46"/>
       <use x="95.410156" xlink:href="#DejaVuSans-48"/>
      </g>
     </g>
    </g>
    <g id="ytick_5">
     <g id="line2d_9">
      <g>
       <use style="stroke:#000000;stroke-width:0.8;" x="36" xlink:href="#m0f460c7dc0" y="64.744395"/>
      </g>
     </g>
     <g id="text_10">
      <!-- 2.2 -->
      <g transform="translate(13.096875 68.543614)scale(0.1 -0.1)">
       <use xlink:href="#DejaVuSans-50"/>
       <use x="63.623047" xlink:href="#DejaVuSans-46"/>
       <use x="95.410156" xlink:href="#DejaVuSans-50"/>
      </g>
     </g>
    </g>
    <g id="text_11">
     <!-- Elongation -->
     <defs>
      <path d="M 9.8125 72.90625 
L 55.90625 72.90625 
L 55.90625 64.59375 
L 19.671875 64.59375 
L 19.671875 43.015625 
L 54.390625 43.015625 
L 54.390625 34.71875 
L 19.671875 34.71875 
L 19.671875 8.296875 
L 56.78125 8.296875 
L 56.78125 0 
L 9.8125 0 
z
" id="DejaVuSans-69"/>
      <path d="M 45.40625 27.984375 
Q 45.40625 37.75 41.375 43.109375 
Q 37.359375 48.484375 30.078125 48.484375 
Q 22.859375 48.484375 18.828125 43.109375 
Q 14.796875 37.75 14.796875 27.984375 
Q 14.796875 18.265625 18.828125 12.890625 
Q 22.859375 7.515625 30.078125 7.515625 
Q 37.359375 7.515625 41.375 12.890625 
Q 45.40625 18.265625 45.40625 27.984375 
z
M 54.390625 6.78125 
Q 54.390625 -7.171875 48.1875 -13.984375 
Q 42 -20.796875 29.203125 -20.796875 
Q 24.46875 -20.796875 20.265625 -20.09375 
Q 16.0625 -19.390625 12.109375 -17.921875 
L 12.109375 -9.1875 
Q 16.0625 -11.328125 19.921875 -12.34375 
Q 23.78125 -13.375 27.78125 -13.375 
Q 36.625 -13.375 41.015625 -8.765625 
Q 45.40625 -4.15625 45.40625 5.171875 
L 45.40625 9.625 
Q 42.625 4.78125 38.28125 2.390625 
Q 33.9375 0 27.875 0 
Q 17.828125 0 11.671875 7.65625 
Q 5.515625 15.328125 5.515625 27.984375 
Q 5.515625 40.671875 11.671875 48.328125 
Q 17.828125 56 27.875 56 
Q 33.9375 56 38.28125 53.609375 
Q 42.625 51.21875 45.40625 46.390625 
L 45.40625 54.6875 
L 54.390625 54.6875 
z
" id="DejaVuSans-103"/>
     </defs>
     <g transform="translate(7.017187 169.872187)rotate(-90)scale(0.1 -0.1)">
      <use xlink:href="#DejaVuSans-69"/>
      <use x="63.183594" xlink:href="#DejaVuSans-108"/>
      <use x="90.966797" xlink:href="#DejaVuSans-111"/>
      <use x="152.148438" xlink:href="#DejaVuSans-110"/>
      <use x="215.527344" xlink:href="#DejaVuSans-103"/>
      <use x="279.003906" xlink:href="#DejaVuSans-97"/>
      <use x="340.283203" xlink:href="#DejaVuSans-116"/>
      <use x="379.492188" xlink:href="#DejaVuSans-105"/>
      <use x="407.275391" xlink:href="#DejaVuSans-111"/>
      <use x="468.457031" xlink:href="#DejaVuSans-110"/>
     </g>
    </g>
   </g>
   <g id="line2d_10">
    <path clip-path="url(#p78f2806d68)" d="M 68.765372 197.949201 
L 71.353289 193.423881 
L 73.980451 188.796815 
L 76.647684 184.065093 
L 79.355832 179.225705 
L 82.105761 174.275539 
L 84.89836 169.211373 
L 87.73454 164.029871 
L 90.615234 158.727585 
L 93.541402 153.300941 
L 96.514025 147.746239 
L 99.534113 142.05965 
L 102.602699 136.237207 
L 105.720844 130.274797 
L 108.889636 124.168165 
L 112.11019 117.912896 
L 115.383652 111.504416 
L 118.711195 104.937984 
L 122.094024 98.208683 
L 125.533375 91.311413 
L 129.030514 84.240886 
L 129.030514 84.240886 
L 130.80116 80.638943 
L 132.586742 76.991613 
" style="fill:none;stroke:#ff0000;stroke-linecap:square;stroke-width:1.5;"/>
   </g>
   <g id="line2d_11">
    <path clip-path="url(#p78f2806d68)" d="M 73.083241 157.468851 
L 75.707834 152.425556 
L 78.372181 147.258902 
L 81.077112 141.965743 
L 83.823478 136.542775 
L 86.612152 130.986533 
L 89.444026 125.293383 
L 92.320019 119.459529 
L 95.241069 113.480996 
L 98.20814 107.353638 
L 101.222221 101.073121 
L 104.284322 94.634926 
L 107.395483 88.034335 
L 110.556768 81.266431 
L 113.769268 74.326083 
L 113.769268 74.326083 
L 115.395072 70.78958 
" style="fill:none;stroke:#bfbf00;stroke-linecap:square;stroke-width:1.5;"/>
   </g>
   <g id="line2d_12">
    <path clip-path="url(#p78f2806d68)" d="M 77.028052 220.296601 
L 79.665139 216.153364 
L 82.34168 211.918082 
L 85.058485 207.588162 
L 87.816384 203.160916 
L 90.616226 198.633569 
L 93.458882 194.003244 
L 96.345243 189.266969 
L 99.276225 184.421663 
L 102.252764 179.464139 
L 105.27582 174.391095 
L 108.346375 169.199111 
L 111.465437 163.884645 
L 114.634039 158.444025 
L 117.853238 152.873447 
L 121.124118 147.168964 
L 124.44779 141.326486 
L 127.82539 135.341768 
L 131.258085 129.210406 
L 134.747069 122.927829 
L 138.293564 116.489292 
L 141.898823 109.889864 
L 145.564131 103.124425 
L 149.290801 96.187651 
L 149.290801 96.187651 
L 151.177567 92.653294 
L 153.08018 89.07401 
" style="fill:none;stroke:#bfbf00;stroke-linecap:square;stroke-width:1.5;"/>
   </g>
   <g id="line2d_13">
    <path clip-path="url(#p78f2806d68)" d="M 84.394787 188.204487 
L 87.071459 184.392897 
L 89.787666 180.461478 
L 92.544202 176.409742 
L 95.341881 172.23696 
L 98.181535 167.942181 
L 101.064017 163.524238 
L 103.990198 158.981757 
L 106.960972 154.313169 
L 109.977253 149.516715 
L 113.039978 144.590453 
L 116.150103 139.532263 
L 119.30861 134.339855 
L 122.516501 129.010768 
L 125.774806 123.542379 
L 129.084574 117.931901 
L 132.446882 112.176389 
L 135.862832 106.272739 
L 139.333551 100.21769 
L 142.860191 94.007826 
L 146.443934 87.639575 
L 146.443934 87.639575 
L 148.257595 84.394896 
" style="fill:none;stroke:#bfbf00;stroke-linecap:square;stroke-width:1.5;"/>
   </g>
   <g id="line2d_14">
    <path clip-path="url(#p78f2806d68)" d="M 80.64571 199.520423 
L 83.308181 198.16018 
L 86.010354 196.637961 
L 88.75304 194.954376 
L 91.537066 193.110211 
L 94.363284 191.106378 
L 97.232563 188.943875 
L 100.145794 186.623741 
L 103.103891 184.147021 
L 106.107788 181.514727 
L 109.158443 178.727806 
L 112.256838 175.787115 
L 115.403977 172.693395 
L 118.600891 169.447253 
L 121.848633 166.049145 
L 125.148283 162.499365 
L 128.500947 158.798031 
L 131.907758 154.945086 
L 135.369877 150.940284 
L 138.888491 146.783195 
L 142.464816 142.473199 
L 146.1001 138.00949 
L 149.795616 133.391073 
L 153.55267 128.616773 
L 157.3726 123.685232 
L 161.256773 118.594913 
L 165.206589 113.344108 
L 169.223481 107.930941 
L 173.308914 102.35337 
L 173.308914 102.35337 
L 175.377801 99.502251 
" style="fill:none;stroke:#bfbf00;stroke-linecap:square;stroke-width:1.5;"/>
   </g>
   <g id="line2d_15">
    <path clip-path="url(#p78f2806d68)" d="M 72.132991 193.453697 
L 74.731277 189.267964 
L 77.368639 184.977617 
L 80.04589 180.581101 
L 82.763862 176.076686 
L 85.52341 171.462476 
L 88.32541 166.736419 
L 91.17076 161.896312 
L 94.060379 156.939805 
L 96.995213 151.864409 
L 99.97623 146.667491 
L 103.004421 141.346287 
L 106.080806 135.897893 
L 109.206428 130.319271 
L 112.382357 124.607247 
L 115.609691 118.758514 
L 118.889556 112.769625 
L 122.223107 106.636998 
L 125.611526 100.356908 
L 129.05603 93.925491 
L 132.557861 87.338736 
L 132.557861 87.338736 
L 134.330673 83.985813 
L 136.118297 80.592485 
" style="fill:none;stroke:#bfbf00;stroke-linecap:square;stroke-width:1.5;"/>
   </g>
   <g id="line2d_16">
    <path clip-path="url(#p78f2806d68)" d="M 46.145455 144.81845 
L 48.616041 139.509147 
L 51.125641 134.069187 
L 53.67512 128.495148 
L 56.265369 122.78344 
L 58.897301 116.930312 
L 61.571858 110.931838 
L 64.290005 104.78392 
L 67.052735 98.482282 
L 69.861068 92.022459 
L 72.716055 85.3998 
L 75.618774 78.609453 
L 78.570335 71.646363 
L 81.571878 64.505262 
L 81.571878 64.505262 
L 83.091759 60.866251 
L 84.624578 57.180662 
" style="fill:none;stroke:#bfbf00;stroke-linecap:square;stroke-width:1.5;"/>
   </g>
   <g id="line2d_17">
    <path clip-path="url(#p78f2806d68)" d="M 75.057392 126.545629 
L 77.655884 121.263909 
L 80.293172 115.872512 
L 82.970059 110.368705 
L 85.68737 104.74967 
L 88.44595 99.012507 
L 91.246665 93.154231 
L 94.090404 87.171766 
L 96.978078 81.06195 
L 99.91062 74.821523 
L 102.888988 68.447134 
L 102.888988 68.447134 
L 104.395663 65.208629 
" style="fill:none;stroke:#bfbf00;stroke-linecap:square;stroke-width:1.5;"/>
   </g>
   <g id="line2d_18">
    <path clip-path="url(#p78f2806d68)" d="M 60.057573 97.532112 
L 62.582277 91.635852 
L 65.145691 85.586841 
L 67.748649 79.380998 
L 70.392006 73.014039 
L 73.076641 66.481479 
L 75.803457 59.77862 
L 75.803457 59.77862 
L 77.182971 56.3618 
L 78.57338 52.900545 
" style="fill:none;stroke:#bfbf00;stroke-linecap:square;stroke-width:1.5;"/>
   </g>
   <g id="line2d_19">
    <path clip-path="url(#p78f2806d68)" d="M 70.694947 117.073191 
L 73.294541 111.212752 
L 75.933474 105.202156 
L 78.612569 99.037121 
L 81.332672 92.713163 
L 84.094649 86.225587 
L 86.89939 79.569481 
L 89.747804 72.739708 
L 92.640828 65.730896 
L 92.640828 65.730896 
L 94.104366 62.157606 
" style="fill:none;stroke:#bfbf00;stroke-linecap:square;stroke-width:1.5;"/>
   </g>
   <g id="line2d_20">
    <path clip-path="url(#p78f2806d68)" d="M 70.074881 166.659997 
L 72.677215 161.902715 
L 75.318999 157.025445 
L 78.001057 152.025502 
L 80.724233 146.900028 
L 83.489391 141.645997 
L 86.29742 136.26021 
L 89.149227 130.739295 
L 92.045745 125.079706 
L 94.98793 119.277719 
L 97.97676 113.329429 
L 101.01324 107.230747 
L 104.098398 100.977391 
L 107.23329 94.564884 
L 110.418997 87.988549 
L 113.656628 81.243495 
L 116.947319 74.324618 
L 116.947319 74.324618 
L 118.612925 70.798339 
" style="fill:none;stroke:#bfbf00;stroke-linecap:square;stroke-width:1.5;"/>
   </g>
   <g id="line2d_21">
    <path clip-path="url(#p78f2806d68)" d="M 80.551459 169.926883 
L 83.214296 165.693346 
L 85.916936 161.319091 
L 88.660195 156.802378 
L 91.444907 152.141201 
L 94.271927 147.333289 
L 97.142131 142.376111 
L 100.056417 137.266876 
L 103.015703 132.002533 
L 106.020931 126.579771 
L 109.073064 120.995017 
L 112.173091 115.244433 
L 115.322023 109.323912 
L 118.520897 103.229076 
L 121.770773 96.955269 
L 125.07274 90.497546 
L 128.427909 83.850674 
L 128.427909 83.850674 
L 130.1258 80.454587 
L 131.837421 77.009113 
" style="fill:none;stroke:#bfbf00;stroke-linecap:square;stroke-width:1.5;"/>
   </g>
   <g id="line2d_22">
    <path clip-path="url(#p78f2806d68)" d="M 73.60713 188.570648 
L 76.229677 183.944999 
L 78.891737 179.214205 
L 81.594129 174.375566 
L 84.337693 169.426271 
L 87.123288 164.363398 
L 89.951795 159.183915 
L 92.824118 153.884676 
L 95.741182 148.462421 
L 98.703936 142.913769 
L 101.713353 137.235223 
L 104.77043 131.423161 
L 107.876189 125.473834 
L 111.031678 119.383364 
L 114.237969 113.147739 
L 117.496165 106.762808 
L 120.807394 100.224282 
L 124.172812 93.527722 
L 127.593604 86.668541 
L 131.070987 79.641996 
L 131.070987 79.641996 
L 132.831288 76.064435 
" style="fill:none;stroke:#bfbf00;stroke-linecap:square;stroke-width:1.5;"/>
   </g>
   <g id="line2d_23">
    <path clip-path="url(#p78f2806d68)" d="M 68.13727 242.116364 
L 70.741498 238.658114 
L 73.385433 235.071407 
L 76.069908 231.359415 
L 78.795777 227.52423 
L 81.563918 223.567046 
L 84.375227 219.488308 
L 87.230627 215.287835 
L 90.131062 210.964903 
L 93.077501 206.518327 
L 96.070937 201.946509 
L 99.112388 197.247491 
L 102.202899 192.418984 
L 105.343542 187.458398 
L 108.535415 182.362862 
L 111.779645 177.129242 
L 115.077387 171.754149 
L 118.429826 166.233949 
L 121.838177 160.564769 
L 125.303686 154.7425 
L 128.827632 148.762794 
L 132.411324 142.62107 
L 136.056106 136.312502 
L 139.763356 129.832023 
L 143.534486 123.174315 
L 147.370944 116.333801 
L 151.274214 109.30464 
L 155.245819 102.080716 
L 159.287316 94.655625 
L 159.287316 94.655625 
L 161.334773 90.865559 
" style="fill:none;stroke:#bfbf00;stroke-linecap:square;stroke-width:1.5;"/>
   </g>
   <g id="line2d_24">
    <path clip-path="url(#p78f2806d68)" d="M 68.542964 200.331957 
L 71.127558 196.137384 
L 73.751334 191.815488 
L 76.415115 187.364806 
L 79.119745 182.78354 
L 81.86609 178.069585 
L 84.655036 173.220539 
L 87.487494 168.233717 
L 90.364398 163.106161 
L 93.286705 157.834649 
L 96.255398 152.415696 
L 99.271483 146.845559 
L 102.335995 141.120236 
L 105.449994 135.235467 
L 108.614567 129.18673 
L 111.83083 122.969238 
L 115.099928 116.577932 
L 118.423035 110.007475 
L 121.801357 103.252243 
L 125.236127 96.306316 
L 128.728616 89.163467 
L 132.280123 81.81715 
L 132.280123 81.81715 
L 134.078424 78.065554 
" style="fill:none;stroke:#bfbf00;stroke-linecap:square;stroke-width:1.5;"/>
   </g>
   <g id="line2d_25">
    <path clip-path="url(#p78f2806d68)" d="M 58.375628 127.737768 
L 60.903788 122.097033 
L 63.471016 116.325585 
L 66.078158 110.419746 
L 68.726084 104.375699 
L 71.415686 98.189485 
L 74.147881 91.856993 
L 76.92361 85.373957 
L 79.74384 78.735951 
L 82.609565 71.93838 
L 85.521803 64.976476 
L 85.521803 64.976476 
L 86.995691 61.43236 
L 88.481603 57.84529 
" style="fill:none;stroke:#bfbf00;stroke-linecap:square;stroke-width:1.5;"/>
   </g>
   <g id="line2d_26">
    <path clip-path="url(#p78f2806d68)" d="M 76.349824 123.405781 
L 78.959535 118.358116 
L 81.608068 113.186593 
L 84.296219 107.888806 
L 87.024808 102.462227 
L 89.794673 96.904207 
L 92.606673 91.211979 
L 95.461689 85.38265 
L 98.360624 79.413209 
L 101.304405 73.30052 
L 104.293981 67.041326 
L 104.293981 67.041326 
L 105.806244 63.855738 
" style="fill:none;stroke:#bfbf00;stroke-linecap:square;stroke-width:1.5;"/>
   </g>
   <g id="line2d_27">
    <path clip-path="url(#p78f2806d68)" d="M 78.769122 214.4632 
L 81.403337 210.650787 
L 84.076683 206.742126 
L 86.789956 202.736431 
L 89.543974 198.632689 
L 92.339572 194.429689 
L 95.177608 190.126036 
L 98.058958 185.720168 
L 100.984521 181.21037 
L 103.955219 176.594784 
L 106.971994 171.871414 
L 110.035814 167.03814 
L 113.147667 162.092719 
L 116.308569 157.032788 
L 119.519557 151.855874 
L 122.781696 146.559393 
L 126.096077 141.140651 
L 129.463816 135.596852 
L 132.886056 129.925092 
L 136.363969 124.122366 
L 139.898756 118.185567 
L 143.491645 112.111487 
L 147.143895 105.896815 
L 150.856794 99.538143 
L 154.631663 93.031962 
L 154.631663 93.031962 
L 156.542756 89.722431 
" style="fill:none;stroke:#bfbf00;stroke-linecap:square;stroke-width:1.5;"/>
   </g>
   <g id="line2d_28">
    <path clip-path="url(#p78f2806d68)" d="M 52.773384 165.305113 
L 55.271917 161.023094 
L 57.809289 156.614327 
L 60.386343 152.077202 
L 63.003946 147.409914 
L 65.662986 142.610467 
L 68.364376 137.676673 
L 71.109054 132.606161 
L 73.897984 127.396377 
L 76.732153 122.044586 
L 79.612577 116.547873 
L 82.540301 110.903144 
L 85.516394 105.107125 
L 88.541959 99.156367 
L 91.618125 93.047238 
L 94.746055 86.775928 
L 97.926942 80.338444 
L 101.162012 73.730609 
L 101.162012 73.730609 
L 102.800259 70.361455 
L 104.452526 66.948062 
" style="fill:none;stroke:#bfbf00;stroke-linecap:square;stroke-width:1.5;"/>
   </g>
   <g id="line2d_29">
    <path clip-path="url(#p78f2806d68)" d="M 80.267928 234.486184 
L 82.922527 230.541184 
L 85.616657 226.50764 
L 88.351123 222.383066 
L 91.12675 218.16489 
L 93.944382 213.850448 
L 96.804885 209.436986 
L 99.709142 204.921651 
L 102.658063 200.301495 
L 105.652576 195.573466 
L 108.693632 190.734406 
L 111.782206 185.78105 
L 114.919296 180.710018 
L 118.105924 175.517812 
L 121.343136 170.200814 
L 124.632006 164.755279 
L 127.97363 159.177331 
L 131.369132 153.462959 
L 134.819663 147.60801 
L 138.326402 141.608184 
L 141.890554 135.459033 
L 145.513355 129.155947 
L 149.196069 122.694156 
L 152.93999 116.068718 
L 156.74644 109.274518 
L 160.616776 102.306253 
L 160.616776 102.306253 
L 162.576333 98.75514 
L 164.552383 95.158437 
" style="fill:none;stroke:#bfbf00;stroke-linecap:square;stroke-width:1.5;"/>
   </g>
   <g id="line2d_30">
    <path clip-path="url(#p78f2806d68)" d="M 60.705573 239.410295 
L 63.263592 235.955574 
L 65.861078 232.375472 
L 68.498874 228.672691 
L 71.177847 224.848997 
L 73.898887 220.905373 
L 76.662907 216.842138 
L 79.470841 212.659052 
L 82.323651 208.355387 
L 85.222324 203.929993 
L 88.167871 199.381346 
L 91.161331 194.707589 
L 94.203769 189.906565 
L 97.29628 184.975835 
L 100.439988 179.912707 
L 103.636045 174.714244 
L 106.885633 169.377278 
L 110.189969 163.898419 
L 113.550299 158.27406 
L 116.967903 152.500383 
L 120.444094 146.573359 
L 123.980221 140.488751 
L 127.577669 134.24211 
L 131.237858 127.828776 
L 134.962247 121.243875 
L 138.752332 114.482314 
L 142.609648 107.538777 
L 146.535773 100.407717 
L 150.532323 93.083352 
L 150.532323 93.083352 
L 152.557525 89.346807 
" style="fill:none;stroke:#bfbf00;stroke-linecap:square;stroke-width:1.5;"/>
   </g>
   <g id="line2d_31">
    <path clip-path="url(#p78f2806d68)" d="M 73.613036 186.786501 
L 76.223513 182.435144 
L 78.873156 177.976542 
L 81.562775 173.408815 
L 84.2932 168.729927 
L 87.065281 163.937686 
L 89.879889 159.029749 
L 92.737917 154.00363 
L 95.640282 148.856701 
L 98.587922 143.586191 
L 101.581799 138.189192 
L 104.622899 132.662658 
L 107.712234 127.003401 
L 110.850839 121.208095 
L 114.039778 115.273274 
L 117.280139 109.195327 
L 120.57304 102.970499 
L 123.919624 96.594889 
L 127.321065 90.064441 
L 130.778566 83.374949 
L 130.778566 83.374949 
L 132.528723 79.969203 
" style="fill:none;stroke:#bfbf00;stroke-linecap:square;stroke-width:1.5;"/>
   </g>
   <g id="line2d_32">
    <path clip-path="url(#p78f2806d68)" d="M 69.340838 206.487004 
L 71.934071 203.549133 
L 74.566532 200.469005 
L 77.239039 197.248264 
L 79.95243 193.888232 
L 82.707564 190.38991 
L 85.505321 186.753979 
L 88.346603 182.980813 
L 91.232335 179.070479 
L 94.163467 175.022752 
L 97.14097 170.837126 
L 100.16584 166.51282 
L 103.239101 162.048791 
L 106.3618 157.443743 
L 109.535012 152.696136 
L 112.759836 147.804194 
L 116.037404 142.765914 
L 119.368872 137.579071 
L 122.755428 132.241226 
L 126.198287 126.749731 
L 129.698698 121.101733 
L 133.25794 115.294181 
L 136.877322 109.323826 
L 140.558188 103.187227 
L 144.301916 96.880753 
L 148.109917 90.400585 
L 148.109917 90.400585 
L 150.03847 87.09412 
" style="fill:none;stroke:#bfbf00;stroke-linecap:square;stroke-width:1.5;"/>
   </g>
   <g id="line2d_33">
    <path clip-path="url(#p78f2806d68)" d="M 77.057361 185.372708 
L 79.686116 180.606749 
L 82.354274 175.728605 
L 85.06265 170.734994 
L 87.812083 165.622493 
L 90.603431 160.387534 
L 93.437574 155.026399 
L 96.315415 149.535213 
L 99.237878 143.909938 
L 102.205912 138.146367 
L 105.220489 132.240117 
L 108.282606 126.186617 
L 111.393286 119.981105 
L 114.553575 113.618613 
L 117.76455 107.093961 
L 121.02731 100.401743 
L 124.342987 93.536319 
L 127.712737 86.491799 
L 127.712737 86.491799 
L 129.41826 82.900466 
L 131.137749 79.26203 
" style="fill:none;stroke:#bfbf00;stroke-linecap:square;stroke-width:1.5;"/>
   </g>
   <g id="line2d_34">
    <path clip-path="url(#p78f2806d68)" d="M 61.954314 153.377732 
L 64.495373 148.126699 
L 67.075495 142.754624 
L 69.695523 137.257893 
L 72.356324 131.63276 
L 75.058786 125.875331 
L 77.803823 119.98157 
L 80.592373 113.947282 
L 83.425399 107.768112 
L 86.303888 101.439534 
L 89.228859 94.956849 
L 92.201352 88.315168 
L 95.222442 81.509412 
L 98.293229 74.534299 
L 101.414843 67.384333 
L 101.414843 67.384333 
L 102.995073 63.742002 
" style="fill:none;stroke:#bfbf00;stroke-linecap:square;stroke-width:1.5;"/>
   </g>
   <g id="line2d_35">
    <path clip-path="url(#p78f2806d68)" d="M 68.111631 160.987603 
L 70.694855 155.886339 
L 73.317254 150.668999 
L 75.979653 145.332293 
L 78.682895 139.872811 
L 81.427847 134.287018 
L 84.215396 128.571252 
L 87.046454 122.721715 
L 89.921954 116.734467 
L 92.842857 110.605429 
L 95.810143 104.330367 
L 98.824824 97.904892 
L 101.887933 91.324452 
L 105.000532 84.584327 
L 108.163711 77.679617 
L 111.378589 70.605241 
L 111.378589 70.605241 
L 113.005771 67.002788 
" style="fill:none;stroke:#bfbf00;stroke-linecap:square;stroke-width:1.5;"/>
   </g>
   <g id="line2d_36">
    <path clip-path="url(#p78f2806d68)" d="M 55.635831 44.443636 
L 89.289988 59.924493 
L 126.657186 77.385122 
L 191.632817 108.042069 
L 238.758208 130.17535 
L 249.054545 134.969013 
L 249.054545 134.969013 
" style="fill:none;stroke:#008000;stroke-linecap:square;stroke-width:1.5;"/>
   </g>
   <g id="patch_3">
    <path d="M 36 252 
L 36 34.56 
" style="fill:none;stroke:#000000;stroke-linecap:square;stroke-linejoin:miter;stroke-width:0.8;"/>
   </g>
   <g id="patch_4">
    <path d="M 259.2 252 
L 259.2 34.56 
" style="fill:none;stroke:#000000;stroke-linecap:square;stroke-linejoin:miter;stroke-width:0.8;"/>
   </g>
   <g id="patch_5">
    <path d="M 36 252 
L 259.2 252 
" style="fill:none;stroke:#000000;stroke-linecap:square;stroke-linejoin:miter;stroke-width:0.8;"/>
   </g>
   <g id="patch_6">
    <path d="M 36 34.56 
L 259.2 34.56 
" style="fill:none;stroke:#000000;stroke-linecap:square;stroke-linejoin:miter;stroke-width:0.8;"/>
   </g>
   <g id="text_12">
    <!--  0.79 -->
    <defs>
     <path id="DejaVuSans-32"/>
     <path d="M 8.203125 72.90625 
L 55.078125 72.90625 
L 55.078125 68.703125 
L 28.609375 0 
L 18.3125 0 
L 43.21875 64.59375 
L 8.203125 64.59375 
z
" id="DejaVuSans-55"/>
     <path d="M 10.984375 1.515625 
L 10.984375 10.5 
Q 14.703125 8.734375 18.5 7.8125 
Q 22.3125 6.890625 25.984375 6.890625 
Q 35.75 6.890625 40.890625 13.453125 
Q 46.046875 20.015625 46.78125 33.40625 
Q 43.953125 29.203125 39.59375 26.953125 
Q 35.25 24.703125 29.984375 24.703125 
Q 19.046875 24.703125 12.671875 31.3125 
Q 6.296875 37.9375 6.296875 49.421875 
Q 6.296875 60.640625 12.9375 67.421875 
Q 19.578125 74.21875 30.609375 74.21875 
Q 43.265625 74.21875 49.921875 64.515625 
Q 56.59375 54.828125 56.59375 36.375 
Q 56.59375 19.140625 48.40625 8.859375 
Q 40.234375 -1.421875 26.421875 -1.421875 
Q 22.703125 -1.421875 18.890625 -0.6875 
Q 15.09375 0.046875 10.984375 1.515625 
z
M 30.609375 32.421875 
Q 37.25 32.421875 41.125 36.953125 
Q 45.015625 41.5 45.015625 49.421875 
Q 45.015625 57.28125 41.125 61.84375 
Q 37.25 66.40625 30.609375 66.40625 
Q 23.96875 66.40625 20.09375 61.84375 
Q 16.21875 57.28125 16.21875 49.421875 
Q 16.21875 41.5 20.09375 36.953125 
Q 23.96875 32.421875 30.609375 32.421875 
z
" id="DejaVuSans-57"/>
    </defs>
    <g transform="translate(132.586742 76.991613)scale(0.1 -0.1)">
     <use xlink:href="#DejaVuSans-32"/>
     <use x="31.787109" xlink:href="#DejaVuSans-48"/>
     <use x="95.410156" xlink:href="#DejaVuSans-46"/>
     <use x="127.197266" xlink:href="#DejaVuSans-55"/>
     <use x="190.820312" xlink:href="#DejaVuSans-57"/>
    </g>
   </g>
   <g id="text_13">
    <!--  f=1 -->
    <defs>
     <path d="M 37.109375 75.984375 
L 37.109375 68.5 
L 28.515625 68.5 
Q 23.6875 68.5 21.796875 66.546875 
Q 19.921875 64.59375 19.921875 59.515625 
L 19.921875 54.6875 
L 34.71875 54.6875 
L 34.71875 47.703125 
L 19.921875 47.703125 
L 19.921875 0 
L 10.890625 0 
L 10.890625 47.703125 
L 2.296875 47.703125 
L 2.296875 54.6875 
L 10.890625 54.6875 
L 10.890625 58.5 
Q 10.890625 67.625 15.140625 71.796875 
Q 19.390625 75.984375 28.609375 75.984375 
z
" id="DejaVuSans-102"/>
     <path d="M 10.59375 45.40625 
L 73.1875 45.40625 
L 73.1875 37.203125 
L 10.59375 37.203125 
z
M 10.59375 25.484375 
L 73.1875 25.484375 
L 73.1875 17.1875 
L 10.59375 17.1875 
z
" id="DejaVuSans-61"/>
    </defs>
    <g transform="translate(46.300232 197.949201)scale(0.1 -0.1)">
     <use xlink:href="#DejaVuSans-32"/>
     <use x="31.787109" xlink:href="#DejaVuSans-102"/>
     <use x="66.992188" xlink:href="#DejaVuSans-61"/>
     <use x="150.78125" xlink:href="#DejaVuSans-49"/>
    </g>
   </g>
  </g>
 </g>
 <defs>
  <clipPath id="p78f2806d68">
   <rect height="217.44" width="223.2" x="36" y="34.56"/>
  </clipPath>
 </defs>
</svg>
