<?xml version="1.0" encoding="utf-8" standalone="no"?>
<!DOCTYPE svg PUBLIC "-//W3C//DTD SVG 1.1//EN"
  "http://www.w3.org/Graphics/SVG/1.1/DTD/svg11.dtd">
<!-- Created with matplotlib (https://matplotlib.org/) -->
<svg height="288pt" version="1.1" viewBox="0 0 288 288" width="288pt" xmlns="http://www.w3.org/2000/svg" xmlns:xlink="http://www.w3.org/1999/xlink">
 <defs>
  <style type="text/css">
*{stroke-linecap:butt;stroke-linejoin:round;}
  </style>
 </defs>
 <g id="figure_1">
  <g id="patch_1">
   <path d="M 0 288 
L 288 288 
L 288 0 
L 0 0 
z
" style="fill:#ffffff;"/>
  </g>
  <g id="axes_1">
   <g id="patch_2">
    <path d="M 36 252 
L 259.2 252 
L 259.2 34.56 
L 36 34.56 
z
" style="fill:#ffffff;"/>
   </g>
   <g id="matplotlib.axis_1">
    <g id="xtick_1">
     <g id="line2d_1">
      <defs>
       <path d="M 0 0 
L 0 3.5 
" id="mb29cb200ea" style="stroke:#000000;stroke-width:0.8;"/>
      </defs>
      <g>
       <use style="stroke:#000000;stroke-width:0.8;" x="76.935706" xlink:href="#mb29cb200ea" y="252"/>
      </g>
     </g>
     <g id="text_1">
      <!-- 30 -->
      <defs>
       <path d="M 40.578125 39.3125 
Q 47.65625 37.796875 51.625 33 
Q 55.609375 28.21875 55.609375 21.1875 
Q 55.609375 10.40625 48.1875 4.484375 
Q 40.765625 -1.421875 27.09375 -1.421875 
Q 22.515625 -1.421875 17.65625 -0.515625 
Q 12.796875 0.390625 7.625 2.203125 
L 7.625 11.71875 
Q 11.71875 9.328125 16.59375 8.109375 
Q 21.484375 6.890625 26.8125 6.890625 
Q 36.078125 6.890625 40.9375 10.546875 
Q 45.796875 14.203125 45.796875 21.1875 
Q 45.796875 27.640625 41.28125 31.265625 
Q 36.765625 34.90625 28.71875 34.90625 
L 20.21875 34.90625 
L 20.21875 43.015625 
L 29.109375 43.015625 
Q 36.375 43.015625 40.234375 45.921875 
Q 44.09375 48.828125 44.09375 54.296875 
Q 44.09375 59.90625 40.109375 62.90625 
Q 36.140625 65.921875 28.71875 65.921875 
Q 24.65625 65.921875 20.015625 65.03125 
Q 15.375 64.15625 9.8125 62.3125 
L 9.8125 71.09375 
Q 15.4375 72.65625 20.34375 73.4375 
Q 25.25 74.21875 29.59375 74.21875 
Q 40.828125 74.21875 47.359375 69.109375 
Q 53.90625 64.015625 53.90625 55.328125 
Q 53.90625 49.265625 50.4375 45.09375 
Q 46.96875 40.921875 40.578125 39.3125 
z
" id="DejaVuSans-51"/>
       <path d="M 31.78125 66.40625 
Q 24.171875 66.40625 20.328125 58.90625 
Q 16.5 51.421875 16.5 36.375 
Q 16.5 21.390625 20.328125 13.890625 
Q 24.171875 6.390625 31.78125 6.390625 
Q 39.453125 6.390625 43.28125 13.890625 
Q 47.125 21.390625 47.125 36.375 
Q 47.125 51.421875 43.28125 58.90625 
Q 39.453125 66.40625 31.78125 66.40625 
z
M 31.78125 74.21875 
Q 44.046875 74.21875 50.515625 64.515625 
Q 56.984375 54.828125 56.984375 36.375 
Q 56.984375 17.96875 50.515625 8.265625 
Q 44.046875 -1.421875 31.78125 -1.421875 
Q 19.53125 -1.421875 13.0625 8.265625 
Q 6.59375 17.96875 6.59375 36.375 
Q 6.59375 54.828125 13.0625 64.515625 
Q 19.53125 74.21875 31.78125 74.21875 
z
" id="DejaVuSans-48"/>
      </defs>
      <g transform="translate(70.573206 266.598437)scale(0.1 -0.1)">
       <use xlink:href="#DejaVuSans-51"/>
       <use x="63.623047" xlink:href="#DejaVuSans-48"/>
      </g>
     </g>
    </g>
    <g id="xtick_2">
     <g id="line2d_2">
      <g>
       <use style="stroke:#000000;stroke-width:0.8;" x="124.921723" xlink:href="#mb29cb200ea" y="252"/>
      </g>
     </g>
     <g id="text_2">
      <!-- 35 -->
      <defs>
       <path d="M 10.796875 72.90625 
L 49.515625 72.90625 
L 49.515625 64.59375 
L 19.828125 64.59375 
L 19.828125 46.734375 
Q 21.96875 47.46875 24.109375 47.828125 
Q 26.265625 48.1875 28.421875 48.1875 
Q 40.625 48.1875 47.75 41.5 
Q 54.890625 34.8125 54.890625 23.390625 
Q 54.890625 11.625 47.5625 5.09375 
Q 40.234375 -1.421875 26.90625 -1.421875 
Q 22.3125 -1.421875 17.546875 -0.640625 
Q 12.796875 0.140625 7.71875 1.703125 
L 7.71875 11.625 
Q 12.109375 9.234375 16.796875 8.0625 
Q 21.484375 6.890625 26.703125 6.890625 
Q 35.15625 6.890625 40.078125 11.328125 
Q 45.015625 15.765625 45.015625 23.390625 
Q 45.015625 31 40.078125 35.4375 
Q 35.15625 39.890625 26.703125 39.890625 
Q 22.75 39.890625 18.8125 39.015625 
Q 14.890625 38.140625 10.796875 36.28125 
z
" id="DejaVuSans-53"/>
      </defs>
      <g transform="translate(118.559223 266.598437)scale(0.1 -0.1)">
       <use xlink:href="#DejaVuSans-51"/>
       <use x="63.623047" xlink:href="#DejaVuSans-53"/>
      </g>
     </g>
    </g>
    <g id="xtick_3">
     <g id="line2d_3">
      <g>
       <use style="stroke:#000000;stroke-width:0.8;" x="172.90774" xlink:href="#mb29cb200ea" y="252"/>
      </g>
     </g>
     <g id="text_3">
      <!-- 40 -->
      <defs>
       <path d="M 37.796875 64.3125 
L 12.890625 25.390625 
L 37.796875 25.390625 
z
M 35.203125 72.90625 
L 47.609375 72.90625 
L 47.609375 25.390625 
L 58.015625 25.390625 
L 58.015625 17.1875 
L 47.609375 17.1875 
L 47.609375 0 
L 37.796875 0 
L 37.796875 17.1875 
L 4.890625 17.1875 
L 4.890625 26.703125 
z
" id="DejaVuSans-52"/>
      </defs>
      <g transform="translate(166.54524 266.598437)scale(0.1 -0.1)">
       <use xlink:href="#DejaVuSans-52"/>
       <use x="63.623047" xlink:href="#DejaVuSans-48"/>
      </g>
     </g>
    </g>
    <g id="xtick_4">
     <g id="line2d_4">
      <g>
       <use style="stroke:#000000;stroke-width:0.8;" x="220.893756" xlink:href="#mb29cb200ea" y="252"/>
      </g>
     </g>
     <g id="text_4">
      <!-- 45 -->
      <g transform="translate(214.531256 266.598437)scale(0.1 -0.1)">
       <use xlink:href="#DejaVuSans-52"/>
       <use x="63.623047" xlink:href="#DejaVuSans-53"/>
      </g>
     </g>
    </g>
    <g id="text_5">
     <!-- Inclination -->
     <defs>
      <path d="M 9.8125 72.90625 
L 19.671875 72.90625 
L 19.671875 0 
L 9.8125 0 
z
" id="DejaVuSans-73"/>
      <path d="M 54.890625 33.015625 
L 54.890625 0 
L 45.90625 0 
L 45.90625 32.71875 
Q 45.90625 40.484375 42.875 44.328125 
Q 39.84375 48.1875 33.796875 48.1875 
Q 26.515625 48.1875 22.3125 43.546875 
Q 18.109375 38.921875 18.109375 30.90625 
L 18.109375 0 
L 9.078125 0 
L 9.078125 54.6875 
L 18.109375 54.6875 
L 18.109375 46.1875 
Q 21.34375 51.125 25.703125 53.5625 
Q 30.078125 56 35.796875 56 
Q 45.21875 56 50.046875 50.171875 
Q 54.890625 44.34375 54.890625 33.015625 
z
" id="DejaVuSans-110"/>
      <path d="M 48.78125 52.59375 
L 48.78125 44.1875 
Q 44.96875 46.296875 41.140625 47.34375 
Q 37.3125 48.390625 33.40625 48.390625 
Q 24.65625 48.390625 19.8125 42.84375 
Q 14.984375 37.3125 14.984375 27.296875 
Q 14.984375 17.28125 19.8125 11.734375 
Q 24.65625 6.203125 33.40625 6.203125 
Q 37.3125 6.203125 41.140625 7.25 
Q 44.96875 8.296875 48.78125 10.40625 
L 48.78125 2.09375 
Q 45.015625 0.34375 40.984375 -0.53125 
Q 36.96875 -1.421875 32.421875 -1.421875 
Q 20.0625 -1.421875 12.78125 6.34375 
Q 5.515625 14.109375 5.515625 27.296875 
Q 5.515625 40.671875 12.859375 48.328125 
Q 20.21875 56 33.015625 56 
Q 37.15625 56 41.109375 55.140625 
Q 45.0625 54.296875 48.78125 52.59375 
z
" id="DejaVuSans-99"/>
      <path d="M 9.421875 75.984375 
L 18.40625 75.984375 
L 18.40625 0 
L 9.421875 0 
z
" id="DejaVuSans-108"/>
      <path d="M 9.421875 54.6875 
L 18.40625 54.6875 
L 18.40625 0 
L 9.421875 0 
z
M 9.421875 75.984375 
L 18.40625 75.984375 
L 18.40625 64.59375 
L 9.421875 64.59375 
z
" id="DejaVuSans-105"/>
      <path d="M 34.28125 27.484375 
Q 23.390625 27.484375 19.1875 25 
Q 14.984375 22.515625 14.984375 16.5 
Q 14.984375 11.71875 18.140625 8.90625 
Q 21.296875 6.109375 26.703125 6.109375 
Q 34.1875 6.109375 38.703125 11.40625 
Q 43.21875 16.703125 43.21875 25.484375 
L 43.21875 27.484375 
z
M 52.203125 31.203125 
L 52.203125 0 
L 43.21875 0 
L 43.21875 8.296875 
Q 40.140625 3.328125 35.546875 0.953125 
Q 30.953125 -1.421875 24.3125 -1.421875 
Q 15.921875 -1.421875 10.953125 3.296875 
Q 6 8.015625 6 15.921875 
Q 6 25.140625 12.171875 29.828125 
Q 18.359375 34.515625 30.609375 34.515625 
L 43.21875 34.515625 
L 43.21875 35.40625 
Q 43.21875 41.609375 39.140625 45 
Q 35.0625 48.390625 27.6875 48.390625 
Q 23 48.390625 18.546875 47.265625 
Q 14.109375 46.140625 10.015625 43.890625 
L 10.015625 52.203125 
Q 14.9375 54.109375 19.578125 55.046875 
Q 24.21875 56 28.609375 56 
Q 40.484375 56 46.34375 49.84375 
Q 52.203125 43.703125 52.203125 31.203125 
z
" id="DejaVuSans-97"/>
      <path d="M 18.3125 70.21875 
L 18.3125 54.6875 
L 36.8125 54.6875 
L 36.8125 47.703125 
L 18.3125 47.703125 
L 18.3125 18.015625 
Q 18.3125 11.328125 20.140625 9.421875 
Q 21.96875 7.515625 27.59375 7.515625 
L 36.8125 7.515625 
L 36.8125 0 
L 27.59375 0 
Q 17.1875 0 13.234375 3.875 
Q 9.28125 7.765625 9.28125 18.015625 
L 9.28125 47.703125 
L 2.6875 47.703125 
L 2.6875 54.6875 
L 9.28125 54.6875 
L 9.28125 70.21875 
z
" id="DejaVuSans-116"/>
      <path d="M 30.609375 48.390625 
Q 23.390625 48.390625 19.1875 42.75 
Q 14.984375 37.109375 14.984375 27.296875 
Q 14.984375 17.484375 19.15625 11.84375 
Q 23.34375 6.203125 30.609375 6.203125 
Q 37.796875 6.203125 41.984375 11.859375 
Q 46.1875 17.53125 46.1875 27.296875 
Q 46.1875 37.015625 41.984375 42.703125 
Q 37.796875 48.390625 30.609375 48.390625 
z
M 30.609375 56 
Q 42.328125 56 49.015625 48.375 
Q 55.71875 40.765625 55.71875 27.296875 
Q 55.71875 13.875 49.015625 6.21875 
Q 42.328125 -1.421875 30.609375 -1.421875 
Q 18.84375 -1.421875 12.171875 6.21875 
Q 5.515625 13.875 5.515625 27.296875 
Q 5.515625 40.765625 12.171875 48.375 
Q 18.84375 56 30.609375 56 
z
" id="DejaVuSans-111"/>
     </defs>
     <g transform="translate(121.61875 280.276563)scale(0.1 -0.1)">
      <use xlink:href="#DejaVuSans-73"/>
      <use x="29.492188" xlink:href="#DejaVuSans-110"/>
      <use x="92.871094" xlink:href="#DejaVuSans-99"/>
      <use x="147.851562" xlink:href="#DejaVuSans-108"/>
      <use x="175.634766" xlink:href="#DejaVuSans-105"/>
      <use x="203.417969" xlink:href="#DejaVuSans-110"/>
      <use x="266.796875" xlink:href="#DejaVuSans-97"/>
      <use x="328.076172" xlink:href="#DejaVuSans-116"/>
      <use x="367.285156" xlink:href="#DejaVuSans-105"/>
      <use x="395.068359" xlink:href="#DejaVuSans-111"/>
      <use x="456.25" xlink:href="#DejaVuSans-110"/>
     </g>
    </g>
   </g>
   <g id="matplotlib.axis_2">
    <g id="ytick_1">
     <g id="line2d_5">
      <defs>
       <path d="M 0 0 
L -3.5 0 
" id="mce8aff9882" style="stroke:#000000;stroke-width:0.8;"/>
      </defs>
      <g>
       <use style="stroke:#000000;stroke-width:0.8;" x="36" xlink:href="#mce8aff9882" y="242.982093"/>
      </g>
     </g>
     <g id="text_6">
      <!-- 1.0 -->
      <defs>
       <path d="M 12.40625 8.296875 
L 28.515625 8.296875 
L 28.515625 63.921875 
L 10.984375 60.40625 
L 10.984375 69.390625 
L 28.421875 72.90625 
L 38.28125 72.90625 
L 38.28125 8.296875 
L 54.390625 8.296875 
L 54.390625 0 
L 12.40625 0 
z
" id="DejaVuSans-49"/>
       <path d="M 10.6875 12.40625 
L 21 12.40625 
L 21 0 
L 10.6875 0 
z
" id="DejaVuSans-46"/>
      </defs>
      <g transform="translate(13.096875 246.781312)scale(0.1 -0.1)">
       <use xlink:href="#DejaVuSans-49"/>
       <use x="63.623047" xlink:href="#DejaVuSans-46"/>
       <use x="95.410156" xlink:href="#DejaVuSans-48"/>
      </g>
     </g>
    </g>
    <g id="ytick_2">
     <g id="line2d_6">
      <g>
       <use style="stroke:#000000;stroke-width:0.8;" x="36" xlink:href="#mce8aff9882" y="211.223603"/>
      </g>
     </g>
     <g id="text_7">
      <!-- 1.2 -->
      <defs>
       <path d="M 19.1875 8.296875 
L 53.609375 8.296875 
L 53.609375 0 
L 7.328125 0 
L 7.328125 8.296875 
Q 12.9375 14.109375 22.625 23.890625 
Q 32.328125 33.6875 34.8125 36.53125 
Q 39.546875 41.84375 41.421875 45.53125 
Q 43.3125 49.21875 43.3125 52.78125 
Q 43.3125 58.59375 39.234375 62.25 
Q 35.15625 65.921875 28.609375 65.921875 
Q 23.96875 65.921875 18.8125 64.3125 
Q 13.671875 62.703125 7.8125 59.421875 
L 7.8125 69.390625 
Q 13.765625 71.78125 18.9375 73 
Q 24.125 74.21875 28.421875 74.21875 
Q 39.75 74.21875 46.484375 68.546875 
Q 53.21875 62.890625 53.21875 53.421875 
Q 53.21875 48.921875 51.53125 44.890625 
Q 49.859375 40.875 45.40625 35.40625 
Q 44.1875 33.984375 37.640625 27.21875 
Q 31.109375 20.453125 19.1875 8.296875 
z
" id="DejaVuSans-50"/>
      </defs>
      <g transform="translate(13.096875 215.022822)scale(0.1 -0.1)">
       <use xlink:href="#DejaVuSans-49"/>
       <use x="63.623047" xlink:href="#DejaVuSans-46"/>
       <use x="95.410156" xlink:href="#DejaVuSans-50"/>
      </g>
     </g>
    </g>
    <g id="ytick_3">
     <g id="line2d_7">
      <g>
       <use style="stroke:#000000;stroke-width:0.8;" x="36" xlink:href="#mce8aff9882" y="179.465114"/>
      </g>
     </g>
     <g id="text_8">
      <!-- 1.4 -->
      <g transform="translate(13.096875 183.264333)scale(0.1 -0.1)">
       <use xlink:href="#DejaVuSans-49"/>
       <use x="63.623047" xlink:href="#DejaVuSans-46"/>
       <use x="95.410156" xlink:href="#DejaVuSans-52"/>
      </g>
     </g>
    </g>
    <g id="ytick_4">
     <g id="line2d_8">
      <g>
       <use style="stroke:#000000;stroke-width:0.8;" x="36" xlink:href="#mce8aff9882" y="147.706624"/>
      </g>
     </g>
     <g id="text_9">
      <!-- 1.6 -->
      <defs>
       <path d="M 33.015625 40.375 
Q 26.375 40.375 22.484375 35.828125 
Q 18.609375 31.296875 18.609375 23.390625 
Q 18.609375 15.53125 22.484375 10.953125 
Q 26.375 6.390625 33.015625 6.390625 
Q 39.65625 6.390625 43.53125 10.953125 
Q 47.40625 15.53125 47.40625 23.390625 
Q 47.40625 31.296875 43.53125 35.828125 
Q 39.65625 40.375 33.015625 40.375 
z
M 52.59375 71.296875 
L 52.59375 62.3125 
Q 48.875 64.0625 45.09375 64.984375 
Q 41.3125 65.921875 37.59375 65.921875 
Q 27.828125 65.921875 22.671875 59.328125 
Q 17.53125 52.734375 16.796875 39.40625 
Q 19.671875 43.65625 24.015625 45.921875 
Q 28.375 48.1875 33.59375 48.1875 
Q 44.578125 48.1875 50.953125 41.515625 
Q 57.328125 34.859375 57.328125 23.390625 
Q 57.328125 12.15625 50.6875 5.359375 
Q 44.046875 -1.421875 33.015625 -1.421875 
Q 20.359375 -1.421875 13.671875 8.265625 
Q 6.984375 17.96875 6.984375 36.375 
Q 6.984375 53.65625 15.1875 63.9375 
Q 23.390625 74.21875 37.203125 74.21875 
Q 40.921875 74.21875 44.703125 73.484375 
Q 48.484375 72.75 52.59375 71.296875 
z
" id="DejaVuSans-54"/>
      </defs>
      <g transform="translate(13.096875 151.505843)scale(0.1 -0.1)">
       <use xlink:href="#DejaVuSans-49"/>
       <use x="63.623047" xlink:href="#DejaVuSans-46"/>
       <use x="95.410156" xlink:href="#DejaVuSans-54"/>
      </g>
     </g>
    </g>
    <g id="ytick_5">
     <g id="line2d_9">
      <g>
       <use style="stroke:#000000;stroke-width:0.8;" x="36" xlink:href="#mce8aff9882" y="115.948134"/>
      </g>
     </g>
     <g id="text_10">
      <!-- 1.8 -->
      <defs>
       <path d="M 31.78125 34.625 
Q 24.75 34.625 20.71875 30.859375 
Q 16.703125 27.09375 16.703125 20.515625 
Q 16.703125 13.921875 20.71875 10.15625 
Q 24.75 6.390625 31.78125 6.390625 
Q 38.8125 6.390625 42.859375 10.171875 
Q 46.921875 13.96875 46.921875 20.515625 
Q 46.921875 27.09375 42.890625 30.859375 
Q 38.875 34.625 31.78125 34.625 
z
M 21.921875 38.8125 
Q 15.578125 40.375 12.03125 44.71875 
Q 8.5 49.078125 8.5 55.328125 
Q 8.5 64.0625 14.71875 69.140625 
Q 20.953125 74.21875 31.78125 74.21875 
Q 42.671875 74.21875 48.875 69.140625 
Q 55.078125 64.0625 55.078125 55.328125 
Q 55.078125 49.078125 51.53125 44.71875 
Q 48 40.375 41.703125 38.8125 
Q 48.828125 37.15625 52.796875 32.3125 
Q 56.78125 27.484375 56.78125 20.515625 
Q 56.78125 9.90625 50.3125 4.234375 
Q 43.84375 -1.421875 31.78125 -1.421875 
Q 19.734375 -1.421875 13.25 4.234375 
Q 6.78125 9.90625 6.78125 20.515625 
Q 6.78125 27.484375 10.78125 32.3125 
Q 14.796875 37.15625 21.921875 38.8125 
z
M 18.3125 54.390625 
Q 18.3125 48.734375 21.84375 45.5625 
Q 25.390625 42.390625 31.78125 42.390625 
Q 38.140625 42.390625 41.71875 45.5625 
Q 45.3125 48.734375 45.3125 54.390625 
Q 45.3125 60.0625 41.71875 63.234375 
Q 38.140625 66.40625 31.78125 66.40625 
Q 25.390625 66.40625 21.84375 63.234375 
Q 18.3125 60.0625 18.3125 54.390625 
z
" id="DejaVuSans-56"/>
      </defs>
      <g transform="translate(13.096875 119.747353)scale(0.1 -0.1)">
       <use xlink:href="#DejaVuSans-49"/>
       <use x="63.623047" xlink:href="#DejaVuSans-46"/>
       <use x="95.410156" xlink:href="#DejaVuSans-56"/>
      </g>
     </g>
    </g>
    <g id="ytick_6">
     <g id="line2d_10">
      <g>
       <use style="stroke:#000000;stroke-width:0.8;" x="36" xlink:href="#mce8aff9882" y="84.189645"/>
      </g>
     </g>
     <g id="text_11">
      <!-- 2.0 -->
      <g transform="translate(13.096875 87.988863)scale(0.1 -0.1)">
       <use xlink:href="#DejaVuSans-50"/>
       <use x="63.623047" xlink:href="#DejaVuSans-46"/>
       <use x="95.410156" xlink:href="#DejaVuSans-48"/>
      </g>
     </g>
    </g>
    <g id="ytick_7">
     <g id="line2d_11">
      <g>
       <use style="stroke:#000000;stroke-width:0.8;" x="36" xlink:href="#mce8aff9882" y="52.431155"/>
      </g>
     </g>
     <g id="text_12">
      <!-- 2.2 -->
      <g transform="translate(13.096875 56.230374)scale(0.1 -0.1)">
       <use xlink:href="#DejaVuSans-50"/>
       <use x="63.623047" xlink:href="#DejaVuSans-46"/>
       <use x="95.410156" xlink:href="#DejaVuSans-50"/>
      </g>
     </g>
    </g>
    <g id="text_13">
     <!-- Elongation -->
     <defs>
      <path d="M 9.8125 72.90625 
L 55.90625 72.90625 
L 55.90625 64.59375 
L 19.671875 64.59375 
L 19.671875 43.015625 
L 54.390625 43.015625 
L 54.390625 34.71875 
L 19.671875 34.71875 
L 19.671875 8.296875 
L 56.78125 8.296875 
L 56.78125 0 
L 9.8125 0 
z
" id="DejaVuSans-69"/>
      <path d="M 45.40625 27.984375 
Q 45.40625 37.75 41.375 43.109375 
Q 37.359375 48.484375 30.078125 48.484375 
Q 22.859375 48.484375 18.828125 43.109375 
Q 14.796875 37.75 14.796875 27.984375 
Q 14.796875 18.265625 18.828125 12.890625 
Q 22.859375 7.515625 30.078125 7.515625 
Q 37.359375 7.515625 41.375 12.890625 
Q 45.40625 18.265625 45.40625 27.984375 
z
M 54.390625 6.78125 
Q 54.390625 -7.171875 48.1875 -13.984375 
Q 42 -20.796875 29.203125 -20.796875 
Q 24.46875 -20.796875 20.265625 -20.09375 
Q 16.0625 -19.390625 12.109375 -17.921875 
L 12.109375 -9.1875 
Q 16.0625 -11.328125 19.921875 -12.34375 
Q 23.78125 -13.375 27.78125 -13.375 
Q 36.625 -13.375 41.015625 -8.765625 
Q 45.40625 -4.15625 45.40625 5.171875 
L 45.40625 9.625 
Q 42.625 4.78125 38.28125 2.390625 
Q 33.9375 0 27.875 0 
Q 17.828125 0 11.671875 7.65625 
Q 5.515625 15.328125 5.515625 27.984375 
Q 5.515625 40.671875 11.671875 48.328125 
Q 17.828125 56 27.875 56 
Q 33.9375 56 38.28125 53.609375 
Q 42.625 51.21875 45.40625 46.390625 
L 45.40625 54.6875 
L 54.390625 54.6875 
z
" id="DejaVuSans-103"/>
     </defs>
     <g transform="translate(7.017187 169.872187)rotate(-90)scale(0.1 -0.1)">
      <use xlink:href="#DejaVuSans-69"/>
      <use x="63.183594" xlink:href="#DejaVuSans-108"/>
      <use x="90.966797" xlink:href="#DejaVuSans-111"/>
      <use x="152.148438" xlink:href="#DejaVuSans-110"/>
      <use x="215.527344" xlink:href="#DejaVuSans-103"/>
      <use x="279.003906" xlink:href="#DejaVuSans-97"/>
      <use x="340.283203" xlink:href="#DejaVuSans-116"/>
      <use x="379.492188" xlink:href="#DejaVuSans-105"/>
      <use x="407.275391" xlink:href="#DejaVuSans-111"/>
      <use x="468.457031" xlink:href="#DejaVuSans-110"/>
     </g>
    </g>
   </g>
   <g id="line2d_12">
    <path clip-path="url(#p2b88f25a0b)" d="M 67.679247 209.74346 
L 69.931848 207.192852 
L 72.218019 204.547994 
L 74.53845 201.813003 
L 76.893845 198.990793 
L 79.284928 196.083329 
L 81.712439 193.091829 
L 84.177137 190.016907 
L 86.6798 186.858687 
L 89.221224 183.616891 
L 91.802226 180.290901 
L 94.423642 176.879812 
L 97.086329 173.382469 
L 99.791166 169.797497 
L 102.539052 166.123327 
L 105.33091 162.358211 
L 108.167684 158.500236 
L 111.050341 154.547336 
L 113.979874 150.497299 
L 116.957298 146.347773 
L 119.983655 142.096269 
L 123.060009 137.740166 
L 126.187453 133.27671 
L 129.367106 128.703012 
L 132.600112 124.016053 
L 135.887644 119.212681 
L 139.230903 114.289603 
L 142.631119 109.243391 
L 146.089549 104.070471 
L 149.607481 98.767124 
L 153.186235 93.329478 
L 156.827156 87.753504 
L 156.827156 87.753504 
L 158.671361 84.912341 
" style="fill:none;stroke:#ff0000;stroke-linecap:square;stroke-width:1.5;"/>
   </g>
   <g id="line2d_13">
    <path clip-path="url(#p2b88f25a0b)" d="M 74.312123 192.387184 
L 76.584836 189.358391 
L 78.890831 186.266525 
L 81.230777 183.11009 
L 83.605358 179.887526 
L 86.015274 176.597209 
L 88.461243 173.237452 
L 90.943999 169.806505 
L 93.464295 166.302557 
L 96.022899 162.723734 
L 98.620602 159.068098 
L 101.258208 155.333646 
L 103.936546 151.518309 
L 106.656461 147.619951 
L 109.418819 143.636367 
L 112.224508 139.56528 
L 115.074434 135.40434 
L 117.969527 131.151124 
L 120.910739 126.80313 
L 123.899043 122.357776 
L 126.935436 117.812401 
L 130.020938 113.164256 
L 133.156592 108.410507 
L 136.343467 103.548229 
L 139.582656 98.574404 
L 142.875276 93.485918 
L 146.222472 88.279559 
L 149.625412 82.952009 
L 149.625412 82.952009 
L 151.348159 80.241723 
" style="fill:none;stroke:#bfbf00;stroke-linecap:square;stroke-width:1.5;"/>
   </g>
   <g id="line2d_14">
    <path clip-path="url(#p2b88f25a0b)" d="M 64.181181 201.923223 
L 66.423257 201.875891 
L 68.699006 201.610926 
L 71.009123 201.126813 
L 73.354321 200.424266 
L 75.735329 199.506023 
L 78.152896 198.376532 
L 80.607788 197.041543 
L 83.100792 195.507693 
L 85.632712 193.782094 
L 88.204372 191.87198 
L 90.81662 189.78441 
L 93.470321 187.526047 
L 96.166363 185.103004 
L 98.905657 182.520741 
L 101.689133 179.784015 
L 104.517749 176.896863 
L 107.392483 173.862609 
L 110.314339 170.683884 
L 113.284344 167.362667 
L 116.303551 163.900317 
L 119.37304 160.297616 
L 122.493916 156.554809 
L 125.667311 152.67164 
L 128.894386 148.647389 
L 132.176326 144.480899 
L 135.51435 140.170607 
L 138.909702 135.714563 
L 142.363658 131.110458 
L 145.877522 126.35563 
L 149.45263 121.447088 
L 153.09035 116.381515 
L 156.79208 111.155281 
L 160.55925 105.764447 
L 164.393325 100.204771 
L 168.295799 94.471705 
L 168.295799 94.471705 
L 170.273163 91.538647 
L 172.268203 88.5604 
" style="fill:none;stroke:#bfbf00;stroke-linecap:square;stroke-width:1.5;"/>
   </g>
   <g id="line2d_15">
    <path clip-path="url(#p2b88f25a0b)" d="M 62.401954 157.564483 
L 64.624413 153.922439 
L 66.880246 150.204118 
L 69.170144 146.40761 
L 71.494817 142.530943 
L 73.854992 138.572088 
L 76.251415 134.528948 
L 78.684848 130.399367 
L 81.156076 126.18112 
L 83.665901 121.871917 
L 86.215146 117.469397 
L 88.804654 112.97113 
L 91.435291 108.374611 
L 94.107943 103.677263 
L 96.823519 98.876429 
L 99.582952 93.969375 
L 102.387196 88.953284 
L 105.237231 83.825256 
L 108.134061 78.582305 
L 111.078714 73.221354 
L 114.072247 67.739239 
L 114.072247 67.739239 
L 115.58768 64.951728 
" style="fill:none;stroke:#bfbf00;stroke-linecap:square;stroke-width:1.5;"/>
   </g>
   <g id="line2d_16">
    <path clip-path="url(#p2b88f25a0b)" d="M 74.452921 208.249582 
L 76.761414 208.827176 
L 79.104044 209.184238 
L 81.481496 209.311433 
L 83.894473 209.202559 
L 86.343693 208.85492 
L 88.82989 208.269395 
L 91.353818 207.450157 
L 93.916246 206.404127 
L 96.517962 205.140254 
L 99.159774 203.66875 
L 101.842507 202.000383 
L 104.567006 200.145881 
L 107.334135 198.115486 
L 110.144778 195.918656 
L 112.999842 193.563885 
L 115.900252 191.058626 
L 118.846955 188.409273 
L 121.840921 185.621204 
L 124.883141 182.698834 
L 127.97463 179.645695 
L 131.116423 176.464514 
L 134.309582 173.157288 
L 137.55519 169.725359 
L 140.854355 166.169477 
L 144.208211 162.48986 
L 147.617914 158.686246 
L 151.084647 154.757932 
L 154.609618 150.703815 
L 158.19406 146.52242 
L 161.839234 142.211927 
L 165.546425 137.770191 
L 169.316944 133.19476 
L 173.152132 128.482882 
L 177.053353 123.631522 
L 181.021998 118.63736 
L 185.059488 113.4968 
L 189.167267 108.205969 
L 193.346807 102.760711 
L 193.346807 102.760711 
L 195.463955 99.978797 
" style="fill:none;stroke:#bfbf00;stroke-linecap:square;stroke-width:1.5;"/>
   </g>
   <g id="line2d_17">
    <path clip-path="url(#p2b88f25a0b)" d="M 55.762601 114.790105 
L 57.957147 111.77202 
L 60.185172 108.626001 
L 62.447385 105.35069 
L 64.744513 101.944587 
L 67.077303 98.406042 
L 69.446521 94.733249 
L 71.852951 90.924242 
L 74.297401 86.976881 
L 76.780696 82.888854 
L 79.303687 78.657666 
L 81.867244 74.280635 
L 84.47226 69.754884 
L 87.119653 65.077337 
L 89.810365 60.244708 
L 89.810365 60.244708 
L 91.172265 57.769154 
L 92.54536 55.253501 
" style="fill:none;stroke:#bfbf00;stroke-linecap:square;stroke-width:1.5;"/>
   </g>
   <g id="line2d_18">
    <path clip-path="url(#p2b88f25a0b)" d="M 68.449547 229.603295 
L 70.709203 232.030847 
L 73.00253 234.436523 
L 75.330216 236.820328 
L 77.692971 239.182232 
L 80.091519 241.521856 
L 82.526603 242.116364 
L 84.998984 239.761579 
L 87.509443 237.358439 
L 90.058779 234.906776 
L 92.647812 232.405519 
L 95.27738 229.853511 
L 97.948343 227.249551 
L 100.661584 224.592406 
L 103.418005 221.880812 
L 106.218533 219.113475 
L 109.064114 216.28907 
L 111.955721 213.40624 
L 114.89435 210.463601 
L 117.881021 207.459734 
L 120.916778 204.393193 
L 124.002693 201.262498 
L 127.139863 198.066139 
L 130.32941 194.802577 
L 133.572485 191.47024 
L 136.870267 188.067526 
L 140.223963 184.592804 
L 143.634808 181.044414 
L 147.104066 177.420667 
L 150.633033 173.719846 
L 154.223034 169.940207 
L 157.875424 166.079981 
L 161.591591 162.137377 
L 165.372953 158.110579 
L 169.220961 153.997753 
L 173.137099 149.797046 
L 177.122883 145.50659 
L 181.179861 141.124504 
L 185.309617 136.648902 
L 189.513766 132.077887 
L 193.793958 127.409565 
L 198.151875 122.642045 
L 202.589234 117.773444 
L 207.107785 112.801896 
L 207.107785 112.801896 
L 209.398064 110.276939 
L 211.709311 107.725554 
" style="fill:none;stroke:#bfbf00;stroke-linecap:square;stroke-width:1.5;"/>
   </g>
   <g id="line2d_19">
    <path clip-path="url(#p2b88f25a0b)" d="M 69.960554 171.604273 
L 72.234263 169.463843 
L 74.541841 167.196848 
L 76.883981 164.80488 
L 79.261392 162.289315 
L 81.674804 159.651296 
L 84.124961 156.891719 
L 86.612627 154.01123 
L 89.138584 151.010213 
L 91.703635 147.888799 
L 94.308601 144.646858 
L 96.954324 141.284006 
L 99.641666 137.799608 
L 102.371511 134.19278 
L 105.144764 130.462394 
L 107.962352 126.607079 
L 110.825226 122.625228 
L 113.73436 118.514999 
L 116.690751 114.274315 
L 119.69542 109.900867 
L 122.749415 105.392113 
L 125.853807 100.74528 
L 129.009695 95.957359 
L 132.218203 91.025104 
L 135.480483 85.945028 
L 138.797714 80.713396 
L 138.797714 80.713396 
L 140.477312 78.039511 
L 142.171103 75.326223 
" style="fill:none;stroke:#bfbf00;stroke-linecap:square;stroke-width:1.5;"/>
   </g>
   <g id="line2d_20">
    <path clip-path="url(#p2b88f25a0b)" d="M 71.602548 186.366452 
L 73.862415 183.291739 
L 76.155371 180.130264 
L 78.482078 176.881972 
L 80.843215 173.546485 
L 83.239477 170.123152 
L 85.671575 166.611073 
L 88.140237 163.009131 
L 90.646208 159.316016 
L 93.190253 155.530237 
L 95.773152 151.650143 
L 98.395707 147.673928 
L 101.058737 143.599647 
L 103.763081 139.425218 
L 106.509599 135.148432 
L 109.29917 130.766954 
L 112.132696 126.278333 
L 115.011098 121.679995 
L 117.935323 116.969254 
L 120.906336 112.14331 
L 123.925127 107.19925 
L 126.992711 102.134049 
L 130.110124 96.944569 
L 133.278429 91.627561 
L 136.498713 86.179663 
L 139.772087 80.597402 
L 139.772087 80.597402 
L 141.429038 77.754769 
" style="fill:none;stroke:#bfbf00;stroke-linecap:square;stroke-width:1.5;"/>
   </g>
   <g id="line2d_21">
    <path clip-path="url(#p2b88f25a0b)" d="M 62.20824 191.56144 
L 64.435296 188.324109 
L 66.695947 185.015143 
L 68.990894 181.632568 
L 71.320858 178.174335 
L 73.686575 174.638322 
L 76.088801 171.02233 
L 78.528311 167.324079 
L 81.005901 163.541211 
L 83.522385 159.67128 
L 86.078599 155.711756 
L 88.6754 151.660018 
L 91.313668 147.513349 
L 93.994304 143.268937 
L 96.718233 138.92387 
L 99.486403 134.475128 
L 102.299785 129.919584 
L 105.159379 125.253995 
L 108.066206 120.475002 
L 111.021316 115.579121 
L 114.025785 110.562738 
L 117.080715 105.422107 
L 120.187239 100.153341 
L 123.346516 94.752404 
L 126.559736 89.21511 
L 129.828118 83.537111 
L 133.152914 77.713892 
L 133.152914 77.713892 
L 134.836867 74.746366 
" style="fill:none;stroke:#bfbf00;stroke-linecap:square;stroke-width:1.5;"/>
   </g>
   <g id="line2d_22">
    <path clip-path="url(#p2b88f25a0b)" d="M 59.225018 212.871276 
L 61.430944 211.2722 
L 63.670293 209.50741 
L 65.943768 207.589966 
L 68.252092 205.531356 
L 70.596004 203.34145 
L 72.976265 201.028574 
L 75.393652 198.599634 
L 77.848966 196.06027 
L 80.343025 193.415016 
L 82.87667 190.667441 
L 85.450765 187.820286 
L 88.066194 184.875575 
L 90.723865 181.834719 
L 93.42471 178.698597 
L 96.169685 175.467621 
L 98.959771 172.141802 
L 101.795974 168.720792 
L 104.679326 165.203924 
L 107.610887 161.590246 
L 110.591744 157.878543 
L 113.623012 154.067362 
L 116.705834 150.155028 
L 119.841386 146.139651 
L 123.030871 142.019144 
L 126.275524 137.791225 
L 129.576612 133.453423 
L 132.935435 129.003079 
L 136.353326 124.437349 
L 139.831651 119.753203 
L 143.371812 114.947419 
L 146.975247 110.01658 
L 150.643426 104.95707 
L 154.377861 99.765064 
L 158.180099 94.436519 
L 162.051724 88.967166 
L 162.051724 88.967166 
L 164.014063 86.178286 
" style="fill:none;stroke:#bfbf00;stroke-linecap:square;stroke-width:1.5;"/>
   </g>
   <g id="line2d_23">
    <path clip-path="url(#p2b88f25a0b)" d="M 54.234368 104.094616 
L 56.399035 101.049701 
L 58.596676 97.899659 
L 60.827993 94.643185 
L 63.093711 91.278871 
L 65.394569 87.805203 
L 67.731329 84.220552 
L 70.104772 80.523176 
L 72.515698 76.711216 
L 74.964932 72.782688 
L 77.453317 68.735483 
L 79.981722 64.567363 
L 82.551036 60.275954 
L 85.162175 55.858747 
L 85.162175 55.858747 
L 86.483721 53.602145 
L 87.816077 51.313088 
" style="fill:none;stroke:#bfbf00;stroke-linecap:square;stroke-width:1.5;"/>
   </g>
   <g id="line2d_24">
    <path clip-path="url(#p2b88f25a0b)" d="M 71.813256 218.282432 
L 74.098551 218.60986 
L 76.417615 218.634742 
L 78.771126 218.351019 
L 81.159779 217.761717 
L 83.584286 216.878059 
L 86.045375 215.717408 
L 88.54379 214.300698 
L 91.080295 212.650037 
L 93.655671 210.786867 
L 96.270716 208.730809 
L 98.92625 206.499091 
L 101.62311 204.106386 
L 104.362153 201.564914 
L 107.144257 198.884673 
L 109.970319 196.073716 
L 112.841258 193.138436 
L 115.758016 190.08382 
L 118.721555 186.91368 
L 121.732859 183.630845 
L 124.792936 180.237321 
L 127.902818 176.734427 
L 131.063557 173.122899 
L 134.276234 169.402985 
L 137.541951 165.574514 
L 140.861837 161.636959 
L 144.237044 157.589485 
L 147.668752 153.430988 
L 151.158167 149.160131 
L 154.706519 144.775372 
L 158.315067 140.274986 
L 161.985097 135.657086 
L 165.717923 130.919643 
L 169.514883 126.060494 
L 173.377349 121.077364 
L 177.306715 115.967873 
L 181.304408 110.729546 
L 185.371881 105.359826 
L 185.371881 105.359826 
L 187.432247 102.624874 
L 189.510616 99.856082 
" style="fill:none;stroke:#bfbf00;stroke-linecap:square;stroke-width:1.5;"/>
   </g>
   <g id="line2d_25">
    <path clip-path="url(#p2b88f25a0b)" d="M 63.411193 181.587035 
L 65.632558 178.405116 
L 67.887177 175.148492 
L 70.17574 171.815964 
L 72.498951 168.40619 
L 74.857535 164.917689 
L 77.252233 161.348859 
L 79.683805 157.697981 
L 82.153032 153.963221 
L 84.660711 150.142641 
L 87.207661 146.234198 
L 89.794724 142.235745 
L 92.422759 138.145033 
L 95.09265 133.959714 
L 97.805302 129.677336 
L 100.561642 125.295345 
L 103.362622 120.811082 
L 106.209217 116.221784 
L 109.102428 111.524579 
L 112.043279 106.716483 
L 115.032822 101.7944 
L 118.072134 96.755116 
L 121.162319 91.595297 
L 124.304511 86.311482 
L 127.49987 80.900083 
L 130.749584 75.357377 
L 130.749584 75.357377 
L 132.395205 72.535582 
" style="fill:none;stroke:#bfbf00;stroke-linecap:square;stroke-width:1.5;"/>
   </g>
   <g id="line2d_26">
    <path clip-path="url(#p2b88f25a0b)" d="M 64.535865 155.101753 
L 66.771574 153.550887 
L 69.040952 151.885179 
L 71.344704 150.104789 
L 73.683551 148.209872 
L 76.058232 146.200551 
L 78.469507 144.076902 
L 80.918152 141.838938 
L 83.404966 139.48659 
L 85.930765 137.019694 
L 88.496389 134.437981 
L 91.102695 131.741062 
L 93.750567 128.92842 
L 96.440907 125.999401 
L 99.174642 122.953206 
L 101.952723 119.788883 
L 104.776122 116.505323 
L 107.645841 113.101251 
L 110.562901 109.575221 
L 113.528353 105.925614 
L 116.543274 102.150627 
L 119.608766 98.248273 
L 122.72596 94.216372 
L 125.896015 90.052547 
L 129.120118 85.754215 
L 132.399487 81.318585 
L 135.735368 76.742647 
L 135.735368 76.742647 
L 137.424899 74.40106 
" style="fill:none;stroke:#bfbf00;stroke-linecap:square;stroke-width:1.5;"/>
   </g>
   <g id="line2d_27">
    <path clip-path="url(#p2b88f25a0b)" d="M 70.04191 228.833611 
L 72.322236 229.265101 
L 74.636442 229.198201 
L 76.985216 228.629776 
L 79.369257 227.599816 
L 81.789283 226.17363 
L 84.24603 224.420875 
L 86.740249 222.402505 
L 89.272711 220.166496 
L 91.844204 217.748542 
L 94.455534 215.174444 
L 97.107529 212.462588 
L 99.801034 209.625957 
L 102.536913 206.673635 
L 105.316054 203.611879 
L 108.139362 200.444881 
L 111.007766 197.1753 
L 113.922215 193.804639 
L 116.883681 190.333512 
L 119.893158 186.761841 
L 122.951663 183.088994 
L 126.060237 179.313886 
L 129.219943 175.43506 
L 132.431871 171.450738 
L 135.697134 167.358866 
L 139.016869 163.157145 
L 142.392241 158.843055 
L 145.824437 154.413872 
L 149.314674 149.866684 
L 152.864192 145.198396 
L 156.474261 140.405739 
L 160.146175 135.485276 
L 163.881257 130.433402 
L 167.680856 125.246348 
L 171.54635 119.920178 
L 175.479143 114.45079 
L 179.480669 108.833913 
L 183.552388 103.065105 
L 183.552388 103.065105 
L 185.615033 100.122291 
L 187.695787 97.139748 
" style="fill:none;stroke:#bfbf00;stroke-linecap:square;stroke-width:1.5;"/>
   </g>
   <g id="line2d_28">
    <path clip-path="url(#p2b88f25a0b)" d="M 78.656701 194.130153 
L 80.967865 193.209103 
L 83.312863 192.13915 
L 85.692373 190.923186 
L 88.107085 189.56444 
L 90.557711 188.066344 
L 93.044976 186.432412 
L 95.569624 184.666132 
L 98.132414 182.770878 
L 100.734125 180.749839 
L 103.375554 178.605964 
L 106.057518 176.341925 
L 108.78085 173.960089 
L 111.546404 171.462503 
L 114.355056 168.850891 
L 117.2077 166.126646 
L 120.105251 163.290841 
L 123.048645 160.344233 
L 126.038842 157.287272 
L 129.076822 154.120113 
L 132.163587 150.842626 
L 135.300164 147.454404 
L 138.487601 143.954779 
L 141.726971 140.342823 
L 145.01937 136.617363 
L 148.365921 132.776984 
L 151.767768 128.820033 
L 155.226082 124.74463 
L 158.74206 120.548661 
L 162.316924 116.229789 
L 165.951922 111.785447 
L 169.648327 107.21284 
L 173.40744 102.508942 
L 177.230588 97.670491 
L 177.230588 97.670491 
L 179.166598 95.199722 
" style="fill:none;stroke:#bfbf00;stroke-linecap:square;stroke-width:1.5;"/>
   </g>
   <g id="line2d_29">
    <path clip-path="url(#p2b88f25a0b)" d="M 59.415881 219.149308 
L 61.620635 216.886352 
L 63.85881 214.529158 
L 66.131112 212.085545 
L 68.438263 209.561066 
L 70.781004 206.959627 
L 73.160095 204.283914 
L 75.576317 201.535699 
L 78.030469 198.716057 
L 80.523372 195.825526 
L 83.055867 192.864217 
L 85.628817 189.831905 
L 88.24311 186.728085 
L 90.899653 183.552026 
L 93.599378 180.302803 
L 96.343243 176.979324 
L 99.132227 173.580354 
L 101.967339 170.10453 
L 104.84961 166.550372 
L 107.780099 162.916296 
L 110.759894 159.20062 
L 113.790109 155.40157 
L 116.871888 151.517285 
L 120.006403 147.545821 
L 123.194857 143.485155 
L 126.438484 139.333183 
L 129.738548 135.087727 
L 133.096347 130.746534 
L 136.513211 126.307274 
L 139.990501 121.767546 
L 143.529617 117.124876 
L 147.131989 112.376716 
L 150.799085 107.520447 
L 154.532407 102.553375 
L 158.333495 97.472737 
L 162.203926 92.275695 
L 162.203926 92.275695 
L 164.165648 89.632616 
L 166.145314 86.959339 
" style="fill:none;stroke:#bfbf00;stroke-linecap:square;stroke-width:1.5;"/>
   </g>
   <g id="line2d_30">
    <path clip-path="url(#p2b88f25a0b)" d="M 62.633696 180.74972 
L 64.850609 177.322102 
L 67.100846 173.818661 
L 69.385103 170.237248 
L 71.704096 166.575637 
L 74.05856 162.831525 
L 76.449247 159.002528 
L 78.87693 155.086179 
L 81.342399 151.079922 
L 83.846469 146.98111 
L 86.389972 142.787002 
L 88.973763 138.494754 
L 91.598721 134.101422 
L 94.265745 129.60395 
L 96.975759 124.999171 
L 99.72971 120.283797 
L 102.528572 115.454417 
L 105.373342 110.507491 
L 108.265044 105.43934 
L 111.204729 100.246145 
L 114.193474 94.923935 
L 117.232387 89.468584 
L 120.322601 83.875798 
L 123.465282 78.141114 
L 126.661624 72.259881 
L 126.661624 72.259881 
L 128.2803 69.262804 
" style="fill:none;stroke:#bfbf00;stroke-linecap:square;stroke-width:1.5;"/>
   </g>
   <g id="line2d_31">
    <path clip-path="url(#p2b88f25a0b)" d="M 57.00611 222.46278 
L 59.206373 219.953998 
L 61.440093 217.33316 
L 63.707976 214.611531 
L 66.010747 211.796415 
L 68.34915 208.892482 
L 70.723946 205.902598 
L 73.135919 202.828365 
L 75.585871 199.67047 
L 78.074626 196.428926 
L 80.603029 193.10323 
L 83.171948 189.692477 
L 85.782274 186.195435 
L 88.434918 182.610607 
L 91.13082 178.936267 
L 93.870942 175.170489 
L 96.656271 171.311173 
L 99.487821 167.356052 
L 102.366633 163.30271 
L 105.293774 159.148587 
L 108.270343 154.890982 
L 111.297462 150.527056 
L 114.376289 146.053837 
L 117.508009 141.468216 
L 120.693838 136.766945 
L 123.935027 131.946638 
L 127.232856 127.003766 
L 130.588643 121.93465 
L 134.003736 116.735463 
L 137.479523 111.402218 
L 141.017426 105.930763 
L 144.618902 100.316776 
L 148.285449 94.555754 
L 152.018603 88.643008 
L 152.018603 88.643008 
L 153.910648 85.628218 
L 155.819938 82.573647 
" style="fill:none;stroke:#bfbf00;stroke-linecap:square;stroke-width:1.5;"/>
   </g>
   <g id="line2d_32">
    <path clip-path="url(#p2b88f25a0b)" d="M 69.738506 234.535014 
L 72.014817 231.981373 
L 74.325003 229.352139 
L 76.669753 226.654139 
L 79.049773 223.889628 
L 81.465784 221.058952 
L 83.918527 218.161528 
L 86.408759 215.196257 
L 88.937256 212.161726 
L 91.504813 209.056304 
L 94.112242 205.8782 
L 96.760378 202.625493 
L 99.450074 199.296149 
L 102.182202 195.888032 
L 104.957659 192.398907 
L 107.77736 188.826447 
L 110.642243 185.168233 
L 113.553268 181.421749 
L 116.511419 177.584388 
L 119.517703 173.653445 
L 122.573149 169.626114 
L 125.678813 165.499491 
L 128.835774 161.270562 
L 132.045137 156.936208 
L 135.308033 152.493196 
L 138.625617 147.938176 
L 141.999073 143.267677 
L 145.429611 138.478104 
L 148.918469 133.565729 
L 152.466912 128.526689 
L 156.076235 123.35698 
L 159.747759 118.052451 
L 163.482836 112.608796 
L 167.282847 107.021551 
L 171.149202 101.286085 
L 175.08334 95.397591 
L 175.08334 95.397591 
L 177.076286 92.394407 
" style="fill:none;stroke:#bfbf00;stroke-linecap:square;stroke-width:1.5;"/>
   </g>
   <g id="line2d_33">
    <path clip-path="url(#p2b88f25a0b)" d="M 59.100974 156.771578 
L 61.293294 154.728187 
L 63.518658 152.564169 
L 65.777763 150.280031 
L 68.07132 147.876178 
L 70.400058 145.352899 
L 72.764726 142.710351 
L 75.166093 139.948545 
L 77.604947 137.06734 
L 80.082096 134.066431 
L 82.598369 130.945346 
L 85.154618 127.703441 
L 87.751715 124.339891 
L 90.390557 120.853695 
L 93.072062 117.243668 
L 95.797175 113.508438 
L 98.566862 109.64645 
L 101.382117 105.655957 
L 104.24396 101.535027 
L 107.153435 97.281531 
L 110.111617 92.89315 
L 113.119606 88.367366 
L 116.178532 83.701465 
L 119.289555 78.892529 
L 122.453865 73.937434 
L 122.453865 73.937434 
L 124.056382 71.404043 
L 125.672681 68.832846 
" style="fill:none;stroke:#bfbf00;stroke-linecap:square;stroke-width:1.5;"/>
   </g>
   <g id="line2d_34">
    <path clip-path="url(#p2b88f25a0b)" d="M 68.649472 134.660016 
L 70.904105 131.881579 
L 73.1922 128.991003 
L 75.514442 125.987815 
L 77.871531 122.87141 
L 80.264183 119.641052 
L 82.693135 116.295865 
L 85.15914 112.834839 
L 87.662969 109.25682 
L 90.205413 105.560514 
L 92.787283 101.744484 
L 95.409409 97.80715 
L 98.072641 93.746786 
L 100.777853 89.561522 
L 103.525936 85.249344 
L 106.317808 80.808089 
L 109.154404 76.235447 
L 112.036688 71.528962 
L 114.965644 66.686027 
L 114.965644 66.686027 
L 116.447938 64.212536 
" style="fill:none;stroke:#bfbf00;stroke-linecap:square;stroke-width:1.5;"/>
   </g>
   <g id="line2d_35">
    <path clip-path="url(#p2b88f25a0b)" d="M 56.194337 110.092177 
L 58.389607 107.869134 
L 60.61835 105.527301 
L 62.881273 103.065667 
L 65.179105 100.483163 
L 67.512593 97.778657 
L 69.882502 94.950942 
L 72.28962 91.998731 
L 74.734752 88.920645 
L 77.218725 85.715213 
L 79.74239 82.380855 
L 82.306618 78.915886 
L 84.912303 75.318498 
L 87.560363 71.586764 
L 90.25174 67.718624 
L 92.9874 63.711883 
L 95.768337 59.564205 
L 95.768337 59.564205 
L 97.176102 57.436743 
" style="fill:none;stroke:#bfbf00;stroke-linecap:square;stroke-width:1.5;"/>
   </g>
   <g id="line2d_36">
    <path clip-path="url(#p2b88f25a0b)" d="M 46.145455 206.459221 
L 48.281964 203.832154 
L 50.451631 201.106387 
L 52.655176 198.285541 
L 54.89334 195.372153 
L 57.166881 192.367894 
L 59.476581 189.273728 
L 61.823241 186.090041 
L 64.207684 182.816738 
L 66.630755 179.453318 
L 69.093322 175.998934 
L 71.596278 172.452438 
L 74.140539 168.812415 
L 76.727046 165.077212 
L 79.356767 161.244958 
L 82.030695 157.313582 
L 84.749853 153.280823 
L 87.51529 149.144237 
L 90.328083 144.901209 
L 93.189342 140.548953 
L 96.100206 136.084512 
L 99.061845 131.504765 
L 102.075461 126.806418 
L 105.142292 121.986011 
L 108.263607 117.039904 
L 111.440714 111.964282 
L 114.674952 106.755146 
L 117.967701 101.408304 
L 121.320378 95.919368 
L 124.734439 90.283742 
L 128.21138 84.496615 
L 131.752737 78.55295 
L 131.752737 78.55295 
L 133.548063 75.520776 
L 135.360089 72.44747 
" style="fill:none;stroke:#bfbf00;stroke-linecap:square;stroke-width:1.5;"/>
   </g>
   <g id="line2d_37">
    <path clip-path="url(#p2b88f25a0b)" d="M 80.640349 189.07115 
L 82.956436 186.667616 
L 85.306099 184.158113 
L 87.689998 181.545218 
L 90.108809 178.83101 
L 92.563222 176.01711 
L 95.053945 173.104718 
L 97.5817 170.09465 
L 100.147226 166.987372 
L 102.75128 163.783028 
L 105.394634 160.481471 
L 108.078079 157.082282 
L 110.802425 153.584793 
L 113.568498 149.988107 
L 116.377144 146.291109 
L 119.229228 142.492483 
L 122.125633 138.590721 
L 125.067264 134.584133 
L 128.055044 130.470857 
L 131.089918 126.24886 
L 134.17285 121.915949 
L 137.304828 117.46977 
L 140.486857 112.907815 
L 143.719968 108.227419 
L 147.005212 103.425766 
L 150.343663 98.499885 
L 153.736417 93.446655 
L 157.184593 88.262796 
L 157.184593 88.262796 
L 158.92982 85.620814 
" style="fill:none;stroke:#bfbf00;stroke-linecap:square;stroke-width:1.5;"/>
   </g>
   <g id="line2d_38">
    <path clip-path="url(#p2b88f25a0b)" d="M 67.504485 44.443636 
L 102.09948 60.113223 
L 155.583323 84.638953 
L 207.089457 108.17435 
L 238.095332 122.105328 
L 249.054545 126.96232 
L 249.054545 126.96232 
" style="fill:none;stroke:#008000;stroke-linecap:square;stroke-width:1.5;"/>
   </g>
   <g id="patch_3">
    <path d="M 36 252 
L 36 34.56 
" style="fill:none;stroke:#000000;stroke-linecap:square;stroke-linejoin:miter;stroke-width:0.8;"/>
   </g>
   <g id="patch_4">
    <path d="M 259.2 252 
L 259.2 34.56 
" style="fill:none;stroke:#000000;stroke-linecap:square;stroke-linejoin:miter;stroke-width:0.8;"/>
   </g>
   <g id="patch_5">
    <path d="M 36 252 
L 259.2 252 
" style="fill:none;stroke:#000000;stroke-linecap:square;stroke-linejoin:miter;stroke-width:0.8;"/>
   </g>
   <g id="patch_6">
    <path d="M 36 34.56 
L 259.2 34.56 
" style="fill:none;stroke:#000000;stroke-linecap:square;stroke-linejoin:miter;stroke-width:0.8;"/>
   </g>
   <g id="text_14">
    <!--  0.68 -->
    <defs>
     <path id="DejaVuSans-32"/>
    </defs>
    <g transform="translate(158.671361 84.912341)scale(0.1 -0.1)">
     <use xlink:href="#DejaVuSans-32"/>
     <use x="31.787109" xlink:href="#DejaVuSans-48"/>
     <use x="95.410156" xlink:href="#DejaVuSans-46"/>
     <use x="127.197266" xlink:href="#DejaVuSans-54"/>
     <use x="190.820312" xlink:href="#DejaVuSans-56"/>
    </g>
   </g>
   <g id="text_15">
    <!--  f=1 -->
    <defs>
     <path d="M 37.109375 75.984375 
L 37.109375 68.5 
L 28.515625 68.5 
Q 23.6875 68.5 21.796875 66.546875 
Q 19.921875 64.59375 19.921875 59.515625 
L 19.921875 54.6875 
L 34.71875 54.6875 
L 34.71875 47.703125 
L 19.921875 47.703125 
L 19.921875 0 
L 10.890625 0 
L 10.890625 47.703125 
L 2.296875 47.703125 
L 2.296875 54.6875 
L 10.890625 54.6875 
L 10.890625 58.5 
Q 10.890625 67.625 15.140625 71.796875 
Q 19.390625 75.984375 28.609375 75.984375 
z
" id="DejaVuSans-102"/>
     <path d="M 10.59375 45.40625 
L 73.1875 45.40625 
L 73.1875 37.203125 
L 10.59375 37.203125 
z
M 10.59375 25.484375 
L 73.1875 25.484375 
L 73.1875 17.1875 
L 10.59375 17.1875 
z
" id="DejaVuSans-61"/>
    </defs>
    <g transform="translate(48.48484 209.74346)scale(0.1 -0.1)">
     <use xlink:href="#DejaVuSans-32"/>
     <use x="31.787109" xlink:href="#DejaVuSans-102"/>
     <use x="66.992188" xlink:href="#DejaVuSans-61"/>
     <use x="150.78125" xlink:href="#DejaVuSans-49"/>
    </g>
   </g>
  </g>
 </g>
 <defs>
  <clipPath id="p2b88f25a0b">
   <rect height="217.44" width="223.2" x="36" y="34.56"/>
  </clipPath>
 </defs>
</svg>
