<?xml version="1.0" encoding="utf-8" standalone="no"?>
<!DOCTYPE svg PUBLIC "-//W3C//DTD SVG 1.1//EN"
  "http://www.w3.org/Graphics/SVG/1.1/DTD/svg11.dtd">
<!-- Created with matplotlib (https://matplotlib.org/) -->
<svg height="288pt" version="1.1" viewBox="0 0 288 288" width="288pt" xmlns="http://www.w3.org/2000/svg" xmlns:xlink="http://www.w3.org/1999/xlink">
 <defs>
  <style type="text/css">
*{stroke-linecap:butt;stroke-linejoin:round;}
  </style>
 </defs>
 <g id="figure_1">
  <g id="patch_1">
   <path d="M 0 288 
L 288 288 
L 288 0 
L 0 0 
z
" style="fill:#ffffff;"/>
  </g>
  <g id="axes_1">
   <g id="patch_2">
    <path d="M 36 252 
L 259.2 252 
L 259.2 34.56 
L 36 34.56 
z
" style="fill:#ffffff;"/>
   </g>
   <g id="matplotlib.axis_1">
    <g id="xtick_1">
     <g id="line2d_1">
      <defs>
       <path d="M 0 0 
L 0 3.5 
" id="m46ecb4516e" style="stroke:#000000;stroke-width:0.8;"/>
      </defs>
      <g>
       <use style="stroke:#000000;stroke-width:0.8;" x="66.087302" xlink:href="#m46ecb4516e" y="252"/>
      </g>
     </g>
     <g id="text_1">
      <!-- 30 -->
      <defs>
       <path d="M 40.578125 39.3125 
Q 47.65625 37.796875 51.625 33 
Q 55.609375 28.21875 55.609375 21.1875 
Q 55.609375 10.40625 48.1875 4.484375 
Q 40.765625 -1.421875 27.09375 -1.421875 
Q 22.515625 -1.421875 17.65625 -0.515625 
Q 12.796875 0.390625 7.625 2.203125 
L 7.625 11.71875 
Q 11.71875 9.328125 16.59375 8.109375 
Q 21.484375 6.890625 26.8125 6.890625 
Q 36.078125 6.890625 40.9375 10.546875 
Q 45.796875 14.203125 45.796875 21.1875 
Q 45.796875 27.640625 41.28125 31.265625 
Q 36.765625 34.90625 28.71875 34.90625 
L 20.21875 34.90625 
L 20.21875 43.015625 
L 29.109375 43.015625 
Q 36.375 43.015625 40.234375 45.921875 
Q 44.09375 48.828125 44.09375 54.296875 
Q 44.09375 59.90625 40.109375 62.90625 
Q 36.140625 65.921875 28.71875 65.921875 
Q 24.65625 65.921875 20.015625 65.03125 
Q 15.375 64.15625 9.8125 62.3125 
L 9.8125 71.09375 
Q 15.4375 72.65625 20.34375 73.4375 
Q 25.25 74.21875 29.59375 74.21875 
Q 40.828125 74.21875 47.359375 69.109375 
Q 53.90625 64.015625 53.90625 55.328125 
Q 53.90625 49.265625 50.4375 45.09375 
Q 46.96875 40.921875 40.578125 39.3125 
z
" id="DejaVuSans-51"/>
       <path d="M 31.78125 66.40625 
Q 24.171875 66.40625 20.328125 58.90625 
Q 16.5 51.421875 16.5 36.375 
Q 16.5 21.390625 20.328125 13.890625 
Q 24.171875 6.390625 31.78125 6.390625 
Q 39.453125 6.390625 43.28125 13.890625 
Q 47.125 21.390625 47.125 36.375 
Q 47.125 51.421875 43.28125 58.90625 
Q 39.453125 66.40625 31.78125 66.40625 
z
M 31.78125 74.21875 
Q 44.046875 74.21875 50.515625 64.515625 
Q 56.984375 54.828125 56.984375 36.375 
Q 56.984375 17.96875 50.515625 8.265625 
Q 44.046875 -1.421875 31.78125 -1.421875 
Q 19.53125 -1.421875 13.0625 8.265625 
Q 6.59375 17.96875 6.59375 36.375 
Q 6.59375 54.828125 13.0625 64.515625 
Q 19.53125 74.21875 31.78125 74.21875 
z
" id="DejaVuSans-48"/>
      </defs>
      <g transform="translate(59.724802 266.598437)scale(0.1 -0.1)">
       <use xlink:href="#DejaVuSans-51"/>
       <use x="63.623047" xlink:href="#DejaVuSans-48"/>
      </g>
     </g>
    </g>
    <g id="xtick_2">
     <g id="line2d_2">
      <g>
       <use style="stroke:#000000;stroke-width:0.8;" x="111.191628" xlink:href="#m46ecb4516e" y="252"/>
      </g>
     </g>
     <g id="text_2">
      <!-- 35 -->
      <defs>
       <path d="M 10.796875 72.90625 
L 49.515625 72.90625 
L 49.515625 64.59375 
L 19.828125 64.59375 
L 19.828125 46.734375 
Q 21.96875 47.46875 24.109375 47.828125 
Q 26.265625 48.1875 28.421875 48.1875 
Q 40.625 48.1875 47.75 41.5 
Q 54.890625 34.8125 54.890625 23.390625 
Q 54.890625 11.625 47.5625 5.09375 
Q 40.234375 -1.421875 26.90625 -1.421875 
Q 22.3125 -1.421875 17.546875 -0.640625 
Q 12.796875 0.140625 7.71875 1.703125 
L 7.71875 11.625 
Q 12.109375 9.234375 16.796875 8.0625 
Q 21.484375 6.890625 26.703125 6.890625 
Q 35.15625 6.890625 40.078125 11.328125 
Q 45.015625 15.765625 45.015625 23.390625 
Q 45.015625 31 40.078125 35.4375 
Q 35.15625 39.890625 26.703125 39.890625 
Q 22.75 39.890625 18.8125 39.015625 
Q 14.890625 38.140625 10.796875 36.28125 
z
" id="DejaVuSans-53"/>
      </defs>
      <g transform="translate(104.829128 266.598437)scale(0.1 -0.1)">
       <use xlink:href="#DejaVuSans-51"/>
       <use x="63.623047" xlink:href="#DejaVuSans-53"/>
      </g>
     </g>
    </g>
    <g id="xtick_3">
     <g id="line2d_3">
      <g>
       <use style="stroke:#000000;stroke-width:0.8;" x="156.295953" xlink:href="#m46ecb4516e" y="252"/>
      </g>
     </g>
     <g id="text_3">
      <!-- 40 -->
      <defs>
       <path d="M 37.796875 64.3125 
L 12.890625 25.390625 
L 37.796875 25.390625 
z
M 35.203125 72.90625 
L 47.609375 72.90625 
L 47.609375 25.390625 
L 58.015625 25.390625 
L 58.015625 17.1875 
L 47.609375 17.1875 
L 47.609375 0 
L 37.796875 0 
L 37.796875 17.1875 
L 4.890625 17.1875 
L 4.890625 26.703125 
z
" id="DejaVuSans-52"/>
      </defs>
      <g transform="translate(149.933453 266.598437)scale(0.1 -0.1)">
       <use xlink:href="#DejaVuSans-52"/>
       <use x="63.623047" xlink:href="#DejaVuSans-48"/>
      </g>
     </g>
    </g>
    <g id="xtick_4">
     <g id="line2d_4">
      <g>
       <use style="stroke:#000000;stroke-width:0.8;" x="201.400279" xlink:href="#m46ecb4516e" y="252"/>
      </g>
     </g>
     <g id="text_4">
      <!-- 45 -->
      <g transform="translate(195.037779 266.598437)scale(0.1 -0.1)">
       <use xlink:href="#DejaVuSans-52"/>
       <use x="63.623047" xlink:href="#DejaVuSans-53"/>
      </g>
     </g>
    </g>
    <g id="xtick_5">
     <g id="line2d_5">
      <g>
       <use style="stroke:#000000;stroke-width:0.8;" x="246.504604" xlink:href="#m46ecb4516e" y="252"/>
      </g>
     </g>
     <g id="text_5">
      <!-- 50 -->
      <g transform="translate(240.142104 266.598437)scale(0.1 -0.1)">
       <use xlink:href="#DejaVuSans-53"/>
       <use x="63.623047" xlink:href="#DejaVuSans-48"/>
      </g>
     </g>
    </g>
    <g id="text_6">
     <!-- Inclination -->
     <defs>
      <path d="M 9.8125 72.90625 
L 19.671875 72.90625 
L 19.671875 0 
L 9.8125 0 
z
" id="DejaVuSans-73"/>
      <path d="M 54.890625 33.015625 
L 54.890625 0 
L 45.90625 0 
L 45.90625 32.71875 
Q 45.90625 40.484375 42.875 44.328125 
Q 39.84375 48.1875 33.796875 48.1875 
Q 26.515625 48.1875 22.3125 43.546875 
Q 18.109375 38.921875 18.109375 30.90625 
L 18.109375 0 
L 9.078125 0 
L 9.078125 54.6875 
L 18.109375 54.6875 
L 18.109375 46.1875 
Q 21.34375 51.125 25.703125 53.5625 
Q 30.078125 56 35.796875 56 
Q 45.21875 56 50.046875 50.171875 
Q 54.890625 44.34375 54.890625 33.015625 
z
" id="DejaVuSans-110"/>
      <path d="M 48.78125 52.59375 
L 48.78125 44.1875 
Q 44.96875 46.296875 41.140625 47.34375 
Q 37.3125 48.390625 33.40625 48.390625 
Q 24.65625 48.390625 19.8125 42.84375 
Q 14.984375 37.3125 14.984375 27.296875 
Q 14.984375 17.28125 19.8125 11.734375 
Q 24.65625 6.203125 33.40625 6.203125 
Q 37.3125 6.203125 41.140625 7.25 
Q 44.96875 8.296875 48.78125 10.40625 
L 48.78125 2.09375 
Q 45.015625 0.34375 40.984375 -0.53125 
Q 36.96875 -1.421875 32.421875 -1.421875 
Q 20.0625 -1.421875 12.78125 6.34375 
Q 5.515625 14.109375 5.515625 27.296875 
Q 5.515625 40.671875 12.859375 48.328125 
Q 20.21875 56 33.015625 56 
Q 37.15625 56 41.109375 55.140625 
Q 45.0625 54.296875 48.78125 52.59375 
z
" id="DejaVuSans-99"/>
      <path d="M 9.421875 75.984375 
L 18.40625 75.984375 
L 18.40625 0 
L 9.421875 0 
z
" id="DejaVuSans-108"/>
      <path d="M 9.421875 54.6875 
L 18.40625 54.6875 
L 18.40625 0 
L 9.421875 0 
z
M 9.421875 75.984375 
L 18.40625 75.984375 
L 18.40625 64.59375 
L 9.421875 64.59375 
z
" id="DejaVuSans-105"/>
      <path d="M 34.28125 27.484375 
Q 23.390625 27.484375 19.1875 25 
Q 14.984375 22.515625 14.984375 16.5 
Q 14.984375 11.71875 18.140625 8.90625 
Q 21.296875 6.109375 26.703125 6.109375 
Q 34.1875 6.109375 38.703125 11.40625 
Q 43.21875 16.703125 43.21875 25.484375 
L 43.21875 27.484375 
z
M 52.203125 31.203125 
L 52.203125 0 
L 43.21875 0 
L 43.21875 8.296875 
Q 40.140625 3.328125 35.546875 0.953125 
Q 30.953125 -1.421875 24.3125 -1.421875 
Q 15.921875 -1.421875 10.953125 3.296875 
Q 6 8.015625 6 15.921875 
Q 6 25.140625 12.171875 29.828125 
Q 18.359375 34.515625 30.609375 34.515625 
L 43.21875 34.515625 
L 43.21875 35.40625 
Q 43.21875 41.609375 39.140625 45 
Q 35.0625 48.390625 27.6875 48.390625 
Q 23 48.390625 18.546875 47.265625 
Q 14.109375 46.140625 10.015625 43.890625 
L 10.015625 52.203125 
Q 14.9375 54.109375 19.578125 55.046875 
Q 24.21875 56 28.609375 56 
Q 40.484375 56 46.34375 49.84375 
Q 52.203125 43.703125 52.203125 31.203125 
z
" id="DejaVuSans-97"/>
      <path d="M 18.3125 70.21875 
L 18.3125 54.6875 
L 36.8125 54.6875 
L 36.8125 47.703125 
L 18.3125 47.703125 
L 18.3125 18.015625 
Q 18.3125 11.328125 20.140625 9.421875 
Q 21.96875 7.515625 27.59375 7.515625 
L 36.8125 7.515625 
L 36.8125 0 
L 27.59375 0 
Q 17.1875 0 13.234375 3.875 
Q 9.28125 7.765625 9.28125 18.015625 
L 9.28125 47.703125 
L 2.6875 47.703125 
L 2.6875 54.6875 
L 9.28125 54.6875 
L 9.28125 70.21875 
z
" id="DejaVuSans-116"/>
      <path d="M 30.609375 48.390625 
Q 23.390625 48.390625 19.1875 42.75 
Q 14.984375 37.109375 14.984375 27.296875 
Q 14.984375 17.484375 19.15625 11.84375 
Q 23.34375 6.203125 30.609375 6.203125 
Q 37.796875 6.203125 41.984375 11.859375 
Q 46.1875 17.53125 46.1875 27.296875 
Q 46.1875 37.015625 41.984375 42.703125 
Q 37.796875 48.390625 30.609375 48.390625 
z
M 30.609375 56 
Q 42.328125 56 49.015625 48.375 
Q 55.71875 40.765625 55.71875 27.296875 
Q 55.71875 13.875 49.015625 6.21875 
Q 42.328125 -1.421875 30.609375 -1.421875 
Q 18.84375 -1.421875 12.171875 6.21875 
Q 5.515625 13.875 5.515625 27.296875 
Q 5.515625 40.765625 12.171875 48.375 
Q 18.84375 56 30.609375 56 
z
" id="DejaVuSans-111"/>
     </defs>
     <g transform="translate(121.61875 280.276563)scale(0.1 -0.1)">
      <use xlink:href="#DejaVuSans-73"/>
      <use x="29.492188" xlink:href="#DejaVuSans-110"/>
      <use x="92.871094" xlink:href="#DejaVuSans-99"/>
      <use x="147.851562" xlink:href="#DejaVuSans-108"/>
      <use x="175.634766" xlink:href="#DejaVuSans-105"/>
      <use x="203.417969" xlink:href="#DejaVuSans-110"/>
      <use x="266.796875" xlink:href="#DejaVuSans-97"/>
      <use x="328.076172" xlink:href="#DejaVuSans-116"/>
      <use x="367.285156" xlink:href="#DejaVuSans-105"/>
      <use x="395.068359" xlink:href="#DejaVuSans-111"/>
      <use x="456.25" xlink:href="#DejaVuSans-110"/>
     </g>
    </g>
   </g>
   <g id="matplotlib.axis_2">
    <g id="ytick_1">
     <g id="line2d_6">
      <defs>
       <path d="M 0 0 
L -3.5 0 
" id="m1850defef7" style="stroke:#000000;stroke-width:0.8;"/>
      </defs>
      <g>
       <use style="stroke:#000000;stroke-width:0.8;" x="36" xlink:href="#m1850defef7" y="243.736601"/>
      </g>
     </g>
     <g id="text_7">
      <!-- 1.0 -->
      <defs>
       <path d="M 12.40625 8.296875 
L 28.515625 8.296875 
L 28.515625 63.921875 
L 10.984375 60.40625 
L 10.984375 69.390625 
L 28.421875 72.90625 
L 38.28125 72.90625 
L 38.28125 8.296875 
L 54.390625 8.296875 
L 54.390625 0 
L 12.40625 0 
z
" id="DejaVuSans-49"/>
       <path d="M 10.6875 12.40625 
L 21 12.40625 
L 21 0 
L 10.6875 0 
z
" id="DejaVuSans-46"/>
      </defs>
      <g transform="translate(13.096875 247.53582)scale(0.1 -0.1)">
       <use xlink:href="#DejaVuSans-49"/>
       <use x="63.623047" xlink:href="#DejaVuSans-46"/>
       <use x="95.410156" xlink:href="#DejaVuSans-48"/>
      </g>
     </g>
    </g>
    <g id="ytick_2">
     <g id="line2d_7">
      <g>
       <use style="stroke:#000000;stroke-width:0.8;" x="36" xlink:href="#m1850defef7" y="211.075415"/>
      </g>
     </g>
     <g id="text_8">
      <!-- 1.2 -->
      <defs>
       <path d="M 19.1875 8.296875 
L 53.609375 8.296875 
L 53.609375 0 
L 7.328125 0 
L 7.328125 8.296875 
Q 12.9375 14.109375 22.625 23.890625 
Q 32.328125 33.6875 34.8125 36.53125 
Q 39.546875 41.84375 41.421875 45.53125 
Q 43.3125 49.21875 43.3125 52.78125 
Q 43.3125 58.59375 39.234375 62.25 
Q 35.15625 65.921875 28.609375 65.921875 
Q 23.96875 65.921875 18.8125 64.3125 
Q 13.671875 62.703125 7.8125 59.421875 
L 7.8125 69.390625 
Q 13.765625 71.78125 18.9375 73 
Q 24.125 74.21875 28.421875 74.21875 
Q 39.75 74.21875 46.484375 68.546875 
Q 53.21875 62.890625 53.21875 53.421875 
Q 53.21875 48.921875 51.53125 44.890625 
Q 49.859375 40.875 45.40625 35.40625 
Q 44.1875 33.984375 37.640625 27.21875 
Q 31.109375 20.453125 19.1875 8.296875 
z
" id="DejaVuSans-50"/>
      </defs>
      <g transform="translate(13.096875 214.874633)scale(0.1 -0.1)">
       <use xlink:href="#DejaVuSans-49"/>
       <use x="63.623047" xlink:href="#DejaVuSans-46"/>
       <use x="95.410156" xlink:href="#DejaVuSans-50"/>
      </g>
     </g>
    </g>
    <g id="ytick_3">
     <g id="line2d_8">
      <g>
       <use style="stroke:#000000;stroke-width:0.8;" x="36" xlink:href="#m1850defef7" y="178.414228"/>
      </g>
     </g>
     <g id="text_9">
      <!-- 1.4 -->
      <g transform="translate(13.096875 182.213447)scale(0.1 -0.1)">
       <use xlink:href="#DejaVuSans-49"/>
       <use x="63.623047" xlink:href="#DejaVuSans-46"/>
       <use x="95.410156" xlink:href="#DejaVuSans-52"/>
      </g>
     </g>
    </g>
    <g id="ytick_4">
     <g id="line2d_9">
      <g>
       <use style="stroke:#000000;stroke-width:0.8;" x="36" xlink:href="#m1850defef7" y="145.753041"/>
      </g>
     </g>
     <g id="text_10">
      <!-- 1.6 -->
      <defs>
       <path d="M 33.015625 40.375 
Q 26.375 40.375 22.484375 35.828125 
Q 18.609375 31.296875 18.609375 23.390625 
Q 18.609375 15.53125 22.484375 10.953125 
Q 26.375 6.390625 33.015625 6.390625 
Q 39.65625 6.390625 43.53125 10.953125 
Q 47.40625 15.53125 47.40625 23.390625 
Q 47.40625 31.296875 43.53125 35.828125 
Q 39.65625 40.375 33.015625 40.375 
z
M 52.59375 71.296875 
L 52.59375 62.3125 
Q 48.875 64.0625 45.09375 64.984375 
Q 41.3125 65.921875 37.59375 65.921875 
Q 27.828125 65.921875 22.671875 59.328125 
Q 17.53125 52.734375 16.796875 39.40625 
Q 19.671875 43.65625 24.015625 45.921875 
Q 28.375 48.1875 33.59375 48.1875 
Q 44.578125 48.1875 50.953125 41.515625 
Q 57.328125 34.859375 57.328125 23.390625 
Q 57.328125 12.15625 50.6875 5.359375 
Q 44.046875 -1.421875 33.015625 -1.421875 
Q 20.359375 -1.421875 13.671875 8.265625 
Q 6.984375 17.96875 6.984375 36.375 
Q 6.984375 53.65625 15.1875 63.9375 
Q 23.390625 74.21875 37.203125 74.21875 
Q 40.921875 74.21875 44.703125 73.484375 
Q 48.484375 72.75 52.59375 71.296875 
z
" id="DejaVuSans-54"/>
      </defs>
      <g transform="translate(13.096875 149.55226)scale(0.1 -0.1)">
       <use xlink:href="#DejaVuSans-49"/>
       <use x="63.623047" xlink:href="#DejaVuSans-46"/>
       <use x="95.410156" xlink:href="#DejaVuSans-54"/>
      </g>
     </g>
    </g>
    <g id="ytick_5">
     <g id="line2d_10">
      <g>
       <use style="stroke:#000000;stroke-width:0.8;" x="36" xlink:href="#m1850defef7" y="113.091855"/>
      </g>
     </g>
     <g id="text_11">
      <!-- 1.8 -->
      <defs>
       <path d="M 31.78125 34.625 
Q 24.75 34.625 20.71875 30.859375 
Q 16.703125 27.09375 16.703125 20.515625 
Q 16.703125 13.921875 20.71875 10.15625 
Q 24.75 6.390625 31.78125 6.390625 
Q 38.8125 6.390625 42.859375 10.171875 
Q 46.921875 13.96875 46.921875 20.515625 
Q 46.921875 27.09375 42.890625 30.859375 
Q 38.875 34.625 31.78125 34.625 
z
M 21.921875 38.8125 
Q 15.578125 40.375 12.03125 44.71875 
Q 8.5 49.078125 8.5 55.328125 
Q 8.5 64.0625 14.71875 69.140625 
Q 20.953125 74.21875 31.78125 74.21875 
Q 42.671875 74.21875 48.875 69.140625 
Q 55.078125 64.0625 55.078125 55.328125 
Q 55.078125 49.078125 51.53125 44.71875 
Q 48 40.375 41.703125 38.8125 
Q 48.828125 37.15625 52.796875 32.3125 
Q 56.78125 27.484375 56.78125 20.515625 
Q 56.78125 9.90625 50.3125 4.234375 
Q 43.84375 -1.421875 31.78125 -1.421875 
Q 19.734375 -1.421875 13.25 4.234375 
Q 6.78125 9.90625 6.78125 20.515625 
Q 6.78125 27.484375 10.78125 32.3125 
Q 14.796875 37.15625 21.921875 38.8125 
z
M 18.3125 54.390625 
Q 18.3125 48.734375 21.84375 45.5625 
Q 25.390625 42.390625 31.78125 42.390625 
Q 38.140625 42.390625 41.71875 45.5625 
Q 45.3125 48.734375 45.3125 54.390625 
Q 45.3125 60.0625 41.71875 63.234375 
Q 38.140625 66.40625 31.78125 66.40625 
Q 25.390625 66.40625 21.84375 63.234375 
Q 18.3125 60.0625 18.3125 54.390625 
z
" id="DejaVuSans-56"/>
      </defs>
      <g transform="translate(13.096875 116.891073)scale(0.1 -0.1)">
       <use xlink:href="#DejaVuSans-49"/>
       <use x="63.623047" xlink:href="#DejaVuSans-46"/>
       <use x="95.410156" xlink:href="#DejaVuSans-56"/>
      </g>
     </g>
    </g>
    <g id="ytick_6">
     <g id="line2d_11">
      <g>
       <use style="stroke:#000000;stroke-width:0.8;" x="36" xlink:href="#m1850defef7" y="80.430668"/>
      </g>
     </g>
     <g id="text_12">
      <!-- 2.0 -->
      <g transform="translate(13.096875 84.229887)scale(0.1 -0.1)">
       <use xlink:href="#DejaVuSans-50"/>
       <use x="63.623047" xlink:href="#DejaVuSans-46"/>
       <use x="95.410156" xlink:href="#DejaVuSans-48"/>
      </g>
     </g>
    </g>
    <g id="ytick_7">
     <g id="line2d_12">
      <g>
       <use style="stroke:#000000;stroke-width:0.8;" x="36" xlink:href="#m1850defef7" y="47.769481"/>
      </g>
     </g>
     <g id="text_13">
      <!-- 2.2 -->
      <g transform="translate(13.096875 51.5687)scale(0.1 -0.1)">
       <use xlink:href="#DejaVuSans-50"/>
       <use x="63.623047" xlink:href="#DejaVuSans-46"/>
       <use x="95.410156" xlink:href="#DejaVuSans-50"/>
      </g>
     </g>
    </g>
    <g id="text_14">
     <!-- Elongation -->
     <defs>
      <path d="M 9.8125 72.90625 
L 55.90625 72.90625 
L 55.90625 64.59375 
L 19.671875 64.59375 
L 19.671875 43.015625 
L 54.390625 43.015625 
L 54.390625 34.71875 
L 19.671875 34.71875 
L 19.671875 8.296875 
L 56.78125 8.296875 
L 56.78125 0 
L 9.8125 0 
z
" id="DejaVuSans-69"/>
      <path d="M 45.40625 27.984375 
Q 45.40625 37.75 41.375 43.109375 
Q 37.359375 48.484375 30.078125 48.484375 
Q 22.859375 48.484375 18.828125 43.109375 
Q 14.796875 37.75 14.796875 27.984375 
Q 14.796875 18.265625 18.828125 12.890625 
Q 22.859375 7.515625 30.078125 7.515625 
Q 37.359375 7.515625 41.375 12.890625 
Q 45.40625 18.265625 45.40625 27.984375 
z
M 54.390625 6.78125 
Q 54.390625 -7.171875 48.1875 -13.984375 
Q 42 -20.796875 29.203125 -20.796875 
Q 24.46875 -20.796875 20.265625 -20.09375 
Q 16.0625 -19.390625 12.109375 -17.921875 
L 12.109375 -9.1875 
Q 16.0625 -11.328125 19.921875 -12.34375 
Q 23.78125 -13.375 27.78125 -13.375 
Q 36.625 -13.375 41.015625 -8.765625 
Q 45.40625 -4.15625 45.40625 5.171875 
L 45.40625 9.625 
Q 42.625 4.78125 38.28125 2.390625 
Q 33.9375 0 27.875 0 
Q 17.828125 0 11.671875 7.65625 
Q 5.515625 15.328125 5.515625 27.984375 
Q 5.515625 40.671875 11.671875 48.328125 
Q 17.828125 56 27.875 56 
Q 33.9375 56 38.28125 53.609375 
Q 42.625 51.21875 45.40625 46.390625 
L 45.40625 54.6875 
L 54.390625 54.6875 
z
" id="DejaVuSans-103"/>
     </defs>
     <g transform="translate(7.017187 169.872187)rotate(-90)scale(0.1 -0.1)">
      <use xlink:href="#DejaVuSans-69"/>
      <use x="63.183594" xlink:href="#DejaVuSans-108"/>
      <use x="90.966797" xlink:href="#DejaVuSans-111"/>
      <use x="152.148438" xlink:href="#DejaVuSans-110"/>
      <use x="215.527344" xlink:href="#DejaVuSans-103"/>
      <use x="279.003906" xlink:href="#DejaVuSans-97"/>
      <use x="340.283203" xlink:href="#DejaVuSans-116"/>
      <use x="379.492188" xlink:href="#DejaVuSans-105"/>
      <use x="407.275391" xlink:href="#DejaVuSans-111"/>
      <use x="468.457031" xlink:href="#DejaVuSans-110"/>
     </g>
    </g>
   </g>
   <g id="line2d_13">
    <path clip-path="url(#pdafc5120e0)" d="M 57.386719 209.5532 
L 59.504045 206.930094 
L 61.652926 204.210059 
L 63.834008 201.397329 
L 66.047955 198.494901 
L 68.295447 195.504796 
L 70.577179 192.428266 
L 72.893866 189.265943 
L 75.246237 186.017955 
L 77.635042 182.684015 
L 80.061047 179.263488 
L 82.52504 175.755443 
L 85.027826 172.158691 
L 87.57023 168.471821 
L 90.153098 164.693217 
L 92.777297 160.821082 
L 95.443714 156.853449 
L 98.15326 152.788192 
L 100.906867 148.623038 
L 103.705489 144.355566 
L 106.550104 139.983219 
L 109.441715 135.503299 
L 112.381348 130.912974 
L 115.370053 126.209274 
L 118.408909 121.389095 
L 121.499015 116.449192 
L 124.641503 111.386182 
L 127.837526 106.196537 
L 131.088268 100.876583 
L 134.394939 95.422495 
L 137.758778 89.83029 
L 141.181053 84.095826 
L 141.181053 84.095826 
L 142.914508 81.173906 
" style="fill:none;stroke:#ff0000;stroke-linecap:square;stroke-width:1.5;"/>
   </g>
   <g id="line2d_14">
    <path clip-path="url(#pdafc5120e0)" d="M 62.303633 149.908527 
L 64.456655 147.519799 
L 66.641549 145.011585 
L 68.85896 142.384134 
L 71.109547 139.637557 
L 73.393985 136.771819 
L 75.712966 133.786728 
L 78.067197 130.68193 
L 80.457403 127.456906 
L 82.884327 124.110965 
L 85.348726 120.643239 
L 87.851379 117.052688 
L 90.393082 113.338092 
L 92.97465 109.498049 
L 95.596916 105.530979 
L 98.260733 101.435119 
L 100.966977 97.208519 
L 103.716541 92.849048 
L 106.510339 88.354386 
L 109.349308 83.722023 
L 112.234407 78.949259 
L 115.166615 74.033198 
L 115.166615 74.033198 
L 116.650697 71.520474 
L 118.146934 68.970749 
" style="fill:none;stroke:#bfbf00;stroke-linecap:square;stroke-width:1.5;"/>
   </g>
   <g id="line2d_15">
    <path clip-path="url(#pdafc5120e0)" d="M 55.902375 198.419915 
L 58.014963 196.705313 
L 60.159015 194.831865 
L 62.335173 192.806505 
L 64.544093 190.635666 
L 66.786448 188.325191 
L 69.062926 185.88028 
L 71.374234 183.305476 
L 73.721093 180.604676 
L 76.104243 177.781156 
L 78.524444 174.837604 
L 80.98247 171.776161 
L 83.479117 168.598463 
L 86.015199 165.305682 
L 88.591551 161.898563 
L 91.209027 158.377465 
L 93.868502 154.742388 
L 96.570871 150.993006 
L 99.317051 147.128696 
L 102.107983 143.148554 
L 104.944629 139.051424 
L 107.827972 134.835909 
L 110.759021 130.50039 
L 113.738808 126.043039 
L 116.76839 121.46183 
L 119.848848 116.754548 
L 122.981288 111.918801 
L 126.166841 106.952021 
L 129.406668 101.851478 
L 132.701951 96.614276 
L 136.053903 91.237366 
L 139.463763 85.717545 
L 139.463763 85.717545 
L 141.190804 82.903001 
L 142.932798 80.05146 
" style="fill:none;stroke:#bfbf00;stroke-linecap:square;stroke-width:1.5;"/>
   </g>
   <g id="line2d_16">
    <path clip-path="url(#pdafc5120e0)" d="M 67.029831 223.292463 
L 69.200169 220.697673 
L 71.402341 218.042631 
L 73.636986 215.327621 
L 75.904755 212.552347 
L 78.206317 209.716132 
L 80.542356 206.818026 
L 82.913571 203.856877 
L 85.320679 200.831377 
L 87.764412 197.740088 
L 90.245522 194.581461 
L 92.764775 191.353849 
L 95.322959 188.055516 
L 97.920878 184.684637 
L 100.559354 181.23931 
L 103.23923 177.717548 
L 105.961367 174.117285 
L 108.726649 170.436377 
L 111.535977 166.672596 
L 114.390274 162.823632 
L 117.290484 158.887091 
L 120.237573 154.860494 
L 123.232528 150.74127 
L 126.27636 146.526759 
L 129.370101 142.214204 
L 132.514806 137.80075 
L 135.711555 133.283443 
L 138.961449 128.65922 
L 142.265616 123.924912 
L 145.625207 119.077233 
L 149.041395 114.112782 
L 152.515383 109.028033 
L 156.048395 103.819331 
L 159.641682 98.48289 
L 163.296518 93.014781 
L 163.296518 93.014781 
L 165.147424 90.230084 
" style="fill:none;stroke:#bfbf00;stroke-linecap:square;stroke-width:1.5;"/>
   </g>
   <g id="line2d_17">
    <path clip-path="url(#pdafc5120e0)" d="M 64.520542 147.956975 
L 66.665671 144.23503 
L 68.842323 140.436263 
L 71.051133 136.558651 
L 73.292755 132.6001 
L 75.567854 128.558448 
L 77.877114 124.431458 
L 80.221236 120.216821 
L 82.600935 115.912146 
L 85.016945 111.514963 
L 87.470017 107.022715 
L 89.96092 102.432761 
L 92.490442 97.742365 
L 95.059388 92.948697 
L 97.668586 88.048829 
L 100.318878 83.039729 
L 103.011131 77.918256 
L 105.74623 72.681158 
L 108.525082 67.325068 
L 108.525082 67.325068 
L 109.931204 64.601315 
" style="fill:none;stroke:#bfbf00;stroke-linecap:square;stroke-width:1.5;"/>
   </g>
   <g id="line2d_18">
    <path clip-path="url(#pdafc5120e0)" d="M 52.581128 163.222136 
L 54.672728 159.410579 
L 56.795696 155.503133 
L 58.950682 151.497684 
L 61.13835 147.391957 
L 63.359382 143.183516 
L 65.614477 138.869774 
L 67.90435 134.447991 
L 70.229736 129.915278 
L 72.591386 125.268594 
L 74.990072 120.504749 
L 77.426586 115.620397 
L 79.901736 110.612036 
L 82.416354 105.476005 
L 84.971293 100.208478 
L 87.567425 94.80546 
L 90.205645 89.262781 
L 92.886872 83.576089 
L 95.612046 77.740844 
L 98.382132 71.752313 
L 101.198118 65.605555 
L 101.198118 65.605555 
L 102.62364 62.47124 
L 104.061018 59.295419 
" style="fill:none;stroke:#bfbf00;stroke-linecap:square;stroke-width:1.5;"/>
   </g>
   <g id="line2d_19">
    <path clip-path="url(#pdafc5120e0)" d="M 48.347662 90.035328 
L 50.399828 86.520055 
L 52.483021 82.889422 
L 54.597894 79.141634 
L 56.745122 75.274773 
L 58.925395 71.286793 
L 61.13942 67.175514 
L 63.387925 62.938621 
L 65.671655 58.573657 
L 67.991375 54.07802 
L 70.34787 49.448958 
L 70.34787 49.448958 
L 71.54016 47.08349 
L 72.741947 44.683563 
" style="fill:none;stroke:#bfbf00;stroke-linecap:square;stroke-width:1.5;"/>
   </g>
   <g id="line2d_20">
    <path clip-path="url(#pdafc5120e0)" d="M 46.145455 158.963251 
L 48.204833 155.078918 
L 50.295627 151.104835 
L 52.418501 147.038488 
L 54.574138 142.877256 
L 56.763241 138.618413 
L 58.986527 134.259117 
L 61.244734 129.796417 
L 63.538619 125.22724 
L 65.868958 120.548394 
L 68.236549 115.756559 
L 70.642209 110.848284 
L 73.086777 105.819982 
L 75.571113 100.667924 
L 78.096102 95.388232 
L 80.66265 89.976873 
L 83.271687 84.429656 
L 85.924168 78.742218 
L 88.621073 72.910021 
L 91.363408 66.928343 
L 94.152204 60.792267 
L 94.152204 60.792267 
L 95.564355 57.664739 
" style="fill:none;stroke:#bfbf00;stroke-linecap:square;stroke-width:1.5;"/>
   </g>
   <g id="line2d_21">
    <path clip-path="url(#pdafc5120e0)" d="M 62.074626 203.41688 
L 64.221991 200.615227 
L 66.401079 197.728453 
L 68.612529 194.758116 
L 70.856996 191.705118 
L 73.135151 188.569835 
L 75.44768 185.352214 
L 77.795285 182.051842 
L 80.178685 178.668005 
L 82.598617 175.199734 
L 85.055834 171.645836 
L 87.551107 168.00492 
L 90.085227 164.275421 
L 92.659002 160.455613 
L 95.273259 156.543624 
L 97.928846 152.537445 
L 100.626629 148.434937 
L 103.367495 144.233837 
L 106.152353 139.931767 
L 108.982132 135.526228 
L 111.857781 131.014614 
L 114.780275 126.394204 
L 117.750607 121.662169 
L 120.769795 116.815572 
L 123.838881 111.851364 
L 126.958928 106.766392 
L 130.131026 101.557391 
L 133.356285 96.220989 
L 136.635845 90.753703 
L 139.970866 85.151942 
L 139.970866 85.151942 
L 141.659545 82.299481 
L 143.362537 79.412004 
" style="fill:none;stroke:#bfbf00;stroke-linecap:square;stroke-width:1.5;"/>
   </g>
   <g id="line2d_22">
    <path clip-path="url(#pdafc5120e0)" d="M 60.530495 211.88395 
L 62.677808 208.981973 
L 64.857124 206.016557 
L 67.069094 202.986342 
L 69.31439 199.88984 
L 71.593694 196.725455 
L 73.907708 193.491492 
L 76.257152 190.18617 
L 78.642759 186.807622 
L 81.065284 183.353901 
L 83.525499 179.82298 
L 86.024193 176.212751 
L 88.562175 172.521028 
L 91.140275 168.745543 
L 93.75934 164.883944 
L 96.420239 160.933796 
L 99.123862 156.892576 
L 101.87112 152.757672 
L 104.662944 148.526378 
L 107.50029 144.195893 
L 110.384134 139.763319 
L 113.315475 135.225651 
L 116.295338 130.57978 
L 119.324769 125.822486 
L 122.404839 120.950434 
L 125.536645 115.960169 
L 128.721306 110.848109 
L 131.95997 105.610546 
L 135.253807 100.243634 
L 138.604016 94.743384 
L 142.011821 89.105662 
L 142.011821 89.105662 
L 143.737712 86.233915 
L 145.478474 83.326177 
" style="fill:none;stroke:#bfbf00;stroke-linecap:square;stroke-width:1.5;"/>
   </g>
   <g id="line2d_23">
    <path clip-path="url(#pdafc5120e0)" d="M 60.974995 177.989479 
L 63.09705 174.649008 
L 65.250398 171.238746 
L 67.435676 167.756945 
L 69.653535 164.201795 
L 71.904645 160.571418 
L 74.18969 156.863871 
L 76.50937 153.077144 
L 78.864405 149.209157 
L 81.255531 145.257761 
L 83.6835 141.220733 
L 86.149087 137.095776 
L 88.653083 132.880517 
L 91.196297 128.572503 
L 93.779562 124.169197 
L 96.403728 119.667982 
L 99.069666 115.066149 
L 101.778271 110.3609 
L 104.530456 105.549342 
L 107.327159 100.628485 
L 110.169339 95.595238 
L 113.05798 90.446404 
L 115.994088 85.178675 
L 118.978693 79.788633 
L 122.012852 74.272738 
L 122.012852 74.272738 
L 123.54885 71.466456 
" style="fill:none;stroke:#bfbf00;stroke-linecap:square;stroke-width:1.5;"/>
   </g>
   <g id="line2d_24">
    <path clip-path="url(#pdafc5120e0)" d="M 56.142952 229.597001 
L 58.254474 227.5108 
L 60.397578 225.259909 
L 62.572913 222.87698 
L 64.781147 220.382824 
L 67.022963 217.79082 
L 69.299061 215.10962 
L 71.610159 212.344798 
L 73.956993 209.499869 
L 76.340316 206.576935 
L 78.7609 203.577098 
L 81.219536 200.500733 
L 83.717037 197.347672 
L 86.254232 194.117332 
L 88.831974 190.8088 
L 91.451136 187.420898 
L 94.112611 183.952224 
L 96.817317 180.401187 
L 99.566193 176.766028 
L 102.3602 173.044838 
L 105.200326 169.23557 
L 108.087579 165.336047 
L 111.022995 161.343967 
L 114.007634 157.256909 
L 117.042581 153.072332 
L 120.128948 148.78758 
L 123.267875 144.399875 
L 126.460527 139.906324 
L 129.708097 135.303909 
L 133.011809 130.58949 
L 136.372912 125.759798 
L 139.792686 120.811431 
L 143.272442 115.740849 
L 146.813519 110.544371 
L 150.417286 105.218166 
L 154.085145 99.758245 
L 157.818528 94.160455 
L 157.818528 94.160455 
L 159.710247 91.308514 
L 161.618898 88.42047 
" style="fill:none;stroke:#bfbf00;stroke-linecap:square;stroke-width:1.5;"/>
   </g>
   <g id="line2d_25">
    <path clip-path="url(#pdafc5120e0)" d="M 67.670261 226.954056 
L 69.837518 224.314192 
L 72.036375 221.619949 
L 74.267458 218.87001 
L 76.531412 216.062995 
L 78.828893 213.197477 
L 81.160574 210.271978 
L 83.527145 207.284972 
L 85.92931 204.234888 
L 88.36779 201.120108 
L 90.843324 197.938967 
L 93.356666 194.689751 
L 95.90859 191.370697 
L 98.499886 187.979993 
L 101.131364 184.515774 
L 103.803851 180.976125 
L 106.518194 177.359076 
L 109.275259 173.662602 
L 112.075933 169.884624 
L 114.921122 166.023004 
L 117.811752 162.075547 
L 120.748773 158.039999 
L 123.733153 153.914044 
L 126.765884 149.695306 
L 129.847979 145.381346 
L 132.980473 140.969661 
L 136.164425 136.457684 
L 139.400916 131.842781 
L 142.691052 127.122252 
L 146.03596 122.29333 
L 149.436794 117.353181 
L 152.894731 112.298901 
L 156.41097 107.127516 
L 159.98674 101.835983 
L 163.623289 96.421191 
L 163.623289 96.421191 
L 165.464754 93.666579 
L 167.321894 90.879954 
" style="fill:none;stroke:#bfbf00;stroke-linecap:square;stroke-width:1.5;"/>
   </g>
   <g id="line2d_26">
    <path clip-path="url(#pdafc5120e0)" d="M 67.378937 212.373822 
L 69.540622 209.744217 
L 71.733791 207.036147 
L 73.959072 204.252008 
L 76.217103 201.393289 
L 78.508541 198.460791 
L 80.834054 195.454786 
L 83.19433 192.375128 
L 85.590069 189.221334 
L 88.02199 185.992647 
L 90.490828 182.68808 
L 92.997334 179.306448 
L 95.542278 175.846397 
L 98.126446 172.306419 
L 100.750645 168.68487 
L 103.415697 164.979979 
L 106.122446 161.189857 
L 108.871753 157.312502 
L 111.664499 153.345806 
L 114.501587 149.287553 
L 117.383937 145.135429 
L 120.312493 140.887013 
L 123.288218 136.539785 
L 126.312097 132.091123 
L 129.385137 127.538303 
L 132.508366 122.878496 
L 135.682836 118.108767 
L 138.90962 113.226075 
L 142.189815 108.227269 
L 145.52454 103.109085 
L 148.914939 97.868143 
L 152.362178 92.500946 
L 152.362178 92.500946 
L 154.107484 89.768876 
L 155.867449 87.003874 
" style="fill:none;stroke:#bfbf00;stroke-linecap:square;stroke-width:1.5;"/>
   </g>
   <g id="line2d_27">
    <path clip-path="url(#pdafc5120e0)" d="M 60.835813 193.288304 
L 62.972918 189.975482 
L 65.141664 186.589026 
L 67.342693 183.126849 
L 69.576664 179.586787 
L 71.844252 175.966599 
L 74.146147 172.263961 
L 76.483056 168.476471 
L 78.855704 164.601635 
L 81.264833 160.636871 
L 83.711204 156.579505 
L 86.195594 152.426761 
L 88.718802 148.175766 
L 91.281644 143.823535 
L 93.884957 139.366978 
L 96.529597 134.802885 
L 99.216443 130.127927 
L 101.946394 125.338649 
L 104.720368 120.431461 
L 107.53931 115.402637 
L 110.404183 110.248308 
L 113.315978 104.964449 
L 116.275704 99.546881 
L 119.284397 93.991255 
L 122.343119 88.293048 
L 125.452954 82.447556 
L 128.615012 76.449878 
L 128.615012 76.449878 
L 130.215979 73.392385 
" style="fill:none;stroke:#bfbf00;stroke-linecap:square;stroke-width:1.5;"/>
   </g>
   <g id="line2d_28">
    <path clip-path="url(#pdafc5120e0)" d="M 55.745277 185.58961 
L 57.856103 183.159921 
L 59.998531 180.614351 
L 62.173214 177.955692 
L 64.380822 175.186257 
L 66.622041 172.307906 
L 68.897574 169.322079 
L 71.208142 166.229819 
L 73.554484 163.031807 
L 75.937357 159.728386 
L 78.357539 156.319586 
L 80.815824 152.805149 
L 83.31303 149.184546 
L 85.849993 145.456997 
L 88.427569 141.621488 
L 91.04664 137.676781 
L 93.708105 133.621432 
L 96.412889 129.453795 
L 99.161939 125.17203 
L 101.956226 120.774118 
L 104.796746 116.257856 
L 107.684518 111.620869 
L 110.620588 106.860607 
L 113.606028 101.974353 
L 116.641937 96.95922 
L 119.729439 91.812148 
L 122.869689 86.529912 
L 126.063869 81.109111 
L 129.313188 75.546169 
L 129.313188 75.546169 
L 130.958912 72.710229 
" style="fill:none;stroke:#bfbf00;stroke-linecap:square;stroke-width:1.5;"/>
   </g>
   <g id="line2d_29">
    <path clip-path="url(#pdafc5120e0)" d="M 65.562105 91.343869 
L 67.698856 87.262154 
L 69.866771 83.079861 
L 72.066475 78.794967 
L 74.298611 74.405342 
L 76.563836 69.908749 
L 78.862821 65.302844 
L 81.196257 60.585169 
L 83.564847 55.753155 
L 83.564847 55.753155 
L 84.76255 53.293436 
L 85.969315 50.804116 
" style="fill:none;stroke:#bfbf00;stroke-linecap:square;stroke-width:1.5;"/>
   </g>
   <g id="line2d_30">
    <path clip-path="url(#pdafc5120e0)" d="M 57.831891 202.459734 
L 59.961976 200.880182 
L 62.123958 199.116348 
L 64.318494 197.1769 
L 66.546256 195.070025 
L 68.807936 192.803222 
L 71.10424 190.383188 
L 73.435892 187.815753 
L 75.803635 185.105873 
L 78.208228 182.257653 
L 80.650451 179.274386 
L 83.131103 176.158605 
L 85.651001 172.912138 
L 88.210984 169.536163 
L 90.81191 166.03126 
L 93.45466 162.397458 
L 96.140134 158.634279 
L 98.869257 154.740774 
L 101.642974 150.715551 
L 104.462255 146.556805 
L 107.328093 142.26234 
L 110.241504 137.829579 
L 113.20353 133.255585 
L 116.215236 128.537062 
L 119.277715 123.670365 
L 122.392084 118.651501 
L 125.559488 113.476125 
L 128.781098 108.139537 
L 132.058111 102.636676 
L 135.391754 96.96211 
L 138.783281 91.110019 
L 142.233975 85.074185 
L 142.233975 85.074185 
L 143.981918 81.985307 
" style="fill:none;stroke:#bfbf00;stroke-linecap:square;stroke-width:1.5;"/>
   </g>
   <g id="line2d_31">
    <path clip-path="url(#pdafc5120e0)" d="M 60.440311 210.704747 
L 62.578622 208.891532 
L 64.748513 206.886879 
L 66.95062 204.705384 
L 69.185594 202.359793 
L 71.454101 199.860955 
L 73.756822 197.217909 
L 76.094456 194.438045 
L 78.467718 191.527281 
L 80.87734 188.490252 
L 83.324069 185.330476 
L 85.808675 182.050513 
L 88.331941 178.652092 
L 90.894672 175.136227 
L 93.49769 171.503308 
L 96.141837 167.753183 
L 98.827977 163.885221 
L 101.55699 159.898363 
L 104.329781 155.791166 
L 107.147274 151.56184 
L 110.010415 147.208271 
L 112.920172 142.728047 
L 115.877535 138.118473 
L 118.883517 133.376586 
L 121.939156 128.499162 
L 125.045512 123.482723 
L 128.203669 118.323542 
L 131.414736 113.017644 
L 134.679846 107.560806 
L 138.00016 101.948551 
L 141.376861 96.17615 
L 144.811161 90.238609 
L 144.811161 90.238609 
L 146.550296 87.206278 
L 148.304296 84.130667 
" style="fill:none;stroke:#bfbf00;stroke-linecap:square;stroke-width:1.5;"/>
   </g>
   <g id="line2d_32">
    <path clip-path="url(#pdafc5120e0)" d="M 57.008664 220.0283 
L 59.132196 219.591378 
L 61.287517 218.872034 
L 63.475283 217.884395 
L 65.696164 216.646965 
L 67.950847 215.180296 
L 70.240037 213.505042 
L 72.564454 211.640606 
L 74.924839 209.604372 
L 77.321948 207.411395 
L 79.756557 205.074382 
L 82.229462 202.603858 
L 84.741477 200.008399 
L 87.293438 197.294893 
L 89.886199 194.468793 
L 92.520638 191.534334 
L 95.197653 188.494733 
L 97.918162 185.352346 
L 100.68311 182.10881 
L 103.493461 178.765149 
L 106.350205 175.321867 
L 109.254355 171.779022 
L 112.206948 168.136287 
L 115.209047 164.392995 
L 118.26174 160.548184 
L 121.366142 156.600626 
L 124.523393 152.548851 
L 127.73466 148.39117 
L 131.001139 144.12569 
L 134.324052 139.75033 
L 137.70465 135.262825 
L 141.144213 130.660738 
L 144.64405 125.941464 
L 148.205499 121.102231 
L 151.829927 116.140105 
L 155.518733 111.051989 
L 159.273345 105.834618 
L 163.095221 100.48456 
L 166.98585 94.998211 
L 166.98585 94.998211 
L 168.957421 92.202752 
" style="fill:none;stroke:#bfbf00;stroke-linecap:square;stroke-width:1.5;"/>
   </g>
   <g id="line2d_33">
    <path clip-path="url(#pdafc5120e0)" d="M 62.478475 224.001054 
L 64.633439 226.068011 
L 66.820272 227.944234 
L 69.039615 229.564681 
L 71.292128 230.842595 
L 73.578482 231.675857 
L 75.899368 231.971498 
L 78.25549 231.684308 
L 80.647571 230.839982 
L 83.076351 229.518531 
L 85.542585 227.816267 
L 88.047049 225.818206 
L 90.590537 223.589021 
L 93.173859 221.174583 
L 95.797846 218.606498 
L 98.46335 215.906354 
L 101.171241 213.088884 
L 103.922409 210.164142 
L 106.717767 207.138964 
L 109.558246 204.01793 
L 112.444802 200.804019 
L 115.378411 197.499049 
L 118.360072 194.103978 
L 121.390806 190.619119 
L 124.471658 187.044292 
L 127.603698 183.37893 
L 130.788017 179.62216 
L 134.025732 175.772866 
L 137.317984 171.82973 
L 140.665941 167.791271 
L 144.070793 163.655869 
L 147.533759 159.421789 
L 151.056081 155.0872 
L 154.639028 150.650187 
L 158.283896 146.10877 
L 161.992007 141.46091 
L 165.764709 136.704523 
L 169.603377 131.837491 
L 173.509412 126.857671 
L 177.484244 121.762905 
L 181.529327 116.55103 
L 185.646142 111.219892 
L 185.646142 111.219892 
L 187.731919 108.50893 
L 189.836197 105.767353 
" style="fill:none;stroke:#bfbf00;stroke-linecap:square;stroke-width:1.5;"/>
   </g>
   <g id="line2d_34">
    <path clip-path="url(#pdafc5120e0)" d="M 52.40366 225.611404 
L 54.506492 223.273296 
L 56.64112 220.770604 
L 58.808206 218.128821 
L 61.008432 215.364877 
L 63.242494 212.49 
L 65.511107 209.511574 
L 67.815003 206.434344 
L 70.154935 203.261207 
L 72.531672 199.99373 
L 74.946004 196.632501 
L 77.39874 193.177369 
L 79.890712 189.627605 
L 82.422769 185.982025 
L 84.995786 182.239066 
L 87.610656 178.396849 
L 90.268297 174.453219 
L 92.96965 170.405777 
L 95.71568 166.251901 
L 98.507374 161.988761 
L 101.345748 157.61333 
L 104.231839 153.122387 
L 107.166714 148.512528 
L 110.151464 143.780158 
L 113.187208 138.921497 
L 116.275093 133.932573 
L 119.416295 128.809221 
L 122.612017 123.547073 
L 125.863495 118.141559 
L 129.171991 112.58789 
L 132.538801 106.881057 
L 135.965249 101.015816 
L 139.452695 94.986678 
L 143.002527 88.787896 
L 143.002527 88.787896 
L 144.801282 85.623019 
L 146.616169 82.413454 
" style="fill:none;stroke:#bfbf00;stroke-linecap:square;stroke-width:1.5;"/>
   </g>
   <g id="line2d_35">
    <path clip-path="url(#pdafc5120e0)" d="M 66.380756 238.640609 
L 68.561397 241.03366 
L 70.774042 242.116364 
L 73.019326 240.28019 
L 75.297898 237.732136 
L 77.610424 235.020187 
L 79.957582 232.211919 
L 82.340069 229.322806 
L 84.758596 226.357125 
L 87.21389 223.31557 
L 89.706697 220.197375 
L 92.237778 217.00105 
L 94.807911 213.724697 
L 97.417893 210.36614 
L 100.068539 206.923006 
L 102.760682 203.39275 
L 105.495172 199.772684 
L 108.272883 196.059977 
L 111.094702 192.251666 
L 113.961542 188.344653 
L 116.874331 184.335701 
L 119.834021 180.221438 
L 122.841583 175.998343 
L 125.89801 171.662751 
L 129.004315 167.210837 
L 132.161536 162.638616 
L 135.370728 157.941933 
L 138.632973 153.116456 
L 141.949373 148.157666 
L 145.321053 143.060851 
L 148.749161 137.82109 
L 152.234869 132.433251 
L 155.779371 126.891972 
L 159.383885 121.191653 
L 163.049653 115.326442 
L 166.777939 109.290223 
L 170.570033 103.076597 
L 170.570033 103.076597 
L 172.490417 99.901176 
L 174.427246 96.67887 
" style="fill:none;stroke:#bfbf00;stroke-linecap:square;stroke-width:1.5;"/>
   </g>
   <g id="line2d_36">
    <path clip-path="url(#pdafc5120e0)" d="M 50.192764 202.054547 
L 52.278984 199.114257 
L 54.396763 196.056397 
L 56.546758 192.884571 
L 58.729645 189.601202 
L 60.946116 186.207752 
L 63.196882 182.704894 
L 65.482669 179.092636 
L 67.804225 175.370431 
L 70.162314 171.537251 
L 72.55772 167.591653 
L 74.991249 163.531826 
L 77.463725 159.355627 
L 79.975993 155.060612 
L 82.528922 150.644056 
L 85.123399 146.102968 
L 87.760338 141.434106 
L 90.440672 136.633982 
L 93.165361 131.698869 
L 95.935388 126.624802 
L 98.75176 121.407579 
L 101.615511 116.042758 
L 104.5277 110.525656 
L 107.489414 104.851339 
L 110.501764 99.014624 
L 113.565894 93.01006 
L 116.682971 86.831931 
L 119.854195 80.474234 
L 123.080795 73.930676 
L 123.080795 73.930676 
L 124.715252 70.58715 
" style="fill:none;stroke:#bfbf00;stroke-linecap:square;stroke-width:1.5;"/>
   </g>
   <g id="line2d_37">
    <path clip-path="url(#pdafc5120e0)" d="M 56.988834 196.713907 
L 59.099505 194.281582 
L 61.241715 191.759316 
L 63.416114 189.149616 
L 65.623369 186.454422 
L 67.864164 183.675182 
L 70.139201 180.812911 
L 72.449196 177.868247 
L 74.794886 174.841494 
L 77.177024 171.732659 
L 79.596383 168.541489 
L 82.053754 165.267491 
L 84.549949 161.909956 
L 87.085799 158.467983 
L 89.662156 154.940486 
L 92.279893 151.326212 
L 94.939904 147.62375 
L 97.643105 143.831535 
L 100.390434 139.947863 
L 103.182855 135.970885 
L 106.02135 131.898621 
L 108.90693 127.728953 
L 111.840628 123.459633 
L 114.823501 119.088279 
L 117.856634 114.612376 
L 120.941135 110.029277 
L 124.07814 105.336194 
L 127.26881 100.530203 
L 130.514335 95.608235 
L 133.815932 90.567072 
L 137.174844 85.403345 
L 137.174844 85.403345 
L 138.87619 82.774423 
L 140.592344 80.113524 
" style="fill:none;stroke:#bfbf00;stroke-linecap:square;stroke-width:1.5;"/>
   </g>
   <g id="line2d_38">
    <path clip-path="url(#pdafc5120e0)" d="M 58.851934 197.055378 
L 60.973791 195.397083 
L 63.127104 193.581825 
L 65.312513 191.615808 
L 67.530674 189.50486 
L 69.782259 187.254324 
L 72.067957 184.869004 
L 74.388472 182.353134 
L 76.744528 179.710366 
L 79.136864 176.943791 
L 81.566239 174.055953 
L 84.033429 171.048881 
L 86.53923 167.924121 
L 89.084458 164.682768 
L 91.669946 161.325499 
L 94.29655 157.852604 
L 96.965148 154.264013 
L 99.676635 150.559324 
L 102.431932 146.737824 
L 105.23198 142.79851 
L 108.077744 138.740108 
L 110.970211 134.561089 
L 113.910393 130.259677 
L 116.899326 125.833868 
L 119.938071 121.281431 
L 123.027713 116.599923 
L 126.169364 111.786688 
L 129.364162 106.838865 
L 132.613272 101.753392 
L 135.917886 96.527002 
L 139.279224 91.156232 
L 142.698533 85.637414 
L 142.698533 85.637414 
L 144.430324 82.821285 
" style="fill:none;stroke:#bfbf00;stroke-linecap:square;stroke-width:1.5;"/>
   </g>
   <g id="line2d_39">
    <path clip-path="url(#pdafc5120e0)" d="M 67.14386 44.443636 
L 100.847521 61.223923 
L 205.970811 113.753911 
L 226.019129 123.524705 
L 249.054545 134.550094 
L 249.054545 134.550094 
" style="fill:none;stroke:#008000;stroke-linecap:square;stroke-width:1.5;"/>
   </g>
   <g id="patch_3">
    <path d="M 36 252 
L 36 34.56 
" style="fill:none;stroke:#000000;stroke-linecap:square;stroke-linejoin:miter;stroke-width:0.8;"/>
   </g>
   <g id="patch_4">
    <path d="M 259.2 252 
L 259.2 34.56 
" style="fill:none;stroke:#000000;stroke-linecap:square;stroke-linejoin:miter;stroke-width:0.8;"/>
   </g>
   <g id="patch_5">
    <path d="M 36 252 
L 259.2 252 
" style="fill:none;stroke:#000000;stroke-linecap:square;stroke-linejoin:miter;stroke-width:0.8;"/>
   </g>
   <g id="patch_6">
    <path d="M 36 34.56 
L 259.2 34.56 
" style="fill:none;stroke:#000000;stroke-linecap:square;stroke-linejoin:miter;stroke-width:0.8;"/>
   </g>
   <g id="text_15">
    <!--  0.68 -->
    <defs>
     <path id="DejaVuSans-32"/>
    </defs>
    <g transform="translate(142.914508 81.173906)scale(0.1 -0.1)">
     <use xlink:href="#DejaVuSans-32"/>
     <use x="31.787109" xlink:href="#DejaVuSans-48"/>
     <use x="95.410156" xlink:href="#DejaVuSans-46"/>
     <use x="127.197266" xlink:href="#DejaVuSans-54"/>
     <use x="190.820312" xlink:href="#DejaVuSans-56"/>
    </g>
   </g>
   <g id="text_16">
    <!--  f=1 -->
    <defs>
     <path d="M 37.109375 75.984375 
L 37.109375 68.5 
L 28.515625 68.5 
Q 23.6875 68.5 21.796875 66.546875 
Q 19.921875 64.59375 19.921875 59.515625 
L 19.921875 54.6875 
L 34.71875 54.6875 
L 34.71875 47.703125 
L 19.921875 47.703125 
L 19.921875 0 
L 10.890625 0 
L 10.890625 47.703125 
L 2.296875 47.703125 
L 2.296875 54.6875 
L 10.890625 54.6875 
L 10.890625 58.5 
Q 10.890625 67.625 15.140625 71.796875 
Q 19.390625 75.984375 28.609375 75.984375 
z
" id="DejaVuSans-102"/>
     <path d="M 10.59375 45.40625 
L 73.1875 45.40625 
L 73.1875 37.203125 
L 10.59375 37.203125 
z
M 10.59375 25.484375 
L 73.1875 25.484375 
L 73.1875 17.1875 
L 10.59375 17.1875 
z
" id="DejaVuSans-61"/>
    </defs>
    <g transform="translate(39.344989 209.5532)scale(0.1 -0.1)">
     <use xlink:href="#DejaVuSans-32"/>
     <use x="31.787109" xlink:href="#DejaVuSans-102"/>
     <use x="66.992188" xlink:href="#DejaVuSans-61"/>
     <use x="150.78125" xlink:href="#DejaVuSans-49"/>
    </g>
   </g>
  </g>
 </g>
 <defs>
  <clipPath id="pdafc5120e0">
   <rect height="217.44" width="223.2" x="36" y="34.56"/>
  </clipPath>
 </defs>
</svg>
