<?xml version="1.0" encoding="utf-8" standalone="no"?>
<!DOCTYPE svg PUBLIC "-//W3C//DTD SVG 1.1//EN"
  "http://www.w3.org/Graphics/SVG/1.1/DTD/svg11.dtd">
<!-- Created with matplotlib (https://matplotlib.org/) -->
<svg height="288pt" version="1.1" viewBox="0 0 288 288" width="288pt" xmlns="http://www.w3.org/2000/svg" xmlns:xlink="http://www.w3.org/1999/xlink">
 <defs>
  <style type="text/css">
*{stroke-linecap:butt;stroke-linejoin:round;}
  </style>
 </defs>
 <g id="figure_1">
  <g id="patch_1">
   <path d="M 0 288 
L 288 288 
L 288 0 
L 0 0 
z
" style="fill:#ffffff;"/>
  </g>
  <g id="axes_1">
   <g id="patch_2">
    <path d="M 36 252 
L 259.2 252 
L 259.2 34.56 
L 36 34.56 
z
" style="fill:#ffffff;"/>
   </g>
   <g id="matplotlib.axis_1">
    <g id="xtick_1">
     <g id="line2d_1">
      <defs>
       <path d="M 0 0 
L 0 3.5 
" id="m486678625a" style="stroke:#000000;stroke-width:0.8;"/>
      </defs>
      <g>
       <use style="stroke:#000000;stroke-width:0.8;" x="80.901166" xlink:href="#m486678625a" y="252"/>
      </g>
     </g>
     <g id="text_1">
      <!-- 30 -->
      <defs>
       <path d="M 40.578125 39.3125 
Q 47.65625 37.796875 51.625 33 
Q 55.609375 28.21875 55.609375 21.1875 
Q 55.609375 10.40625 48.1875 4.484375 
Q 40.765625 -1.421875 27.09375 -1.421875 
Q 22.515625 -1.421875 17.65625 -0.515625 
Q 12.796875 0.390625 7.625 2.203125 
L 7.625 11.71875 
Q 11.71875 9.328125 16.59375 8.109375 
Q 21.484375 6.890625 26.8125 6.890625 
Q 36.078125 6.890625 40.9375 10.546875 
Q 45.796875 14.203125 45.796875 21.1875 
Q 45.796875 27.640625 41.28125 31.265625 
Q 36.765625 34.90625 28.71875 34.90625 
L 20.21875 34.90625 
L 20.21875 43.015625 
L 29.109375 43.015625 
Q 36.375 43.015625 40.234375 45.921875 
Q 44.09375 48.828125 44.09375 54.296875 
Q 44.09375 59.90625 40.109375 62.90625 
Q 36.140625 65.921875 28.71875 65.921875 
Q 24.65625 65.921875 20.015625 65.03125 
Q 15.375 64.15625 9.8125 62.3125 
L 9.8125 71.09375 
Q 15.4375 72.65625 20.34375 73.4375 
Q 25.25 74.21875 29.59375 74.21875 
Q 40.828125 74.21875 47.359375 69.109375 
Q 53.90625 64.015625 53.90625 55.328125 
Q 53.90625 49.265625 50.4375 45.09375 
Q 46.96875 40.921875 40.578125 39.3125 
z
" id="DejaVuSans-51"/>
       <path d="M 31.78125 66.40625 
Q 24.171875 66.40625 20.328125 58.90625 
Q 16.5 51.421875 16.5 36.375 
Q 16.5 21.390625 20.328125 13.890625 
Q 24.171875 6.390625 31.78125 6.390625 
Q 39.453125 6.390625 43.28125 13.890625 
Q 47.125 21.390625 47.125 36.375 
Q 47.125 51.421875 43.28125 58.90625 
Q 39.453125 66.40625 31.78125 66.40625 
z
M 31.78125 74.21875 
Q 44.046875 74.21875 50.515625 64.515625 
Q 56.984375 54.828125 56.984375 36.375 
Q 56.984375 17.96875 50.515625 8.265625 
Q 44.046875 -1.421875 31.78125 -1.421875 
Q 19.53125 -1.421875 13.0625 8.265625 
Q 6.59375 17.96875 6.59375 36.375 
Q 6.59375 54.828125 13.0625 64.515625 
Q 19.53125 74.21875 31.78125 74.21875 
z
" id="DejaVuSans-48"/>
      </defs>
      <g transform="translate(74.538666 266.598437)scale(0.1 -0.1)">
       <use xlink:href="#DejaVuSans-51"/>
       <use x="63.623047" xlink:href="#DejaVuSans-48"/>
      </g>
     </g>
    </g>
    <g id="xtick_2">
     <g id="line2d_2">
      <g>
       <use style="stroke:#000000;stroke-width:0.8;" x="140.262976" xlink:href="#m486678625a" y="252"/>
      </g>
     </g>
     <g id="text_2">
      <!-- 35 -->
      <defs>
       <path d="M 10.796875 72.90625 
L 49.515625 72.90625 
L 49.515625 64.59375 
L 19.828125 64.59375 
L 19.828125 46.734375 
Q 21.96875 47.46875 24.109375 47.828125 
Q 26.265625 48.1875 28.421875 48.1875 
Q 40.625 48.1875 47.75 41.5 
Q 54.890625 34.8125 54.890625 23.390625 
Q 54.890625 11.625 47.5625 5.09375 
Q 40.234375 -1.421875 26.90625 -1.421875 
Q 22.3125 -1.421875 17.546875 -0.640625 
Q 12.796875 0.140625 7.71875 1.703125 
L 7.71875 11.625 
Q 12.109375 9.234375 16.796875 8.0625 
Q 21.484375 6.890625 26.703125 6.890625 
Q 35.15625 6.890625 40.078125 11.328125 
Q 45.015625 15.765625 45.015625 23.390625 
Q 45.015625 31 40.078125 35.4375 
Q 35.15625 39.890625 26.703125 39.890625 
Q 22.75 39.890625 18.8125 39.015625 
Q 14.890625 38.140625 10.796875 36.28125 
z
" id="DejaVuSans-53"/>
      </defs>
      <g transform="translate(133.900476 266.598437)scale(0.1 -0.1)">
       <use xlink:href="#DejaVuSans-51"/>
       <use x="63.623047" xlink:href="#DejaVuSans-53"/>
      </g>
     </g>
    </g>
    <g id="xtick_3">
     <g id="line2d_3">
      <g>
       <use style="stroke:#000000;stroke-width:0.8;" x="199.624786" xlink:href="#m486678625a" y="252"/>
      </g>
     </g>
     <g id="text_3">
      <!-- 40 -->
      <defs>
       <path d="M 37.796875 64.3125 
L 12.890625 25.390625 
L 37.796875 25.390625 
z
M 35.203125 72.90625 
L 47.609375 72.90625 
L 47.609375 25.390625 
L 58.015625 25.390625 
L 58.015625 17.1875 
L 47.609375 17.1875 
L 47.609375 0 
L 37.796875 0 
L 37.796875 17.1875 
L 4.890625 17.1875 
L 4.890625 26.703125 
z
" id="DejaVuSans-52"/>
      </defs>
      <g transform="translate(193.262286 266.598437)scale(0.1 -0.1)">
       <use xlink:href="#DejaVuSans-52"/>
       <use x="63.623047" xlink:href="#DejaVuSans-48"/>
      </g>
     </g>
    </g>
    <g id="xtick_4">
     <g id="line2d_4">
      <g>
       <use style="stroke:#000000;stroke-width:0.8;" x="258.986596" xlink:href="#m486678625a" y="252"/>
      </g>
     </g>
     <g id="text_4">
      <!-- 45 -->
      <g transform="translate(252.624096 266.598437)scale(0.1 -0.1)">
       <use xlink:href="#DejaVuSans-52"/>
       <use x="63.623047" xlink:href="#DejaVuSans-53"/>
      </g>
     </g>
    </g>
    <g id="text_5">
     <!-- Inclinations -->
     <defs>
      <path d="M 9.8125 72.90625 
L 19.671875 72.90625 
L 19.671875 0 
L 9.8125 0 
z
" id="DejaVuSans-73"/>
      <path d="M 54.890625 33.015625 
L 54.890625 0 
L 45.90625 0 
L 45.90625 32.71875 
Q 45.90625 40.484375 42.875 44.328125 
Q 39.84375 48.1875 33.796875 48.1875 
Q 26.515625 48.1875 22.3125 43.546875 
Q 18.109375 38.921875 18.109375 30.90625 
L 18.109375 0 
L 9.078125 0 
L 9.078125 54.6875 
L 18.109375 54.6875 
L 18.109375 46.1875 
Q 21.34375 51.125 25.703125 53.5625 
Q 30.078125 56 35.796875 56 
Q 45.21875 56 50.046875 50.171875 
Q 54.890625 44.34375 54.890625 33.015625 
z
" id="DejaVuSans-110"/>
      <path d="M 48.78125 52.59375 
L 48.78125 44.1875 
Q 44.96875 46.296875 41.140625 47.34375 
Q 37.3125 48.390625 33.40625 48.390625 
Q 24.65625 48.390625 19.8125 42.84375 
Q 14.984375 37.3125 14.984375 27.296875 
Q 14.984375 17.28125 19.8125 11.734375 
Q 24.65625 6.203125 33.40625 6.203125 
Q 37.3125 6.203125 41.140625 7.25 
Q 44.96875 8.296875 48.78125 10.40625 
L 48.78125 2.09375 
Q 45.015625 0.34375 40.984375 -0.53125 
Q 36.96875 -1.421875 32.421875 -1.421875 
Q 20.0625 -1.421875 12.78125 6.34375 
Q 5.515625 14.109375 5.515625 27.296875 
Q 5.515625 40.671875 12.859375 48.328125 
Q 20.21875 56 33.015625 56 
Q 37.15625 56 41.109375 55.140625 
Q 45.0625 54.296875 48.78125 52.59375 
z
" id="DejaVuSans-99"/>
      <path d="M 9.421875 75.984375 
L 18.40625 75.984375 
L 18.40625 0 
L 9.421875 0 
z
" id="DejaVuSans-108"/>
      <path d="M 9.421875 54.6875 
L 18.40625 54.6875 
L 18.40625 0 
L 9.421875 0 
z
M 9.421875 75.984375 
L 18.40625 75.984375 
L 18.40625 64.59375 
L 9.421875 64.59375 
z
" id="DejaVuSans-105"/>
      <path d="M 34.28125 27.484375 
Q 23.390625 27.484375 19.1875 25 
Q 14.984375 22.515625 14.984375 16.5 
Q 14.984375 11.71875 18.140625 8.90625 
Q 21.296875 6.109375 26.703125 6.109375 
Q 34.1875 6.109375 38.703125 11.40625 
Q 43.21875 16.703125 43.21875 25.484375 
L 43.21875 27.484375 
z
M 52.203125 31.203125 
L 52.203125 0 
L 43.21875 0 
L 43.21875 8.296875 
Q 40.140625 3.328125 35.546875 0.953125 
Q 30.953125 -1.421875 24.3125 -1.421875 
Q 15.921875 -1.421875 10.953125 3.296875 
Q 6 8.015625 6 15.921875 
Q 6 25.140625 12.171875 29.828125 
Q 18.359375 34.515625 30.609375 34.515625 
L 43.21875 34.515625 
L 43.21875 35.40625 
Q 43.21875 41.609375 39.140625 45 
Q 35.0625 48.390625 27.6875 48.390625 
Q 23 48.390625 18.546875 47.265625 
Q 14.109375 46.140625 10.015625 43.890625 
L 10.015625 52.203125 
Q 14.9375 54.109375 19.578125 55.046875 
Q 24.21875 56 28.609375 56 
Q 40.484375 56 46.34375 49.84375 
Q 52.203125 43.703125 52.203125 31.203125 
z
" id="DejaVuSans-97"/>
      <path d="M 18.3125 70.21875 
L 18.3125 54.6875 
L 36.8125 54.6875 
L 36.8125 47.703125 
L 18.3125 47.703125 
L 18.3125 18.015625 
Q 18.3125 11.328125 20.140625 9.421875 
Q 21.96875 7.515625 27.59375 7.515625 
L 36.8125 7.515625 
L 36.8125 0 
L 27.59375 0 
Q 17.1875 0 13.234375 3.875 
Q 9.28125 7.765625 9.28125 18.015625 
L 9.28125 47.703125 
L 2.6875 47.703125 
L 2.6875 54.6875 
L 9.28125 54.6875 
L 9.28125 70.21875 
z
" id="DejaVuSans-116"/>
      <path d="M 30.609375 48.390625 
Q 23.390625 48.390625 19.1875 42.75 
Q 14.984375 37.109375 14.984375 27.296875 
Q 14.984375 17.484375 19.15625 11.84375 
Q 23.34375 6.203125 30.609375 6.203125 
Q 37.796875 6.203125 41.984375 11.859375 
Q 46.1875 17.53125 46.1875 27.296875 
Q 46.1875 37.015625 41.984375 42.703125 
Q 37.796875 48.390625 30.609375 48.390625 
z
M 30.609375 56 
Q 42.328125 56 49.015625 48.375 
Q 55.71875 40.765625 55.71875 27.296875 
Q 55.71875 13.875 49.015625 6.21875 
Q 42.328125 -1.421875 30.609375 -1.421875 
Q 18.84375 -1.421875 12.171875 6.21875 
Q 5.515625 13.875 5.515625 27.296875 
Q 5.515625 40.765625 12.171875 48.375 
Q 18.84375 56 30.609375 56 
z
" id="DejaVuSans-111"/>
      <path d="M 44.28125 53.078125 
L 44.28125 44.578125 
Q 40.484375 46.53125 36.375 47.5 
Q 32.28125 48.484375 27.875 48.484375 
Q 21.1875 48.484375 17.84375 46.4375 
Q 14.5 44.390625 14.5 40.28125 
Q 14.5 37.15625 16.890625 35.375 
Q 19.28125 33.59375 26.515625 31.984375 
L 29.59375 31.296875 
Q 39.15625 29.25 43.1875 25.515625 
Q 47.21875 21.78125 47.21875 15.09375 
Q 47.21875 7.46875 41.1875 3.015625 
Q 35.15625 -1.421875 24.609375 -1.421875 
Q 20.21875 -1.421875 15.453125 -0.5625 
Q 10.6875 0.296875 5.421875 2 
L 5.421875 11.28125 
Q 10.40625 8.6875 15.234375 7.390625 
Q 20.0625 6.109375 24.8125 6.109375 
Q 31.15625 6.109375 34.5625 8.28125 
Q 37.984375 10.453125 37.984375 14.40625 
Q 37.984375 18.0625 35.515625 20.015625 
Q 33.0625 21.96875 24.703125 23.78125 
L 21.578125 24.515625 
Q 13.234375 26.265625 9.515625 29.90625 
Q 5.8125 33.546875 5.8125 39.890625 
Q 5.8125 47.609375 11.28125 51.796875 
Q 16.75 56 26.8125 56 
Q 31.78125 56 36.171875 55.265625 
Q 40.578125 54.546875 44.28125 53.078125 
z
" id="DejaVuSans-115"/>
     </defs>
     <g transform="translate(119.014062 280.276563)scale(0.1 -0.1)">
      <use xlink:href="#DejaVuSans-73"/>
      <use x="29.492188" xlink:href="#DejaVuSans-110"/>
      <use x="92.871094" xlink:href="#DejaVuSans-99"/>
      <use x="147.851562" xlink:href="#DejaVuSans-108"/>
      <use x="175.634766" xlink:href="#DejaVuSans-105"/>
      <use x="203.417969" xlink:href="#DejaVuSans-110"/>
      <use x="266.796875" xlink:href="#DejaVuSans-97"/>
      <use x="328.076172" xlink:href="#DejaVuSans-116"/>
      <use x="367.285156" xlink:href="#DejaVuSans-105"/>
      <use x="395.068359" xlink:href="#DejaVuSans-111"/>
      <use x="456.25" xlink:href="#DejaVuSans-110"/>
      <use x="519.628906" xlink:href="#DejaVuSans-115"/>
     </g>
    </g>
   </g>
   <g id="matplotlib.axis_2">
    <g id="ytick_1">
     <g id="line2d_5">
      <defs>
       <path d="M 0 0 
L -3.5 0 
" id="maa436cda9a" style="stroke:#000000;stroke-width:0.8;"/>
      </defs>
      <g>
       <use style="stroke:#000000;stroke-width:0.8;" x="36" xlink:href="#maa436cda9a" y="242.116364"/>
      </g>
     </g>
     <g id="text_6">
      <!-- 0.0 -->
      <defs>
       <path d="M 10.6875 12.40625 
L 21 12.40625 
L 21 0 
L 10.6875 0 
z
" id="DejaVuSans-46"/>
      </defs>
      <g transform="translate(13.096875 245.915582)scale(0.1 -0.1)">
       <use xlink:href="#DejaVuSans-48"/>
       <use x="63.623047" xlink:href="#DejaVuSans-46"/>
       <use x="95.410156" xlink:href="#DejaVuSans-48"/>
      </g>
     </g>
    </g>
    <g id="ytick_2">
     <g id="line2d_6">
      <g>
       <use style="stroke:#000000;stroke-width:0.8;" x="36" xlink:href="#maa436cda9a" y="202.542244"/>
      </g>
     </g>
     <g id="text_7">
      <!-- 0.2 -->
      <defs>
       <path d="M 19.1875 8.296875 
L 53.609375 8.296875 
L 53.609375 0 
L 7.328125 0 
L 7.328125 8.296875 
Q 12.9375 14.109375 22.625 23.890625 
Q 32.328125 33.6875 34.8125 36.53125 
Q 39.546875 41.84375 41.421875 45.53125 
Q 43.3125 49.21875 43.3125 52.78125 
Q 43.3125 58.59375 39.234375 62.25 
Q 35.15625 65.921875 28.609375 65.921875 
Q 23.96875 65.921875 18.8125 64.3125 
Q 13.671875 62.703125 7.8125 59.421875 
L 7.8125 69.390625 
Q 13.765625 71.78125 18.9375 73 
Q 24.125 74.21875 28.421875 74.21875 
Q 39.75 74.21875 46.484375 68.546875 
Q 53.21875 62.890625 53.21875 53.421875 
Q 53.21875 48.921875 51.53125 44.890625 
Q 49.859375 40.875 45.40625 35.40625 
Q 44.1875 33.984375 37.640625 27.21875 
Q 31.109375 20.453125 19.1875 8.296875 
z
" id="DejaVuSans-50"/>
      </defs>
      <g transform="translate(13.096875 206.341463)scale(0.1 -0.1)">
       <use xlink:href="#DejaVuSans-48"/>
       <use x="63.623047" xlink:href="#DejaVuSans-46"/>
       <use x="95.410156" xlink:href="#DejaVuSans-50"/>
      </g>
     </g>
    </g>
    <g id="ytick_3">
     <g id="line2d_7">
      <g>
       <use style="stroke:#000000;stroke-width:0.8;" x="36" xlink:href="#maa436cda9a" y="162.968124"/>
      </g>
     </g>
     <g id="text_8">
      <!-- 0.4 -->
      <g transform="translate(13.096875 166.767343)scale(0.1 -0.1)">
       <use xlink:href="#DejaVuSans-48"/>
       <use x="63.623047" xlink:href="#DejaVuSans-46"/>
       <use x="95.410156" xlink:href="#DejaVuSans-52"/>
      </g>
     </g>
    </g>
    <g id="ytick_4">
     <g id="line2d_8">
      <g>
       <use style="stroke:#000000;stroke-width:0.8;" x="36" xlink:href="#maa436cda9a" y="123.394005"/>
      </g>
     </g>
     <g id="text_9">
      <!-- 0.6 -->
      <defs>
       <path d="M 33.015625 40.375 
Q 26.375 40.375 22.484375 35.828125 
Q 18.609375 31.296875 18.609375 23.390625 
Q 18.609375 15.53125 22.484375 10.953125 
Q 26.375 6.390625 33.015625 6.390625 
Q 39.65625 6.390625 43.53125 10.953125 
Q 47.40625 15.53125 47.40625 23.390625 
Q 47.40625 31.296875 43.53125 35.828125 
Q 39.65625 40.375 33.015625 40.375 
z
M 52.59375 71.296875 
L 52.59375 62.3125 
Q 48.875 64.0625 45.09375 64.984375 
Q 41.3125 65.921875 37.59375 65.921875 
Q 27.828125 65.921875 22.671875 59.328125 
Q 17.53125 52.734375 16.796875 39.40625 
Q 19.671875 43.65625 24.015625 45.921875 
Q 28.375 48.1875 33.59375 48.1875 
Q 44.578125 48.1875 50.953125 41.515625 
Q 57.328125 34.859375 57.328125 23.390625 
Q 57.328125 12.15625 50.6875 5.359375 
Q 44.046875 -1.421875 33.015625 -1.421875 
Q 20.359375 -1.421875 13.671875 8.265625 
Q 6.984375 17.96875 6.984375 36.375 
Q 6.984375 53.65625 15.1875 63.9375 
Q 23.390625 74.21875 37.203125 74.21875 
Q 40.921875 74.21875 44.703125 73.484375 
Q 48.484375 72.75 52.59375 71.296875 
z
" id="DejaVuSans-54"/>
      </defs>
      <g transform="translate(13.096875 127.193224)scale(0.1 -0.1)">
       <use xlink:href="#DejaVuSans-48"/>
       <use x="63.623047" xlink:href="#DejaVuSans-46"/>
       <use x="95.410156" xlink:href="#DejaVuSans-54"/>
      </g>
     </g>
    </g>
    <g id="ytick_5">
     <g id="line2d_9">
      <g>
       <use style="stroke:#000000;stroke-width:0.8;" x="36" xlink:href="#maa436cda9a" y="83.819885"/>
      </g>
     </g>
     <g id="text_10">
      <!-- 0.8 -->
      <defs>
       <path d="M 31.78125 34.625 
Q 24.75 34.625 20.71875 30.859375 
Q 16.703125 27.09375 16.703125 20.515625 
Q 16.703125 13.921875 20.71875 10.15625 
Q 24.75 6.390625 31.78125 6.390625 
Q 38.8125 6.390625 42.859375 10.171875 
Q 46.921875 13.96875 46.921875 20.515625 
Q 46.921875 27.09375 42.890625 30.859375 
Q 38.875 34.625 31.78125 34.625 
z
M 21.921875 38.8125 
Q 15.578125 40.375 12.03125 44.71875 
Q 8.5 49.078125 8.5 55.328125 
Q 8.5 64.0625 14.71875 69.140625 
Q 20.953125 74.21875 31.78125 74.21875 
Q 42.671875 74.21875 48.875 69.140625 
Q 55.078125 64.0625 55.078125 55.328125 
Q 55.078125 49.078125 51.53125 44.71875 
Q 48 40.375 41.703125 38.8125 
Q 48.828125 37.15625 52.796875 32.3125 
Q 56.78125 27.484375 56.78125 20.515625 
Q 56.78125 9.90625 50.3125 4.234375 
Q 43.84375 -1.421875 31.78125 -1.421875 
Q 19.734375 -1.421875 13.25 4.234375 
Q 6.78125 9.90625 6.78125 20.515625 
Q 6.78125 27.484375 10.78125 32.3125 
Q 14.796875 37.15625 21.921875 38.8125 
z
M 18.3125 54.390625 
Q 18.3125 48.734375 21.84375 45.5625 
Q 25.390625 42.390625 31.78125 42.390625 
Q 38.140625 42.390625 41.71875 45.5625 
Q 45.3125 48.734375 45.3125 54.390625 
Q 45.3125 60.0625 41.71875 63.234375 
Q 38.140625 66.40625 31.78125 66.40625 
Q 25.390625 66.40625 21.84375 63.234375 
Q 18.3125 60.0625 18.3125 54.390625 
z
" id="DejaVuSans-56"/>
      </defs>
      <g transform="translate(13.096875 87.619104)scale(0.1 -0.1)">
       <use xlink:href="#DejaVuSans-48"/>
       <use x="63.623047" xlink:href="#DejaVuSans-46"/>
       <use x="95.410156" xlink:href="#DejaVuSans-56"/>
      </g>
     </g>
    </g>
    <g id="ytick_6">
     <g id="line2d_10">
      <g>
       <use style="stroke:#000000;stroke-width:0.8;" x="36" xlink:href="#maa436cda9a" y="44.245766"/>
      </g>
     </g>
     <g id="text_11">
      <!-- 1.0 -->
      <defs>
       <path d="M 12.40625 8.296875 
L 28.515625 8.296875 
L 28.515625 63.921875 
L 10.984375 60.40625 
L 10.984375 69.390625 
L 28.421875 72.90625 
L 38.28125 72.90625 
L 38.28125 8.296875 
L 54.390625 8.296875 
L 54.390625 0 
L 12.40625 0 
z
" id="DejaVuSans-49"/>
      </defs>
      <g transform="translate(13.096875 48.044985)scale(0.1 -0.1)">
       <use xlink:href="#DejaVuSans-49"/>
       <use x="63.623047" xlink:href="#DejaVuSans-46"/>
       <use x="95.410156" xlink:href="#DejaVuSans-48"/>
      </g>
     </g>
    </g>
    <g id="text_12">
     <!-- Cumulative Distribution -->
     <defs>
      <path d="M 64.40625 67.28125 
L 64.40625 56.890625 
Q 59.421875 61.53125 53.78125 63.8125 
Q 48.140625 66.109375 41.796875 66.109375 
Q 29.296875 66.109375 22.65625 58.46875 
Q 16.015625 50.828125 16.015625 36.375 
Q 16.015625 21.96875 22.65625 14.328125 
Q 29.296875 6.6875 41.796875 6.6875 
Q 48.140625 6.6875 53.78125 8.984375 
Q 59.421875 11.28125 64.40625 15.921875 
L 64.40625 5.609375 
Q 59.234375 2.09375 53.4375 0.328125 
Q 47.65625 -1.421875 41.21875 -1.421875 
Q 24.65625 -1.421875 15.125 8.703125 
Q 5.609375 18.84375 5.609375 36.375 
Q 5.609375 53.953125 15.125 64.078125 
Q 24.65625 74.21875 41.21875 74.21875 
Q 47.75 74.21875 53.53125 72.484375 
Q 59.328125 70.75 64.40625 67.28125 
z
" id="DejaVuSans-67"/>
      <path d="M 8.5 21.578125 
L 8.5 54.6875 
L 17.484375 54.6875 
L 17.484375 21.921875 
Q 17.484375 14.15625 20.5 10.265625 
Q 23.53125 6.390625 29.59375 6.390625 
Q 36.859375 6.390625 41.078125 11.03125 
Q 45.3125 15.671875 45.3125 23.6875 
L 45.3125 54.6875 
L 54.296875 54.6875 
L 54.296875 0 
L 45.3125 0 
L 45.3125 8.40625 
Q 42.046875 3.421875 37.71875 1 
Q 33.40625 -1.421875 27.6875 -1.421875 
Q 18.265625 -1.421875 13.375 4.4375 
Q 8.5 10.296875 8.5 21.578125 
z
M 31.109375 56 
z
" id="DejaVuSans-117"/>
      <path d="M 52 44.1875 
Q 55.375 50.25 60.0625 53.125 
Q 64.75 56 71.09375 56 
Q 79.640625 56 84.28125 50.015625 
Q 88.921875 44.046875 88.921875 33.015625 
L 88.921875 0 
L 79.890625 0 
L 79.890625 32.71875 
Q 79.890625 40.578125 77.09375 44.375 
Q 74.3125 48.1875 68.609375 48.1875 
Q 61.625 48.1875 57.5625 43.546875 
Q 53.515625 38.921875 53.515625 30.90625 
L 53.515625 0 
L 44.484375 0 
L 44.484375 32.71875 
Q 44.484375 40.625 41.703125 44.40625 
Q 38.921875 48.1875 33.109375 48.1875 
Q 26.21875 48.1875 22.15625 43.53125 
Q 18.109375 38.875 18.109375 30.90625 
L 18.109375 0 
L 9.078125 0 
L 9.078125 54.6875 
L 18.109375 54.6875 
L 18.109375 46.1875 
Q 21.1875 51.21875 25.484375 53.609375 
Q 29.78125 56 35.6875 56 
Q 41.65625 56 45.828125 52.96875 
Q 50 49.953125 52 44.1875 
z
" id="DejaVuSans-109"/>
      <path d="M 2.984375 54.6875 
L 12.5 54.6875 
L 29.59375 8.796875 
L 46.6875 54.6875 
L 56.203125 54.6875 
L 35.6875 0 
L 23.484375 0 
z
" id="DejaVuSans-118"/>
      <path d="M 56.203125 29.59375 
L 56.203125 25.203125 
L 14.890625 25.203125 
Q 15.484375 15.921875 20.484375 11.0625 
Q 25.484375 6.203125 34.421875 6.203125 
Q 39.59375 6.203125 44.453125 7.46875 
Q 49.3125 8.734375 54.109375 11.28125 
L 54.109375 2.78125 
Q 49.265625 0.734375 44.1875 -0.34375 
Q 39.109375 -1.421875 33.890625 -1.421875 
Q 20.796875 -1.421875 13.15625 6.1875 
Q 5.515625 13.8125 5.515625 26.8125 
Q 5.515625 40.234375 12.765625 48.109375 
Q 20.015625 56 32.328125 56 
Q 43.359375 56 49.78125 48.890625 
Q 56.203125 41.796875 56.203125 29.59375 
z
M 47.21875 32.234375 
Q 47.125 39.59375 43.09375 43.984375 
Q 39.0625 48.390625 32.421875 48.390625 
Q 24.90625 48.390625 20.390625 44.140625 
Q 15.875 39.890625 15.1875 32.171875 
z
" id="DejaVuSans-101"/>
      <path id="DejaVuSans-32"/>
      <path d="M 19.671875 64.796875 
L 19.671875 8.109375 
L 31.59375 8.109375 
Q 46.6875 8.109375 53.6875 14.9375 
Q 60.6875 21.78125 60.6875 36.53125 
Q 60.6875 51.171875 53.6875 57.984375 
Q 46.6875 64.796875 31.59375 64.796875 
z
M 9.8125 72.90625 
L 30.078125 72.90625 
Q 51.265625 72.90625 61.171875 64.09375 
Q 71.09375 55.28125 71.09375 36.53125 
Q 71.09375 17.671875 61.125 8.828125 
Q 51.171875 0 30.078125 0 
L 9.8125 0 
z
" id="DejaVuSans-68"/>
      <path d="M 41.109375 46.296875 
Q 39.59375 47.171875 37.8125 47.578125 
Q 36.03125 48 33.890625 48 
Q 26.265625 48 22.1875 43.046875 
Q 18.109375 38.09375 18.109375 28.8125 
L 18.109375 0 
L 9.078125 0 
L 9.078125 54.6875 
L 18.109375 54.6875 
L 18.109375 46.1875 
Q 20.953125 51.171875 25.484375 53.578125 
Q 30.03125 56 36.53125 56 
Q 37.453125 56 38.578125 55.875 
Q 39.703125 55.765625 41.0625 55.515625 
z
" id="DejaVuSans-114"/>
      <path d="M 48.6875 27.296875 
Q 48.6875 37.203125 44.609375 42.84375 
Q 40.53125 48.484375 33.40625 48.484375 
Q 26.265625 48.484375 22.1875 42.84375 
Q 18.109375 37.203125 18.109375 27.296875 
Q 18.109375 17.390625 22.1875 11.75 
Q 26.265625 6.109375 33.40625 6.109375 
Q 40.53125 6.109375 44.609375 11.75 
Q 48.6875 17.390625 48.6875 27.296875 
z
M 18.109375 46.390625 
Q 20.953125 51.265625 25.265625 53.625 
Q 29.59375 56 35.59375 56 
Q 45.5625 56 51.78125 48.09375 
Q 58.015625 40.1875 58.015625 27.296875 
Q 58.015625 14.40625 51.78125 6.484375 
Q 45.5625 -1.421875 35.59375 -1.421875 
Q 29.59375 -1.421875 25.265625 0.953125 
Q 20.953125 3.328125 18.109375 8.203125 
L 18.109375 0 
L 9.078125 0 
L 9.078125 75.984375 
L 18.109375 75.984375 
z
" id="DejaVuSans-98"/>
     </defs>
     <g transform="translate(7.017187 202.575312)rotate(-90)scale(0.1 -0.1)">
      <use xlink:href="#DejaVuSans-67"/>
      <use x="69.824219" xlink:href="#DejaVuSans-117"/>
      <use x="133.203125" xlink:href="#DejaVuSans-109"/>
      <use x="230.615234" xlink:href="#DejaVuSans-117"/>
      <use x="293.994141" xlink:href="#DejaVuSans-108"/>
      <use x="321.777344" xlink:href="#DejaVuSans-97"/>
      <use x="383.056641" xlink:href="#DejaVuSans-116"/>
      <use x="422.265625" xlink:href="#DejaVuSans-105"/>
      <use x="450.048828" xlink:href="#DejaVuSans-118"/>
      <use x="509.228516" xlink:href="#DejaVuSans-101"/>
      <use x="570.751953" xlink:href="#DejaVuSans-32"/>
      <use x="602.539062" xlink:href="#DejaVuSans-68"/>
      <use x="679.541016" xlink:href="#DejaVuSans-105"/>
      <use x="707.324219" xlink:href="#DejaVuSans-115"/>
      <use x="759.423828" xlink:href="#DejaVuSans-116"/>
      <use x="798.632812" xlink:href="#DejaVuSans-114"/>
      <use x="839.746094" xlink:href="#DejaVuSans-105"/>
      <use x="867.529297" xlink:href="#DejaVuSans-98"/>
      <use x="931.005859" xlink:href="#DejaVuSans-117"/>
      <use x="994.384766" xlink:href="#DejaVuSans-116"/>
      <use x="1033.59375" xlink:href="#DejaVuSans-105"/>
      <use x="1061.376953" xlink:href="#DejaVuSans-111"/>
      <use x="1122.558594" xlink:href="#DejaVuSans-110"/>
     </g>
    </g>
   </g>
   <g id="line2d_11">
    <path clip-path="url(#pa90f99ab30)" d="M 46.145455 242.116364 
L 46.149854 241.918493 
L 47.282322 241.720622 
L 51.190048 241.522752 
L 54.457173 241.127011 
L 54.740758 240.92914 
L 62.022412 239.148305 
L 62.121003 238.950434 
L 63.399954 238.356822 
L 63.680549 238.158952 
L 63.744661 237.76321 
L 64.583754 237.56534 
L 64.592535 237.367469 
L 64.795314 236.971728 
L 66.229224 236.773857 
L 66.541553 236.575987 
L 66.62535 236.378116 
L 67.27339 236.180246 
L 67.686315 235.190893 
L 68.070768 234.993022 
L 68.218482 234.20154 
L 68.419385 234.003669 
L 69.610933 233.607928 
L 69.778254 233.212187 
L 69.780484 233.014316 
L 69.923634 232.816446 
L 70.581044 232.618575 
L 70.935191 232.024963 
L 71.203057 231.827093 
L 71.3696 231.233481 
L 73.598476 229.452645 
L 73.665755 229.254775 
L 74.042017 228.859034 
L 74.375726 228.265422 
L 74.41148 228.067551 
L 75.54837 227.276069 
L 75.657499 227.078198 
L 76.099051 226.880328 
L 76.86925 226.682457 
L 77.106297 226.286716 
L 77.192373 225.890975 
L 77.462072 225.693104 
L 77.463146 225.495233 
L 77.998166 225.297363 
L 78.160685 225.099492 
L 78.176928 224.901622 
L 78.615841 224.703751 
L 78.981308 223.714398 
L 79.046219 223.318657 
L 79.215922 223.120786 
L 79.784479 222.922916 
L 79.824736 222.725045 
L 80.588398 221.735692 
L 81.063633 221.537821 
L 81.28271 220.94421 
L 81.287907 220.746339 
L 81.608839 220.350598 
L 82.152374 220.152727 
L 82.374304 219.559115 
L 82.824807 218.965504 
L 83.186736 218.767633 
L 83.87725 218.569762 
L 83.906741 218.371892 
L 85.319453 217.58041 
L 85.449343 217.184668 
L 86.201952 216.986798 
L 87.097317 214.612351 
L 87.482769 214.018739 
L 87.800298 213.227256 
L 87.957894 212.831515 
L 88.093305 212.435774 
L 88.271915 212.237903 
L 88.299624 212.040033 
L 88.89734 211.24855 
L 89.049409 210.852809 
L 89.156361 210.654939 
L 89.395395 210.457068 
L 89.584126 209.665586 
L 89.63674 209.071974 
L 89.971799 208.676233 
L 90.180359 208.280491 
L 90.456665 207.489009 
L 90.843484 206.895397 
L 91.053544 206.301785 
L 91.063396 206.103915 
L 91.584425 205.708174 
L 92.218697 204.718821 
L 92.225298 204.52095 
L 92.473913 204.323079 
L 93.349911 204.125209 
L 93.732048 203.333726 
L 94.217889 202.542244 
L 94.325561 201.948632 
L 94.757836 201.552891 
L 94.821544 201.35502 
L 95.074007 200.959279 
L 95.3988 199.574185 
L 95.750979 199.178444 
L 95.986043 198.584832 
L 96.463239 198.189091 
L 96.702935 197.99122 
L 96.761183 197.397609 
L 97.080412 197.199738 
L 97.377009 196.210385 
L 97.552809 196.012514 
L 97.971333 195.814644 
L 98.323234 194.62742 
L 98.461892 194.231679 
L 98.625669 193.835938 
L 99.568812 192.450844 
L 99.834832 191.659361 
L 100.412518 191.461491 
L 100.548476 191.065749 
L 100.56591 190.867879 
L 100.845291 190.274267 
L 101.012996 189.284914 
L 101.464063 188.889173 
L 101.767562 188.295561 
L 101.945208 187.701949 
L 102.082651 187.504079 
L 102.398092 187.306208 
L 102.400286 187.108337 
L 102.567525 186.910467 
L 102.711417 185.921114 
L 103.45551 183.348796 
L 103.566314 182.953055 
L 104.119283 182.161572 
L 104.139746 181.963702 
L 104.518822 181.765831 
L 104.997648 180.578608 
L 105.011496 180.380737 
L 105.425252 179.787125 
L 105.691501 179.589255 
L 105.946507 178.995643 
L 106.237056 178.402031 
L 106.240305 178.204161 
L 106.426226 177.808419 
L 106.926233 176.819066 
L 107.047964 176.225455 
L 107.062005 176.027584 
L 107.317704 175.829713 
L 107.477117 175.433972 
L 107.677443 175.038231 
L 107.717808 174.64249 
L 108.457234 173.653137 
L 108.685599 173.455266 
L 108.855176 172.663784 
L 109.064704 172.465913 
L 109.24207 171.674431 
L 109.520321 171.27869 
L 109.79646 170.487207 
L 110.282831 170.091466 
L 110.639908 169.497854 
L 110.729679 168.706372 
L 110.80092 168.310631 
L 111.031673 168.11276 
L 111.818469 165.144701 
L 112.23275 164.155348 
L 112.404439 163.759607 
L 112.568031 163.165995 
L 112.802402 162.968124 
L 113.360055 162.770254 
L 113.962169 161.38516 
L 114.208138 160.593677 
L 114.566283 160.197936 
L 114.784632 159.406454 
L 115.011587 159.208583 
L 115.628772 157.229877 
L 115.984479 156.834136 
L 116.173493 156.636265 
L 116.287099 155.646912 
L 116.506443 155.251171 
L 116.535936 155.053301 
L 116.963794 154.459689 
L 117.089588 153.866077 
L 117.350301 153.074595 
L 117.397016 152.480983 
L 117.55572 152.283112 
L 117.646386 151.887371 
L 117.866178 151.49163 
L 118.098318 150.502277 
L 118.150609 150.106536 
L 118.378237 149.908665 
L 118.479412 149.315053 
L 119.073124 148.919312 
L 119.534873 147.336347 
L 119.968033 146.346994 
L 120.131119 145.951253 
L 120.309229 144.368288 
L 120.791621 143.378935 
L 121.629924 140.410876 
L 121.653435 140.015135 
L 123.039635 137.244947 
L 123.082026 136.651335 
L 123.210435 136.255594 
L 123.333036 135.266241 
L 123.467295 134.8705 
L 123.705495 134.079017 
L 123.928336 133.881147 
L 124.108236 133.287535 
L 124.317098 132.891794 
L 124.350766 132.693923 
L 125.28206 131.506699 
L 125.932569 130.517346 
L 126.003539 129.923735 
L 126.241416 129.527993 
L 126.35127 128.934382 
L 126.638357 127.747158 
L 126.758128 127.351417 
L 126.957574 126.955676 
L 126.963897 126.757805 
L 127.223598 126.164193 
L 127.396963 125.570581 
L 127.716215 125.17484 
L 127.723721 124.97697 
L 127.905732 124.581229 
L 128.101459 123.987617 
L 128.543109 123.591876 
L 128.664576 122.602523 
L 129.221271 122.008911 
L 129.354774 121.61317 
L 129.589881 120.821687 
L 129.712771 120.228075 
L 129.834458 119.832334 
L 130.032733 119.634464 
L 130.120198 119.238722 
L 130.392578 118.645111 
L 130.543703 118.249369 
L 130.873309 117.655758 
L 131.073878 117.457887 
L 131.154146 116.864275 
L 131.409125 116.666405 
L 131.490802 116.270663 
L 131.71106 115.874922 
L 131.922089 115.28131 
L 131.976104 114.885569 
L 132.181124 114.489828 
L 132.389992 113.698346 
L 132.390261 113.500475 
L 132.79297 112.906863 
L 132.87993 112.313251 
L 133.106277 111.91751 
L 133.122286 111.521769 
L 133.315885 111.126028 
L 133.428449 110.532416 
L 133.667274 110.334545 
L 134.145091 110.136675 
L 134.309216 109.740934 
L 134.444712 108.949451 
L 134.600994 108.355839 
L 134.653064 107.960098 
L 135.029941 107.366486 
L 135.32133 107.168616 
L 135.352141 106.772875 
L 135.508553 106.377133 
L 135.629209 105.783522 
L 135.775034 105.585651 
L 135.888268 104.794169 
L 136.030586 104.398428 
L 136.076162 104.002686 
L 136.19534 103.804816 
L 136.518355 103.606945 
L 136.603222 103.211204 
L 137.050068 102.815463 
L 137.063723 102.617592 
L 137.241687 102.419722 
L 137.269575 102.221851 
L 137.536184 102.02398 
L 137.558417 101.82611 
L 137.828356 101.430369 
L 138.497989 100.045274 
L 138.650963 99.847404 
L 138.660485 99.649533 
L 139.012276 99.451663 
L 139.060547 99.055921 
L 139.590795 98.066568 
L 139.714112 97.472957 
L 140.053731 97.275086 
L 140.270631 96.285733 
L 140.551787 95.889992 
L 141.66868 94.504898 
L 141.952357 94.307027 
L 142.099021 93.713415 
L 142.161402 93.515545 
L 142.675962 92.921933 
L 142.724738 92.724062 
L 143.085692 92.526192 
L 143.11409 92.328321 
L 143.526417 92.13045 
L 144.307427 90.151744 
L 144.391348 89.558133 
L 144.544127 89.162391 
L 144.839098 88.173038 
L 145.178484 87.579427 
L 145.186274 87.381556 
L 145.926764 86.787944 
L 146.22104 86.194333 
L 146.444825 85.996462 
L 147.466755 85.600721 
L 149.163763 81.841179 
L 149.18196 81.643309 
L 149.414888 81.247568 
L 149.433764 81.049697 
L 149.889551 80.653956 
L 150.056139 80.258215 
L 150.37383 80.060344 
L 150.430914 79.862473 
L 150.898982 79.664603 
L 150.903762 79.466732 
L 151.358287 79.268862 
L 151.647535 78.477379 
L 151.970777 78.279509 
L 151.991192 78.081638 
L 152.150985 77.883767 
L 152.240113 77.290156 
L 152.517198 77.092285 
L 152.567651 76.894414 
L 152.810397 76.696544 
L 152.823805 76.498673 
L 153.166281 76.102932 
L 153.436099 75.31145 
L 153.464362 74.915708 
L 153.743217 74.717838 
L 153.788271 74.322097 
L 154.028134 73.926355 
L 154.417713 73.530614 
L 155.149911 73.332744 
L 155.821187 72.541261 
L 156.149409 71.551908 
L 156.490142 71.354038 
L 156.56373 70.958296 
L 156.971079 70.760426 
L 157.039604 69.968943 
L 157.398786 69.771073 
L 157.418409 69.573202 
L 157.611351 69.375332 
L 157.642575 69.177461 
L 158.700363 68.78172 
L 159.601033 67.792367 
L 159.723113 67.396626 
L 160.053083 66.803014 
L 160.8779 66.605143 
L 160.88167 66.407273 
L 161.214581 66.209402 
L 161.257686 65.813661 
L 161.853276 65.61579 
L 162.048252 65.41792 
L 162.07668 65.220049 
L 163.799449 64.230696 
L 163.832552 64.032826 
L 164.545856 63.637084 
L 164.960426 63.241343 
L 166.084698 62.845602 
L 166.332813 62.647731 
L 166.385922 62.449861 
L 167.071907 62.25199 
L 167.27265 61.658378 
L 167.397326 61.262637 
L 168.36095 60.866896 
L 168.599042 60.471155 
L 169.078195 60.075414 
L 169.32976 59.877543 
L 169.342875 59.679672 
L 170.123306 59.283931 
L 170.931723 59.086061 
L 171.226291 58.690319 
L 171.304154 58.492449 
L 171.548023 58.294578 
L 172.145858 58.096708 
L 172.518737 57.503096 
L 173.196832 57.305225 
L 173.332562 57.107355 
L 173.624324 56.909484 
L 174.501032 56.711613 
L 174.535321 56.513743 
L 175.485721 56.315872 
L 175.991017 55.920131 
L 176.092884 55.72226 
L 176.910793 55.52439 
L 177.289707 55.128649 
L 178.212607 54.732907 
L 178.412983 54.535037 
L 178.936086 54.139296 
L 179.247446 53.941425 
L 180.495666 53.743554 
L 180.539351 53.545684 
L 182.107721 53.149943 
L 182.214049 52.952072 
L 183.134116 52.556331 
L 184.14792 52.35846 
L 184.351344 52.16059 
L 184.886412 51.962719 
L 184.907892 51.764848 
L 185.429432 51.369107 
L 186.222371 51.171237 
L 188.345598 50.775495 
L 190.186578 49.984013 
L 190.331999 49.786143 
L 192.98356 49.192531 
L 193.853789 48.79679 
L 193.871047 48.598919 
L 194.934045 48.401048 
L 195.21043 48.203178 
L 198.814932 47.609566 
L 201.013919 47.015954 
L 201.103721 46.818084 
L 203.808443 46.620213 
L 205.695573 46.026601 
L 206.561528 45.828731 
L 206.776073 45.63086 
L 210.95166 45.235119 
L 211.053283 45.037248 
L 226.740681 44.641507 
L 249.054545 44.443636 
L 249.054545 44.443636 
" style="fill:none;stroke:#ff0000;stroke-linecap:square;"/>
   </g>
   <g id="line2d_12">
    <path clip-path="url(#pa90f99ab30)" d="M 64.761706 262.861128 
L 64.761706 23.916312 
" style="fill:none;stroke:#0000ff;stroke-dasharray:3.7,1.6;stroke-dashoffset:0;"/>
   </g>
   <g id="line2d_13">
    <path clip-path="url(#pa90f99ab30)" d="M 192.98356 262.861128 
L 192.98356 23.916312 
" style="fill:none;stroke:#0000ff;stroke-dasharray:3.7,1.6;stroke-dashoffset:0;"/>
   </g>
   <g id="line2d_14">
    <path clip-path="url(#pa90f99ab30)" d="M 125.94151 262.861128 
L 125.94151 23.916312 
" style="fill:none;stroke:#008000;stroke-linecap:square;"/>
   </g>
   <g id="line2d_15">
    <path clip-path="url(#pa90f99ab30)" d="M 58.484961 262.861128 
L 58.484961 23.916312 
" style="fill:none;stroke:#000000;stroke-linecap:square;"/>
   </g>
   <g id="patch_3">
    <path d="M 36 252 
L 36 34.56 
" style="fill:none;stroke:#000000;stroke-linecap:square;stroke-linejoin:miter;stroke-width:0.8;"/>
   </g>
   <g id="patch_4">
    <path d="M 259.2 252 
L 259.2 34.56 
" style="fill:none;stroke:#000000;stroke-linecap:square;stroke-linejoin:miter;stroke-width:0.8;"/>
   </g>
   <g id="patch_5">
    <path d="M 36 252 
L 259.2 252 
" style="fill:none;stroke:#000000;stroke-linecap:square;stroke-linejoin:miter;stroke-width:0.8;"/>
   </g>
   <g id="patch_6">
    <path d="M 36 34.56 
L 259.2 34.56 
" style="fill:none;stroke:#000000;stroke-linecap:square;stroke-linejoin:miter;stroke-width:0.8;"/>
   </g>
   <g id="text_13">
    <!--    33.8 [   28.6,    39.4] -->
    <defs>
     <path d="M 8.59375 75.984375 
L 29.296875 75.984375 
L 29.296875 69 
L 17.578125 69 
L 17.578125 -6.203125 
L 29.296875 -6.203125 
L 29.296875 -13.1875 
L 8.59375 -13.1875 
z
" id="DejaVuSans-91"/>
     <path d="M 11.71875 12.40625 
L 22.015625 12.40625 
L 22.015625 4 
L 14.015625 -11.625 
L 7.71875 -11.625 
L 11.71875 4 
z
" id="DejaVuSans-44"/>
     <path d="M 10.984375 1.515625 
L 10.984375 10.5 
Q 14.703125 8.734375 18.5 7.8125 
Q 22.3125 6.890625 25.984375 6.890625 
Q 35.75 6.890625 40.890625 13.453125 
Q 46.046875 20.015625 46.78125 33.40625 
Q 43.953125 29.203125 39.59375 26.953125 
Q 35.25 24.703125 29.984375 24.703125 
Q 19.046875 24.703125 12.671875 31.3125 
Q 6.296875 37.9375 6.296875 49.421875 
Q 6.296875 60.640625 12.9375 67.421875 
Q 19.578125 74.21875 30.609375 74.21875 
Q 43.265625 74.21875 49.921875 64.515625 
Q 56.59375 54.828125 56.59375 36.375 
Q 56.59375 19.140625 48.40625 8.859375 
Q 40.234375 -1.421875 26.421875 -1.421875 
Q 22.703125 -1.421875 18.890625 -0.6875 
Q 15.09375 0.046875 10.984375 1.515625 
z
M 30.609375 32.421875 
Q 37.25 32.421875 41.125 36.953125 
Q 45.015625 41.5 45.015625 49.421875 
Q 45.015625 57.28125 41.125 61.84375 
Q 37.25 66.40625 30.609375 66.40625 
Q 23.96875 66.40625 20.09375 61.84375 
Q 16.21875 57.28125 16.21875 49.421875 
Q 16.21875 41.5 20.09375 36.953125 
Q 23.96875 32.421875 30.609375 32.421875 
z
" id="DejaVuSans-57"/>
     <path d="M 30.421875 75.984375 
L 30.421875 -13.1875 
L 9.71875 -13.1875 
L 9.71875 -6.203125 
L 21.390625 -6.203125 
L 21.390625 69 
L 9.71875 69 
L 9.71875 75.984375 
z
" id="DejaVuSans-93"/>
    </defs>
    <g transform="translate(79.9575 28.56)scale(0.12 -0.12)">
     <use xlink:href="#DejaVuSans-32"/>
     <use x="31.787109" xlink:href="#DejaVuSans-32"/>
     <use x="63.574219" xlink:href="#DejaVuSans-32"/>
     <use x="95.361328" xlink:href="#DejaVuSans-51"/>
     <use x="158.984375" xlink:href="#DejaVuSans-51"/>
     <use x="222.607422" xlink:href="#DejaVuSans-46"/>
     <use x="254.394531" xlink:href="#DejaVuSans-56"/>
     <use x="318.017578" xlink:href="#DejaVuSans-32"/>
     <use x="349.804688" xlink:href="#DejaVuSans-91"/>
     <use x="388.818359" xlink:href="#DejaVuSans-32"/>
     <use x="420.605469" xlink:href="#DejaVuSans-32"/>
     <use x="452.392578" xlink:href="#DejaVuSans-32"/>
     <use x="484.179688" xlink:href="#DejaVuSans-50"/>
     <use x="547.802734" xlink:href="#DejaVuSans-56"/>
     <use x="611.425781" xlink:href="#DejaVuSans-46"/>
     <use x="643.212891" xlink:href="#DejaVuSans-54"/>
     <use x="706.835938" xlink:href="#DejaVuSans-44"/>
     <use x="738.623047" xlink:href="#DejaVuSans-32"/>
     <use x="770.410156" xlink:href="#DejaVuSans-32"/>
     <use x="802.197266" xlink:href="#DejaVuSans-32"/>
     <use x="833.984375" xlink:href="#DejaVuSans-32"/>
     <use x="865.771484" xlink:href="#DejaVuSans-51"/>
     <use x="929.394531" xlink:href="#DejaVuSans-57"/>
     <use x="993.017578" xlink:href="#DejaVuSans-46"/>
     <use x="1024.804688" xlink:href="#DejaVuSans-52"/>
     <use x="1088.427734" xlink:href="#DejaVuSans-93"/>
    </g>
   </g>
  </g>
 </g>
 <defs>
  <clipPath id="pa90f99ab30">
   <rect height="217.44" width="223.2" x="36" y="34.56"/>
  </clipPath>
 </defs>
</svg>
