<?xml version="1.0" encoding="utf-8" standalone="no"?>
<!DOCTYPE svg PUBLIC "-//W3C//DTD SVG 1.1//EN"
  "http://www.w3.org/Graphics/SVG/1.1/DTD/svg11.dtd">
<!-- Created with matplotlib (https://matplotlib.org/) -->
<svg height="288pt" version="1.1" viewBox="0 0 288 288" width="288pt" xmlns="http://www.w3.org/2000/svg" xmlns:xlink="http://www.w3.org/1999/xlink">
 <defs>
  <style type="text/css">
*{stroke-linecap:butt;stroke-linejoin:round;}
  </style>
 </defs>
 <g id="figure_1">
  <g id="patch_1">
   <path d="M 0 288 
L 288 288 
L 288 0 
L 0 0 
z
" style="fill:#ffffff;"/>
  </g>
  <g id="axes_1">
   <g id="patch_2">
    <path d="M 36 252 
L 259.2 252 
L 259.2 34.56 
L 36 34.56 
z
" style="fill:#ffffff;"/>
   </g>
   <g id="matplotlib.axis_1">
    <g id="xtick_1">
     <g id="line2d_1">
      <defs>
       <path d="M 0 0 
L 0 3.5 
" id="m3242d0d8d8" style="stroke:#000000;stroke-width:0.8;"/>
      </defs>
      <g>
       <use style="stroke:#000000;stroke-width:0.8;" x="85.688176" xlink:href="#m3242d0d8d8" y="252"/>
      </g>
     </g>
     <g id="text_1">
      <!-- 30 -->
      <defs>
       <path d="M 40.578125 39.3125 
Q 47.65625 37.796875 51.625 33 
Q 55.609375 28.21875 55.609375 21.1875 
Q 55.609375 10.40625 48.1875 4.484375 
Q 40.765625 -1.421875 27.09375 -1.421875 
Q 22.515625 -1.421875 17.65625 -0.515625 
Q 12.796875 0.390625 7.625 2.203125 
L 7.625 11.71875 
Q 11.71875 9.328125 16.59375 8.109375 
Q 21.484375 6.890625 26.8125 6.890625 
Q 36.078125 6.890625 40.9375 10.546875 
Q 45.796875 14.203125 45.796875 21.1875 
Q 45.796875 27.640625 41.28125 31.265625 
Q 36.765625 34.90625 28.71875 34.90625 
L 20.21875 34.90625 
L 20.21875 43.015625 
L 29.109375 43.015625 
Q 36.375 43.015625 40.234375 45.921875 
Q 44.09375 48.828125 44.09375 54.296875 
Q 44.09375 59.90625 40.109375 62.90625 
Q 36.140625 65.921875 28.71875 65.921875 
Q 24.65625 65.921875 20.015625 65.03125 
Q 15.375 64.15625 9.8125 62.3125 
L 9.8125 71.09375 
Q 15.4375 72.65625 20.34375 73.4375 
Q 25.25 74.21875 29.59375 74.21875 
Q 40.828125 74.21875 47.359375 69.109375 
Q 53.90625 64.015625 53.90625 55.328125 
Q 53.90625 49.265625 50.4375 45.09375 
Q 46.96875 40.921875 40.578125 39.3125 
z
" id="DejaVuSans-51"/>
       <path d="M 31.78125 66.40625 
Q 24.171875 66.40625 20.328125 58.90625 
Q 16.5 51.421875 16.5 36.375 
Q 16.5 21.390625 20.328125 13.890625 
Q 24.171875 6.390625 31.78125 6.390625 
Q 39.453125 6.390625 43.28125 13.890625 
Q 47.125 21.390625 47.125 36.375 
Q 47.125 51.421875 43.28125 58.90625 
Q 39.453125 66.40625 31.78125 66.40625 
z
M 31.78125 74.21875 
Q 44.046875 74.21875 50.515625 64.515625 
Q 56.984375 54.828125 56.984375 36.375 
Q 56.984375 17.96875 50.515625 8.265625 
Q 44.046875 -1.421875 31.78125 -1.421875 
Q 19.53125 -1.421875 13.0625 8.265625 
Q 6.59375 17.96875 6.59375 36.375 
Q 6.59375 54.828125 13.0625 64.515625 
Q 19.53125 74.21875 31.78125 74.21875 
z
" id="DejaVuSans-48"/>
      </defs>
      <g transform="translate(79.325676 266.598437)scale(0.1 -0.1)">
       <use xlink:href="#DejaVuSans-51"/>
       <use x="63.623047" xlink:href="#DejaVuSans-48"/>
      </g>
     </g>
    </g>
    <g id="xtick_2">
     <g id="line2d_2">
      <g>
       <use style="stroke:#000000;stroke-width:0.8;" x="147.105714" xlink:href="#m3242d0d8d8" y="252"/>
      </g>
     </g>
     <g id="text_2">
      <!-- 35 -->
      <defs>
       <path d="M 10.796875 72.90625 
L 49.515625 72.90625 
L 49.515625 64.59375 
L 19.828125 64.59375 
L 19.828125 46.734375 
Q 21.96875 47.46875 24.109375 47.828125 
Q 26.265625 48.1875 28.421875 48.1875 
Q 40.625 48.1875 47.75 41.5 
Q 54.890625 34.8125 54.890625 23.390625 
Q 54.890625 11.625 47.5625 5.09375 
Q 40.234375 -1.421875 26.90625 -1.421875 
Q 22.3125 -1.421875 17.546875 -0.640625 
Q 12.796875 0.140625 7.71875 1.703125 
L 7.71875 11.625 
Q 12.109375 9.234375 16.796875 8.0625 
Q 21.484375 6.890625 26.703125 6.890625 
Q 35.15625 6.890625 40.078125 11.328125 
Q 45.015625 15.765625 45.015625 23.390625 
Q 45.015625 31 40.078125 35.4375 
Q 35.15625 39.890625 26.703125 39.890625 
Q 22.75 39.890625 18.8125 39.015625 
Q 14.890625 38.140625 10.796875 36.28125 
z
" id="DejaVuSans-53"/>
      </defs>
      <g transform="translate(140.743214 266.598437)scale(0.1 -0.1)">
       <use xlink:href="#DejaVuSans-51"/>
       <use x="63.623047" xlink:href="#DejaVuSans-53"/>
      </g>
     </g>
    </g>
    <g id="xtick_3">
     <g id="line2d_3">
      <g>
       <use style="stroke:#000000;stroke-width:0.8;" x="208.523251" xlink:href="#m3242d0d8d8" y="252"/>
      </g>
     </g>
     <g id="text_3">
      <!-- 40 -->
      <defs>
       <path d="M 37.796875 64.3125 
L 12.890625 25.390625 
L 37.796875 25.390625 
z
M 35.203125 72.90625 
L 47.609375 72.90625 
L 47.609375 25.390625 
L 58.015625 25.390625 
L 58.015625 17.1875 
L 47.609375 17.1875 
L 47.609375 0 
L 37.796875 0 
L 37.796875 17.1875 
L 4.890625 17.1875 
L 4.890625 26.703125 
z
" id="DejaVuSans-52"/>
      </defs>
      <g transform="translate(202.160751 266.598437)scale(0.1 -0.1)">
       <use xlink:href="#DejaVuSans-52"/>
       <use x="63.623047" xlink:href="#DejaVuSans-48"/>
      </g>
     </g>
    </g>
    <g id="text_4">
     <!-- Inclinations -->
     <defs>
      <path d="M 9.8125 72.90625 
L 19.671875 72.90625 
L 19.671875 0 
L 9.8125 0 
z
" id="DejaVuSans-73"/>
      <path d="M 54.890625 33.015625 
L 54.890625 0 
L 45.90625 0 
L 45.90625 32.71875 
Q 45.90625 40.484375 42.875 44.328125 
Q 39.84375 48.1875 33.796875 48.1875 
Q 26.515625 48.1875 22.3125 43.546875 
Q 18.109375 38.921875 18.109375 30.90625 
L 18.109375 0 
L 9.078125 0 
L 9.078125 54.6875 
L 18.109375 54.6875 
L 18.109375 46.1875 
Q 21.34375 51.125 25.703125 53.5625 
Q 30.078125 56 35.796875 56 
Q 45.21875 56 50.046875 50.171875 
Q 54.890625 44.34375 54.890625 33.015625 
z
" id="DejaVuSans-110"/>
      <path d="M 48.78125 52.59375 
L 48.78125 44.1875 
Q 44.96875 46.296875 41.140625 47.34375 
Q 37.3125 48.390625 33.40625 48.390625 
Q 24.65625 48.390625 19.8125 42.84375 
Q 14.984375 37.3125 14.984375 27.296875 
Q 14.984375 17.28125 19.8125 11.734375 
Q 24.65625 6.203125 33.40625 6.203125 
Q 37.3125 6.203125 41.140625 7.25 
Q 44.96875 8.296875 48.78125 10.40625 
L 48.78125 2.09375 
Q 45.015625 0.34375 40.984375 -0.53125 
Q 36.96875 -1.421875 32.421875 -1.421875 
Q 20.0625 -1.421875 12.78125 6.34375 
Q 5.515625 14.109375 5.515625 27.296875 
Q 5.515625 40.671875 12.859375 48.328125 
Q 20.21875 56 33.015625 56 
Q 37.15625 56 41.109375 55.140625 
Q 45.0625 54.296875 48.78125 52.59375 
z
" id="DejaVuSans-99"/>
      <path d="M 9.421875 75.984375 
L 18.40625 75.984375 
L 18.40625 0 
L 9.421875 0 
z
" id="DejaVuSans-108"/>
      <path d="M 9.421875 54.6875 
L 18.40625 54.6875 
L 18.40625 0 
L 9.421875 0 
z
M 9.421875 75.984375 
L 18.40625 75.984375 
L 18.40625 64.59375 
L 9.421875 64.59375 
z
" id="DejaVuSans-105"/>
      <path d="M 34.28125 27.484375 
Q 23.390625 27.484375 19.1875 25 
Q 14.984375 22.515625 14.984375 16.5 
Q 14.984375 11.71875 18.140625 8.90625 
Q 21.296875 6.109375 26.703125 6.109375 
Q 34.1875 6.109375 38.703125 11.40625 
Q 43.21875 16.703125 43.21875 25.484375 
L 43.21875 27.484375 
z
M 52.203125 31.203125 
L 52.203125 0 
L 43.21875 0 
L 43.21875 8.296875 
Q 40.140625 3.328125 35.546875 0.953125 
Q 30.953125 -1.421875 24.3125 -1.421875 
Q 15.921875 -1.421875 10.953125 3.296875 
Q 6 8.015625 6 15.921875 
Q 6 25.140625 12.171875 29.828125 
Q 18.359375 34.515625 30.609375 34.515625 
L 43.21875 34.515625 
L 43.21875 35.40625 
Q 43.21875 41.609375 39.140625 45 
Q 35.0625 48.390625 27.6875 48.390625 
Q 23 48.390625 18.546875 47.265625 
Q 14.109375 46.140625 10.015625 43.890625 
L 10.015625 52.203125 
Q 14.9375 54.109375 19.578125 55.046875 
Q 24.21875 56 28.609375 56 
Q 40.484375 56 46.34375 49.84375 
Q 52.203125 43.703125 52.203125 31.203125 
z
" id="DejaVuSans-97"/>
      <path d="M 18.3125 70.21875 
L 18.3125 54.6875 
L 36.8125 54.6875 
L 36.8125 47.703125 
L 18.3125 47.703125 
L 18.3125 18.015625 
Q 18.3125 11.328125 20.140625 9.421875 
Q 21.96875 7.515625 27.59375 7.515625 
L 36.8125 7.515625 
L 36.8125 0 
L 27.59375 0 
Q 17.1875 0 13.234375 3.875 
Q 9.28125 7.765625 9.28125 18.015625 
L 9.28125 47.703125 
L 2.6875 47.703125 
L 2.6875 54.6875 
L 9.28125 54.6875 
L 9.28125 70.21875 
z
" id="DejaVuSans-116"/>
      <path d="M 30.609375 48.390625 
Q 23.390625 48.390625 19.1875 42.75 
Q 14.984375 37.109375 14.984375 27.296875 
Q 14.984375 17.484375 19.15625 11.84375 
Q 23.34375 6.203125 30.609375 6.203125 
Q 37.796875 6.203125 41.984375 11.859375 
Q 46.1875 17.53125 46.1875 27.296875 
Q 46.1875 37.015625 41.984375 42.703125 
Q 37.796875 48.390625 30.609375 48.390625 
z
M 30.609375 56 
Q 42.328125 56 49.015625 48.375 
Q 55.71875 40.765625 55.71875 27.296875 
Q 55.71875 13.875 49.015625 6.21875 
Q 42.328125 -1.421875 30.609375 -1.421875 
Q 18.84375 -1.421875 12.171875 6.21875 
Q 5.515625 13.875 5.515625 27.296875 
Q 5.515625 40.765625 12.171875 48.375 
Q 18.84375 56 30.609375 56 
z
" id="DejaVuSans-111"/>
      <path d="M 44.28125 53.078125 
L 44.28125 44.578125 
Q 40.484375 46.53125 36.375 47.5 
Q 32.28125 48.484375 27.875 48.484375 
Q 21.1875 48.484375 17.84375 46.4375 
Q 14.5 44.390625 14.5 40.28125 
Q 14.5 37.15625 16.890625 35.375 
Q 19.28125 33.59375 26.515625 31.984375 
L 29.59375 31.296875 
Q 39.15625 29.25 43.1875 25.515625 
Q 47.21875 21.78125 47.21875 15.09375 
Q 47.21875 7.46875 41.1875 3.015625 
Q 35.15625 -1.421875 24.609375 -1.421875 
Q 20.21875 -1.421875 15.453125 -0.5625 
Q 10.6875 0.296875 5.421875 2 
L 5.421875 11.28125 
Q 10.40625 8.6875 15.234375 7.390625 
Q 20.0625 6.109375 24.8125 6.109375 
Q 31.15625 6.109375 34.5625 8.28125 
Q 37.984375 10.453125 37.984375 14.40625 
Q 37.984375 18.0625 35.515625 20.015625 
Q 33.0625 21.96875 24.703125 23.78125 
L 21.578125 24.515625 
Q 13.234375 26.265625 9.515625 29.90625 
Q 5.8125 33.546875 5.8125 39.890625 
Q 5.8125 47.609375 11.28125 51.796875 
Q 16.75 56 26.8125 56 
Q 31.78125 56 36.171875 55.265625 
Q 40.578125 54.546875 44.28125 53.078125 
z
" id="DejaVuSans-115"/>
     </defs>
     <g transform="translate(119.014062 280.276563)scale(0.1 -0.1)">
      <use xlink:href="#DejaVuSans-73"/>
      <use x="29.492188" xlink:href="#DejaVuSans-110"/>
      <use x="92.871094" xlink:href="#DejaVuSans-99"/>
      <use x="147.851562" xlink:href="#DejaVuSans-108"/>
      <use x="175.634766" xlink:href="#DejaVuSans-105"/>
      <use x="203.417969" xlink:href="#DejaVuSans-110"/>
      <use x="266.796875" xlink:href="#DejaVuSans-97"/>
      <use x="328.076172" xlink:href="#DejaVuSans-116"/>
      <use x="367.285156" xlink:href="#DejaVuSans-105"/>
      <use x="395.068359" xlink:href="#DejaVuSans-111"/>
      <use x="456.25" xlink:href="#DejaVuSans-110"/>
      <use x="519.628906" xlink:href="#DejaVuSans-115"/>
     </g>
    </g>
   </g>
   <g id="matplotlib.axis_2">
    <g id="ytick_1">
     <g id="line2d_4">
      <defs>
       <path d="M 0 0 
L -3.5 0 
" id="m621e1a29e7" style="stroke:#000000;stroke-width:0.8;"/>
      </defs>
      <g>
       <use style="stroke:#000000;stroke-width:0.8;" x="36" xlink:href="#m621e1a29e7" y="242.116364"/>
      </g>
     </g>
     <g id="text_5">
      <!-- 0.0 -->
      <defs>
       <path d="M 10.6875 12.40625 
L 21 12.40625 
L 21 0 
L 10.6875 0 
z
" id="DejaVuSans-46"/>
      </defs>
      <g transform="translate(13.096875 245.915582)scale(0.1 -0.1)">
       <use xlink:href="#DejaVuSans-48"/>
       <use x="63.623047" xlink:href="#DejaVuSans-46"/>
       <use x="95.410156" xlink:href="#DejaVuSans-48"/>
      </g>
     </g>
    </g>
    <g id="ytick_2">
     <g id="line2d_5">
      <g>
       <use style="stroke:#000000;stroke-width:0.8;" x="36" xlink:href="#m621e1a29e7" y="202.542244"/>
      </g>
     </g>
     <g id="text_6">
      <!-- 0.2 -->
      <defs>
       <path d="M 19.1875 8.296875 
L 53.609375 8.296875 
L 53.609375 0 
L 7.328125 0 
L 7.328125 8.296875 
Q 12.9375 14.109375 22.625 23.890625 
Q 32.328125 33.6875 34.8125 36.53125 
Q 39.546875 41.84375 41.421875 45.53125 
Q 43.3125 49.21875 43.3125 52.78125 
Q 43.3125 58.59375 39.234375 62.25 
Q 35.15625 65.921875 28.609375 65.921875 
Q 23.96875 65.921875 18.8125 64.3125 
Q 13.671875 62.703125 7.8125 59.421875 
L 7.8125 69.390625 
Q 13.765625 71.78125 18.9375 73 
Q 24.125 74.21875 28.421875 74.21875 
Q 39.75 74.21875 46.484375 68.546875 
Q 53.21875 62.890625 53.21875 53.421875 
Q 53.21875 48.921875 51.53125 44.890625 
Q 49.859375 40.875 45.40625 35.40625 
Q 44.1875 33.984375 37.640625 27.21875 
Q 31.109375 20.453125 19.1875 8.296875 
z
" id="DejaVuSans-50"/>
      </defs>
      <g transform="translate(13.096875 206.341463)scale(0.1 -0.1)">
       <use xlink:href="#DejaVuSans-48"/>
       <use x="63.623047" xlink:href="#DejaVuSans-46"/>
       <use x="95.410156" xlink:href="#DejaVuSans-50"/>
      </g>
     </g>
    </g>
    <g id="ytick_3">
     <g id="line2d_6">
      <g>
       <use style="stroke:#000000;stroke-width:0.8;" x="36" xlink:href="#m621e1a29e7" y="162.968124"/>
      </g>
     </g>
     <g id="text_7">
      <!-- 0.4 -->
      <g transform="translate(13.096875 166.767343)scale(0.1 -0.1)">
       <use xlink:href="#DejaVuSans-48"/>
       <use x="63.623047" xlink:href="#DejaVuSans-46"/>
       <use x="95.410156" xlink:href="#DejaVuSans-52"/>
      </g>
     </g>
    </g>
    <g id="ytick_4">
     <g id="line2d_7">
      <g>
       <use style="stroke:#000000;stroke-width:0.8;" x="36" xlink:href="#m621e1a29e7" y="123.394005"/>
      </g>
     </g>
     <g id="text_8">
      <!-- 0.6 -->
      <defs>
       <path d="M 33.015625 40.375 
Q 26.375 40.375 22.484375 35.828125 
Q 18.609375 31.296875 18.609375 23.390625 
Q 18.609375 15.53125 22.484375 10.953125 
Q 26.375 6.390625 33.015625 6.390625 
Q 39.65625 6.390625 43.53125 10.953125 
Q 47.40625 15.53125 47.40625 23.390625 
Q 47.40625 31.296875 43.53125 35.828125 
Q 39.65625 40.375 33.015625 40.375 
z
M 52.59375 71.296875 
L 52.59375 62.3125 
Q 48.875 64.0625 45.09375 64.984375 
Q 41.3125 65.921875 37.59375 65.921875 
Q 27.828125 65.921875 22.671875 59.328125 
Q 17.53125 52.734375 16.796875 39.40625 
Q 19.671875 43.65625 24.015625 45.921875 
Q 28.375 48.1875 33.59375 48.1875 
Q 44.578125 48.1875 50.953125 41.515625 
Q 57.328125 34.859375 57.328125 23.390625 
Q 57.328125 12.15625 50.6875 5.359375 
Q 44.046875 -1.421875 33.015625 -1.421875 
Q 20.359375 -1.421875 13.671875 8.265625 
Q 6.984375 17.96875 6.984375 36.375 
Q 6.984375 53.65625 15.1875 63.9375 
Q 23.390625 74.21875 37.203125 74.21875 
Q 40.921875 74.21875 44.703125 73.484375 
Q 48.484375 72.75 52.59375 71.296875 
z
" id="DejaVuSans-54"/>
      </defs>
      <g transform="translate(13.096875 127.193224)scale(0.1 -0.1)">
       <use xlink:href="#DejaVuSans-48"/>
       <use x="63.623047" xlink:href="#DejaVuSans-46"/>
       <use x="95.410156" xlink:href="#DejaVuSans-54"/>
      </g>
     </g>
    </g>
    <g id="ytick_5">
     <g id="line2d_8">
      <g>
       <use style="stroke:#000000;stroke-width:0.8;" x="36" xlink:href="#m621e1a29e7" y="83.819885"/>
      </g>
     </g>
     <g id="text_9">
      <!-- 0.8 -->
      <defs>
       <path d="M 31.78125 34.625 
Q 24.75 34.625 20.71875 30.859375 
Q 16.703125 27.09375 16.703125 20.515625 
Q 16.703125 13.921875 20.71875 10.15625 
Q 24.75 6.390625 31.78125 6.390625 
Q 38.8125 6.390625 42.859375 10.171875 
Q 46.921875 13.96875 46.921875 20.515625 
Q 46.921875 27.09375 42.890625 30.859375 
Q 38.875 34.625 31.78125 34.625 
z
M 21.921875 38.8125 
Q 15.578125 40.375 12.03125 44.71875 
Q 8.5 49.078125 8.5 55.328125 
Q 8.5 64.0625 14.71875 69.140625 
Q 20.953125 74.21875 31.78125 74.21875 
Q 42.671875 74.21875 48.875 69.140625 
Q 55.078125 64.0625 55.078125 55.328125 
Q 55.078125 49.078125 51.53125 44.71875 
Q 48 40.375 41.703125 38.8125 
Q 48.828125 37.15625 52.796875 32.3125 
Q 56.78125 27.484375 56.78125 20.515625 
Q 56.78125 9.90625 50.3125 4.234375 
Q 43.84375 -1.421875 31.78125 -1.421875 
Q 19.734375 -1.421875 13.25 4.234375 
Q 6.78125 9.90625 6.78125 20.515625 
Q 6.78125 27.484375 10.78125 32.3125 
Q 14.796875 37.15625 21.921875 38.8125 
z
M 18.3125 54.390625 
Q 18.3125 48.734375 21.84375 45.5625 
Q 25.390625 42.390625 31.78125 42.390625 
Q 38.140625 42.390625 41.71875 45.5625 
Q 45.3125 48.734375 45.3125 54.390625 
Q 45.3125 60.0625 41.71875 63.234375 
Q 38.140625 66.40625 31.78125 66.40625 
Q 25.390625 66.40625 21.84375 63.234375 
Q 18.3125 60.0625 18.3125 54.390625 
z
" id="DejaVuSans-56"/>
      </defs>
      <g transform="translate(13.096875 87.619104)scale(0.1 -0.1)">
       <use xlink:href="#DejaVuSans-48"/>
       <use x="63.623047" xlink:href="#DejaVuSans-46"/>
       <use x="95.410156" xlink:href="#DejaVuSans-56"/>
      </g>
     </g>
    </g>
    <g id="ytick_6">
     <g id="line2d_9">
      <g>
       <use style="stroke:#000000;stroke-width:0.8;" x="36" xlink:href="#m621e1a29e7" y="44.245766"/>
      </g>
     </g>
     <g id="text_10">
      <!-- 1.0 -->
      <defs>
       <path d="M 12.40625 8.296875 
L 28.515625 8.296875 
L 28.515625 63.921875 
L 10.984375 60.40625 
L 10.984375 69.390625 
L 28.421875 72.90625 
L 38.28125 72.90625 
L 38.28125 8.296875 
L 54.390625 8.296875 
L 54.390625 0 
L 12.40625 0 
z
" id="DejaVuSans-49"/>
      </defs>
      <g transform="translate(13.096875 48.044985)scale(0.1 -0.1)">
       <use xlink:href="#DejaVuSans-49"/>
       <use x="63.623047" xlink:href="#DejaVuSans-46"/>
       <use x="95.410156" xlink:href="#DejaVuSans-48"/>
      </g>
     </g>
    </g>
    <g id="text_11">
     <!-- Cumulative Distribution -->
     <defs>
      <path d="M 64.40625 67.28125 
L 64.40625 56.890625 
Q 59.421875 61.53125 53.78125 63.8125 
Q 48.140625 66.109375 41.796875 66.109375 
Q 29.296875 66.109375 22.65625 58.46875 
Q 16.015625 50.828125 16.015625 36.375 
Q 16.015625 21.96875 22.65625 14.328125 
Q 29.296875 6.6875 41.796875 6.6875 
Q 48.140625 6.6875 53.78125 8.984375 
Q 59.421875 11.28125 64.40625 15.921875 
L 64.40625 5.609375 
Q 59.234375 2.09375 53.4375 0.328125 
Q 47.65625 -1.421875 41.21875 -1.421875 
Q 24.65625 -1.421875 15.125 8.703125 
Q 5.609375 18.84375 5.609375 36.375 
Q 5.609375 53.953125 15.125 64.078125 
Q 24.65625 74.21875 41.21875 74.21875 
Q 47.75 74.21875 53.53125 72.484375 
Q 59.328125 70.75 64.40625 67.28125 
z
" id="DejaVuSans-67"/>
      <path d="M 8.5 21.578125 
L 8.5 54.6875 
L 17.484375 54.6875 
L 17.484375 21.921875 
Q 17.484375 14.15625 20.5 10.265625 
Q 23.53125 6.390625 29.59375 6.390625 
Q 36.859375 6.390625 41.078125 11.03125 
Q 45.3125 15.671875 45.3125 23.6875 
L 45.3125 54.6875 
L 54.296875 54.6875 
L 54.296875 0 
L 45.3125 0 
L 45.3125 8.40625 
Q 42.046875 3.421875 37.71875 1 
Q 33.40625 -1.421875 27.6875 -1.421875 
Q 18.265625 -1.421875 13.375 4.4375 
Q 8.5 10.296875 8.5 21.578125 
z
M 31.109375 56 
z
" id="DejaVuSans-117"/>
      <path d="M 52 44.1875 
Q 55.375 50.25 60.0625 53.125 
Q 64.75 56 71.09375 56 
Q 79.640625 56 84.28125 50.015625 
Q 88.921875 44.046875 88.921875 33.015625 
L 88.921875 0 
L 79.890625 0 
L 79.890625 32.71875 
Q 79.890625 40.578125 77.09375 44.375 
Q 74.3125 48.1875 68.609375 48.1875 
Q 61.625 48.1875 57.5625 43.546875 
Q 53.515625 38.921875 53.515625 30.90625 
L 53.515625 0 
L 44.484375 0 
L 44.484375 32.71875 
Q 44.484375 40.625 41.703125 44.40625 
Q 38.921875 48.1875 33.109375 48.1875 
Q 26.21875 48.1875 22.15625 43.53125 
Q 18.109375 38.875 18.109375 30.90625 
L 18.109375 0 
L 9.078125 0 
L 9.078125 54.6875 
L 18.109375 54.6875 
L 18.109375 46.1875 
Q 21.1875 51.21875 25.484375 53.609375 
Q 29.78125 56 35.6875 56 
Q 41.65625 56 45.828125 52.96875 
Q 50 49.953125 52 44.1875 
z
" id="DejaVuSans-109"/>
      <path d="M 2.984375 54.6875 
L 12.5 54.6875 
L 29.59375 8.796875 
L 46.6875 54.6875 
L 56.203125 54.6875 
L 35.6875 0 
L 23.484375 0 
z
" id="DejaVuSans-118"/>
      <path d="M 56.203125 29.59375 
L 56.203125 25.203125 
L 14.890625 25.203125 
Q 15.484375 15.921875 20.484375 11.0625 
Q 25.484375 6.203125 34.421875 6.203125 
Q 39.59375 6.203125 44.453125 7.46875 
Q 49.3125 8.734375 54.109375 11.28125 
L 54.109375 2.78125 
Q 49.265625 0.734375 44.1875 -0.34375 
Q 39.109375 -1.421875 33.890625 -1.421875 
Q 20.796875 -1.421875 13.15625 6.1875 
Q 5.515625 13.8125 5.515625 26.8125 
Q 5.515625 40.234375 12.765625 48.109375 
Q 20.015625 56 32.328125 56 
Q 43.359375 56 49.78125 48.890625 
Q 56.203125 41.796875 56.203125 29.59375 
z
M 47.21875 32.234375 
Q 47.125 39.59375 43.09375 43.984375 
Q 39.0625 48.390625 32.421875 48.390625 
Q 24.90625 48.390625 20.390625 44.140625 
Q 15.875 39.890625 15.1875 32.171875 
z
" id="DejaVuSans-101"/>
      <path id="DejaVuSans-32"/>
      <path d="M 19.671875 64.796875 
L 19.671875 8.109375 
L 31.59375 8.109375 
Q 46.6875 8.109375 53.6875 14.9375 
Q 60.6875 21.78125 60.6875 36.53125 
Q 60.6875 51.171875 53.6875 57.984375 
Q 46.6875 64.796875 31.59375 64.796875 
z
M 9.8125 72.90625 
L 30.078125 72.90625 
Q 51.265625 72.90625 61.171875 64.09375 
Q 71.09375 55.28125 71.09375 36.53125 
Q 71.09375 17.671875 61.125 8.828125 
Q 51.171875 0 30.078125 0 
L 9.8125 0 
z
" id="DejaVuSans-68"/>
      <path d="M 41.109375 46.296875 
Q 39.59375 47.171875 37.8125 47.578125 
Q 36.03125 48 33.890625 48 
Q 26.265625 48 22.1875 43.046875 
Q 18.109375 38.09375 18.109375 28.8125 
L 18.109375 0 
L 9.078125 0 
L 9.078125 54.6875 
L 18.109375 54.6875 
L 18.109375 46.1875 
Q 20.953125 51.171875 25.484375 53.578125 
Q 30.03125 56 36.53125 56 
Q 37.453125 56 38.578125 55.875 
Q 39.703125 55.765625 41.0625 55.515625 
z
" id="DejaVuSans-114"/>
      <path d="M 48.6875 27.296875 
Q 48.6875 37.203125 44.609375 42.84375 
Q 40.53125 48.484375 33.40625 48.484375 
Q 26.265625 48.484375 22.1875 42.84375 
Q 18.109375 37.203125 18.109375 27.296875 
Q 18.109375 17.390625 22.1875 11.75 
Q 26.265625 6.109375 33.40625 6.109375 
Q 40.53125 6.109375 44.609375 11.75 
Q 48.6875 17.390625 48.6875 27.296875 
z
M 18.109375 46.390625 
Q 20.953125 51.265625 25.265625 53.625 
Q 29.59375 56 35.59375 56 
Q 45.5625 56 51.78125 48.09375 
Q 58.015625 40.1875 58.015625 27.296875 
Q 58.015625 14.40625 51.78125 6.484375 
Q 45.5625 -1.421875 35.59375 -1.421875 
Q 29.59375 -1.421875 25.265625 0.953125 
Q 20.953125 3.328125 18.109375 8.203125 
L 18.109375 0 
L 9.078125 0 
L 9.078125 75.984375 
L 18.109375 75.984375 
z
" id="DejaVuSans-98"/>
     </defs>
     <g transform="translate(7.017187 202.575312)rotate(-90)scale(0.1 -0.1)">
      <use xlink:href="#DejaVuSans-67"/>
      <use x="69.824219" xlink:href="#DejaVuSans-117"/>
      <use x="133.203125" xlink:href="#DejaVuSans-109"/>
      <use x="230.615234" xlink:href="#DejaVuSans-117"/>
      <use x="293.994141" xlink:href="#DejaVuSans-108"/>
      <use x="321.777344" xlink:href="#DejaVuSans-97"/>
      <use x="383.056641" xlink:href="#DejaVuSans-116"/>
      <use x="422.265625" xlink:href="#DejaVuSans-105"/>
      <use x="450.048828" xlink:href="#DejaVuSans-118"/>
      <use x="509.228516" xlink:href="#DejaVuSans-101"/>
      <use x="570.751953" xlink:href="#DejaVuSans-32"/>
      <use x="602.539062" xlink:href="#DejaVuSans-68"/>
      <use x="679.541016" xlink:href="#DejaVuSans-105"/>
      <use x="707.324219" xlink:href="#DejaVuSans-115"/>
      <use x="759.423828" xlink:href="#DejaVuSans-116"/>
      <use x="798.632812" xlink:href="#DejaVuSans-114"/>
      <use x="839.746094" xlink:href="#DejaVuSans-105"/>
      <use x="867.529297" xlink:href="#DejaVuSans-98"/>
      <use x="931.005859" xlink:href="#DejaVuSans-117"/>
      <use x="994.384766" xlink:href="#DejaVuSans-116"/>
      <use x="1033.59375" xlink:href="#DejaVuSans-105"/>
      <use x="1061.376953" xlink:href="#DejaVuSans-111"/>
      <use x="1122.558594" xlink:href="#DejaVuSans-110"/>
     </g>
    </g>
   </g>
   <g id="line2d_10">
    <path clip-path="url(#p8ad962108e)" d="M 46.145455 242.116364 
L 51.280339 241.918493 
L 52.657642 241.720622 
L 53.704818 241.324881 
L 56.53647 241.127011 
L 57.50598 240.92914 
L 62.98534 240.533399 
L 63.876553 240.335528 
L 65.509339 240.137658 
L 66.189253 239.939787 
L 66.222744 239.741916 
L 66.64766 239.544046 
L 67.55607 239.346175 
L 67.890947 239.148305 
L 69.855052 238.554693 
L 70.095954 238.356822 
L 70.237095 237.961081 
L 71.968274 237.56534 
L 72.519743 236.971728 
L 73.928527 236.575987 
L 74.020183 236.180246 
L 74.117861 235.982375 
L 76.527234 235.784505 
L 77.473715 235.388763 
L 77.947859 234.795152 
L 78.427817 234.20154 
L 79.846374 232.816446 
L 80.593363 232.222834 
L 80.642963 232.024963 
L 80.827769 231.827093 
L 81.281869 231.629222 
L 81.293208 231.431351 
L 81.917969 231.233481 
L 82.109211 230.83774 
L 82.492283 230.639869 
L 82.571537 230.441998 
L 82.895782 230.244128 
L 82.993601 230.046257 
L 84.005858 229.650516 
L 84.044533 229.452645 
L 84.681501 229.254775 
L 84.78807 228.859034 
L 84.99572 228.463292 
L 86.16849 228.067551 
L 86.182109 227.869681 
L 86.990594 227.67181 
L 87.434419 227.276069 
L 87.439467 227.078198 
L 88.155555 226.484586 
L 88.164485 226.286716 
L 88.521139 225.890975 
L 89.277033 225.495233 
L 89.365644 225.099492 
L 89.636472 224.901622 
L 89.746452 224.110139 
L 90.100508 223.912269 
L 90.135215 223.714398 
L 90.908062 223.318657 
L 90.922325 223.120786 
L 91.836149 221.735692 
L 92.059701 220.746339 
L 92.242224 220.350598 
L 93.005199 219.756986 
L 93.512978 218.767633 
L 93.77761 218.569762 
L 93.796466 218.371892 
L 94.294528 217.77828 
L 94.597843 216.986798 
L 94.859028 216.591057 
L 95.335668 215.799574 
L 95.3562 215.601704 
L 95.719489 215.205962 
L 95.823055 215.008092 
L 96.224076 214.612351 
L 96.544856 213.820868 
L 96.595527 213.622998 
L 96.899759 213.227256 
L 97.03815 213.029386 
L 97.511476 212.831515 
L 97.710528 212.435774 
L 98.574991 210.259197 
L 98.829264 209.863456 
L 98.868753 209.665586 
L 99.509404 208.676233 
L 99.526257 208.478362 
L 100.111105 208.082621 
L 100.374443 207.68688 
L 100.420371 207.291138 
L 100.776287 206.895397 
L 100.928078 206.499656 
L 100.972833 206.103915 
L 101.340715 205.906044 
L 101.737961 204.718821 
L 101.978936 203.927338 
L 102.383589 203.333726 
L 102.486578 202.740115 
L 103.297622 202.146503 
L 103.399585 201.552891 
L 103.573533 200.761409 
L 103.890271 200.167797 
L 104.07923 199.969926 
L 104.109788 199.772056 
L 104.504384 199.178444 
L 104.625927 198.782703 
L 104.69303 198.386962 
L 104.957325 197.99122 
L 104.988968 197.595479 
L 105.136024 197.001867 
L 105.258914 196.606126 
L 105.558464 196.408256 
L 105.590486 196.012514 
L 106.037422 195.418903 
L 106.308558 194.825291 
L 106.42464 194.42955 
L 106.860946 194.231679 
L 106.889921 194.033808 
L 107.592817 193.638067 
L 108.250531 192.055102 
L 108.335591 191.461491 
L 108.655075 191.26362 
L 108.69693 190.867879 
L 108.970352 190.472138 
L 109.19506 189.482785 
L 109.484061 189.284914 
L 109.79816 188.295561 
L 109.828625 188.09769 
L 110.016279 187.89982 
L 110.03917 187.701949 
L 110.515429 187.306208 
L 110.73812 186.712596 
L 110.789555 186.316855 
L 111.945667 183.744537 
L 112.205525 182.557314 
L 112.333011 182.161572 
L 112.761733 180.380737 
L 112.93533 180.182867 
L 113.001093 179.589255 
L 113.068766 179.391384 
L 113.268792 179.193514 
L 113.385632 178.797772 
L 113.732504 177.214808 
L 114.007577 176.423325 
L 114.111975 175.433972 
L 114.256552 175.038231 
L 114.391496 174.246749 
L 114.520516 173.653137 
L 114.571995 173.455266 
L 114.851097 173.257396 
L 114.896025 173.059525 
L 115.065028 172.861654 
L 115.073296 172.663784 
L 115.261539 172.268043 
L 115.667129 171.27869 
L 116.034388 171.080819 
L 116.172839 170.685078 
L 116.828113 169.102113 
L 117.208966 168.904242 
L 117.226208 168.706372 
L 118.123128 167.519148 
L 118.321901 167.321278 
L 118.350039 167.123407 
L 118.752559 166.529795 
L 118.79199 166.331925 
L 119.07379 165.936183 
L 119.407138 164.74896 
L 119.657387 164.353219 
L 119.753829 163.957477 
L 120.036188 163.759607 
L 120.059368 163.561736 
L 120.477123 162.770254 
L 120.70408 162.176642 
L 121.189763 161.58303 
L 121.385888 160.197936 
L 121.659494 160.000066 
L 121.897632 159.406454 
L 122.181098 159.208583 
L 122.382955 158.812842 
L 122.717424 158.417101 
L 123.285896 157.625618 
L 123.349608 157.229877 
L 123.828198 156.240524 
L 124.047125 155.251171 
L 124.21043 155.053301 
L 124.270344 154.459689 
L 124.601436 154.261818 
L 124.767147 153.668206 
L 125.167445 153.074595 
L 125.316225 151.887371 
L 125.722944 151.49163 
L 125.877642 150.502277 
L 126.269808 149.908665 
L 126.399934 149.512924 
L 126.607742 149.315053 
L 126.702014 148.523571 
L 126.968657 147.929959 
L 127.121125 147.534218 
L 127.39943 147.336347 
L 127.410904 147.138477 
L 127.698655 146.742735 
L 127.920633 145.555512 
L 128.521418 144.170418 
L 128.561581 143.972547 
L 128.766721 143.774676 
L 128.869123 143.378935 
L 129.071971 142.983194 
L 129.141095 142.587453 
L 129.51369 141.5981 
L 129.88616 141.202359 
L 129.952673 141.004488 
L 130.171155 140.806618 
L 130.274204 140.015135 
L 130.401899 139.619394 
L 130.539452 139.223653 
L 130.659331 138.827912 
L 130.669133 138.630041 
L 130.826582 138.2343 
L 131.154657 137.640688 
L 131.178457 137.442817 
L 131.425112 137.244947 
L 131.450529 137.047076 
L 131.735138 136.849206 
L 131.7756 136.453464 
L 132.33206 135.464111 
L 132.499517 134.276888 
L 132.6216 133.881147 
L 132.622337 133.683276 
L 132.94659 133.485405 
L 133.300219 132.298182 
L 133.415418 131.70457 
L 133.580256 131.308829 
L 133.758004 130.913088 
L 134.287477 130.319476 
L 134.436328 129.527993 
L 135.192276 127.945029 
L 135.661174 127.153546 
L 135.958297 126.559934 
L 136.093128 126.164193 
L 136.241241 125.372711 
L 136.511202 124.97697 
L 137.335051 122.602523 
L 137.603052 121.61317 
L 137.879201 121.415299 
L 137.986732 121.019558 
L 138.165974 120.228075 
L 138.367151 119.832334 
L 138.439177 119.238722 
L 138.503568 119.040852 
L 138.713092 118.842981 
L 138.807692 118.44724 
L 139.286991 117.457887 
L 139.616904 117.062146 
L 139.79778 116.270663 
L 140.395426 115.874922 
L 140.594331 115.479181 
L 140.721945 114.489828 
L 141.291578 113.302604 
L 141.321911 113.104734 
L 142.042677 112.115381 
L 142.478366 111.91751 
L 142.496508 111.71964 
L 142.732377 111.521769 
L 142.869706 110.730287 
L 143.074672 109.740934 
L 143.431096 108.949451 
L 143.432473 108.751581 
L 143.754783 108.355839 
L 143.875202 107.960098 
L 143.970529 107.564357 
L 144.632342 105.783522 
L 144.643463 105.585651 
L 145.191355 104.992039 
L 145.777636 104.794169 
L 146.095694 103.804816 
L 146.561943 102.617592 
L 146.934471 102.221851 
L 146.942624 102.02398 
L 147.518566 101.82611 
L 147.640333 101.430369 
L 147.849314 101.034627 
L 148.487496 100.045274 
L 148.595659 99.649533 
L 148.862474 99.253792 
L 148.994285 99.055921 
L 149.487006 98.858051 
L 149.488652 98.66018 
L 149.623824 98.264439 
L 149.884658 97.472957 
L 150.242745 97.077215 
L 150.74738 96.483604 
L 150.836132 96.087862 
L 151.137159 95.692121 
L 151.621547 94.504898 
L 151.746131 94.109156 
L 152.163191 92.921933 
L 152.333634 92.724062 
L 152.352448 92.526192 
L 152.699347 92.13045 
L 152.827831 91.734709 
L 152.949295 91.141097 
L 153.273586 90.943227 
L 153.276633 90.745356 
L 153.881532 90.349615 
L 153.949619 90.151744 
L 154.34285 89.756003 
L 154.47781 88.964521 
L 154.62003 88.56878 
L 154.642817 88.370909 
L 155.128656 87.975168 
L 155.403177 87.381556 
L 156.327998 86.787944 
L 156.466764 86.392203 
L 156.962453 85.798591 
L 157.180069 85.40285 
L 157.460002 85.20498 
L 157.664366 83.622015 
L 157.912961 83.226274 
L 157.958239 83.028403 
L 158.22474 82.830532 
L 158.331025 82.434791 
L 158.743018 82.236921 
L 158.775068 82.03905 
L 159.028508 81.841179 
L 159.601311 81.643309 
L 159.858332 81.049697 
L 160.852971 80.456085 
L 160.856953 80.258215 
L 161.20979 80.060344 
L 161.259935 79.664603 
L 161.391756 79.466732 
L 161.999668 79.070991 
L 162.214356 78.67525 
L 162.697255 78.279509 
L 162.74061 77.883767 
L 163.032132 77.488026 
L 163.503427 77.290156 
L 163.918668 76.498673 
L 164.048807 76.102932 
L 164.991289 75.50932 
L 165.521958 75.31145 
L 165.727011 74.717838 
L 165.735595 74.519967 
L 166.547099 74.322097 
L 166.73577 74.124226 
L 166.751873 73.926355 
L 166.957951 73.530614 
L 167.810511 73.332744 
L 167.894556 72.937002 
L 168.486861 72.343391 
L 168.740953 71.551908 
L 169.139618 71.354038 
L 170.224148 70.958296 
L 171.443235 69.573202 
L 171.526419 69.375332 
L 171.747963 69.177461 
L 171.762087 68.78172 
L 172.598167 68.583849 
L 172.636633 68.188108 
L 173.187442 67.396626 
L 173.291529 67.198755 
L 174.302858 66.605143 
L 174.695643 66.011532 
L 175.269808 65.61579 
L 175.572372 65.220049 
L 176.214241 65.022179 
L 176.299983 64.824308 
L 177.352184 63.834955 
L 177.642034 63.241343 
L 178.279536 62.647731 
L 178.523299 62.449861 
L 179.109406 62.25199 
L 179.212487 62.05412 
L 180.403221 61.262637 
L 180.566974 61.064767 
L 181.778377 60.471155 
L 182.042835 60.273284 
L 183.022902 60.075414 
L 183.454418 59.086061 
L 183.935622 58.88819 
L 183.949463 58.690319 
L 184.677246 58.492449 
L 184.929186 58.096708 
L 185.165484 57.700966 
L 185.340089 57.305225 
L 186.684372 57.107355 
L 186.696557 56.909484 
L 186.938164 56.711613 
L 187.032024 56.315872 
L 187.369912 55.920131 
L 187.720024 55.52439 
L 188.270367 55.326519 
L 188.482846 55.128649 
L 188.869035 54.930778 
L 190.452832 54.732907 
L 190.696246 54.535037 
L 191.504243 54.139296 
L 191.950392 53.545684 
L 192.813309 53.149943 
L 193.746854 52.952072 
L 194.028356 52.556331 
L 194.846282 52.35846 
L 195.075881 52.16059 
L 195.612456 51.962719 
L 195.646338 51.764848 
L 196.323621 51.566978 
L 197.089558 50.775495 
L 197.975611 50.379754 
L 199.654881 50.181884 
L 199.962448 49.984013 
L 200.187734 49.588272 
L 201.134522 48.99466 
L 202.270544 48.79679 
L 202.271778 48.598919 
L 202.751238 48.401048 
L 202.989556 48.005307 
L 203.093481 47.807437 
L 205.910589 47.411695 
L 211.831021 46.818084 
L 213.568014 46.422342 
L 217.374567 46.224472 
L 217.80524 46.026601 
L 217.96351 45.828731 
L 222.992931 45.235119 
L 238.79086 44.839378 
L 239.301797 44.641507 
L 249.054545 44.443636 
L 249.054545 44.443636 
" style="fill:none;stroke:#ff0000;stroke-linecap:square;"/>
   </g>
   <g id="line2d_11">
    <path clip-path="url(#p8ad962108e)" d="M 72.27203 262.861128 
L 72.27203 23.916312 
" style="fill:none;stroke:#0000ff;stroke-dasharray:3.7,1.6;stroke-dashoffset:0;"/>
   </g>
   <g id="line2d_12">
    <path clip-path="url(#p8ad962108e)" d="M 200.669629 262.861128 
L 200.669629 23.916312 
" style="fill:none;stroke:#0000ff;stroke-dasharray:3.7,1.6;stroke-dashoffset:0;"/>
   </g>
   <g id="line2d_13">
    <path clip-path="url(#p8ad962108e)" d="M 132.288288 262.861128 
L 132.288288 23.916312 
" style="fill:none;stroke:#008000;stroke-linecap:square;"/>
   </g>
   <g id="line2d_14">
    <path clip-path="url(#p8ad962108e)" d="M 62.495687 262.861128 
L 62.495687 23.916312 
" style="fill:none;stroke:#000000;stroke-linecap:square;"/>
   </g>
   <g id="patch_3">
    <path d="M 36 252 
L 36 34.56 
" style="fill:none;stroke:#000000;stroke-linecap:square;stroke-linejoin:miter;stroke-width:0.8;"/>
   </g>
   <g id="patch_4">
    <path d="M 259.2 252 
L 259.2 34.56 
" style="fill:none;stroke:#000000;stroke-linecap:square;stroke-linejoin:miter;stroke-width:0.8;"/>
   </g>
   <g id="patch_5">
    <path d="M 36 252 
L 259.2 252 
" style="fill:none;stroke:#000000;stroke-linecap:square;stroke-linejoin:miter;stroke-width:0.8;"/>
   </g>
   <g id="patch_6">
    <path d="M 36 34.56 
L 259.2 34.56 
" style="fill:none;stroke:#000000;stroke-linecap:square;stroke-linejoin:miter;stroke-width:0.8;"/>
   </g>
   <g id="text_12">
    <!--    33.8 [   28.9,    39.4] -->
    <defs>
     <path d="M 8.59375 75.984375 
L 29.296875 75.984375 
L 29.296875 69 
L 17.578125 69 
L 17.578125 -6.203125 
L 29.296875 -6.203125 
L 29.296875 -13.1875 
L 8.59375 -13.1875 
z
" id="DejaVuSans-91"/>
     <path d="M 10.984375 1.515625 
L 10.984375 10.5 
Q 14.703125 8.734375 18.5 7.8125 
Q 22.3125 6.890625 25.984375 6.890625 
Q 35.75 6.890625 40.890625 13.453125 
Q 46.046875 20.015625 46.78125 33.40625 
Q 43.953125 29.203125 39.59375 26.953125 
Q 35.25 24.703125 29.984375 24.703125 
Q 19.046875 24.703125 12.671875 31.3125 
Q 6.296875 37.9375 6.296875 49.421875 
Q 6.296875 60.640625 12.9375 67.421875 
Q 19.578125 74.21875 30.609375 74.21875 
Q 43.265625 74.21875 49.921875 64.515625 
Q 56.59375 54.828125 56.59375 36.375 
Q 56.59375 19.140625 48.40625 8.859375 
Q 40.234375 -1.421875 26.421875 -1.421875 
Q 22.703125 -1.421875 18.890625 -0.6875 
Q 15.09375 0.046875 10.984375 1.515625 
z
M 30.609375 32.421875 
Q 37.25 32.421875 41.125 36.953125 
Q 45.015625 41.5 45.015625 49.421875 
Q 45.015625 57.28125 41.125 61.84375 
Q 37.25 66.40625 30.609375 66.40625 
Q 23.96875 66.40625 20.09375 61.84375 
Q 16.21875 57.28125 16.21875 49.421875 
Q 16.21875 41.5 20.09375 36.953125 
Q 23.96875 32.421875 30.609375 32.421875 
z
" id="DejaVuSans-57"/>
     <path d="M 11.71875 12.40625 
L 22.015625 12.40625 
L 22.015625 4 
L 14.015625 -11.625 
L 7.71875 -11.625 
L 11.71875 4 
z
" id="DejaVuSans-44"/>
     <path d="M 30.421875 75.984375 
L 30.421875 -13.1875 
L 9.71875 -13.1875 
L 9.71875 -6.203125 
L 21.390625 -6.203125 
L 21.390625 69 
L 9.71875 69 
L 9.71875 75.984375 
z
" id="DejaVuSans-93"/>
    </defs>
    <g transform="translate(79.9575 28.56)scale(0.12 -0.12)">
     <use xlink:href="#DejaVuSans-32"/>
     <use x="31.787109" xlink:href="#DejaVuSans-32"/>
     <use x="63.574219" xlink:href="#DejaVuSans-32"/>
     <use x="95.361328" xlink:href="#DejaVuSans-51"/>
     <use x="158.984375" xlink:href="#DejaVuSans-51"/>
     <use x="222.607422" xlink:href="#DejaVuSans-46"/>
     <use x="254.394531" xlink:href="#DejaVuSans-56"/>
     <use x="318.017578" xlink:href="#DejaVuSans-32"/>
     <use x="349.804688" xlink:href="#DejaVuSans-91"/>
     <use x="388.818359" xlink:href="#DejaVuSans-32"/>
     <use x="420.605469" xlink:href="#DejaVuSans-32"/>
     <use x="452.392578" xlink:href="#DejaVuSans-32"/>
     <use x="484.179688" xlink:href="#DejaVuSans-50"/>
     <use x="547.802734" xlink:href="#DejaVuSans-56"/>
     <use x="611.425781" xlink:href="#DejaVuSans-46"/>
     <use x="643.212891" xlink:href="#DejaVuSans-57"/>
     <use x="706.835938" xlink:href="#DejaVuSans-44"/>
     <use x="738.623047" xlink:href="#DejaVuSans-32"/>
     <use x="770.410156" xlink:href="#DejaVuSans-32"/>
     <use x="802.197266" xlink:href="#DejaVuSans-32"/>
     <use x="833.984375" xlink:href="#DejaVuSans-32"/>
     <use x="865.771484" xlink:href="#DejaVuSans-51"/>
     <use x="929.394531" xlink:href="#DejaVuSans-57"/>
     <use x="993.017578" xlink:href="#DejaVuSans-46"/>
     <use x="1024.804688" xlink:href="#DejaVuSans-52"/>
     <use x="1088.427734" xlink:href="#DejaVuSans-93"/>
    </g>
   </g>
  </g>
 </g>
 <defs>
  <clipPath id="p8ad962108e">
   <rect height="217.44" width="223.2" x="36" y="34.56"/>
  </clipPath>
 </defs>
</svg>
