<?xml version="1.0" encoding="utf-8" standalone="no"?>
<!DOCTYPE svg PUBLIC "-//W3C//DTD SVG 1.1//EN"
  "http://www.w3.org/Graphics/SVG/1.1/DTD/svg11.dtd">
<!-- Created with matplotlib (https://matplotlib.org/) -->
<svg height="288pt" version="1.1" viewBox="0 0 288 288" width="288pt" xmlns="http://www.w3.org/2000/svg" xmlns:xlink="http://www.w3.org/1999/xlink">
 <defs>
  <style type="text/css">
*{stroke-linecap:butt;stroke-linejoin:round;}
  </style>
 </defs>
 <g id="figure_1">
  <g id="patch_1">
   <path d="M 0 288 
L 288 288 
L 288 0 
L 0 0 
z
" style="fill:#ffffff;"/>
  </g>
  <g id="axes_1">
   <g id="patch_2">
    <path d="M 36 252 
L 259.2 252 
L 259.2 34.56 
L 36 34.56 
z
" style="fill:#ffffff;"/>
   </g>
   <g id="matplotlib.axis_1">
    <g id="xtick_1">
     <g id="line2d_1">
      <defs>
       <path d="M 0 0 
L 0 3.5 
" id="mec4d1aeca8" style="stroke:#000000;stroke-width:0.8;"/>
      </defs>
      <g>
       <use style="stroke:#000000;stroke-width:0.8;" x="46.869173" xlink:href="#mec4d1aeca8" y="252"/>
      </g>
     </g>
     <g id="text_1">
      <!-- 30 -->
      <defs>
       <path d="M 40.578125 39.3125 
Q 47.65625 37.796875 51.625 33 
Q 55.609375 28.21875 55.609375 21.1875 
Q 55.609375 10.40625 48.1875 4.484375 
Q 40.765625 -1.421875 27.09375 -1.421875 
Q 22.515625 -1.421875 17.65625 -0.515625 
Q 12.796875 0.390625 7.625 2.203125 
L 7.625 11.71875 
Q 11.71875 9.328125 16.59375 8.109375 
Q 21.484375 6.890625 26.8125 6.890625 
Q 36.078125 6.890625 40.9375 10.546875 
Q 45.796875 14.203125 45.796875 21.1875 
Q 45.796875 27.640625 41.28125 31.265625 
Q 36.765625 34.90625 28.71875 34.90625 
L 20.21875 34.90625 
L 20.21875 43.015625 
L 29.109375 43.015625 
Q 36.375 43.015625 40.234375 45.921875 
Q 44.09375 48.828125 44.09375 54.296875 
Q 44.09375 59.90625 40.109375 62.90625 
Q 36.140625 65.921875 28.71875 65.921875 
Q 24.65625 65.921875 20.015625 65.03125 
Q 15.375 64.15625 9.8125 62.3125 
L 9.8125 71.09375 
Q 15.4375 72.65625 20.34375 73.4375 
Q 25.25 74.21875 29.59375 74.21875 
Q 40.828125 74.21875 47.359375 69.109375 
Q 53.90625 64.015625 53.90625 55.328125 
Q 53.90625 49.265625 50.4375 45.09375 
Q 46.96875 40.921875 40.578125 39.3125 
z
" id="DejaVuSans-51"/>
       <path d="M 31.78125 66.40625 
Q 24.171875 66.40625 20.328125 58.90625 
Q 16.5 51.421875 16.5 36.375 
Q 16.5 21.390625 20.328125 13.890625 
Q 24.171875 6.390625 31.78125 6.390625 
Q 39.453125 6.390625 43.28125 13.890625 
Q 47.125 21.390625 47.125 36.375 
Q 47.125 51.421875 43.28125 58.90625 
Q 39.453125 66.40625 31.78125 66.40625 
z
M 31.78125 74.21875 
Q 44.046875 74.21875 50.515625 64.515625 
Q 56.984375 54.828125 56.984375 36.375 
Q 56.984375 17.96875 50.515625 8.265625 
Q 44.046875 -1.421875 31.78125 -1.421875 
Q 19.53125 -1.421875 13.0625 8.265625 
Q 6.59375 17.96875 6.59375 36.375 
Q 6.59375 54.828125 13.0625 64.515625 
Q 19.53125 74.21875 31.78125 74.21875 
z
" id="DejaVuSans-48"/>
      </defs>
      <g transform="translate(40.506673 266.598437)scale(0.1 -0.1)">
       <use xlink:href="#DejaVuSans-51"/>
       <use x="63.623047" xlink:href="#DejaVuSans-48"/>
      </g>
     </g>
    </g>
    <g id="xtick_2">
     <g id="line2d_2">
      <g>
       <use style="stroke:#000000;stroke-width:0.8;" x="97.785916" xlink:href="#mec4d1aeca8" y="252"/>
      </g>
     </g>
     <g id="text_2">
      <!-- 35 -->
      <defs>
       <path d="M 10.796875 72.90625 
L 49.515625 72.90625 
L 49.515625 64.59375 
L 19.828125 64.59375 
L 19.828125 46.734375 
Q 21.96875 47.46875 24.109375 47.828125 
Q 26.265625 48.1875 28.421875 48.1875 
Q 40.625 48.1875 47.75 41.5 
Q 54.890625 34.8125 54.890625 23.390625 
Q 54.890625 11.625 47.5625 5.09375 
Q 40.234375 -1.421875 26.90625 -1.421875 
Q 22.3125 -1.421875 17.546875 -0.640625 
Q 12.796875 0.140625 7.71875 1.703125 
L 7.71875 11.625 
Q 12.109375 9.234375 16.796875 8.0625 
Q 21.484375 6.890625 26.703125 6.890625 
Q 35.15625 6.890625 40.078125 11.328125 
Q 45.015625 15.765625 45.015625 23.390625 
Q 45.015625 31 40.078125 35.4375 
Q 35.15625 39.890625 26.703125 39.890625 
Q 22.75 39.890625 18.8125 39.015625 
Q 14.890625 38.140625 10.796875 36.28125 
z
" id="DejaVuSans-53"/>
      </defs>
      <g transform="translate(91.423416 266.598437)scale(0.1 -0.1)">
       <use xlink:href="#DejaVuSans-51"/>
       <use x="63.623047" xlink:href="#DejaVuSans-53"/>
      </g>
     </g>
    </g>
    <g id="xtick_3">
     <g id="line2d_3">
      <g>
       <use style="stroke:#000000;stroke-width:0.8;" x="148.702659" xlink:href="#mec4d1aeca8" y="252"/>
      </g>
     </g>
     <g id="text_3">
      <!-- 40 -->
      <defs>
       <path d="M 37.796875 64.3125 
L 12.890625 25.390625 
L 37.796875 25.390625 
z
M 35.203125 72.90625 
L 47.609375 72.90625 
L 47.609375 25.390625 
L 58.015625 25.390625 
L 58.015625 17.1875 
L 47.609375 17.1875 
L 47.609375 0 
L 37.796875 0 
L 37.796875 17.1875 
L 4.890625 17.1875 
L 4.890625 26.703125 
z
" id="DejaVuSans-52"/>
      </defs>
      <g transform="translate(142.340159 266.598437)scale(0.1 -0.1)">
       <use xlink:href="#DejaVuSans-52"/>
       <use x="63.623047" xlink:href="#DejaVuSans-48"/>
      </g>
     </g>
    </g>
    <g id="xtick_4">
     <g id="line2d_4">
      <g>
       <use style="stroke:#000000;stroke-width:0.8;" x="199.619402" xlink:href="#mec4d1aeca8" y="252"/>
      </g>
     </g>
     <g id="text_4">
      <!-- 45 -->
      <g transform="translate(193.256902 266.598437)scale(0.1 -0.1)">
       <use xlink:href="#DejaVuSans-52"/>
       <use x="63.623047" xlink:href="#DejaVuSans-53"/>
      </g>
     </g>
    </g>
    <g id="xtick_5">
     <g id="line2d_5">
      <g>
       <use style="stroke:#000000;stroke-width:0.8;" x="250.536146" xlink:href="#mec4d1aeca8" y="252"/>
      </g>
     </g>
     <g id="text_5">
      <!-- 50 -->
      <g transform="translate(244.173646 266.598437)scale(0.1 -0.1)">
       <use xlink:href="#DejaVuSans-53"/>
       <use x="63.623047" xlink:href="#DejaVuSans-48"/>
      </g>
     </g>
    </g>
    <g id="text_6">
     <!-- Inclinations -->
     <defs>
      <path d="M 9.8125 72.90625 
L 19.671875 72.90625 
L 19.671875 0 
L 9.8125 0 
z
" id="DejaVuSans-73"/>
      <path d="M 54.890625 33.015625 
L 54.890625 0 
L 45.90625 0 
L 45.90625 32.71875 
Q 45.90625 40.484375 42.875 44.328125 
Q 39.84375 48.1875 33.796875 48.1875 
Q 26.515625 48.1875 22.3125 43.546875 
Q 18.109375 38.921875 18.109375 30.90625 
L 18.109375 0 
L 9.078125 0 
L 9.078125 54.6875 
L 18.109375 54.6875 
L 18.109375 46.1875 
Q 21.34375 51.125 25.703125 53.5625 
Q 30.078125 56 35.796875 56 
Q 45.21875 56 50.046875 50.171875 
Q 54.890625 44.34375 54.890625 33.015625 
z
" id="DejaVuSans-110"/>
      <path d="M 48.78125 52.59375 
L 48.78125 44.1875 
Q 44.96875 46.296875 41.140625 47.34375 
Q 37.3125 48.390625 33.40625 48.390625 
Q 24.65625 48.390625 19.8125 42.84375 
Q 14.984375 37.3125 14.984375 27.296875 
Q 14.984375 17.28125 19.8125 11.734375 
Q 24.65625 6.203125 33.40625 6.203125 
Q 37.3125 6.203125 41.140625 7.25 
Q 44.96875 8.296875 48.78125 10.40625 
L 48.78125 2.09375 
Q 45.015625 0.34375 40.984375 -0.53125 
Q 36.96875 -1.421875 32.421875 -1.421875 
Q 20.0625 -1.421875 12.78125 6.34375 
Q 5.515625 14.109375 5.515625 27.296875 
Q 5.515625 40.671875 12.859375 48.328125 
Q 20.21875 56 33.015625 56 
Q 37.15625 56 41.109375 55.140625 
Q 45.0625 54.296875 48.78125 52.59375 
z
" id="DejaVuSans-99"/>
      <path d="M 9.421875 75.984375 
L 18.40625 75.984375 
L 18.40625 0 
L 9.421875 0 
z
" id="DejaVuSans-108"/>
      <path d="M 9.421875 54.6875 
L 18.40625 54.6875 
L 18.40625 0 
L 9.421875 0 
z
M 9.421875 75.984375 
L 18.40625 75.984375 
L 18.40625 64.59375 
L 9.421875 64.59375 
z
" id="DejaVuSans-105"/>
      <path d="M 34.28125 27.484375 
Q 23.390625 27.484375 19.1875 25 
Q 14.984375 22.515625 14.984375 16.5 
Q 14.984375 11.71875 18.140625 8.90625 
Q 21.296875 6.109375 26.703125 6.109375 
Q 34.1875 6.109375 38.703125 11.40625 
Q 43.21875 16.703125 43.21875 25.484375 
L 43.21875 27.484375 
z
M 52.203125 31.203125 
L 52.203125 0 
L 43.21875 0 
L 43.21875 8.296875 
Q 40.140625 3.328125 35.546875 0.953125 
Q 30.953125 -1.421875 24.3125 -1.421875 
Q 15.921875 -1.421875 10.953125 3.296875 
Q 6 8.015625 6 15.921875 
Q 6 25.140625 12.171875 29.828125 
Q 18.359375 34.515625 30.609375 34.515625 
L 43.21875 34.515625 
L 43.21875 35.40625 
Q 43.21875 41.609375 39.140625 45 
Q 35.0625 48.390625 27.6875 48.390625 
Q 23 48.390625 18.546875 47.265625 
Q 14.109375 46.140625 10.015625 43.890625 
L 10.015625 52.203125 
Q 14.9375 54.109375 19.578125 55.046875 
Q 24.21875 56 28.609375 56 
Q 40.484375 56 46.34375 49.84375 
Q 52.203125 43.703125 52.203125 31.203125 
z
" id="DejaVuSans-97"/>
      <path d="M 18.3125 70.21875 
L 18.3125 54.6875 
L 36.8125 54.6875 
L 36.8125 47.703125 
L 18.3125 47.703125 
L 18.3125 18.015625 
Q 18.3125 11.328125 20.140625 9.421875 
Q 21.96875 7.515625 27.59375 7.515625 
L 36.8125 7.515625 
L 36.8125 0 
L 27.59375 0 
Q 17.1875 0 13.234375 3.875 
Q 9.28125 7.765625 9.28125 18.015625 
L 9.28125 47.703125 
L 2.6875 47.703125 
L 2.6875 54.6875 
L 9.28125 54.6875 
L 9.28125 70.21875 
z
" id="DejaVuSans-116"/>
      <path d="M 30.609375 48.390625 
Q 23.390625 48.390625 19.1875 42.75 
Q 14.984375 37.109375 14.984375 27.296875 
Q 14.984375 17.484375 19.15625 11.84375 
Q 23.34375 6.203125 30.609375 6.203125 
Q 37.796875 6.203125 41.984375 11.859375 
Q 46.1875 17.53125 46.1875 27.296875 
Q 46.1875 37.015625 41.984375 42.703125 
Q 37.796875 48.390625 30.609375 48.390625 
z
M 30.609375 56 
Q 42.328125 56 49.015625 48.375 
Q 55.71875 40.765625 55.71875 27.296875 
Q 55.71875 13.875 49.015625 6.21875 
Q 42.328125 -1.421875 30.609375 -1.421875 
Q 18.84375 -1.421875 12.171875 6.21875 
Q 5.515625 13.875 5.515625 27.296875 
Q 5.515625 40.765625 12.171875 48.375 
Q 18.84375 56 30.609375 56 
z
" id="DejaVuSans-111"/>
      <path d="M 44.28125 53.078125 
L 44.28125 44.578125 
Q 40.484375 46.53125 36.375 47.5 
Q 32.28125 48.484375 27.875 48.484375 
Q 21.1875 48.484375 17.84375 46.4375 
Q 14.5 44.390625 14.5 40.28125 
Q 14.5 37.15625 16.890625 35.375 
Q 19.28125 33.59375 26.515625 31.984375 
L 29.59375 31.296875 
Q 39.15625 29.25 43.1875 25.515625 
Q 47.21875 21.78125 47.21875 15.09375 
Q 47.21875 7.46875 41.1875 3.015625 
Q 35.15625 -1.421875 24.609375 -1.421875 
Q 20.21875 -1.421875 15.453125 -0.5625 
Q 10.6875 0.296875 5.421875 2 
L 5.421875 11.28125 
Q 10.40625 8.6875 15.234375 7.390625 
Q 20.0625 6.109375 24.8125 6.109375 
Q 31.15625 6.109375 34.5625 8.28125 
Q 37.984375 10.453125 37.984375 14.40625 
Q 37.984375 18.0625 35.515625 20.015625 
Q 33.0625 21.96875 24.703125 23.78125 
L 21.578125 24.515625 
Q 13.234375 26.265625 9.515625 29.90625 
Q 5.8125 33.546875 5.8125 39.890625 
Q 5.8125 47.609375 11.28125 51.796875 
Q 16.75 56 26.8125 56 
Q 31.78125 56 36.171875 55.265625 
Q 40.578125 54.546875 44.28125 53.078125 
z
" id="DejaVuSans-115"/>
     </defs>
     <g transform="translate(119.014062 280.276563)scale(0.1 -0.1)">
      <use xlink:href="#DejaVuSans-73"/>
      <use x="29.492188" xlink:href="#DejaVuSans-110"/>
      <use x="92.871094" xlink:href="#DejaVuSans-99"/>
      <use x="147.851562" xlink:href="#DejaVuSans-108"/>
      <use x="175.634766" xlink:href="#DejaVuSans-105"/>
      <use x="203.417969" xlink:href="#DejaVuSans-110"/>
      <use x="266.796875" xlink:href="#DejaVuSans-97"/>
      <use x="328.076172" xlink:href="#DejaVuSans-116"/>
      <use x="367.285156" xlink:href="#DejaVuSans-105"/>
      <use x="395.068359" xlink:href="#DejaVuSans-111"/>
      <use x="456.25" xlink:href="#DejaVuSans-110"/>
      <use x="519.628906" xlink:href="#DejaVuSans-115"/>
     </g>
    </g>
   </g>
   <g id="matplotlib.axis_2">
    <g id="ytick_1">
     <g id="line2d_6">
      <defs>
       <path d="M 0 0 
L -3.5 0 
" id="m577748bf10" style="stroke:#000000;stroke-width:0.8;"/>
      </defs>
      <g>
       <use style="stroke:#000000;stroke-width:0.8;" x="36" xlink:href="#m577748bf10" y="242.116364"/>
      </g>
     </g>
     <g id="text_7">
      <!-- 0.0 -->
      <defs>
       <path d="M 10.6875 12.40625 
L 21 12.40625 
L 21 0 
L 10.6875 0 
z
" id="DejaVuSans-46"/>
      </defs>
      <g transform="translate(13.096875 245.915582)scale(0.1 -0.1)">
       <use xlink:href="#DejaVuSans-48"/>
       <use x="63.623047" xlink:href="#DejaVuSans-46"/>
       <use x="95.410156" xlink:href="#DejaVuSans-48"/>
      </g>
     </g>
    </g>
    <g id="ytick_2">
     <g id="line2d_7">
      <g>
       <use style="stroke:#000000;stroke-width:0.8;" x="36" xlink:href="#m577748bf10" y="202.542244"/>
      </g>
     </g>
     <g id="text_8">
      <!-- 0.2 -->
      <defs>
       <path d="M 19.1875 8.296875 
L 53.609375 8.296875 
L 53.609375 0 
L 7.328125 0 
L 7.328125 8.296875 
Q 12.9375 14.109375 22.625 23.890625 
Q 32.328125 33.6875 34.8125 36.53125 
Q 39.546875 41.84375 41.421875 45.53125 
Q 43.3125 49.21875 43.3125 52.78125 
Q 43.3125 58.59375 39.234375 62.25 
Q 35.15625 65.921875 28.609375 65.921875 
Q 23.96875 65.921875 18.8125 64.3125 
Q 13.671875 62.703125 7.8125 59.421875 
L 7.8125 69.390625 
Q 13.765625 71.78125 18.9375 73 
Q 24.125 74.21875 28.421875 74.21875 
Q 39.75 74.21875 46.484375 68.546875 
Q 53.21875 62.890625 53.21875 53.421875 
Q 53.21875 48.921875 51.53125 44.890625 
Q 49.859375 40.875 45.40625 35.40625 
Q 44.1875 33.984375 37.640625 27.21875 
Q 31.109375 20.453125 19.1875 8.296875 
z
" id="DejaVuSans-50"/>
      </defs>
      <g transform="translate(13.096875 206.341463)scale(0.1 -0.1)">
       <use xlink:href="#DejaVuSans-48"/>
       <use x="63.623047" xlink:href="#DejaVuSans-46"/>
       <use x="95.410156" xlink:href="#DejaVuSans-50"/>
      </g>
     </g>
    </g>
    <g id="ytick_3">
     <g id="line2d_8">
      <g>
       <use style="stroke:#000000;stroke-width:0.8;" x="36" xlink:href="#m577748bf10" y="162.968124"/>
      </g>
     </g>
     <g id="text_9">
      <!-- 0.4 -->
      <g transform="translate(13.096875 166.767343)scale(0.1 -0.1)">
       <use xlink:href="#DejaVuSans-48"/>
       <use x="63.623047" xlink:href="#DejaVuSans-46"/>
       <use x="95.410156" xlink:href="#DejaVuSans-52"/>
      </g>
     </g>
    </g>
    <g id="ytick_4">
     <g id="line2d_9">
      <g>
       <use style="stroke:#000000;stroke-width:0.8;" x="36" xlink:href="#m577748bf10" y="123.394005"/>
      </g>
     </g>
     <g id="text_10">
      <!-- 0.6 -->
      <defs>
       <path d="M 33.015625 40.375 
Q 26.375 40.375 22.484375 35.828125 
Q 18.609375 31.296875 18.609375 23.390625 
Q 18.609375 15.53125 22.484375 10.953125 
Q 26.375 6.390625 33.015625 6.390625 
Q 39.65625 6.390625 43.53125 10.953125 
Q 47.40625 15.53125 47.40625 23.390625 
Q 47.40625 31.296875 43.53125 35.828125 
Q 39.65625 40.375 33.015625 40.375 
z
M 52.59375 71.296875 
L 52.59375 62.3125 
Q 48.875 64.0625 45.09375 64.984375 
Q 41.3125 65.921875 37.59375 65.921875 
Q 27.828125 65.921875 22.671875 59.328125 
Q 17.53125 52.734375 16.796875 39.40625 
Q 19.671875 43.65625 24.015625 45.921875 
Q 28.375 48.1875 33.59375 48.1875 
Q 44.578125 48.1875 50.953125 41.515625 
Q 57.328125 34.859375 57.328125 23.390625 
Q 57.328125 12.15625 50.6875 5.359375 
Q 44.046875 -1.421875 33.015625 -1.421875 
Q 20.359375 -1.421875 13.671875 8.265625 
Q 6.984375 17.96875 6.984375 36.375 
Q 6.984375 53.65625 15.1875 63.9375 
Q 23.390625 74.21875 37.203125 74.21875 
Q 40.921875 74.21875 44.703125 73.484375 
Q 48.484375 72.75 52.59375 71.296875 
z
" id="DejaVuSans-54"/>
      </defs>
      <g transform="translate(13.096875 127.193224)scale(0.1 -0.1)">
       <use xlink:href="#DejaVuSans-48"/>
       <use x="63.623047" xlink:href="#DejaVuSans-46"/>
       <use x="95.410156" xlink:href="#DejaVuSans-54"/>
      </g>
     </g>
    </g>
    <g id="ytick_5">
     <g id="line2d_10">
      <g>
       <use style="stroke:#000000;stroke-width:0.8;" x="36" xlink:href="#m577748bf10" y="83.819885"/>
      </g>
     </g>
     <g id="text_11">
      <!-- 0.8 -->
      <defs>
       <path d="M 31.78125 34.625 
Q 24.75 34.625 20.71875 30.859375 
Q 16.703125 27.09375 16.703125 20.515625 
Q 16.703125 13.921875 20.71875 10.15625 
Q 24.75 6.390625 31.78125 6.390625 
Q 38.8125 6.390625 42.859375 10.171875 
Q 46.921875 13.96875 46.921875 20.515625 
Q 46.921875 27.09375 42.890625 30.859375 
Q 38.875 34.625 31.78125 34.625 
z
M 21.921875 38.8125 
Q 15.578125 40.375 12.03125 44.71875 
Q 8.5 49.078125 8.5 55.328125 
Q 8.5 64.0625 14.71875 69.140625 
Q 20.953125 74.21875 31.78125 74.21875 
Q 42.671875 74.21875 48.875 69.140625 
Q 55.078125 64.0625 55.078125 55.328125 
Q 55.078125 49.078125 51.53125 44.71875 
Q 48 40.375 41.703125 38.8125 
Q 48.828125 37.15625 52.796875 32.3125 
Q 56.78125 27.484375 56.78125 20.515625 
Q 56.78125 9.90625 50.3125 4.234375 
Q 43.84375 -1.421875 31.78125 -1.421875 
Q 19.734375 -1.421875 13.25 4.234375 
Q 6.78125 9.90625 6.78125 20.515625 
Q 6.78125 27.484375 10.78125 32.3125 
Q 14.796875 37.15625 21.921875 38.8125 
z
M 18.3125 54.390625 
Q 18.3125 48.734375 21.84375 45.5625 
Q 25.390625 42.390625 31.78125 42.390625 
Q 38.140625 42.390625 41.71875 45.5625 
Q 45.3125 48.734375 45.3125 54.390625 
Q 45.3125 60.0625 41.71875 63.234375 
Q 38.140625 66.40625 31.78125 66.40625 
Q 25.390625 66.40625 21.84375 63.234375 
Q 18.3125 60.0625 18.3125 54.390625 
z
" id="DejaVuSans-56"/>
      </defs>
      <g transform="translate(13.096875 87.619104)scale(0.1 -0.1)">
       <use xlink:href="#DejaVuSans-48"/>
       <use x="63.623047" xlink:href="#DejaVuSans-46"/>
       <use x="95.410156" xlink:href="#DejaVuSans-56"/>
      </g>
     </g>
    </g>
    <g id="ytick_6">
     <g id="line2d_11">
      <g>
       <use style="stroke:#000000;stroke-width:0.8;" x="36" xlink:href="#m577748bf10" y="44.245766"/>
      </g>
     </g>
     <g id="text_12">
      <!-- 1.0 -->
      <defs>
       <path d="M 12.40625 8.296875 
L 28.515625 8.296875 
L 28.515625 63.921875 
L 10.984375 60.40625 
L 10.984375 69.390625 
L 28.421875 72.90625 
L 38.28125 72.90625 
L 38.28125 8.296875 
L 54.390625 8.296875 
L 54.390625 0 
L 12.40625 0 
z
" id="DejaVuSans-49"/>
      </defs>
      <g transform="translate(13.096875 48.044985)scale(0.1 -0.1)">
       <use xlink:href="#DejaVuSans-49"/>
       <use x="63.623047" xlink:href="#DejaVuSans-46"/>
       <use x="95.410156" xlink:href="#DejaVuSans-48"/>
      </g>
     </g>
    </g>
    <g id="text_13">
     <!-- Cumulative Distribution -->
     <defs>
      <path d="M 64.40625 67.28125 
L 64.40625 56.890625 
Q 59.421875 61.53125 53.78125 63.8125 
Q 48.140625 66.109375 41.796875 66.109375 
Q 29.296875 66.109375 22.65625 58.46875 
Q 16.015625 50.828125 16.015625 36.375 
Q 16.015625 21.96875 22.65625 14.328125 
Q 29.296875 6.6875 41.796875 6.6875 
Q 48.140625 6.6875 53.78125 8.984375 
Q 59.421875 11.28125 64.40625 15.921875 
L 64.40625 5.609375 
Q 59.234375 2.09375 53.4375 0.328125 
Q 47.65625 -1.421875 41.21875 -1.421875 
Q 24.65625 -1.421875 15.125 8.703125 
Q 5.609375 18.84375 5.609375 36.375 
Q 5.609375 53.953125 15.125 64.078125 
Q 24.65625 74.21875 41.21875 74.21875 
Q 47.75 74.21875 53.53125 72.484375 
Q 59.328125 70.75 64.40625 67.28125 
z
" id="DejaVuSans-67"/>
      <path d="M 8.5 21.578125 
L 8.5 54.6875 
L 17.484375 54.6875 
L 17.484375 21.921875 
Q 17.484375 14.15625 20.5 10.265625 
Q 23.53125 6.390625 29.59375 6.390625 
Q 36.859375 6.390625 41.078125 11.03125 
Q 45.3125 15.671875 45.3125 23.6875 
L 45.3125 54.6875 
L 54.296875 54.6875 
L 54.296875 0 
L 45.3125 0 
L 45.3125 8.40625 
Q 42.046875 3.421875 37.71875 1 
Q 33.40625 -1.421875 27.6875 -1.421875 
Q 18.265625 -1.421875 13.375 4.4375 
Q 8.5 10.296875 8.5 21.578125 
z
M 31.109375 56 
z
" id="DejaVuSans-117"/>
      <path d="M 52 44.1875 
Q 55.375 50.25 60.0625 53.125 
Q 64.75 56 71.09375 56 
Q 79.640625 56 84.28125 50.015625 
Q 88.921875 44.046875 88.921875 33.015625 
L 88.921875 0 
L 79.890625 0 
L 79.890625 32.71875 
Q 79.890625 40.578125 77.09375 44.375 
Q 74.3125 48.1875 68.609375 48.1875 
Q 61.625 48.1875 57.5625 43.546875 
Q 53.515625 38.921875 53.515625 30.90625 
L 53.515625 0 
L 44.484375 0 
L 44.484375 32.71875 
Q 44.484375 40.625 41.703125 44.40625 
Q 38.921875 48.1875 33.109375 48.1875 
Q 26.21875 48.1875 22.15625 43.53125 
Q 18.109375 38.875 18.109375 30.90625 
L 18.109375 0 
L 9.078125 0 
L 9.078125 54.6875 
L 18.109375 54.6875 
L 18.109375 46.1875 
Q 21.1875 51.21875 25.484375 53.609375 
Q 29.78125 56 35.6875 56 
Q 41.65625 56 45.828125 52.96875 
Q 50 49.953125 52 44.1875 
z
" id="DejaVuSans-109"/>
      <path d="M 2.984375 54.6875 
L 12.5 54.6875 
L 29.59375 8.796875 
L 46.6875 54.6875 
L 56.203125 54.6875 
L 35.6875 0 
L 23.484375 0 
z
" id="DejaVuSans-118"/>
      <path d="M 56.203125 29.59375 
L 56.203125 25.203125 
L 14.890625 25.203125 
Q 15.484375 15.921875 20.484375 11.0625 
Q 25.484375 6.203125 34.421875 6.203125 
Q 39.59375 6.203125 44.453125 7.46875 
Q 49.3125 8.734375 54.109375 11.28125 
L 54.109375 2.78125 
Q 49.265625 0.734375 44.1875 -0.34375 
Q 39.109375 -1.421875 33.890625 -1.421875 
Q 20.796875 -1.421875 13.15625 6.1875 
Q 5.515625 13.8125 5.515625 26.8125 
Q 5.515625 40.234375 12.765625 48.109375 
Q 20.015625 56 32.328125 56 
Q 43.359375 56 49.78125 48.890625 
Q 56.203125 41.796875 56.203125 29.59375 
z
M 47.21875 32.234375 
Q 47.125 39.59375 43.09375 43.984375 
Q 39.0625 48.390625 32.421875 48.390625 
Q 24.90625 48.390625 20.390625 44.140625 
Q 15.875 39.890625 15.1875 32.171875 
z
" id="DejaVuSans-101"/>
      <path id="DejaVuSans-32"/>
      <path d="M 19.671875 64.796875 
L 19.671875 8.109375 
L 31.59375 8.109375 
Q 46.6875 8.109375 53.6875 14.9375 
Q 60.6875 21.78125 60.6875 36.53125 
Q 60.6875 51.171875 53.6875 57.984375 
Q 46.6875 64.796875 31.59375 64.796875 
z
M 9.8125 72.90625 
L 30.078125 72.90625 
Q 51.265625 72.90625 61.171875 64.09375 
Q 71.09375 55.28125 71.09375 36.53125 
Q 71.09375 17.671875 61.125 8.828125 
Q 51.171875 0 30.078125 0 
L 9.8125 0 
z
" id="DejaVuSans-68"/>
      <path d="M 41.109375 46.296875 
Q 39.59375 47.171875 37.8125 47.578125 
Q 36.03125 48 33.890625 48 
Q 26.265625 48 22.1875 43.046875 
Q 18.109375 38.09375 18.109375 28.8125 
L 18.109375 0 
L 9.078125 0 
L 9.078125 54.6875 
L 18.109375 54.6875 
L 18.109375 46.1875 
Q 20.953125 51.171875 25.484375 53.578125 
Q 30.03125 56 36.53125 56 
Q 37.453125 56 38.578125 55.875 
Q 39.703125 55.765625 41.0625 55.515625 
z
" id="DejaVuSans-114"/>
      <path d="M 48.6875 27.296875 
Q 48.6875 37.203125 44.609375 42.84375 
Q 40.53125 48.484375 33.40625 48.484375 
Q 26.265625 48.484375 22.1875 42.84375 
Q 18.109375 37.203125 18.109375 27.296875 
Q 18.109375 17.390625 22.1875 11.75 
Q 26.265625 6.109375 33.40625 6.109375 
Q 40.53125 6.109375 44.609375 11.75 
Q 48.6875 17.390625 48.6875 27.296875 
z
M 18.109375 46.390625 
Q 20.953125 51.265625 25.265625 53.625 
Q 29.59375 56 35.59375 56 
Q 45.5625 56 51.78125 48.09375 
Q 58.015625 40.1875 58.015625 27.296875 
Q 58.015625 14.40625 51.78125 6.484375 
Q 45.5625 -1.421875 35.59375 -1.421875 
Q 29.59375 -1.421875 25.265625 0.953125 
Q 20.953125 3.328125 18.109375 8.203125 
L 18.109375 0 
L 9.078125 0 
L 9.078125 75.984375 
L 18.109375 75.984375 
z
" id="DejaVuSans-98"/>
     </defs>
     <g transform="translate(7.017187 202.575312)rotate(-90)scale(0.1 -0.1)">
      <use xlink:href="#DejaVuSans-67"/>
      <use x="69.824219" xlink:href="#DejaVuSans-117"/>
      <use x="133.203125" xlink:href="#DejaVuSans-109"/>
      <use x="230.615234" xlink:href="#DejaVuSans-117"/>
      <use x="293.994141" xlink:href="#DejaVuSans-108"/>
      <use x="321.777344" xlink:href="#DejaVuSans-97"/>
      <use x="383.056641" xlink:href="#DejaVuSans-116"/>
      <use x="422.265625" xlink:href="#DejaVuSans-105"/>
      <use x="450.048828" xlink:href="#DejaVuSans-118"/>
      <use x="509.228516" xlink:href="#DejaVuSans-101"/>
      <use x="570.751953" xlink:href="#DejaVuSans-32"/>
      <use x="602.539062" xlink:href="#DejaVuSans-68"/>
      <use x="679.541016" xlink:href="#DejaVuSans-105"/>
      <use x="707.324219" xlink:href="#DejaVuSans-115"/>
      <use x="759.423828" xlink:href="#DejaVuSans-116"/>
      <use x="798.632812" xlink:href="#DejaVuSans-114"/>
      <use x="839.746094" xlink:href="#DejaVuSans-105"/>
      <use x="867.529297" xlink:href="#DejaVuSans-98"/>
      <use x="931.005859" xlink:href="#DejaVuSans-117"/>
      <use x="994.384766" xlink:href="#DejaVuSans-116"/>
      <use x="1033.59375" xlink:href="#DejaVuSans-105"/>
      <use x="1061.376953" xlink:href="#DejaVuSans-111"/>
      <use x="1122.558594" xlink:href="#DejaVuSans-110"/>
     </g>
    </g>
   </g>
   <g id="line2d_12">
    <path clip-path="url(#p33aaf67e9e)" d="M 46.145455 242.116364 
L 46.450304 241.918493 
L 48.052657 241.720622 
L 52.229619 241.522752 
L 52.805207 241.324881 
L 52.888856 241.127011 
L 53.551547 240.92914 
L 60.574469 240.137658 
L 62.818627 239.939787 
L 62.824283 239.741916 
L 65.023566 239.544046 
L 65.652771 239.148305 
L 66.797145 238.752563 
L 67.118915 238.554693 
L 69.474236 238.158952 
L 69.634495 237.961081 
L 70.361546 237.76321 
L 70.535877 237.367469 
L 70.594074 237.169599 
L 71.126561 236.971728 
L 71.32869 236.773857 
L 71.352114 236.575987 
L 71.945327 236.180246 
L 72.181792 235.388763 
L 72.670408 235.190893 
L 74.040292 234.993022 
L 74.094999 234.795152 
L 74.759932 234.20154 
L 75.87712 233.014316 
L 76.830199 232.816446 
L 77.633315 232.222834 
L 78.500294 230.83774 
L 79.296349 230.639869 
L 79.4745 230.441998 
L 81.526503 230.244128 
L 82.223172 230.046257 
L 82.674906 229.650516 
L 84.808049 229.254775 
L 84.841666 229.056904 
L 85.066239 228.859034 
L 85.113267 228.463292 
L 86.080831 228.067551 
L 86.153329 227.869681 
L 86.591954 227.67181 
L 86.85712 226.880328 
L 87.762612 226.088845 
L 87.889944 225.693104 
L 88.075978 225.495233 
L 88.620329 225.099492 
L 89.321101 224.50588 
L 90.387452 224.30801 
L 90.393455 224.110139 
L 90.531565 223.912269 
L 90.875323 223.714398 
L 91.157071 222.922916 
L 91.482155 222.725045 
L 91.554173 222.527174 
L 92.334535 222.131433 
L 92.695196 221.14208 
L 92.885502 220.94421 
L 93.004916 220.350598 
L 93.931568 219.954857 
L 94.438747 218.767633 
L 94.774278 218.569762 
L 95.144966 217.382539 
L 95.590564 217.184668 
L 95.717374 216.195315 
L 96.255081 215.799574 
L 97.291056 214.41448 
L 97.384582 214.018739 
L 97.671452 213.622998 
L 97.77244 213.425127 
L 98.116458 213.029386 
L 98.144419 212.831515 
L 98.515767 212.633645 
L 98.651254 212.040033 
L 99.199895 211.446421 
L 99.288566 210.852809 
L 99.801886 210.457068 
L 99.805636 210.259197 
L 100.172036 209.665586 
L 100.504278 209.269844 
L 100.511739 209.071974 
L 100.761595 208.874103 
L 100.895545 208.478362 
L 101.362412 208.280491 
L 101.881559 206.301785 
L 102.304409 205.906044 
L 102.340206 205.510303 
L 102.57001 205.114562 
L 102.578131 204.718821 
L 102.889289 204.52095 
L 103.044248 203.729468 
L 103.352319 202.937985 
L 103.600754 202.740115 
L 103.610081 202.542244 
L 104.415635 201.35502 
L 104.688434 200.365667 
L 105.25683 199.969926 
L 105.286042 199.772056 
L 105.524173 199.574185 
L 105.654449 199.178444 
L 105.912548 198.386962 
L 106.213565 198.189091 
L 106.783511 195.814644 
L 107.03255 195.221032 
L 107.143337 195.023161 
L 107.480115 194.62742 
L 107.509083 194.231679 
L 108.399082 192.846585 
L 108.400586 192.648714 
L 108.581814 192.450844 
L 108.713916 191.857232 
L 108.924806 191.461491 
L 109.304181 191.26362 
L 110.16 188.691302 
L 110.258694 188.09769 
L 110.87909 187.108337 
L 110.888661 186.910467 
L 111.022736 186.514726 
L 111.16046 186.118984 
L 111.525177 185.921114 
L 112.111122 184.73389 
L 112.202025 183.942408 
L 112.84849 182.359443 
L 112.891142 181.963702 
L 113.078316 181.567961 
L 113.558939 179.787125 
L 114.815829 175.433972 
L 115.170553 174.64249 
L 115.418305 174.444619 
L 115.600674 174.048878 
L 115.909133 173.851007 
L 116.095843 173.455266 
L 116.580896 172.861654 
L 116.70076 172.465913 
L 116.965999 171.872301 
L 117.012335 171.27869 
L 117.373555 170.882948 
L 117.386053 170.685078 
L 117.980611 169.893595 
L 118.332437 169.695725 
L 118.714442 168.508501 
L 118.903872 168.11276 
L 119.039944 167.321278 
L 119.449674 166.925536 
L 119.864879 166.529795 
L 119.899867 166.331925 
L 120.471207 165.738313 
L 120.923019 164.551089 
L 121.123516 164.155348 
L 121.12524 163.957477 
L 121.510337 163.561736 
L 121.657426 162.374513 
L 121.881105 161.780901 
L 122.125686 161.58303 
L 122.285913 160.791548 
L 122.624188 160.395807 
L 122.795048 159.604324 
L 123.375061 158.614971 
L 124.275315 157.032007 
L 124.712045 155.844783 
L 125.139314 155.449042 
L 125.252944 155.053301 
L 125.51867 154.85543 
L 125.783029 153.272465 
L 125.868297 152.283112 
L 126.325181 151.49163 
L 126.747852 151.095889 
L 127.154173 150.700147 
L 127.578552 149.710794 
L 127.596656 149.315053 
L 127.834012 148.919312 
L 127.915695 148.3257 
L 128.261876 148.12783 
L 128.369661 147.534218 
L 128.724605 145.951253 
L 128.924425 145.753382 
L 129.06789 144.9619 
L 129.262831 144.566159 
L 129.641484 143.181065 
L 130.159184 142.191712 
L 130.478403 141.004488 
L 130.530535 140.806618 
L 130.825046 140.410876 
L 131.127345 139.619394 
L 131.271107 139.025782 
L 131.564606 138.827912 
L 131.712987 138.43217 
L 132.292823 137.047076 
L 132.301916 136.849206 
L 132.835803 136.057723 
L 133.448551 135.661982 
L 133.658268 135.464111 
L 133.663534 135.266241 
L 134.060443 134.8705 
L 134.181137 134.276888 
L 134.406155 133.683276 
L 134.935176 133.485405 
L 135.115735 132.891794 
L 135.121524 132.693923 
L 135.388905 132.100311 
L 135.467531 131.70457 
L 135.807976 131.506699 
L 135.93971 131.110958 
L 136.322867 130.913088 
L 136.419894 130.517346 
L 136.561579 129.330123 
L 136.576763 128.934382 
L 137.040772 128.34077 
L 137.065152 128.142899 
L 137.357685 127.945029 
L 137.410327 127.351417 
L 137.756722 127.153546 
L 137.851943 126.559934 
L 138.088428 126.362064 
L 138.113351 126.164193 
L 138.532013 125.966323 
L 139.268857 122.998264 
L 139.567513 122.800393 
L 139.668166 121.81104 
L 139.773894 121.415299 
L 139.879338 121.019558 
L 140.500842 120.030205 
L 140.760757 119.634464 
L 141.019547 118.44724 
L 141.106002 118.249369 
L 141.314493 118.051499 
L 141.462166 117.655758 
L 141.625723 117.260016 
L 141.691532 117.062146 
L 141.951774 116.864275 
L 142.068852 116.270663 
L 142.726239 115.677052 
L 142.751666 115.28131 
L 142.905703 114.885569 
L 142.940528 114.687699 
L 143.11992 114.489828 
L 143.257919 113.896216 
L 143.408256 113.302604 
L 143.628769 113.104734 
L 143.72764 112.511122 
L 144.284444 110.334545 
L 144.303662 110.136675 
L 145.110125 109.740934 
L 145.321379 108.751581 
L 145.521116 108.355839 
L 145.905803 106.970745 
L 146.04273 106.179263 
L 146.088026 105.981392 
L 146.473354 105.783522 
L 146.674094 105.387781 
L 146.937535 104.596298 
L 146.941165 104.398428 
L 148.08701 102.815463 
L 148.154189 102.221851 
L 148.561411 102.02398 
L 148.723409 101.628239 
L 148.783313 101.430369 
L 149.245657 101.232498 
L 149.325382 100.836757 
L 149.878406 100.243145 
L 149.880363 100.045274 
L 150.23862 99.847404 
L 150.309717 99.451663 
L 150.531995 98.858051 
L 150.642276 98.46231 
L 150.919622 98.066568 
L 150.973865 97.472957 
L 151.128507 97.077215 
L 151.272237 96.681474 
L 151.462581 96.285733 
L 151.531697 95.494251 
L 151.976015 95.098509 
L 152.192228 93.911286 
L 152.378993 93.713415 
L 152.483787 93.317674 
L 152.810449 93.119803 
L 153.085359 92.724062 
L 153.268374 92.526192 
L 153.370902 92.13045 
L 153.691764 91.734709 
L 153.723609 91.338968 
L 153.95366 90.943227 
L 154.118712 89.756003 
L 154.319726 89.558133 
L 154.440759 88.964521 
L 154.561781 88.56878 
L 154.5734 88.370909 
L 154.755426 87.975168 
L 154.937002 87.579427 
L 155.262511 87.381556 
L 155.38466 86.787944 
L 155.528996 85.996462 
L 155.789759 85.40285 
L 156.069881 84.413497 
L 156.129322 84.215627 
L 156.637093 83.819885 
L 156.687264 83.622015 
L 157.036112 83.226274 
L 157.182238 82.830532 
L 157.77148 82.236921 
L 158.019422 81.841179 
L 158.333599 81.445438 
L 158.389026 81.247568 
L 158.749808 80.851826 
L 158.831945 80.456085 
L 159.135934 80.258215 
L 159.218746 79.862473 
L 159.425694 79.664603 
L 159.583523 79.268862 
L 160.160981 78.081638 
L 160.427372 76.894414 
L 160.700479 76.696544 
L 160.726385 76.498673 
L 161.147616 76.300803 
L 161.14836 76.102932 
L 161.622485 75.707191 
L 161.988505 75.31145 
L 162.914075 73.332744 
L 163.014927 73.134873 
L 163.295078 72.937002 
L 163.609996 71.551908 
L 164.627205 71.156167 
L 165.128065 70.562555 
L 165.475541 70.166814 
L 165.881453 69.968943 
L 165.900127 69.771073 
L 166.33285 69.573202 
L 166.375482 69.177461 
L 166.591649 68.78172 
L 166.630932 68.583849 
L 166.824945 68.385979 
L 166.908546 67.990238 
L 167.669204 67.000885 
L 168.559886 66.209402 
L 168.683678 65.61579 
L 169.020541 65.41792 
L 169.027047 65.220049 
L 169.310192 65.022179 
L 169.338011 64.428567 
L 171.125186 63.043473 
L 171.244878 62.449861 
L 171.697793 62.25199 
L 171.827851 61.856249 
L 173.215419 59.877543 
L 173.52358 59.679672 
L 174.046403 59.481802 
L 174.115397 59.086061 
L 174.50226 58.88819 
L 174.578886 58.294578 
L 175.369777 58.096708 
L 175.732573 57.700966 
L 176.179555 57.503096 
L 176.186036 57.305225 
L 176.329336 57.107355 
L 177.004957 56.909484 
L 177.295781 56.513743 
L 177.363138 56.315872 
L 178.307858 56.118002 
L 178.670524 55.326519 
L 179.313766 55.128649 
L 179.53589 54.535037 
L 180.744703 54.337166 
L 180.927335 54.139296 
L 181.685657 53.743554 
L 181.822747 53.545684 
L 183.16622 52.952072 
L 183.393393 52.556331 
L 184.381659 52.16059 
L 186.380434 51.764848 
L 186.62668 51.566978 
L 187.700944 51.369107 
L 187.801288 50.973366 
L 188.022859 50.775495 
L 188.416274 50.577625 
L 190.176321 50.379754 
L 190.447372 50.181884 
L 191.645535 49.984013 
L 192.202321 49.588272 
L 194.10018 49.390401 
L 194.359053 48.99466 
L 195.432653 48.598919 
L 195.502964 48.401048 
L 198.317452 48.203178 
L 198.800578 48.005307 
L 198.929005 47.609566 
L 200.801444 47.411695 
L 200.970407 47.213825 
L 201.403719 47.015954 
L 203.797799 46.818084 
L 204.028271 46.422342 
L 204.602112 46.224472 
L 208.162159 45.828731 
L 208.474673 45.63086 
L 210.650468 45.432989 
L 222.025163 45.235119 
L 225.135775 45.037248 
L 249.054545 44.443636 
L 249.054545 44.443636 
" style="fill:none;stroke:#ff0000;stroke-linecap:square;"/>
   </g>
   <g id="line2d_13">
    <path clip-path="url(#p33aaf67e9e)" d="M 70.594074 262.861128 
L 70.594074 23.916312 
" style="fill:none;stroke:#0000ff;stroke-dasharray:3.7,1.6;stroke-dashoffset:0;"/>
   </g>
   <g id="line2d_14">
    <path clip-path="url(#p33aaf67e9e)" d="M 194.204622 262.861128 
L 194.204622 23.916312 
" style="fill:none;stroke:#0000ff;stroke-dasharray:3.7,1.6;stroke-dashoffset:0;"/>
   </g>
   <g id="line2d_15">
    <path clip-path="url(#p33aaf67e9e)" d="M 133.596799 262.861128 
L 133.596799 23.916312 
" style="fill:none;stroke:#008000;stroke-linecap:square;"/>
   </g>
   <g id="line2d_16">
    <path clip-path="url(#p33aaf67e9e)" d="M 37.047379 262.861128 
L 37.047379 23.916312 
" style="fill:none;stroke:#000000;stroke-linecap:square;"/>
   </g>
   <g id="patch_3">
    <path d="M 36 252 
L 36 34.56 
" style="fill:none;stroke:#000000;stroke-linecap:square;stroke-linejoin:miter;stroke-width:0.8;"/>
   </g>
   <g id="patch_4">
    <path d="M 259.2 252 
L 259.2 34.56 
" style="fill:none;stroke:#000000;stroke-linecap:square;stroke-linejoin:miter;stroke-width:0.8;"/>
   </g>
   <g id="patch_5">
    <path d="M 36 252 
L 259.2 252 
" style="fill:none;stroke:#000000;stroke-linecap:square;stroke-linejoin:miter;stroke-width:0.8;"/>
   </g>
   <g id="patch_6">
    <path d="M 36 34.56 
L 259.2 34.56 
" style="fill:none;stroke:#000000;stroke-linecap:square;stroke-linejoin:miter;stroke-width:0.8;"/>
   </g>
   <g id="text_14">
    <!--    38.5 [   32.3,    44.5] -->
    <defs>
     <path d="M 8.59375 75.984375 
L 29.296875 75.984375 
L 29.296875 69 
L 17.578125 69 
L 17.578125 -6.203125 
L 29.296875 -6.203125 
L 29.296875 -13.1875 
L 8.59375 -13.1875 
z
" id="DejaVuSans-91"/>
     <path d="M 11.71875 12.40625 
L 22.015625 12.40625 
L 22.015625 4 
L 14.015625 -11.625 
L 7.71875 -11.625 
L 11.71875 4 
z
" id="DejaVuSans-44"/>
     <path d="M 30.421875 75.984375 
L 30.421875 -13.1875 
L 9.71875 -13.1875 
L 9.71875 -6.203125 
L 21.390625 -6.203125 
L 21.390625 69 
L 9.71875 69 
L 9.71875 75.984375 
z
" id="DejaVuSans-93"/>
    </defs>
    <g transform="translate(79.9575 28.56)scale(0.12 -0.12)">
     <use xlink:href="#DejaVuSans-32"/>
     <use x="31.787109" xlink:href="#DejaVuSans-32"/>
     <use x="63.574219" xlink:href="#DejaVuSans-32"/>
     <use x="95.361328" xlink:href="#DejaVuSans-51"/>
     <use x="158.984375" xlink:href="#DejaVuSans-56"/>
     <use x="222.607422" xlink:href="#DejaVuSans-46"/>
     <use x="254.394531" xlink:href="#DejaVuSans-53"/>
     <use x="318.017578" xlink:href="#DejaVuSans-32"/>
     <use x="349.804688" xlink:href="#DejaVuSans-91"/>
     <use x="388.818359" xlink:href="#DejaVuSans-32"/>
     <use x="420.605469" xlink:href="#DejaVuSans-32"/>
     <use x="452.392578" xlink:href="#DejaVuSans-32"/>
     <use x="484.179688" xlink:href="#DejaVuSans-51"/>
     <use x="547.802734" xlink:href="#DejaVuSans-50"/>
     <use x="611.425781" xlink:href="#DejaVuSans-46"/>
     <use x="643.212891" xlink:href="#DejaVuSans-51"/>
     <use x="706.835938" xlink:href="#DejaVuSans-44"/>
     <use x="738.623047" xlink:href="#DejaVuSans-32"/>
     <use x="770.410156" xlink:href="#DejaVuSans-32"/>
     <use x="802.197266" xlink:href="#DejaVuSans-32"/>
     <use x="833.984375" xlink:href="#DejaVuSans-32"/>
     <use x="865.771484" xlink:href="#DejaVuSans-52"/>
     <use x="929.394531" xlink:href="#DejaVuSans-52"/>
     <use x="993.017578" xlink:href="#DejaVuSans-46"/>
     <use x="1024.804688" xlink:href="#DejaVuSans-53"/>
     <use x="1088.427734" xlink:href="#DejaVuSans-93"/>
    </g>
   </g>
  </g>
 </g>
 <defs>
  <clipPath id="p33aaf67e9e">
   <rect height="217.44" width="223.2" x="36" y="34.56"/>
  </clipPath>
 </defs>
</svg>
