<?xml version="1.0" encoding="utf-8" standalone="no"?>
<!DOCTYPE svg PUBLIC "-//W3C//DTD SVG 1.1//EN"
  "http://www.w3.org/Graphics/SVG/1.1/DTD/svg11.dtd">
<!-- Created with matplotlib (https://matplotlib.org/) -->
<svg height="288pt" version="1.1" viewBox="0 0 288 288" width="288pt" xmlns="http://www.w3.org/2000/svg" xmlns:xlink="http://www.w3.org/1999/xlink">
 <defs>
  <style type="text/css">
*{stroke-linecap:butt;stroke-linejoin:round;}
  </style>
 </defs>
 <g id="figure_1">
  <g id="patch_1">
   <path d="M 0 288 
L 288 288 
L 288 0 
L 0 0 
z
" style="fill:#ffffff;"/>
  </g>
  <g id="axes_1">
   <g id="PathCollection_1">
    <path clip-path="url(#p7d729056e4)" d="M 24.409645 135.352493 
C 25.002657 135.352493 25.571461 135.116887 25.990784 134.697564 
C 26.410106 134.278241 26.645713 133.709437 26.645713 133.116425 
C 26.645713 132.523413 26.410106 131.954609 25.990784 131.535286 
C 25.571461 131.115963 25.002657 130.880357 24.409645 130.880357 
C 23.816633 130.880357 23.247829 131.115963 22.828506 131.535286 
C 22.409183 131.954609 22.173577 132.523413 22.173577 133.116425 
C 22.173577 133.709437 22.409183 134.278241 22.828506 134.697564 
C 23.247829 135.116887 23.816633 135.352493 24.409645 135.352493 
z
" style="fill:none;stroke:#000000;"/>
   </g>
   <g id="PathCollection_2">
    <defs>
     <path d="M 0 2.236068 
C 0.593012 2.236068 1.161816 2.000462 1.581139 1.581139 
C 2.000462 1.161816 2.236068 0.593012 2.236068 0 
C 2.236068 -0.593012 2.000462 -1.161816 1.581139 -1.581139 
C 1.161816 -2.000462 0.593012 -2.236068 0 -2.236068 
C -0.593012 -2.236068 -1.161816 -2.000462 -1.581139 -1.581139 
C -2.000462 -1.161816 -2.236068 -0.593012 -2.236068 0 
C -2.236068 0.593012 -2.000462 1.161816 -1.581139 1.581139 
C -1.161816 2.000462 -0.593012 2.236068 0 2.236068 
z
" id="C0_0_4e6b621d51"/>
    </defs>
    <g clip-path="url(#p7d729056e4)">
     <use style="stroke:#000000;" x="60.437309" xlink:href="#C0_0_4e6b621d51" y="148.086897"/>
    </g>
    <g clip-path="url(#p7d729056e4)">
     <use style="stroke:#000000;" x="50.162401" xlink:href="#C0_0_4e6b621d51" y="128.801625"/>
    </g>
    <g clip-path="url(#p7d729056e4)">
     <use style="stroke:#000000;" x="62.678108" xlink:href="#C0_0_4e6b621d51" y="102.74305"/>
    </g>
    <g clip-path="url(#p7d729056e4)">
     <use style="stroke:#000000;" x="75.174423" xlink:href="#C0_0_4e6b621d51" y="136.158316"/>
    </g>
    <g clip-path="url(#p7d729056e4)">
     <use style="stroke:#000000;" x="59.254997" xlink:href="#C0_0_4e6b621d51" y="131.485947"/>
    </g>
    <g clip-path="url(#p7d729056e4)">
     <use style="stroke:#000000;" x="56.236964" xlink:href="#C0_0_4e6b621d51" y="133.068536"/>
    </g>
    <g clip-path="url(#p7d729056e4)">
     <use style="stroke:#000000;" x="53.151933" xlink:href="#C0_0_4e6b621d51" y="122.356938"/>
    </g>
    <g clip-path="url(#p7d729056e4)">
     <use style="stroke:#000000;" x="55.621722" xlink:href="#C0_0_4e6b621d51" y="106.30347"/>
    </g>
    <g clip-path="url(#p7d729056e4)">
     <use style="stroke:#000000;" x="61.483033" xlink:href="#C0_0_4e6b621d51" y="136.490368"/>
    </g>
    <g clip-path="url(#p7d729056e4)">
     <use style="stroke:#000000;" x="69.776027" xlink:href="#C0_0_4e6b621d51" y="117.131297"/>
    </g>
    <g clip-path="url(#p7d729056e4)">
     <use style="stroke:#000000;" x="70.36933" xlink:href="#C0_0_4e6b621d51" y="102.341771"/>
    </g>
    <g clip-path="url(#p7d729056e4)">
     <use style="stroke:#000000;" x="70.642169" xlink:href="#C0_0_4e6b621d51" y="106.944293"/>
    </g>
    <g clip-path="url(#p7d729056e4)">
     <use style="stroke:#000000;" x="55.503779" xlink:href="#C0_0_4e6b621d51" y="104.042424"/>
    </g>
    <g clip-path="url(#p7d729056e4)">
     <use style="stroke:#000000;" x="54.722202" xlink:href="#C0_0_4e6b621d51" y="108.83254"/>
    </g>
    <g clip-path="url(#p7d729056e4)">
     <use style="stroke:#000000;" x="52.863592" xlink:href="#C0_0_4e6b621d51" y="106.993342"/>
    </g>
    <g clip-path="url(#p7d729056e4)">
     <use style="stroke:#000000;" x="56.870939" xlink:href="#C0_0_4e6b621d51" y="108.974342"/>
    </g>
    <g clip-path="url(#p7d729056e4)">
     <use style="stroke:#000000;" x="65.954475" xlink:href="#C0_0_4e6b621d51" y="122.941701"/>
    </g>
    <g clip-path="url(#p7d729056e4)">
     <use style="stroke:#000000;" x="60.035295" xlink:href="#C0_0_4e6b621d51" y="123.37629"/>
    </g>
    <g clip-path="url(#p7d729056e4)">
     <use style="stroke:#000000;" x="44.413191" xlink:href="#C0_0_4e6b621d51" y="113.743214"/>
    </g>
    <g clip-path="url(#p7d729056e4)">
     <use style="stroke:#000000;" x="45.125966" xlink:href="#C0_0_4e6b621d51" y="116.579803"/>
    </g>
    <g clip-path="url(#p7d729056e4)">
     <use style="stroke:#000000;" x="46.550549" xlink:href="#C0_0_4e6b621d51" y="113.087213"/>
    </g>
    <g clip-path="url(#p7d729056e4)">
     <use style="stroke:#000000;" x="79.697889" xlink:href="#C0_0_4e6b621d51" y="122.73411"/>
    </g>
    <g clip-path="url(#p7d729056e4)">
     <use style="stroke:#000000;" x="77.710784" xlink:href="#C0_0_4e6b621d51" y="107.255288"/>
    </g>
    <g clip-path="url(#p7d729056e4)">
     <use style="stroke:#000000;" x="68.002567" xlink:href="#C0_0_4e6b621d51" y="124.769693"/>
    </g>
    <g clip-path="url(#p7d729056e4)">
     <use style="stroke:#000000;" x="55.519013" xlink:href="#C0_0_4e6b621d51" y="88.495982"/>
    </g>
    <g clip-path="url(#p7d729056e4)">
     <use style="stroke:#000000;" x="53.024297" xlink:href="#C0_0_4e6b621d51" y="118.256471"/>
    </g>
    <g clip-path="url(#p7d729056e4)">
     <use style="stroke:#000000;" x="57.071721" xlink:href="#C0_0_4e6b621d51" y="111.671663"/>
    </g>
    <g clip-path="url(#p7d729056e4)">
     <use style="stroke:#000000;" x="56.305865" xlink:href="#C0_0_4e6b621d51" y="91.931033"/>
    </g>
    <g clip-path="url(#p7d729056e4)">
     <use style="stroke:#000000;" x="59.20909" xlink:href="#C0_0_4e6b621d51" y="122.859252"/>
    </g>
    <g clip-path="url(#p7d729056e4)">
     <use style="stroke:#000000;" x="87.360243" xlink:href="#C0_0_4e6b621d51" y="115.636922"/>
    </g>
    <g clip-path="url(#p7d729056e4)">
     <use style="stroke:#000000;" x="62.967921" xlink:href="#C0_0_4e6b621d51" y="117.044215"/>
    </g>
    <g clip-path="url(#p7d729056e4)">
     <use style="stroke:#000000;" x="59.322277" xlink:href="#C0_0_4e6b621d51" y="119.878916"/>
    </g>
    <g clip-path="url(#p7d729056e4)">
     <use style="stroke:#000000;" x="63.31065" xlink:href="#C0_0_4e6b621d51" y="119.484701"/>
    </g>
    <g clip-path="url(#p7d729056e4)">
     <use style="stroke:#000000;" x="55.819392" xlink:href="#C0_0_4e6b621d51" y="97.113539"/>
    </g>
    <g clip-path="url(#p7d729056e4)">
     <use style="stroke:#000000;" x="51.780681" xlink:href="#C0_0_4e6b621d51" y="105.98994"/>
    </g>
    <g clip-path="url(#p7d729056e4)">
     <use style="stroke:#000000;" x="48.215573" xlink:href="#C0_0_4e6b621d51" y="111.205661"/>
    </g>
    <g clip-path="url(#p7d729056e4)">
     <use style="stroke:#000000;" x="51.385513" xlink:href="#C0_0_4e6b621d51" y="143.515067"/>
    </g>
    <g clip-path="url(#p7d729056e4)">
     <use style="stroke:#000000;" x="43.179221" xlink:href="#C0_0_4e6b621d51" y="99.742772"/>
    </g>
    <g clip-path="url(#p7d729056e4)">
     <use style="stroke:#000000;" x="45.202538" xlink:href="#C0_0_4e6b621d51" y="117.712028"/>
    </g>
    <g clip-path="url(#p7d729056e4)">
     <use style="stroke:#000000;" x="57.929975" xlink:href="#C0_0_4e6b621d51" y="134.497781"/>
    </g>
    <g clip-path="url(#p7d729056e4)">
     <use style="stroke:#000000;" x="69.582863" xlink:href="#C0_0_4e6b621d51" y="92.663056"/>
    </g>
    <g clip-path="url(#p7d729056e4)">
     <use style="stroke:#000000;" x="82.382732" xlink:href="#C0_0_4e6b621d51" y="99.396537"/>
    </g>
    <g clip-path="url(#p7d729056e4)">
     <use style="stroke:#000000;" x="66.802236" xlink:href="#C0_0_4e6b621d51" y="121.425794"/>
    </g>
    <g clip-path="url(#p7d729056e4)">
     <use style="stroke:#000000;" x="63.104466" xlink:href="#C0_0_4e6b621d51" y="113.108999"/>
    </g>
    <g clip-path="url(#p7d729056e4)">
     <use style="stroke:#000000;" x="38.604593" xlink:href="#C0_0_4e6b621d51" y="120.054751"/>
    </g>
    <g clip-path="url(#p7d729056e4)">
     <use style="stroke:#000000;" x="39.300267" xlink:href="#C0_0_4e6b621d51" y="121.936306"/>
    </g>
    <g clip-path="url(#p7d729056e4)">
     <use style="stroke:#000000;" x="73.027392" xlink:href="#C0_0_4e6b621d51" y="111.356248"/>
    </g>
    <g clip-path="url(#p7d729056e4)">
     <use style="stroke:#000000;" x="49.525668" xlink:href="#C0_0_4e6b621d51" y="108.301125"/>
    </g>
    <g clip-path="url(#p7d729056e4)">
     <use style="stroke:#000000;" x="53.705918" xlink:href="#C0_0_4e6b621d51" y="123.982284"/>
    </g>
    <g clip-path="url(#p7d729056e4)">
     <use style="stroke:#000000;" x="59.303474" xlink:href="#C0_0_4e6b621d51" y="127.996425"/>
    </g>
    <g clip-path="url(#p7d729056e4)">
     <use style="stroke:#000000;" x="63.004777" xlink:href="#C0_0_4e6b621d51" y="84.720458"/>
    </g>
    <g clip-path="url(#p7d729056e4)">
     <use style="stroke:#000000;" x="49.792512" xlink:href="#C0_0_4e6b621d51" y="117.519469"/>
    </g>
    <g clip-path="url(#p7d729056e4)">
     <use style="stroke:#000000;" x="43.865981" xlink:href="#C0_0_4e6b621d51" y="109.129645"/>
    </g>
    <g clip-path="url(#p7d729056e4)">
     <use style="stroke:#000000;" x="79.994273" xlink:href="#C0_0_4e6b621d51" y="105.236754"/>
    </g>
    <g clip-path="url(#p7d729056e4)">
     <use style="stroke:#000000;" x="69.854938" xlink:href="#C0_0_4e6b621d51" y="93.421668"/>
    </g>
    <g clip-path="url(#p7d729056e4)">
     <use style="stroke:#000000;" x="71.736285" xlink:href="#C0_0_4e6b621d51" y="69.94862"/>
    </g>
    <g clip-path="url(#p7d729056e4)">
     <use style="stroke:#000000;" x="56.419571" xlink:href="#C0_0_4e6b621d51" y="123.780465"/>
    </g>
    <g clip-path="url(#p7d729056e4)">
     <use style="stroke:#000000;" x="63.795942" xlink:href="#C0_0_4e6b621d51" y="121.153273"/>
    </g>
    <g clip-path="url(#p7d729056e4)">
     <use style="stroke:#000000;" x="52.716787" xlink:href="#C0_0_4e6b621d51" y="141.450229"/>
    </g>
    <g clip-path="url(#p7d729056e4)">
     <use style="stroke:#000000;" x="65.645686" xlink:href="#C0_0_4e6b621d51" y="121.532262"/>
    </g>
    <g clip-path="url(#p7d729056e4)">
     <use style="stroke:#000000;" x="47.662267" xlink:href="#C0_0_4e6b621d51" y="120.158821"/>
    </g>
    <g clip-path="url(#p7d729056e4)">
     <use style="stroke:#000000;" x="69.880336" xlink:href="#C0_0_4e6b621d51" y="108.805396"/>
    </g>
    <g clip-path="url(#p7d729056e4)">
     <use style="stroke:#000000;" x="63.353553" xlink:href="#C0_0_4e6b621d51" y="119.804906"/>
    </g>
    <g clip-path="url(#p7d729056e4)">
     <use style="stroke:#000000;" x="55.730048" xlink:href="#C0_0_4e6b621d51" y="126.361923"/>
    </g>
    <g clip-path="url(#p7d729056e4)">
     <use style="stroke:#000000;" x="70.75312" xlink:href="#C0_0_4e6b621d51" y="110.773742"/>
    </g>
    <g clip-path="url(#p7d729056e4)">
     <use style="stroke:#000000;" x="58.569793" xlink:href="#C0_0_4e6b621d51" y="129.857121"/>
    </g>
    <g clip-path="url(#p7d729056e4)">
     <use style="stroke:#000000;" x="67.045899" xlink:href="#C0_0_4e6b621d51" y="133.184806"/>
    </g>
    <g clip-path="url(#p7d729056e4)">
     <use style="stroke:#000000;" x="59.63561" xlink:href="#C0_0_4e6b621d51" y="123.901567"/>
    </g>
    <g clip-path="url(#p7d729056e4)">
     <use style="stroke:#000000;" x="74.715606" xlink:href="#C0_0_4e6b621d51" y="116.847743"/>
    </g>
    <g clip-path="url(#p7d729056e4)">
     <use style="stroke:#000000;" x="77.83266" xlink:href="#C0_0_4e6b621d51" y="91.931438"/>
    </g>
    <g clip-path="url(#p7d729056e4)">
     <use style="stroke:#000000;" x="39.914912" xlink:href="#C0_0_4e6b621d51" y="115.33019"/>
    </g>
    <g clip-path="url(#p7d729056e4)">
     <use style="stroke:#000000;" x="66.322816" xlink:href="#C0_0_4e6b621d51" y="116.340399"/>
    </g>
    <g clip-path="url(#p7d729056e4)">
     <use style="stroke:#000000;" x="44.961107" xlink:href="#C0_0_4e6b621d51" y="128.490923"/>
    </g>
    <g clip-path="url(#p7d729056e4)">
     <use style="stroke:#000000;" x="58.524358" xlink:href="#C0_0_4e6b621d51" y="138.322714"/>
    </g>
    <g clip-path="url(#p7d729056e4)">
     <use style="stroke:#000000;" x="82.441669" xlink:href="#C0_0_4e6b621d51" y="126.812605"/>
    </g>
    <g clip-path="url(#p7d729056e4)">
     <use style="stroke:#000000;" x="85.560587" xlink:href="#C0_0_4e6b621d51" y="102.315572"/>
    </g>
    <g clip-path="url(#p7d729056e4)">
     <use style="stroke:#000000;" x="70.266715" xlink:href="#C0_0_4e6b621d51" y="99.871539"/>
    </g>
    <g clip-path="url(#p7d729056e4)">
     <use style="stroke:#000000;" x="71.572097" xlink:href="#C0_0_4e6b621d51" y="83.225773"/>
    </g>
    <g clip-path="url(#p7d729056e4)">
     <use style="stroke:#000000;" x="74.150936" xlink:href="#C0_0_4e6b621d51" y="100.691745"/>
    </g>
    <g clip-path="url(#p7d729056e4)">
     <use style="stroke:#000000;" x="72.03467" xlink:href="#C0_0_4e6b621d51" y="118.939021"/>
    </g>
    <g clip-path="url(#p7d729056e4)">
     <use style="stroke:#000000;" x="68.570381" xlink:href="#C0_0_4e6b621d51" y="131.377411"/>
    </g>
    <g clip-path="url(#p7d729056e4)">
     <use style="stroke:#000000;" x="55.451657" xlink:href="#C0_0_4e6b621d51" y="111.595908"/>
    </g>
    <g clip-path="url(#p7d729056e4)">
     <use style="stroke:#000000;" x="52.051977" xlink:href="#C0_0_4e6b621d51" y="123.109922"/>
    </g>
    <g clip-path="url(#p7d729056e4)">
     <use style="stroke:#000000;" x="82.756125" xlink:href="#C0_0_4e6b621d51" y="106.027189"/>
    </g>
    <g clip-path="url(#p7d729056e4)">
     <use style="stroke:#000000;" x="63.873269" xlink:href="#C0_0_4e6b621d51" y="122.380149"/>
    </g>
    <g clip-path="url(#p7d729056e4)">
     <use style="stroke:#000000;" x="62.11695" xlink:href="#C0_0_4e6b621d51" y="117.078223"/>
    </g>
    <g clip-path="url(#p7d729056e4)">
     <use style="stroke:#000000;" x="45.326161" xlink:href="#C0_0_4e6b621d51" y="136.060891"/>
    </g>
    <g clip-path="url(#p7d729056e4)">
     <use style="stroke:#000000;" x="72.854292" xlink:href="#C0_0_4e6b621d51" y="130.170675"/>
    </g>
    <g clip-path="url(#p7d729056e4)">
     <use style="stroke:#000000;" x="63.48808" xlink:href="#C0_0_4e6b621d51" y="141.047762"/>
    </g>
    <g clip-path="url(#p7d729056e4)">
     <use style="stroke:#000000;" x="39.232344" xlink:href="#C0_0_4e6b621d51" y="132.248424"/>
    </g>
    <g clip-path="url(#p7d729056e4)">
     <use style="stroke:#000000;" x="57.942129" xlink:href="#C0_0_4e6b621d51" y="90.433693"/>
    </g>
    <g clip-path="url(#p7d729056e4)">
     <use style="stroke:#000000;" x="59.519864" xlink:href="#C0_0_4e6b621d51" y="110.72239"/>
    </g>
    <g clip-path="url(#p7d729056e4)">
     <use style="stroke:#000000;" x="55.040336" xlink:href="#C0_0_4e6b621d51" y="120.16333"/>
    </g>
    <g clip-path="url(#p7d729056e4)">
     <use style="stroke:#000000;" x="46.637889" xlink:href="#C0_0_4e6b621d51" y="115.344773"/>
    </g>
    <g clip-path="url(#p7d729056e4)">
     <use style="stroke:#000000;" x="49.570383" xlink:href="#C0_0_4e6b621d51" y="111.485275"/>
    </g>
    <g clip-path="url(#p7d729056e4)">
     <use style="stroke:#000000;" x="46.17773" xlink:href="#C0_0_4e6b621d51" y="138.359603"/>
    </g>
    <g clip-path="url(#p7d729056e4)">
     <use style="stroke:#000000;" x="55.684821" xlink:href="#C0_0_4e6b621d51" y="121.81676"/>
    </g>
    <g clip-path="url(#p7d729056e4)">
     <use style="stroke:#000000;" x="47.830552" xlink:href="#C0_0_4e6b621d51" y="112.752652"/>
    </g>
    <g clip-path="url(#p7d729056e4)">
     <use style="stroke:#000000;" x="31.24803" xlink:href="#C0_0_4e6b621d51" y="118.590246"/>
    </g>
    <g clip-path="url(#p7d729056e4)">
     <use style="stroke:#000000;" x="45.111378" xlink:href="#C0_0_4e6b621d51" y="118.057056"/>
    </g>
    <g clip-path="url(#p7d729056e4)">
     <use style="stroke:#000000;" x="49.133054" xlink:href="#C0_0_4e6b621d51" y="115.718935"/>
    </g>
    <g clip-path="url(#p7d729056e4)">
     <use style="stroke:#000000;" x="36.245787" xlink:href="#C0_0_4e6b621d51" y="118.130502"/>
    </g>
    <g clip-path="url(#p7d729056e4)">
     <use style="stroke:#000000;" x="44.917243" xlink:href="#C0_0_4e6b621d51" y="102.349444"/>
    </g>
    <g clip-path="url(#p7d729056e4)">
     <use style="stroke:#000000;" x="46.179739" xlink:href="#C0_0_4e6b621d51" y="141.267633"/>
    </g>
    <g clip-path="url(#p7d729056e4)">
     <use style="stroke:#000000;" x="46.639515" xlink:href="#C0_0_4e6b621d51" y="98.185633"/>
    </g>
    <g clip-path="url(#p7d729056e4)">
     <use style="stroke:#000000;" x="52.865852" xlink:href="#C0_0_4e6b621d51" y="87.933898"/>
    </g>
    <g clip-path="url(#p7d729056e4)">
     <use style="stroke:#000000;" x="64.988524" xlink:href="#C0_0_4e6b621d51" y="120.895428"/>
    </g>
    <g clip-path="url(#p7d729056e4)">
     <use style="stroke:#000000;" x="72.433897" xlink:href="#C0_0_4e6b621d51" y="104.980894"/>
    </g>
    <g clip-path="url(#p7d729056e4)">
     <use style="stroke:#000000;" x="63.130798" xlink:href="#C0_0_4e6b621d51" y="154.216156"/>
    </g>
    <g clip-path="url(#p7d729056e4)">
     <use style="stroke:#000000;" x="47.176154" xlink:href="#C0_0_4e6b621d51" y="141.97183"/>
    </g>
    <g clip-path="url(#p7d729056e4)">
     <use style="stroke:#000000;" x="35.767726" xlink:href="#C0_0_4e6b621d51" y="153.849909"/>
    </g>
    <g clip-path="url(#p7d729056e4)">
     <use style="stroke:#000000;" x="45.840194" xlink:href="#C0_0_4e6b621d51" y="114.550647"/>
    </g>
    <g clip-path="url(#p7d729056e4)">
     <use style="stroke:#000000;" x="72.526401" xlink:href="#C0_0_4e6b621d51" y="98.990673"/>
    </g>
    <g clip-path="url(#p7d729056e4)">
     <use style="stroke:#000000;" x="69.644523" xlink:href="#C0_0_4e6b621d51" y="115.159411"/>
    </g>
    <g clip-path="url(#p7d729056e4)">
     <use style="stroke:#000000;" x="84.736401" xlink:href="#C0_0_4e6b621d51" y="109.230253"/>
    </g>
    <g clip-path="url(#p7d729056e4)">
     <use style="stroke:#000000;" x="75.82034" xlink:href="#C0_0_4e6b621d51" y="149.845059"/>
    </g>
    <g clip-path="url(#p7d729056e4)">
     <use style="stroke:#000000;" x="50.122874" xlink:href="#C0_0_4e6b621d51" y="112.589153"/>
    </g>
    <g clip-path="url(#p7d729056e4)">
     <use style="stroke:#000000;" x="68.344656" xlink:href="#C0_0_4e6b621d51" y="131.067995"/>
    </g>
    <g clip-path="url(#p7d729056e4)">
     <use style="stroke:#000000;" x="60.754512" xlink:href="#C0_0_4e6b621d51" y="122.160955"/>
    </g>
    <g clip-path="url(#p7d729056e4)">
     <use style="stroke:#000000;" x="71.292328" xlink:href="#C0_0_4e6b621d51" y="114.328549"/>
    </g>
    <g clip-path="url(#p7d729056e4)">
     <use style="stroke:#000000;" x="62.034582" xlink:href="#C0_0_4e6b621d51" y="120.031635"/>
    </g>
    <g clip-path="url(#p7d729056e4)">
     <use style="stroke:#000000;" x="89.908177" xlink:href="#C0_0_4e6b621d51" y="114.75266"/>
    </g>
    <g clip-path="url(#p7d729056e4)">
     <use style="stroke:#000000;" x="64.160137" xlink:href="#C0_0_4e6b621d51" y="146.788069"/>
    </g>
    <g clip-path="url(#p7d729056e4)">
     <use style="stroke:#000000;" x="58.099074" xlink:href="#C0_0_4e6b621d51" y="111.88296"/>
    </g>
    <g clip-path="url(#p7d729056e4)">
     <use style="stroke:#000000;" x="50.836953" xlink:href="#C0_0_4e6b621d51" y="137.485405"/>
    </g>
    <g clip-path="url(#p7d729056e4)">
     <use style="stroke:#000000;" x="61.708945" xlink:href="#C0_0_4e6b621d51" y="122.718086"/>
    </g>
    <g clip-path="url(#p7d729056e4)">
     <use style="stroke:#000000;" x="59.437982" xlink:href="#C0_0_4e6b621d51" y="130.303942"/>
    </g>
    <g clip-path="url(#p7d729056e4)">
     <use style="stroke:#000000;" x="60.932897" xlink:href="#C0_0_4e6b621d51" y="130.24833"/>
    </g>
    <g clip-path="url(#p7d729056e4)">
     <use style="stroke:#000000;" x="66.968781" xlink:href="#C0_0_4e6b621d51" y="115.352347"/>
    </g>
    <g clip-path="url(#p7d729056e4)">
     <use style="stroke:#000000;" x="46.571813" xlink:href="#C0_0_4e6b621d51" y="126.469902"/>
    </g>
    <g clip-path="url(#p7d729056e4)">
     <use style="stroke:#000000;" x="52.136487" xlink:href="#C0_0_4e6b621d51" y="114.151735"/>
    </g>
    <g clip-path="url(#p7d729056e4)">
     <use style="stroke:#000000;" x="66.410796" xlink:href="#C0_0_4e6b621d51" y="139.66209"/>
    </g>
    <g clip-path="url(#p7d729056e4)">
     <use style="stroke:#000000;" x="69.51435" xlink:href="#C0_0_4e6b621d51" y="108.949714"/>
    </g>
    <g clip-path="url(#p7d729056e4)">
     <use style="stroke:#000000;" x="65.686851" xlink:href="#C0_0_4e6b621d51" y="114.564023"/>
    </g>
    <g clip-path="url(#p7d729056e4)">
     <use style="stroke:#000000;" x="75.563815" xlink:href="#C0_0_4e6b621d51" y="107.764905"/>
    </g>
    <g clip-path="url(#p7d729056e4)">
     <use style="stroke:#000000;" x="90.145212" xlink:href="#C0_0_4e6b621d51" y="126.084897"/>
    </g>
    <g clip-path="url(#p7d729056e4)">
     <use style="stroke:#000000;" x="58.402111" xlink:href="#C0_0_4e6b621d51" y="131.817616"/>
    </g>
    <g clip-path="url(#p7d729056e4)">
     <use style="stroke:#000000;" x="70.642271" xlink:href="#C0_0_4e6b621d51" y="126.658968"/>
    </g>
    <g clip-path="url(#p7d729056e4)">
     <use style="stroke:#000000;" x="83.44402" xlink:href="#C0_0_4e6b621d51" y="116.275308"/>
    </g>
    <g clip-path="url(#p7d729056e4)">
     <use style="stroke:#000000;" x="68.753181" xlink:href="#C0_0_4e6b621d51" y="119.260105"/>
    </g>
    <g clip-path="url(#p7d729056e4)">
     <use style="stroke:#000000;" x="50.965592" xlink:href="#C0_0_4e6b621d51" y="137.4944"/>
    </g>
    <g clip-path="url(#p7d729056e4)">
     <use style="stroke:#000000;" x="64.38954" xlink:href="#C0_0_4e6b621d51" y="126.496505"/>
    </g>
    <g clip-path="url(#p7d729056e4)">
     <use style="stroke:#000000;" x="62.974074" xlink:href="#C0_0_4e6b621d51" y="118.763234"/>
    </g>
    <g clip-path="url(#p7d729056e4)">
     <use style="stroke:#000000;" x="76.056239" xlink:href="#C0_0_4e6b621d51" y="141.033511"/>
    </g>
    <g clip-path="url(#p7d729056e4)">
     <use style="stroke:#000000;" x="50.097723" xlink:href="#C0_0_4e6b621d51" y="109.264493"/>
    </g>
    <g clip-path="url(#p7d729056e4)">
     <use style="stroke:#000000;" x="66.03743" xlink:href="#C0_0_4e6b621d51" y="117.155334"/>
    </g>
    <g clip-path="url(#p7d729056e4)">
     <use style="stroke:#000000;" x="60.645357" xlink:href="#C0_0_4e6b621d51" y="130.350154"/>
    </g>
    <g clip-path="url(#p7d729056e4)">
     <use style="stroke:#000000;" x="49.24455" xlink:href="#C0_0_4e6b621d51" y="112.845993"/>
    </g>
    <g clip-path="url(#p7d729056e4)">
     <use style="stroke:#000000;" x="69.3837" xlink:href="#C0_0_4e6b621d51" y="104.991541"/>
    </g>
    <g clip-path="url(#p7d729056e4)">
     <use style="stroke:#000000;" x="76.018637" xlink:href="#C0_0_4e6b621d51" y="113.732747"/>
    </g>
    <g clip-path="url(#p7d729056e4)">
     <use style="stroke:#000000;" x="59.979351" xlink:href="#C0_0_4e6b621d51" y="125.987534"/>
    </g>
   </g>
   <g id="line2d_1">
    <path clip-path="url(#p7d729056e4)" d="M 144 20.41659 
L 148.312999 20.491874 
L 152.620743 20.717633 
L 156.917984 21.093593 
L 161.199486 21.619295 
L 165.460034 22.2941 
L 169.694436 23.117184 
L 173.897533 24.087545 
L 178.064204 25.204002 
L 182.189374 26.465192 
L 186.268016 27.869581 
L 190.29516 29.415457 
L 194.265901 31.100937 
L 198.175401 32.923967 
L 202.018897 34.882326 
L 205.791705 36.973627 
L 209.48923 39.195324 
L 213.106966 41.54471 
L 216.640506 44.018921 
L 220.085545 46.614944 
L 223.437885 49.329615 
L 226.693442 52.159628 
L 229.84825 55.101534 
L 232.898466 58.15175 
L 235.840372 61.306558 
L 238.670385 64.562115 
L 241.385056 67.914455 
L 243.981079 71.359494 
L 246.45529 74.893034 
L 248.804676 78.51077 
L 251.026373 82.208295 
L 253.117674 85.981103 
L 255.076033 89.824599 
L 256.899063 93.734099 
L 258.584543 97.70484 
L 260.130419 101.731984 
L 261.534808 105.810626 
L 262.795998 109.935796 
L 263.912455 114.102467 
L 264.882816 118.305564 
L 265.7059 122.539966 
L 266.380705 126.800514 
L 266.906407 131.082016 
L 267.282367 135.379257 
L 267.508126 139.687001 
L 267.58341 144 
L 267.508126 148.312999 
L 267.282367 152.620743 
L 266.906407 156.917984 
L 266.380705 161.199486 
L 265.7059 165.460034 
L 264.882816 169.694436 
L 263.912455 173.897533 
L 262.795998 178.064204 
L 261.534808 182.189374 
L 260.130419 186.268016 
L 258.584543 190.29516 
L 256.899063 194.265901 
L 255.076033 198.175401 
L 253.117674 202.018897 
L 251.026373 205.791705 
L 248.804676 209.48923 
L 246.45529 213.106966 
L 243.981079 216.640506 
L 241.385056 220.085545 
L 238.670385 223.437885 
L 235.840372 226.693442 
L 232.898466 229.84825 
L 229.84825 232.898466 
L 226.693442 235.840372 
L 223.437885 238.670385 
L 220.085545 241.385056 
L 216.640506 243.981079 
L 213.106966 246.45529 
L 209.48923 248.804676 
L 205.791705 251.026373 
L 202.018897 253.117674 
L 198.175401 255.076033 
L 194.265901 256.899063 
L 190.29516 258.584543 
L 186.268016 260.130419 
L 182.189374 261.534808 
L 178.064204 262.795998 
L 173.897533 263.912455 
L 169.694436 264.882816 
L 165.460034 265.7059 
L 161.199486 266.380705 
L 156.917984 266.906407 
L 152.620743 267.282367 
L 148.312999 267.508126 
L 144 267.58341 
L 139.687001 267.508126 
L 135.379257 267.282367 
L 131.082016 266.906407 
L 126.800514 266.380705 
L 122.539966 265.7059 
L 118.305564 264.882816 
L 114.102467 263.912455 
L 109.935796 262.795998 
L 105.810626 261.534808 
L 101.731984 260.130419 
L 97.70484 258.584543 
L 93.734099 256.899063 
L 89.824599 255.076033 
L 85.981103 253.117674 
L 82.208295 251.026373 
L 78.51077 248.804676 
L 74.893034 246.45529 
L 71.359494 243.981079 
L 67.914455 241.385056 
L 64.562115 238.670385 
L 61.306558 235.840372 
L 58.15175 232.898466 
L 55.101534 229.84825 
L 52.159628 226.693442 
L 49.329615 223.437885 
L 46.614944 220.085545 
L 44.018921 216.640506 
L 41.54471 213.106966 
L 39.195324 209.48923 
L 36.973627 205.791705 
L 34.882326 202.018897 
L 32.923967 198.175401 
L 31.100937 194.265901 
L 29.415457 190.29516 
L 27.869581 186.268016 
L 26.465192 182.189374 
L 25.204002 178.064204 
L 24.087545 173.897533 
L 23.117184 169.694436 
L 22.2941 165.460034 
L 21.619295 161.199486 
L 21.093593 156.917984 
L 20.717633 152.620743 
L 20.491874 148.312999 
L 20.41659 144 
L 20.491874 139.687001 
L 20.717633 135.379257 
L 21.093593 131.082016 
L 21.619295 126.800514 
L 22.2941 122.539966 
L 23.117184 118.305564 
L 24.087545 114.102467 
L 25.204002 109.935796 
L 26.465192 105.810626 
L 27.869581 101.731984 
L 29.415457 97.70484 
L 31.100937 93.734099 
L 32.923967 89.824599 
L 34.882326 85.981103 
L 36.973627 82.208295 
L 39.195324 78.51077 
L 41.54471 74.893034 
L 44.018921 71.359494 
L 46.614944 67.914455 
L 49.329615 64.562115 
L 52.159628 61.306558 
L 55.101534 58.15175 
L 58.15175 55.101534 
L 61.306558 52.159628 
L 64.562115 49.329615 
L 67.914455 46.614944 
L 71.359494 44.018921 
L 74.893034 41.54471 
L 78.51077 39.195324 
L 82.208295 36.973627 
L 85.981103 34.882326 
L 89.824599 32.923967 
L 93.734099 31.100937 
L 97.70484 29.415457 
L 101.731984 27.869581 
L 105.810626 26.465192 
L 109.935796 25.204002 
L 114.102467 24.087545 
L 118.305564 23.117184 
L 122.539966 22.2941 
L 126.800514 21.619295 
L 131.082016 21.093593 
L 135.379257 20.717633 
L 139.687001 20.491874 
L 144 20.41659 
L 144 20.41659 
" style="fill:none;stroke:#000000;stroke-linecap:square;stroke-width:1.5;"/>
   </g>
   <g id="line2d_2">
    <defs>
     <path d="M -3 0 
L 3 0 
M 0 3 
L 0 -3 
" id="m11293d920d" style="stroke:#000000;"/>
    </defs>
    <g clip-path="url(#p7d729056e4)">
     <use style="stroke:#000000;" x="144" xlink:href="#m11293d920d" y="31.657866"/>
     <use style="stroke:#000000;" x="144" xlink:href="#m11293d920d" y="43.754134"/>
     <use style="stroke:#000000;" x="144" xlink:href="#m11293d920d" y="56.613333"/>
     <use style="stroke:#000000;" x="144" xlink:href="#m11293d920d" y="70.137597"/>
     <use style="stroke:#000000;" x="144" xlink:href="#m11293d920d" y="84.223999"/>
     <use style="stroke:#000000;" x="144" xlink:href="#m11293d920d" y="98.765332"/>
     <use style="stroke:#000000;" x="144" xlink:href="#m11293d920d" y="113.650929"/>
     <use style="stroke:#000000;" x="144" xlink:href="#m11293d920d" y="128.7675"/>
     <use style="stroke:#000000;" x="144" xlink:href="#m11293d920d" y="144"/>
    </g>
   </g>
   <g id="line2d_3">
    <g clip-path="url(#p7d729056e4)">
     <use style="stroke:#000000;" x="256.342134" xlink:href="#m11293d920d" y="144"/>
     <use style="stroke:#000000;" x="244.245866" xlink:href="#m11293d920d" y="144"/>
     <use style="stroke:#000000;" x="231.386667" xlink:href="#m11293d920d" y="144"/>
     <use style="stroke:#000000;" x="217.862403" xlink:href="#m11293d920d" y="144"/>
     <use style="stroke:#000000;" x="203.776001" xlink:href="#m11293d920d" y="144"/>
     <use style="stroke:#000000;" x="189.234668" xlink:href="#m11293d920d" y="144"/>
     <use style="stroke:#000000;" x="174.349071" xlink:href="#m11293d920d" y="144"/>
     <use style="stroke:#000000;" x="159.2325" xlink:href="#m11293d920d" y="144"/>
    </g>
   </g>
   <g id="line2d_4">
    <g clip-path="url(#p7d729056e4)">
     <use style="stroke:#000000;" x="144" xlink:href="#m11293d920d" y="256.342134"/>
     <use style="stroke:#000000;" x="144" xlink:href="#m11293d920d" y="244.245866"/>
     <use style="stroke:#000000;" x="144" xlink:href="#m11293d920d" y="231.386667"/>
     <use style="stroke:#000000;" x="144" xlink:href="#m11293d920d" y="217.862403"/>
     <use style="stroke:#000000;" x="144" xlink:href="#m11293d920d" y="203.776001"/>
     <use style="stroke:#000000;" x="144" xlink:href="#m11293d920d" y="189.234668"/>
     <use style="stroke:#000000;" x="144" xlink:href="#m11293d920d" y="174.349071"/>
     <use style="stroke:#000000;" x="144" xlink:href="#m11293d920d" y="159.2325"/>
    </g>
   </g>
   <g id="line2d_5">
    <g clip-path="url(#p7d729056e4)">
     <use style="stroke:#000000;" x="31.657866" xlink:href="#m11293d920d" y="144"/>
     <use style="stroke:#000000;" x="43.754134" xlink:href="#m11293d920d" y="144"/>
     <use style="stroke:#000000;" x="56.613333" xlink:href="#m11293d920d" y="144"/>
     <use style="stroke:#000000;" x="70.137597" xlink:href="#m11293d920d" y="144"/>
     <use style="stroke:#000000;" x="84.223999" xlink:href="#m11293d920d" y="144"/>
     <use style="stroke:#000000;" x="98.765332" xlink:href="#m11293d920d" y="144"/>
     <use style="stroke:#000000;" x="113.650929" xlink:href="#m11293d920d" y="144"/>
     <use style="stroke:#000000;" x="128.7675" xlink:href="#m11293d920d" y="144"/>
    </g>
   </g>
   <g id="line2d_6">
    <path clip-path="url(#p7d729056e4)" d="M 144 20.41659 
L 144 21.499751 
L 144 22.59224 
L 144 23.693975 
" style="fill:none;stroke:#000000;stroke-linecap:square;stroke-width:1.5;"/>
   </g>
   <g id="line2d_7">
    <path clip-path="url(#p7d729056e4)" d="M 165.460034 22.2941 
L 165.271945 23.360805 
L 165.082236 24.436697 
L 164.890922 25.521694 
" style="fill:none;stroke:#000000;stroke-linecap:square;stroke-width:1.5;"/>
   </g>
   <g id="line2d_8">
    <path clip-path="url(#p7d729056e4)" d="M 186.268016 27.869581 
L 185.897553 28.88742 
L 185.523899 29.914024 
L 185.147084 30.949316 
" style="fill:none;stroke:#000000;stroke-linecap:square;stroke-width:1.5;"/>
   </g>
   <g id="line2d_9">
    <path clip-path="url(#p7d729056e4)" d="M 205.791705 36.973627 
L 205.250125 37.911672 
L 204.70388 38.857796 
L 204.153012 39.811926 
" style="fill:none;stroke:#000000;stroke-linecap:square;stroke-width:1.5;"/>
   </g>
   <g id="line2d_10">
    <path clip-path="url(#p7d729056e4)" d="M 223.437885 49.329615 
L 222.741643 50.159365 
L 222.039404 50.99626 
L 221.331222 51.840238 
" style="fill:none;stroke:#000000;stroke-linecap:square;stroke-width:1.5;"/>
   </g>
   <g id="line2d_11">
    <path clip-path="url(#p7d729056e4)" d="M 238.670385 64.562115 
L 237.840635 65.258357 
L 237.00374 65.960596 
L 236.159762 66.668778 
" style="fill:none;stroke:#000000;stroke-linecap:square;stroke-width:1.5;"/>
   </g>
   <g id="line2d_12">
    <path clip-path="url(#p7d729056e4)" d="M 251.026373 82.208295 
L 250.088328 82.749875 
L 249.142204 83.29612 
L 248.188074 83.846988 
" style="fill:none;stroke:#000000;stroke-linecap:square;stroke-width:1.5;"/>
   </g>
   <g id="line2d_13">
    <path clip-path="url(#p7d729056e4)" d="M 260.130419 101.731984 
L 259.11258 102.102447 
L 258.085976 102.476101 
L 257.050684 102.852916 
" style="fill:none;stroke:#000000;stroke-linecap:square;stroke-width:1.5;"/>
   </g>
   <g id="line2d_14">
    <path clip-path="url(#p7d729056e4)" d="M 265.7059 122.539966 
L 264.639195 122.728055 
L 263.563303 122.917764 
L 262.478306 123.109078 
" style="fill:none;stroke:#000000;stroke-linecap:square;stroke-width:1.5;"/>
   </g>
   <g id="line2d_15">
    <path clip-path="url(#p7d729056e4)" d="M 267.58341 144 
L 266.500249 144 
L 265.40776 144 
L 264.306025 144 
" style="fill:none;stroke:#000000;stroke-linecap:square;stroke-width:1.5;"/>
   </g>
   <g id="line2d_16">
    <path clip-path="url(#p7d729056e4)" d="M 265.7059 165.460034 
L 264.639195 165.271945 
L 263.563303 165.082236 
L 262.478306 164.890922 
" style="fill:none;stroke:#000000;stroke-linecap:square;stroke-width:1.5;"/>
   </g>
   <g id="line2d_17">
    <path clip-path="url(#p7d729056e4)" d="M 260.130419 186.268016 
L 259.11258 185.897553 
L 258.085976 185.523899 
L 257.050684 185.147084 
" style="fill:none;stroke:#000000;stroke-linecap:square;stroke-width:1.5;"/>
   </g>
   <g id="line2d_18">
    <path clip-path="url(#p7d729056e4)" d="M 251.026373 205.791705 
L 250.088328 205.250125 
L 249.142204 204.70388 
L 248.188074 204.153012 
" style="fill:none;stroke:#000000;stroke-linecap:square;stroke-width:1.5;"/>
   </g>
   <g id="line2d_19">
    <path clip-path="url(#p7d729056e4)" d="M 238.670385 223.437885 
L 237.840635 222.741643 
L 237.00374 222.039404 
L 236.159762 221.331222 
" style="fill:none;stroke:#000000;stroke-linecap:square;stroke-width:1.5;"/>
   </g>
   <g id="line2d_20">
    <path clip-path="url(#p7d729056e4)" d="M 223.437885 238.670385 
L 222.741643 237.840635 
L 222.039404 237.00374 
L 221.331222 236.159762 
" style="fill:none;stroke:#000000;stroke-linecap:square;stroke-width:1.5;"/>
   </g>
   <g id="line2d_21">
    <path clip-path="url(#p7d729056e4)" d="M 205.791705 251.026373 
L 205.250125 250.088328 
L 204.70388 249.142204 
L 204.153012 248.188074 
" style="fill:none;stroke:#000000;stroke-linecap:square;stroke-width:1.5;"/>
   </g>
   <g id="line2d_22">
    <path clip-path="url(#p7d729056e4)" d="M 186.268016 260.130419 
L 185.897553 259.11258 
L 185.523899 258.085976 
L 185.147084 257.050684 
" style="fill:none;stroke:#000000;stroke-linecap:square;stroke-width:1.5;"/>
   </g>
   <g id="line2d_23">
    <path clip-path="url(#p7d729056e4)" d="M 165.460034 265.7059 
L 165.271945 264.639195 
L 165.082236 263.563303 
L 164.890922 262.478306 
" style="fill:none;stroke:#000000;stroke-linecap:square;stroke-width:1.5;"/>
   </g>
   <g id="line2d_24">
    <path clip-path="url(#p7d729056e4)" d="M 144 267.58341 
L 144 266.500249 
L 144 265.40776 
L 144 264.306025 
" style="fill:none;stroke:#000000;stroke-linecap:square;stroke-width:1.5;"/>
   </g>
   <g id="line2d_25">
    <path clip-path="url(#p7d729056e4)" d="M 122.539966 265.7059 
L 122.728055 264.639195 
L 122.917764 263.563303 
L 123.109078 262.478306 
" style="fill:none;stroke:#000000;stroke-linecap:square;stroke-width:1.5;"/>
   </g>
   <g id="line2d_26">
    <path clip-path="url(#p7d729056e4)" d="M 101.731984 260.130419 
L 102.102447 259.11258 
L 102.476101 258.085976 
L 102.852916 257.050684 
" style="fill:none;stroke:#000000;stroke-linecap:square;stroke-width:1.5;"/>
   </g>
   <g id="line2d_27">
    <path clip-path="url(#p7d729056e4)" d="M 82.208295 251.026373 
L 82.749875 250.088328 
L 83.29612 249.142204 
L 83.846988 248.188074 
" style="fill:none;stroke:#000000;stroke-linecap:square;stroke-width:1.5;"/>
   </g>
   <g id="line2d_28">
    <path clip-path="url(#p7d729056e4)" d="M 64.562115 238.670385 
L 65.258357 237.840635 
L 65.960596 237.00374 
L 66.668778 236.159762 
" style="fill:none;stroke:#000000;stroke-linecap:square;stroke-width:1.5;"/>
   </g>
   <g id="line2d_29">
    <path clip-path="url(#p7d729056e4)" d="M 49.329615 223.437885 
L 50.159365 222.741643 
L 50.99626 222.039404 
L 51.840238 221.331222 
" style="fill:none;stroke:#000000;stroke-linecap:square;stroke-width:1.5;"/>
   </g>
   <g id="line2d_30">
    <path clip-path="url(#p7d729056e4)" d="M 36.973627 205.791705 
L 37.911672 205.250125 
L 38.857796 204.70388 
L 39.811926 204.153012 
" style="fill:none;stroke:#000000;stroke-linecap:square;stroke-width:1.5;"/>
   </g>
   <g id="line2d_31">
    <path clip-path="url(#p7d729056e4)" d="M 27.869581 186.268016 
L 28.88742 185.897553 
L 29.914024 185.523899 
L 30.949316 185.147084 
" style="fill:none;stroke:#000000;stroke-linecap:square;stroke-width:1.5;"/>
   </g>
   <g id="line2d_32">
    <path clip-path="url(#p7d729056e4)" d="M 22.2941 165.460034 
L 23.360805 165.271945 
L 24.436697 165.082236 
L 25.521694 164.890922 
" style="fill:none;stroke:#000000;stroke-linecap:square;stroke-width:1.5;"/>
   </g>
   <g id="line2d_33">
    <path clip-path="url(#p7d729056e4)" d="M 20.41659 144 
L 21.499751 144 
L 22.59224 144 
L 23.693975 144 
" style="fill:none;stroke:#000000;stroke-linecap:square;stroke-width:1.5;"/>
   </g>
   <g id="line2d_34">
    <path clip-path="url(#p7d729056e4)" d="M 22.2941 122.539966 
L 23.360805 122.728055 
L 24.436697 122.917764 
L 25.521694 123.109078 
" style="fill:none;stroke:#000000;stroke-linecap:square;stroke-width:1.5;"/>
   </g>
   <g id="line2d_35">
    <path clip-path="url(#p7d729056e4)" d="M 27.869581 101.731984 
L 28.88742 102.102447 
L 29.914024 102.476101 
L 30.949316 102.852916 
" style="fill:none;stroke:#000000;stroke-linecap:square;stroke-width:1.5;"/>
   </g>
   <g id="line2d_36">
    <path clip-path="url(#p7d729056e4)" d="M 36.973627 82.208295 
L 37.911672 82.749875 
L 38.857796 83.29612 
L 39.811926 83.846988 
" style="fill:none;stroke:#000000;stroke-linecap:square;stroke-width:1.5;"/>
   </g>
   <g id="line2d_37">
    <path clip-path="url(#p7d729056e4)" d="M 49.329615 64.562115 
L 50.159365 65.258357 
L 50.99626 65.960596 
L 51.840238 66.668778 
" style="fill:none;stroke:#000000;stroke-linecap:square;stroke-width:1.5;"/>
   </g>
   <g id="line2d_38">
    <path clip-path="url(#p7d729056e4)" d="M 64.562115 49.329615 
L 65.258357 50.159365 
L 65.960596 50.99626 
L 66.668778 51.840238 
" style="fill:none;stroke:#000000;stroke-linecap:square;stroke-width:1.5;"/>
   </g>
   <g id="line2d_39">
    <path clip-path="url(#p7d729056e4)" d="M 82.208295 36.973627 
L 82.749875 37.911672 
L 83.29612 38.857796 
L 83.846988 39.811926 
" style="fill:none;stroke:#000000;stroke-linecap:square;stroke-width:1.5;"/>
   </g>
   <g id="line2d_40">
    <path clip-path="url(#p7d729056e4)" d="M 101.731984 27.869581 
L 102.102447 28.88742 
L 102.476101 29.914024 
L 102.852916 30.949316 
" style="fill:none;stroke:#000000;stroke-linecap:square;stroke-width:1.5;"/>
   </g>
   <g id="line2d_41">
    <path clip-path="url(#p7d729056e4)" d="M 122.539966 22.2941 
L 122.728055 23.360805 
L 122.917764 24.436697 
L 123.109078 25.521694 
" style="fill:none;stroke:#000000;stroke-linecap:square;stroke-width:1.5;"/>
   </g>
   <g id="text_1">
    <!-- Original -->
    <defs>
     <path d="M 39.40625 66.21875 
Q 28.65625 66.21875 22.328125 58.203125 
Q 16.015625 50.203125 16.015625 36.375 
Q 16.015625 22.609375 22.328125 14.59375 
Q 28.65625 6.59375 39.40625 6.59375 
Q 50.140625 6.59375 56.421875 14.59375 
Q 62.703125 22.609375 62.703125 36.375 
Q 62.703125 50.203125 56.421875 58.203125 
Q 50.140625 66.21875 39.40625 66.21875 
z
M 39.40625 74.21875 
Q 54.734375 74.21875 63.90625 63.9375 
Q 73.09375 53.65625 73.09375 36.375 
Q 73.09375 19.140625 63.90625 8.859375 
Q 54.734375 -1.421875 39.40625 -1.421875 
Q 24.03125 -1.421875 14.8125 8.828125 
Q 5.609375 19.09375 5.609375 36.375 
Q 5.609375 53.65625 14.8125 63.9375 
Q 24.03125 74.21875 39.40625 74.21875 
z
" id="DejaVuSans-79"/>
     <path d="M 41.109375 46.296875 
Q 39.59375 47.171875 37.8125 47.578125 
Q 36.03125 48 33.890625 48 
Q 26.265625 48 22.1875 43.046875 
Q 18.109375 38.09375 18.109375 28.8125 
L 18.109375 0 
L 9.078125 0 
L 9.078125 54.6875 
L 18.109375 54.6875 
L 18.109375 46.1875 
Q 20.953125 51.171875 25.484375 53.578125 
Q 30.03125 56 36.53125 56 
Q 37.453125 56 38.578125 55.875 
Q 39.703125 55.765625 41.0625 55.515625 
z
" id="DejaVuSans-114"/>
     <path d="M 9.421875 54.6875 
L 18.40625 54.6875 
L 18.40625 0 
L 9.421875 0 
z
M 9.421875 75.984375 
L 18.40625 75.984375 
L 18.40625 64.59375 
L 9.421875 64.59375 
z
" id="DejaVuSans-105"/>
     <path d="M 45.40625 27.984375 
Q 45.40625 37.75 41.375 43.109375 
Q 37.359375 48.484375 30.078125 48.484375 
Q 22.859375 48.484375 18.828125 43.109375 
Q 14.796875 37.75 14.796875 27.984375 
Q 14.796875 18.265625 18.828125 12.890625 
Q 22.859375 7.515625 30.078125 7.515625 
Q 37.359375 7.515625 41.375 12.890625 
Q 45.40625 18.265625 45.40625 27.984375 
z
M 54.390625 6.78125 
Q 54.390625 -7.171875 48.1875 -13.984375 
Q 42 -20.796875 29.203125 -20.796875 
Q 24.46875 -20.796875 20.265625 -20.09375 
Q 16.0625 -19.390625 12.109375 -17.921875 
L 12.109375 -9.1875 
Q 16.0625 -11.328125 19.921875 -12.34375 
Q 23.78125 -13.375 27.78125 -13.375 
Q 36.625 -13.375 41.015625 -8.765625 
Q 45.40625 -4.15625 45.40625 5.171875 
L 45.40625 9.625 
Q 42.625 4.78125 38.28125 2.390625 
Q 33.9375 0 27.875 0 
Q 17.828125 0 11.671875 7.65625 
Q 5.515625 15.328125 5.515625 27.984375 
Q 5.515625 40.671875 11.671875 48.328125 
Q 17.828125 56 27.875 56 
Q 33.9375 56 38.28125 53.609375 
Q 42.625 51.21875 45.40625 46.390625 
L 45.40625 54.6875 
L 54.390625 54.6875 
z
" id="DejaVuSans-103"/>
     <path d="M 54.890625 33.015625 
L 54.890625 0 
L 45.90625 0 
L 45.90625 32.71875 
Q 45.90625 40.484375 42.875 44.328125 
Q 39.84375 48.1875 33.796875 48.1875 
Q 26.515625 48.1875 22.3125 43.546875 
Q 18.109375 38.921875 18.109375 30.90625 
L 18.109375 0 
L 9.078125 0 
L 9.078125 54.6875 
L 18.109375 54.6875 
L 18.109375 46.1875 
Q 21.34375 51.125 25.703125 53.5625 
Q 30.078125 56 35.796875 56 
Q 45.21875 56 50.046875 50.171875 
Q 54.890625 44.34375 54.890625 33.015625 
z
" id="DejaVuSans-110"/>
     <path d="M 34.28125 27.484375 
Q 23.390625 27.484375 19.1875 25 
Q 14.984375 22.515625 14.984375 16.5 
Q 14.984375 11.71875 18.140625 8.90625 
Q 21.296875 6.109375 26.703125 6.109375 
Q 34.1875 6.109375 38.703125 11.40625 
Q 43.21875 16.703125 43.21875 25.484375 
L 43.21875 27.484375 
z
M 52.203125 31.203125 
L 52.203125 0 
L 43.21875 0 
L 43.21875 8.296875 
Q 40.140625 3.328125 35.546875 0.953125 
Q 30.953125 -1.421875 24.3125 -1.421875 
Q 15.921875 -1.421875 10.953125 3.296875 
Q 6 8.015625 6 15.921875 
Q 6 25.140625 12.171875 29.828125 
Q 18.359375 34.515625 30.609375 34.515625 
L 43.21875 34.515625 
L 43.21875 35.40625 
Q 43.21875 41.609375 39.140625 45 
Q 35.0625 48.390625 27.6875 48.390625 
Q 23 48.390625 18.546875 47.265625 
Q 14.109375 46.140625 10.015625 43.890625 
L 10.015625 52.203125 
Q 14.9375 54.109375 19.578125 55.046875 
Q 24.21875 56 28.609375 56 
Q 40.484375 56 46.34375 49.84375 
Q 52.203125 43.703125 52.203125 31.203125 
z
" id="DejaVuSans-97"/>
     <path d="M 9.421875 75.984375 
L 18.40625 75.984375 
L 18.40625 0 
L 9.421875 0 
z
" id="DejaVuSans-108"/>
    </defs>
    <g transform="translate(120.52125 4.8)scale(0.12 -0.12)">
     <use xlink:href="#DejaVuSans-79"/>
     <use x="78.710938" xlink:href="#DejaVuSans-114"/>
     <use x="119.824219" xlink:href="#DejaVuSans-105"/>
     <use x="147.607422" xlink:href="#DejaVuSans-103"/>
     <use x="211.083984" xlink:href="#DejaVuSans-105"/>
     <use x="238.867188" xlink:href="#DejaVuSans-110"/>
     <use x="302.246094" xlink:href="#DejaVuSans-97"/>
     <use x="363.525391" xlink:href="#DejaVuSans-108"/>
    </g>
   </g>
  </g>
 </g>
 <defs>
  <clipPath id="p7d729056e4">
   <rect height="266.4" width="266.4" x="10.8" y="10.8"/>
  </clipPath>
 </defs>
</svg>
